<svg width="769" height="629" viewBox="0 0 769 629" fill="none" xmlns="http://www.w3.org/2000/svg">
<g clip-path="url(#clip0)">
<path d="M8.68927 424.072C7.24399 423.846 5.86357 423.314 4.64035 422.512C3.41713 421.71 2.37929 420.656 1.59624 419.42C0.81318 418.184 0.302951 416.796 0.0996848 415.347C-0.103581 413.899 0.00480264 412.423 0.417571 411.02L8.2059 384.54L20.0406 386.759L20.5494 413.725C20.5777 415.225 20.2773 416.713 19.6694 418.084C19.0615 419.455 18.1608 420.677 17.0305 421.663C15.9003 422.649 14.5678 423.375 13.1268 423.791C11.6858 424.208 10.1712 424.303 8.68927 424.072Z" fill="#9F616A"/>
<path d="M76.9945 593.125L62.2015 590.906L65.8995 446.671L45.1895 508.803L34.0945 596.084L20.0405 592.386L17.0815 501.407L33.3545 394.155L114.718 412.647L76.9945 593.125Z" fill="#0A1230"/>
<path d="M70.2031 628.63C67.3194 628.63 64.5539 627.484 62.5148 625.445C60.4758 623.406 59.3303 620.641 59.3303 617.757C59.3303 617.401 59.3477 617.047 59.3825 616.692L61.6796 593.338C61.735 592.78 61.9266 592.244 62.2376 591.777C62.5486 591.31 62.9694 590.926 63.4632 590.66C67.824 588.308 72.3082 588.879 76.8979 591.948C77.3051 592.223 77.6482 592.582 77.9037 593.001C78.1592 593.42 78.3212 593.889 78.3784 594.377L81.0002 616.476C81.1812 618.001 81.037 619.547 80.577 621.013C80.1171 622.478 79.3518 623.83 78.3317 624.978C77.3116 626.126 76.0598 627.045 74.6587 627.675C73.2576 628.304 71.7391 628.63 70.2031 628.63H70.2031Z" fill="#0A1230"/>
<path d="M9.81936 626.891C8.42528 626.38 7.16567 625.559 6.13578 624.489C5.1059 623.419 4.33272 622.13 3.87469 620.717C3.41666 619.305 3.28579 617.807 3.49197 616.336C3.69815 614.866 4.23598 613.461 5.06479 612.229L20.8448 588.773C26.5334 584.69 29.9642 586.679 31.2981 594.307L34.4883 586.313L36.8922 588.935C38.1119 590.266 38.8215 591.985 38.8956 593.789C38.9697 595.592 38.4034 597.364 37.2969 598.79L20.9289 623.7C19.6552 625.341 17.8923 626.535 15.8952 627.109C13.8981 627.683 11.7702 627.607 9.81936 626.891Z" fill="#0A1230"/>
<path d="M109.54 255.098C121.795 255.098 131.73 245.163 131.73 232.908C131.73 220.653 121.795 210.718 109.54 210.718C97.285 210.718 87.3502 220.653 87.3502 232.908C87.3502 245.163 97.285 255.098 109.54 255.098Z" fill="#9F616A"/>
<path d="M123.594 273.59L85.8709 266.193C90.7298 255.829 94.621 252.323 90.3089 241.044H120.635C117.961 252.727 120.545 263.692 123.594 273.59Z" fill="#9F616A"/>
<path d="M119.156 423.002L30.3959 397.854C48.1746 358.724 51.8985 315.763 46.6273 270.35C46.5019 269.278 46.5889 268.192 46.8833 267.154C47.1776 266.116 47.6736 265.146 48.3428 264.299C49.0121 263.453 49.8415 262.746 50.7838 262.22C51.726 261.694 52.7626 261.359 53.8344 261.234C53.9342 261.222 54.0342 261.212 54.1343 261.204C65.7122 260.251 77.783 259.027 90.3089 257.317L104.363 266.933L120.635 263.234C125.857 265.765 131.116 267.87 135.863 269.969C140.19 271.886 143.648 275.347 145.561 279.676C147.475 284.005 147.707 288.892 146.213 293.383C131.751 337.059 122.07 380.323 119.156 423.002Z" fill="#E6E6E6"/>
<path d="M22.2595 389.717L5.24719 387.498L45.5493 271.373C47.5993 265.467 52.6833 262.269 58.873 261.385L64.7903 262.125L60.3524 330.914L22.2595 389.717Z" fill="#E6E6E6"/>
<path d="M155.523 367.518C152.69 367.736 149.861 367.053 147.439 365.568C145.017 364.082 143.127 361.87 142.037 359.246L125.813 320.189L139.127 272.11L142.646 274.35C142.985 274.566 143.32 274.787 143.65 275.014C148.592 278.475 152.441 283.276 154.744 288.852C157.048 294.427 157.71 300.545 156.653 306.485L153.181 326.846L167.504 357.599C166.776 360.287 165.233 362.684 163.088 364.46C160.943 366.236 158.3 367.304 155.523 367.518Z" fill="#E6E6E6"/>
<path d="M111.247 200.02C115.038 200.194 118.732 201.282 122.013 203.19C122.767 203.629 122.418 205.213 123.116 205.729C123.994 206.379 125.901 205.984 126.678 206.746C129.189 209.197 131.121 212.176 132.336 215.467C133.551 218.758 134.017 222.279 133.701 225.772L132.463 238.084L129.542 234.889C124.304 229.082 117.034 225.512 109.236 224.92C108.905 224.898 108.573 224.88 108.24 224.867L110.488 220.935L106.582 224.84C104.801 224.86 103.023 225.005 101.261 225.273L104.25 220.044L98.5156 225.778L98.5152 225.778C96.1701 226.294 93.979 227.353 92.1183 228.871C90.2576 230.388 88.7794 232.322 87.8027 234.515L87.166 235.927L86.4527 224.182C86.3163 217.905 88.679 211.83 93.0211 207.295C97.3633 202.76 103.329 200.135 109.606 199.999C110.153 199.987 110.7 199.994 111.247 200.02Z" fill="#2F2E41"/>
<path d="M131.875 241.431C132.86 241.431 133.657 239.536 133.657 237.198C133.657 234.86 132.86 232.965 131.875 232.965C130.891 232.965 130.093 234.86 130.093 237.198C130.093 239.536 130.891 241.431 131.875 241.431Z" fill="#9F616A"/>
<path d="M87.318 240.094C88.3023 240.094 89.1003 238.199 89.1003 235.861C89.1003 233.524 88.3023 231.629 87.318 231.629C86.3337 231.629 85.5357 233.524 85.5357 235.861C85.5357 238.199 86.3337 240.094 87.318 240.094Z" fill="#9F616A"/>
<path d="M174.032 292.412C175.453 292.76 176.783 293.407 177.934 294.31C179.085 295.214 180.029 296.352 180.705 297.65C181.38 298.947 181.771 300.374 181.85 301.835C181.93 303.295 181.697 304.756 181.166 306.119L171.158 331.843L159.555 328.627L161.337 301.715C161.436 300.218 161.861 298.761 162.583 297.447C163.306 296.132 164.307 294.991 165.517 294.105C166.726 293.218 168.116 292.607 169.587 292.315C171.058 292.023 172.575 292.056 174.032 292.412H174.032Z" fill="#9F616A"/>
<path d="M160.578 366.048L142.086 354.213L157.619 322.407L176.85 329.804L167.235 357.911L160.578 366.048Z" fill="#E6E6E6"/>
<path d="M173 266.094V140.993H171V266.094C169.786 266.342 168.707 267.032 167.973 268.03C167.238 269.028 166.901 270.263 167.025 271.496C167.15 272.729 167.728 273.871 168.647 274.702C169.566 275.533 170.761 275.993 172 275.993C173.239 275.993 174.434 275.533 175.353 274.702C176.272 273.871 176.85 272.729 176.975 271.496C177.099 270.263 176.762 269.028 176.027 268.03C175.293 267.032 174.214 266.342 173 266.094ZM172 273.993C171.407 273.993 170.827 273.817 170.333 273.488C169.84 273.158 169.455 272.69 169.228 272.141C169.001 271.593 168.942 270.99 169.058 270.408C169.173 269.826 169.459 269.292 169.879 268.872C170.298 268.453 170.833 268.167 171.415 268.051C171.997 267.935 172.6 267.995 173.148 268.222C173.696 268.449 174.165 268.833 174.494 269.327C174.824 269.82 175 270.4 175 270.993C174.999 271.789 174.683 272.551 174.12 273.114C173.558 273.676 172.795 273.993 172 273.993Z" fill="#0A1230"/>
<path d="M170.433 21.5626C169.289 21.5626 168.192 21.1081 167.383 20.2991C166.574 19.4901 166.119 18.3929 166.119 17.2488V4.30728C166.121 3.16432 166.576 2.06875 167.385 1.26117C168.194 0.453588 169.29 0 170.433 0C171.576 0 172.672 0.453588 173.481 1.26117C174.29 2.06875 174.745 3.16432 174.747 4.30728V17.2488C174.747 17.8153 174.635 18.3762 174.419 18.8996C174.202 19.423 173.884 19.8985 173.483 20.2991C173.083 20.6997 172.607 21.0175 172.084 21.2342C171.561 21.451 171 21.5626 170.433 21.5626Z" fill="#6C63FF"/>
<path d="M170.433 120.781C169.867 120.781 169.306 120.669 168.782 120.452C168.259 120.236 167.783 119.918 167.383 119.517C166.982 119.117 166.664 118.641 166.448 118.118C166.231 117.594 166.119 117.034 166.119 116.467V103.526C166.118 102.958 166.229 102.397 166.446 101.873C166.662 101.349 166.98 100.872 167.38 100.471C167.781 100.07 168.257 99.7513 168.781 99.5341C169.305 99.3169 169.866 99.2051 170.433 99.2051C171 99.2051 171.562 99.3169 172.085 99.5341C172.609 99.7513 173.085 100.07 173.486 100.471C173.886 100.872 174.204 101.349 174.42 101.873C174.637 102.397 174.748 102.958 174.747 103.526V116.467C174.747 117.034 174.635 117.594 174.419 118.118C174.202 118.641 173.884 119.117 173.483 119.517C173.083 119.918 172.607 120.236 172.084 120.453C171.561 120.669 171 120.781 170.433 120.781Z" fill="#6C63FF"/>
<path d="M200.937 34.1967C200.084 34.1967 199.25 33.9437 198.541 33.4697C197.831 32.9956 197.278 32.3219 196.952 31.5336C196.625 30.7454 196.54 29.878 196.706 29.0412C196.873 28.2044 197.284 27.4358 197.887 26.8325L207.038 17.6818C207.847 16.8736 208.944 16.4198 210.088 16.4201C211.231 16.4205 212.328 16.875 213.137 17.6837C213.945 18.4924 214.4 19.5891 214.4 20.7328C214.4 21.8765 213.947 22.9734 213.138 23.7826L203.987 32.9333C203.587 33.3344 203.112 33.6525 202.588 33.8694C202.065 34.0862 201.504 34.1974 200.937 34.1967Z" fill="#6C63FF"/>
<path d="M130.778 104.356C129.925 104.356 129.091 104.103 128.382 103.629C127.672 103.155 127.119 102.481 126.793 101.693C126.466 100.905 126.381 100.037 126.547 99.2006C126.714 98.3638 127.124 97.5951 127.728 96.9918L136.878 87.841C137.687 87.032 138.785 86.5774 139.929 86.5774C141.073 86.5774 142.17 87.0319 142.979 87.8409C143.788 88.6498 144.243 89.7471 144.243 90.8912C144.243 92.0353 143.788 93.1326 142.979 93.9416L133.829 103.092C133.428 103.494 132.953 103.812 132.429 104.029C131.906 104.245 131.345 104.357 130.778 104.356Z" fill="#6C63FF"/>
<path d="M226.513 64.701H213.571C212.428 64.6993 211.333 64.244 210.525 63.4352C209.718 62.6263 209.264 61.5301 209.264 60.3872C209.264 59.2442 209.718 58.1479 210.525 57.3391C211.333 56.5303 212.428 56.075 213.571 56.0733H226.513C227.08 56.0724 227.642 56.1834 228.166 56.3998C228.69 56.6162 229.166 56.9338 229.568 57.3345C229.969 57.7351 230.287 58.211 230.504 58.7348C230.722 59.2586 230.833 59.8201 230.833 60.3872C230.833 60.9542 230.722 61.5157 230.504 62.0395C230.287 62.5633 229.969 63.0392 229.568 63.4398C229.166 63.8405 228.69 64.1581 228.166 64.3745C227.642 64.5909 227.08 64.7019 226.513 64.701Z" fill="#6C63FF"/>
<path d="M127.295 64.701H114.353C113.786 64.7019 113.225 64.5909 112.7 64.3745C112.176 64.1581 111.7 63.8405 111.299 63.4398C110.897 63.0392 110.579 62.5633 110.362 62.0395C110.145 61.5157 110.033 60.9542 110.033 60.3872C110.033 59.8201 110.145 59.2586 110.362 58.7348C110.579 58.211 110.897 57.7351 111.299 57.3345C111.7 56.9338 112.176 56.6162 112.7 56.3998C113.225 56.1834 113.786 56.0724 114.353 56.0733H127.295C128.438 56.075 129.533 56.5303 130.341 57.3391C131.148 58.1479 131.602 59.2442 131.602 60.3872C131.602 61.5301 131.148 62.6263 130.341 63.4352C129.533 64.244 128.438 64.6993 127.295 64.701H127.295Z" fill="#6C63FF"/>
<path d="M210.088 104.356C209.521 104.357 208.96 104.245 208.437 104.029C207.913 103.812 207.438 103.494 207.038 103.092L197.887 93.9416C197.486 93.5412 197.167 93.0656 196.95 92.542C196.732 92.0185 196.62 91.4572 196.62 90.8903C196.62 90.3234 196.731 89.762 196.948 89.2382C197.165 88.7144 197.483 88.2385 197.884 87.8376C198.284 87.4368 198.76 87.1189 199.284 86.9021C199.808 86.6853 200.369 86.5738 200.936 86.5742C201.503 86.5745 202.064 86.6865 202.588 86.9039C203.111 87.1213 203.587 87.4397 203.987 87.841L213.138 96.9919C213.742 97.5952 214.152 98.3638 214.319 99.2006C214.485 100.037 214.4 100.905 214.073 101.693C213.747 102.481 213.194 103.155 212.485 103.629C211.775 104.103 210.941 104.356 210.088 104.356V104.356Z" fill="#6C63FF"/>
<path d="M139.929 34.1967C139.362 34.1975 138.801 34.0862 138.278 33.8694C137.754 33.6525 137.279 33.3344 136.879 32.9332L127.728 23.7826C127.327 23.382 127.009 22.9064 126.793 22.3831C126.576 21.8597 126.464 21.2987 126.464 20.7322C126.464 20.1657 126.576 19.6047 126.793 19.0813C127.009 18.5579 127.327 18.0824 127.728 17.6818C128.128 17.2812 128.604 16.9634 129.127 16.7466C129.651 16.5298 130.212 16.4183 130.778 16.4183C131.345 16.4183 131.906 16.5298 132.429 16.7466C132.952 16.9634 133.428 17.2812 133.829 17.6818L142.979 26.8326C143.582 27.4359 143.993 28.2046 144.16 29.0413C144.326 29.8781 144.241 30.7455 143.914 31.5337C143.588 32.3219 143.035 32.9957 142.325 33.4697C141.616 33.9437 140.782 34.1967 139.929 34.1967Z" fill="#6C63FF"/>
<path d="M170.433 86.2701C165.314 86.2701 160.31 84.7521 156.053 81.9081C151.797 79.064 148.479 75.0216 146.52 70.2921C144.561 65.5626 144.049 60.3585 145.047 55.3377C146.046 50.3168 148.511 45.7049 152.131 42.0851C155.751 38.4653 160.363 36.0002 165.384 35.0015C170.404 34.0028 175.609 34.5154 180.338 36.4744C185.068 38.4334 189.11 41.7509 191.954 46.0073C194.798 50.2638 196.316 55.268 196.316 60.3871C196.308 67.2494 193.579 73.8283 188.727 78.6806C183.874 83.533 177.295 86.2624 170.433 86.2701ZM170.433 43.1318C167.02 43.1318 163.684 44.1438 160.847 46.0399C158.009 47.9359 155.797 50.6308 154.491 53.7838C153.185 56.9368 152.844 60.4063 153.509 63.7535C154.175 67.1007 155.819 70.1753 158.232 72.5885C160.645 75.0017 163.72 76.6451 167.067 77.3109C170.414 77.9767 173.883 77.635 177.036 76.329C180.189 75.023 182.884 72.8113 184.78 69.9737C186.676 67.1361 187.688 63.7999 187.688 60.3871C187.683 55.8123 185.864 51.4264 182.629 48.1915C179.394 44.9566 175.008 43.137 170.433 43.1318Z" fill="#6C63FF"/>
<path d="M768.833 0H310.118C306.594 21.4871 304.826 43.2257 304.833 65C304.833 284.809 483.024 463 702.833 463C724.946 463.008 747.021 461.185 768.833 457.55V0Z" fill="#0A1230"/>
<path d="M574.681 248.809C567.796 248.815 560.967 247.582 554.519 245.17C554.15 245.032 553.812 244.822 553.524 244.553C553.236 244.284 553.004 243.961 552.841 243.603C552.678 243.244 552.587 242.857 552.573 242.463C552.56 242.07 552.624 241.677 552.763 241.308C552.901 240.939 553.11 240.601 553.379 240.313C553.648 240.025 553.971 239.793 554.33 239.63C554.688 239.467 555.076 239.376 555.469 239.363C555.863 239.349 556.255 239.414 556.624 239.552C565.173 242.711 574.398 243.586 583.388 242.09C592.379 240.594 600.823 236.779 607.888 231.021C585.85 231.255 564.293 220.84 553.569 204.128C546.674 193.385 544.42 180.744 547.048 167.57C549.06 158.017 553.192 149.037 559.137 141.293C547.785 144.905 538.016 152.302 531.46 162.248C524.904 172.193 521.958 184.087 523.114 195.943C523.154 196.336 523.116 196.733 523.003 197.111C522.889 197.489 522.702 197.841 522.453 198.147C522.203 198.453 521.895 198.706 521.547 198.893C521.199 199.08 520.818 199.196 520.425 199.235C520.032 199.274 519.636 199.235 519.258 199.12C518.88 199.005 518.529 198.817 518.224 198.566C517.919 198.316 517.666 198.007 517.481 197.658C517.295 197.31 517.181 196.928 517.143 196.535C515.686 181.619 520.055 166.716 529.335 154.948C538.616 143.18 552.089 135.457 566.935 133.397C567.556 133.311 568.188 133.421 568.743 133.713C569.298 134.004 569.747 134.462 570.029 135.021C570.31 135.581 570.409 136.215 570.312 136.835C570.214 137.454 569.925 138.027 569.486 138.473C554.142 154.059 544.83 179.402 558.617 200.888C569.495 217.837 592.901 227.532 615.546 224.468C616.154 224.386 616.772 224.491 617.317 224.771C617.863 225.051 618.309 225.491 618.597 226.032C618.885 226.574 619 227.19 618.927 227.799C618.854 228.407 618.596 228.979 618.188 229.436C612.704 235.542 605.996 240.422 598.499 243.76C591.003 247.098 582.887 248.818 574.681 248.809Z" fill="#6C63FF"/>
<path d="M526.833 250C522.482 250 518.229 248.71 514.611 246.292C510.993 243.875 508.173 240.439 506.508 236.419C504.843 232.399 504.407 227.976 505.256 223.708C506.105 219.44 508.2 215.52 511.277 212.444C514.354 209.367 518.274 207.272 522.541 206.423C526.809 205.574 531.232 206.01 535.252 207.675C539.272 209.34 542.708 212.16 545.126 215.777C547.543 219.395 548.833 223.649 548.833 228C548.827 233.833 546.507 239.425 542.382 243.549C538.258 247.673 532.666 249.993 526.833 250ZM526.833 212C523.669 212 520.575 212.938 517.944 214.697C515.313 216.455 513.262 218.953 512.051 221.877C510.84 224.801 510.523 228.018 511.141 231.121C511.758 234.225 513.282 237.076 515.52 239.314C517.757 241.551 520.608 243.075 523.712 243.693C526.816 244.31 530.033 243.993 532.956 242.782C535.88 241.571 538.379 239.52 540.137 236.889C541.895 234.258 542.833 231.165 542.833 228C542.829 223.758 541.141 219.691 538.142 216.692C535.142 213.692 531.075 212.005 526.833 212Z" fill="#6C63FF"/>
</g>
<defs>
<clipPath id="clip0">
<rect width="768.833" height="628.63" fill="white"/>
</clipPath>
</defs>
</svg>
