<svg width="1000" height="779" viewBox="0 0 1000 779" fill="none" xmlns="http://www.w3.org/2000/svg">
<path d="M931.711 477.383C933.888 480.582 936.708 483.292 939.99 485.342C943.272 487.392 946.945 488.737 950.774 489.29C954.604 489.843 958.507 489.593 962.235 488.556C965.963 487.519 969.435 485.717 972.428 483.265V483.265C984.35 474.589 993.312 462.453 998.097 448.506C1004.06 426.963 995.117 401.6 983.811 379.752C937.975 291.441 846.303 229.868 759.596 228.798L931.711 477.383Z" fill="#6C63FF"/>
<path d="M959.977 490.828H959.365C958.633 490.663 957.993 490.22 957.58 489.594C957.167 488.967 957.013 488.205 957.15 487.467C958.267 481.237 957.819 474.827 955.846 468.813C953.872 462.799 950.435 457.37 945.844 453.013C945.316 452.471 945.021 451.745 945.021 450.989C945.021 450.233 945.316 449.506 945.844 448.964C946.394 448.454 947.117 448.171 947.868 448.171C948.619 448.171 949.342 448.454 949.893 448.964C955.217 454.013 959.194 460.313 961.462 467.291C963.73 474.269 964.217 481.704 962.879 488.918C962.689 489.522 962.297 490.042 961.768 490.39C961.239 490.737 960.606 490.892 959.977 490.828V490.828Z" fill="#0A1230"/>
<path d="M987.936 470.66H987.325C986.957 470.579 986.608 470.425 986.3 470.208C985.992 469.99 985.73 469.713 985.531 469.392C985.331 469.072 985.198 468.715 985.139 468.342C985.08 467.969 985.096 467.589 985.186 467.222C986.304 460.992 985.856 454.582 983.882 448.568C981.909 442.555 978.472 437.125 973.88 432.769C973.61 432.506 973.395 432.191 973.248 431.843C973.102 431.495 973.026 431.122 973.026 430.745C973.026 430.367 973.102 429.994 973.248 429.646C973.395 429.298 973.61 428.983 973.88 428.72C974.422 428.193 975.148 427.898 975.905 427.898C976.661 427.898 977.387 428.193 977.929 428.72C983.249 433.758 987.229 440.042 989.51 447.005C991.791 453.967 992.301 461.388 990.992 468.597C990.814 469.25 990.408 469.817 989.847 470.195C989.286 470.574 988.608 470.739 987.936 470.66V470.66Z" fill="#0A1230"/>
<path d="M334.573 364.267C348.779 333.138 291.156 276.351 205.869 237.43C120.582 198.509 39.9277 192.191 25.7219 223.32C11.5161 254.448 69.1387 311.235 154.426 350.156C239.713 389.078 320.367 395.395 334.573 364.267Z" fill="#6C63FF"/>
<path d="M336.835 353.32C336.992 356.948 336.285 360.561 334.772 363.862C320.64 395.031 239.968 388.69 154.713 349.806C69.458 310.921 11.781 254.008 25.9902 222.611C27.4899 219.268 29.769 216.334 32.6364 214.054C32.6364 246.292 87.1049 295.414 163.422 330.249C239.739 365.084 312.16 373.793 336.835 353.32Z" fill="#0A1230"/>
<path d="M762.576 532.997C780.234 546.551 795.231 563.257 806.808 582.271L822.85 606.488C850.046 605.647 868.686 630.857 868.686 630.857C870.202 632.767 871.26 634.998 871.78 637.38C872.3 639.762 872.267 642.231 871.684 644.599C871.102 646.966 869.985 649.168 868.419 651.037C866.853 652.906 864.88 654.391 862.651 655.379L846.456 663.019L818.114 640.865C829.94 646.133 840.222 654.338 847.984 664.699C860.207 681.506 815.44 699.153 793.897 701.139C784.641 701.976 775.391 699.469 767.823 694.074C760.256 688.678 754.871 680.751 752.645 671.727L725.449 564.089" fill="#6C63FF"/>
<path d="M798.175 569.437C780.87 588.815 761.033 605.774 739.199 619.856L734.463 601.14C753.756 588.315 771.429 573.207 787.098 556.144C791.041 560.36 794.739 564.798 798.175 569.437V569.437Z" fill="#0A1230"/>
<path d="M849.206 663.783C848.565 663.788 847.94 663.582 847.428 663.195C846.917 662.808 846.548 662.262 846.38 661.644C844.657 655.545 841.443 649.97 837.029 645.422C832.615 640.875 827.138 637.497 821.093 635.593C820.737 635.488 820.405 635.314 820.116 635.08C819.827 634.847 819.587 634.559 819.41 634.232C819.233 633.906 819.121 633.548 819.082 633.178C819.044 632.809 819.078 632.436 819.183 632.079C819.397 631.34 819.894 630.716 820.568 630.343C821.241 629.971 822.034 629.881 822.774 630.093C829.808 632.335 836.166 636.308 841.265 641.647C846.364 646.986 850.04 653.521 851.956 660.65C852.048 661.012 852.067 661.387 852.013 661.756C851.958 662.125 851.832 662.479 851.64 662.798C851.448 663.118 851.195 663.396 850.895 663.618C850.596 663.839 850.255 663.999 849.894 664.088L849.206 663.783Z" fill="#0A1230"/>
<path d="M822.697 694.493C822.056 694.499 821.431 694.292 820.92 693.905C820.408 693.518 820.04 692.972 819.871 692.354C818.148 686.255 814.935 680.68 810.52 676.133C806.106 671.585 800.63 668.207 794.585 666.304C794.228 666.198 793.896 666.024 793.607 665.79C793.319 665.557 793.079 665.269 792.901 664.942C792.724 664.616 792.613 664.258 792.574 663.888C792.535 663.519 792.569 663.146 792.675 662.789C792.888 662.05 793.386 661.426 794.059 661.053C794.732 660.681 795.526 660.591 796.265 660.803C803.255 663.01 809.584 666.925 814.679 672.194C819.775 677.463 823.476 683.919 825.447 690.979C825.539 691.34 825.558 691.716 825.504 692.084C825.449 692.453 825.323 692.807 825.131 693.127C824.939 693.446 824.687 693.724 824.387 693.946C824.087 694.167 823.747 694.327 823.385 694.416L822.697 694.493Z" fill="#0A1230"/>
<path d="M60.2908 254.008C59.8554 253.999 59.4268 253.899 59.0322 253.715C58.6376 253.531 58.2858 253.267 57.9991 252.939C53.9534 248.079 48.7644 244.299 42.8977 241.939C37.031 239.579 30.6701 238.712 24.3859 239.417C23.6264 239.526 22.8546 239.331 22.2391 238.873C21.6235 238.415 21.2144 237.731 21.101 236.972C21.0474 236.601 21.0683 236.222 21.1626 235.859C21.2569 235.495 21.4226 235.154 21.6502 234.855C21.8778 234.557 22.1626 234.306 22.4881 234.119C22.8135 233.932 23.173 233.811 23.5456 233.764C30.7967 232.89 38.1514 233.828 44.9509 236.494C51.7504 239.161 57.7824 243.472 62.5063 249.043C62.9769 249.643 63.1926 250.403 63.1068 251.161C63.0211 251.919 62.6407 252.612 62.0479 253.091C61.5804 253.584 60.9621 253.906 60.2908 254.008V254.008Z" fill="#0A1230"/>
<path d="M80.6114 226.507C80.1854 226.507 79.7649 226.411 79.3813 226.226C78.9977 226.04 78.6609 225.771 78.3961 225.437C74.343 220.565 69.1415 216.779 63.2603 214.418C57.3791 212.058 51.003 211.198 44.7065 211.915C43.9592 212.003 43.2069 211.798 42.6083 211.341C42.0098 210.885 41.6117 210.215 41.498 209.471C41.4443 209.099 41.4653 208.721 41.5596 208.357C41.6539 207.994 41.8196 207.653 42.0472 207.354C42.2748 207.055 42.5596 206.805 42.8851 206.617C43.2105 206.43 43.57 206.309 43.9425 206.262C51.1946 205.374 58.5537 206.306 65.3556 208.973C72.1575 211.641 78.1881 215.96 82.9032 221.541C83.3554 222.148 83.5596 222.904 83.4744 223.656C83.3893 224.408 83.0212 225.099 82.4449 225.59C81.9472 226.083 81.3047 226.404 80.6114 226.507V226.507Z" fill="#0A1230"/>
<path d="M249.288 263.023C248.72 263.035 248.161 262.875 247.684 262.564C221.392 245.538 192.637 232.655 162.429 224.368C162.068 224.277 161.728 224.117 161.429 223.895C161.13 223.673 160.877 223.395 160.686 223.076C160.494 222.757 160.367 222.403 160.313 222.035C160.258 221.666 160.276 221.291 160.366 220.93C160.457 220.569 160.617 220.229 160.839 219.93C161.06 219.631 161.339 219.378 161.658 219.187C161.977 218.995 162.331 218.868 162.699 218.813C163.068 218.759 163.443 218.777 163.804 218.867C194.695 227.286 224.08 240.483 250.893 257.981C251.512 258.413 251.938 259.07 252.08 259.812C252.223 260.554 252.071 261.322 251.656 261.953C251.38 262.313 251.02 262.599 250.607 262.785C250.194 262.972 249.741 263.053 249.288 263.023V263.023Z" fill="#0A1230"/>
<path d="M309.639 273.641C297.94 259.591 288.717 243.652 282.367 226.507C275.98 209.223 274.785 190.45 278.929 172.497C287.039 181.335 296.897 188.391 307.877 193.217C318.858 198.043 330.723 200.535 342.718 200.533" fill="#6C63FF"/>
<path d="M300.93 250.341C296.963 223.425 297.713 196.023 303.146 169.364C308.692 142.603 321.974 118.059 341.342 98.7768C344.553 116.375 351.411 133.106 361.476 147.894C371.541 162.682 384.59 175.2 399.783 184.643" fill="#6C63FF"/>
<path d="M683.585 99.235C694.161 89.8387 706.282 82.3434 719.414 77.0809C732.596 71.7639 747.062 70.4875 760.972 73.4141C754.298 79.8687 749.05 87.6483 745.563 96.2528C742.077 104.857 740.43 114.096 740.727 123.375" fill="#6C63FF"/>
<path d="M523.464 97.9364C521.196 83.9809 521.377 69.7369 523.999 55.8436C526.671 41.9043 533.363 29.0515 543.25 18.8692C545.076 27.987 548.785 36.6235 554.139 44.2265C559.492 51.8296 566.374 58.2321 574.342 63.0246" fill="#6C63FF"/>
<path d="M665.48 596.48L576.481 612.523L619.262 715.654C622.901 724.2 623.362 733.766 620.559 742.622C617.757 751.478 611.877 759.038 603.983 763.934C585.572 775.241 539.125 787.846 538.819 767.067C538.868 754.119 542.206 741.396 548.521 730.092L539.049 764.851L521.402 768.136C519.019 768.703 516.538 768.711 514.152 768.161C511.766 767.61 509.54 766.516 507.646 764.963C505.753 763.41 504.244 761.44 503.238 759.208C502.232 756.975 501.755 754.541 501.845 752.093V752.093C501.845 752.093 501.845 720.925 523.77 705.264L522.089 676.311C519.981 654.156 522.001 631.802 528.048 610.384L710.17 577.152" fill="#6C63FF"/>
<path d="M575.947 648.046C737.707 648.046 868.839 516.913 868.839 355.153C868.839 193.393 737.707 62.2607 575.947 62.2607C414.187 62.2607 283.054 193.393 283.054 355.153C283.054 516.913 414.187 648.046 575.947 648.046Z" fill="#6C63FF"/>
<path opacity="0.6" d="M886.486 412.066L867.769 384.947C872.346 339.399 866.225 293.412 849.893 250.647C859.029 254.88 867.906 259.651 876.478 264.932C880.943 278.178 884.416 291.737 886.868 305.497C893.278 340.743 893.148 376.867 886.486 412.066V412.066Z" fill="#0A1230"/>
<path opacity="0.6" d="M886.486 412.066L867.769 384.947C872.346 339.399 866.225 293.412 849.893 250.647C859.029 254.88 867.906 259.651 876.478 264.932C880.943 278.178 884.416 291.737 886.868 305.497C893.278 340.743 893.148 376.867 886.486 412.066V412.066Z" fill="#0A1230"/>
<path d="M598.483 665.769C572.574 667.539 546.546 665.818 521.096 660.65C521.105 654.858 521.411 649.07 522.013 643.309C544.66 647.618 567.748 649.157 590.767 647.893L598.483 665.769Z" fill="#0A1230"/>
<g opacity="0.25">
<path opacity="0.25" d="M462.961 147.058C431.563 123.223 383.435 160.426 367.622 186.858C358.607 202.137 351.35 223.145 359.295 240.334C368.233 259.432 391.533 268.294 415.215 242.32C418.709 237.069 422.84 232.27 427.514 228.035C436.605 222.229 462.961 224.826 472.816 198.852C477.432 190.415 478.973 180.636 477.176 171.188C475.378 161.74 470.353 153.21 462.961 147.058V147.058Z" fill="#FCFEFE"/>
<path opacity="0.25" d="M365.406 312.831C376.629 312.831 385.727 303.733 385.727 292.511C385.727 281.288 376.629 272.19 365.406 272.19C354.184 272.19 345.086 281.288 345.086 292.511C345.086 303.733 354.184 312.831 365.406 312.831Z" fill="#FCFEFE"/>
</g>
<g opacity="0.5">
<path opacity="0.5" d="M861.123 288.309C867.773 340.246 860.381 393.017 839.718 441.129C819.054 489.241 785.874 530.935 743.63 561.874C743.706 561.112 743.706 560.344 743.63 559.582C743.433 557.858 742.884 556.194 742.018 554.691C741.152 553.187 739.986 551.878 738.593 550.844C737.201 549.809 735.611 549.071 733.921 548.676C732.232 548.28 730.48 548.236 728.773 548.545C727.066 548.854 725.44 549.51 723.997 550.472C722.553 551.434 721.323 552.683 720.381 554.14C719.439 555.597 718.806 557.232 718.522 558.943C718.237 560.654 718.307 562.406 718.726 564.089C719.089 566.187 719.982 568.158 721.318 569.815C722.655 571.473 724.392 572.762 726.365 573.562C686.873 598.36 642.031 613.372 595.568 617.351C549.105 621.33 502.364 614.159 459.23 596.437C416.097 578.714 377.817 550.951 347.573 515.455C317.329 479.96 295.996 437.757 285.346 392.357C286.034 397.246 286.721 402.288 287.638 407.635C301.456 484.079 345.075 551.903 408.9 596.187C440.502 618.114 476.115 633.601 513.703 641.765C551.291 649.929 590.119 650.61 627.971 643.768C665.822 636.926 701.955 622.695 734.306 601.889C766.658 581.083 794.595 554.109 816.522 522.506C838.449 490.903 853.936 455.291 862.1 417.702C870.264 380.114 870.945 341.286 864.103 303.435C862.957 298.164 862.269 293.198 861.123 288.309Z" fill="#0E00F0"/>
<path opacity="0.5" d="M749.054 543.158C749.556 543.072 750.036 542.889 750.467 542.618C750.897 542.348 751.271 541.995 751.565 541.58C751.859 541.165 752.069 540.696 752.182 540.2C752.296 539.704 752.31 539.19 752.225 538.688C752.139 538.187 751.956 537.707 751.685 537.276C751.415 536.845 751.062 536.472 750.647 536.178C750.232 535.883 749.763 535.674 749.267 535.56C748.771 535.447 748.257 535.433 747.756 535.518C746.743 535.69 745.839 536.258 745.245 537.096C744.65 537.934 744.413 538.974 744.585 539.987C744.758 541 745.325 541.903 746.163 542.498C747.001 543.092 748.041 543.33 749.054 543.158V543.158Z" fill="#0E00F0"/>
<path opacity="0.5" d="M707.649 556.985C708.992 556.795 710.248 556.207 711.255 555.297C712.261 554.387 712.973 553.197 713.298 551.88C713.622 550.563 713.545 549.178 713.077 547.905C712.609 546.632 711.77 545.528 710.669 544.735C709.568 543.942 708.255 543.497 706.899 543.457C705.542 543.416 704.205 543.783 703.059 544.508C701.913 545.234 701.01 546.286 700.466 547.53C699.923 548.773 699.764 550.15 700.01 551.484C700.327 553.21 701.3 554.745 702.723 555.77C704.147 556.795 705.912 557.231 707.649 556.985V556.985Z" fill="#0E00F0"/>
</g>
<path d="M535 766.685C534.431 766.686 533.875 766.52 533.399 766.208C532.924 765.895 532.551 765.45 532.326 764.928C529.71 758.082 528.836 750.693 529.783 743.426C530.73 736.158 533.468 729.24 537.75 723.293C537.969 722.99 538.247 722.734 538.566 722.54C538.885 722.345 539.239 722.215 539.609 722.158C539.978 722.101 540.355 722.119 540.718 722.208C541.081 722.298 541.422 722.459 541.723 722.682C542.339 723.139 542.749 723.822 542.864 724.58C542.978 725.339 542.788 726.112 542.334 726.731C538.635 731.872 536.272 737.852 535.459 744.133C534.645 750.414 535.407 756.798 537.674 762.712C537.824 763.058 537.903 763.43 537.907 763.806C537.911 764.183 537.84 764.557 537.698 764.905C537.555 765.254 537.345 765.571 537.078 765.837C536.812 766.103 536.495 766.313 536.146 766.455L535 766.685Z" fill="#0A1230"/>
<path d="M571.287 777.609C570.724 777.627 570.17 777.467 569.703 777.151C569.237 776.836 568.882 776.381 568.689 775.852C566.049 769.028 565.155 761.652 566.088 754.394C567.022 747.137 569.754 740.227 574.037 734.294C574.249 733.982 574.523 733.718 574.842 733.517C575.161 733.316 575.518 733.183 575.89 733.126C576.263 733.068 576.643 733.088 577.008 733.184C577.372 733.28 577.713 733.45 578.009 733.683C578.312 733.902 578.568 734.179 578.763 734.498C578.957 734.817 579.087 735.172 579.144 735.541C579.201 735.911 579.184 736.288 579.094 736.651C579.004 737.013 578.843 737.355 578.62 737.655C574.921 742.796 572.559 748.776 571.746 755.057C570.932 761.338 571.693 767.723 573.96 773.636C574.11 773.982 574.19 774.354 574.194 774.731C574.198 775.107 574.127 775.481 573.984 775.83C573.842 776.178 573.631 776.495 573.365 776.761C573.098 777.028 572.781 777.238 572.433 777.38C572.069 777.529 571.68 777.607 571.287 777.609Z" fill="#0A1230"/>
<path d="M421.25 524.517C417.66 545.167 417.66 566.281 421.25 586.931C424.95 607.641 434.675 626.8 449.21 642.01C452.064 628.523 457.694 615.777 465.743 604.584C473.793 593.391 484.084 583.997 495.963 577" fill="#6C63FF"/>
<path d="M331.717 473.181C328.05 493.824 328.05 514.951 331.717 535.594C335.442 556.296 345.164 575.448 359.677 590.674C362.499 577.174 368.117 564.415 376.17 553.219C384.222 542.022 394.53 532.635 406.429 525.663" fill="#6C63FF"/>
<path d="M487.025 552.401C483.435 573.051 483.435 594.165 487.025 614.814C490.809 635.534 500.552 654.702 515.061 669.971C517.896 656.475 523.511 643.719 531.547 632.513C539.583 621.307 549.865 611.897 561.738 604.883" fill="#6C63FF"/>
<path d="M798.252 445.985C808.804 464.094 816.144 483.891 819.947 504.502C823.691 525.24 821.274 546.62 812.996 565.999C805.636 554.328 795.912 544.328 784.452 536.644C772.992 528.96 760.049 523.762 746.457 521.385" fill="#6C63FF"/>
<path d="M546.688 76.4698C556.445 57.8735 569.371 41.1215 584.885 26.9669C600.414 12.7285 619.775 3.35317 640.575 0C634.636 12.4503 631.371 26.0065 630.989 39.7956C630.608 53.5846 633.119 67.3007 638.36 80.0603" fill="#6C63FF"/>
<path d="M719.414 109.777C733.499 101.817 748.849 96.339 764.791 93.5821C780.81 90.7681 797.302 92.7068 812.232 99.1588C803.194 104.811 795.44 112.291 789.467 121.119C783.494 129.947 779.434 139.928 777.549 150.419" fill="#6C63FF"/>
<path opacity="0.7" d="M362.503 169.976C360.573 169.969 358.717 169.232 357.308 167.913C356.567 167.228 355.968 166.403 355.547 165.486C355.126 164.569 354.891 163.577 354.856 162.569C354.82 161.56 354.985 160.554 355.34 159.61C355.696 158.665 356.235 157.8 356.927 157.065C359.066 154.773 411.319 99.3116 474.267 79.2201C475.225 78.9115 476.234 78.7952 477.237 78.8779C478.24 78.9607 479.217 79.2408 480.112 79.7022C481.006 80.1637 481.801 80.7973 482.449 81.5667C483.098 82.3361 483.589 83.2261 483.892 84.1856C484.492 86.1105 484.307 88.1945 483.377 89.9832C482.447 91.772 480.847 93.1205 478.927 93.7348C419.722 112.68 368.615 166.996 368.08 167.531C367.368 168.299 366.505 168.912 365.546 169.333C364.586 169.753 363.551 169.972 362.503 169.976Z" fill="#FCFEFE"/>
<path d="M586.011 410.759C633.259 402.224 663.299 349.563 653.106 293.139C642.913 236.715 596.347 197.894 549.099 206.429C501.85 214.964 471.811 267.625 482.004 324.049C492.197 380.473 538.762 419.294 586.011 410.759Z" fill="#FCFEFE"/>
<path d="M529.117 321.005C550.677 321.005 568.154 303.528 568.154 281.968C568.154 260.409 550.677 242.931 529.117 242.931C507.558 242.931 490.08 260.409 490.08 281.968C490.08 303.528 507.558 321.005 529.117 321.005Z" fill="#0A1230"/>
<path d="M515.672 289.455C522.507 289.455 528.048 283.914 528.048 277.079C528.048 270.244 522.507 264.703 515.672 264.703C508.837 264.703 503.296 270.244 503.296 277.079C503.296 283.914 508.837 289.455 515.672 289.455Z" fill="#FCFEFE"/>
<path d="M462.426 104.583C465.168 104.583 467.391 102.36 467.391 99.6172C467.391 96.8748 465.168 94.6516 462.426 94.6516C459.684 94.6516 457.46 96.8748 457.46 99.6172C457.46 102.36 459.684 104.583 462.426 104.583Z" fill="#FCFEFE"/>
<path d="M455.016 111.916C456.661 111.916 457.995 110.583 457.995 108.937C457.995 107.292 456.661 105.958 455.016 105.958C453.371 105.958 452.037 107.292 452.037 108.937C452.037 110.583 453.371 111.916 455.016 111.916Z" fill="#FCFEFE"/>
<path d="M449.439 101.909C451.084 101.909 452.418 100.575 452.418 98.9295C452.418 97.284 451.084 95.9501 449.439 95.9501C447.793 95.9501 446.46 97.284 446.46 98.9295C446.46 100.575 447.793 101.909 449.439 101.909Z" fill="#FCFEFE"/>
<path d="M470.371 107.027C471.426 107.027 472.281 106.172 472.281 105.117C472.281 104.063 471.426 103.208 470.371 103.208C469.316 103.208 468.461 104.063 468.461 105.117C468.461 106.172 469.316 107.027 470.371 107.027Z" fill="#FCFEFE"/>
<path opacity="0.7" d="M305.285 233.993C303.498 234.029 301.754 233.437 300.358 232.321C298.963 231.204 298.003 229.633 297.645 227.882C297.645 226.277 290.006 189.685 312.16 139.876C312.98 138.041 314.49 136.603 316.364 135.873C318.237 135.144 320.323 135.182 322.168 135.98C323.093 136.379 323.93 136.957 324.631 137.68C325.332 138.404 325.883 139.259 326.252 140.196C326.621 141.133 326.801 142.134 326.782 143.141C326.763 144.148 326.545 145.142 326.14 146.064C306.583 191.289 312.924 224.52 312.924 224.826C313.125 225.809 313.13 226.822 312.939 227.807C312.749 228.793 312.366 229.73 311.812 230.568C311.259 231.405 310.546 232.125 309.714 232.686C308.883 233.248 307.949 233.64 306.965 233.84L305.285 233.993Z" fill="#FCFEFE"/>
<path opacity="0.7" d="M283.283 374.557C281.334 374.561 279.457 373.819 278.037 372.484C276.617 371.149 275.761 369.322 275.644 367.376C274.453 334.82 278.423 302.282 287.408 270.968C287.992 269.037 289.315 267.415 291.09 266.456C292.865 265.497 294.946 265.279 296.881 265.849C298.826 266.417 300.466 267.733 301.44 269.51C302.415 271.286 302.643 273.377 302.076 275.322C293.655 304.939 289.893 335.686 290.922 366.459C290.926 368.409 290.184 370.285 288.849 371.705C287.514 373.126 285.687 373.982 283.741 374.099L283.283 374.557Z" fill="#FCFEFE"/>
<path d="M318.195 410.08C322.228 429.873 328.137 449.237 335.842 467.91C339.967 478.07 356.545 473.64 352.419 463.326C344.614 444.689 338.603 425.351 334.467 405.573C332.404 394.725 315.827 399.309 317.889 410.157L318.195 410.08Z" fill="#FCFEFE"/>
<path d="M321.48 387.315C326.712 387.315 330.953 383.074 330.953 377.842C330.953 372.61 326.712 368.369 321.48 368.369C316.248 368.369 312.007 372.61 312.007 377.842C312.007 383.074 316.248 387.315 321.48 387.315Z" fill="#FCFEFE"/>
<g opacity="0.4">
<path opacity="0.4" d="M771.285 516.038C769.835 516.062 768.435 515.513 767.389 514.51C766.316 513.436 765.713 511.979 765.713 510.461C765.713 508.943 766.316 507.486 767.389 506.412C786.256 486.444 801.739 463.53 813.225 438.575C813.521 437.863 813.958 437.218 814.51 436.678C815.062 436.139 815.717 435.717 816.436 435.437C817.154 435.157 817.922 435.025 818.693 435.049C819.464 435.074 820.223 435.253 820.923 435.577C821.623 435.902 822.25 436.364 822.767 436.936C823.284 437.509 823.68 438.18 823.931 438.909C824.183 439.639 824.284 440.411 824.23 441.181C824.175 441.95 823.966 442.701 823.614 443.388C811.588 469.472 795.383 493.418 775.639 514.281C775.07 514.853 774.391 515.304 773.642 515.606C772.894 515.908 772.092 516.055 771.285 516.038V516.038Z" fill="#0E00F0"/>
<path opacity="0.4" d="M821.093 283.267C819.687 283.256 818.334 282.729 817.292 281.785C816.249 280.841 815.59 279.547 815.44 278.149C813.642 263.401 809.571 249.022 803.37 235.521C802.749 234.122 802.706 232.535 803.25 231.104C803.794 229.673 804.88 228.515 806.273 227.882C806.964 227.564 807.712 227.387 808.472 227.361C809.232 227.336 809.99 227.461 810.701 227.732C811.412 228.002 812.063 228.411 812.614 228.935C813.165 229.459 813.607 230.088 813.912 230.785C820.626 245.285 825.009 260.754 826.899 276.621C827.051 278.126 826.609 279.631 825.667 280.816C824.725 282 823.358 282.77 821.857 282.961L821.093 283.267Z" fill="#0E00F0"/>
<path opacity="0.4" d="M569.988 604.425C561.466 604.438 552.949 604.005 544.473 603.126C543.725 603.036 543.003 602.799 542.347 602.43C541.691 602.061 541.114 601.565 540.65 600.973C540.185 600.381 539.842 599.703 539.639 598.978C539.436 598.253 539.379 597.495 539.469 596.747C539.559 596 539.796 595.278 540.165 594.622C540.535 593.966 541.03 593.389 541.622 592.924C542.214 592.46 542.892 592.116 543.617 591.914C544.342 591.711 545.1 591.653 545.848 591.744C568.839 594.207 592.081 592.787 614.602 587.542C616.06 587.137 617.619 587.318 618.946 588.046C620.273 588.774 621.264 589.991 621.706 591.438C621.928 592.16 622.002 592.919 621.925 593.671C621.848 594.422 621.621 595.151 621.258 595.813C620.895 596.475 620.403 597.058 619.811 597.527C619.218 597.996 618.538 598.341 617.81 598.543C602.215 602.69 586.123 604.67 569.988 604.425V604.425Z" fill="#0E00F0"/>
<path opacity="0.4" d="M804.058 395.183C803.32 395.186 802.59 395.03 801.919 394.725C801.195 394.449 800.535 394.028 799.979 393.49C799.422 392.951 798.981 392.305 798.681 391.591C798.381 390.877 798.229 390.11 798.234 389.336C798.239 388.561 798.401 387.796 798.71 387.086C805.706 367.52 808.314 346.656 806.349 325.971C806.254 325.223 806.307 324.465 806.505 323.738C806.703 323.011 807.042 322.33 807.503 321.734C807.964 321.138 808.538 320.639 809.192 320.265C809.846 319.891 810.568 319.649 811.315 319.554C812.062 319.459 812.821 319.511 813.548 319.709C814.275 319.907 814.956 320.246 815.552 320.708C816.148 321.169 816.647 321.743 817.021 322.397C817.395 323.051 817.637 323.772 817.732 324.519C820.085 347.188 817.264 370.096 809.482 391.516C809.07 392.615 808.326 393.558 807.354 394.215C806.383 394.872 805.23 395.21 804.058 395.183V395.183Z" fill="#0E00F0"/>
<path opacity="0.4" d="M597.719 571.652C596.199 571.652 594.742 571.049 593.667 569.974C592.593 568.9 591.989 567.442 591.989 565.923C591.989 564.403 592.593 562.946 593.667 561.871C594.742 560.797 596.199 560.193 597.719 560.193C618.566 558.53 638.785 552.269 656.924 541.859C658.204 541.159 659.701 540.967 661.117 541.321C662.532 541.675 663.763 542.548 664.563 543.769C665.289 545.036 665.503 546.532 665.162 547.952C664.821 549.372 663.951 550.608 662.73 551.408C642.976 562.879 620.88 569.722 598.101 571.423L597.719 571.652Z" fill="#0E00F0"/>
</g>
<path d="M467.774 223.451C478.353 203.782 494.302 187.523 513.765 176.568C533.227 165.613 555.4 160.413 577.704 161.572C594.816 162.705 611.496 167.443 626.649 175.474C641.803 183.505 655.087 194.648 665.633 208.172C641.874 200.074 586.489 165.545 515.061 196.331C498.454 203.811 482.617 212.894 467.774 223.451V223.451Z" fill="#6C63FF"/>
</svg>
