<?xml version="1.0"?>
<svg xmlns="http://www.w3.org/2000/svg" xmlns:xlink="http://www.w3.org/1999/xlink" xmlns:svgjs="http://svgjs.com/svgjs" version="1.1" width="512" height="512" x="0" y="0" viewBox="0 0 512 512" style="enable-background:new 0 0 512 512" xml:space="preserve" class=""><rect width="512" height="512" rx="20" ry="20" fill="#fcfefe" shape="rounded"/><g transform="matrix(1,0,0,1,0,0)">
<circle xmlns="http://www.w3.org/2000/svg" style="" cx="256" cy="256" r="256" fill="#fcfefe" data-original="#386895" class=""/>
<path xmlns="http://www.w3.org/2000/svg" style="" d="M437.019,437.019c30.441-30.441,51.595-66.646,63.498-105.098L363.365,194.769L346.16,240.45  l-96.366-96.366l-11.745,73.492l-95.935-95.935h-14.631v190.635l-4.923,64.126l135.57,135.57  C322.932,511.44,387.574,486.465,437.019,437.019z" fill="#fcfefe" data-original="#273b7a" class=""/>
<rect xmlns="http://www.w3.org/2000/svg" x="211.937" y="144.084" style="" width="37.857" height="202.731" fill="#6c63ff" data-original="#ffc61b" class=""/>
<rect xmlns="http://www.w3.org/2000/svg" x="230.434" y="144.084" style="" width="19.366" height="202.731" fill="#6c63ff" data-original="#eaa22f" class=""/>
<rect xmlns="http://www.w3.org/2000/svg" x="325.508" y="194.767" style="" width="37.857" height="152.048" fill="#6c63ff" data-original="#e09112" class=""/>
<rect xmlns="http://www.w3.org/2000/svg" x="344.643" y="194.767" style="" width="18.727" height="152.048" fill="#6c63ff" data-original="#ff5419" class=""/>
<rect xmlns="http://www.w3.org/2000/svg" x="268.722" y="245.45" style="" width="37.857" height="101.367" fill="#6c63ff" data-original="#ffedb5" class=""/>
<rect xmlns="http://www.w3.org/2000/svg" x="287.323" y="245.45" style="" width="19.263" height="101.367" fill="#6c63ff" data-original="#fee187" class=""/>
<rect xmlns="http://www.w3.org/2000/svg" x="155.152" y="245.45" style="" width="37.857" height="101.367" fill="#6c63ff" data-original="#ff5419" class=""/>
<rect xmlns="http://www.w3.org/2000/svg" x="174.408" y="245.45" style="" width="18.608" height="101.367" fill="#6c63ff" data-original="#c92f00" class=""/>
<path xmlns="http://www.w3.org/2000/svg" style="" d="M418.573,367.128l-15.358-15.358c-2.357-2.357-6.175-2.357-8.532,0c-2.357,2.355-2.357,6.177,0,8.532  l5.825,5.827H132.877V129.47l5.06,5.058c2.357,2.357,6.178,2.357,8.532,0c2.357-2.357,2.357-6.177,0-8.532L131.11,110.64  c-2.357-2.357-6.175-2.357-8.532,0l-15.358,15.358c-2.357,2.355-2.357,6.177,0,8.532c1.179,1.179,2.722,1.767,4.267,1.767  c1.545,0,3.088-0.59,4.267-1.767l5.06-5.06v242.69c0,3.332,2.701,6.034,6.034,6.034h272.127l-4.289,4.289  c-2.357,2.355-2.357,6.175,0,8.532c1.177,1.179,2.722,1.767,4.267,1.767c1.545,0,3.087-0.59,4.267-1.767l15.358-15.357  c1.131-1.131,1.767-2.665,1.767-4.267C420.34,369.795,419.704,368.259,418.573,367.128z" fill="#0a1230" data-original="#ffffff" class=""/>
<path xmlns="http://www.w3.org/2000/svg" style="" d="M418.573,367.128l-15.358-15.358c-2.357-2.357-6.175-2.357-8.532,0c-2.357,2.355-2.357,6.177,0,8.532  l5.825,5.827H132.877v-0.041l-10.319,10.319c1.093,1.105,2.608,1.789,4.286,1.789H398.97l-4.289,4.289  c-2.357,2.355-2.357,6.175,0,8.532c1.177,1.179,2.722,1.767,4.267,1.767c1.545,0,3.087-0.59,4.267-1.767l15.358-15.357  c1.131-1.131,1.767-2.665,1.767-4.267C420.34,369.795,419.704,368.259,418.573,367.128z" fill="#0a1230" data-original="#d0d1d3" class=""/>
<g xmlns="http://www.w3.org/2000/svg">
</g>
<g xmlns="http://www.w3.org/2000/svg">
</g>
<g xmlns="http://www.w3.org/2000/svg">
</g>
<g xmlns="http://www.w3.org/2000/svg">
</g>
<g xmlns="http://www.w3.org/2000/svg">
</g>
<g xmlns="http://www.w3.org/2000/svg">
</g>
<g xmlns="http://www.w3.org/2000/svg">
</g>
<g xmlns="http://www.w3.org/2000/svg">
</g>
<g xmlns="http://www.w3.org/2000/svg">
</g>
<g xmlns="http://www.w3.org/2000/svg">
</g>
<g xmlns="http://www.w3.org/2000/svg">
</g>
<g xmlns="http://www.w3.org/2000/svg">
</g>
<g xmlns="http://www.w3.org/2000/svg">
</g>
<g xmlns="http://www.w3.org/2000/svg">
</g>
<g xmlns="http://www.w3.org/2000/svg">
</g>
</g></svg>
