<?xml version="1.0"?>
<svg xmlns="http://www.w3.org/2000/svg" xmlns:xlink="http://www.w3.org/1999/xlink" xmlns:svgjs="http://svgjs.com/svgjs" version="1.1" width="512" height="512" x="0" y="0" viewBox="0 0 512 512" style="enable-background:new 0 0 512 512" xml:space="preserve" class=""><rect width="512" height="512" rx="20" ry="20" fill="#fcfefe" shape="rounded"/><g transform="matrix(1,0,0,1,0,0)">
<circle xmlns="http://www.w3.org/2000/svg" style="" cx="256" cy="256" r="256" fill="#fcfefe" data-original="#273b7a" class=""/>
<path xmlns="http://www.w3.org/2000/svg" style="" d="M509.719,290.209l-94.413-94.379l-41.274,4.661l-39.003,39.003l-72.133-72.133l-50.567-6.177  l-15.336,15.336l-50.524-50.524l-20.335-7.335v104.584l-0.574-0.574l-3,153.734l135.568,135.568  C386.951,510.923,493.089,414.73,509.719,290.209z" fill="#fcfefe" data-original="#121149" class=""/>
<path xmlns="http://www.w3.org/2000/svg" style="" d="M150.971,327.456h-22.252c-3.332,0-6.034-2.701-6.034-6.034s2.701-6.034,6.034-6.034h22.252  c18.144,0,32.908-16.241,32.908-36.202v-77.576c0-26.615,20.175-48.269,44.975-48.269h2.386c24.8,0,44.975,21.654,44.975,48.269  v60.337c0,19.961,14.762,36.202,32.908,36.202c18.146,0,32.908-16.241,32.908-36.202v-19.825c0-26.615,20.177-48.269,44.977-48.269  h23.842c3.332,0,6.034,2.701,6.034,6.034s-2.701,6.034-6.034,6.034h-23.842c-18.146,0-32.909,16.241-32.909,36.202v19.825  c0,26.615-20.175,48.269-44.975,48.269s-44.975-21.654-44.975-48.269v-60.337c0-19.961-14.762-36.202-32.908-36.202h-2.386  c-18.144,0-32.908,16.241-32.908,36.202v77.576C195.946,305.804,175.769,327.456,150.971,327.456z" fill="#6c63ff" data-original="#ff5419" class=""/>
<path xmlns="http://www.w3.org/2000/svg" style="" d="M410.846,193.853h-23.842c-24.8,0-44.977,21.654-44.977,48.269v19.825  c0,19.961-14.762,36.202-32.908,36.202c-18.146,0-32.908-16.241-32.908-36.202v-60.337c0-26.615-20.175-48.269-44.975-48.269h-1.672  v12.067h1.672c18.144,0,32.908,16.241,32.908,36.202v60.337c0,26.615,20.175,48.269,44.975,48.269s44.975-21.654,44.975-48.269  v-19.825c0-19.961,14.762-36.202,32.909-36.202h23.842c3.332,0,6.034-2.701,6.034-6.034S414.177,193.853,410.846,193.853z" fill="#6c63ff" data-original="#930000" class=""/>
<path xmlns="http://www.w3.org/2000/svg" style="" d="M260.642,335.3h-2.384c-26.991,0-48.95-23.588-48.95-52.579v-5.172  c0-22.338-16.544-40.512-36.881-40.512h-43.708c-3.332,0-6.034-2.701-6.034-6.034s2.701-6.034,6.034-6.034h43.71  c26.989,0,48.949,23.588,48.949,52.579v5.172c0,22.338,16.546,40.512,36.883,40.512h2.384c20.337,0,36.883-18.173,36.883-40.512  c0-28.991,21.957-52.579,48.949-52.579h67.553c3.332,0,6.034,2.701,6.034,6.034s-2.701,6.034-6.034,6.034h-67.553  c-20.337,0-36.881,18.173-36.881,40.512C309.591,311.711,287.634,335.3,260.642,335.3z" fill="#6c63ff" data-original="#ffc61b" class=""/>
<path xmlns="http://www.w3.org/2000/svg" style="" d="M414.025,230.141h-67.553c-26.989,0-48.949,23.588-48.949,52.579  c0,22.338-16.546,40.512-36.883,40.512h-2.384c-0.083,0-0.164-0.007-0.248-0.007v12.067c0.083,0,0.164,0.007,0.248,0.007h2.384  c26.991,0,48.95-23.588,48.95-52.579c0-22.338,16.544-40.512,36.881-40.512h67.553c3.332,0,6.034-2.701,6.034-6.034  S417.356,230.141,414.025,230.141z" fill="#6c63ff" data-original="#e09112" class=""/>
<path xmlns="http://www.w3.org/2000/svg" style="" d="M418.573,367.128l-15.358-15.358c-2.357-2.357-6.175-2.357-8.532,0c-2.357,2.355-2.357,6.177,0,8.532  l5.825,5.827H132.877V129.47l5.06,5.058c2.357,2.357,6.178,2.357,8.532,0c2.357-2.357,2.357-6.177,0-8.532L131.11,110.64  c-2.357-2.357-6.175-2.357-8.532,0l-15.358,15.358c-2.357,2.355-2.357,6.177,0,8.532c1.179,1.179,2.722,1.767,4.267,1.767  c1.545,0,3.088-0.59,4.267-1.767l5.06-5.06v242.69c0,3.332,2.701,6.034,6.034,6.034h272.127l-4.289,4.289  c-2.357,2.355-2.357,6.175,0,8.532c1.177,1.179,2.722,1.767,4.267,1.767c1.545,0,3.087-0.59,4.267-1.767l15.358-15.357  c1.131-1.131,1.767-2.665,1.767-4.267C420.34,369.795,419.704,368.259,418.573,367.128z" fill="#0a1230" data-original="#ffffff" class=""/>
<path xmlns="http://www.w3.org/2000/svg" style="" d="M418.573,367.128l-15.358-15.358c-2.357-2.357-6.175-2.357-8.532,0c-2.357,2.355-2.357,6.177,0,8.532  l5.825,5.827H132.877v-0.041l-10.319,10.319c1.093,1.105,2.608,1.789,4.286,1.789H398.97l-4.289,4.289  c-2.357,2.355-2.357,6.175,0,8.532c1.177,1.179,2.722,1.767,4.267,1.767c1.545,0,3.087-0.59,4.267-1.767l15.358-15.357  c1.131-1.131,1.767-2.665,1.767-4.267C420.34,369.795,419.704,368.259,418.573,367.128z" fill="#0a1230" data-original="#d0d1d3" class=""/>
<g xmlns="http://www.w3.org/2000/svg">
</g>
<g xmlns="http://www.w3.org/2000/svg">
</g>
<g xmlns="http://www.w3.org/2000/svg">
</g>
<g xmlns="http://www.w3.org/2000/svg">
</g>
<g xmlns="http://www.w3.org/2000/svg">
</g>
<g xmlns="http://www.w3.org/2000/svg">
</g>
<g xmlns="http://www.w3.org/2000/svg">
</g>
<g xmlns="http://www.w3.org/2000/svg">
</g>
<g xmlns="http://www.w3.org/2000/svg">
</g>
<g xmlns="http://www.w3.org/2000/svg">
</g>
<g xmlns="http://www.w3.org/2000/svg">
</g>
<g xmlns="http://www.w3.org/2000/svg">
</g>
<g xmlns="http://www.w3.org/2000/svg">
</g>
<g xmlns="http://www.w3.org/2000/svg">
</g>
<g xmlns="http://www.w3.org/2000/svg">
</g>
</g></svg>
