<?xml version="1.0"?>
<svg xmlns="http://www.w3.org/2000/svg" xmlns:xlink="http://www.w3.org/1999/xlink" xmlns:svgjs="http://svgjs.com/svgjs" version="1.1" width="512" height="512" x="0" y="0" viewBox="0 0 512 512" style="enable-background:new 0 0 512 512" xml:space="preserve" class=""><rect width="512" height="512" rx="20" ry="20" fill="#fcfefe" shape="rounded"/><g transform="matrix(1,0,0,1,0,0)">
<circle xmlns="http://www.w3.org/2000/svg" style="" cx="256" cy="256" r="256" fill="#fcfefe" data-original="#ffedb5" class=""/>
<path xmlns="http://www.w3.org/2000/svg" style="" d="M510.109,287.151L365.18,142.222L180.065,286.374l-35.395,81.325l141.967,142.469  C403.358,496.247,495.957,403.801,510.109,287.151z" fill="#fcfefe" data-original="#fee187" class=""/>
<circle xmlns="http://www.w3.org/2000/svg" style="" cx="256" cy="256" r="157.703" fill="#0a1230" data-original="#386895" class=""/>
<path xmlns="http://www.w3.org/2000/svg" style="" d="M316.297,110.287c-19.927-8.245-40.576-12.098-60.871-12.017v315.454  c62.09,0.203,121.077-36.505,146.287-97.428C435.014,235.822,396.772,143.588,316.297,110.287z" fill="#6c63ff" data-original="#273b7a" class=""/>
<path xmlns="http://www.w3.org/2000/svg" style="" d="M110.287,195.703c-16.044,38.776-15.438,80.262-1.541,116.586l146.753-56.741l60.204-145.491  C235.367,77.188,143.507,115.426,110.287,195.703z" fill="#0a1230" data-original="#ff5419" class=""/>
<path xmlns="http://www.w3.org/2000/svg" style="" d="M315.702,110.058c-19.744-8.078-40.183-11.852-60.276-11.773v157.291l0.072-0.028L315.702,110.058z" fill="#e8f1ff" data-original="#c92f00" class=""/>
<path xmlns="http://www.w3.org/2000/svg" style="" d="M108.746,312.289c14.874,38.879,44.98,71.844,86.376,89.166l60.376-145.906L108.746,312.289z" fill="#e8f1ff" data-original="#ffc61b" class=""/>
<g xmlns="http://www.w3.org/2000/svg">
</g>
<g xmlns="http://www.w3.org/2000/svg">
</g>
<g xmlns="http://www.w3.org/2000/svg">
</g>
<g xmlns="http://www.w3.org/2000/svg">
</g>
<g xmlns="http://www.w3.org/2000/svg">
</g>
<g xmlns="http://www.w3.org/2000/svg">
</g>
<g xmlns="http://www.w3.org/2000/svg">
</g>
<g xmlns="http://www.w3.org/2000/svg">
</g>
<g xmlns="http://www.w3.org/2000/svg">
</g>
<g xmlns="http://www.w3.org/2000/svg">
</g>
<g xmlns="http://www.w3.org/2000/svg">
</g>
<g xmlns="http://www.w3.org/2000/svg">
</g>
<g xmlns="http://www.w3.org/2000/svg">
</g>
<g xmlns="http://www.w3.org/2000/svg">
</g>
<g xmlns="http://www.w3.org/2000/svg">
</g>
</g></svg>
