<?xml version="1.0"?>
<svg xmlns="http://www.w3.org/2000/svg" xmlns:xlink="http://www.w3.org/1999/xlink" xmlns:svgjs="http://svgjs.com/svgjs" version="1.1" width="512" height="512" x="0" y="0" viewBox="0 0 512 512" style="enable-background:new 0 0 512 512" xml:space="preserve" class=""><rect width="512" height="512" rx="20" ry="20" fill="#fcfefe" shape="rounded"/><g transform="matrix(1,0,0,1,0,0)">
<circle xmlns="http://www.w3.org/2000/svg" style="" cx="256" cy="256" r="256" fill="#fcfefe" data-original="#273b7a" class=""/>
<path xmlns="http://www.w3.org/2000/svg" style="" d="M437.019,437.019c43.108-43.108,67.61-97.766,73.544-154.012l-112.34-112.34l-187.856,19.227  l-63.898-63.897h-20.111v123.907l-0.512-0.512l-3.286,127.014l135.57,135.57C322.934,511.44,387.574,486.465,437.019,437.019z" fill="#fcfefe" data-original="#121149" class=""/>
<g xmlns="http://www.w3.org/2000/svg">
	<rect x="148.687" y="219.453" style="" width="192.646" height="32.527" fill="#6c63ff" data-original="#ffc61b" class=""/>
	<rect x="148.687" y="317.026" style="" width="78.869" height="32.525" fill="#6c63ff" data-original="#ffc61b" class=""/>
</g>
<rect xmlns="http://www.w3.org/2000/svg" x="148.687" y="268.24" style="" width="128" height="32.525" fill="#6c63ff" data-original="#ffedb5" class=""/>
<rect xmlns="http://www.w3.org/2000/svg" x="148.687" y="170.667" style="" width="249.535" height="32.527" fill="#6c63ff" data-original="#ff5419" class=""/>
<g xmlns="http://www.w3.org/2000/svg">
	<rect x="148.687" y="235.313" style="" width="192.646" height="16.668" fill="#6c63ff" data-original="#eaa22f" class=""/>
	<rect x="148.687" y="331.852" style="" width="78.869" height="17.706" fill="#6c63ff" data-original="#eaa22f" class=""/>
</g>
<rect xmlns="http://www.w3.org/2000/svg" x="148.687" y="283.014" style="" width="128" height="17.763" fill="#6c63ff" data-original="#fee187" class=""/>
<rect xmlns="http://www.w3.org/2000/svg" x="148.687" y="187.044" style="" width="249.535" height="16.15" fill="#6c63ff" data-original="#c92f00" class=""/>
<path xmlns="http://www.w3.org/2000/svg" style="" d="M418.573,367.128l-15.358-15.358c-2.357-2.357-6.175-2.357-8.532,0c-2.357,2.355-2.357,6.177,0,8.532  l5.825,5.827H132.879V129.47l5.06,5.058c2.357,2.357,6.178,2.357,8.532,0c2.357-2.357,2.357-6.177,0-8.532l-15.358-15.357  c-2.357-2.357-6.175-2.357-8.532,0l-15.358,15.358c-2.357,2.355-2.357,6.177,0,8.532c1.179,1.179,2.722,1.767,4.267,1.767  c1.545,0,3.088-0.59,4.267-1.767l5.06-5.06v242.69c0,3.332,2.701,6.034,6.034,6.034h272.127l-4.289,4.289  c-2.357,2.355-2.357,6.175,0,8.532c1.177,1.179,2.722,1.767,4.267,1.767c1.545,0,3.087-0.59,4.267-1.767l15.358-15.357  c1.131-1.131,1.767-2.665,1.767-4.267C420.342,369.795,419.704,368.259,418.573,367.128z" fill="#0a1230" data-original="#ffffff" class=""/>
<path xmlns="http://www.w3.org/2000/svg" style="" d="M418.573,367.128l-15.358-15.358c-2.357-2.357-6.175-2.357-8.532,0c-2.357,2.355-2.357,6.177,0,8.532  l5.825,5.827H132.879v-0.041l-10.319,10.319c1.093,1.105,2.608,1.789,4.286,1.789h272.127l-4.289,4.289  c-2.357,2.355-2.357,6.175,0,8.532c1.177,1.179,2.722,1.767,4.267,1.767c1.545,0,3.087-0.59,4.267-1.767l15.358-15.357  c1.131-1.131,1.767-2.665,1.767-4.267C420.342,369.795,419.704,368.259,418.573,367.128z" fill="#0a1230" data-original="#d0d1d3" class=""/>
<g xmlns="http://www.w3.org/2000/svg">
</g>
<g xmlns="http://www.w3.org/2000/svg">
</g>
<g xmlns="http://www.w3.org/2000/svg">
</g>
<g xmlns="http://www.w3.org/2000/svg">
</g>
<g xmlns="http://www.w3.org/2000/svg">
</g>
<g xmlns="http://www.w3.org/2000/svg">
</g>
<g xmlns="http://www.w3.org/2000/svg">
</g>
<g xmlns="http://www.w3.org/2000/svg">
</g>
<g xmlns="http://www.w3.org/2000/svg">
</g>
<g xmlns="http://www.w3.org/2000/svg">
</g>
<g xmlns="http://www.w3.org/2000/svg">
</g>
<g xmlns="http://www.w3.org/2000/svg">
</g>
<g xmlns="http://www.w3.org/2000/svg">
</g>
<g xmlns="http://www.w3.org/2000/svg">
</g>
<g xmlns="http://www.w3.org/2000/svg">
</g>
</g></svg>
