<?xml version="1.0"?>
<svg xmlns="http://www.w3.org/2000/svg" xmlns:xlink="http://www.w3.org/1999/xlink" xmlns:svgjs="http://svgjs.com/svgjs" version="1.1" width="512" height="512" x="0" y="0" viewBox="0 0 512 512" style="enable-background:new 0 0 512 512" xml:space="preserve" class=""><rect width="512" height="512" rx="20" ry="20" fill="#f8f9fb" shape="rounded" transform="matrix(1,0,0,1,0,0)"/><g transform="matrix(0.7,0,0,0.7,76.8000022888184,76.80000000000001)">
<g xmlns="http://www.w3.org/2000/svg">
	<polygon style="" points="425.894,444.125 425.894,444.056 425.894,325.604 425.825,325.604 379.814,302.841    356.774,314.257 356.774,246.314 310.694,223.55 310.694,223.619 287.654,234.966 287.654,172.696 241.574,150.002    218.603,161.349 218.603,93.475 218.534,93.475 172.523,70.781 172.454,70.781 149.414,82.128 149.414,19.857 109.146,0    68.809,19.857 68.809,347.261 91.849,358.608 402.854,512 443.191,492.143 443.191,452.636  " fill="#48a8dc" data-original="#48a8dc" class=""/>
	<polygon style="" points="425.825,325.604 385.557,345.462 339.477,322.768 356.774,314.257 379.814,302.841  " fill="#d77eb0" data-original="#d77eb0"/>
	<polygon style="" points="149.414,19.857 109.146,39.784 68.809,19.857 109.146,0  " fill="#bddcf3" data-original="#bddcf3"/>
	<g>
		<polygon style="" points="149.414,19.857 149.414,82.128 132.186,90.638 132.186,316.195 132.117,316.195     109.423,327.472 109.146,327.334 109.146,39.784   " fill="#3193c6" data-original="#3193c6"/>
		<polygon style="" points="443.191,452.636 443.191,492.143 402.854,512 402.854,472.493 403.131,472.355   " fill="#3193c6" data-original="#3193c6"/>
	</g>
	<polygon style="" points="178.266,113.401 178.266,361.444 178.197,361.444 132.186,338.681 132.186,90.638  " fill="#f4cd1e" data-original="#f4cd1e"/>
	<polygon style="" points="132.186,316.195 132.186,338.681 132.117,338.681 109.423,327.472 132.117,316.195  " fill="#bddcf3" data-original="#bddcf3"/>
	<polygon style="" points="247.317,192.623 247.317,395.555 201.306,372.791 201.306,169.859  " fill="#cd4f38" data-original="#cd4f38"/>
	<polygon style="" points="316.506,266.24 316.506,429.596 270.357,406.832 270.357,243.477  " fill="#23b972" data-original="#23b972" class=""/>
	<g>
		<polygon style="" points="270.357,384.415 270.357,406.832 247.663,395.693   " fill="#bddcf3" data-original="#bddcf3"/>
		<polygon style="" points="201.306,349.613 201.306,372.791 178.266,361.444 178.266,360.96   " fill="#bddcf3" data-original="#bddcf3"/>
	</g>
	<polygon style="" points="218.534,93.475 178.266,113.401 132.186,90.638 149.414,82.128 172.454,70.781    172.523,70.781  " fill="#f6db6d" data-original="#f6db6d" class=""/>
	<polygon style="" points="218.603,93.475 218.603,161.349 201.306,169.859 201.306,349.613 178.266,360.96    178.266,113.401 218.534,93.475  " fill="#f6ab27" data-original="#f6ab27" class=""/>
	<polygon style="" points="287.654,172.696 247.317,192.623 201.306,169.859 218.603,161.349 241.574,150.002  " fill="#ed634c" data-original="#ed634c" class=""/>
	<polygon style="" points="287.654,172.696 287.654,234.966 270.357,243.477 270.357,384.415 247.663,395.693    247.386,395.555 247.317,395.555 247.317,192.623  " fill="#944143" data-original="#944143" class=""/>
	<polygon style="" points="356.774,246.314 356.774,314.257 339.477,322.768 339.477,418.525 316.714,429.734    316.506,429.596 316.506,266.24  " fill="#5d9069" data-original="#5d9069" class=""/>
	<polygon style="" points="356.774,246.314 316.506,266.24 270.357,243.477 287.654,234.966 310.694,223.619    310.694,223.55  " fill="#5dc382" data-original="#5dc382"/>
	<polygon style="" points="339.477,418.525 339.477,440.943 316.714,429.734  " fill="#bddcf3" data-original="#bddcf3"/>
	<polygon style="" points="385.557,345.462 385.557,463.706 339.477,440.943 339.477,322.768  " fill="#a773b4" data-original="#a773b4"/>
	<polygon style="" points="425.894,325.604 425.894,444.056 385.834,463.844 385.557,463.706 385.557,345.462    425.825,325.604  " fill="#94567c" data-original="#94567c"/>
	<polygon style="" points="443.191,452.636 403.131,472.355 385.834,463.844 425.894,444.056 425.894,444.125  " fill="#bddcf3" data-original="#bddcf3"/>
</g>
<g xmlns="http://www.w3.org/2000/svg">
</g>
<g xmlns="http://www.w3.org/2000/svg">
</g>
<g xmlns="http://www.w3.org/2000/svg">
</g>
<g xmlns="http://www.w3.org/2000/svg">
</g>
<g xmlns="http://www.w3.org/2000/svg">
</g>
<g xmlns="http://www.w3.org/2000/svg">
</g>
<g xmlns="http://www.w3.org/2000/svg">
</g>
<g xmlns="http://www.w3.org/2000/svg">
</g>
<g xmlns="http://www.w3.org/2000/svg">
</g>
<g xmlns="http://www.w3.org/2000/svg">
</g>
<g xmlns="http://www.w3.org/2000/svg">
</g>
<g xmlns="http://www.w3.org/2000/svg">
</g>
<g xmlns="http://www.w3.org/2000/svg">
</g>
<g xmlns="http://www.w3.org/2000/svg">
</g>
<g xmlns="http://www.w3.org/2000/svg">
</g>
</g></svg>
