<svg width="500" height="557" viewBox="0 0 500 557" fill="none" xmlns="http://www.w3.org/2000/svg">
<path d="M358.429 81.9257C367.281 76.5591 376.994 72.7648 387.14 70.7107C397.358 68.6273 407.963 69.5826 417.645 73.4584C411.928 77.2597 407.072 82.2184 403.392 88.0139C399.712 93.8094 397.289 100.313 396.28 107.103" fill="#4D42FF"/>
<path d="M305.438 55.1778C328.092 42.7359 354.61 39.3111 379.682 45.589C370.725 50.7362 362.565 57.1585 355.457 64.6545C350.09 69.5787 346.419 76.0762 344.971 83.2153" fill="#4D42FF"/>
<path d="M39.5305 201.478C29.9542 191.967 22.0995 180.868 16.3154 168.674C10.6604 156.416 8.71135 142.772 10.7079 129.421C17.1953 135.47 24.8784 140.093 33.2619 142.99C41.6453 145.888 50.5429 146.996 59.381 146.244" fill="#4D42FF"/>
<path d="M55.3998 306.058C50.1769 320.441 47.4646 335.615 47.3811 350.918C47.3948 366.379 51.9157 381.5 60.3905 394.432C64.2109 385.074 69.9459 376.618 77.2272 369.607C84.5084 362.596 93.1752 357.185 102.671 353.721" fill="#6C63FF"/>
<path d="M113.382 354.843C108.159 369.226 105.446 384.401 105.363 399.703C105.37 415.173 109.913 430.301 118.428 443.217C122.208 433.824 127.92 425.331 135.195 418.289C142.469 411.246 151.143 405.812 160.653 402.338" fill="#6C63FF"/>
<path d="M157.288 383.553C152.008 398.019 149.295 413.295 149.27 428.694C149.285 444.137 153.806 459.24 162.279 472.152C166.068 462.764 171.783 454.276 179.056 447.235C186.329 440.193 194.998 434.756 204.504 431.273" fill="#6C63FF"/>
<path d="M389.888 354.843C395.137 369.219 397.85 384.398 397.906 399.703C397.919 415.168 393.396 430.297 384.897 443.217C381.108 433.83 375.393 425.341 368.12 418.3C360.846 411.259 352.177 405.821 342.672 402.338" fill="#6C63FF"/>
<path d="M227.943 72.0564C225.575 46.2591 233.046 20.52 248.859 0C250.035 10.2682 252.679 20.3146 256.709 29.832C259.167 36.6217 263.649 42.4936 269.55 46.6545" fill="#4D42FF"/>
<path d="M152.746 407.049C116.507 423.494 75.4008 425.677 37.6241 413.161C51.9091 406.242 65.1279 397.31 76.8766 386.637C85.6647 379.66 92.0555 370.113 95.1571 359.329" fill="#4D42FF"/>
<path d="M73.3439 375.703C65.8552 375.809 58.3665 375.491 50.9139 374.749C40.0871 374.441 29.6234 370.777 20.9698 364.263C8.46507 353.609 3.41833 334.544 1.39963 316.712C-7.01163 243.814 23.1007 168.898 75.2504 132.561L73.3439 375.703Z" fill="#4D42FF"/>
<path d="M4.5397 260.917C4.26621 260.883 4.00231 260.794 3.76343 260.657C3.52455 260.519 3.3155 260.335 3.14844 260.116C2.98138 259.897 2.8597 259.646 2.79048 259.38C2.72127 259.113 2.7059 258.835 2.74531 258.562C6.1158 235.321 13.0973 212.75 23.437 191.665C23.7334 191.25 24.1684 190.956 24.6633 190.834C25.1582 190.713 25.6802 190.773 26.1346 191.004C26.5889 191.234 26.9457 191.62 27.14 192.091C27.3344 192.562 27.3535 193.087 27.194 193.571C17.1009 214.23 10.254 236.321 6.89485 259.067C6.86735 259.345 6.78382 259.615 6.64928 259.861C6.51474 260.106 6.33199 260.321 6.11198 260.494C5.89197 260.667 5.63927 260.794 5.36907 260.866C5.09888 260.939 4.81675 260.956 4.5397 260.917V260.917Z" fill="#0A1230"/>
<path d="M177.083 517.965C179.096 517.965 180.727 516.333 180.727 514.32C180.727 512.307 179.096 510.675 177.083 510.675C175.07 510.675 173.438 512.307 173.438 514.32C173.438 516.333 175.07 517.965 177.083 517.965Z" fill="#F8F9FB"/>
<path d="M170.522 522.339C171.73 522.339 172.709 521.36 172.709 520.152C172.709 518.944 171.73 517.965 170.522 517.965C169.314 517.965 168.335 518.944 168.335 520.152C168.335 521.36 169.314 522.339 170.522 522.339Z" fill="#F8F9FB"/>
<path d="M167.774 514.376C168.982 514.376 169.961 513.397 169.961 512.189C169.961 510.982 168.982 510.002 167.774 510.002C166.566 510.002 165.587 510.982 165.587 512.189C165.587 513.397 166.566 514.376 167.774 514.376Z" fill="#F8F9FB"/>
<path d="M182.073 520.769C182.848 520.769 183.475 520.141 183.475 519.367C183.475 518.593 182.848 517.965 182.073 517.965C181.299 517.965 180.672 518.593 180.672 519.367C180.672 520.141 181.299 520.769 182.073 520.769Z" fill="#F8F9FB"/>
<path d="M68.8017 147.87C62.0414 136.21 57.3729 123.457 55.0073 110.187C52.6739 96.94 54.2523 83.2995 59.5494 70.935C64.2601 78.4377 70.4917 84.8692 77.842 89.8144C85.1922 94.7597 93.4977 98.1087 102.222 99.6454" fill="#4D42FF"/>
<path d="M64.428 143.216C64.0965 123.267 67.266 103.415 73.7926 84.5612C80.3467 65.5947 92.3409 48.9782 108.279 36.7852C108.925 49.9082 112.313 62.7503 118.223 74.4847C124.134 86.219 132.437 96.5855 142.597 104.916" fill="#6C63FF"/>
<path d="M426.617 375.703C434.105 375.81 441.594 375.492 449.047 374.749C459.874 374.441 470.337 370.777 478.991 364.263C491.496 353.609 496.542 334.544 498.617 316.712C506.972 243.814 476.86 168.898 424.71 132.561L426.617 375.703Z" fill="#4D42FF"/>
<path d="M315.307 430.6C322.444 445.303 326.816 461.194 328.205 477.479L330.784 498.619C348.952 506.974 352.71 529.517 352.71 529.517C353.08 531.268 353.044 533.08 352.605 534.815C352.165 536.55 351.335 538.162 350.176 539.526C349.018 540.89 347.562 541.971 345.921 542.686C344.28 543.4 342.497 543.729 340.709 543.647H327.532L316.317 519.759C322.356 527.105 326.427 535.866 328.149 545.218C330.672 560.246 295.457 557.218 280.709 551.442C274.343 548.965 269.077 544.286 265.867 538.257C262.657 532.227 261.715 525.246 263.214 518.582L280.653 438.507H214.036L231.475 518.582C232.974 525.246 232.032 532.227 228.822 538.257C225.612 544.286 220.346 548.965 213.98 551.442C199.232 557.049 164.017 560.246 166.54 545.218C168.262 535.876 172.312 527.12 178.316 519.759L167.101 543.647H153.867C152.08 543.729 150.297 543.4 148.656 542.686C147.015 541.971 145.559 540.89 144.401 539.526C143.242 538.162 142.411 536.55 141.972 534.815C141.533 533.08 141.497 531.268 141.867 529.517V529.517C141.867 529.517 145.624 507.087 163.793 498.619L166.372 477.479C167.761 461.194 172.133 445.303 179.269 430.6H315.307Z" fill="black"/>
<path d="M315.307 430.6C322.444 445.303 326.816 461.194 328.205 477.479L330.784 498.619C348.952 506.974 352.71 529.517 352.71 529.517C353.08 531.268 353.044 533.08 352.605 534.815C352.165 536.55 351.335 538.162 350.176 539.526C349.018 540.89 347.562 541.971 345.921 542.686C344.28 543.4 342.497 543.729 340.709 543.647H327.532L316.317 519.759C322.356 527.105 326.427 535.866 328.149 545.218C330.672 560.246 295.457 557.218 280.709 551.442C274.343 548.965 269.077 544.286 265.867 538.257C262.657 532.227 261.715 525.246 263.214 518.582L280.653 438.507H214.036L231.475 518.582C232.974 525.246 232.032 532.227 228.822 538.257C225.612 544.286 220.346 548.965 213.98 551.442C199.232 557.049 164.017 560.246 166.54 545.218C168.262 535.876 172.312 527.12 178.316 519.759L167.101 543.647H153.867C152.08 543.729 150.297 543.4 148.656 542.686C147.015 541.971 145.559 540.89 144.401 539.526C143.242 538.162 142.411 536.55 141.972 534.815C141.533 533.08 141.497 531.268 141.867 529.517V529.517C141.867 529.517 145.624 507.087 163.793 498.619L166.372 477.479C167.761 461.194 172.133 445.303 179.269 430.6H315.307Z" fill="#4D42FF"/>
<path d="M247.232 467.722C365.969 467.722 462.224 371.467 462.224 252.73C462.224 133.993 365.969 37.7385 247.232 37.7385C128.496 37.7385 32.2408 133.993 32.2408 252.73C32.2408 371.467 128.496 467.722 247.232 467.722Z" fill="#6C63FF"/>
<path d="M223.008 480.002C204.059 477.919 185.478 473.279 167.774 466.208C168.537 462.03 169.51 457.894 170.69 453.815C186.559 459.911 203.111 464.053 219.98 466.152L223.008 480.002Z" fill="#0A1230"/>
<path d="M326.747 466.208C309.043 473.279 290.463 477.919 271.513 480.002L274.541 466.152C291.411 464.053 307.962 459.911 323.831 453.815C325.012 457.894 325.985 462.03 326.747 466.208V466.208Z" fill="#0A1230"/>
<g opacity="0.25">
<path opacity="0.25" d="M160.148 107.496C146.578 92.692 119.045 106.991 108.727 118.711C102.839 125.496 97.5121 135.533 99.699 144.73C102.447 155.16 113.381 161.552 127.737 150.842C130.014 148.55 132.555 146.536 135.307 144.842C140.41 142.767 153.419 146.468 160.709 134.3C163.739 130.46 165.339 125.687 165.237 120.797C165.135 115.907 163.336 111.205 160.148 107.496V107.496Z" fill="#F8F9FB"/>
<path opacity="0.25" d="M98.0168 182.076C103.746 182.076 108.391 177.431 108.391 171.702C108.391 165.972 103.746 161.328 98.0168 161.328C92.2874 161.328 87.6429 165.972 87.6429 171.702C87.6429 177.431 92.2874 182.076 98.0168 182.076Z" fill="#F8F9FB"/>
</g>
<path d="M100.596 186.898C103.291 186.898 105.475 184.714 105.475 182.02C105.475 179.325 103.291 177.141 100.596 177.141C97.9019 177.141 95.7177 179.325 95.7177 182.02C95.7177 184.714 97.9019 186.898 100.596 186.898Z" fill="#F8F9FB"/>
<path d="M35.9417 373.011C35.4706 373.009 35.0141 372.848 34.6472 372.552C34.2803 372.257 34.0249 371.845 33.923 371.385C32.9084 366.099 33.2282 360.644 34.8536 355.514C36.4789 350.383 39.3585 345.739 43.2315 342.002C43.6528 341.722 44.1598 341.601 44.6618 341.661C45.1639 341.721 45.6283 341.958 45.9721 342.328C46.3159 342.699 46.5166 343.18 46.5385 343.685C46.5603 344.19 46.4018 344.687 46.0913 345.086C42.7592 348.34 40.2795 352.365 38.8713 356.805C37.463 361.245 37.1694 365.964 38.0165 370.544C38.135 371.086 38.0372 371.653 37.744 372.124C37.4508 372.596 36.9852 372.934 36.4464 373.067L35.9417 373.011Z" fill="#0A1230"/>
<path d="M15.194 358.32C14.715 358.315 14.2523 358.145 13.8844 357.839C13.5164 357.532 13.2659 357.107 13.1753 356.637C12.1653 351.36 12.4876 345.915 14.1129 340.794C15.7383 335.673 18.6155 331.039 22.4838 327.31C22.6771 327.112 22.9081 326.954 23.1634 326.846C23.4186 326.739 23.6928 326.683 23.9697 326.683C24.2467 326.683 24.5209 326.739 24.7761 326.846C25.0314 326.954 25.2624 327.112 25.4557 327.31C25.8428 327.708 26.0594 328.241 26.0594 328.796C26.0594 329.351 25.8428 329.884 25.4557 330.282C22.1164 333.508 19.6304 337.512 18.2211 341.936C16.8117 346.36 16.523 351.065 17.3809 355.628C17.4994 356.17 17.4016 356.737 17.1084 357.208C16.8152 357.68 16.3496 358.018 15.8108 358.151L15.194 358.32Z" fill="#0A1230"/>
<path d="M164.354 543.928C163.875 543.929 163.411 543.769 163.035 543.474C162.658 543.179 162.392 542.766 162.279 542.302C161.264 537.016 161.584 531.561 163.209 526.43C164.835 521.3 167.714 516.655 171.587 512.918C172.009 512.639 172.516 512.518 173.018 512.578C173.52 512.638 173.984 512.874 174.328 513.245C174.672 513.616 174.872 514.097 174.894 514.602C174.916 515.107 174.758 515.603 174.447 516.002C171.144 519.254 168.683 523.261 167.276 527.677C165.87 532.093 165.559 536.785 166.372 541.348C166.439 541.617 166.45 541.897 166.407 542.17C166.364 542.444 166.266 542.706 166.119 542.941C165.973 543.176 165.781 543.38 165.555 543.54C165.329 543.7 165.073 543.812 164.802 543.872L164.354 543.928Z" fill="#0A1230"/>
<path d="M189.027 556.601C188.549 556.602 188.084 556.442 187.708 556.147C187.331 555.852 187.065 555.439 186.952 554.975C185.937 549.689 186.257 544.234 187.883 539.103C189.508 533.973 192.387 529.328 196.26 525.591C196.682 525.312 197.189 525.191 197.691 525.251C198.193 525.311 198.657 525.547 199.001 525.918C199.345 526.289 199.546 526.77 199.567 527.275C199.589 527.78 199.431 528.276 199.12 528.675C195.818 531.927 193.356 535.934 191.95 540.35C190.543 544.766 190.232 549.458 191.045 554.021C191.112 554.29 191.124 554.57 191.08 554.843C191.037 555.117 190.939 555.379 190.793 555.614C190.646 555.849 190.454 556.053 190.228 556.213C190.002 556.372 189.746 556.485 189.475 556.545L189.027 556.601Z" fill="#0A1230"/>
<path d="M463.402 373.011H462.953C462.682 372.952 462.427 372.839 462.2 372.679C461.974 372.519 461.782 372.316 461.636 372.081C461.489 371.845 461.392 371.583 461.348 371.31C461.305 371.036 461.317 370.757 461.383 370.488C462.241 365.925 461.952 361.22 460.543 356.796C459.133 352.372 456.647 348.368 453.308 345.142C453.11 344.949 452.952 344.718 452.844 344.462C452.737 344.207 452.681 343.933 452.681 343.656C452.681 343.379 452.737 343.105 452.844 342.849C452.952 342.594 453.11 342.363 453.308 342.17C453.706 341.783 454.239 341.566 454.794 341.566C455.349 341.566 455.882 341.783 456.28 342.17C460.153 345.907 463.033 350.551 464.658 355.682C466.283 360.813 466.603 366.268 465.589 371.553C465.44 372.006 465.143 372.395 464.747 372.659C464.35 372.924 463.877 373.048 463.402 373.011V373.011Z" fill="#0A1230"/>
<path d="M484.093 358.319H483.645C483.106 358.186 482.64 357.848 482.347 357.377C482.054 356.905 481.956 356.338 482.075 355.796C482.933 351.233 482.644 346.528 481.235 342.104C479.825 337.681 477.339 333.676 474 330.45C473.794 330.261 473.63 330.031 473.518 329.776C473.406 329.52 473.348 329.243 473.348 328.964C473.348 328.685 473.406 328.409 473.518 328.153C473.63 327.897 473.794 327.667 474 327.478C474.193 327.28 474.424 327.122 474.68 327.014C474.935 326.907 475.209 326.851 475.486 326.851C475.763 326.851 476.037 326.907 476.292 327.014C476.548 327.122 476.779 327.28 476.972 327.478C480.84 331.207 483.717 335.841 485.343 340.962C486.968 346.083 487.29 351.528 486.28 356.805C486.142 357.268 485.85 357.67 485.452 357.946C485.055 358.221 484.576 358.353 484.093 358.319V358.319Z" fill="#0A1230"/>
<path d="M330.28 545.105H329.831C329.282 544.984 328.803 544.651 328.498 544.179C328.194 543.706 328.088 543.132 328.205 542.582C329.063 538.019 328.774 533.314 327.365 528.89C325.955 524.466 323.47 520.462 320.13 517.236C319.82 516.837 319.661 516.341 319.683 515.835C319.705 515.33 319.906 514.849 320.249 514.479C320.593 514.108 321.058 513.871 321.56 513.812C322.062 513.752 322.569 513.872 322.99 514.152C326.863 517.889 329.743 522.533 331.368 527.664C332.993 532.795 333.313 538.25 332.298 543.535C332.186 543.985 331.926 544.384 331.56 544.668C331.194 544.953 330.743 545.107 330.28 545.105V545.105Z" fill="#0A1230"/>
<path d="M302.803 556.601H302.354C302.079 556.548 301.817 556.44 301.584 556.283C301.352 556.125 301.153 555.923 301.001 555.687C300.849 555.451 300.747 555.187 300.7 554.91C300.653 554.633 300.662 554.35 300.728 554.077C301.586 549.514 301.297 544.81 299.888 540.386C298.479 535.962 295.993 531.957 292.653 528.731C292.343 528.332 292.184 527.836 292.206 527.331C292.228 526.826 292.429 526.345 292.773 525.974C293.116 525.603 293.581 525.367 294.083 525.307C294.585 525.247 295.092 525.368 295.513 525.647C299.386 529.384 302.266 534.029 303.891 539.159C305.516 544.29 305.836 549.745 304.822 555.031C304.709 555.48 304.449 555.879 304.083 556.164C303.717 556.448 303.266 556.602 302.803 556.601V556.601Z" fill="#0A1230"/>
<path opacity="0.7" d="M118.26 91.0659C117.385 91.0594 116.523 90.848 115.744 90.4488C114.965 90.0495 114.29 89.4735 113.774 88.7668C112.882 87.577 112.499 86.0815 112.709 84.6092C112.919 83.137 113.706 81.8086 114.896 80.9163C116.802 79.5144 161.718 46.318 209.831 39.9815C211.318 39.7882 212.821 40.1936 214.009 41.1085C215.197 42.0234 215.974 43.3728 216.167 44.86C216.36 46.3472 215.955 47.8503 215.04 49.0386C214.125 50.2269 212.776 51.0032 211.289 51.1965C166.428 57.0844 122.017 89.664 121.568 90.0004C120.606 90.697 119.448 91.0701 118.26 91.0659V91.0659Z" fill="#F8F9FB"/>
<path d="M198.615 56.9162C200.629 56.9162 202.26 55.2843 202.26 53.2713C202.26 51.2583 200.629 49.6264 198.615 49.6264C196.602 49.6264 194.971 51.2583 194.971 53.2713C194.971 55.2843 196.602 56.9162 198.615 56.9162Z" fill="#F8F9FB"/>
<path d="M192.055 61.2901C193.263 61.2901 194.242 60.3109 194.242 59.1031C194.242 57.8953 193.263 56.9162 192.055 56.9162C190.847 56.9162 189.868 57.8953 189.868 59.1031C189.868 60.3109 190.847 61.2901 192.055 61.2901Z" fill="#F8F9FB"/>
<path d="M189.251 53.3273C190.459 53.3273 191.438 52.3482 191.438 51.1404C191.438 49.9326 190.459 48.9535 189.251 48.9535C188.043 48.9535 187.064 49.9326 187.064 51.1404C187.064 52.3482 188.043 53.3273 189.251 53.3273Z" fill="#F8F9FB"/>
<path d="M203.606 59.72C204.38 59.72 205.008 59.0923 205.008 58.3181C205.008 57.5438 204.38 56.9162 203.606 56.9162C202.832 56.9162 202.204 57.5438 202.204 58.3181C202.204 59.0923 202.832 59.72 203.606 59.72Z" fill="#F8F9FB"/>
<path opacity="0.7" d="M67.9047 129.926C66.4921 129.93 65.1298 129.402 64.0902 128.445C63.0506 127.489 62.4102 126.175 62.2972 124.767C62.2972 123.645 60.3907 96.2247 80.802 62.0189C81.1251 61.304 81.5947 60.6647 82.1804 60.1426C82.7661 59.6205 83.4548 59.2271 84.2021 58.9878C84.9493 58.7486 85.7385 58.6689 86.5185 58.7537C87.2985 58.8386 88.052 59.0862 88.7303 59.4806C89.4086 59.875 89.9966 60.4073 90.4563 61.0432C90.916 61.679 91.2371 62.4043 91.3989 63.1721C91.5607 63.9398 91.5595 64.733 91.3955 65.5003C91.2316 66.2676 90.9084 66.9919 90.4469 67.6264C71.9982 98.5799 73.6244 123.701 73.6244 123.701C73.6778 124.438 73.5851 125.178 73.3516 125.879C73.1181 126.58 72.7485 127.228 72.2639 127.785C71.7793 128.343 71.1893 128.799 70.5278 129.128C69.8664 129.457 69.1464 129.652 68.4094 129.702L67.9047 129.926Z" fill="#F8F9FB"/>
<path opacity="0.7" d="M34.3158 228.562H33.6429C32.1723 228.379 30.8337 227.622 29.9196 226.456C29.0054 225.29 28.5901 223.809 28.7644 222.338C32.1457 198.68 39.2425 175.705 49.7925 154.262C50.4618 152.931 51.6323 151.921 53.0468 151.453C54.4612 150.985 56.0036 151.098 57.3346 151.767C58.6657 152.436 59.6763 153.607 60.1443 155.021C60.6123 156.436 60.4992 157.978 59.8299 159.309C49.9355 179.605 43.2034 201.296 39.8673 223.627C39.7031 224.985 39.0481 226.237 38.0257 227.145C37.0032 228.054 35.6838 228.558 34.3158 228.562Z" fill="#F8F9FB"/>
<path d="M247.233 315.983C282.476 315.983 311.046 281.864 311.046 239.777C311.046 197.689 282.476 163.571 247.233 163.571C211.989 163.571 183.419 197.689 183.419 239.777C183.419 281.864 211.989 315.983 247.233 315.983Z" fill="#574DFF"/>
<path d="M247.233 268.431C263.058 268.431 275.887 255.602 275.887 239.777C275.887 223.951 263.058 211.123 247.233 211.123C231.407 211.123 218.578 223.951 218.578 239.777C218.578 255.602 231.407 268.431 247.233 268.431Z" fill="#4D42FF"/>
<path d="M238.148 243.59C243.165 243.59 247.233 239.523 247.233 234.506C247.233 229.489 243.165 225.422 238.148 225.422C233.131 225.422 229.064 229.489 229.064 234.506C229.064 239.523 233.131 243.59 238.148 243.59Z" fill="#4D42FF"/>
<path d="M247.233 294.17C282.476 294.17 311.046 260.051 311.046 217.964C311.046 175.876 282.476 141.758 247.233 141.758C211.989 141.758 183.419 175.876 183.419 217.964C183.419 260.051 211.989 294.17 247.233 294.17Z" fill="#F8F9FB"/>
<path d="M243.419 210.562C259.245 210.562 272.074 197.733 272.074 181.907C272.074 166.082 259.245 153.253 243.419 153.253C227.594 153.253 214.765 166.082 214.765 181.907C214.765 197.733 227.594 210.562 243.419 210.562Z" fill="#0A1230"/>
<path d="M233.887 181.627C238.904 181.627 242.971 177.56 242.971 172.543C242.971 167.526 238.904 163.459 233.887 163.459C228.87 163.459 224.803 167.526 224.803 172.543C224.803 177.56 228.87 181.627 233.887 181.627Z" fill="#F8F9FB"/>
<path d="M196.933 431.666C196.526 431.746 196.107 431.746 195.7 431.666C175.586 425.356 156.642 415.789 139.625 403.348C139.135 403.042 138.712 402.639 138.385 402.163C138.057 401.687 137.831 401.149 137.721 400.583C137.61 400.016 137.618 399.432 137.743 398.868C137.868 398.304 138.108 397.772 138.448 397.305C138.787 396.838 139.22 396.445 139.718 396.153C140.216 395.86 140.769 395.673 141.342 395.603C141.915 395.534 142.497 395.583 143.051 395.748C143.604 395.913 144.118 396.19 144.559 396.563C160.852 408.455 178.979 417.604 198.223 423.647C199.206 423.932 200.051 424.565 200.6 425.429C201.149 426.292 201.364 427.325 201.206 428.336C201.048 429.347 200.527 430.265 199.741 430.919C198.954 431.573 197.956 431.919 196.933 431.89V431.666Z" fill="#574DFF"/>
<path d="M316.205 418.376C315.17 418.387 314.167 418.016 313.388 417.334C312.609 416.652 312.109 415.706 311.984 414.678C311.859 413.65 312.118 412.613 312.71 411.764C313.303 410.915 314.188 410.314 315.196 410.077C325.787 407.443 335.894 403.147 345.14 397.348C346.079 396.834 347.178 396.693 348.217 396.953C349.256 397.212 350.16 397.854 350.747 398.75C351.288 399.683 351.445 400.791 351.183 401.837C350.921 402.884 350.262 403.788 349.345 404.357C339.349 410.609 328.43 415.245 316.99 418.095C316.743 418.226 316.479 418.32 316.205 418.376V418.376Z" fill="#574DFF"/>
<path d="M67.4 298.543C66.5792 298.546 65.7755 298.309 65.088 297.861C64.4004 297.412 63.8592 296.772 63.5308 296.02C57.1048 279.079 53.6888 261.146 53.4373 243.029C53.4299 242.477 53.5314 241.929 53.7359 241.416C53.9404 240.902 54.244 240.435 54.6293 240.039C55.0147 239.643 55.4742 239.327 55.9816 239.109C56.4891 238.891 57.0345 238.775 57.5869 238.767C58.6977 238.782 59.759 239.23 60.5446 240.015C61.3302 240.801 61.778 241.862 61.7925 242.973C62.0854 259.949 65.2713 276.751 71.2131 292.656C71.6651 293.689 71.6888 294.86 71.2788 295.911C70.8688 296.963 70.0587 297.808 69.0262 298.263C68.5061 298.456 67.9547 298.551 67.4 298.543V298.543Z" fill="#574DFF"/>
<path d="M256.317 419.049C248.178 419.079 240.065 418.137 232.149 416.245C231.063 415.977 230.128 415.289 229.55 414.332C228.971 413.375 228.797 412.228 229.064 411.142C229.332 410.056 230.02 409.122 230.977 408.543C231.934 407.965 233.082 407.79 234.167 408.058C249.141 411.412 264.671 411.412 279.644 408.058C280.174 407.915 280.728 407.878 281.272 407.95C281.817 408.022 282.342 408.201 282.816 408.478C283.291 408.754 283.706 409.122 284.038 409.56C284.369 409.999 284.61 410.498 284.747 411.03C284.891 411.564 284.929 412.121 284.857 412.669C284.786 413.218 284.607 413.747 284.331 414.226C284.055 414.705 283.687 415.125 283.248 415.462C282.81 415.799 282.309 416.046 281.775 416.189C273.43 418.133 264.885 419.093 256.317 419.049Z" fill="#574DFF"/>
<path d="M104.914 325.684C104.29 325.68 103.673 325.537 103.111 325.266C102.548 324.994 102.053 324.6 101.662 324.114C91.4607 310.805 84.423 295.349 81.0823 278.917C80.9006 277.826 81.15 276.708 81.7778 275.797C82.4056 274.887 83.3627 274.256 84.4468 274.039C84.992 273.933 85.5526 273.937 86.0964 274.049C86.6401 274.161 87.1563 274.38 87.6151 274.693C88.0738 275.006 88.4661 275.406 88.7693 275.871C89.0725 276.336 89.2805 276.857 89.3815 277.403C92.5127 292.415 98.9279 306.547 108.167 318.786C108.656 319.409 108.963 320.155 109.053 320.942C109.142 321.728 109.011 322.525 108.673 323.241C108.335 323.957 107.805 324.565 107.141 324.996C106.477 325.428 105.706 325.666 104.914 325.684Z" fill="#574DFF"/>
<path d="M179.44 133.889C189.141 123.41 201.35 115.574 214.917 111.118C266.071 93.5337 300.079 129.757 301.671 130.532C310.408 139.318 317.484 149.612 322.556 160.917C316.597 156.94 311.712 152.206 306.266 148.482L294.11 140.117C284.771 134.319 274.695 129.803 264.153 126.691C236.794 118.083 206.561 124.321 179.44 133.889Z" fill="#574DFF"/>
<path d="M262.485 47.6077C271.801 35.4305 283.19 24.9904 296.13 16.7664C309.185 8.51565 324.37 4.26616 339.812 4.54203C333.934 12.7855 329.85 22.1695 327.821 32.0887C325.793 42.0078 325.866 52.242 328.036 62.1311" fill="#6C63FF"/>
<path d="M382.934 94.2061C394.117 90.1643 405.922 88.1145 417.813 88.15C429.788 88.1667 441.492 91.7169 451.458 98.3557C444.191 101.262 437.613 105.657 432.146 111.258C426.68 116.86 422.447 123.543 419.719 130.879" fill="#6C63FF"/>
<path d="M463.068 246.73C461.108 285.099 448.894 322.24 427.699 354.283C406.505 386.327 377.105 412.1 342.562 428.918C342.592 428.376 342.592 427.833 342.562 427.292C342.578 425.66 342.164 424.052 341.362 422.63C340.561 421.209 339.399 420.023 337.994 419.192C336.589 418.361 334.991 417.914 333.359 417.895C331.727 417.877 330.118 418.288 328.695 419.087C327.272 419.887 326.085 421.046 325.251 422.45C324.418 423.853 323.968 425.451 323.947 427.083C323.926 428.715 324.334 430.324 325.131 431.748C325.928 433.173 327.086 434.362 328.488 435.198C296.726 447.929 262.385 452.899 228.317 449.695C194.249 446.492 161.437 435.206 132.606 416.777C103.774 398.347 79.7557 373.305 62.5444 343.731C45.333 314.156 35.4257 280.902 33.645 246.73C33.645 250.375 33.645 254.076 33.645 257.945C33.645 314.964 56.2959 369.648 96.6146 409.967C136.933 450.286 191.617 472.937 248.637 472.937C305.656 472.937 360.34 450.286 400.659 409.967C440.978 369.648 463.628 314.964 463.628 257.945C463.348 254.188 463.236 250.487 463.068 246.73Z" fill="#574DFF"/>
</svg>
