<?xml version="1.0"?>
<svg xmlns="http://www.w3.org/2000/svg" xmlns:xlink="http://www.w3.org/1999/xlink" xmlns:svgjs="http://svgjs.com/svgjs" version="1.1" width="512" height="512" x="0" y="0" viewBox="0 0 512 512" style="enable-background:new 0 0 512 512" xml:space="preserve" class=""><rect width="512" height="512" rx="20" ry="20" fill="#f8f9fb" shape="rounded"/><g transform="matrix(1.2,0,0,1.2,-51.19999999999999,-51.19999999999999)">
<circle xmlns="http://www.w3.org/2000/svg" style="" cx="256" cy="256" r="256" fill="#f8f9fb" data-original="#38c6d9" class=""/>
<path xmlns="http://www.w3.org/2000/svg" style="" d="M437.019,437.019c25.245-25.245,44.106-54.455,56.601-85.621L369.778,227.556l-35.237,86.512  L146.468,125.997l-23.285-3.887V289.54l-1.255-1.255l0.631,88.119l135.57,135.57C322.932,511.44,387.574,486.465,437.019,437.019z" fill="#f8f9fb" data-original="#02b2b2" class=""/>
<g xmlns="http://www.w3.org/2000/svg">
	<polygon style="" points="126.843,372.162 170.667,170.667 369.778,369.778  " fill="#0a1230" data-original="#930000" class=""/>
	<polygon style="" points="257.15,257.15 257.15,370.883 369.778,369.778  " fill="#0a1230" data-original="#930000" class=""/>
</g>
<polygon xmlns="http://www.w3.org/2000/svg" style="" points="126.843,372.162 199.111,227.556 312.889,256 369.778,227.556 369.778,369.778 " fill="#e8f1ff" data-original="#ffedb5" class=""/>
<polygon xmlns="http://www.w3.org/2000/svg" style="" points="369.778,227.556 312.889,256 257.15,242.066 257.15,370.883 369.778,369.778 " fill="#e8f1ff" data-original="#fee187" class=""/>
<polygon xmlns="http://www.w3.org/2000/svg" style="" points="130.155,256 227.556,312.889 284.444,284.444 341.333,369.778 130.155,369.778 " fill="#6c63ff" data-original="#ffc61b" class=""/>
<polygon xmlns="http://www.w3.org/2000/svg" style="" points="284.444,284.444 257.15,298.093 257.15,369.778 341.333,369.778 " fill="#6c63ff" data-original="#eaa22f" class=""/>
<path xmlns="http://www.w3.org/2000/svg" style="" d="M418.573,367.128l-15.358-15.358c-2.357-2.357-6.175-2.357-8.532,0c-2.357,2.355-2.357,6.177,0,8.532  l5.825,5.827H132.877V129.47l5.06,5.058c2.357,2.357,6.178,2.357,8.532,0c2.357-2.357,2.357-6.177,0-8.532L131.11,110.64  c-2.357-2.357-6.175-2.357-8.532,0l-15.358,15.358c-2.357,2.355-2.357,6.177,0,8.532c1.179,1.179,2.722,1.767,4.267,1.767  c1.545,0,3.088-0.59,4.267-1.767l5.06-5.06v242.69c0,3.332,2.701,6.034,6.034,6.034h272.127l-4.289,4.289  c-2.357,2.355-2.357,6.175,0,8.532c1.177,1.179,2.722,1.767,4.267,1.767c1.545,0,3.087-0.59,4.267-1.767l15.358-15.357  c1.131-1.131,1.767-2.665,1.767-4.267C420.34,369.795,419.704,368.259,418.573,367.128z" fill="#0a1230" data-original="#386895" class=""/>
<path xmlns="http://www.w3.org/2000/svg" style="" d="M418.573,367.128l-15.358-15.358c-2.357-2.357-6.175-2.357-8.532,0c-2.357,2.355-2.357,6.177,0,8.532  l5.825,5.827H132.877v-0.041l-10.319,10.319c1.093,1.105,2.608,1.789,4.286,1.789H398.97l-4.289,4.289  c-2.357,2.355-2.357,6.175,0,8.532c1.177,1.179,2.722,1.767,4.267,1.767c1.545,0,3.087-0.59,4.267-1.767l15.358-15.357  c1.131-1.131,1.767-2.665,1.767-4.267C420.34,369.795,419.704,368.259,418.573,367.128z" fill="#0a1230" data-original="#273b7a" class=""/>
<g xmlns="http://www.w3.org/2000/svg">
</g>
<g xmlns="http://www.w3.org/2000/svg">
</g>
<g xmlns="http://www.w3.org/2000/svg">
</g>
<g xmlns="http://www.w3.org/2000/svg">
</g>
<g xmlns="http://www.w3.org/2000/svg">
</g>
<g xmlns="http://www.w3.org/2000/svg">
</g>
<g xmlns="http://www.w3.org/2000/svg">
</g>
<g xmlns="http://www.w3.org/2000/svg">
</g>
<g xmlns="http://www.w3.org/2000/svg">
</g>
<g xmlns="http://www.w3.org/2000/svg">
</g>
<g xmlns="http://www.w3.org/2000/svg">
</g>
<g xmlns="http://www.w3.org/2000/svg">
</g>
<g xmlns="http://www.w3.org/2000/svg">
</g>
<g xmlns="http://www.w3.org/2000/svg">
</g>
<g xmlns="http://www.w3.org/2000/svg">
</g>
</g></svg>
