<?xml version="1.0"?>
<svg xmlns="http://www.w3.org/2000/svg" xmlns:xlink="http://www.w3.org/1999/xlink" xmlns:svgjs="http://svgjs.com/svgjs" version="1.1" width="512" height="512" x="0" y="0" viewBox="0 0 24 24" style="enable-background:new 0 0 512 512" xml:space="preserve" class=""><g><path xmlns="http://www.w3.org/2000/svg" d="m21 5h-7c-1.103 0-2 .898-2 2v15c0 1.103.897 2 2 2h7c1.103 0 2-.897 2-2v-15c0-1.102-.897-2-2-2zm0 8.5h-2.5v-6.502h2.5zm-4.5-6.501v6.501h-2.5v-6.5zm-2.5 8.501h2.5v6.5h-2.5zm4.5 6.5v-6.5h2.5v6.5z" fill="#0a1230" data-original="#607d8b" style="" class=""/><path xmlns="http://www.w3.org/2000/svg" d="m14 22v-6.5h2.5v6.5zm0-8.5v-6.5l2.5-.001v6.501zm3.5-8.5h-3.5c-1.103 0-2 .898-2 2v15c0 1.103.897 2 2 2h3.5z" fill="#0a1230" data-original="#546e7a" style="" class=""/><path xmlns="http://www.w3.org/2000/svg" d="m5 5h-2c-1.103 0-2 .897-2 2v15c0 1.103.898 2 2 2h2c1.103 0 2-.897 2-2v-15c0-1.103-.897-2-2-2zm0 1.998v6.502h-2v-6.5zm-2 15.002v-6.5h2v6.5z" fill="#a0aec0" data-original="#cfd8dc" style="" class=""/><path xmlns="http://www.w3.org/2000/svg" d="m4 5h-1c-1.103 0-2 .897-2 2v15c0 1.103.898 2 2 2h1v-2h-1v-6.5h1v-2h-1v-6.5l1-.001z" fill="#a0aec0" data-original="#b0bec5" style="" class=""/><path xmlns="http://www.w3.org/2000/svg" d="m13.947.475c-.112-.287-.389-.475-.697-.475h-7.5c-.308 0-.585.188-.697.475-.113.287-.04.613.186.823l3.75 3.5c.144.135.327.202.511.202s.367-.067.512-.202l3.75-3.5c.225-.21.298-.536.185-.823z" fill="#6c63ff" data-original="#2196f3" style="" class=""/><path xmlns="http://www.w3.org/2000/svg" d="m9.5 0h-3.75c-.308 0-.585.188-.697.475-.113.287-.04.613.186.823l3.75 3.5c.144.135.327.202.511.202z" fill="#6c63ff" data-original="#1e88e5" style="" class=""/></g></svg>
