<?xml version="1.0"?>
<svg xmlns="http://www.w3.org/2000/svg" xmlns:xlink="http://www.w3.org/1999/xlink" xmlns:svgjs="http://svgjs.com/svgjs" version="1.1" width="512" height="512" x="0" y="0" viewBox="0 0 512 512" style="enable-background:new 0 0 512 512" xml:space="preserve" class=""><g><path xmlns="http://www.w3.org/2000/svg" d="m102.355469 277.078125-74.664063-80c-4.480468-4.820313-11.414062-6.421875-17.558594-3.96875-6.121093 2.410156-10.132812 8.320313-10.132812 14.890625v160c0 6.570312 4.011719 12.480469 10.132812 14.871094 1.898438.765625 3.882813 1.128906 5.867188 1.128906 4.351562 0 8.597656-1.769531 11.691406-5.078125l74.664063-80c5.742187-6.144531 5.742187-15.699219 0-21.84375zm0 0" fill="#6c63ff" data-original="#2196f3" style=""/><path xmlns="http://www.w3.org/2000/svg" d="m469.332031 469.332031h-320c-23.53125 0-42.664062-19.132812-42.664062-42.664062v-42.667969c0-23.53125 19.132812-42.667969 42.664062-42.667969h320c23.53125 0 42.667969 19.136719 42.667969 42.667969v42.667969c0 23.53125-19.136719 42.664062-42.667969 42.664062zm-320-85.332031h-.042969l.042969 42.667969h320v-42.667969zm0 0" fill="#a0aec0" data-original="#cfd8dc" style="" class=""/><path xmlns="http://www.w3.org/2000/svg" d="m469.332031 234.667969h-320c-23.53125 0-42.664062-19.136719-42.664062-42.667969v-149.332031c0-23.53125 19.132812-42.667969 42.664062-42.667969h320c23.53125 0 42.667969 19.136719 42.667969 42.667969v149.332031c0 23.53125-19.136719 42.667969-42.667969 42.667969zm-320-192h-.042969l.042969 149.332031h320v-149.332031zm0 0" fill="#0a1230" data-original="#607d8b" style="" class=""/><path xmlns="http://www.w3.org/2000/svg" d="m309.332031 469.332031c-11.796875 0-21.332031-9.535156-21.332031-21.332031v-85.332031c0-11.796875 9.535156-21.335938 21.332031-21.335938s21.335938 9.539063 21.335938 21.335938v85.332031c0 11.796875-9.539063 21.332031-21.335938 21.332031zm0 0" fill="#a0aec0" data-original="#cfd8dc" style="" class=""/><g xmlns="http://www.w3.org/2000/svg" fill="#607d8b"><path d="m309.332031 234.667969c-11.796875 0-21.332031-9.539063-21.332031-21.335938v-192c0-11.796875 9.535156-21.332031 21.332031-21.332031s21.335938 9.535156 21.335938 21.332031v192c0 11.796875-9.539063 21.335938-21.335938 21.335938zm0 0" fill="#0a1230" data-original="#607d8b" style="" class=""/><path d="m490.667969 138.667969h-362.667969c-11.796875 0-21.332031-9.539063-21.332031-21.335938s9.535156-21.332031 21.332031-21.332031h362.667969c11.796875 0 21.332031 9.535156 21.332031 21.332031s-9.535156 21.335938-21.332031 21.335938zm0 0" fill="#0a1230" data-original="#607d8b" style="" class=""/></g></g></svg>
