<?xml version="1.0"?>
<svg xmlns="http://www.w3.org/2000/svg" xmlns:xlink="http://www.w3.org/1999/xlink" xmlns:svgjs="http://svgjs.com/svgjs" version="1.1" width="512" height="512" x="0" y="0" viewBox="0 0 32 32" style="enable-background:new 0 0 512 512" xml:space="preserve" class=""><g transform="matrix(1,0,0,1,0,0)"><path xmlns="http://www.w3.org/2000/svg" d="m26 32h-20c-3.314 0-6-2.686-6-6v-20c0-3.314 2.686-6 6-6h20c3.314 0 6 2.686 6 6v20c0 3.314-2.686 6-6 6z" fill="#f8f9fb" data-original="#e3f8fa" style="" class=""/><g xmlns="http://www.w3.org/2000/svg" fill="#26c6da"><path d="m21.98 13.51-.5.5c-.62-.227-1.287-.347-1.98-.347-3.213 0-5.833 2.62-5.833 5.833 0 .693.12 1.36.347 1.98l-.814.814-1.767-1.767-1.727-1.727.053-.053 8.353-8.347.367-.367 1.687 1.68 1.807 1.793z" fill="#0a1230" data-original="#26c6da" style="" class=""/><path d="m9.428 19.461-1.401 3.863c-.06.187-.02.387.12.527.093.093.22.147.353.147.06 0 .113-.007.173-.027l3.863-1.401z" fill="#0a1230" data-original="#26c6da" style="" class=""/><path d="m23.253 8.703c-.473-.467-1.1-.7-1.753-.72-.66.007-1.28.273-1.74.74l-.814.831c.001.001.003.002.004.003l1.687 1.68 1.806 1.792c.001.001.002.003.003.004l.827-.844c.46-.46.713-1.08.713-1.727v-.027c.001-.658-.266-1.272-.733-1.732z" fill="#0a1230" data-original="#26c6da" style="" class=""/></g><path xmlns="http://www.w3.org/2000/svg" d="m19.5 14.997c-2.481 0-4.5 2.019-4.5 4.5s2.019 4.5 4.5 4.5 4.5-2.019 4.5-4.5-2.019-4.5-4.5-4.5zm1.833 5.166h-1.167v1.167c0 .368-.299.667-.667.667s-.667-.299-.667-.667v-1.167h-1.167c-.368 0-.667-.299-.667-.667s.299-.667.667-.667h1.167v-1.167c0-.368.299-.667.667-.667s.667.299.667.667v1.167h1.167c.368 0 .667.299.667.667s-.299.667-.667.667z" fill="#6c63ff" data-original="#8ce1eb" style="" class=""/></g></svg>
