<svg width="20" height="6" viewBox="0 0 20 6" fill="none" xmlns="http://www.w3.org/2000/svg">
<path fill-rule="evenodd" clip-rule="evenodd" d="M14 3C14 1.344 15.344 0 17 0C18.656 0 20 1.344 20 3C20 4.656 18.656 6 17 6C15.344 6 14 4.656 14 3ZM15 3C15 1.896 15.896 1 17 1C18.104 1 19 1.896 19 3C19 4.104 18.104 5 17 5C15.896 5 15 4.104 15 3ZM7 3C7 1.344 8.344 0 10 0C11.656 0 13 1.344 13 3C13 4.656 11.656 6 10 6C8.344 6 7 4.656 7 3ZM8 3C8 1.896 8.896 1 10 1C11.104 1 12 1.896 12 3C12 4.104 11.104 5 10 5C8.896 5 8 4.104 8 3ZM0 3C0 1.344 1.344 0 3 0C4.656 0 6 1.344 6 3C6 4.656 4.656 6 3 6C1.344 6 0 4.656 0 3ZM1 3C1 1.896 1.896 1 3 1C4.104 1 5 1.896 5 3C5 4.104 4.104 5 3 5C1.896 5 1 4.104 1 3Z" fill="#A0AEC0"/>
</svg>
