<svg width="50" height="50" xmlns="http://www.w3.org/2000/svg">

 <g>
  <title>background</title>
  <rect fill="none" id="canvas_background" height="402" width="582" y="-1" x="-1"/>
 </g>
 <g>
  <title>Layer 1</title>
  <path fill="#a0aec0" id="svg_1" d="m7,31c3.309,0 6,-2.691 6,-6s-2.691,-6 -6,-6s-6,2.691 -6,6s2.691,6 6,6zm0,-10c2.206,0 4,1.794 4,4s-1.794,4 -4,4s-4,-1.794 -4,-4s1.794,-4 4,-4z"/>
  <path fill="#a0aec0" id="svg_2" d="m19,25c0,3.309 2.691,6 6,6s6,-2.691 6,-6s-2.691,-6 -6,-6s-6,2.691 -6,6zm10,0c0,2.206 -1.794,4 -4,4s-4,-1.794 -4,-4s1.794,-4 4,-4s4,1.794 4,4z"/>
  <path fill="#a0aec0" id="svg_3" d="m43,19c-3.309,0 -6,2.691 -6,6s2.691,6 6,6s6,-2.691 6,-6s-2.691,-6 -6,-6zm0,10c-2.206,0 -4,-1.794 -4,-4s1.794,-4 4,-4s4,1.794 4,4s-1.794,4 -4,4z"/>
 </g>
</svg>