<?xml version="1.0"?>
<svg xmlns="http://www.w3.org/2000/svg" xmlns:xlink="http://www.w3.org/1999/xlink" xmlns:svgjs="http://svgjs.com/svgjs" version="1.1" width="512" height="512" x="0" y="0" viewBox="0 0 64 64" style="enable-background:new 0 0 512 512" xml:space="preserve" class=""><g><path xmlns="http://www.w3.org/2000/svg" d="m32.001 9.499a14.99155 14.99155 0 0 0 -7.5 27.97705v3.52295a1.49976 1.49976 0 0 0 1.5 1.5h4.5v-14.37895l-5.56055-5.56054a1.49984 1.49984 0 1 1 2.12109-2.1211l4.93946 4.93946 4.93945-4.93946a1.49984 1.49984 0 1 1 2.12109 2.1211l-5.56054 5.56054v14.37895h4.5a1.49977 1.49977 0 0 0 1.5-1.5v-3.523a14.99155 14.99155 0 0 0 -7.5-27.977z" fill="#6c63ff" data-original="#3e3ef4" style="" class=""/><path xmlns="http://www.w3.org/2000/svg" d="m.57906 61.52386 4.43981-13.32036a31.56618 31.56618 0 1 1 10.7775 10.7775l-13.31991 4.43977a1.50107 1.50107 0 0 1 -1.8974-1.89691zm16.21142-5.45486a28.5675 28.5675 0 1 0 -8.85959-8.85957 1.49919 1.49919 0 0 1 .15576 1.27682l-3.71327 11.14021 11.14029-3.71325a1.4987 1.4987 0 0 1 1.27681.15579z" fill="#a0aec0" data-original="#000000" style="" class=""/><path xmlns="http://www.w3.org/2000/svg" d="m38.001 48.499h-12a1.5 1.5 0 0 1 0-3h12a1.5 1.5 0 1 1 0 3z" fill="#a0aec0" data-original="#000000" style="" class=""/><path xmlns="http://www.w3.org/2000/svg" d="m35.001 54.499h-6a1.5 1.5 0 0 1 0-3h6a1.5 1.5 0 1 1 0 3z" fill="#a0aec0" data-original="#000000" style="" class=""/></g></svg>
