<svg id="Capa_1" enable-background="new 0 0 512 512" height="512" viewBox="0 0 512 512" width="512" xmlns="http://www.w3.org/2000/svg"><g><path d="m167 210-15-120h-92c-33.076 0-60 26.909-60 60v60h32v-5.935c0-13.291 10.774-24.065 24.065-24.065h5.935z" fill="#ffdf40"/><g><path d="m347 512-10.605-10.62c-7.646-7.661-14.18-10.122-19.395-19.482-5.215 9.36-11.748 11.821-19.395 19.482l-10.605 10.62-10.605-10.62c-7.646-7.661-14.18-10.122-19.395-19.482-5.215 9.36-11.748 11.821-19.395 19.482l-10.605 10.62-10.605-10.62c-10.869-10.869-19.424-17.563-25.283-31.597-19.161 25.606-49.747 42.217-84.112 42.217h-45l-.527-29.985c34.541-1.23 61.377-29.253 61.113-63.794l-.586-313.221c0-57.891 47.109-105 105-105h285v15c0 40.796-23.701 77.695-60 94.922v312.078c0 33.091 26.924 60 60 60v30h-45c-34.365 0-64.951-16.611-84.111-42.217-5.859 14.033-14.414 20.728-25.283 31.597z" fill="#f3f5f9"/></g><path d="m287 512 10.605-10.62c7.646-7.661 14.18-10.122 19.395-19.482 5.215 9.36 11.748 11.821 19.395 19.482l10.605 10.62 10.605-10.62c10.869-10.869 19.424-17.563 25.283-31.597 19.161 25.606 49.747 42.217 84.112 42.217h45v-30c-33.076 0-60-26.909-60-60v-312.078c36.299-17.227 60-54.126 60-94.922v-15h-225z" fill="#e1e6f0"/><g id="Eagle_2_"><g><path d="m212 90v30c0 32.999 27.001 60 60 60 5.099 0 10.201-.601 15-2.1 23.699-6 41.4-26.1 44.399-50.7.601-2.401.601-4.801.601-7.2v-30z" fill="#4d4d80"/></g></g><path d="m122 240c-33.076 0-60-26.909-60-60h120v60z" fill="#ffbe40"/><path d="m332 90v30c0 2.399 0 4.799-.601 7.2-2.999 24.6-20.7 44.7-44.399 50.7v-87.9z" fill="#443d66"/></g></svg>