<svg width="319" height="456" viewBox="0 0 319 456" fill="none" xmlns="http://www.w3.org/2000/svg">
<path d="M45 90C69.8528 90 90 69.8528 90 45C90 20.1472 69.8528 0 45 0C20.1472 0 0 20.1472 0 45C0 69.8528 20.1472 90 45 90Z" fill="#6C63FF"/>
<path d="M274 90C298.853 90 319 69.8528 319 45C319 20.1472 298.853 0 274 0C249.147 0 229 20.1472 229 45C229 69.8528 249.147 90 274 90Z" fill="#6C63FF"/>
<path d="M45 273C69.8528 273 90 252.853 90 228C90 203.147 69.8528 183 45 183C20.1472 183 0 203.147 0 228C0 252.853 20.1472 273 45 273Z" fill="#6C63FF"/>
<path d="M274 273C298.853 273 319 252.853 319 228C319 203.147 298.853 183 274 183C249.147 183 229 203.147 229 228C229 252.853 249.147 273 274 273Z" fill="#6C63FF"/>
<path d="M45 456C69.8528 456 90 435.853 90 411C90 386.147 69.8528 366 45 366C20.1472 366 0 386.147 0 411C0 435.853 20.1472 456 45 456Z" fill="#6C63FF"/>
<path d="M274 456C298.853 456 319 435.853 319 411C319 386.147 298.853 366 274 366C249.147 366 229 386.147 229 411C229 435.853 249.147 456 274 456Z" fill="#6C63FF"/>
</svg>
