<?xml version="1.0"?>
<svg xmlns="http://www.w3.org/2000/svg" xmlns:xlink="http://www.w3.org/1999/xlink" xmlns:svgjs="http://svgjs.com/svgjs" version="1.1" width="512" height="512" x="0" y="0" viewBox="0 0 512 512" style="enable-background:new 0 0 512 512" xml:space="preserve" class=""><rect width="512" height="512" rx="20" ry="20" fill="#f8f9fb" shape="rounded"/><g transform="matrix(1.2000000000000002,0,0,1.2000000000000002,-51.200000000000045,-51.200000000000045)">
<circle xmlns="http://www.w3.org/2000/svg" style="" cx="256" cy="256" r="256" fill="#f8f9fb" data-original="#fee187" class=""/>
<path xmlns="http://www.w3.org/2000/svg" style="" d="M511.598,270.245L376.961,135.608l-145.594-2.222L113.852,250.901l9.409,67.734l6.761,52.496  l140.452,140.452C400.408,504.341,504.47,400.21,511.598,270.245z" fill="#f8f9fb" data-original="#ffc61b" class=""/>
<path xmlns="http://www.w3.org/2000/svg" style="" d="M256,85.333c-94.256,0-170.667,76.41-170.667,170.667S161.744,426.667,256,426.667  S426.667,350.256,426.667,256S350.256,85.333,256,85.333z M256,341.333c-47.128,0-85.333-38.205-85.333-85.333  s38.205-85.333,85.333-85.333s85.333,38.205,85.333,85.333S303.128,341.333,256,341.333z" fill="#e8f1ff" data-original="#273b7a" class=""/>
<path xmlns="http://www.w3.org/2000/svg" style="" d="M256,85.333c-0.191,0-0.383,0.007-0.574,0.007v85.34c0.191,0,0.381-0.014,0.574-0.014  c47.128,0,85.333,38.205,85.333,85.333S303.128,341.333,256,341.333c-0.193,0-0.381-0.014-0.574-0.014v85.34  c0.191,0,0.383,0.007,0.574,0.007c94.256,0,170.667-76.41,170.667-170.667S350.256,85.333,256,85.333z" fill="#6c63ff" data-original="#121149" class=""/>
<path xmlns="http://www.w3.org/2000/svg" style="" d="M170.667,256c0-34.14,20.056-63.585,49.021-77.228l-36.18-77.31  C125.502,128.721,85.333,187.664,85.333,256c0,46.763,18.815,89.128,49.278,119.953l60.349-60.349  C179.938,300.223,170.667,279.199,170.667,256z" fill="#0a1230" data-original="#ff5419" class=""/>
<path xmlns="http://www.w3.org/2000/svg" style="" d="M194.96,315.604l-60.349,60.349c30.815,31.18,73.55,50.55,120.815,50.707v-85.34  C231.726,341.161,210.33,331.343,194.96,315.604z" fill="#e8f1ff" data-original="#b54324" class=""/>
<g xmlns="http://www.w3.org/2000/svg">
</g>
<g xmlns="http://www.w3.org/2000/svg">
</g>
<g xmlns="http://www.w3.org/2000/svg">
</g>
<g xmlns="http://www.w3.org/2000/svg">
</g>
<g xmlns="http://www.w3.org/2000/svg">
</g>
<g xmlns="http://www.w3.org/2000/svg">
</g>
<g xmlns="http://www.w3.org/2000/svg">
</g>
<g xmlns="http://www.w3.org/2000/svg">
</g>
<g xmlns="http://www.w3.org/2000/svg">
</g>
<g xmlns="http://www.w3.org/2000/svg">
</g>
<g xmlns="http://www.w3.org/2000/svg">
</g>
<g xmlns="http://www.w3.org/2000/svg">
</g>
<g xmlns="http://www.w3.org/2000/svg">
</g>
<g xmlns="http://www.w3.org/2000/svg">
</g>
<g xmlns="http://www.w3.org/2000/svg">
</g>
</g></svg>
