<svg id="Capa_1" enable-background="new 0 0 512 512" height="512" viewBox="0 0 512 512" width="512" xmlns="http://www.w3.org/2000/svg"><g><g><g><g><path d="m240.945 0h30.11v46.189h-30.11z" fill="#6ae0db"/></g><g><path d="m132.841 443.756h102.781v30.11h-102.781z" fill="#6ae0db" transform="matrix(.391 -.921 .921 .391 -310.093 449.201)"/></g><g><path d="m312.714 407.421h30.11v102.781h-30.11z" fill="#1fc7c7" transform="matrix(.921 -.391 .391 .921 -153.169 164.466)"/></g><g><path d="m29.174 83.643h453.652v342.914h-453.652z" fill="#e7ffff"/></g></g><path d="m158.351 162.079-21.291-21.29-15.45 15.45-15.45-15.45-21.29 21.29 15.45 15.45-15.45 15.45 21.29 21.291 15.45-15.45 15.45 15.45 21.291-21.291-15.45-15.45z" fill="#456d99"/></g><g><path d="m256 83.643h226.826v342.914h-226.826z" fill="#daf2fe"/></g><g><path d="m256 0h15.055v46.189h-15.055z" fill="#1fc7c7"/></g><g><path d="m512 93.591h-512v-62.457h512z" fill="#fabe2c"/></g><g><path d="m256 31.134h256v62.458h-256z" fill="#fd9025"/></g><g><g><path d="m323.724 139.814-21.291 21.291 16.323 16.323h-25.592c-62.537 0-113.414 50.877-113.414 113.414h30.11c0-45.934 37.37-83.304 83.304-83.304h25.592l-16.323 16.323 21.291 21.291 52.669-52.669z" fill="#ccddfe"/></g><g><path d="m194.805 366.117c-24.904 0-45.165-20.261-45.165-45.165s20.261-45.165 45.165-45.165 45.165 20.261 45.165 45.165-20.261 45.165-45.165 45.165zm0-60.22c-8.301 0-15.055 6.754-15.055 15.055s6.754 15.055 15.055 15.055 15.055-6.754 15.055-15.055-6.753-15.055-15.055-15.055z" fill="#fd657d"/></g></g><path d="m323.724 139.814-21.291 21.291 16.323 16.323h-25.592c-13.012 0-25.516 2.209-37.164 6.261v32.63c11.197-5.607 23.813-8.781 37.164-8.781h25.592l-16.323 16.323 21.291 21.291 52.669-52.669z" fill="#aac6e0"/><path d="m420.975 320.323-21.291-21.291-15.449 15.45-15.45-15.45-21.291 21.291 15.45 15.449-15.45 15.45 21.291 21.291 15.45-15.45 15.449 15.45 21.291-21.291-15.45-15.45z" fill="#2f558b"/></g></svg>