<?xml version="1.0"?>
<svg xmlns="http://www.w3.org/2000/svg" xmlns:xlink="http://www.w3.org/1999/xlink" xmlns:svgjs="http://svgjs.com/svgjs" version="1.1" width="512" height="512" x="0" y="0" viewBox="0 0 512 512" style="enable-background:new 0 0 512 512" xml:space="preserve" class=""><rect width="512" height="512" fill="#f0f0f5" shape="square"/><g transform="matrix(0.7,0,0,0.7,76.80014648437495,76.80000000000001)">
<path xmlns="http://www.w3.org/2000/svg" style="" d="M395.636,512H23.273C10.418,512,0,501.578,0,488.727V116.364c0-12.853,10.418-23.273,23.273-23.273  H256c12.851,0,23.273,10.42,23.273,23.273S268.851,139.636,256,139.636H46.545v325.818h325.818V256  c0-12.853,10.418-23.273,23.273-23.273c12.851,0,23.273,10.42,23.273,23.273v232.727C418.909,501.578,408.488,512,395.636,512z" fill="#0a1230" data-original="#408baf" class=""/>
<path xmlns="http://www.w3.org/2000/svg" style="" d="M488.727,0H302.545c-12.854,0-23.273,10.42-23.273,23.273s10.418,23.273,23.273,23.273h129.997  L192.998,286.089c-9.087,9.089-9.087,23.827,0,32.914c4.546,4.546,10.501,6.817,16.457,6.817c5.955,0,11.913-2.271,16.454-6.817  L465.455,79.458v129.997c0,12.851,10.418,23.273,23.273,23.273c12.851,0,23.273-10.422,23.273-23.273V23.273  C512,10.42,501.578,0,488.727,0z" fill="#6c63ff" data-original="#e68842" class=""/>
<path xmlns="http://www.w3.org/2000/svg" style="" d="M395.636,232.727c-12.854,0-23.273,10.42-23.273,23.273v209.455H209.455V512h186.182  c12.851,0,23.273-10.422,23.273-23.273V256C418.909,243.147,408.488,232.727,395.636,232.727z" fill="#0a1230" data-original="#387896" class=""/>
<path xmlns="http://www.w3.org/2000/svg" style="" d="M192.998,319.001c4.546,4.546,10.501,6.817,16.457,6.817c5.955,0,11.913-2.271,16.454-6.817  L465.455,79.458v129.997c0,12.851,10.418,23.273,23.273,23.273c12.851,0,23.273-10.422,23.273-23.273V23.273  c0-6.426-2.607-12.245-6.819-16.455L192.998,319.001z" fill="#6c63ff" data-original="#dd4c42" class=""/>
<g xmlns="http://www.w3.org/2000/svg">
</g>
<g xmlns="http://www.w3.org/2000/svg">
</g>
<g xmlns="http://www.w3.org/2000/svg">
</g>
<g xmlns="http://www.w3.org/2000/svg">
</g>
<g xmlns="http://www.w3.org/2000/svg">
</g>
<g xmlns="http://www.w3.org/2000/svg">
</g>
<g xmlns="http://www.w3.org/2000/svg">
</g>
<g xmlns="http://www.w3.org/2000/svg">
</g>
<g xmlns="http://www.w3.org/2000/svg">
</g>
<g xmlns="http://www.w3.org/2000/svg">
</g>
<g xmlns="http://www.w3.org/2000/svg">
</g>
<g xmlns="http://www.w3.org/2000/svg">
</g>
<g xmlns="http://www.w3.org/2000/svg">
</g>
<g xmlns="http://www.w3.org/2000/svg">
</g>
<g xmlns="http://www.w3.org/2000/svg">
</g>
</g></svg>
