<svg height="511pt" viewBox="-5 1 511 511.99999" width="511pt" xmlns="http://www.w3.org/2000/svg"><path d="m281.628906 512c-57.796875 0-112.320312-22.316406-153.523437-62.835938-39.632813-38.980468-62.636719-90.539062-65.191407-145.792968-.160156-.621094-.246093-1.269532-.246093-1.941406v-8.390626c0-.5625.0625-1.113281.175781-1.644531 2.359375-68.8125 29.113281-134.460937 75.667969-185.382812 2.878906-3.148438 7.761719-3.367188 10.910156-.488281 3.144531 2.875 3.363281 7.761718.488281 10.90625-45.183594 49.421874-70.664062 113.496093-71.757812 180.421874.980468 53.535157 22.5625 103.714844 60.78125 141.300782 38.296875 37.664062 88.972656 58.40625 142.695312 58.40625 53.199219 0 103.519532-20.390625 141.695313-57.414063 38.089843-36.945312 60.011719-86.445312 61.726562-139.386719.011719-.375.054688-.75.117188-1.121093.035156-.179688 3.320312-19.199219-.546875-43.289063-5.082032-31.6875-19.527344-56.839844-42.933594-74.75-3.386719-2.59375-4.03125-7.4375-1.4375-10.824218 2.589844-3.386719 7.4375-4.03125 10.824219-1.4375 26.417969 20.214843 43.320312 49.652343 48.882812 85.121093 3.824219 24.386719 1.101563 43.664063.511719 47.328125-1.972656 56.765625-25.539062 109.820313-66.394531 149.441406-41.074219 39.835938-95.210938 61.773438-152.445313 61.773438zm0 0" fill="#ff5572"/><path d="m501.050781 251.636719c0 79.855469-64.734375 144.589843-144.589843 144.589843-79.855469 0-144.589844-64.734374-144.589844-144.589843 0-79.851563 64.734375-144.589844 144.589844-144.589844 79.855468 0 144.589843 64.738281 144.589843 144.589844zm0 0" fill="#49b2a5"/><path d="m390.164062 392.226562c-11.789062-2.84375-23.09375-7.144531-33.679687-12.746093-38.316406-20.253907-67.132813-57.453125-75.003906-103.484375-12.910157-75.542969 35.308593-147.402344 108.8125-164.945313 40.140625 9.679688 74.675781 36.328125 94.089843 73.175781 6.929688 13.152344 11.9375 27.605469 14.578126 43.0625 12.910156 75.535157-35.300782 147.402344-108.796876 164.9375zm0 0" fill="#6fc9c0"/><path d="m354.582031 166.269531c-17.226562 0-31-3.457031-42.222656-6.484375h-.007813c-15.746093-4.246094-26.476562-7.636718-34.675781.5625-34.753906 34.753906 9.347657 128.515625-63.722656 115.648438-13.441406-78.695313 39.441406-153.394532 118.144531-166.859375 16.027344-2.730469 31.882813-2.730469 47.097656-.304688.761719 1.410157 1.507813 2.976563 2.207032 4.644531 8.070312 19.050782 11.242187 52.792969-26.820313 52.792969zm0 0" fill="#2c8c2c"/><path d="m300.53125 368.070312c3.402344 6.441407 6.328125 13.191407 8.746094 20.226563-7.015625-2.414063-13.804688-5.371094-20.3125-8.816406-31.773438-16.789063-57.003906-45.222657-69.179688-80.675781 34.394532 11.90625 63.527344 36.5625 80.746094 69.265624zm0 0" fill="#e6e6e6"/><path d="m390.164062 392.226562h-.007812c-3.066406.726563-6.1875 1.371094-9.339844 1.90625-5.546875.949219-11.066406 1.566407-16.546875 1.863282h-.007812c-3.757813-5.273438-4.761719-10.023438-3.902344-14.542969 3.5-18.496094 38.277344-32.851563 43.027344-61.386719 5.167969-31.03125 53.234375-14.78125 60.632812-31.054687 7.390625-16.265625-40.675781-40.667969-25.886719-55.457031 14.789063-14.789063 34.023438-19.21875 60.820313-6.269532 12.917969 75.539063-35.300781 147.40625-108.789063 164.941406zm0 0" fill="#2c8c2c"/><path d="m390.164062 392.226562h-.007812c-10.359375-2.496093-20.34375-6.125-29.792969-10.769531 3.496094-18.5 38.277344-32.855469 43.023438-61.390625 5.167969-31.03125 53.238281-14.78125 60.636719-31.054687 7.390624-16.265625-40.675782-40.667969-25.886719-55.457031 14.785156-14.789063 34.023437-19.21875 60.816406-6.265626 12.917969 75.535157-35.300781 147.402344-108.789063 164.9375zm0 0" fill="#3fa543"/><path d="m356.457031 287.9375c-21.945312 0-41.269531-13.214844-49.234375-33.660156-1.546875-3.976563.417969-8.453125 4.390625-10 3.976563-1.542969 8.449219.421875 10 4.394531 5.636719 14.472656 19.3125 23.824219 34.84375 23.824219 15.539063 0 29.21875-9.351563 34.84375-23.820313 1.546875-3.976562 6.023438-5.945312 9.996094-4.398437s5.941406 6.019531 4.398437 9.996094c-7.957031 20.449218-27.28125 33.664062-49.238281 33.664062zm0 0" fill="#33a090"/><path d="m354.582031 166.269531c-17.226562 0-31-3.457031-42.222656-6.484375 17.546875-21.351562 41.269531-37.785156 69.042969-46.308594 8.070312 19.050782 11.242187 52.792969-26.820313 52.792969zm0 0" fill="#3fa543"/><path d="m330.886719 225.019531c-4.265625 0-7.722657-3.457031-7.722657-7.722656 0-7.839844-6.375-14.214844-14.214843-14.214844-7.839844 0-14.21875 6.375-14.21875 14.214844 0 4.265625-3.453125 7.722656-7.71875 7.722656s-7.722657-3.457031-7.722657-7.722656c0-16.351563 13.308594-29.65625 29.660157-29.65625 16.355469 0 29.660156 13.304687 29.660156 29.65625 0 4.265625-3.457031 7.722656-7.722656 7.722656zm0 0" fill="#344247"/><path d="m425.871094 225.019531c-4.265625 0-7.71875-3.457031-7.71875-7.722656 0-7.839844-6.378906-14.214844-14.21875-14.214844-7.835938 0-14.214844 6.375-14.214844 14.214844 0 4.265625-3.457031 7.722656-7.722656 7.722656s-7.71875-3.457031-7.71875-7.722656c0-16.351563 13.304687-29.65625 29.65625-29.65625 16.355468 0 29.660156 13.304687 29.660156 29.65625 0 4.265625-3.457031 7.722656-7.722656 7.722656zm0 0" fill="#344247"/><path d="m164.453125 28.234375c-40.148437 0-60.882813 14.757813-60.882813 58.898437l37.28125-20.25" fill="#ff5572"/><path d="m232.742188 96.523438c0 40.148437-14.757813 60.882812-58.898438 60.882812l20.253906-37.28125" fill="#ff5572"/><path d="m232.734375 96.511719c-11.222656 11.222656-24.507813 19.082031-38.636719 23.613281l-53.246094-53.242188c4.523438-14.140624 12.378907-27.429687 23.601563-38.648437 25.261719-25.261719 61.042969-33.554687 93.234375-24.945313 8.613281 32.191407.304688 67.964844-24.953125 93.222657zm0 0" fill="#e6e6e6"/><path d="m186.265625 50.039062c-11.222656 11.222657-20.8125 22.777344-28.410156 33.839844l-17.003907-17.003906c4.527344-14.136719 12.382813-27.421875 23.605469-38.644531 25.253907-25.25 61.023438-33.550781 93.210938-24.945313-19.152344 4.433594-46.152344 21.503906-71.402344 46.753906zm0 0" fill="#ccc"/><path d="m221.535156 39.429688c-8.90625-8.90625-23.34375-8.90625-32.25 0s-8.90625 23.347656 0 32.253906 23.34375 8.90625 32.25 0 8.90625-23.347656 0-32.253906zm0 0" fill="#4ebee5"/><g fill="#ffc627"><path d="m362.839844 59.878906c-4.265625 0-7.722656-3.457031-7.722656-7.722656v-37.5625c0-4.261719 3.457031-7.71875 7.722656-7.71875 4.261718 0 7.71875 3.457031 7.71875 7.71875v37.5625c0 4.265625-3.457032 7.722656-7.71875 7.722656zm0 0"/><path d="m381.617188 41.097656h-37.5625c-4.261719 0-7.71875-3.457031-7.71875-7.722656 0-4.261719 3.457031-7.71875 7.71875-7.71875h37.5625c4.265624 0 7.722656 3.457031 7.722656 7.71875 0 4.265625-3.457032 7.722656-7.722656 7.722656zm0 0"/><path d="m44.898438 439.527344c-4.265626 0-7.722657-3.457032-7.722657-7.71875v-37.5625c0-4.265625 3.457031-7.722656 7.722657-7.722656 4.265624 0 7.71875 3.457031 7.71875 7.722656v37.5625c0 4.261718-3.453126 7.71875-7.71875 7.71875zm0 0"/><path d="m63.679688 420.746094h-37.5625c-4.265626 0-7.722657-3.457032-7.722657-7.71875 0-4.265625 3.457031-7.722656 7.722657-7.722656h37.5625c4.261718 0 7.71875 3.457031 7.71875 7.722656 0 4.261718-3.457032 7.71875-7.71875 7.71875zm0 0"/><path d="m27 62.5625c-4.261719 0-7.71875-3.457031-7.71875-7.722656v-37.5625c0-4.261719 3.457031-7.71875 7.71875-7.71875 4.265625 0 7.722656 3.457031 7.722656 7.71875v37.5625c0 4.265625-3.457031 7.722656-7.722656 7.722656zm0 0"/><path d="m45.785156 43.78125h-37.5625c-4.265625 0-7.722656-3.457031-7.722656-7.722656 0-4.261719 3.457031-7.71875 7.722656-7.71875h37.558594c4.265625 0 7.722656 3.457031 7.722656 7.71875 0 4.265625-3.457031 7.722656-7.71875 7.722656zm0 0"/><path d="m166.976562 341.597656c-4.265624 0-7.722656-3.457031-7.722656-7.722656v-37.5625c0-4.261719 3.457032-7.71875 7.722656-7.71875 4.265626 0 7.722657 3.457031 7.722657 7.71875v37.5625c0 4.265625-3.457031 7.722656-7.722657 7.722656zm0 0"/><path d="m185.757812 322.816406h-37.5625c-4.265624 0-7.722656-3.457031-7.722656-7.722656 0-4.261719 3.457032-7.71875 7.722656-7.71875h37.5625c4.261719 0 7.71875 3.457031 7.71875 7.71875 0 4.265625-3.457031 7.722656-7.71875 7.722656zm0 0"/></g></svg>