<?xml version="1.0" standalone="no"?>
<svg version="1.1" id="Layer_1" xmlns="http://www.w3.org/2000/svg" xmlns:xlink="http://www.w3.org/1999/xlink" x="0px" y="0px" width="595.28px" height="595.28px" viewBox="0 0 595.28 595.28" enable-background="new 0 0 595.28 595.28" xml:space="preserve">
<path id="color_x5F_2" fill="#6c63ff" d="M412.722,479.939l-0.593,0.262c-0.005-0.037-0.017-0.072-0.032-0.104
	c0.221-0.159,0.385-0.355,0.441-0.581L412.722,479.939z M250.636,302.653c-0.764-0.022-1.571-0.127-2.336-0.34
	C248.927,302.602,249.703,302.732,250.636,302.653z M378.409,406.579c-6.576-12.996-11.935-26.176-15.369-40.372
	c-3.3-13.643-10.377-26.533-12.256-40.474c-0.599,0.243-1.201,0.478-1.81,0.699c-1.72,0.625-3.425,1.11-5.102,1.432
	c-0.089,0.044-0.151,0.076-0.151,0.076l-0.14-0.028c-6.984,1.265-13.463-0.36-18.453-6.823c-5.055-6.547-7.736-14.032-9.086-21.933
	l-0.065-0.002c-0.446,0.321-1.225,0.655-1.635,0.673c-11.421,0.513-22.571-1.189-32.386-7.285
	c-4.264,1.495-8.518,2.975-12.724,4.486c-3.43,1.232-6.861,2.464-10.308,3.648c-3.385,1.163-6.466,3.002-10.094,3.372
	c-3.315,0.338-6.712-2.25-5.464-5.956c1.032-3.064,3.218-5.313,6.161-6.46c-0.216-0.079-0.116-0.263,0.136-0.471
	c-0.034-0.048-0.057-0.102-0.057-0.167c0.017-1.559,0.164-3.083,0.425-4.558c-0.01,0-0.02,0.002-0.03,0.002
	c-15.52-0.055-48.079-5.342-51.997,16.293c-2.678,14.787,2.842,31.383,7.775,45.16c3.095,8.644,6.584,17.153,9.845,25.741
	l1.347,3.056l1.1,3.557c1.477,4.119,2.872,8.267,4.099,12.472c0.014,0.048,0.015,0.093,0.021,0.139
	c0.134,0.041,0.245,0.106,0.322,0.198c3.562,4.271,12.039,3.526,16.971,3.243c3.047-0.175,6.099-0.47,9.11-0.975
	c1.24-0.208,2.488-0.414,3.704-0.741c0.443-0.119,0.678-0.185,0.799-0.211c0.039-0.095,0.111-0.188,0.208-0.277
	c-0.013-0.031-0.032-0.059-0.042-0.093c-6.85-22.215-15.687-43.829-20.143-66.724c-0.148-0.762,0.559-1.202,1.172-1.42
	c9.467-3.364,21.822-0.625,31.318,1.179c9.979,1.896,20.728,3.944,29.941,8.399c0.012,0.006,0.019,0.012,0.03,0.018
	c0.35-0.085,0.664-0.12,0.835-0.062c6.973,2.357,12.036,8.739,16.195,14.524c4.639,6.452,9.195,13.295,13.111,20.215
	c3.257,5.756,5.141,12.061,7.335,18.239l12.489,25.728c7.219,13.623,14.469,27.233,21.432,40.99
	c2.774,5.48,5.545,10.972,8.084,16.567c1.201,2.647,2.828,5.584,3.344,8.517c0.711,0.557,1.515,1.064,2.396,1.522l3.2,1.344
	c3.69,1.237,8.075,1.797,12.264,1.612l4.916-0.593c3.378-0.696,6.334-1.978,8.269-3.9c0.066-0.065,0.15-0.122,0.241-0.173
	c-0.031-0.049-0.063-0.098-0.085-0.155C400,455.142,390.38,430.237,378.409,406.579z M238.073,327.05l5.476-0.566
	C241.673,326.525,239.837,326.699,238.073,327.05z M236.223,327.495c3.137,15.646,8.273,30.708,13.385,45.782l-9.386-33.087
	l-3.458-12.845C236.582,327.391,236.403,327.444,236.223,327.495z M354.398,247.223l-1.732,0.204
	c-10.16,4.557-24.705,4.558-34.076,6.972c-0.122,10.964-1.153,21.923-0.567,32.89c0.618,11.585,2.514,24.728,10.632,33.679
	c7.159,7.895,14.658,6.033,22.413,2.843c0.333-0.292,0.808-0.481,1.258-0.526c2.891-1.229,5.816-2.578,8.773-3.617
	c5.556-1.953,11.272-2.38,16.905-1.241c-1.722-2.471-3.149-5.357-4.602-7.794c-4.294-7.207-8.357-14.6-11.716-22.293
	c-3.352-7.678-6.405-15.759-6.658-24.225C354.868,258.773,353.959,252.718,354.398,247.223z M246.69,262.531
	c5.62,12.411,22.53,7.129,32.428,4.06c10.85-3.365,21.28-7.809,31.891-11.829c1.892-0.717,3.795-1.299,5.708-1.792
	c0.241-0.09,0.498-0.154,0.745-0.187c4.762-1.169,9.585-1.799,14.454-2.454c2.514-0.338,5.039-0.684,7.575-1.117
	c1.087-0.186,2.183-0.407,3.274-0.666c10.6-2.52,20.761-8.673,18.313-21.414c-1.933-10.063-9.398-20.572-19.872-22.883
	c-0.258-0.057-0.45-0.145-0.593-0.249c-6.358,2.731-12.955,4.833-19.428,7.269c-0.13,0.121-0.309,0.235-0.552,0.335
	c-18.41,7.546-35.917,16.897-53.087,26.88C260.096,242.815,241.476,251.017,246.69,262.531z M205.984,247.425
	c2.998,2.714,6.51,3.534,10.205,3.155c0.852-0.123,1.698-0.271,2.53-0.434c9.504-2.257,19.714-11.271,25.348-16.263
	c4.161-3.686,8.214-7.538,11.912-11.693c0.417-0.469-4.746-9.094-5.209-10.129c-0.943-2.108-1.923-4.233-2.677-6.42
	c-11.812,3.123-24.106,5.949-34.776,12.079c-5,2.873-10.678,6.902-12.33,12.773C199.386,236.187,201.568,243.427,205.984,247.425z"></path>
<path id="color_x5F_1" d="M313.592,170.017c-1.172-1.231-2.407-2.965-1.578-4.732c0.861-1.835,2.657-3.003,4.349-3.999
	c0.6-0.353,1.348-0.581,2.049-0.549c0.536,0.024,0.664,0.362,0.174,0.65c-1.413,0.831-3.412,1.964-3.826,3.714
	c-0.369,1.557,0.531,2.84,1.56,3.922C316.785,169.512,314.11,170.562,313.592,170.017z M325.663,162.876
	c1.713,0.035,3.005,1.026,3.582,2.626c0.25,0.694,3.108-0.191,2.897-0.776c-0.731-2.03-2.508-2.998-4.603-3.04
	c-0.691-0.014-1.462,0.177-2.049,0.549C325.032,162.526,325.102,162.865,325.663,162.876z M326.665,157.111
	c1.484,0.333,2.794,1.114,4.139,1.796c0.617,0.313,1.503,0.084,2.055-0.26c0.404-0.253,0.863-0.858,0.243-1.173
	c-1.518-0.77-2.998-1.604-4.674-1.98c-0.679-0.152-1.537,0.079-2.049,0.549C325.923,156.46,326.062,156.976,326.665,157.111z
	 M321.047,175.943c0.037-0.413,0.399-0.736,0.854-0.931c0.333-0.487,1.081-0.916,1.756-0.82c1.641,0.233,3.279,0.069,4.899-0.245
	c0.434-0.084,1.636-0.185,1.696,0.536c0.253,3.035-1.479,5.945-4.742,6.222C322.54,180.956,320.796,178.799,321.047,175.943z
	 M323.97,176.286c0.06,1.146,0.536,2.615,1.834,2.43c0.976-0.14,1.437-1.487,1.538-2.631
	C326.224,176.247,325.098,176.329,323.97,176.286z M285.328,104.282C285.496,104.31,285.545,104.276,285.328,104.282
	L285.328,104.282z M176.912,151.654c0.722,4.067,2.006,7.998,3.148,11.96c0.163,0.566,3.053-0.238,2.897-0.776
	c-1.142-3.962-2.425-7.893-3.148-11.96C179.721,150.377,176.8,151.025,176.912,151.654z M191.77,182.351
	c-0.077-0.676-2.996-0.082-2.897,0.776c1.024,8.937,6.89,16.282,12.678,22.786c0.53,0.596,3.258-0.422,2.72-1.027
	C198.529,198.435,192.785,191.206,191.77,182.351z M436.424,508.993c-7.262,0.068-14.524,0.143-21.787,0.217
	c-0.111,0.022-0.226,0.037-0.35,0.037c-1.144,0-2.287,0-3.431,0c-18.193,0.184-36.388,0.348-54.581,0.36
	c-0.858,0.434-2.166,0.489-2.167-0.099c-0.02-10.833-0.2-21.668-0.313-32.501c-0.023-2.176-0.045-4.352-0.069-6.527
	c-0.004-0.379-0.008-0.758-0.012-1.137c-2.894,0.026-5.788,0.052-8.682,0.077c-24.691,0.217-49.386,0.524-74.079,0.533
	c-1.583,0.001-0.555-1.052,0.457-1.455c-0.129-0.599-0.158-1.245-0.201-1.613c-1.563-13.197-1.129-26.788-1.137-40.059
	c0-0.53-0.037-0.792-0.035-0.92c-1.232,0.008-2.464,0.016-3.696,0.023c-3.499,0.022-6.998,0.044-10.497,0.065
	c-0.318,0.063-0.644,0.071-0.917,0.006c-1.987,0.012-3.973,0.025-5.959,0.037c-31.908,0.196-63.818,0.475-95.727,0.48
	c-1.958,0,0.076-1.609,1.137-1.609c8.571-0.001,17.142-0.025,25.713-0.056c-0.025-0.073-0.04-0.153-0.04-0.243
	c0-2.098,0-4.196,0-6.294c0-0.493,0.615-0.877,1.279-1.022c0.083-7.664,7.844-11.604,14.299-13.802
	c8.748-2.979,18.367-3.651,26.887-7.19c0.006-0.002,0.012-0.004,0.018-0.006c-1.047-0.553-1.979-1.24-2.719-2.127
	c-0.028-0.034-0.042-0.068-0.059-0.103c-0.228-0.116-0.406-0.301-0.485-0.573c-5.118-17.534-13.113-34.045-18.636-51.439
	c-2.729-8.593-5.113-17.451-5.807-26.474c-0.427-5.56-0.827-11.591,1.49-16.834c8.537-19.321,37.149-14.56,53.92-14.5
	c0.099,0,0.187,0.01,0.272,0.021c1.412-5.156,4.502-9.461,9.481-11.821c-0.788,0.004-1.574-0.007-2.357-0.053
	c-8.502-0.497-17.778-8.198-13.891-17.592c0.429-1.037,0.968-2.016,1.595-2.946c-6.901,1.569-14.065-0.233-20.642-2.556
	c-10.003,4.622-19.535,4.843-24.863-5.671c-3.735-7.372-2.63-13.394,1.221-18.34c-0.043-0.033-0.084-0.068-0.117-0.111
	c-8.929-11.83-18.158-23.759-24.785-37.085c-1.74-3.5-3.267-7.065-4.619-10.685c-9.707,2.957-28.201,5.73-33.942-4.545
	c-7.52-13.459,15.874-22.509,26.249-25.563c-0.074-0.441-0.144-0.883-0.215-1.325c-0.716,0.384-1.434,0.767-2.148,1.151
	c-0.498,0.627-1.749,1.011-2.373,0.483c-1.053-0.891-1.504-2.908-1.977-4.13c-1.119-2.892-2.186-5.807-3.152-8.753
	c-1.264-3.857-3.964-8.141,0.43-10.272c18.896-9.166,38.254-17.205,58.275-23.58c18.332-5.836,36.913-10.174,55.779-13.897
	c4.172-0.823,10.677-3.948,13.592,0.525c2.489,3.82,5.048,9.018,5.802,13.567c5.137-1.405,10.448-2.271,15.702-2.491
	c5.861-0.245,13.469,0.797,15.752,7.223c4.529,12.749-15.414,23.43-25.346,27.085c4.589,12.181,7.864,24.806,9.739,38.031
	c1.29,9.098,1.945,17.913,1.748,27.091c-0.017,0.787-0.014,1.624-0.002,2.49c0.763-1.871,1.507-3.748,2.063-5.691
	c0.154-0.54,0.776-0.907,1.412-1.048c1.18-0.849,2.455-1.553,3.625-2.413c0.426-0.313,0.96-0.535,1.501-0.575
	c-0.253-2.896-1.508-5.499-4.427-7.695c-3.221-2.423-5.332-5.02-5.347-9.297c-0.035-10.198,6.611-18.411,11.778-26.653
	c0.043-0.068,0.111-0.129,0.19-0.186c-2.198,0.093-4.382,0-6.477-0.503c-3.668-0.879-8.751-3.978-8.019-8.558
	c1.156-7.231,12.166-9.109,18.144-9.207c8.624-0.141,38.71,2.054,36.299,16.138c12.37,3.618,13.354,15.451,7.765,25.918
	c-4.594,8.604-13.81,20.311-24.636,20.646c-0.1,0.717-0.169,1.44-0.205,2.17c0.078,0.032,0.138,0.078,0.197,0.124
	c0.368,0.006,0.652,0.102,0.704,0.328c0.623,2.716,1.468,5.415,3.057,7.735c0.138,0.201,0.045,0.411-0.17,0.601
	c11.433,2.907,20.883,14.832,21.372,26.605c0.309,7.438-2.391,12.314-6.727,15.63c-0.407,2.795,0.036,5.97,0.105,8.755
	c0.097,3.914,0.041,7.881,0.347,11.786c0.612,7.797,3.421,15.364,6.589,22.454c3.427,7.668,7.39,15.094,11.716,22.293
	c1.84,3.062,3.614,6.854,6.03,9.556c0.068,0.044,0.129,0.096,0.171,0.164c0.026,0.041,0.052,0.088,0.079,0.134
	c0.192,0.068,0.384,0.131,0.575,0.204c1.16,0.44-1.482,1.676-2.317,1.359c-5.072-1.925-11.613-2.758-16.766-1.116
	c-3.611,1.151-7.002,2.819-10.449,4.358c0.931,7.283,3.446,14.119,6.063,20.947c2.752,7.185,4.775,14.305,6.695,21.737
	c3.712,14.368,9.433,27.337,15.934,40.618c11.338,23.164,20.844,47.214,30.191,71.234c0.064,0.164,0.07,0.32,0.033,0.465
	c-0.056,0.225-0.22,0.422-0.441,0.581c0.016,0.033,0.027,0.067,0.032,0.104c0.021,0.162-0.065,0.362-0.308,0.603
	c-1.298,1.29-2.84,2.275-4.516,3.033c6.744,2.485,8.549,9.463,9.024,16.276c0.09,0.174,0.097,0.375,0.035,0.573
	c0.131,2.208,0.139,4.385,0.14,6.365c0,0.207-0.132,0.389-0.333,0.545c7.13-0.072,14.259-0.146,21.389-0.213
	C439.516,507.365,437.48,508.983,436.424,508.993z M413.494,501.623c-12.293,0-24.587,0-36.881,0
	c0.096,1.891,0.699,3.725,2.019,5.403c0.021,0.026,0.027,0.053,0.039,0.08c11.645,0,23.29,0,34.935,0
	C413.605,505.391,413.594,503.53,413.494,501.623z M404.434,484.89c-3.492,1.005-7.299,1.252-10.686,1.184
	c-2.933-0.059-6.24-0.262-9.415-0.931c0.059,0.076,0.05,0.178-0.068,0.316c-3.063,3.59-6.93,8.963-7.571,14.165
	c12.22,0,24.44,0,36.661,0C412.775,493.266,410.85,486.94,404.434,484.89z M248.3,302.313c0.626,0.289,1.403,0.419,2.336,0.34
	c1.082-0.091,2.368-0.456,3.883-1.198c1.936-0.947,4.022-1.544,6.053-2.258c6.073-2.135,12.126-4.326,18.167-6.548
	c12.053-4.433,24.542-8.507,36.116-14.127c0.057-2.759,0.163-5.515,0.284-8.25c-0.122-0.029-0.22-0.078-0.284-0.152
	c-1.342-1.553-11.991,2.875-13.553,3.39c-7.401,2.436-14.736,5.07-22.052,7.748c-6.67,2.441-13.32,4.936-19.986,7.389
	c-2.288,0.843-4.788,2.061-7.272,2.672c0.242,0.117,0.132,0.325-0.753,0.602C246.09,293.532,244.625,300.617,248.3,302.313z
	 M312.153,269.063c1.028-0.275,2.114-0.51,3.066-0.569c0.208-4.521,0.423-8.971,0.478-13.262
	c-5.533,1.674-10.936,3.894-16.328,6.119c4.935,0.029,9.082,2.991,12.706,7.55C312.118,268.955,312.141,269.009,312.153,269.063z
	 M304.121,216.638c4.587-2.165,9.224-4.231,13.92-6.184c-0.001-0.002-0.003-0.003-0.004-0.005c-1.873-3.47-3.303-7.215-4.408-11.002
	c-2.656,2.187-4.947,4.816-7.835,6.735c-0.081,0.054-0.176,0.097-0.275,0.135C305.502,209.957,305.249,213.654,304.121,216.638z
	 M246.69,262.531c5.62,12.411,22.53,7.129,32.428,4.06c10.85-3.365,21.28-7.809,31.891-11.829c1.892-0.717,3.795-1.299,5.708-1.792
	c0.248-0.064,0.497-0.126,0.745-0.187c4.762-1.169,9.585-1.799,14.454-2.454c2.514-0.338,5.039-0.684,7.575-1.117
	c1.087-0.186,2.183-0.407,3.274-0.666c10.6-2.52,20.761-8.673,18.313-21.414c-1.933-10.063-9.398-20.572-19.872-22.883
	c-0.258-0.057-0.45-0.145-0.593-0.249c-6.358,2.731-12.955,4.833-19.428,7.269c-0.13,0.121-0.309,0.235-0.552,0.335
	c-18.41,7.546-35.917,16.897-53.087,26.88C260.096,242.815,241.476,251.017,246.69,262.531z M315.949,298.564
	c-0.998-6.157-1.212-12.558-1.113-18.963c-9.695,4.59-19.891,8.361-30.095,11.959c9.363,5.79,19.929,7.486,30.83,6.997
	C315.727,298.55,315.846,298.555,315.949,298.564z M354.468,246.542c-0.583,0.313-1.184,0.608-1.802,0.885
	c-10.16,4.557-24.705,4.558-34.076,6.972c-0.122,10.964-1.153,21.923-0.567,32.89c0.618,11.585,2.514,24.728,10.632,33.679
	c7.159,7.895,14.658,6.033,22.413,2.843c0.333-0.292,0.808-0.481,1.258-0.526c2.891-1.229,5.816-2.578,8.773-3.617
	c5.556-1.953,11.272-2.38,16.905-1.241c-1.722-2.471-3.149-5.357-4.602-7.794c-4.294-7.207-8.357-14.6-11.716-22.293
	c-3.352-7.678-6.405-15.759-6.658-24.225c-0.16-5.342-1.068-11.397-0.629-16.893C354.417,246.993,354.445,246.769,354.468,246.542z
	 M337.324,195.639c-0.124,0.004-0.243-0.004-0.357-0.021c-6.636,1.715-13.479,2.481-20.179,3.915c1.009,3.312,2.263,6.597,3.9,9.632
	c0.087,0.161,0.122,0.318,0.119,0.468c6.442-2.394,12.993-4.492,19.293-7.252C338.762,200.304,337.927,198.024,337.324,195.639z
	 M315.503,184.96c2.332,3.737,1.679,8.178,0.548,12.221c0.063,0.112,0.052,0.247-0.048,0.4c0.103,0.075,0.189,0.168,0.253,0.285
	c6.616-1.421,13.375-2.185,19.936-3.848c0.146-3.331,0.916-6.55,2.579-9.476c0.127-0.224,0.393-0.402,0.711-0.531
	c-0.534-0.605,0.759-1.756,1.808-1.607c5.431,0.771,7.421-9.831,0.837-10.031c-0.743-0.022-0.956-0.31-0.866-0.656
	c-0.029-0.005-0.061-0.006-0.089-0.014c-6.875-1.864-6.46-12.374-3.784-17.966c-3.991-0.189-8.262-0.893-11.876-2.339
	c-1.235-0.495-3.6-1.376-3.747-2.99c-0.073-0.8,0.252-1.488,0.748-2.088c-1.228,0.162-2.469,0.315-3.717,0.437
	c-0.591,0.935-1.263,1.94-1.985,3.007c0.04-0.027,0.078-0.052,0.109-0.069c0.598-0.323,1.371-0.502,2.039-0.32
	c1.364,0.373,2.135,1.44,2.48,2.762c0.221,0.845-2.679,1.614-2.897,0.776c-0.281-1.074-0.802-1.967-1.926-2.274
	c-0.16-0.044-0.239-0.113-0.268-0.193c-0.819,1.207-1.685,2.481-2.549,3.807c0.258-0.063,0.52-0.102,0.758-0.097
	c1.454,0.031,2.613,0.672,3.106,2.072c0.218,0.619-0.818,1.078-1.234,1.189c-0.497,0.133-1.443,0.213-1.663-0.413
	c-0.119-0.337-0.271-0.637-0.553-0.871c-0.226-0.187-0.425-0.197-0.748-0.204c-0.209-0.004-0.442-0.071-0.623-0.185
	c-4.343,6.895-8.154,14.891-4.876,21.533C309.716,180.82,313.533,181.801,315.503,184.96z M307.61,202.313
	c1.845-1.692,3.617-3.474,5.67-4.921c0.468-1.773,0.773-3.482,0.814-5.109c-1.003,0.671-2.047,1.279-3.02,1.994
	c-0.193,0.142-0.413,0.255-0.642,0.352C309.678,197.262,308.626,199.779,307.61,202.313z M287.441,102.801
	c0.381,1.071-1.75,1.946-2.603,1.233c0.175,0.159,0.359,0.226,0.489,0.248c-0.098,0.002-0.232,0.011-0.459,0.043
	c-0.418,0.059-0.835,0.12-1.251,0.188c-0.687,0.113-1.371,0.242-2.057,0.364c-0.196,0.077-0.395,0.155-0.58,0.23
	c-0.037,0.015-0.075,0.024-0.112,0.037c1.275,2.24,2.501,4.492,3.682,6.757c0.099-0.044,0.21-0.089,0.341-0.134
	c4.032-1.372,19.135-6.037,20.533,1.299c1.185,6.221-9.859,10.421-14.339,11.76c-0.13,0.039-0.236,0.051-0.35,0.072
	c0.92,2.136,1.793,4.287,2.63,6.449c8.298-3.066,27.174-13.141,23.349-23.909C313.019,97.035,297.893,99.531,287.441,102.801z
	 M290.284,123.862c0.141-0.071,0.299-0.138,0.491-0.195c3.149-0.941,13.52-5.081,11.752-9.824
	c-2.168-5.819-12.356-2.596-16.565-1.165c-0.298,0.102-0.634,0.137-0.941,0.123C286.9,116.451,288.653,120.137,290.284,123.862z
	 M159.734,141.948c0.259,0.669,0.621,2.156,1.067,3.148c25.801-13.869,52.53-27.06,81.146-33.972
	c10.176-2.458,20.427-4.629,30.698-6.65c1.378-0.271,8.446-2.492,12.305-2.548c0.007-0.002,0.013-0.005,0.02-0.007
	c-0.681-4.212-3.077-9.771-5.573-13.144c-1.852-2.502-5.344-0.813-8.036-0.286c-3.38,0.662-6.758,1.338-10.13,2.039
	c-15.677,3.256-31.129,6.947-46.395,11.808c-17.645,5.618-34.869,12.326-51.622,20.22c-2.516,1.186-5.028,2.38-7.527,3.6
	c-1.018,0.497-0.946,0.237-0.643,1.54c0.493,2.115,1.139,4.193,1.829,6.252C157.773,136.633,158.712,139.307,159.734,141.948z
	 M165.551,156.388c-4.169,1.442-15.587,5.943-12.444,11.374c2.466,4.261,11.27,1.772,14.84,0.423
	c0.162-0.061,0.335-0.101,0.508-0.125C167.34,164.214,166.382,160.32,165.551,156.388z M170.971,175.852
	c-0.79-2.205-1.518-4.428-2.188-6.67c-4.654,1.728-14.59,4.496-18.248-0.101c-2.261-2.841,0.908-6.489,3.119-8.096
	c3.442-2.503,7.371-4.359,11.402-5.704c0.082-0.027,0.167-0.049,0.253-0.066c-0.427-2.083-0.819-4.175-1.185-6.275
	c-5.979,1.748-12.04,4.202-17.14,7.709c-4.941,3.398-10.895,10.25-5.906,16.339C147.405,180.709,162.149,178.525,170.971,175.852z
	 M260.871,197.589c-0.127-0.068-0.217-0.164-0.238-0.299c-0.33-2.068-0.328-4.182-0.698-6.244c-0.106-0.591-0.186-1.241-0.425-1.798
	c-0.26-0.874-0.42-0.874-0.481,0c-0.91,1.366-1.676,2.822-1.998,4.447c-1.085,5.479-0.716,9.86-5.09,13.78
	c1.835,4.791,4.225,9.581,7.111,13.699c0.124,0.177,0.121,0.287-0.034,0.46c-0.021,0.024-0.045,0.05-0.066,0.074
	c0.239-0.136,0.509-0.249,0.779-0.302c5.506-1.085,11.116-2.41,16.298-4.607c2.457-1.041,5.444-2.223,7.265-4.281
	c0.55-0.537,0.983-1.159,1.297-1.868c-1.31-0.135-2.62-0.271-3.929-0.406c-0.945,0.491-1.84,1.059-2.706,1.672
	c-0.446,0.334-0.892,0.67-1.327,1.019c-0.526,0.422-3.416,0.793-2.236-0.151c0.145-0.116,0.295-0.225,0.442-0.338
	c-0.006-0.092,0.08-0.213,0.304-0.373c0.776-0.55,1.694-1.198,2.69-1.822c0.538-0.386,1.073-0.776,1.597-1.181
	c1.679-1.298,4.109-2.981,4.852-5.081c0.29-0.819,0.304-1.748-0.443-2.347c-0.58-0.465-1.165-0.429-1.717-0.17
	c-0.549,0.466-1.122,0.919-1.696,1.354c-0.102,0.1-0.2,0.196-0.292,0.283c-1.06,0.994-2.187,1.755-3.418,2.344
	c-0.613,0.421-1.121,0.775-1.45,1.038c-0.608,0.485-2.67,0.538-2.659-0.039c-0.328-0.225-0.033-0.705,1.021-0.974
	c0.007-0.002,0.014-0.005,0.021-0.007c2.914-2.027,11.444-7.472,9.109-10.043c-0.494-0.543-0.497-0.422-1.295-0.085
	c-0.792,0.335-1.579,0.688-2.338,1.094c-0.537,0.287-1.067,0.584-1.597,0.884c-2.641,2.245-5.957,4.178-7.305,5.25
	c-1.151,0.916-3.475-0.141-1.934-1.367c0.124-0.099,0.306-0.23,0.524-0.384c0.027-0.021,0.046-0.04,0.076-0.061
	c0.64-0.449,1.288-0.891,1.941-1.326c3.433-2.371,8.691-6.236,7.224-8.114c-1.924-2.463-7.004,2.162-8.62,3.411
	c-2.133,1.649-4.287,3.068-6.915,3.774C261.471,198.784,260.854,198.212,260.871,197.589z M218.719,250.146
	c9.504-2.257,19.714-11.271,25.348-16.263c4.161-3.686,8.214-7.538,11.912-11.693c0.417-0.469-4.746-9.094-5.209-10.129
	c-0.943-2.108-1.923-4.233-2.677-6.42c-11.812,3.123-24.106,5.949-34.776,12.079c-5,2.873-10.678,6.902-12.33,12.773
	c-1.602,5.693,0.581,12.934,4.997,16.932c2.998,2.714,6.51,3.534,10.205,3.155C217.025,250.494,217.869,250.348,218.719,250.146z
	 M246.207,250.682c4.679-5.943,12.958-9.776,19.071-13.331c11.715-6.811,23.571-13.34,35.754-19.231
	c-0.093-0.048-0.137-0.114-0.097-0.204c1.188-2.618,1.051-6.086,1.218-8.895c0.248-4.184,0.393-8.375,0.434-12.566
	c0.091-9.461-0.764-18.655-2.275-28.01c-3.636-22.501-11.233-43.11-22.534-62.875c-3.653,0.693-7.302,1.413-10.945,2.162
	c-9.357,1.924-18.733,3.872-27.98,6.278c-25.425,6.617-49.314,18.168-72.443,30.475c0.129,0.817,0.261,1.634,0.398,2.45
	c0.275,0.204,0.333,0.525,0.144,0.836c2.26,13.247,5.55,26.368,11.561,38.456c6.593,13.259,15.554,25.131,24.447,36.911
	c10.883-10.884,35.257-16.025,46.05-18.91c0.818-0.219,1.301-0.078,1.404,0.175c0.478,0.007,0.51,0.177,0.325,0.394
	c0.064-0.033,0.129-0.066,0.193-0.1c0.08,0.236,0.17,0.473,0.252,0.71c2.23-3.051,1.981-6.376,2.779-10.408
	c0.522-2.634,1.842-6.687,4.694-7.731c4.968-1.819,4.452,5.207,4.801,8.663c3.509-1.56,5.985-4.833,9.563-6.331
	c2.399-1.003,6.377-2.17,7.861,0.79c0.557,1.11,0.375,2.27-0.251,3.42c1.601-0.644,3.206-0.935,4.229-0.082
	c2.164,1.802,0.949,4.16-1.267,6.388c1.795-0.201,3.747,0.071,3.791,2.299c0.042,2.138-2.463,4.194-4.028,5.458
	c0.666-0.108,1.322-0.13,1.955-0.034c2.99,0.456,2.595,2.737,0.635,4.563c-6.87,6.4-17.811,8.519-26.7,10.271
	c-0.716,0.141-1.011,0.05-1.046-0.133c-5.888,6.469-18.68,19.073-31.19,25.619C232.981,250.292,239.942,252.411,246.207,250.682z
	 M252.516,289.908c0.91-0.318,1.818-0.642,2.724-0.972c2.94-1.069,5.872-2.159,8.804-3.248c7.877-2.925,15.753-5.855,23.672-8.667
	c6.938-2.463,13.903-4.972,21.007-6.92c0.157-0.043,0.365-0.107,0.598-0.181c-3.9-4.892-8.643-9.123-15.223-6.117
	c-0.407,0.186-0.869,0.229-1.236,0.177c-1.632,0.639-3.268,1.263-4.912,1.841c-7.393,2.597-15.482,5.498-23.535,6.367
	c-0.186,0.164-0.457,0.315-0.848,0.42C255.778,274.694,252.676,282.487,252.516,289.908z M218.072,380.247
	c1.477,4.119,2.872,8.267,4.099,12.472c0.014,0.048,0.015,0.093,0.021,0.139c0.134,0.041,0.245,0.106,0.322,0.198
	c3.562,4.271,12.039,3.526,16.971,3.243c3.047-0.175,6.099-0.47,9.11-0.975c1.24-0.208,2.488-0.414,3.704-0.741
	c0.443-0.119,0.678-0.185,0.799-0.211c0.039-0.095,0.111-0.188,0.208-0.277c-0.013-0.031-0.032-0.059-0.042-0.093
	c-6.85-22.215-15.687-43.829-20.143-66.724c-0.148-0.762,0.559-1.202,1.172-1.42c9.467-3.364,21.822-0.625,31.318,1.179
	c9.979,1.896,20.728,3.944,29.941,8.399c0.012,0.006,0.019,0.012,0.03,0.018c0.35-0.085,0.664-0.12,0.835-0.062
	c6.973,2.357,12.036,8.739,16.195,14.524c4.639,6.452,9.195,13.295,13.111,20.215c3.257,5.756,5.141,12.061,7.335,18.239
	c1.195,3.365,2.481,6.693,4.134,9.873c2.718,5.228,5.481,10.432,8.24,15.639c0.038,0.072,0.077,0.145,0.115,0.217
	c7.219,13.623,14.469,27.233,21.432,40.99c2.774,5.48,5.545,10.972,8.084,16.567c1.201,2.647,2.828,5.584,3.344,8.517
	c0.711,0.557,1.515,1.064,2.396,1.522c0.983,0.511,2.056,0.961,3.2,1.344c3.69,1.237,8.075,1.797,12.264,1.612
	c1.691-0.074,3.349-0.27,4.916-0.593c3.378-0.696,6.334-1.978,8.269-3.9c0.066-0.065,0.15-0.122,0.241-0.173
	c-0.031-0.049-0.063-0.098-0.085-0.155c-9.607-24.686-19.227-49.591-31.198-73.249c-6.576-12.996-11.935-26.176-15.369-40.372
	c-3.3-13.643-10.377-26.533-12.256-40.474c-0.599,0.243-1.201,0.478-1.81,0.699c-1.72,0.625-3.425,1.11-5.102,1.432
	c-0.098,0.019-0.193,0.03-0.291,0.048c-6.984,1.265-13.463-0.36-18.453-6.823c-5.055-6.547-7.736-14.032-9.086-21.933
	c-0.002-0.016-0.005-0.032-0.007-0.048c-0.02,0.015-0.037,0.03-0.058,0.045c-0.446,0.321-1.225,0.655-1.635,0.673
	c-11.421,0.513-22.571-1.189-32.386-7.285c-4.264,1.495-8.518,2.975-12.724,4.486c-3.43,1.232-6.861,2.464-10.308,3.648
	c-3.385,1.163-6.466,3.002-10.094,3.372c-3.315,0.338-6.712-2.25-5.464-5.956c1.032-3.064,3.218-5.313,6.161-6.46
	c-0.216-0.079-0.116-0.263,0.136-0.471c-0.034-0.048-0.057-0.102-0.057-0.167c0.017-1.559,0.164-3.083,0.425-4.558
	c-0.01,0-0.02,0.002-0.03,0.002c-15.52-0.055-48.079-5.342-51.997,16.293c-2.678,14.787,2.842,31.383,7.775,45.16
	c3.095,8.644,6.584,17.153,9.845,25.741C216.46,375.831,217.278,378.035,218.072,380.247z M183.357,417.987
	c23.655,0,47.31,0,70.965,0c0.001-0.311,0.007-0.621,0.007-0.931c0-0.137,0.046-0.265,0.125-0.382
	c0.202-6.988-0.89-14.203-3.795-20.548c-3.867,0.858-8.485,1.485-8.915,1.52c-4.65,0.375-12.3,1.306-17.688-0.667
	c-0.122,0.077-0.271,0.157-0.468,0.238c-6.71,2.788-14.174,3.59-21.159,5.471c-7.222,1.945-18.623,5.054-18.213,14.457
	C184.232,417.497,183.849,417.791,183.357,417.987z M254.272,424.416c0.008-1.624,0.022-3.247,0.038-4.87
	c-0.123,0.03-0.243,0.05-0.351,0.05c-23.665,0-47.33,0-70.995,0c0,1.568,0,3.136,0,4.705c0,0.205-0.106,0.391-0.278,0.549
	C206.548,424.758,230.411,424.582,254.272,424.416z M355.729,467.727c0.213-0.002,0.877,0.074,0.88,0.417
	c0.142,13.285,0.363,26.571,0.394,39.856c5.909-0.003,11.819-0.025,17.728-0.057c0.114-0.259,0.331-0.497,0.631-0.652
	c-4.624-7.074,1.534-16.188,6.251-21.718c0.276-0.323,1.259-0.569,1.974-0.591c-2.728-0.645-5.317-1.674-7.453-3.284
	c-0.299-0.005-0.511-0.066-0.528-0.203c-0.01-0.078-0.03-0.157-0.042-0.235c-0.306-0.256-0.603-0.525-0.886-0.81
	c-0.388-0.389-0.083-0.822,0.451-1.119c-0.714-2.388-1.979-4.749-2.965-6.9c-2.562-5.585-5.302-11.088-8.083-16.567
	c-6.85-13.493-13.946-26.86-21.031-40.231c-2.815-5.314-5.642-10.624-8.416-15.959c-4.306-8.281-5.97-17.651-10.27-25.926
	c-3.713-7.147-8.425-14.212-13.052-20.805c-4.07-5.798-8.935-12.784-15.676-15.813c-0.482,0.378-1.194,0.581-1.744,0.315
	c-9.004-4.354-19.505-6.442-29.268-8.233c-6.33-1.162-13.975-2.885-21.076-2.727c-1.875,0.042-3.711,0.216-5.476,0.566
	c-0.441,0.087-0.877,0.185-1.309,0.295c-0.182,0.046-0.361,0.1-0.541,0.15c3.137,15.646,8.273,30.708,13.385,45.782
	c2.249,6.629,4.49,13.261,6.552,19.948c0.098,0.316,0.012,0.6-0.174,0.834c-0.11,0.444-1.057,0.893-2.419,1.316
	c3.246,7.102,4.232,15.291,3.667,23.028c0,0.007-0.004,0.013-0.005,0.02c-0.015,1.991-0.039,3.981-0.046,5.972
	c4.97-0.035,9.939-0.07,14.909-0.103c0.21-0.001,0.881,0.075,0.88,0.417c-0.012,7.177,0.048,14.357,0.196,21.533
	c0.1,4.897,0.208,9.799,0.508,14.689c0.051,0.828,0.059,6.473,0.745,7.406C301.523,468.309,328.627,467.973,355.729,467.727z
	 M267.602,174.692c-2.83,1.89-7.045,1.664-10.284,1.598c-3.889-0.08-7.767-0.434-11.652-0.567c-1.195,2.357-4.296,4.897-5.821,6.567
	c-2.971,3.253-6.232,7.24-10.258,9.234c-3.36,1.665-4.61-0.147-4.837-3.48c-0.363-5.325-0.008-10.693,0.33-16.011
	c-4.027-1.406-8.182-2.56-12.049-4.383c-1.593-0.751-5.731-2.416-5.184-4.833c0.515-2.271,5.375-3.891,7.153-4.694
	c3.385-1.529,6.839-2.893,10.309-4.214c-0.016-4.107-0.028-8.231,0.285-12.328c0.165-2.152-0.062-6.573,2.434-7.627
	c2.681-1.132,5.219,0.967,7.036,2.726c3.05,2.954,5.657,6.291,8.374,9.541c3.362-1.557,6.75-3.085,10.234-4.334
	c1.781-0.639,5.784-2.587,7.716-1.417c2.355,1.427,0.44,5.867-0.271,7.694c-1.509,3.882-3.426,7.567-5.186,11.337
	c-0.027,0.058-0.067,0.113-0.115,0.167C259.52,162.656,271.514,172.079,267.602,174.692z M259.895,166.904
	c-2.471-2.319-5.013-4.556-7.582-6.766c-0.476-0.41,0.298-0.973,1.165-1.219c1.377-2.912,2.87-5.772,4.087-8.756
	c0.212-0.519,3.144-8.335,1.498-8.257c-3.018,0.144-6.3,1.925-9.029,3.096c-2.169,0.931-4.319,1.905-6.462,2.896
	c-0.155,0.091-0.331,0.171-0.517,0.237c-0.152,0.07-0.304,0.138-0.456,0.209c-1.11,0.516-2.492-0.109-1.725-0.833
	c-1.986-2.377-3.893-4.826-5.992-7.107c-1.17-1.272-2.356-2.584-3.718-3.659c-0.568-0.448-1.162-0.943-1.836-1.234
	c-0.001,0.002-0.002,0.004-0.003,0.006c-1.642,5.669-1.141,12.223-1.119,18.066c0,0.129-0.041,0.25-0.107,0.364
	c0.112,0.254-0.078,0.568-0.806,0.844c-1.932,0.731-17.269,5.974-16.564,8.019c0.878,2.551,5.385,3.844,7.631,4.693
	c3.015,1.139,6.089,2.094,9.129,3.16c0.313,0.11,0.364,0.278,0.258,0.462c0.157,0.108,0.247,0.27,0.233,0.493
	c-0.279,4.396-0.586,8.829-0.45,13.236c0.051,1.648-0.075,3.748,0.611,5.295c0.259,0.585-0.073,0.443,0.788-0.157
	c0.557-0.388,1.095-0.8,1.609-1.243c2.988-2.569,5.71-5.46,8.302-8.424c1.121-1.282,3.932-3.755,4.309-5.228
	c0.117-0.456,0.797-0.792,1.471-0.922c0.248-0.1,0.497-0.161,0.711-0.157c6.131,0.105,13.91,2.132,19.826,0.14
	C266.925,173.563,260.481,167.455,259.895,166.904z M455.782,279.399c0.78,1.81,1.145,3.025-1.055,3.629
	c-4.027,1.106-8.631-1.596-12.471-3.165c-1.119,0.738-2.525,1.339-3.429,1.846c-2.397,1.344-4.962,2.865-7.663,3.505
	c-1.587,0.376-3.568,0.786-3.147-1.47c0.62-3.329,2.042-6.537,3.306-9.663c0.006-0.016,0.021-0.031,0.03-0.047
	c-1.162-0.895-10.339-6.962-7.463-8.665c3.049-1.805,7.4-1.788,11.086-1.851c0.752-2.29,1.519-4.588,2.487-6.794
	c0.737-1.678,1.34-3.104,3.21-3.617c2.064-0.566,3.081,0.859,3.952,2.548c1.097,2.127,1.905,4.373,2.778,6.596
	c2.134-0.233,4.272-0.433,6.418-0.506c1.314-0.045,3.742-0.348,4.738,0.791c1.938,2.218-5.049,8.203-6.624,9.785
	C453.314,274.618,454.723,276.941,455.782,279.399z M453.555,282.056c-0.013-0.068-0.028-0.143-0.058-0.243
	c-0.118-0.4-0.249-0.794-0.415-1.178c-0.448-1.041-0.949-2.055-1.488-3.052c-0.945-1.745-1.944-3.457-2.962-5.16
	c-0.089-0.148,0.32-0.423,0.857-0.648c1.322-1.393,2.707-2.727,3.969-4.176c0.155-0.178,2.902-3.77,2.44-3.887
	c-3.13-0.799-7.102,0.145-10.266,0.507c-1.148,0.132-1.353-0.43-1.038-0.964c-0.664-1.687-1.271-3.398-2.017-5.052
	c-0.444-0.984-0.891-2.004-1.51-2.895c-0.073-0.105-0.151-0.214-0.228-0.322c-1.461,2.692-2.305,5.84-3.245,8.701
	c-0.073,0.222-0.401,0.404-0.809,0.535c-0.444,0.232-0.996,0.431-1.302,0.443c-1.834,0.075-3.669,0.157-5.499,0.315
	c-1.036,0.09-2.079,0.173-3.103,0.359c-0.654,0.119-0.903-0.058-0.604,0.65c1.28,3.028,5.306,5.122,7.808,7.054
	c0.102,0.079,0.046,0.198-0.1,0.329c0.147,0.035,0.225,0.094,0.19,0.181c-0.894,2.212-1.794,4.433-2.519,6.708
	c-0.34,1.067-0.895,2.375-0.833,3.516c0.041,0.742,0.152,0.632,0.779,0.388c2.039-0.792,3.979-1.875,5.864-2.978
	c0.841-0.492,2.887-1.406,3.316-2.034c0.18-0.263,0.661-0.438,1.179-0.54c0.586-0.227,1.266-0.382,1.551-0.281
	C446.626,279.426,450.162,281.631,453.555,282.056z M391.155,183.015c2.316-1.371,5.49-1.453,8.304-1.511
	c0.543-1.65,1.101-3.303,1.798-4.893c0.631-1.437,1.147-2.443,2.737-2.88c1.75-0.48,2.589,0.432,3.353,1.914
	c0.798,1.548,1.393,3.179,2.024,4.797c1.514-0.162,3.03-0.306,4.553-0.358c1.093-0.038,3.023-0.27,3.845,0.67
	c1.517,1.736-3.478,6.068-4.899,7.458c1.022,1.7,2.061,3.421,2.845,5.24c0.684,1.587,0.715,2.419-1.125,2.925
	c-3.128,0.859-6.499-1.037-9.461-2.257c-0.769,0.453-1.625,0.835-2.215,1.167c-1.876,1.052-3.882,2.227-5.996,2.728
	c-1.265,0.3-3.093,0.729-2.745-1.14c0.465-2.497,1.532-4.903,2.479-7.247c0-0.001,0.001-0.002,0.002-0.003
	C395.604,188.832,388.809,184.404,391.155,183.015z M396.893,197.12C396.727,197.119,396.675,197.183,396.893,197.12L396.893,197.12
	z M393.611,183.142c-0.031,0.006-0.046,0.009-0.073,0.015c0.004,0.081,0.017,0.161,0.049,0.239c0.954,2.258,3.968,3.822,5.834,5.263
	c0.088,0.068,0.059,0.168-0.046,0.279c0.104,0.036,0.159,0.088,0.13,0.161c-0.671,1.659-1.346,3.325-1.889,5.031
	c-0.251,0.791-0.665,1.76-0.619,2.605c0.004,0.076-0.005,0.232,0.04,0.335c0.021-0.008,0.035-0.012,0.059-0.021
	c1.476-0.574,2.88-1.366,4.245-2.163c0.582-0.34,2.21-1.168,2.406-1.455c0.174-0.255,0.634-0.428,1.134-0.532
	c0.59-0.229,1.28-0.389,1.568-0.288c1.311,0.461,2.585,1.019,3.881,1.517c0.858,0.33,1.86,0.791,2.855,1.074
	c-0.068-0.212-0.133-0.424-0.221-0.629c-0.336-0.78-0.712-1.542-1.117-2.289c-0.708-1.309-1.458-2.593-2.221-3.87
	c-0.073-0.123,0.197-0.333,0.597-0.53c0.024-0.029,0.04-0.055,0.068-0.085c1.004-1.061,2.061-2.075,3.021-3.178
	c0.504-0.579,1.032-1.171,1.407-1.847c0.201-0.362,0.21-0.85,0.501-0.775c-2.286-0.583-5.216,0.126-7.525,0.391
	c-1.065,0.122-1.316-0.354-1.096-0.849c-0.499-1.266-0.956-2.55-1.515-3.792c-0.283-0.627-0.583-1.263-0.947-1.853
	c-0.878,1.847-1.448,3.906-2.071,5.801c-0.079,0.239-0.454,0.431-0.906,0.563c-0.421,0.207-0.909,0.375-1.19,0.386
	c-1.375,0.057-2.752,0.117-4.124,0.236C395.102,182.949,394.35,183.008,393.611,183.142z M393.326,183.201
	C393.151,183.244,393.215,183.248,393.326,183.201L393.326,183.201z M156.629,264.632c-1.049-0.793-7.844-5.221-5.499-6.61
	c2.316-1.372,5.49-1.453,8.304-1.511c0.543-1.65,1.101-3.303,1.798-4.893c0.631-1.437,1.147-2.443,2.737-2.88
	c1.75-0.48,2.589,0.432,3.353,1.914c0.798,1.548,1.393,3.179,2.024,4.797c1.514-0.162,3.03-0.306,4.553-0.358
	c1.093-0.038,3.023-0.27,3.845,0.67c1.517,1.736-3.478,6.068-4.899,7.458c1.022,1.7,2.061,3.421,2.845,5.24
	c0.684,1.587,0.715,2.419-1.125,2.925c-3.128,0.859-6.499-1.037-9.461-2.256c-0.769,0.453-1.625,0.835-2.215,1.166
	c-1.876,1.052-3.882,2.227-5.996,2.728c-1.265,0.3-3.093,0.729-2.745-1.14c0.465-2.497,1.532-4.903,2.479-7.247
	C156.627,264.634,156.628,264.633,156.629,264.632z M156.868,272.127C156.702,272.126,156.651,272.19,156.868,272.127
	L156.868,272.127z M153.301,258.208C153.127,258.251,153.191,258.255,153.301,258.208L153.301,258.208z M159.397,263.666
	c0.088,0.068,0.059,0.168-0.046,0.279c0.104,0.036,0.159,0.088,0.13,0.161c-0.671,1.659-1.346,3.325-1.889,5.031
	c-0.251,0.791-0.665,1.76-0.619,2.605c0.004,0.076-0.005,0.232,0.04,0.335c0.021-0.008,0.035-0.012,0.059-0.021
	c1.476-0.574,2.88-1.366,4.245-2.163c0.582-0.34,2.21-1.168,2.406-1.455c0.174-0.255,0.634-0.428,1.134-0.531
	c0.59-0.23,1.28-0.39,1.568-0.288c1.311,0.461,2.585,1.019,3.881,1.517c0.858,0.33,1.86,0.791,2.855,1.074
	c-0.068-0.212-0.133-0.424-0.221-0.629c-0.336-0.78-0.712-1.542-1.117-2.289c-0.708-1.309-1.458-2.593-2.221-3.87
	c-0.073-0.123,0.197-0.333,0.597-0.53c0.024-0.029,0.04-0.056,0.068-0.086c1.004-1.061,2.061-2.075,3.021-3.178
	c0.504-0.579,1.032-1.171,1.407-1.847c0.201-0.362,0.21-0.85,0.501-0.775c-2.286-0.583-5.216,0.126-7.525,0.391
	c-1.065,0.122-1.316-0.354-1.096-0.849c-0.499-1.266-0.956-2.55-1.515-3.792c-0.283-0.627-0.583-1.262-0.947-1.852
	c-0.878,1.847-1.448,3.906-2.071,5.801c-0.079,0.239-0.454,0.431-0.906,0.563c-0.421,0.206-0.909,0.375-1.19,0.386
	c-1.375,0.057-2.752,0.117-4.124,0.236c-0.747,0.064-1.499,0.124-2.237,0.257c-0.031,0.006-0.046,0.009-0.073,0.015
	c0.004,0.081,0.017,0.161,0.049,0.239C154.517,260.661,157.531,262.225,159.397,263.666z M390.498,346.289
	c2.316-1.372,5.49-1.453,8.304-1.511c0.543-1.65,1.101-3.303,1.798-4.893c0.631-1.437,1.147-2.443,2.737-2.88
	c1.75-0.48,2.589,0.432,3.353,1.914c0.798,1.548,1.393,3.179,2.024,4.797c1.514-0.162,3.03-0.306,4.553-0.358
	c1.093-0.038,3.023-0.27,3.845,0.67c1.517,1.736-3.478,6.068-4.899,7.458c1.022,1.7,2.061,3.421,2.845,5.24
	c0.684,1.587,0.715,2.419-1.125,2.925c-3.128,0.859-6.499-1.037-9.461-2.256c-0.769,0.453-1.625,0.835-2.215,1.166
	c-1.876,1.052-3.882,2.227-5.996,2.728c-1.265,0.3-3.093,0.729-2.745-1.14c0.465-2.497,1.532-4.903,2.479-7.247
	c0-0.001,0.001-0.002,0.002-0.003C394.947,352.105,388.152,347.678,390.498,346.289z M396.235,360.394
	C396.069,360.393,396.018,360.457,396.235,360.394L396.235,360.394z M392.954,346.416c-0.031,0.006-0.046,0.009-0.073,0.015
	c0.004,0.081,0.017,0.161,0.049,0.239c0.954,2.258,3.968,3.822,5.834,5.263c0.088,0.068,0.059,0.168-0.046,0.279
	c0.104,0.036,0.159,0.088,0.13,0.161c-0.671,1.659-1.346,3.325-1.889,5.031c-0.251,0.791-0.665,1.76-0.619,2.605
	c0.004,0.076-0.005,0.232,0.04,0.335c0.021-0.008,0.035-0.012,0.059-0.021c1.476-0.574,2.88-1.366,4.245-2.163
	c0.582-0.34,2.21-1.168,2.406-1.455c0.174-0.255,0.634-0.428,1.134-0.531c0.59-0.23,1.28-0.39,1.568-0.288
	c1.311,0.461,2.585,1.019,3.881,1.517c0.858,0.33,1.86,0.791,2.855,1.074c-0.068-0.212-0.133-0.424-0.221-0.629
	c-0.336-0.78-0.712-1.542-1.117-2.289c-0.708-1.309-1.458-2.593-2.221-3.87c-0.073-0.123,0.197-0.333,0.597-0.53
	c0.024-0.029,0.04-0.056,0.068-0.086c1.004-1.061,2.061-2.075,3.021-3.178c0.504-0.579,1.032-1.171,1.407-1.847
	c0.201-0.362,0.21-0.85,0.501-0.775c-2.286-0.583-5.216,0.126-7.525,0.391c-1.065,0.122-1.316-0.354-1.096-0.849
	c-0.499-1.266-0.956-2.55-1.515-3.792c-0.283-0.627-0.583-1.262-0.947-1.852c-0.878,1.847-1.448,3.906-2.071,5.801
	c-0.079,0.239-0.454,0.431-0.906,0.563c-0.421,0.206-0.909,0.375-1.19,0.386c-1.375,0.057-2.752,0.117-4.124,0.236
	C394.445,346.223,393.693,346.282,392.954,346.416z M392.668,346.475C392.494,346.518,392.558,346.522,392.668,346.475
	L392.668,346.475z" fill="#0a1230"></path>
</svg>