<?xml version="1.0" standalone="no"?>
<svg version="1.1" id="Layer_1" xmlns="http://www.w3.org/2000/svg" xmlns:xlink="http://www.w3.org/1999/xlink" x="0px" y="0px" width="595.28px" height="595.28px" viewBox="0 0 595.28 595.28" enable-background="new 0 0 595.28 595.28" xml:space="preserve">
<path id="color_x5F_2" fill="#6c63ff" d="M235.225,351.25l-0.658-0.932c0,0,1.304,0.374,3.429,1.21
	c-0.4,0.02-0.787,0.043-1.158,0.068c-0.384,0.026-0.711,0.166-0.962,0.36C235.655,351.721,235.438,351.486,235.225,351.25z
	 M268.066,392.355c1.033,9.167-1.726,19.572-3.261,28.437c-3.443,19.88-5.562,39.962-9.03,59.839
	c-0.12,0.684,1.294,0.624,2.187,0.222c-0.136,1.25-0.264,2.434-0.381,3.53h-122.78l1.604-3.292c0.406-0.13,0.762-0.345,0.919-0.637
	c10.886-20.207,21.824-40.391,30.722-61.576c5.076-12.085,10.339-26.707,20.734-34.622c2.578-1.526,5.213-2.942,7.326-4.034
	c2.749-1.002,5.778-1.611,9.148-1.72c0.463-0.015,0.848-0.196,1.115-0.439h0.395c0.367,0.634,0.936,1.238,1.764,1.789
	c0.825,0.549,3.494-0.644,2.295-1.441c-4.033-2.682-0.008-7.262,3.141-9.248l0.459-0.172c0.76,1.704,1.322,3.608,1.889,5.139
	c-0.022,0.005-0.046,0.011-0.068,0.016c-1.762,0.408-1.357,1.833,0.383,1.431c0.122-0.028,0.252-0.059,0.375-0.087
	c0.621,0.327,2.083-0.098,2.543-0.601c7.966-1.92,17.346-4.751,22.074-11.488c1.482-0.989,1.486-0.992,1.486-0.992l-0.465-0.658
	c0.315-0.586,0.599-1.197,0.846-1.836c0.203-0.524-0.608-0.644-1.429-0.483c-1-2.054-2.78-3.94-4.6-5.819
	c1.887-0.094,3.812-0.076,5.596,0.167c0.923,0.457,1.889,0.957,2.896,1.516c3.791,2.104,4.58,6.448,4.306,10.089
	c-0.501,1.81-1.206,3.56-1.911,5.309c-0.781,0.441-1.345,1.229-0.574,1.452c-0.181,0.467-0.359,0.934-0.525,1.405
	c-1.053,1.897-2.002,3.795-2.002,3.795s0.379-0.094,1.021-0.218c-0.057,0.346,0.079,0.583,0.321,0.723
	c-1.482,0.697,0.168,1.327,1.335,0.876c4.06-1.569,8.145-1.918,12.205-0.403c0.534,0.328,1.032,0.708,1.478,1.152
	C264.132,382.003,266.655,386.919,268.066,392.355z M198.878,424.491c2.585-2.068,5.173-4.139,8-5.87
	c0.466-0.285,0.8-0.967,0.205-1.315c-0.632-0.37-1.488-0.13-2.064,0.223c-2.828,1.731-5.416,3.802-8,5.87
	C195.481,424.629,197.872,425.296,198.878,424.491z M216.996,434.134c-4.874,7.387-11.311,13.982-17.853,19.882
	c-5.339,4.815-17.695,16.118-25.153,9.606c-1.042-0.91-3.518,0.605-2.215,1.742c7.323,6.395,18.05-0.98,24.155-5.604
	c8.851-6.703,17.385-15.38,23.517-24.673C220.478,433.526,217.781,432.944,216.996,434.134z M208.529,371.339l-2.411,1.033
	l0.715,1.429C207.241,372.952,207.834,372.119,208.529,371.339z M249.195,376.871c-0.005,0.025-0.017,0.047-0.023,0.071
	c0.414-0.124,0.837-0.24,1.264-0.349c-0.416,0.027-0.818,0.061-1.202,0.1C249.222,376.753,249.206,376.812,249.195,376.871z
	 M334.899,306.839c-0.016,0.022-0.032,0.047-0.049,0.069c-1.041,1.388-1.57,4.389-1.781,8.124c0.221-0.009,0.44-0.018,0.662-0.034
	C334.037,312.509,334.391,309.71,334.899,306.839z M358.243,258.617c-0.748,0.813-1.243,2.377-1.566,4.232
	c0.104-0.282,0.209-0.563,0.313-0.846C357.403,260.873,357.821,259.744,358.243,258.617z M333.626,315.971
	c-0.045,0.01-0.089,0.02-0.125,0.024c-0.16,0.02-0.319,0.031-0.479,0.047c-0.09,2.236-0.081,4.688-0.001,7.202
	C333.149,320.814,333.348,318.389,333.626,315.971z M430.577,250.007c0.757,0.31,1.514,0.622,2.274,0.931
	c-0.337,0.561-1.299,2.173-2.667,4.526c-8.604,12.176-16.408,25.081-21.917,38.928c-4.036,10.146-5.794,21.097-6.504,31.945
	c-1.072,16.386,0.215,44.604,20.685,47.735l1.457,4.729c-0.019,1.134-0.028,2.27-0.035,3.405
	c-5.795-0.466-10.621,0.776-14.599,3.229c-2.501,1.33-4.896,3.276-6.832,6.104c-0.327,0.478-0.638,0.992-0.938,1.527
	c-2.924,4.3-4.987,9.532-6.33,15.088c-5.686,23.519-1.619,48.944,0.471,72.653c0.078,0.891,1.304,0.911,2.137,0.429l0.264,3.148
	h-83.455c-0.117-0.984-0.255-2.155-0.405-3.442c0.453-0.23,0.782-0.567,0.724-0.96c-3.346-22.372,1.949-45.702,8.569-67.022
	c6.456-20.797,11.706-41.34,12.177-63.239c0.213-9.895-0.146-19.786,0.481-29.671c0.421-6.633,1.249-14.978,3.843-22.078
	c0.935-1.935,1.782-3.809,2.504-5.392c0.331-0.563,0.68-1.109,1.047-1.637c3.372-0.215,6.693-1.223,9.757-2.684
	c1.784-0.852,0.198-2.543-1.314-1.822c-2.077,0.991-4.256,1.724-6.484,2.074c0.073-0.078,0.139-0.166,0.214-0.243
	c2.573-2.646,4.672-5.66,6.488-8.85c2.197-2.503,3.996-4.52,3.996-4.52s-0.076-1.451-0.079-3.497c0.584-1.372,1.15-2.75,1.689-4.127
	c1.645-4.2,3.112-8.468,4.739-12.676c0.881-2.278,1.85-4.517,2.879-6.732c0.777-1.674,2.279-2.866,3.764-4.043
	c2.502-0.489,4.974-1.078,7.373-1.882c-5.918,11.132-12.107,22.116-16.368,34.023c-0.979,2.736-1.761,5.535-2.479,8.348
	c-0.273,1.071-1.742,4.804-0.955,5.752c0.742,0.894,2.882,0.999,3.896,1.21c6.437,1.342,12.958,2.319,19.438,3.417
	c1.01,0.171,2.018,0.346,3.026,0.52l11.49,3.152c0,0,0.114-0.215,0.323-0.609c0.348,0.35,1.337,0.286,2.055-0.059
	c0.569-0.219,0.991-0.612,0.872-1.05c1.977-6.249,4.515-12.245,7.444-18.047c2.727-4.918,5.367-9.553,7.082-12.247
	c1.25-1.966,2.546-4.111,3.784-6.222c2.673-4.024,5.462-7.974,8.312-11.866L430.577,250.007z M361.553,328.568
	c-1.113-4.435-2.429-8.659-6.696-10.964c-0.799-0.432-3.478,0.74-2.314,1.368c3.959,2.138,5.091,6.301,6.112,10.372
	C358.897,330.313,361.799,329.551,361.553,328.568z M360.362,289.055c0.458,0.11,0.922,0.195,1.383,0.295l-2.292-0.629
	C359.435,288.878,359.633,288.881,360.362,289.055z M379.569,240.782c-0.018,0.008-0.035,0.016-0.053,0.024
	c0.009,0.008,0.021,0.014,0.029,0.021C379.555,240.811,379.562,240.798,379.569,240.782z M364.689,271.326
	c1.305-3.186,2.864-6.646,4.489-10.081C367.555,264.553,366.036,267.907,364.689,271.326z M434.052,126.57
	c-4.114-1.387-8.117,0.534-9.032,4.894c-0.015,0.07-0.041,0.136-0.069,0.201c0.037,0,0.073,0,0.111,0
	c4.103-0.397,8.172,1.082,11.93,3.41C438.604,131.773,438.171,127.958,434.052,126.57z M411.005,114.009
	c0.642-0.676,1.359-1.279,2.15-1.801C412.304,112.569,411.595,113.203,411.005,114.009z M410.059,126.407
	c4.223,0.656,8.296,2.097,12.3,4.192c0.861-2.664,2.732-4.651,5.07-5.755c-0.006-0.042-0.019-0.079-0.021-0.124
	c-0.231-5.314-2.926-14.261-10.138-12.05c-5.834,1.789-7.975,8.141-7.212,13.704C410.06,126.385,410.058,126.396,410.059,126.407z
	 M463.604,131.216c-4.089-7.061-16.59-1.875-23.064-1.68c-0.009,0-0.015,0-0.023,0c0.536,2.157,0.041,4.648-1.353,6.996
	c3.921,2.833,7.412,6.417,10.119,9.439c0.991,1.107,1.915,2.271,2.769,3.482c0.306,0.07,0.628,0.148,0.969,0.239
	C458.542,146.335,467.079,137.213,463.604,131.216z M432.912,123.916c-1.699-0.872-2.36-0.617-2.618-0.283
	c0.01,0.115,0.019,0.229,0.025,0.343C431.163,123.854,432.031,123.828,432.912,123.916z M441.761,128.243
	c3.022-0.091,9.473-1.834,15.102-2c-5.884-0.675-14.467,0.721-17.27,1.227c0.282,0.421,0.521,0.862,0.696,1.328
	C440.741,128.514,441.391,128.254,441.761,128.243z M103.047,208.153c-0.002-6.85-0.003-13.699-0.004-20.548l-0.031-0.508
	c-15.347,9.616-30.44,18.817-48.342,22.453c-0.863,0.213-1.568,0.377-2.071,0.491c0.002,7.285,0.003,14.57,0.005,21.854
	C71.428,228.464,87.081,218.182,103.047,208.153z M52.604,233.838c0,0.054,0,0.108,0,0.163c0.491-0.133,1.086-0.298,1.771-0.492
	C53.79,233.63,53.194,233.729,52.604,233.838z M52.612,280.302c0.001,0.214,0.001,0.429,0.001,0.643
	c2.145-0.582,6.286-1.76,11.161-3.428C60.163,278.67,56.45,279.612,52.612,280.302z M103.056,255.098
	c-0.002-6.854-0.003-13.707-0.004-20.561l-0.031-0.502c-10.947,6.82-21.865,13.302-33.694,17.788
	c-6.629,2.767-14.212,4.597-16.718,5.163c0.001,7.125,0.003,14.249,0.004,21.373C71.417,275.026,87.107,265.098,103.056,255.098z
	 M103.064,302.045c-0.001-6.858-0.003-13.716-0.004-20.574l-0.032-0.524c-10.131,6.302-20.24,12.275-31.072,16.646
	c-7.104,3.422-16.492,5.695-19.339,6.338c0.002,7.246,0.003,14.491,0.005,21.736C71.576,322.427,87.08,312.094,103.064,302.045z
	 M52.622,327.89c0.779-0.211,1.82-0.501,3.066-0.865c-1.01,0.217-2.036,0.405-3.066,0.584
	C52.622,327.703,52.622,327.797,52.622,327.89z M103.036,327.87c-10.406,6.634-20.694,13.675-31.916,18.851
	c10.651-0.002,21.302-0.004,31.953-0.006c-0.001-6.099-0.003-12.197-0.004-18.295L103.036,327.87z M92.851,332.155
	c-5.623,3.034-12.256,6.796-16.19,9.659c-0.193,0.141-0.409,0.276-0.613,0.415C81.803,339.162,87.351,335.69,92.851,332.155z"></path>
<path id="color_x5F_1" d="M424.269,198.509c1.594-2.95,5.478-3.494,8.489-2.943c0.651,0.119-0.166,0.608-0.369,0.7
	c-0.587,0.267-1.37,0.503-2.021,0.384c-0.493-0.09-1.552-0.402-2.01-0.11c-0.563,0.359-0.924,0.86-1.237,1.438
	c-0.264,0.489-1.227,0.675-1.705,0.764C425.302,198.763,424.03,198.948,424.269,198.509z M410.626,182.774
	c1.664,0.032,2.213-2.095,0.254-2.133c-3.182-0.062-5.83-1.556-7.336-4.372c-0.615-1.15-3.375-0.072-2.652,1.279
	C402.861,181.233,406.619,182.697,410.626,182.774z M384.857,172.581c0.483-0.086,1.425-0.273,1.711-0.743
	c0.247-0.404-1.049-0.211-1.137-0.196c-2.196,0.394-4.36-0.302-5.772-2.052c-0.525-0.65-3.037,0.605-2.898,0.776
	C378.794,172.885,381.862,173.117,384.857,172.581z M384.902,179.154c-2.908,2.962-5.696,6.545-7.172,10.451
	c-1.704,4.511,1.854,5.753,5.725,5.496c0.759-0.05,3.168-1.295,1.254-1.168c-10.109,0.672-0.015-12.11,2.816-14.995
	C388.14,178.313,385.388,178.659,384.902,179.154z M379.938,200.635c-0.408-0.255-0.645-0.71-0.807-1.169
	c-0.477-1.345-3.364-0.54-2.898,0.776c0.313,0.88,0.789,1.658,1.596,2.162c0.884,0.552,1.915,0.652,2.932,0.665
	c0.642,0.008,1.515-0.495,1.593-1.187c0.087-0.77-0.767-0.97-1.347-0.978C380.642,200.9,380.225,200.813,379.938,200.635z
	 M553.65,283.752c-8.835,5.609-21.903,19.346-32.845,9.784c-0.761-0.665-1.473-1.363-2.152-2.081
	c-0.053,0.11-0.134,0.214-0.247,0.314c-1.249,6.943-2.675,13.902-5.012,20.554c-2.131,6.065-4.913,11.891-7.421,17.807
	c-4.472,10.55-9.279,21.332-18.337,28.767c-6.997,5.743-16.261,8.696-24.409,3.534c-9.218-5.84-15.225-15.41-21.675-23.948
	c-0.745-0.987,2.049-2.002,2.684-1.162c5.646,7.474,10.923,16.009,18.495,21.729c4.86,3.672,10.292,5.842,16.212,3.094
	c5.408-2.51,9.962-6.378,13.433-11.228c5.913-8.264,9.463-17.761,13.473-27.02c4.765-10.999,7.794-21.897,9.954-33.598
	c0.017-0.174,0.034-0.341,0.06-0.515c-0.134-0.047-0.263-0.106-0.377-0.192c-0.168-0.126-0.336-0.253-0.504-0.379
	c-0.465-0.35,0.113-0.852,0.875-1.135c-7.206-9.773-9.801-22.627-17.778-32.017c-1.751,0.319-3.546,0.338-5.266-0.008
	c-1.649-0.332,0.85-1.764,1.773-1.578c4.099,0.826,10.764-1.904,11.19-6.75c0.289-3.272-1.428-6.281-5.035-6.331
	c-2.202-0.03-4.68,0.435-7.023,1.328c0.035,0.157,0.084,0.308,0.117,0.466c0.168,0.789-2.592,1.483-2.875,0.825
	c-2.348,1.343-4.338,3.173-5.441,5.427c-5.76,11.773,9.525,12.79,11.659,21.213c0.517-0.042,0.933,0.039,0.931,0.274
	c-0.127,15.6-3.688,31.98-11.111,45.775c-1.988,3.695-4.861,10.879-9.634,11.642c-5.232,0.836-8.86-4.541-10.813-8.689
	c-3.428,3.238-7.199,6.055-10.411,8.297c-5.1,3.56-14.668,10.532-21.469,7.964c-0.273-0.103-0.218-0.273,0.008-0.452
	c-0.055-0.055-0.104-0.116-0.145-0.187c-0.769-1.337-1.49-2.684-2.188-4.036c-5.168,20.977-6.043,42.534-5.42,64.073
	c0.189,0.239,0.255,0.577,0.256,0.992c0,0.162-0.084,0.309-0.218,0.44c0.112,3.52,0.262,7.039,0.438,10.554
	c0.679,13.475,1.566,26.962,3.327,40.345c1.459,11.083,2.557,22.496,7.821,32.549c0.449,0.858-2.365,1.794-2.898,0.776
	c-5.803-11.081-6.883-24.135-8.292-36.376c-1.544-13.408-2.454-26.88-3.036-40.363c-0.115-2.664-0.207-5.328-0.284-7.993
	c-0.318-0.132-0.334-0.431-0.021-0.699c-0.102-3.697-0.164-7.395-0.165-11.089c-0.072,0.003-0.145,0.005-0.217-0.002
	c-17.867-1.868-24.63,15.237-26.768,30.061c-3.132,21.718-0.243,43.829,1.669,65.522c0.045,0.517-0.299,0.937-0.762,1.205
	c-0.833,0.482-2.059,0.462-2.137-0.429c-2.09-23.709-6.156-49.134-0.471-72.653c1.343-5.556,3.406-10.789,6.33-15.088
	c2.117-3.114,4.691-5.732,7.771-7.631c3.978-2.453,8.804-3.695,14.599-3.229c0.007-1.135,0.017-2.271,0.035-3.405
	c0.025-1.519,0.06-3.037,0.107-4.555c-0.53-0.046-1.057-0.097-1.564-0.174c-20.47-3.13-21.757-31.349-20.685-47.735
	c0.71-10.848,2.468-21.798,6.504-31.945c5.509-13.847,13.313-26.752,21.917-38.928c1.03-1.458,2.073-2.903,3.123-4.34
	c-0.152-0.063-0.304-0.124-0.456-0.186c-0.761-0.31-1.518-0.621-2.274-0.931c-0.617-0.253-1.236-0.506-1.848-0.763
	c-1.319-0.556-2.575-1.093-3.775-1.646c-0.162,0.221-0.324,0.443-0.486,0.665c-2.85,3.893-5.639,7.842-8.312,11.866
	c-3.96,5.964-7.649,12.099-10.866,18.469c-2.93,5.802-5.468,11.798-7.444,18.047c0.119,0.438-0.303,0.831-0.872,1.05
	c-0.718,0.344-1.707,0.408-2.055,0.059c-0.098-0.099-0.137-0.234-0.111-0.401c-0.641-0.022-3.884-0.739-4.705-0.894
	c-2.328-0.438-4.662-0.846-6.997-1.249c-1.009-0.173-2.017-0.349-3.026-0.52c-6.48-1.099-13.002-2.075-19.438-3.417
	c-1.014-0.211-3.153-0.316-3.896-1.21c-0.787-0.948,0.682-4.681,0.955-5.752c0.719-2.813,1.501-5.612,2.479-8.348
	c4.261-11.907,10.45-22.891,16.368-34.023c-2.399,0.804-4.871,1.393-7.373,1.882c-1.484,1.177-2.986,2.369-3.764,4.043
	c-1.029,2.216-1.998,4.454-2.879,6.732c-1.627,4.208-3.095,8.476-4.739,12.676c-0.539,1.377-1.105,2.755-1.689,4.127
	c-1.165,2.737-2.446,5.435-3.917,8.017c-1.816,3.19-3.915,6.204-6.488,8.85c-0.075,0.077-0.141,0.165-0.214,0.243
	c2.229-0.35,4.407-1.083,6.484-2.074c1.513-0.721,3.099,0.971,1.314,1.822c-3.063,1.461-6.385,2.469-9.757,2.684
	c-0.367,0.528-0.716,1.074-1.047,1.637c-0.98,1.67-1.807,3.483-2.504,5.392c-2.594,7.1-3.422,15.445-3.843,22.078
	c-0.627,9.885-0.269,19.776-0.481,29.671c-0.471,21.899-5.721,42.442-12.177,63.239c-6.62,21.32-11.915,44.65-8.569,67.022
	c0.059,0.393-0.271,0.73-0.724,0.96c-0.828,0.42-2.076,0.475-2.175-0.184c-3.369-22.536,1.887-45.979,8.566-67.449
	c6.642-21.35,11.991-42.493,12.203-64.996c0.068-7.234-0.125-14.521,0.11-21.776c-4.899,3.903-9.13,8.698-14.278,12.35
	c-4.688,3.324-10.568,7.112-16.583,6.374c-0.765,5.222-2.081,10.36-3.646,15.034c-1.895,5.665-4.643,9.832-8.82,12.18
	c2.659,0.802,5.063,2.351,6.909,4.926c4.579,6.382,5.85,14.656,6.246,22.332c1.398,27.076-5.072,53.929-9.055,80.533
	c-0.148,0.989-3.069,1.507-2.898,0.361c2.001-13.37,22.451-100.895-4.147-106.871c-0.423,0.134-0.863,0.247-1.31,0.351
	c-0.499,0.447-1.433,0.835-1.988,0.711c-0.396-0.089-0.8-0.158-1.2-0.235c-0.729,0.055-1.477,0.088-2.262,0.078
	c-0.825-0.011-0.899-0.267-0.645-0.557c-0.096-0.013-0.189-0.03-0.285-0.042c-0.141,0.035-0.272,0.057-0.414,0.095
	c-0.803,0.216-1.302,0.015-1.453-0.302c-3.895-0.392-7.862-0.499-11.678-0.754c-4.936-0.329-9.895-0.707-14.846-0.835
	c-0.536,1.446-1.008,2.912-1.301,4.43c-0.012,0.06-0.027,0.118-0.038,0.178c-0.005,0.025-0.017,0.047-0.023,0.071
	c0.414-0.124,0.837-0.24,1.264-0.349c5.028-1.277,10.877-1.389,14.86,2.015c7.556,6.457,5.914,18.23,4.688,26.979
	c-3.487,24.861-7.01,49.884-11.325,74.623c-0.045,0.254-0.327,0.477-0.696,0.643c-0.893,0.401-2.307,0.462-2.187-0.222
	c3.469-19.877,5.587-39.959,9.03-59.839c1.535-8.865,4.294-19.271,3.261-28.437c-0.067-0.6-0.15-1.194-0.252-1.783
	c-0.792-4.595-2.383-10.071-7.127-12.049c-0.188-0.079-0.376-0.13-0.563-0.201c-4.061-1.516-8.146-1.167-12.205,0.403
	c-1.167,0.451-2.817-0.18-1.335-0.876c-0.242-0.14-0.378-0.377-0.321-0.723c0.001-0.007,0-0.012,0.001-0.019
	c0.223-1.216,0.571-2.396,0.979-3.559c0.166-0.471,0.345-0.938,0.525-1.405c-0.771-0.223-0.207-1.011,0.574-1.452
	c0.705-1.749,1.41-3.499,1.911-5.309c0.201-0.728,0.379-1.462,0.495-2.215c0.982-6.377-2.826-8.726-7.696-9.39
	c-1.784-0.243-3.709-0.262-5.596-0.167c1.819,1.879,3.6,3.766,4.6,5.819c0.82-0.161,1.632-0.041,1.429,0.483
	c-0.247,0.64-0.53,1.25-0.846,1.836c-0.31,0.575-0.652,1.124-1.021,1.65c-4.729,6.737-14.108,9.568-22.074,11.488
	c-0.46,0.503-1.922,0.928-2.543,0.601c-0.123,0.029-0.253,0.059-0.375,0.087c-1.74,0.403-2.145-1.023-0.383-1.431
	c0.022-0.005,0.046-0.011,0.068-0.016c-0.566-1.531-1.129-3.436-1.889-5.139c-0.012-0.027-0.025-0.054-0.037-0.082
	c-0.139,0.079-0.279,0.164-0.422,0.254c-3.148,1.986-7.174,6.566-3.141,9.248c1.199,0.797-1.47,1.99-2.295,1.441
	c-0.828-0.551-1.396-1.154-1.764-1.789c-0.055-0.094-0.109-0.188-0.155-0.283c-0.063,0.1-0.143,0.195-0.239,0.283
	c-0.268,0.244-0.652,0.424-1.115,0.439c-3.37,0.109-6.399,0.718-9.148,1.72c-2.703,0.986-5.129,2.361-7.326,4.034
	c-10.396,7.916-15.658,22.537-20.734,34.622c-8.897,21.185-19.836,41.369-30.722,61.576c-0.157,0.292-0.513,0.507-0.919,0.637
	c-1.013,0.325-2.355,0.106-1.827-0.875c12.474-23.152,25.031-46.282,34.371-70.918c6.105-16.106,17.907-32.134,36.61-32.739
	c0.304-0.01,0.537,0.032,0.721,0.103c-0.125-0.938,0.096-1.909,0.553-2.861c0.408-0.85,1.001-1.682,1.696-2.462
	c1.502-1.685,3.475-3.117,5.087-3.912c-0.577-0.961-1.256-1.77-2.098-2.265c-5.921-3.481-13.549,0.593-19.978-0.207
	c-3.754-0.467-7.597-1.823-10.134-4.787c-5.51-6.437-5.856-15.593-5.488-23.657c0.426-9.308,2.372-18.63,4.893-27.581
	c1.855-6.591,4.313-12.787,9.732-17.142c-2.995-6.888-7.205-15.969-7.205-15.969s-5.338-12.802,11.732-13.872
	c17.072-1.07,31.36,0.812,43.213,6.926c16.539,8.532,25.561,24.483,25.082,44.273c-0.006,0.233-0.02,0.454-0.027,0.684
	c3.852-0.728,8.322-0.263,12.52,0.512c-2.098-11.183-0.174-23.144-4.025-33.922c-3.699-10.352-11.181-19.905-10.992-31.302
	c-6.789,3.467-15.322,3.543-18.645-3.568c-0.441,0.367-1.096,0.518-1.631,0.518c-0.177,0-0.359-0.001-0.542-0.002
	c-0.448,0.076-0.888,0.108-1.138,0.07c-0.317,0.045-0.629,0.11-0.918,0.243c-0.503,0.231-1.482,0.427-1.923-0.046
	c-0.462-0.497,0.408-1.032,0.765-1.195c1.286-0.589,2.696-0.722,4.096-0.75c-0.719-11.313,1.393-23.402,9.258-32.062
	c3.6-3.962,7.97-7.548,13.273-7.81c-1.496-2.377-2.216-6.272-2.697-7.9c-2.638-8.906-4.689-17.983-6.772-27.03
	c-2.04-8.86-4.892-17.751-6.578-26.662c-1.449-7.661-0.997-14.796,5.329-19.977c0.312-0.255,2.579-1.236,2.76-0.502
	c6.406,26.024,14.985,51.478,20.396,77.744c10.281-25.832,24.078-50.073,35.225-75.525c0.232-0.533,2.364-1.244,2.794-0.749
	c6.548,7.558,3.923,17.029-0.271,25.224c-4.1,8.009-7.503,16.401-11.262,24.574c-4.091,8.897-8.099,17.975-13.102,26.409
	c-0.797,1.344-2.181,4.023-3.958,5.61c3.995,0.555,7.078,2.688,9.287,5.725c18.118-2.495,6.9,29.285,4.684,37.396
	c-1.106,4.045-2.315,8.101-3.085,12.229c-1.001,5.37,0.006,10.842,0.754,16.201c1.213,8.693,2.196,17.561,3.833,26.181
	c0.493,2.6,0.963,6.309,2.861,8.336c2.729,2.914,6.535-4.233,7.725-6.225c-1.658-2.787-2.676-6.016-2.834-9.561
	c-0.13-0.156-0.151-0.356-0.017-0.594c-0.005-0.306-0.012-0.612-0.004-0.922c0.011-0.434,0.863-0.738,1.641-0.865
	c11.092-11.993,14.585-29.42,26.709-40.613c5.733-5.293,12.287-8.026,19.939-9.375c3.847-0.678,7.877-1.106,11.827-1.814
	c0.205-0.206,0.41-0.403,0.614-0.625c0.556-0.601,2.573-0.719,2.607-0.034c3.956-0.917,7.754-2.272,11.116-4.629
	c0.483-0.339,1.182-0.361,1.712-0.192c0.881-0.125,1.748,0.137,1.321,0.94c-4.328,8.147-7.818,24.877,5.973,26.167
	c12.803,1.198,19.195-12.12,20.01-22.926c0.03-0.399,0.41-0.717,0.886-0.908c-0.192-0.089-0.321-0.235-0.343-0.45
	c-1.07-11.019,1.726-26.215,9.863-34.306c0.477-0.474,1.705-0.91,2.32-0.443c3.61,2.74,6.387,2.793,8.298,1.466
	c1.069-1.249,1.961-2.738,2.647-4.087c1.415-4.932-0.401-11.745-5.698-11.484c-0.258,0.06-0.515,0.091-0.743,0.08
	c-0.58,0.095-1.193,0.266-1.848,0.53c-1.375,0.556-3.061-0.627-1.195-1.382c0.554-0.224,1.099-0.399,1.638-0.546
	c-5.734-8.668-14.415-16.303-23.554-21.07c-0.47-0.245-0.182-0.598,0.34-0.879c-0.05-0.03-0.084-0.065-0.084-0.112
	c-0.016-3.761-0.008-7.522-0.006-11.283c-1.43,0.955-2.877,1.918-4.063,3.104c-1.83,1.831-2.754,4.415-3.703,6.765
	c-0.085,0.211-0.295,0.39-0.56,0.534l-0.177,0.709l-0.893-0.365c-0.768,0.117-1.469-0.022-1.27-0.519l-0.69-0.282
	c-0.11-0.002-0.217-0.013-0.313-0.042c-4.101-1.237-7.903-3.006-11.93-3.999c-1.036,2.025-2.299,4.275-3.648,6.678
	c0.438,0.37-0.005,1.127-0.799,1.424c-7.824,13.971-17.479,32.396-2.627,41.857c4.459,2.841,10.154,4.804,13.701,8.873
	c4.025,4.616,2.951,10.091,0.598,15.286c-0.447,0.988-3.359,1.214-2.729-0.177c3.322-7.334,2.061-13.109-4.899-17.312
	c-4.64-2.801-10.351-4.958-13.856-9.278c-4.905-6.045-3.482-14.833-1.251-21.736c2.002-6.19,5.167-11.843,8.331-17.501
	c-4.864-0.842-7.482-5.69-8.137-10.688c-0.984-7.523,2.371-14.282,8.012-19.216c5.568-4.87,12.453-9.46,19.696-11.877
	c2.862-1.23,5.66-1.905,8.268-1.745c1.867-0.172,3.698-0.189,5.5-0.07c-0.339-4.471,1.019-8.987,3.948-12.073
	c0.642-0.676,1.359-1.279,2.15-1.801c1.346-0.887,2.892-1.544,4.658-1.865c8.311-1.508,11.921,6.344,12.48,13.29
	c0.01,0.115,0.019,0.229,0.025,0.343c0.844-0.122,1.712-0.148,2.593-0.061c0.661,0.065,1.328,0.186,1.993,0.377
	c2.211,0.637,3.745,1.768,4.688,3.176c0.282,0.421,0.521,0.862,0.696,1.328c0.452-0.284,1.102-0.544,1.472-0.555
	c3.022-0.091,9.473-1.834,15.102-2c4.771-0.14,8.951,0.854,9.943,4.959c1.724,7.131-5.779,15.475-12.033,19.013
	c1.293,0.429,2.707,1.004,4.129,1.762c13.357,1.784,19.439,16.269,19.035,29.963c0.146,2.053-0.018,4.059-0.598,5.951
	c-0.75,4.291-2.165,8.29-4.242,11.521c-1.238,1.926-4.996,7.16-8.93,13.414c-2.051,3.661-3.918,6.876-5.34,9.109
	c-5.493,10.258-8.857,20.434-1.734,22.383c0.293-0.051,0.584-0.1,0.879-0.153c0.754-0.138,1.292,0.14,1.531,0.531
	c0.071,0.032,0.09,0.076,0.064,0.129c0.221,0.528-0.063,1.192-1.051,1.373c-8.18,1.499-17.879,2.577-23.984-4.451
	c-4.719-5.432-7.67-13.943-6.435-21.267l-0.015-0.063c-3.647,1.874-7.596,2.997-11.798,2.842c-0.947,4.704-1.241,9.494-0.976,13.706
	c0.507-0.051,0.976,0.038,1.172,0.368c3.959,6.673,10.955,9.573,18.171,12.294c0.905-0.394,2.241-0.05,2.124,0.799
	c5.852,2.202,11.665,4.517,15.949,8.849c5.356,5.418,6.643,14.174,9.195,21.114c3.112,8.462,6.865,16.52,13.113,23.106
	c0.723-0.133,1.424-0.082,1.368,0.292c-0.791,5.336-4.279,10.287-8.53,14.573c0.638-0.149,1.274-0.133,1.439,0.227
	c1.276,2.784,3.049,5.959,5.808,7.55c3.676,2.121,6.324-4.169,7.562-6.36c2.747-4.866,5.07-9.971,6.838-15.277
	c3.311-9.938,5.319-20.28,5.63-30.754c-0.359-0.035-0.619-0.174-0.623-0.445c-0.121-8.721-13.737-9.301-13.103-18.845
	c0.375-5.615,4.369-9.527,9.17-11.94c-1.992-7.639-6.571-14.071-9.776-21.236c-2.351-5.255-4.897-11.606-1.525-16.934
	c5.263-8.316,19.021-9.661,27.498-12.401c1.166-0.377,3.005,0.191,1.047,0.824c-7.765,2.51-24.386,4.122-26.917,13.581
	c-1.642,6.133,2.101,13.103,4.899,18.364c2.87,5.395,5.937,10.697,7.546,16.602c1.256-0.466,2.528-0.845,3.774-1.129
	c3.922-0.894,10.843,0.12,11.816,4.346c3.144-1.748,6.129-3.75,9.222-5.565c-3.601,0.289-7.272,0.453-10.818-0.05
	c-1.298-0.184-3.59-0.43-4.263-1.796c-0.756-1.536,1.282-3.185,2.324-3.965c0.151-0.114,0.307-0.215,0.46-0.322
	c-2.909,0.28-6.329-0.335-4.047-4.008c0.872-1.404,1.917-2.586,3.108-3.611c-0.954,0.229-1.913,0.43-2.878,0.572
	c-3.012,0.447-7.22,0.05-4.75-3.925c1.671-2.69,3.964-4.581,6.747-6.064c2.454-1.308,5.575-2.958,8.457-2.814
	c2.327,0.115,5.376,1.439,6.062,3.929c0.363,1.316-0.006,2.334-0.737,3.123c2.176,0.342,4.647,1.629,5.256,3.841
	c0.652,2.366-1.052,3.771-2.995,4.609c-0.111,0.063-0.237,0.128-0.398,0.192c-0.275,0.11-0.555,0.22-0.833,0.33
	c1.383-0.001,2.736,0.193,3.92,0.785c1.837,0.918,3.911,3.545,3.303,5.746c-0.021,0.073-0.06,0.128-0.083,0.198
	c0.398,0.042,0.497,0.186-0.203,0.487c-0.825,1.604-2.693,2.224-4.483,2.438c-0.115,0.03-0.232,0.056-0.354,0.066
	c-0.063,0.006-0.126,0.011-0.188,0.017c-3.62,2.075-7.05,4.485-10.758,6.436c-0.152,0.08-0.534,0.169-0.955,0.236
	c0.027,0.881-0.175,1.878-0.677,3.004c-1.394,3.126-4.133,5.477-7.315,6.768c7.498,9.114,9.9,21.034,16.629,30.604
	c0.355,0.506,0.723,0.992,1.097,1.466c0.042,0.023,0.084,0.046,0.118,0.077c0.092,0.071,0.152,0.166,0.176,0.284
	c4.678,5.759,10.711,8.829,18.12,4.665c5.128-2.882,9.529-6.815,14.484-9.961C552.941,281.538,555.304,282.702,553.65,283.752z
	 M506.705,223.334c0.723-0.22,1.435-0.474,2.149-0.716c1.809-0.961,3.941-2.055,6.071-2.486c1.555-1.332,0.767-3.538-1.185-4.769
	c-2.637-1.663-5.463-0.254-7.926,1.138c-2.089,1.182-3.902,2.461-5.267,4.468c-0.374,0.55-1.718,2.332-1.008,3.085
	C500.928,225.526,505.149,223.808,506.705,223.334z M509.803,230.765c0.438-0.143,0.813-0.27,1.135-0.374
	c0.253-0.081,0.499-0.178,0.758-0.25c2.042-0.638,4.053-1.367,6.045-2.146c0.124-0.071,0.274-0.142,0.473-0.211
	c3.07-1.083,2.393-3.977,0.047-5.457c-0.909-0.574-1.842-0.776-2.773-0.745c-0.089,0.045-0.188,0.09-0.302,0.136
	c-1.743,0.694-3.523,1.394-5.328,2.027c-1.886,1.108-3.529,2.338-4.788,4.189c-0.374,0.55-1.718,2.331-1.008,3.085
	C505.132,232.153,507.885,231.391,509.803,230.765z M521.056,237.328c0.064-0.017,0.126-0.029,0.185-0.038
	c0.587-0.3,1.183-0.583,1.784-0.855c0.651-1.176-0.275-3.271-1.218-4.221c-1.83-1.844-4.081-1.851-6.538-1.479
	c-0.653,0.099-1.313,0.21-1.969,0.345c-0.988,0.328-1.985,0.625-2.988,0.89c-0.759,0.316-1.487,0.701-2.154,1.201
	c-0.66,0.494-2.623,1.736-2.301,2.827c0.612,2.071,5.83,1.705,7.394,1.704C515.856,237.698,518.46,237.554,521.056,237.328z
	 M414.489,239.506c-0.022,0.009-0.045,0.019-0.066,0.027c0.047,0.019,0.091,0.041,0.133,0.065
	C414.533,239.567,414.511,239.537,414.489,239.506z M464.567,156.319c1.978,2.048,4.427,5.034,6.692,8.51
	C469.619,161.443,467.41,158.46,464.567,156.319z M439.164,136.532c3.921,2.833,7.412,6.417,10.119,9.439
	c0.991,1.107,1.915,2.271,2.769,3.482c0.306,0.07,0.628,0.148,0.969,0.239c5.521-3.357,14.059-12.479,10.584-18.476
	c-4.089-7.061-16.59-1.875-23.064-1.68c-0.009,0-0.015,0-0.023,0C441.053,131.693,440.558,134.184,439.164,136.532z M425.02,131.464
	c-0.015,0.07-0.041,0.136-0.069,0.201c0.037,0,0.073,0,0.111,0c4.103-0.397,8.172,1.082,11.93,3.41
	c1.612-3.302,1.18-7.116-2.939-8.504C429.938,125.183,425.935,127.104,425.02,131.464z M410.059,126.374
	c0.001,0.011-0.001,0.022,0,0.034c4.223,0.656,8.296,2.097,12.3,4.192c0.861-2.664,2.732-4.651,5.07-5.755
	c-0.006-0.042-0.019-0.079-0.021-0.124c-0.231-5.314-2.926-14.261-10.138-12.05C411.437,114.459,409.296,120.811,410.059,126.374z
	 M371.681,166.146c-0.362-0.474-0.736-0.984-1.113-1.529C370.894,165.179,371.265,165.692,371.681,166.146z M406.991,166.896
	l-0.037-0.194c-0.053,0.029-0.11,0.056-0.169,0.083C406.854,166.82,406.923,166.859,406.991,166.896z M431.568,188.582l-1.004-0.558
	c0.121,0.182,0.239,0.366,0.358,0.549C431.14,188.573,431.357,188.569,431.568,188.582z M265.214,243.218
	c0.176-0.239,0.576-0.426,1.023-0.539c5.884-7.622,7.641-17.382,6.87-27.27c-0.078-1.012,2.834-1.602,2.898-0.776
	c0.028,0.37,0.042,0.738,0.063,1.107c0.113-0.098,0.237-0.183,0.355-0.275c-0.273-0.117-0.391-0.338-0.186-0.695
	c1.738-3.019,5.59-6.194,9.144-3.712c3.49,2.438,5.409,7.047,6.284,11.146c0.482,0.201,0.715,0.61,0.227,1.138
	c0.722,4.282,0.447,9.624-3.6,12.279c-5.224,3.427-7.697-3.326-8.968-7.264c-0.134-0.417,0.301-0.8,0.872-1.031
	c-0.69-0.093-1.359-0.262-1.997-0.52c-2.069,4.675,0.095,10.539,3.972,13.729c6.296,5.183,11.721,0.502,12.98-6.597
	c1.618-9.108,0.232-26.398-12.38-26.256c-0.872,0.01-1.241-0.398-1.242-0.856c-0.005-0.001-0.009-0.001-0.013-0.003
	c-0.299-0.104-0.164-0.301,0.158-0.504c0.225-0.395,0.697-0.724,1.336-0.739c0.041-0.043,0.071-0.07,0.121-0.126
	c0.392-0.444,0.758-0.905,1.095-1.391c0.771-1.111,1.494-2.252,2.173-3.422c1.702-2.933,3.28-5.936,4.797-8.968
	c3.905-7.805,7.552-15.736,11.151-23.686c3.244-7.164,6.91-14.264,9.897-21.529c2.734-6.647,4.18-13.47,0.442-19.47
	c-11.476,25.679-25.431,50.223-35.47,76.541c-0.179,0.467-1.365,0.752-2.154,0.768c-0.692,0.157-1.38,0.164-1.436-0.122
	c-5.234-26.796-13.977-52.692-20.597-79.146c-4.57,5.642-3.987,13.262-1.974,20.357c2.094,7.377,3.823,14.82,5.544,22.294
	c1.882,8.174,3.724,16.372,5.971,24.455c0.843,3.031,1.684,6.092,2.829,9.026c0.402,1.03,0.798,2.104,1.383,3.048
	c0.359,0.582,1.002,0.914,0.691,1.092c0.008,0.016,0.01,0.033,0.016,0.048c1.242-0.129,0.684,0.507-0.143,0.873
	c-0.322,0.506-1.001,0.909-1.712,0.767c-6.019-1.207-11.236,3.702-14.56,8.174c-5.765,7.76-7.587,17.118-7.334,26.577
	c0.225,0.074,0.391,0.207,0.44,0.418c0.105,0.442,0.232,0.854,0.37,1.253c2.678-0.133,5.398,0.915,7.539,2.935
	c0.365,0.345-2.216,1.45-2.738,0.957c-1.206-1.139-2.729-2.275-4.292-2.649C248.935,252.688,260.175,250.112,265.214,243.218z
	 M275.673,225.997c0.056-0.107,0.1-0.217,0.16-0.323c0.051-0.089,0.122-0.168,0.201-0.243c-0.086-0.079-0.175-0.151-0.258-0.234
	C275.742,225.463,275.712,225.731,275.673,225.997z M277.485,222.826c2.955,4.024,7.809,2.765,11.333,0.324
	c-0.067-0.288-0.137-0.575-0.213-0.857c-0.781-2.898-1.891-6.006-3.902-8.297c-0.154-0.176-0.305-0.336-0.453-0.485
	c0.101,0.434-0.222,0.94-1.108,1.113c-2.253,0.439-5.018,1.233-6.105,3.492C276.304,219.635,276.483,221.461,277.485,222.826z
	 M282.669,212.861c0.35-0.068,0.633-0.038,0.877,0.03c-1.47-1.115-2.66-0.781-3.851,0.796
	C280.667,213.329,281.674,213.055,282.669,212.861z M289.198,225.206c-2.122,1.19-4.64,2.071-7.068,2.198
	c0.041,0.051,0.073,0.109,0.095,0.175c0.694,2.152,1.411,4.998,3.113,6.61c1.596,1.51,3.196-2.004,3.578-3.337
	C289.438,229.033,289.454,227.099,289.198,225.206z M215.313,365.071c1.854,2.437,2.75,5.538,3.912,8.378
	c7.836-1.864,17.165-4.637,20.815-11.984c-0.243-0.077-0.437-0.218-0.521-0.446c-2.928-7.895-16.777-13.822-7.023-22.194
	c2.815-2.417,6.904-2.057,9.793-4.158c7.725-5.619-3.507-20.531-9.395-12.02c-0.584,0.844-3.523,1.026-2.719-0.137
	c2.438-3.523,6.277-4.686,10.004-3.739c5.295-13.296-2.134-23.776-13.155-28.986c-7.419-1.939-14.708,1.196-21.278,4.702
	c-1.554,0.83-2.562,4.569-3.731,5.335c-4.858,3.175-8.537-0.531-8.537-0.531c0-0.485-0.934-2.837-2.231-5.872
	c-2.16,2.111-3.951,4.71-5.228,7.844c-3.047,7.481-4.771,15.892-6.014,23.845c-1.351,8.647-2.509,18.438,0.303,26.937
	c1.193,3.604,3.089,7.279,6.452,9.314c6.189,3.747,12.687,1.333,19.337,1.106C208.987,362.365,213.341,362.478,215.313,365.071z
	 M298.974,327.754c-1.783-7.217-7.21-7.985-13.721-9.545c-1.981-0.475-3.977-0.915-5.981-1.313
	c-0.545,0.651-2.589,1.072-2.772,0.371c-0.079-0.303-0.14-0.611-0.212-0.916c-1.594-0.271-3.19-0.516-4.795-0.694
	c-2.331-0.26-5.517-0.837-8.21-0.454c-1.154,20.12-11.647,24.621-11.647,24.621l-5.292-6.252c-0.237,0.329-0.495,0.645-0.799,0.926
	c-3.61,3.349-13.907,3.359-13.909,9.596c-0.001,2.644,1.6,4.942,3.59,7.157c0.213,0.236,0.431,0.471,0.65,0.707
	c0.251-0.194,0.578-0.334,0.962-0.36c0.371-0.025,0.758-0.048,1.158-0.068c6.229-0.309,15.596,0.23,15.895,8.183
	c0.145,3.853-1.289,7.273-2.653,10.726c5.456,0.122,10.926,0.542,16.362,0.923c4.071,0.285,8.29,0.413,12.412,0.907
	c0.825-0.163,1.654-0.288,2.485-0.368c-5.234-4.657,0.345-21.168,1.488-25.272c0.228-0.817,3.091-1.239,2.873-0.456
	c-1.196,4.296-7.766,23.771,0.104,25.576c0.182,0.042,0.236,0.117,0.202,0.212c0.129,0.018,0.256,0.041,0.384,0.062
	c2.87-1.335,4.983-3.748,6.461-7.271c1.489-3.553,2.579-7.28,3.418-11.037C299.249,345.538,301.023,336.047,298.974,327.754z
	 M332.978,324.171c0.015-0.309,0.026-0.618,0.043-0.926c0.129-2.431,0.327-4.856,0.605-7.274c-0.045,0.01-0.089,0.02-0.125,0.024
	c-0.16,0.02-0.319,0.031-0.479,0.047c-7.993,0.832-15.64-2.471-20.209-8.328c-2.129,3.337-4.927,6.897-9.044,6.808
	c-3.878-0.084-5.13-6.254-5.658-9.039c-1.715-9.032-2.864-18.308-4.068-27.425c-0.689-5.214-1.86-10.738-0.881-15.993
	c1.324-7.106,16.512-48.475,2.464-48.991c4.649,8.038,4.28,20.584-0.341,27.625c-6.896,10.507-20.319,0.772-20.796-9.258
	c-1.845,6.335-5.3,12.064-10.833,16.6c0.049,0.045,0.082,0.098,0.081,0.165c-0.255,11.657,7.624,20.779,10.995,31.436
	c3.617,11.44,1.703,23.715,4.315,35.344c1.976,0.432,3.831,0.881,5.444,1.242c7.229,1.616,15.645,2.285,17.381,10.748
	c1.072,5.227,1.072,10.867,0.398,16.459c0.145-0.017,0.279-0.017,0.392,0.008c7.097,1.555,15.217-6.016,20.11-10.245
	c3.376-2.918,6.479-6.363,10.105-8.97C332.908,324.208,332.944,324.191,332.978,324.171z M358.243,258.617
	c1.166-3.113,2.377-6.206,3.727-9.248c0.97-2.186,2.334-3.581,3.835-4.938c-10.322,1.746-20.814,2.774-28.462,11.4
	c-10.611,11.969-14.521,28.455-25.893,39.818c0.751,11.177,10.369,19.865,21.619,19.382c0.221-0.009,0.44-0.018,0.662-0.034
	c0.306-2.489,0.659-5.288,1.168-8.159c1.009-5.685,2.638-11.62,5.705-15.921c-0.781-0.065-1.561-0.163-2.337-0.331
	c-1.919-0.414-0.513-2.529,0.977-2.208c1.057,0.228,2.112,0.338,3.161,0.355c7.05-7.312,10.813-16.502,14.271-25.885
	c0.104-0.282,0.209-0.563,0.313-0.846C357.403,260.873,357.821,259.744,358.243,258.617z M422.848,246.567
	c-3.097-1.614-5.749-3.533-7.969-6.517c0.011,0.061,0.019,0.123,0.013,0.193c-0.93,12.331-9.568,27.088-23.992,25.095
	c-13.811-1.909-13.252-15.642-8.835-25.763c-0.817,0.443-1.651,0.839-2.495,1.206c-0.018,0.008-0.035,0.016-0.053,0.024
	c0.009,0.008,0.021,0.014,0.029,0.021c0.178,0.16,0.225,0.402,0.047,0.738c-3.457,6.518-7.139,13.011-10.414,19.68
	c-1.624,3.308-3.143,6.662-4.489,10.081c-0.776,1.972-1.501,3.964-2.146,5.985c-1.065,3.343-2.047,6.727-2.696,10.18
	c-0.146,0.771-0.376,1.076-0.395,1.23c-0.019,0.157,0.18,0.159,0.909,0.333c0.458,0.11,0.922,0.195,1.383,0.295
	c1.873,0.407,3.758,0.761,5.643,1.097c6.83,1.215,13.682,2.306,20.512,3.52c1.244,0.222,5.078,0.39,7.627,1.156
	c5.944-17.725,16.167-33.463,27.208-48.437C422.766,246.645,422.807,246.606,422.848,246.567z M473.321,305.412
	c-0.166-0.034-0.31-0.094-0.408-0.194c-6.284-6.374-10.286-14.255-13.353-22.59c-2.665-7.244-4.095-17.818-10.315-22.949
	c-4.019-3.314-8.74-5.549-13.545-7.563c-15.529,21.268-28.606,44.278-30.769,70.954c-1.269,15.652-1.581,46.18,19.169,48.891
	c0.596-14.979,2.412-29.856,6.414-44.442c-5.513-11.867-8.461-24.336-9.453-37.663c-0.105-1.429,2.797-2.133,2.898-0.776
	c0.952,12.788,3.667,24.78,8.797,36.214c0.625-0.033,1.128,0.15,0.992,0.63c-0.092,0.322-0.168,0.646-0.258,0.968
	c1.124,2.388,2.346,4.753,3.691,7.095c0.172,0.3,0.162,0.586,0.046,0.84c3.544,1.183,8.189-1.677,11.121-3.405
	c4.169-2.457,8.145-5.27,11.78-8.468C465.324,318.383,471.729,312.505,473.321,305.412z M531.095,288.53
	c6.581-3.136,12.553-7.433,19.402-10.005c1.939-0.729,0.088-0.972-0.979-0.571c-7.1,2.667-13.258,7.025-20.072,10.272
	C527.724,289.047,530.453,288.836,531.095,288.53z M527.895,284.264c6.581-3.136,12.552-7.433,19.401-10.006
	c1.939-0.729,0.088-0.972-0.979-0.571c-7.1,2.667-13.258,7.026-20.071,10.273C524.522,284.78,527.253,284.569,527.895,284.264z
	 M524.692,279.997c6.58-3.136,12.552-7.435,19.401-10.007c1.94-0.729,0.089-0.972-0.979-0.571
	c-7.1,2.667-13.258,7.026-20.071,10.274C521.321,280.514,524.051,280.303,524.692,279.997z M521.491,275.729
	c6.58-3.136,12.552-7.434,19.401-10.006c1.94-0.729,0.089-0.972-0.979-0.571c-7.1,2.667-13.258,7.025-20.071,10.273
	C518.12,276.246,520.85,276.035,521.491,275.729z M518.288,271.463c6.581-3.137,12.554-7.434,19.403-10.007
	c1.94-0.729,0.089-0.972-0.979-0.571c-7.101,2.667-13.259,7.026-20.073,10.274C514.917,271.979,517.646,271.769,518.288,271.463z
	 M513.438,266.891c-1.723,0.821,1.007,0.61,1.648,0.305c6.581-3.136,12.553-7.433,19.401-10.006c1.94-0.729,0.089-0.972-0.979-0.571
	C526.41,259.285,520.253,263.644,513.438,266.891z M511.837,262.09c-1.723,0.821,1.007,0.61,1.648,0.305
	c6.581-3.136,12.553-7.434,19.402-10.006c1.939-0.729,0.088-0.972-0.979-0.571C524.81,254.484,518.651,258.843,511.837,262.09z
	 M511.884,255.993c6.58-3.136,12.553-7.433,19.401-10.006c1.939-0.729,0.089-0.972-0.979-0.571
	c-7.099,2.667-13.257,7.026-20.071,10.273C508.513,256.51,511.242,256.299,511.884,255.993z M509.749,250.659
	c6.58-3.136,12.552-7.434,19.401-10.006c1.94-0.729,0.089-0.972-0.979-0.571c-7.1,2.667-13.258,7.025-20.071,10.273
	C506.378,251.176,509.107,250.965,509.749,250.659z M487.566,205.349c6.969-1.626,13.603-4.478,20.712-5.511
	c0.687-0.1,3.154-1.361,1.275-1.088c-7.637,1.109-14.721,4.046-22.204,5.792C485.647,204.939,485.881,205.742,487.566,205.349z
	 M491.095,210.793c6.969-1.626,13.604-4.477,20.712-5.511c0.687-0.1,3.154-1.361,1.275-1.088c-7.637,1.11-14.721,4.046-22.204,5.792
	C489.176,210.384,489.409,211.186,491.095,210.793z M492.697,215.594c6.968-1.625,13.601-4.478,20.709-5.511
	c0.687-0.1,3.154-1.361,1.275-1.088c-7.636,1.109-14.719,4.047-22.201,5.792C490.778,215.185,491.012,215.987,492.697,215.594z
	 M264.498,237.038c-2.275,3.784-7.033,9.916-12.318,7.543c-10.574-4.746-2.487-22.801,4.771-30.35
	c0.201-0.246,0.406-0.485,0.615-0.705c0.082-0.086,0.201-0.163,0.344-0.229c0.689-0.634,1.364-1.169,2.005-1.566
	c0.101-0.062,0.213-0.108,0.331-0.146c0.109-0.159,0.273-0.301,0.429-0.381c2.437-1.258,7.511-3.263,9.568-0.189
	c1.309,1.955,0.927,4.433-0.138,6.495c0.01,0.038,0.023,0.072,0.026,0.115C270.538,224.061,267.771,231.597,264.498,237.038z
	 M260.99,231.286c2.283-1.044,6.218-6.895,1.48-7.03c-0.25-0.007-0.522-0.101-0.708-0.257c-1.59,0.403-3.212,0.378-4.679-0.359
	c-0.091-0.045-0.161-0.099-0.246-0.146c-0.013,0.009-0.021,0.017-0.034,0.025c-1.489,0.963-4.188,3.005-2.452,4.983
	c0.926,1.056,2.258,1.723,3.573,2.169c0.175,0.06,0.375,0.14,0.586,0.225c0.787-0.526,2.173-0.601,2.374,0.245
	c0.013,0.055,0.021,0.112,0.032,0.167C260.94,231.298,260.967,231.297,260.99,231.286z M258.185,232.995
	c-0.836-0.183-1.664-0.473-2.512-0.788c-0.662-0.247-1.411-0.558-2.113-0.951c-0.57,2.524-1.07,7.247,2.086,7.28
	c0.191,0.002,0.518-0.079,0.833-0.299c0.486-0.339,0.88-0.775,1.153-1.305C258.271,235.694,258.367,234.338,258.185,232.995z
	 M251.183,230.124c0.15-0.14,0.338-0.259,0.548-0.353c-0.083-0.107-0.171-0.213-0.241-0.328c-0.021-0.035-0.033-0.069-0.054-0.104
	C251.351,229.599,251.265,229.858,251.183,230.124z M266.595,223.345c0.172-0.772,0.31-1.496,0.415-2.157
	c-0.614,0.506-1.288,0.987-2.004,1.415C265.683,222.762,266.208,223.016,266.595,223.345z M262.335,212.077
	c0.09,0.238-0.037,0.529-0.536,0.838c-1.172,0.727-2.231,1.675-3.197,2.755c-1.308,2.148-2.142,5.116,0.441,6.415
	c2.847,1.431,6.132-1.121,7.666-3.464c1.067-1.63,2.022-3.999,1.143-5.929c-1.07-2.347-3.545-1.625-5.391-0.672
	C262.422,212.041,262.376,212.057,262.335,212.077z M253.878,223.221c0.361-0.271,0.727-0.524,1.076-0.751
	c0.124-0.08,0.27-0.141,0.427-0.185c-0.242-0.309-0.429-0.636-0.56-0.979C254.486,221.945,254.173,222.586,253.878,223.221z
	 M264.153,231.407c-0.912,0.782-1.916,1.372-2.887,1.608c-0.049,0.012-0.095,0.015-0.143,0.026c0.102,3.571-1.747,7.326-5.835,7.465
	c-4.087,0.14-5.173-3.161-5.003-6.481c-0.396,2.77-0.164,5.464,1.544,7.25C256.523,246.183,261.202,239.104,264.153,231.407z
	 M232.322,327.35c0.817-1.597,2.268-2.35,4.046-2.391c0.463-0.011,1.17,0.292,0.785,0.85c-0.345,0.5-1.013,0.703-1.612,0.763
	c-0.202,0.261-0.37,0.542-0.521,0.837C234.59,328.25,231.688,328.587,232.322,327.35z M235.241,326.6
	c0.03-0.001,0.046,0,0.061,0.002c0.01-0.003,0.02-0.007,0.032-0.011C235.304,326.593,235.271,326.599,235.241,326.6z
	 M208.618,317.998c-1.2,0-2.555,0.107-3.675-0.4c-0.641-0.29-1.481-0.101-2.056,0.258c-0.383,0.24-0.885,0.888-0.241,1.179
	c1.519,0.688,3.226,0.667,4.86,0.667c0.661,0,1.521-0.209,1.909-0.804C209.79,318.326,209.103,317.998,208.618,317.998z
	 M183.191,320.252c1.672,0.519,3.391,0.584,5.129,0.584c0.676,0,1.528-0.196,1.902-0.83c0.345-0.586-0.292-1.002-0.826-1.002
	c-1.522,0-3.007-0.026-4.473-0.48c-0.664-0.206-1.565,0.067-2.049,0.549C182.409,319.537,182.591,320.066,183.191,320.252z
	 M189.603,322.938c-2.022,4.255-5.6,7.21-8.362,10.935c-0.312,0.421-0.368,0.972,0.107,1.307c2.444,1.717,5.087,2.766,8.088,2.896
	c1.442,0.063,2.945-2.083,0.986-2.168c-2.273-0.098-4.232-0.772-6.105-1.944c2.782-3.53,6.099-6.516,8.067-10.658
	C193.106,321.785,190.174,321.736,189.603,322.938z M189.524,343.392c-0.573,0.042-1.596,0.457-1.596,1.177c0,0.533,0,1.067,0,1.601
	c0,0.728,0.698,1.008,1.342,0.96c0.573-0.042,1.596-0.457,1.596-1.177c0-0.533,0-1.067,0-1.601
	C190.866,343.624,190.168,343.344,189.524,343.392z M216.996,434.134c-4.874,7.387-11.311,13.982-17.853,19.882
	c-5.339,4.815-17.695,16.118-25.153,9.606c-1.042-0.91-3.518,0.605-2.215,1.742c7.323,6.395,18.05-0.98,24.155-5.604
	c8.851-6.703,17.385-15.38,23.517-24.673C220.478,433.526,217.781,432.944,216.996,434.134z M198.878,424.491
	c2.585-2.068,5.173-4.139,8-5.87c0.466-0.285,0.8-0.967,0.205-1.315c-0.632-0.37-1.488-0.13-2.064,0.223
	c-2.828,1.731-5.416,3.802-8,5.87C195.481,424.629,197.872,425.296,198.878,424.491z M113.658,347.731
	c0.77,5.742,1.887,12.949-0.286,18.531c-0.062,0.158-0.246,0.293-0.488,0.405c0.482,0.502-0.814,1.712-1.821,1.712
	c-3.526,0-7.052,0.001-10.578,0.002c0.921,5.077,1.477,10.136-1.337,14.778c-0.036,0.06-0.092,0.113-0.156,0.165
	c-0.312,0.512-1.118,1.061-1.796,1.061c-13.515,0.003-27.029,0.006-40.544,0.008c-0.586,0-0.836-0.174-0.872-0.415
	c-0.507,0.104-0.964,0.094-1.118-0.161c-2.936-4.84-2.167-10.149-1.181-15.427c-3.212,0.001-6.424,0.001-9.636,0.002
	c-0.661,0-0.895-0.221-0.874-0.512c-0.018-0.021-0.038-0.039-0.05-0.064c-2.864-6.376-1.415-13.414-0.98-20.096
	c0.042-0.641,1.744-0.975,2.519-0.926c0.146-0.042,0.293-0.069,0.434-0.069c1.611,0,3.224,0,4.835-0.001
	c-0.006-30.063-0.012-60.126-0.018-90.189c-0.089-0.167-0.082-0.379,0-0.598c-0.002-7.356-0.004-14.713-0.005-22.069
	c-0.09-0.168-0.083-0.383,0-0.604c-0.003-16.129-0.007-32.259-0.01-48.388c-1.962,0-3.925,0-5.887,0.001
	c-0.271,0-0.464-0.039-0.604-0.103c-0.662,0.121-1.279,0.106-1.295-0.117c-0.447-6.718-1.883-13.814,0.994-20.221
	c0.035-0.079,0.104-0.151,0.189-0.218c0.334-0.496,1.109-1.007,1.764-1.007c2.814,0,5.629-0.001,8.443-0.002
	c-0.921-5.077-1.476-10.136,1.338-14.779c0.213-0.352,0.966-0.561,1.646-0.643c0.387-0.326,0.91-0.583,1.373-0.583
	c13.515-0.003,27.029-0.006,40.544-0.008c0.669,0,0.9,0.226,0.873,0.522c0.017,0.018,0.038,0.033,0.051,0.054
	c2.936,4.84,2.166,10.149,1.181,15.428c3.923,0,7.846-0.001,11.769-0.002c1.177,0,1.016,0.694,0.427,1.25
	c0.426-0.046,0.772,0.003,0.854,0.216c2.149,5.525,1.031,12.716,0.271,18.405c-0.036,0.271-0.343,0.479-0.743,0.627
	c-0.255,0.54-1.131,1.168-1.856,1.168c-1.675,0-3.35,0.001-5.024,0.001c0,0.07-0.022,0.145-0.061,0.221
	c0.002,7.681,0.003,15.362,0.005,23.043c0.071,0.127,0.076,0.272,0,0.427c0.001,7.682,0.003,15.363,0.005,23.045
	c0.072,0.128,0.077,0.273,0,0.429c0.001,7.682,0.002,15.362,0.004,23.044c0.071,0.127,0.077,0.272,0,0.428
	c0.002,7.61,0.003,15.22,0.004,22.83c0.185,0.19,0.218,0.432,0.001,0.698c0.001,7.663,0.003,15.326,0.004,22.988
	c0.072,0.128,0.077,0.273,0,0.429c0.002,7.685,0.003,15.37,0.005,23.055c0.048,0.097,0.05,0.207,0,0.324
	c0.001,6.962,0.003,13.925,0.004,20.887c2.046,0,4.093,0,6.139-0.001c0.882,0,1.011,0.39,0.774,0.819
	C113.309,347.502,113.635,347.556,113.658,347.731z M71.12,346.721c10.651-0.002,21.302-0.004,31.953-0.006
	c-0.001-6.099-0.003-12.197-0.004-18.295c0-0.19,0-0.38,0-0.571c-0.011,0.007-0.021,0.014-0.033,0.021
	C92.63,334.504,82.342,341.544,71.12,346.721z M103.056,257.493c-8.138,5.092-16.228,10.045-24.693,14.129
	c-0.335,0.162-0.673,0.329-1.004,0.485c-0.07,0.033-0.145,0.063-0.215,0.097c-4.335,2.038-8.771,3.845-13.369,5.313
	c-3.611,1.153-7.324,2.095-11.162,2.785c0.001,0.214,0.001,0.429,0.001,0.643c0.001,6.785,0.003,13.57,0.004,20.354
	c18.725-3.292,34.53-12.81,50.442-22.762C103.059,271.522,103.058,264.508,103.056,257.493z M52.607,254.572
	c18.712-3.361,34.524-12.985,50.443-22.948c-0.001-7.023-0.002-14.048-0.004-21.071c-15.453,9.71-30.652,19.214-48.672,22.956
	c-0.585,0.122-1.181,0.221-1.771,0.33c0,0.054,0,0.108,0,0.163C52.605,240.857,52.606,247.715,52.607,254.572z M52.608,256.516
	c0,0.156,0,0.313,0,0.47c0.001,7.125,0.003,14.249,0.004,21.373c18.805-3.332,34.495-13.261,50.443-23.261
	c-0.002-6.854-0.003-13.707-0.004-20.561c0-0.174,0-0.348,0-0.521c-0.011,0.006-0.021,0.013-0.031,0.019
	c-10.947,6.82-21.865,13.302-33.694,17.788C63.972,253.853,58.424,255.458,52.608,256.516z M54.67,209.55
	c-0.685,0.139-1.378,0.26-2.071,0.383c0,0.036,0,0.072,0,0.108c0.002,7.285,0.003,14.57,0.005,21.854
	c18.824-3.431,34.478-13.713,50.443-23.742c-0.002-6.85-0.003-13.699-0.004-20.548c-0.001-0.176,0-0.352-0.001-0.528
	c-0.01,0.006-0.02,0.013-0.03,0.02C87.665,196.713,72.571,205.914,54.67,209.55z M52.622,325.667
	c18.954-3.24,34.458-13.573,50.442-23.622c-0.001-6.858-0.003-13.716-0.004-20.574c0-0.181,0-0.362,0-0.544
	c-0.011,0.007-0.021,0.014-0.032,0.02c-10.131,6.302-20.24,12.275-31.072,16.646c-6.163,2.487-12.566,4.443-19.339,5.65
	c0,0.229,0,0.458,0,0.688C52.619,311.176,52.62,318.421,52.622,325.667z M56.341,163.208c13.734-0.003,27.47-0.005,41.204-0.008
	c0.88-4.834,1.421-9.624-1-14.076c-13.234,0.002-26.47,0.005-39.704,0.008C54.718,153.603,55.44,158.41,56.341,163.208z
	 M110.849,182.936c0.748-5.532,1.646-12.26-0.393-17.497c-0.037-0.095,0.029-0.204,0.162-0.314
	c-21.785,0.004-43.569,0.009-65.354,0.014c-2.063,5.712-0.993,11.886-0.526,17.821c0.04-0.003,0.081-0.011,0.121-0.011
	C66.855,182.944,88.853,182.939,110.849,182.936z M52.594,184.875c0.002,7.705,0.003,15.41,0.005,23.114
	c18.742-3.258,34.293-13.173,50.149-23.124C86.03,184.868,69.312,184.872,52.594,184.875z M52.626,346.724
	c4.695-0.001,9.391-0.001,14.085-0.002c0.07-0.038,0.139-0.075,0.223-0.11c3.109-1.318,6.139-2.797,9.113-4.382
	c5.756-3.067,11.304-6.539,16.804-10.074c3.411-2.192,6.805-4.404,10.219-6.559c-0.002-7.05-0.003-14.101-0.004-21.151
	c-15.099,9.504-29.815,18.808-47.377,22.58c-1.01,0.217-2.036,0.405-3.066,0.584c0,0.094,0,0.188,0,0.281
	C52.624,334.168,52.625,340.446,52.626,346.724z M97.443,368.381c-13.734,0.002-27.469,0.005-41.203,0.008
	c-0.885,4.858-1.426,9.672,1.037,14.143c0.144-0.041,0.287-0.067,0.425-0.067c13.081-0.002,26.162-0.005,39.242-0.008
	C99.066,377.987,98.344,373.18,97.443,368.381z M110.632,366.451c1.944-5.377,0.886-12.313,0.146-17.811
	c-22.024,0.004-44.048,0.008-66.07,0.013c-0.504,5.962-1.435,12.132,0.878,17.811C67.269,366.459,88.95,366.455,110.632,366.451z
	 M205.413,218.048c6.791-3.604,10.851-9.969,12.078-17.484c0.046-0.282-2.757-0.088-2.898,0.776
	c-1.156,7.082-4.961,13.25-11.389,16.661C201.978,218.652,204.903,218.318,205.413,218.048z M159.884,238.985
	c-0.927-7.276-0.299-16.031,6.104-20.735c1.313-0.964-1.603-0.955-2.313-0.434c-6.83,5.017-7.687,14.124-6.69,21.945
	C157.104,240.694,160.018,240.041,159.884,238.985z M185.763,201.053c-0.186,1.545,2.778,1.187,2.943-0.191
	c0.908-7.579-1.271-14.235-6.555-19.76c-0.953-0.997-3.689,0.213-2.645,1.306C184.527,187.656,186.629,193.825,185.763,201.053z
	 M319.698,255.439c-6.994,1.242-13.544,3.506-19.229,7.863c-1.564,1.199,0.822,1.976,1.879,1.165
	c5.048-3.868,10.824-5.978,17.045-7.083C320.896,257.118,321.669,255.089,319.698,255.439z M327.062,235.309
	c-6.061-3.136-11.175-8.077-11.391-15.285c-0.045-1.512-2.972-1.05-2.934,0.228c0.233,7.809,5.436,13.276,12.086,16.717
	C325.928,237.54,328.479,236.042,327.062,235.309z M315.124,190.92c-1.121,1.454,1.629,1.839,2.416,0.819
	c2.785-3.609,6.306-6.749,10.785-7.98c1.779-0.489,1.265-2.425-0.52-1.935C322.61,183.253,318.375,186.708,315.124,190.92z
	 M332.798,212.251c3.388,0,6.832,0.012,10.1,1.014c0.72,0.221,3.32-0.91,2.359-1.204c-3.638-1.115-7.472-1.115-11.242-1.115
	C333.152,210.946,330.86,212.251,332.798,212.251z M275.097,162.142c0.001-2.675,0.07-5.108,2.008-7.146
	c0.468-0.492-0.403-0.606-0.715-0.59c-0.644,0.031-1.471,0.237-1.932,0.722c-2.124,2.236-2.258,4.852-2.26,7.791
	C272.198,163.527,275.096,163.068,275.097,162.142z M158.566,293.286c0.578,0.013,3.299-1.101,1.893-1.132
	c-4.606-0.102-7.911-2.899-9.102-7.289c-0.164-0.604-3.061,0.176-2.898,0.776C149.78,290.511,153.594,293.175,158.566,293.286z
	 M354.856,317.604c-0.799-0.432-3.478,0.74-2.314,1.368c3.959,2.138,5.091,6.301,6.112,10.372c0.243,0.968,3.145,0.207,2.898-0.776
	C360.439,324.133,359.124,319.909,354.856,317.604z M290.881,383.156c-12.185-3.911-13.519,20.086-14.216,26.828
	c-2.431,23.526-1.869,47.439-1.395,71.035c0.012,0.557,2.916,0.093,2.898-0.776c-0.413-20.491-0.453-40.968,0.659-61.438
	c0.227-4.181,1.988-36.953,9.684-34.483C289.199,384.542,291.794,383.449,290.881,383.156z M185.348,310.127
	c1.186-0.001,2.371-0.001,3.557-0.001c0.631,0,1.513-0.479,1.598-1.167c0.093-0.758-0.775-0.943-1.338-0.943
	c-1.186,0-2.371,0-3.557,0.001c-0.631,0-1.513,0.479-1.598,1.167C183.917,309.942,184.785,310.128,185.348,310.127z
	 M214.774,306.701c-3.056-0.707-6.117-0.781-9.24-0.782c-1.621,0-2.252,2.028-0.281,2.028c2.628,0,5.257,0.043,7.83,0.638
	c0.716,0.166,1.537,0.021,2.049-0.549C215.546,307.576,215.439,306.855,214.774,306.701z" fill="#0a1230"></path>
</svg>