<?xml version="1.0" standalone="no"?>
<svg version="1.1" id="Layer_1" xmlns="http://www.w3.org/2000/svg" xmlns:xlink="http://www.w3.org/1999/xlink" x="0px" y="0px" width="595.28px" height="595.28px" viewBox="0 0 595.28 595.28" enable-background="new 0 0 595.28 595.28" xml:space="preserve">
<path id="color_x5F_2" fill="#6c63ff" d="M450.927,339.707c0.982,0.007,1.965,0.016,2.946,0.021
	c-0.144,0.168-0.235,0.365-0.235,0.59c0,22.697,0,45.394,0,68.091c-1.278,0-2.556,0-3.833,0c0.063-0.121,0.103-0.251,0.103-0.395
	c0-16.89,0-33.779,0-50.669c0-0.302-0.117-0.523-0.302-0.681C450.409,351.043,451.137,345.296,450.927,339.707z M471.239,340.1
	c0,22.77,0,45.54,0,68.31c1.466,0,2.932,0,4.397,0c0-22.697,0-45.394,0-68.091c0-0.213,0.084-0.399,0.214-0.562
	c-1.559,0.005-3.118,0.003-4.677,0.004C471.212,339.861,471.239,339.971,471.239,340.1z M456.573,340.1c0,22.77,0,45.54,0,68.31
	c1.466,0,2.932,0,4.397,0c0-22.697,0-45.394,0-68.091c0-0.213,0.084-0.4,0.215-0.563c-1.563-0.004-3.125-0.011-4.688-0.017
	C456.542,339.845,456.573,339.961,456.573,340.1z M485.811,339.69c0.015,0.031,0.029,0.063,0.041,0.098
	c0.043-0.035,0.092-0.067,0.142-0.099C485.933,339.689,485.871,339.689,485.811,339.69z M463.843,339.765
	c0.037,0.101,0.063,0.208,0.063,0.335c0,22.77,0,45.54,0,68.31c1.466,0,2.932,0,4.397,0c0-22.697,0-45.394,0-68.091
	c0-0.21,0.082-0.395,0.209-0.556c-1.399,0-2.8,0.007-4.199,0.004C464.156,339.767,464,339.766,463.843,339.765z M502.402,369.596
	c-0.047,0.003-0.098,0.008-0.135,0.008c-1.025,0.003-2.05,0.006-3.075,0.01c0.019,0.074,0.03,0.154,0.03,0.242
	c0,12.72,0,25.439,0,38.159c0,0.144-0.04,0.273-0.104,0.395c1.102,0,2.203,0,3.305,0c-0.01-0.057-0.021-0.112-0.021-0.176
	C502.402,395.354,502.402,382.475,502.402,369.596z M478.572,340.1c0,22.77,0,45.54,0,68.31c1.466,0,2.932,0,4.397,0
	c0-22.697,0-45.394,0-68.091c0-0.232,0.097-0.437,0.249-0.608c-1.572,0.012-3.146,0.028-4.718,0.036
	C478.543,339.851,478.572,339.965,478.572,340.1z M427.306,362.934c-0.061-0.039-0.108-0.091-0.124-0.164
	c-1.575-7.363-2.216-14.987-1.99-22.504c0.014-0.439,0.641-0.766,1.308-0.932c0.001-0.008,0.002-0.013,0.003-0.021
	c-1.288-0.033-2.576-0.074-3.863-0.113c0,22.938,0,45.877,0,68.815c0,0.144-0.04,0.273-0.104,0.395c1.598,0,3.195,0,4.793,0
	c-0.01-0.057-0.022-0.112-0.022-0.176C427.306,393.134,427.306,378.033,427.306,362.934z M516.016,339.088
	c-1.574,0.054-3.15,0.084-4.725,0.131c0.161,3.385-0.038,6.831-0.398,10.277c-0.442,4.23-1.118,8.457-1.676,12.561
	c-0.042,0.31-0.443,0.533-0.89,0.68c-0.442,0.145-0.929,0.215-1.151,0.216c-0.623,0.003-1.246,0.007-1.869,0.01
	c-0.031,0.759-0.125,1.527-0.26,2.294c0.178,0.156,0.291,0.377,0.291,0.673c0,14.028,0,28.058,0,42.086
	c0,0.144-0.04,0.273-0.104,0.395c1.065,0,2.131,0,3.195,0c0.938,0,1.874,0,2.811,0c1.177,0,2.354,0,3.529,0c0.979,0,1.957,0,2.936,0
	c1.539,0,3.079,0,4.618,0c0-23.019,0-46.036,0-69.054c0-0.194,0.094-0.369,0.242-0.524
	C520.383,338.93,518.198,339.014,516.016,339.088z M433.845,369.628c-0.297,0.001-0.593,0.002-0.89,0.003
	c-0.243,0-0.738,0.029-0.844-0.277c-0.693-2.03-0.994-4.184-0.945-6.322c-0.309,0.001-0.617,0.003-0.925,0.004
	c0,14.993,0,29.986,0,44.979c0,0.144-0.04,0.273-0.103,0.395c1.242,0,2.485,0,3.729,0c-0.01-0.057-0.022-0.112-0.022-0.176
	C433.845,395.365,433.845,382.496,433.845,369.628z M489.605,363.041c-0.401,0.002-0.802,0.004-1.203,0.006
	c-0.209,0.001-0.777,0.03-0.844-0.277c-0.775-3.627-1.322-7.318-1.653-11.027c0,18.889,0,37.777,0,56.667c1.241,0,2.481,0,3.722,0
	c-0.01-0.057-0.021-0.112-0.021-0.176C489.605,393.169,489.605,378.105,489.605,363.041z M440.526,369.607
	c-1.249,0.004-2.497,0.008-3.746,0.012c0,12.798,0,25.597,0,38.396c0,0.144-0.04,0.273-0.103,0.395c1.29,0,2.58,0,3.871,0
	c-0.01-0.057-0.022-0.112-0.022-0.176C440.526,395.358,440.526,382.482,440.526,369.607z M446.972,362.941
	c-0.064,0.006-0.128,0.011-0.173,0.011c-0.623,0.003-1.246,0.007-1.869,0.01c-0.08,1.925-0.597,3.912-0.998,5.746
	c-0.045,0.203-0.23,0.364-0.47,0.496c0,12.937,0,25.873,0,38.811c0,0.144-0.04,0.273-0.103,0.395c1.211,0,2.423,0,3.635,0
	c-0.01-0.057-0.022-0.112-0.022-0.176C446.972,393.136,446.972,378.038,446.972,362.941z M496.418,369.621
	c-1.029,0.004-2.058,0.006-3.086,0.01c-0.221,0-0.635,0.012-0.791-0.213c0,12.865,0,25.73,0,38.597c0,0.144-0.04,0.273-0.104,0.395
	c1.291,0,2.581,0,3.871,0c-0.01-0.057-0.021-0.112-0.021-0.176c0-12.72,0-25.439,0-38.159
	C496.287,369.908,496.335,369.757,496.418,369.621z M419.703,339.112c-0.57-0.02-1.142-0.03-1.712-0.051
	c-1.017-0.036-2.033-0.075-3.051-0.115l-0.052,0.001c0,23.154,0,46.309,0,69.462c1.612,0,3.225,0,4.836,0
	c-0.01-0.057-0.021-0.112-0.021-0.176C419.703,385.193,419.703,362.152,419.703,339.112z M285.946,380.682
	c-2.071,0.637-4.182,1.119-6.325,1.432C281.668,382.09,283.812,381.549,285.946,380.682z M296.274,352.123
	c-3.179-15.137-4.545-32.002-13.933-44.895c-7.705-10.582-18.961-17.731-31.17-23.06c0.25,7.39,1.493,14.872,2.306,22.183
	c1.672,15.055,3.395,30.104,5.029,45.164c0.375,3.455,0.764,6.917,1.156,10.384c0.042-0.004,0.085-0.012,0.127-0.012
	c13.509-0.04,25.389-1.938,36.68-9.403C296.375,352.39,296.305,352.271,296.274,352.123z M259.88,363.824
	c0.596,5.245,1.194,10.5,1.771,15.763c13.322,3.501,27.517,1.95,37.596-8.149c0.862-0.865,3.321-2.859,3.347-4.117
	c0.1-4.892-0.392-10.266-2.913-14.565C287.43,361.376,274.537,363.673,259.88,363.824z M212.597,282.14
	c0.813,1.177,1.623,2.354,2.435,3.532c1.44-4.248,2.88-8.497,4.32-12.746c-0.162-2.441-0.06-4.843,0.277-7.215
	c-3.641,2.967-7.282,5.934-10.923,8.9c-0.398,0.324-0.683,0.634-0.9,0.957c0.096,0.032,0.181,0.07,0.241,0.12
	C209.883,277.204,211.255,280.199,212.597,282.14z M185.814,286.68c2.056-2.574,4.133-5.133,6.272-7.637
	c1.116-1.305,2.779-3.885,4.64-5.278c-0.237-0.179-0.532-0.381-0.91-0.636c-5.388-3.637-10.777-7.271-16.136-10.949
	c-0.57,2.953-1.246,5.88-1.952,8.754c-0.04,0.164-0.146,0.311-0.289,0.441c0.186,0.165,0.304,0.396,0.304,0.709
	C177.744,277.314,182.164,282.689,185.814,286.68z M234.383,278.041c-0.007-0.033-0.004-0.063-0.008-0.096
	c-4.28-1.368-8.533-2.609-12.661-3.783c-1.625,4.793-3.249,9.586-4.874,14.38c-0.258,0.761-2.231,1.569-2.794,0.748
	c-1.492-2.173-2.987-4.343-4.488-6.51c-0.851-1.229-1.717-2.905-2.724-4.294c-0.073,0.3-0.155,0.619-0.254,0.973
	c-1.066,3.785-2.137,7.57-3.242,11.346c-0.009,0.066-0.01,0.131-0.019,0.197c0,0.001,0,0.002,0,0.004
	c-1.009,14.966-2.018,29.933-3.028,44.898c1.483,0.012,2.969,0.011,4.456,0.002c-3.415-4.71-5.978-9.691-1.083-14.123
	c2.529-2.289,5.867-3.66,8.2-6.156c3.814-4.081,2.446-9.08,0.285-13.664c-0.238-0.505,2.556-1.502,2.897-0.777
	c1.998,4.236,3.4,8.85,0.518,12.989c-1.787,2.566-4.796,4.036-7.275,5.805c-3.974,2.835-5.64,7.477-2.966,12.044
	c0.822,1.403,1.795,2.645,2.797,3.844c2.64-0.049,5.282-0.141,7.921-0.285c-1.208-3.876-0.832-7.85,2.675-11.665
	c2.472-2.689,5.534-5.099,7.196-8.423c2.598-5.195,1.438-10.729-0.543-15.936c-0.434-1.142,2.442-1.975,2.897-0.777
	c3.341,8.781,2.458,16.072-4.171,22.767c-2.33,2.353-5.511,4.962-5.927,8.477c-0.22,1.857,0.106,3.655,0.747,5.378
	c6.417-0.453,12.794-1.266,19.04-2.628c-0.048-10.062-0.52-20.132-1.152-30.172C236.294,294.494,236.125,286.011,234.383,278.041z
	 M200.406,291.294c0.645-4.747-0.569-9.675-2.014-14.186c-0.141-0.438-0.247-0.798-0.339-1.105
	c-0.639,0.677-1.269,1.364-1.881,2.065c-1.324,1.516-2.625,3.051-3.905,4.603c-1.777,2.153-3.538,4.319-5.271,6.509
	c-0.595,0.75-1.882,0.899-2.545,0.188c-4.002-4.29-9.269-10.271-9.615-16.454c-0.265,0.045-0.529,0.098-0.793,0.146
	c-5.885,19.252-9.352,39.081-10.637,59.164c1.171,0.774,2.702,1.242,4.326,1.545c0.53,0.083,1.09,0.169,1.673,0.258
	c1.811,0.23,3.612,0.328,5.039,0.49c6.794,0.771,13.636,1.178,20.471,1.313c0.827,0.016,1.655,0.029,2.484,0.042
	c1.001-14.857,2.003-29.716,3.005-44.573C200.405,291.297,200.406,291.296,200.406,291.294z M119.956,301.339
	c-11.633,12.133-11.59,29.491-17.807,44.3c-0.02,0.046-0.037,0.092-0.057,0.139c-0.007,0.016-0.013,0.031-0.02,0.048
	c-0.224,0.528-1.396,0.852-2.181,0.845c-0.09,0.078-0.187,0.162-0.29,0.253c-2.536,2.229-8.788,8.087-7.398,10.532
	c0.472,0.83,1.978,2.01,3.914,3.287c2.303,1.518,5.215,3.172,7.746,4.544c3.164,1.715,5.725,2.985,5.725,2.985l24.256,5.834
	l11.169,2.687c0.054-0.759,0.109-1.519,0.162-2.278c0.042-0.601,0.087-1.2,0.128-1.8c0.34-5.005,0.655-10.013,0.979-15.019
	c0.036-0.554,0.073-1.107,0.109-1.661c0.65-9.942,1.351-19.88,2.377-29.795c1.09-10.534,2.323-21.138,4.677-31.477
	c1.332-5.849,2.816-12.271,6.206-17.369c-3.6,1.69-10.968,5.203-18.27,8.998C133.857,290.567,125.779,295.266,119.956,301.339z"></path>
<path id="color_x5F_1" d="M552.061,436.744c-0.816,0-1.634,0-2.45,0c0-9.292,0-18.586,0-27.879c0-0.109-0.047-0.195-0.128-0.261
	c-0.099-0.118-0.326-0.195-0.751-0.195c-5.139,0-10.276,0-15.415,0c0-23.276,0-46.554,0-69.831c0-0.237-0.225-0.365-0.545-0.407
	c2.169-0.151,5.119-0.26,6.753-1.611c0.041-0.034,0.062-0.063,0.071-0.089c0.016-0.016,0.035-0.03,0.049-0.047
	c1.077-1.336,1.017-3.777,1.133-5.376c0.303-4.173,0.18-8.39,0.098-12.569c-0.174-8.931-0.723-17.869-0.565-26.804
	c0.067-3.847,0.825-7.379-1.073-10.961c-2.11-3.982-7.175-5.613-11.231-6.624c-3.86-0.961-8.165-0.885-12.109-1.082
	c-31.934-1.594-64.38-1.66-96.305,0.163c-4.278,0.244-8.676,0.449-12.763,1.858c-3.396,1.172-6.4,2.691-8.77,5.445
	c-2.741,3.186-1.872,7.393-1.73,11.196c0.328,8.802-0.309,17.659-0.521,26.458c-0.098,4.035-0.152,8.073-0.01,12.107
	c0.069,1.966-0.136,5.197,1.192,6.844c1.008,1.249,4.799,1.053,6.171,1.175c0.732,0.065,1.466,0.115,2.199,0.17
	c-0.483,0.211-0.863,0.533-0.863,0.931c0,23.018,0,46.035,0,69.054c-6.866,0-13.732,0-20.599,0c-0.103,0-0.217,0.019-0.333,0.046
	c-0.843-0.099-2.333,0.398-2.333,1.188c0,9.033,0,18.067,0,27.102c-38.579,0-77.158,0-115.738,0c0.027-0.08,0.044-0.163,0.044-0.251
	c-0.023-9.435-0.478-18.89-1.18-28.343c8.25,6.952,17.778,12.186,28.82,12.561c10.249,0.35,19.887-4.297,27.836-10.398
	c19.519-14.979,31.84-39.08,41.623-61.104c8.485-5.251,15.316-13.592,20.703-21.852c3.154-4.836,9.837-15.828,3.17-20.563
	c-0.106-0.076-0.236-0.123-0.378-0.15c0.178-0.586,0.342-1.176,0.479-1.773c0.534-2.326-0.079-5.561-3.147-4.738
	c-1.38,0.369-2.506,1.416-3.493,2.583c2.61-5.646,3.811-10.941-1.32-10.313c-2.654,0.325-4.583,1.904-6.146,4.042
	c2.229-6.088,3.251-11.877-1.026-11.842c-4.775,0.04-6.648,4.444-8.683,8.08c-2.681,4.789-4.93,9.95-7.742,14.706
	c-0.066-0.319-0.138-0.631-0.188-0.979c-0.829-5.633-0.479-14.69-8.655-11.677c-5.495,2.026-6.958,9.003-7.561,14.134
	c-0.69,5.879-1.406,13.732,1.091,19.325c0.015,0.032,0.039,0.057,0.062,0.082c-0.337,0.146-0.595,0.336-0.649,0.553
	c-1.783,7.025-4.458,13.593-9.306,19.076c-3.511,3.971-8.114,6.754-12.581,9.504c-4.564,2.809-8.454,5.848-11.696,9.375
	c0.411-1.272-0.157-3.924-0.235-4.941c-0.32-4.117-1.367-8.16-3.846-11.505c-0.31-0.418-1.77-0.075-2.44,0.396
	c-3.222-15.57-4.879-32.161-14.505-45.379c-13.991-19.214-40.543-27.226-62.303-33.392c-0.249-4.211,0.366-8.425,1.671-12.433
	c0.046-0.143,0.057-0.268,0.053-0.384c0.49-0.024,0.981-0.049,1.458-0.07c10.198-0.465,23.584-2.782,29.371-12.322
	c5.195-8.564,4.672-22.596-2.153-30.221c-0.021-2.624-0.325-5.154-0.84-7.619c1.911-3.863,2.198-8.894,0.543-13.096
	c-1.861-3.803-4.643-6.459-8.005-7.323c-0.321-0.771-0.64-1.544-0.95-2.321c-0.032-0.08-0.074-0.152-0.122-0.217
	c0.656-0.158,1.312-0.329,1.965-0.534c8.281-2.595,12.031-11.271,10.398-19.478c-2.934-14.743-24.641-8.209-33.244-0.898
	c-4.885-11.684-21.063-2.084-27.995,2.665c-5.917,4.055-11.992,7.544-18.078,11.319c-5.717,3.546-8.827,8.258-7.5,14.815
	c-4.901-0.036-9.433,2.059-9.358,7.999c0.081,6.457,2.907,13.514,6.711,18.941c-5.645,0.692-9.488,5.516-7.553,12.622
	c2.019,7.416,12.469,7.306,18.859,5.599c1.367,6.836,0.95,13.846-0.204,20.739c-0.147,0.191-0.199,0.397-0.102,0.599
	c-0.639,3.684-1.474,7.333-2.35,10.9c-0.038,0.153-0.021,0.279,0.035,0.382c-0.495,0.089-0.988,0.188-1.481,0.286
	c-0.381-0.005-0.829,0.078-1.216,0.236c-18.268,3.926-35.188,14.371-50.123,25.136c-16.044,11.565-15.7,31.603-22.593,48.362
	c-4.027,2.711-9.811,7.002-8.477,12.555c0.805,3.352,4.116,5.61,7.507,7.223c-0.344,0.187-0.594,0.439-0.609,0.731
	c-1.087,20.075-15.974,50.169,5.178,64.521c4.755,3.227,10.141,5.136,15.759,6.065c-24.572,0-49.144,0-73.716,0
	c-0.647,0-3.315,1.25-1.861,1.25c112.711,0,225.422,0,338.134,0c0.281,0.24,1.011,0.214,1.652,0c19.804,0,39.606,0,59.41,0
	c34.806,0,69.611,0,104.416,0c0.282,0.24,1.012,0.214,1.653,0c0.571,0,1.143,0,1.714,0
	C550.847,437.994,553.515,436.744,552.061,436.744z M299.074,382.934c2.063-6.655,5.063-12.694,10.003-17.686
	c3.694-3.731,8.361-6.35,12.784-9.098c10.756-6.681,17.024-15.438,20.16-27.793c0.028-0.11-0.014-0.192-0.098-0.255
	c0.473-0.212,0.808-0.477,0.715-0.685c-1.645-3.683-1.533-8.387-1.538-12.325c-0.006-5.726,0.564-12.079,3.524-17.114
	c0.912-1.553,2.616-3.391,4.734-2.094c1.056,0.646,1.337,2.416,1.583,3.492c0.882,3.855,0.795,7.884,1.71,11.744
	c-0.018,0.023-0.033,0.05-0.051,0.074c-0.232,0.325-0.079,0.508,0.246,0.584c0.66,1.921,2.212,3.58,3.127,5.358
	c1.836,3.567,0.425,7.672-0.967,11.118c-0.229,0.565,2.555,0.272,2.863-0.492c1.515-3.752,2.644-7.515,1.001-11.402
	c-1.017-2.406-2.126-4.092-2.957-6.124c2.279-3.397,4.06-7.185,5.944-10.792c0.926-1.772,5.982-14.102,8.786-13.268
	c4.611,1.37-5.824,21.462-7.148,24.109c-0.234,0.468,0.836,0.52,1.75,0.273c0.692,0.035,1.955-0.236,2.257-0.576
	c1.781-2.008,2.896-4.666,4.145-7.014c0.908-1.707,1.841-3.399,2.832-5.061c0.45-0.755,0.941-1.481,1.442-2.204
	c0.347-0.501,2.087-1.933,1.3-2.066c7.475,1.272-5.514,19.381-7.214,21.929c-0.047,0.07,0.029,0.119,0.177,0.149
	c0.266,0.089,0.873,0.046,1.44-0.073c0.217-0.043,0.427-0.1,0.615-0.169c0.229-0.081,0.415-0.174,0.509-0.272
	c0.002-0.002,0.004-0.005,0.007-0.008c0.045-0.04,0.083-0.082,0.113-0.127c0.001-0.002,0.004-0.006,0.005-0.008
	c1.941-2.074,3.561-4.473,5.254-6.745c1.528-2.05,3.144-4.81,5.178-6.649c3.367,3.208-5.01,15.924-6.494,18.19
	c-0.197,0.302,2.396,0.188,2.857-0.518c2.078-3.173,4.11-6.54,5.544-10.106c4.19,4.795-2.695,14.954-5.254,18.877
	c-4.975,7.628-11.632,15.364-19.481,20.137c-0.47,0.285-0.607,0.551-0.551,0.773c-8.898,20.03-19.637,40.331-35.534,55.723
	c-7.481,7.244-16.699,13.065-27.25,14.072c-12.265,1.17-23.509-5.839-32.236-13.697c-0.188-0.17-0.477-0.239-0.796-0.241
	c-0.628-7.839-1.416-15.674-2.265-23.495c5.932,1.277,11.958,1.583,17.774,0.732c2.144-0.313,4.254-0.795,6.325-1.432
	c4.688-1.441,9.154-3.716,13.21-6.969c1.069-0.858,2.099-1.788,3.073-2.772c-2.534,3.599-4.542,7.681-6.024,12.462
	C295.984,384.117,298.828,383.729,299.074,382.934z M282.341,307.229c9.388,12.893,10.754,29.758,13.933,44.895
	c0.031,0.148,0.101,0.267,0.195,0.361c-11.291,7.465-23.171,9.363-36.68,9.403c-0.042,0-0.085,0.008-0.127,0.012
	c-0.392-3.467-0.781-6.929-1.156-10.384c-1.635-15.06-3.357-30.109-5.029-45.164c-0.813-7.311-2.056-14.793-2.306-22.183
	C263.379,289.497,274.636,296.646,282.341,307.229z M302.594,367.32c-0.025,1.258-2.484,3.252-3.347,4.117
	c-10.079,10.1-24.274,11.65-37.596,8.149c-0.577-5.263-1.176-10.518-1.771-15.763c14.657-0.151,27.55-2.448,39.801-11.069
	C302.202,357.055,302.693,362.429,302.594,367.32z M163.405,332.225c1.285-20.083,4.752-39.912,10.637-59.164
	c0.264-0.049,0.528-0.102,0.793-0.146c0.346,6.184,5.613,12.164,9.615,16.454c0.663,0.711,1.95,0.562,2.545-0.188
	c1.733-2.189,3.495-4.355,5.271-6.509c1.281-1.552,2.582-3.087,3.905-4.603c0.613-0.701,1.242-1.389,1.881-2.065
	c0.092,0.308,0.198,0.667,0.339,1.105c1.445,4.511,2.658,9.438,2.014,14.186c0,0.002-0.001,0.003-0.001,0.005
	c-1.002,14.857-2.004,29.716-3.005,44.573c-0.829-0.013-1.658-0.026-2.484-0.042c-6.835-0.135-13.677-0.542-20.471-1.313
	c-1.427-0.162-3.229-0.26-5.039-0.49c-0.583-0.089-1.143-0.175-1.673-0.258C166.107,333.467,164.577,332.999,163.405,332.225z
	 M169.754,220.884c-0.026-0.036-0.054-0.077-0.08-0.114c0.651-0.094,1.396,0.026,2.178,0.58c-0.021,0.012-0.041,0.023-0.061,0.035
	C171.104,221.166,170.423,220.996,169.754,220.884z M201.362,213.025c2.286,6.616,9.635,11.183,16.196,7.835
	c5.313-2.712,6.932-8.729,6.112-14.241c0.388-0.081,0.732-0.186,0.872-0.28c1.149-0.783,2.361-1.317,3.748-1.49
	c0.059-0.007,0.159-0.02,0.271-0.031c1.449,2.546,4.393,4.44,6.513,6.182c1.272,1.046,2.758,2.191,3.544,3.675
	c1.327,2.502-3.259,3.275-4.751,3.646c-1.057,0.262-1.308,0.948-0.977,1.371c-5.084,1.408-9.896,3.537-14.954,5.152
	c-6.639,2.118-12.429,2.057-17.105-3.477c-2.959-3.502-5.209-7.464-8.051-11.035c2.604-0.002,5.186-0.11,7.851-0.516
	C200.767,210.908,201.003,211.988,201.362,213.025z M219.701,203.352c1.976,4.983,1.986,10.839-1.856,14.955
	c-4.966,5.322-11.602-1.23-13.585-6.059c-1.939-4.72-0.838-10.353,2.743-13.953C211.979,193.289,217.414,198.62,219.701,203.352z
	 M249.004,210.051c-1.303,2.736-3.579,4.452-7.137,3.521c-0.125-0.033-0.323-0.018-0.554,0.026
	c-0.142-0.295-0.317-0.599-0.554-0.919c-1.528-2.059-4.16-3.607-6.367-5.412c0.199-0.152,0.304-0.311,0.235-0.443
	c-1.531-2.967-1.876-6.165-1.188-9.264c0.263-0.042,0.512-0.121,0.698-0.207c1.645-0.765,3.204-0.76,4.947-0.355
	c0.68,0.158,1.54-0.071,2.049-0.549c0.454-0.426,0.313-0.955-0.293-1.096c-2.334-0.542-4.636-0.488-6.851,0.296
	c0.208-0.567,0.447-1.13,0.726-1.684c1.397-2.771,4.054-4.524,6.886-4.321C244.442,196.389,247.624,202.953,249.004,210.051z
	 M243.063,227.621c-2.561,7.018-11.589,9.458-16.103,3.494C232.704,231.674,237.704,230.01,243.063,227.621z M216.573,188.637
	c-1.254,0.82-2.648,1.396-4.138,1.772C213.938,189.879,215.348,189.248,216.573,188.637z M234.383,278.041
	c1.741,7.97,1.911,16.453,2.421,24.562c0.632,10.04,1.104,20.11,1.152,30.172c-6.246,1.362-12.623,2.175-19.04,2.628
	c-0.641-1.723-0.967-3.521-0.747-5.378c0.416-3.515,3.597-6.124,5.927-8.477c6.629-6.694,7.512-13.985,4.171-22.767
	c-0.456-1.197-3.332-0.364-2.897,0.777c1.981,5.207,3.141,10.74,0.543,15.936c-1.663,3.324-4.725,5.733-7.196,8.423
	c-3.507,3.815-3.883,7.789-2.675,11.665c-2.639,0.145-5.281,0.236-7.921,0.285c-1.002-1.199-1.975-2.44-2.797-3.844
	c-2.673-4.567-1.007-9.209,2.966-12.044c2.479-1.769,5.488-3.238,7.275-5.805c2.882-4.14,1.48-8.753-0.518-12.989
	c-0.341-0.725-3.136,0.272-2.897,0.777c2.162,4.584,3.529,9.583-0.285,13.664c-2.333,2.496-5.671,3.867-8.2,6.156
	c-4.895,4.432-2.332,9.413,1.083,14.123c-1.487,0.009-2.973,0.01-4.456-0.002c1.01-14.966,2.019-29.933,3.028-44.898
	c0-0.002,0-0.003,0-0.004c0.009-0.066,0.01-0.131,0.019-0.197c1.105-3.775,2.175-7.561,3.242-11.346
	c0.1-0.354,0.181-0.673,0.254-0.973c1.006,1.389,1.873,3.065,2.724,4.294c1.501,2.167,2.996,4.337,4.488,6.51
	c0.563,0.821,2.536,0.013,2.794-0.748c1.625-4.794,3.249-9.587,4.874-14.38c4.127,1.174,8.381,2.415,12.661,3.783
	C234.379,277.978,234.376,278.008,234.383,278.041z M219.351,272.926c-1.44,4.249-2.88,8.498-4.32,12.746
	c-0.812-1.178-1.621-2.355-2.435-3.532c-1.341-1.94-2.714-4.936-4.55-6.451c-0.06-0.05-0.145-0.088-0.241-0.12
	c0.217-0.323,0.501-0.633,0.9-0.957c3.641-2.967,7.282-5.934,10.923-8.9C219.291,268.083,219.189,270.484,219.351,272.926z
	 M177.729,270.934c0.706-2.874,1.382-5.801,1.952-8.754c5.359,3.678,10.749,7.313,16.136,10.949c0.377,0.255,0.672,0.457,0.91,0.636
	c-1.86,1.394-3.524,3.974-4.64,5.278c-2.139,2.504-4.217,5.063-6.272,7.637c-3.65-3.99-8.07-9.365-8.07-14.596
	c0-0.313-0.119-0.544-0.304-0.709C177.582,271.244,177.688,271.098,177.729,270.934z M219.976,263.693
	c-0.376,0.074-0.712,0.188-0.875,0.32c-4.365,3.557-8.73,7.113-13.095,10.671c-1.239,1.009-1.32,1.715-1.771,3.319
	c-0.437,1.559-0.877,3.116-1.317,4.674c-0.35-1.805-0.82-3.593-1.324-5.35c-0.454-1.581-0.722-3.852-2.169-4.828
	c-6.43-4.335-12.866-8.662-19.25-13.065c0.866-5.181,1.329-10.426,0.955-15.619c2.043,3.977,4.629,7.595,8.577,10.353
	c8.393,5.862,20.974,5.609,31.416,5.116C220.649,260.744,220.271,262.214,219.976,263.693z M249.706,216.91
	c-0.075,0.169-0.086,0.35,0.004,0.531c-0.003,0.63-0.015,1.249-0.088,1.879c-0.011,0.089-4.159-0.64-4.344-0.673
	c-2.181-0.389-4.458-0.392-6.673-0.134c1.696-0.816,3.069-1.947,3.067-3.499c3.163,0.259,5.762-0.832,7.703-2.718
	C249.579,213.807,249.7,215.341,249.706,216.91z M249.445,196.596c0.7,1.779,1.069,4.416,0.957,7.095
	c-1.345-4.21-3.127-8.297-4.895-12.43C247.244,192.641,248.496,194.654,249.445,196.596z M240.491,186.951
	c0.171,0.43,0.348,0.857,0.524,1.286c-1.3,0.117-2.656,0.469-4.061,1.114c-4.713,2.166-6.919,7.366-6.714,12.363
	c-0.888-0.299-2.614,0.354-2.409,1.262c0.079,0.348,0.194,0.68,0.328,1.006c-1.627,0.306-3.216,0.852-4.667,1.647
	c-0.215-1.055-0.509-2.085-0.894-3.056c-2.966-6.137-8.601-10.265-15.295-6.798c-4.685,2.426-6.908,7.423-6.798,12.419
	c-3.113,0.476-6.128,0.461-9.206,0.391c-0.157-0.174-0.309-0.352-0.47-0.522c1.858-5.491,2.766-11.366,2.041-17.137
	c9.225,1.366,21.179,3.213,28.1-3.869c6.525-0.314,13.056,0.421,19.479-0.548C240.419,186.648,240.429,186.796,240.491,186.951z
	 M163.4,235.518c-2.04-1.708-2.417-4.421-2.283-6.905c0.226-4.188,2.923-6.168,6.422-5.983c0.01,0.012,0.019,0.024,0.028,0.036
	c0.231,0.289,0.823,0.297,1.403,0.152c0.471,0.098,0.949,0.221,1.436,0.389c0.311,0.107,0.745,0.044,1.154-0.109
	c2.856,4.276,4.653,9.17,6.571,13.957C173.474,238.754,167.373,238.845,163.4,235.518z M102.144,426.763
	c-7.984-7.024-7.923-18.322-6.664-28.009c1.409-10.842,4.559-21.396,5.243-32.338c0.999,0.405,1.957,0.763,2.804,1.079
	c9.348,3.491,19.963,5.675,30.318,6.61l-24.256-5.834c0,0-2.561-1.271-5.725-2.985c-2.866-1.102-5.61-2.529-7.746-4.544
	c-1.937-1.277-3.442-2.457-3.914-3.287c-1.39-2.445,4.862-8.304,7.398-10.532c0.103-0.091,0.2-0.175,0.29-0.253
	c0.786,0.007,1.958-0.316,2.181-0.845c0.007-0.017,0.013-0.032,0.02-0.048c0.02-0.047,0.037-0.093,0.057-0.139
	c6.217-14.809,6.174-32.167,17.807-44.3c5.823-6.073,13.901-10.771,21.427-14.947c1.15-0.639,2.289-1.266,3.404-1.883
	c4.783-2.647,9.771-5.144,14.92-7.197c-0.018,0.027-0.036,0.056-0.054,0.082c-3.39,5.098-4.874,11.521-6.206,17.369
	c-2.354,10.339-3.587,20.942-4.677,31.477c-1.026,9.915-1.727,19.853-2.377,29.795c-0.036,0.554-0.073,1.107-0.109,1.661
	c-0.325,5.006-0.64,10.014-0.979,15.019c-0.041,0.6-0.086,1.199-0.128,1.8c-0.053,0.76-0.108,1.52-0.162,2.278
	c-0.262,3.679-0.537,7.357-0.849,11.032c-9.916,1.581-19.773,3.432-29.329,6.678c-1.698,0.577-1.3,2.225,0.438,1.635
	c23.811-8.09,49.493-7.539,73.308-15.63c0.122-0.042,0.209-0.099,0.31-0.149c0.267-0.077,0.502-0.19,0.657-0.343
	c0.224-0.22,0.451-0.438,0.677-0.655c0.301-0.158,0.536-0.367,0.626-0.606c6.523-6.215,13.916-11.725,22.516-14.641
	c3.008-1.02,14.106-3.353,15.755,1.045c0.015,0.039,0.014,0.077,0.025,0.116c-0.006,0.292-0.003,0.584-0.01,0.876
	c-0.613,1.968-4.926,3.582-6.217,4.662c-1.328,1.111,1.543,1.344,2.371,0.65c0.798-0.668,2.249-1.272,3.612-2.013
	c3.113,2.218,2.07,7.038-1.447,8.63c-1.844,0.835-0.144,1.702,1.127,1.127c0.659-0.298,1.275-0.652,1.844-1.056
	c3.05,2.233,2.001,7.008-1.496,8.591c-0.543,0.246-0.772,0.493-0.803,0.707c-0.141,0.201-0.115,0.397,0.208,0.54
	c1.618,0.716,2.998,1.723,3.251,3.574c0.128,0.936-0.201,1.818-0.755,2.619c-0.236,0.082-0.43,0.179-0.539,0.287
	c-0.888,0.888-1.794,1.715-2.711,2.515c-0.459,0.164-0.85,0.454-0.983,0.834c-4.623,3.819-9.692,6.567-15.724,8.203
	c-5.762,1.563-11.652,2.522-17.391,4.191c-0.441-0.018-0.913,0.058-1.227,0.25c-13.925,8.513-27.988,17.121-43.636,22.101
	C133.758,437.292,114.564,437.689,102.144,426.763z M169.368,360.346c5.423,0,10.844,0,16.267,0c0.608,0,1.074-0.285,1.318-0.644
	c0.204,6.3,1.05,12.605,1.022,18.89c-0.171,0.165-0.344,0.331-0.513,0.496c-6.031,2.005-12.179,3.473-18.384,4.673
	c0.11-0.158,0.175-0.339,0.164-0.544C168.819,375.561,170.855,367.928,169.368,360.346z M229.186,361.85
	c-2.611-1.063-6.337-0.938-8.652-0.883c-11.041,0.264-21.461,7.473-29.668,14.913c-0.161-5.809-0.897-11.63-1.02-17.445
	c13.126,0,26.251,0,39.377,0C229.221,359.573,229.198,360.711,229.186,361.85z M224.315,410.762
	c-9.11,3.373-20.477,3.016-29.732,0.416c6.745-1.875,13.767-2.813,20.384-5.098c4.128-1.426,7.813-3.425,11.217-5.885
	C225.606,403.726,224.973,407.246,224.315,410.762z M152.864,436.744c-5.244,0-10.487,0-15.731,0
	c3.558-0.504,7.044-1.246,10.356-2.169c16.184-4.509,30.837-13.524,45.07-22.235c10.171,2.773,22.021,2.625,32.084-0.812
	c0.743,0.397,2.421-0.059,2.593-0.979c0.79-4.216,1.565-8.436,2.222-12.676c2.203-1.495,4.516-3.397,5.006-6.127
	c0.387-2.152-1.203-3.719-2.934-4.686c1.707-1.1,3.007-2.641,3.541-4.713c0.649-2.521-0.697-4.738-2.848-5.895
	c0.623-0.795,1.101-1.71,1.373-2.768c0.618-2.397-0.566-4.522-2.532-5.721c0.741-0.714,1.198-1.564,1.07-2.632
	c-0.016-0.13-0.055-0.241-0.08-0.363c0.03-1.515,0.039-3.029,0.051-4.544c2.517,0,5.034,0,7.551,0c0.002,0,0.003,0,0.005,0
	c0.367,18.787,6.994,41.405-3.656,58.35c-5.473,8.708-17.644,10.25-27.008,10.737c-10.647,0.554-22.543-1.066-31.61-7.009
	c-0.99-0.648-3.581,0.728-2.254,1.598c8.935,5.855,20.408,7.631,30.916,7.455c9.642-0.162,20.677-1.525,28.528-7.657
	c8.344-6.517,9.777-19.227,9.994-28.952c0.267-11.963-1.912-23.813-2.004-35.758c-0.006-0.847-1.013-1.021-1.843-0.779
	c-0.202-0.122-0.477-0.197-0.836-0.197c-2.586,0-5.172,0-7.758,0c0.001-0.308,0.01-0.614,0.01-0.922
	c0-0.101-0.022-0.187-0.055-0.265c0.036-0.311-0.194-0.551-0.878-0.551c-14.108,0-28.216,0-42.324,0
	c-0.071,0-0.143,0.009-0.216,0.02c-0.817,0.014-1.768,0.466-1.764,1.106c0.002,0.338,0.017,0.676,0.023,1.013
	c-0.194-0.192-0.525-0.321-1.018-0.321c-5.556,0-11.111,0-16.667,0c-0.572,0-1.014,0.254-1.268,0.581
	c-0.874,0.054-1.843,0.659-1.652,1.499c1.734,7.616-0.447,15.348-0.021,23.049c0.02,0.362,0.198,0.613,0.453,0.774
	c-6.515,1.192-13.082,2.146-19.636,3.161c1.655-19.579,2.439-39.219,4.329-58.781c1.002-10.375,2.257-20.75,4.284-30.979
	c1.375-6.936,2.915-15.135,7.402-20.841c0.258-0.328,0.309-0.601,0.235-0.818c2.526-0.884,5.089-1.646,7.682-2.256
	c-5.85,19.222-9.294,39.019-10.564,59.067c-0.119,0.301-0.056,0.627,0.323,0.92c2.558,1.976,6.862,2.207,9.91,2.648
	c6.941,1.008,13.987,1.371,20.99,1.604c4.858,0.161,9.767,0.243,14.685,0.18c1.945,2.543,3.835,4.965,4.555,7.125
	c0.231,0.692,3.103-0.162,2.897-0.777c-0.848-2.542-2.313-4.52-3.895-6.42c2.306-0.064,4.61-0.17,6.912-0.314
	c1.215,2.678,3.062,5.284,5.017,7.733c0.742,0.93,3.519-0.155,2.668-1.221c-1.607-2.014-3.4-4.276-4.688-6.726
	c6.592-0.525,13.136-1.428,19.535-2.884c0.75-0.063,1.515-0.505,1.513-1.189c-0.024-10.351-0.533-20.703-1.163-31.032
	c-0.47-7.716-0.672-15.748-2.125-23.389c3.547,1.19,7.093,2.479,10.58,3.904c0.107,7.187,1.305,14.468,2.09,21.592
	c1.624,14.744,3.315,29.48,4.931,44.226c1.146,10.463,2.412,20.983,3.569,31.529c-0.2,0.169-0.237,0.319,0.034,0.394
	c0.003,0.001,0.006,0.002,0.009,0.002c2.043,18.67,3.731,37.422,3.777,56.083c0,0.003,0.001,0.005,0.001,0.007
	C226.028,436.744,189.446,436.744,152.864,436.744z M525.222,408.409c0-23.237,0-46.474,0-69.711
	c2.204-0.12,4.406-0.264,6.604-0.455c-0.711,0.171-1.408,0.573-1.408,1.112c0,23.018,0,46.035,0,69.054
	C528.686,408.409,526.954,408.409,525.222,408.409z M414.94,338.946c1.018,0.04,2.034,0.079,3.051,0.115
	c0.57,0.021,1.142,0.031,1.712,0.051c0,23.04,0,46.081,0,69.121c0,0.063,0.012,0.119,0.021,0.176c-1.611,0-3.224,0-4.836,0
	c0-23.153,0-46.308,0-69.462c0-0.001,0-0.002,0-0.003C414.906,338.945,414.924,338.945,414.94,338.946z M514.77,408.409
	c-1.176,0-2.353,0-3.529,0c-0.937,0-1.873,0-2.811,0c-1.064,0-2.13,0-3.195,0c0.063-0.121,0.104-0.251,0.104-0.395
	c0-14.028,0-28.058,0-42.086c0-0.296-0.113-0.517-0.291-0.673c0.135-0.767,0.229-1.535,0.26-2.294
	c0.623-0.003,1.246-0.007,1.869-0.01c0.223-0.001,0.709-0.071,1.151-0.216c0.446-0.146,0.848-0.37,0.89-0.68
	c0.558-4.104,1.233-8.33,1.676-12.561c0.36-3.446,0.56-6.893,0.398-10.277c1.574-0.047,3.15-0.077,4.725-0.131
	c2.183-0.074,4.367-0.158,6.55-0.257c-0.148,0.155-0.242,0.33-0.242,0.524c0,23.018,0,46.035,0,69.054c-1.539,0-3.079,0-4.618,0
	C516.727,408.409,515.748,408.409,514.77,408.409z M442.035,362.977c0.038,1.682-0.352,3.447-0.733,5.119
	c-0.115,0.053-0.225,0.111-0.321,0.182c-1.465,0.006-2.929,0.01-4.394,0.014c-0.347-0.43-1.106-0.492-1.741-0.284
	c-0.492-1.618-0.748-3.301-0.777-4.99C436.724,363.003,439.379,362.99,442.035,362.977z M446.093,361.63
	c-0.403,0.002-0.808,0.004-1.212,0.006c-0.195-0.282-1.089-0.235-1.827,0.01c-3.116,0.016-6.233,0.031-9.35,0.048
	c-0.196-0.033-0.453-0.031-0.732,0.003c-0.432,0.003-0.864,0.005-1.296,0.007c-0.479,0.002-0.956,0.005-1.435,0.007
	c0-0.024,0-0.049,0-0.073c0-0.27-0.095-0.475-0.245-0.628c-0.04-0.521-0.351-1.267-0.486-2.043c-0.478-2.735-0.834-5.49-1.079-8.255
	c6.14,0,12.28,0,18.419,0c0.205,0,0.467-0.069,0.732-0.175C447.178,354.268,446.6,357.99,446.093,361.63z M430.241,408.015
	c0-14.993,0-29.986,0-44.979c0.308-0.001,0.616-0.003,0.925-0.004c-0.049,2.139,0.252,4.292,0.945,6.322
	c0.105,0.307,0.601,0.277,0.844,0.277c0.297-0.001,0.593-0.002,0.89-0.003c0,12.868,0,25.737,0,38.605
	c0,0.063,0.013,0.119,0.022,0.176c-1.243,0-2.486,0-3.729,0C430.201,408.288,430.241,408.158,430.241,408.015z M436.78,408.015
	c0-12.799,0-25.598,0-38.396c1.249-0.004,2.497-0.008,3.746-0.012c0,12.875,0,25.751,0,38.626c0,0.063,0.013,0.119,0.022,0.176
	c-1.291,0-2.581,0-3.871,0C436.74,408.288,436.78,408.158,436.78,408.015z M443.462,408.015c0-12.938,0-25.874,0-38.811
	c0.239-0.132,0.425-0.293,0.47-0.496c0.401-1.834,0.918-3.821,0.998-5.746c0.623-0.003,1.246-0.007,1.869-0.01
	c0.045,0,0.108-0.005,0.173-0.011c0,15.097,0,30.194,0,45.292c0,0.063,0.013,0.119,0.022,0.176c-1.212,0-2.424,0-3.635,0
	C443.422,408.288,443.462,408.158,443.462,408.015z M449.605,356.665c0.804-5.622,1.531-11.369,1.321-16.958
	c0.982,0.007,1.965,0.016,2.946,0.021c-0.144,0.168-0.235,0.365-0.235,0.59c0,22.697,0,45.394,0,68.091c-1.278,0-2.556,0-3.833,0
	c0.063-0.121,0.103-0.251,0.103-0.395c0-16.89,0-33.779,0-50.669C449.907,357.044,449.79,356.822,449.605,356.665z M456.498,339.738
	c1.563,0.006,3.125,0.013,4.688,0.017c-0.131,0.163-0.215,0.351-0.215,0.563c0,22.697,0,45.394,0,68.091c-1.466,0-2.932,0-4.397,0
	c0-22.77,0-45.54,0-68.31C456.573,339.961,456.542,339.845,456.498,339.738z M463.843,339.765c0.157,0.001,0.313,0.002,0.471,0.002
	c1.399,0.003,2.8-0.004,4.199-0.004c-0.127,0.161-0.209,0.346-0.209,0.556c0,22.697,0,45.394,0,68.091c-1.466,0-2.932,0-4.397,0
	c0-22.77,0-45.54,0-68.31C463.906,339.973,463.88,339.865,463.843,339.765z M471.174,339.761c1.559-0.001,3.118,0.001,4.677-0.004
	c-0.13,0.162-0.214,0.349-0.214,0.562c0,22.697,0,45.394,0,68.091c-1.466,0-2.932,0-4.397,0c0-22.77,0-45.54,0-68.31
	C471.239,339.971,471.212,339.861,471.174,339.761z M478.501,339.746c1.572-0.008,3.146-0.024,4.718-0.036
	c-0.152,0.172-0.249,0.376-0.249,0.608c0,22.697,0,45.394,0,68.091c-1.466,0-2.932,0-4.397,0c0-22.77,0-45.54,0-68.31
	C478.572,339.965,478.543,339.851,478.501,339.746z M489.671,361.715c0.155-0.001,0.274-0.023,0.374-0.059
	c-0.023,0.018-0.043,0.038-0.065,0.057C489.877,361.714,489.773,361.715,489.671,361.715z M502.412,362.977
	c0.039,1.742-0.381,3.576-0.774,5.301c-2.11,0.006-4.222,0.013-6.332,0.02c-0.551-1.705-0.829-3.49-0.86-5.28
	C497.101,363.003,499.756,362.99,502.412,362.977z M506.47,361.63c-0.403,0.002-0.808,0.004-1.212,0.006
	c-0.195-0.282-1.089-0.235-1.827,0.01c-3.116,0.016-6.233,0.031-9.35,0.048c-0.196-0.033-0.453-0.031-0.732,0.003
	c-0.321,0.002-0.643,0.003-0.964,0.005c-0.405-0.582-1.518-0.555-2.207-0.132c0.495-0.372-0.091-1.458-0.291-2.604
	c-0.454-2.601-0.8-5.219-1.044-7.846c6.353,0,12.705,0,19.057,0C507.499,354.656,506.95,358.18,506.47,361.63z M485.852,339.788
	c-0.012-0.034-0.026-0.066-0.041-0.098c0.061-0.001,0.122-0.001,0.183-0.001C485.943,339.721,485.895,339.753,485.852,339.788z
	 M485.905,351.742c0.331,3.709,0.878,7.4,1.653,11.027c0.066,0.308,0.635,0.278,0.844,0.277c0.401-0.002,0.802-0.004,1.203-0.006
	c0,15.064,0,30.128,0,45.192c0,0.063,0.012,0.119,0.021,0.176c-1.24,0-2.48,0-3.722,0
	C485.905,389.52,485.905,370.631,485.905,351.742z M492.541,408.015c0-12.866,0-25.731,0-38.597c0.156,0.225,0.57,0.213,0.791,0.213
	c1.028-0.004,2.057-0.006,3.086-0.01c-0.083,0.136-0.131,0.287-0.131,0.453c0,12.72,0,25.439,0,38.159
	c0,0.063,0.012,0.119,0.021,0.176c-1.29,0-2.58,0-3.871,0C492.501,408.288,492.541,408.158,492.541,408.015z M499.192,369.613
	c1.025-0.004,2.05-0.007,3.075-0.01c0.037,0,0.088-0.005,0.135-0.008c0,12.879,0,25.759,0,38.638c0,0.063,0.012,0.119,0.021,0.176
	c-1.102,0-2.203,0-3.305,0c0.063-0.121,0.104-0.251,0.104-0.395c0-12.72,0-25.439,0-38.159
	C499.223,369.768,499.211,369.688,499.192,369.613z M508.061,349.519c-6.452,0-12.904,0-19.355,0
	c-0.25-3.275-0.334-6.563-0.241-9.849c6.673-0.069,13.345-0.197,20.015-0.374c-0.065,0.095-0.103,0.195-0.097,0.302
	C508.565,342.864,508.39,346.19,508.061,349.519z M448.007,339.679c0.172,3.157,0.012,6.368-0.298,9.583c-6.449,0-12.897,0-19.346,0
	c-0.018,0-0.039,0.004-0.058,0.005c-0.239-3.253-0.313-6.517-0.216-9.778c0.002-0.052-0.025-0.094-0.063-0.13
	C434.686,339.523,441.346,339.621,448.007,339.679z M426.499,339.334c-0.667,0.166-1.294,0.492-1.308,0.932
	c-0.226,7.517,0.415,15.141,1.99,22.504c0.016,0.073,0.063,0.125,0.124,0.164c0,15.1,0,30.2,0,45.3c0,0.063,0.013,0.119,0.022,0.176
	c-1.598,0-3.195,0-4.793,0c0.063-0.121,0.104-0.251,0.104-0.395c0-22.938,0-45.877,0-68.815c1.287,0.039,2.575,0.08,3.863,0.113
	c0.025,0.001,0.051,0.002,0.076,0.003C426.552,339.321,426.525,339.328,426.499,339.334z M403.151,336.936
	c-3.659-0.42-3.974-1.287-4.32-5.156c-0.769-8.588-0.053-17.396,0.21-25.995c0.126-4.144,0.241-8.287,0.229-12.433
	c-0.014-4.25-1.054-8.59,1.026-12.517c3.331-6.286,12.496-6.261,18.683-6.614c7.335-0.419,14.688-0.573,22.033-0.709
	c17.91-0.332,35.832-0.313,53.741,0.019c7.116,0.132,14.233,0.318,21.341,0.706c5.748,0.313,11.191,0.65,16.356,3.537
	c5.953,3.326,5.114,8.949,4.962,14.678c-0.146,5.467,0.107,10.952,0.276,16.416c0.183,5.916,0.384,11.835,0.354,17.756
	c-0.013,2.594,0.546,7.44-0.965,9.921c-0.23-0.071-1.441,0.353-2.098,0.429c-2.019,0.232-4.05,0.365-6.077,0.494
	c-6.064,0.384-12.144,0.559-18.218,0.718c-16.181,0.423-32.371,0.505-48.557,0.453c-3.83-0.013-7.66-0.032-11.491-0.063
	c-0.226-0.068-0.568-0.068-0.935-0.012c-9.12-0.081-18.239-0.25-27.353-0.553c-0.444-0.393-1.309-0.372-1.931-0.064
	c-1.148-0.04-2.299-0.067-3.447-0.113C412.365,337.648,407.735,337.463,403.151,336.936z M407.395,338.571
	c1.611,0.104,3.225,0.187,4.839,0.259c-0.149,0.154-0.243,0.331-0.243,0.525c0,23.018,0,46.035,0,69.054c-1.531,0-3.063,0-4.595,0
	c0-23.276,0-46.554,0-69.831C407.396,338.576,407.395,338.574,407.395,338.571z M384.131,436.744c0-8.912,0-17.826,0-26.739
	c6.976,0,13.952,0,20.928,0c0.146,0.018,0.312,0.018,0.486,0c2.336,0,4.672,0,7.007,0c0.147,0.018,0.312,0.018,0.486,0
	c13.676,0,27.352,0,41.027,0c0.447,0.271,1.155,0.243,1.707,0c1.875,0,3.751,0,5.626,0c0.447,0.271,1.154,0.243,1.707,0
	c1.875,0,3.751,0,5.626,0c0.447,0.271,1.155,0.243,1.707,0c1.875,0,3.751,0,5.626,0c0.447,0.271,1.154,0.243,1.707,0
	c1.875,0,3.751,0,5.626,0c0.447,0.271,1.155,0.243,1.707,0c10.031,0,20.062,0,30.093,0c0.447,0.271,1.154,0.243,1.707,0
	c1.993,0,3.987,0,5.98,0c0.146,0.018,0.312,0.018,0.486,0c2.536,0,5.072,0,7.608,0c0.147,0.018,0.312,0.018,0.486,0
	c5.082,0,10.164,0,15.246,0c0,8.912,0,17.826,0,26.739C492.519,436.744,438.324,436.744,384.131,436.744z M215.237,204.332
	c0.578,1.768,1.025,3.574,1.603,5.342c0.333,1.021-2.55,1.839-2.897,0.777c-0.578-1.768-1.025-3.574-1.603-5.342
	C212.006,204.089,214.89,203.271,215.237,204.332z M240.773,205.761c0.627,1.003-2.192,1.929-2.693,1.127
	c-0.984-1.573-1.169-3.161-1.17-4.981c-0.001-1.114,2.897-1.66,2.897-0.777C239.809,202.751,239.888,204.346,240.773,205.761z
	 M214.095,200.612c-2.304-0.819-4.596-0.47-6.834,0.384c-0.49,0.187-1.439,0.461-1.898,0.042c-0.46-0.42,0.538-0.936,0.807-1.038
	c3.285-1.252,6.867-1.895,10.26-0.687C217.518,199.701,214.882,200.893,214.095,200.612z M319.753,265.733
	c-0.046,0.418,0.279,0.742,1.172,0.606c0.02-0.003,0.038-0.008,0.058-0.011c4.793,2.179,10.373,3.02,15.731,2.386
	c14.526-1.719,26.594-12.642,33.419-25.031c4.137-7.51,6.456-16.492,4.778-25.021c-1.578-8.025-7.483-13.422-14.663-16.41
	c0.008-0.027,0.004-0.052-0.023-0.066c-10.94-5.896-23.764,0.636-32.312,7.829c-10.685,8.992-19.894,23.235-19.747,37.599
	C308.253,256.124,313.105,262.287,319.753,265.733z M328.389,267.131c-1.672-0.357-3.204-0.845-4.608-1.44
	c10.742-3.24,15.203-14.581,18.596-24.684c3.804-11.328,7.255-31.793,22.149-33.077c0.207-0.018,0.398-0.07,0.572-0.144
	C386.532,226.625,357.504,273.363,328.389,267.131z M363.156,206.261c-11.686,1.991-16.567,13.584-20.085,23.899
	c-3.886,11.393-7.197,32.021-21.79,34.279c-1.782-1.047-3.294-2.308-4.566-3.73c11.365-3.48,17.173-12.317,21.063-23.341
	c4.378-12.413,7.201-27.935,20.379-33.882C360.021,204.288,361.684,205.219,363.156,206.261z M314.166,232.113
	c5.411-13.372,18.879-29.807,34.324-31.024c2.226-0.176,4.433,0.204,6.508,0.961c-0.106,0.12-0.102,0.225,0.091,0.286
	c0.638,0.203,1.252,0.422,1.851,0.65c-10.537,4.75-15.264,14.414-18.819,25.119c-4.196,12.631-7.814,27.592-22.025,31.879
	C310.268,252.762,310.265,241.754,314.166,232.113z M432.899,323.181c20.835,2.655,23.962-26.918,5.096-32.197
	c-0.05-0.015-0.104-0.02-0.159-0.026c-0.057-0.012-0.106-0.025-0.171-0.033c-9.298-1.16-17.466,4.024-19.612,13.282
	C415.716,314.28,423.429,321.973,432.899,323.181z M436.413,292.819c14.354,4.171,16.33,28.972-1.37,28.536
	C415.307,320.869,417.011,290.606,436.413,292.819z M433.11,313.586c3.658,0.408,7.265-1.217,8.2-4.987
	c0.912-3.672-1.62-7.149-5.072-8.138c-0.073-0.021-0.154-0.031-0.239-0.035c-0.031-0.005-0.056-0.013-0.089-0.017
	c-3.82-0.457-7.387,1.515-8.52,5.269C426.201,309.62,429.261,313.155,433.11,313.586z M434.602,302.224
	c2.351,0.718,3.682,2.712,3.926,5.107c0.251,2.467-1.291,4.606-3.833,4.481C428.709,311.516,428.697,301.771,434.602,302.224z
	 M500.683,323.181c20.835,2.655,23.962-26.918,5.096-32.197c-0.05-0.015-0.104-0.02-0.159-0.026
	c-0.057-0.012-0.106-0.025-0.171-0.033c-9.298-1.16-17.466,4.024-19.612,13.282C483.499,314.28,491.212,321.973,500.683,323.181z
	 M504.196,292.819c14.354,4.171,16.33,28.972-1.37,28.536C483.09,320.869,484.794,290.606,504.196,292.819z M500.894,313.586
	c3.658,0.408,7.265-1.217,8.2-4.987c0.912-3.672-1.62-7.149-5.072-8.138c-0.073-0.021-0.154-0.031-0.239-0.035
	c-0.031-0.005-0.056-0.013-0.089-0.017c-3.82-0.457-7.387,1.515-8.52,5.269C493.984,309.62,497.044,313.155,500.894,313.586z
	 M502.385,302.224c2.351,0.718,3.682,2.712,3.926,5.107c0.251,2.467-1.291,4.606-3.833,4.481
	C496.492,311.516,496.48,301.771,502.385,302.224z M389.939,430.928h150.558v-15.25H389.939V430.928z M391.939,417.678h146.558
	v11.25H391.939V417.678z" fill="#0a1230"></path>
</svg>