<?xml version="1.0" standalone="no"?>
<svg version="1.1" id="Layer_1" xmlns="http://www.w3.org/2000/svg" xmlns:xlink="http://www.w3.org/1999/xlink" x="0px" y="0px" width="595.28px" height="595.28px" viewBox="0 0 595.28 595.28" enable-background="new 0 0 595.28 595.28" xml:space="preserve">
<path id="color_x5F_2" fill="#6c63ff" d="M173.543,349.837c17.143-10.17,33.229-22.463,47.757-36.13
	c-0.493,1.356-0.98,2.717-1.465,4.076l-31.42,22.887c0,0-6.771,4.512-16.133,9.91C172.704,350.333,173.125,350.085,173.543,349.837z
	 M249.415,250.67l0.405-0.271c0.124-0.176,0.243-0.356,0.368-0.531c0.123-0.173,0.373-0.311,0.673-0.415
	c-3.13-0.01-6.292,0.416-9.427,1.144c-2.828,0.855-6.141,1.902-9.599,3.089c-4.312,1.732-8.439,3.8-12.206,5.813
	c-12.35,6.598-24.041,14.78-35.232,23.165c-11.301,8.467-21.418,18.098-33.43,25.591c-1.243,0.775-4.135,2.836-5.238,2.154
	l-0.314,0.262l0.134-0.431c-0.255-0.308-0.346-0.86-0.163-1.794c2.082-10.621,5.725-21.072,8.837-31.418
	c4.542-15.097,9.199-30.158,13.871-45.215c1.717-5.531,3.438-11.063,5.146-16.597c0.539-1.747,1.594-3.902,1.908-5.829
	c-6.129-5.822-14.053-7.693-22.184-9.113c-12.777,20.047-25.604,40.662-36.648,62.072c-4.142,8.606-8.808,18.48-12.817,27.41
	c-2.425,5.822-4.691,11.699-6.725,17.65c-4.825,14.126-10.783,32.816-4.676,47.531c1.226,2.953,2.981,5.383,5.131,7.326
	c4.238,2.701,9.476,4.855,15.514,5.957c18.883,1.701,38.09-7.027,54.084-16.098c19.422-11.015,37.596-24.656,53.718-40.105
	c0.248-0.238,0.928-0.42,1.553-0.491c2.966-8.081,6.076-16.109,9.366-24.06c5.031-12.16,10.122-24.986,17.584-35.952L249.415,250.67
	z M142.415,365.17c2.807-1.027,5.707-2.235,8.623-3.551c-6.426,2.801-13.064,5.12-19.811,6.57
	C134.817,367.568,138.554,366.582,142.415,365.17z M157.967,301.471c1.42-1.021,2.801-2.094,4.161-3.191
	c-3.238,2.339-6.105,4.408-8.37,6.04C155.181,303.399,156.592,302.46,157.967,301.471z M306,262.827
	c0.311,0.027,0.505,0.115,0.441,0.278c-0.03,0.076-0.056,0.154-0.085,0.23c0.053,0.08,0.102,0.163,0.153,0.244
	c0.233-0.085,0.456-0.14,0.628-0.144c0.721-0.015,1.473-0.065,2.246-0.136l-0.244-0.4c-4.131-2.078-6.945-6.979-9.172-11.081
	c-0.229-0.026-0.439-0.075-0.612-0.146c-1.264,1.379-3.165,3.331-5.223,4.762l-0.218,0.234l-0.088-0.029
	c-0.766,0.51-1.55,0.938-2.328,1.234c0.888,0.716,1.795,1.408,2.724,2.072C298.854,257.188,303.11,258.824,306,262.827z
	 M290.915,255.67l-0.021,0.084c0.046-0.014,0.092-0.03,0.138-0.045L290.915,255.67z M299.546,260.181
	c-0.355-0.165-0.722-0.304-1.11-0.378c-0.816-0.156-1.538,0.008-2.174,0.367c0.968,0,2.104,0,3.153,0
	C299.459,260.17,299.503,260.179,299.546,260.181z M270.818,305.396c-1.33,0.323-2.565,0.738-3.413,1.251
	c0.222-0.057,0.473-0.119,0.744-0.186C268.776,306.08,269.732,305.717,270.818,305.396z M306.858,397.003
	c-0.432-0.113-0.766-0.396-0.787-0.896c-0.006-0.127-0.001-0.247-0.006-0.373c-0.324-0.522-0.658-1.042-0.979-1.567
	c-0.166-0.273,0.334-0.642,0.969-0.875c0.002-0.092,0.01-0.182,0.012-0.272c-0.419-0.221-0.889-0.484-1.346-0.777
	c-0.183-0.005-0.354-0.038-0.499-0.112c-1.072-0.549-1.919-1.293-2.763-2.12c-1.006,0.042-2.045,0.661-2.045,0.661l-0.867,0.723
	c0.245,0.082,0.375,0.236,0.283,0.482c-3.958,10.568-16.568,13.133-26.779,11.459c-0.267-0.033-0.51-0.075-0.724-0.129
	c-0.427-0.079-0.851-0.163-1.267-0.257c-5.404-1.217-11.837-4.024-14.967-8.842c-3.278-5.047-2.718-11.323-1.84-17.025
	c2.078-13.497,4.006-27.018,5.927-40.538c0.876-6.167,1.749-12.334,2.598-18.506c0.274-1.993,1.194-5.5,1.019-7.28
	c-0.049-0.085-0.068-0.188-0.041-0.313c0.005-0.038,0.014-0.075,0.027-0.111c0.071-0.209,0.346-0.433,0.689-0.623
	c-0.197-0.414-0.301-0.852-0.282-1.313c0.175-4.409,9.444-5.699,12.444-5.79c4.682-0.141,9.376,0.363,14.024,1.219
	c0.4-0.168,0.827-0.253,1.146-0.173c0.61,0.152,1.628,0.38,2.931,0.677c2.101,0.479,4.951,1.141,8.077,1.973
	c11.105,2.951,25.658,8.031,22.247,14.565c0.146,0.038,0.279,0.094,0.354,0.195c0.02,0.024,0.037,0.05,0.056,0.075
	c0.277,0.379-0.032,0.766-0.529,1.037c-0.046,0.085-0.104,0.197-0.191,0.373c-0.196,0.396-0.383,0.795-0.56,1.201
	c-0.491,1.132-0.963,2.273-1.416,3.422c-1.046,2.656-2.055,5.326-3.044,8.004c-0.97,2.626-1.848,5.324-2.82,7.975
	c3.442,2.698,4.624,5.89,0.818,8.882c0.579,0.11,0.845,0.402-0.035,0.88c-1.14,0.617-2.394,1.004-3.714,1.207
	c0.077,0.895,0.262,1.781,0.547,2.65c0.715,0.875,1.136,1.763,1.178,2.638c1.398,2.505,3.457,4.736,5.594,6.395
	c0.051-0.046,0.1-0.094,0.151-0.14c0.893-0.793,2.605-0.272,2.369,0.663c0.041,0.012,0.084,0.022,0.12,0.04
	c2.009,0.985,4.007,1.992,5.996,3.012c0.205,0.046,0.4,0.088,0.567,0.123c10.715-23.99,13.569-50.137,14.285-76.316
	c-0.354-17.519-0.371-35.725-0.372-37.383c-3.946-0.746-7.906-1.443-11.85-2.152c-0.417,0.289-1.043,0.438-1.562,0.376
	c-2.552,2.184-5.501,5.021-8.719,7.103l-0.621,0.514c6.043-0.849,12.145-1.121,16.72,1.803c9.583,6.126-0.444,20.05-5.063,26.368
	c-1.312,1.795-3.012,4.149-5.011,6.081c-1.248,1.726-3.391,4.019-5.581,3.371c-1.337,0.294-2.743,0.219-4.204-0.397
	c-3.138-1.322-5.362-5.091-7.22-7.739c-3.202-4.565-6.39-9.121-9.851-13.494l-0.164-0.102c-1.896,0.732-4.514,1.2-6.803,0.812
	l-1.475,0.591c0.324,0.971,0.639,1.943,0.943,2.921c1.447,4.646,3.713,10.573,1.656,15.392c-0.328,0.768-0.774,1.484-1.303,2.125
	c-0.098,0.145-0.207,0.269-0.324,0.377c-0.086,0.092-0.172,0.18-0.262,0.268l-0.055,0.203c-0.088,0.027-0.176,0.053-0.268,0.08
	c-1.175,1.015-2.644,1.646-4.328,1.555c-4.373-0.239-6.812-4.707-8.442-8.55c-0.272,0.048-0.553,0.087-0.834,0.106
	c-0.001,0.004-0.004,0.006-0.005,0.01c-0.216,0.663-2.264,1.136-2.794,0.749c-3.447-2.516-4.612-7.118-5.211-11.217
	c-1.675,0.536-3.639,0.823-5.509,0.645c-1.377,4.262-12.969,40.243-19.546,63.593c-2.231,9.563-4.189,19.188-5.79,28.883
	c-3.955,23.964-6.15,48.746-3.641,73.022c0.486,0.101,0.973,0.202,1.459,0.302c2.875,0.381,8.737,1.275,14.901,2.906
	c17.432,3.147,35.101,5.289,52.788,4.523c0.156-0.402,0.314-0.809,0.473-1.219c1.381-4.114,2.754-8.23,4.147-12.34
	c2.3-6.78,4.593-13.566,7.017-20.305l2.328-7.791l-0.77-1.378C314.424,408.392,310.497,402.768,306.858,397.003z M270.573,281.302
	l-2.285,0.879c0.728-0.06,1.5-0.237,2.32-0.563C270.595,281.513,270.586,281.407,270.573,281.302z M279.64,458.196
	c-3.754-0.329-7.502-0.745-11.242-1.237C271.757,457.529,275.648,457.924,279.64,458.196z M337.915,273.453
	c-0.855,2.806-2.164,5.982-3.539,8.994C335.796,279.763,337.277,276.52,337.915,273.453z M314.39,352.445
	c-0.4-0.086-0.549-0.297-0.051-0.679c2.587-1.983,2.344-4.106,0.582-6.082c-0.215,0.524-0.416,1.055-0.646,1.57
	c-0.146,0.328-0.604,0.578-1.113,0.728c-0.157,0.44-0.246,0.688-0.246,0.688s-0.034,0.167-0.082,0.457
	c0.561-0.026,0.988,0.088,0.862,0.382c-0.472,1.104-0.696,2.224-0.741,3.341C313.463,352.768,313.938,352.629,314.39,352.445z
	 M323.903,322.195c-0.387,0.203-0.876,0.336-1.3,0.346c-0.102,0.074-0.21,0.142-0.317,0.21
	C323.006,323.187,323.642,322.533,323.903,322.195z M298.253,277.156c0.342-0.066,0.614-0.201,0.854-0.366l-0.191-0.12l-1.938,0.582
	C297.405,277.265,297.835,277.238,298.253,277.156z M433.097,389.643c-1.743-13.42-4.563-26.63-7.248-39.877
	c-3.712-15.715-8.164-33.415-12.141-46.105c-3.54-8.307-8.168-16.078-14.555-22.822c-4.579-4.834-9.637-8.687-15.037-11.816
	c-5.896-2.954-11.381-4.989-14.87-6.158c0.491,15.076,1.565,30.139,2.022,45.216l0.818,6.488c0.289-0.017,0.527,0.023,0.644,0.152
	c4.288,4.781,6.312,11.756,8.149,17.76c2.97,9.7,5.236,19.612,7.286,29.543c3.352,16.241,5.688,32.679,9.058,48.909
	c0.021,0.102-0.023,0.201-0.107,0.298c3.758,2.575,7.506,5.165,11.246,7.761c1.186,0.822-1.485,2.001-2.297,1.438
	c-11.529-8.001-23.12-15.945-34.911-23.567l-7.739-4.69l-34.245-19.91c-0.274-0.044-0.483-0.15-0.568-0.33l-1.541-0.896
	c-1.95-1.003-3.91-1.992-5.88-2.963c-7.969,7.456-12.441,15.715-12.188,26.947c6.609,10.638,14.468,21.394,23.494,31.038
	c10.753,9.563,22.852,19.043,27.48,22.62c5.266,3.131,10.775,5.763,16.525,7.75c3.28,1.133,6.844,2.131,10.525,2.867
	c4.75,0.531,11.046,1.029,17.395,0.928c3.834-0.468,7.541-1.455,10.934-3.159c7.968-4.001,13.225-11.22,15.947-19.599
	C436.252,422.197,435.134,405.326,433.097,389.643z"></path>
<path id="color_x5F_1" d="M333.812,203.344c1.266-1.194,3.064-1.823,4.789-1.873c0.331-0.01,1.177,0.111,0.723,0.618
	c-0.441,0.491-1.296,0.711-1.93,0.729c-0.361,0.01-0.656,0.155-0.93,0.414c-0.503,0.475-1.249,0.701-1.93,0.729
	C334.249,203.974,333.304,203.824,333.812,203.344z M293.089,173.273c0.108-0.122-2.287-0.099-2.852,0.537
	c-3.723,4.194-14.735,12.29-7.381,17.945c0.609,0.468,3.089-0.691,2.738-0.961C278.521,185.356,289.513,177.304,293.089,173.273z
	 M299.083,203.961c2.541,0.74,5.025-0.037,7.194-1.436c0.343-0.221,0.921-0.776,0.274-1.054c-0.604-0.259-1.515-0.051-2.046,0.292
	c-0.966,0.622-1.925,1.195-3.103,0.852c-0.682-0.199-1.433-0.064-2.046,0.292C299.059,203.08,298.394,203.76,299.083,203.961z
	 M312.291,178.029c-2.377-0.036-4.726-0.641-6.866-1.662c-0.682-0.325-3.349,0.741-2.355,1.215c2.514,1.198,5.234,1.727,8.009,1.77
	C311.955,179.365,314.229,178.06,312.291,178.029z M303.558,167.208c3.498,0.032,6.999,0.474,9.875,2.616
	c1.079,0.803,3.585-0.702,2.223-1.717c-3.45-2.57-7.677-3.065-11.863-3.104C302.104,164.987,301.598,167.189,303.558,167.208z
	 M435.729,386.853c3.308,24.714,6.034,64.911-24.916,73.226c-16.133,4.335-33.288,0.33-47.925-7.371
	c-0.117,7.209-0.881,15.798-4.379,22.126c-2.982,5.396-8.519,5.488-14.148,5.822c-4.221,0.251-8.442,0.325-12.665,0.339
	c-2.862,0.136-4.78,0.176-4.78,0.176h-18.5c0,0-0.731-0.035-1.764-0.255c-0.011-0.001-0.021-0.001-0.031-0.002
	c-1.738-0.155-4.137-0.255-5.469-1.585c-1.373-1.373-1.572-3.365-1.249-5.498c0.005-0.932,0.157-1.978,0.513-3.16
	c0.713-2.378,2.276-6.652,4.242-11.785c-8.355,0.336-16.701,0.043-25.018-0.688c-3.754-0.329-7.502-0.745-11.242-1.237
	c-10.685-1.402-21.307-3.389-31.828-5.561c0.302,2.597,0.64,5.19,1.055,7.773c0.074,0.467-0.649,0.867-1.393,1.042
	c-1.459,1.451-3.303,2.829-5.406,4.077c-2.344,1.978-5.126,3.68-7.91,3.879c-0.317,0.022-0.654,0.044-1,0.064
	c-12.071,3.84-26.527,3.037-30.664-8.857c-0.036-0.105-0.012-0.211,0.054-0.314c-0.35-0.004-0.606-0.08-0.626-0.258
	c-2.543-22.433,2.255-45.27,7.502-66.981c4.312-17.84,8.842-35.628,14.52-53.088c2.28-7.014,4.657-14,7.135-20.952
	c0.484-1.359,0.972-2.72,1.465-4.076c-14.527,13.667-30.614,25.96-47.757,36.13c-0.418,0.248-0.839,0.496-1.261,0.743
	c-6.688,3.93-13.822,7.805-21.244,11.039c-6.426,2.801-13.064,5.12-19.811,6.57c-5.023,1.081-10.107,1.681-15.205,1.641
	c-8.38-0.066-17.871-1.46-23.477-8.423c-9.749-12.108-5.323-31.353-1.438-44.75c4.828-16.646,11.971-32.604,19.758-48.054
	c11.943-23.694,25.588-46.493,39.838-68.863c-0.056-0.13,0.067-0.29,0.284-0.45c0.114-0.179,0.226-0.358,0.34-0.536
	c0.003-0.006,0.01-0.01,0.014-0.016c-2.759-6.146-3.844-15.786-0.109-21.492c0.031-0.048,0.075-0.092,0.125-0.135
	c-16.313-9.584-31.316-21.178-47.793-30.799c-0.452,0.128-0.917,0.15-1.231-0.011c-9.834-5.035-4.23-19.063,0.254-25.914
	c4.692-7.171,12.737-15.894,22.217-14.243c0.238-0.024,0.465-0.006,0.648,0.064c0.005,0.002,0.009,0.003,0.014,0.005
	c0.114,0.044,0.209,0.093,0.29,0.146c0.159,0.068,0.259,0.155,0.308,0.252c3.289,2.713,7.62,4.716,11.207,6.941
	c8.472,5.253,16.951,10.494,25.435,15.727c8.507,5.246,17.017,10.489,25.543,15.703c3.208,1.961,7.928,5.66,11.153,6.844
	c0.148-0.004,0.28,0.013,0.385,0.059c4.649,2.028,5.313,11.028,6.22,15.271c0.731,3.422,1.811,5.613,5.283,7.027
	c2.528,1.028,5.11,1.829,7.415,3.264c1.298-1.381,2.696-2.396,5.043-2.354c3.451,0.063,1.284,5.89,0.654,7.689
	c-0.057,0.161-0.122,0.324-0.183,0.485c-0.002,0.006-0.004,0.01-0.006,0.016c0.042,0.008,0.077,0.023,0.113,0.038
	c0.019,0.007,0.04,0.012,0.057,0.021c15.566,8.425,29.294,19.784,40.215,33.733c5.049,6.449,9.452,13.581,12.737,21.091
	c0.814,1.861,1.538,3.751,2.219,5.653c0.825-0.313,1.685-0.552,2.529-0.503c1.125,0.064,2.209,0.277,3.332,0.344
	c0.118-0.491,0.236-0.968,0.351-1.413c-0.497-0.005-0.842-0.139-0.694-0.433c1.879-3.764,3.872-7.629,5.081-11.671
	c1.606-5.371-2.439-7.202-6.894-9.11c-3.557-1.522-7.01-2.845-9.008-6.357c-2.059-3.618-3.017-7.707-3.104-11.861
	c-0.385-18.266,8.012-37.423,17.46-52.722c0.104-0.169,0.338-0.316,0.625-0.433c-2.121-1.035-4.154-2.158-6.019-3.4
	c-2.851-1.897-10.517-9.119-5.426-12.639c2.446-1.691,5.63-1.728,8.778-1.457c-5.365-2.81-11.67-6.861-8.953-10.241
	c0.605-1.22,2.689-2.314,5.967-3.056c10.62-3.148,21.843-1.776,32.346,1.416c3.711,1.128,7.427,2.359,11.101,3.721
	c4.414,1.531,8.195,3.148,11.423,4.793c2.462,1.174,4.878,2.43,7.23,3.781c5.472,3.144,15.661,8.91,13.775,16.707
	c-0.008,0.033-0.027,0.064-0.044,0.097l0.714,0.612c8.821,1.047,8.606,10.253,5.076,20.777c-0.593,1.904-1.291,3.764-2.052,5.43
	c-4.709,11.302-11.993,22.769-15.237,26.482c-0.113,0.131-0.335,0.245-0.602,0.338c-1.096,4.152-5.595,6.105-9.678,7.396
	c-7.938,2.509-7.143,13.241-6.936,20.048c0.217,7.188,1.155,14.351,1.303,21.536c18.035,3.262,37.23,5.86,53.546,14.72
	c15.345,8.331,26.335,23.587,32.485,39.622c5.561,14.496,8.058,29.76,11.198,44.892
	C431.681,363.051,434.128,374.885,435.729,386.853z M371.46,317.549c0.032,3.494,0.023,6.99-0.053,10.486
	c-0.46,21.084-2.36,42.095-4.502,63.064c-0.004,0.039-0.02,0.076-0.035,0.112c9.08,5.731,18.026,11.683,26.902,17.733
	c-3.07-15.334-5.313-30.83-8.505-46.146c-1.999-9.595-4.122-19.208-6.992-28.586C376.606,328.758,374.884,322.367,371.46,317.549z
	 M334.376,282.447c1.42-2.685,2.901-5.928,3.539-8.994c1.024-4.929-0.133-9.394-7.236-10.322
	c-8.251-1.078-16.406,1.465-24.636,1.659c-0.071,0.03-0.146,0.061-0.222,0.089c-0.783,2.471-1.297,5.045-2.054,7.516
	c-0.36,1.176-0.653,2.385-1.256,3.365c0.013,0.013,0.03,0.021,0.042,0.035c4.939,6.146,8.854,13.345,14.18,19.148
	c2.434,2.652,4.966,4.053,7.982,0.979c3.336-3.4,6.296-7.457,8.634-11.598C333.679,283.741,334.026,283.11,334.376,282.447z
	 M296.977,277.252c0.429,0.013,0.858-0.014,1.276-0.096c0.342-0.066,0.614-0.201,0.854-0.366c0.961-0.661,1.216-1.993,1.573-3.16
	c0.97-3.163,1.582-6.494,2.742-9.597c-0.96-1.509-2.245-3.096-3.876-3.853c-0.355-0.165-0.722-0.304-1.11-0.378
	c-0.816-0.156-1.538,0.008-2.174,0.367c-0.32,0.182-0.617,0.413-0.894,0.682c0.293,0.498-0.311,1.051-1.045,1.313
	c-0.67,1.058-1.146,2.268-1.445,3.208c-0.895,2.815-2.861,8.315,0.194,10.525C294.174,276.695,295.579,277.208,296.977,277.252z
	 M262.216,249.349c0.172,0.062,0.292,0.133,0.383,0.21c1.541-1.729,3.574-3.047,6.24-3.763c0.037-0.01,0.078-0.018,0.115-0.027
	c-0.063-0.419-0.143-0.834-0.218-1.25c-0.081-0.45-0.153-0.903-0.249-1.351c-0.456-2.126-1.011-4.512-2.377-6.268
	c-0.389-0.5-0.872-1.006-1.418-1.406c-0.055-0.04-0.111-0.08-0.168-0.117c-0.074,0.127-0.146,0.255-0.219,0.383
	c-0.092,0.162-0.189,0.321-0.277,0.484c-1.451,2.7-2.762,5.47-4.141,8.206c-0.636,1.261-0.974,2.385-2.424,2.772
	c-3.295,0.884-5.69-0.494-7.016-3.61c-4.636-10.905-3.115-25.155-10.442-34.892c-0.335,3.526-0.464,7.291-2.015,10.314
	c-0.401,0.783-1.156,1.564-2.044,2.082c-1.054,0.614-2.297,0.852-3.365,0.271c-0.116-0.063-0.231-0.134-0.344-0.217
	c-4.065-3.032-6.21-9.574-8.281-14.022c-2.134-4.584-5.414-10.296-5.788-15.619c-1.866,1.152-4.075,1.626-6.627,0.921
	c-0.213-0.059-0.281-0.165-0.255-0.369c0.112-0.873,0.046-1.649,0.009-2.372c-0.114,0-0.221-0.01-0.305-0.039
	c-2.099-0.718-3.798-1.822-5.601-3.085c-1.173-0.822-2.633-1.962-4.063-2.392c-3.379-1.015-5.952,0.343-8.635,1.723
	c-0.428,1.731-0.915,3.447-1.505,5.126c-2.452,6.979-6.017,15.437-13.049,18.909c-0.076,0.038-0.169,0.068-0.269,0.095
	c-0.51,2.165-1.607,4.488-2.2,6.404c-1.978,6.391-3.965,12.777-5.945,19.167c-4.688,15.13-9.369,30.265-13.896,45.444
	c-1.83,6.134-3.653,12.272-5.354,18.443c-0.73,2.646-1.76,5.481-2.177,8.265c0.672-0.418,1.344-0.836,2.014-1.258
	c1.151-0.725,2.304-1.453,3.447-2.192c1.423-0.92,2.834-1.859,4.209-2.849c1.42-1.021,2.801-2.094,4.161-3.191
	c4.363-3.521,8.499-7.336,12.9-10.817c9.639-7.624,19.72-14.884,30.081-21.503C220.619,256.051,243.114,242.596,262.216,249.349z
	 M268.288,282.181c0.728-0.06,1.5-0.237,2.32-0.563c-0.014-0.105-0.022-0.211-0.035-0.316c-0.759-6.27-0.768-12.599-0.842-18.905
	c-0.04-3.443-0.016-6.965-0.191-10.465c-0.083-1.637-0.215-3.267-0.417-4.883c-0.071,0.018-0.142,0.036-0.21,0.055
	c-7.079,1.95-7.896,11.624-7.981,17.769c-0.041,3.009,0.076,6.01,0.126,9.017c0.01,0.626,0.076,1.25,0.19,1.861
	c0.554,1.57,1.091,2.818,1.589,3.809C264.075,281.279,265.929,282.373,268.288,282.181z M288.868,270.145
	c0.186-0.959,0.439-1.888,0.678-2.719c0.57-1.988,1.318-4.104,2.653-5.732c-3.241-2.287-6.167-4.962-9.194-7.517
	c0.512,1.548,1.036,3.093,1.598,4.628C285.987,262.594,287.45,266.361,288.868,270.145z M309.896,263.251
	c-0.259-0.104-0.509-0.226-0.757-0.351c-4.131-2.078-6.945-6.979-9.172-11.081c-0.229-0.026-0.439-0.075-0.612-0.146
	c-1.264,1.379-3.165,3.331-5.223,4.762c-0.102,0.07-0.203,0.138-0.306,0.205c-0.766,0.51-1.55,0.938-2.328,1.234
	c0.888,0.716,1.795,1.408,2.724,2.072c4.632-2.759,8.888-1.123,11.777,2.88c0.311,0.027,0.505,0.115,0.441,0.278
	c-0.03,0.076-0.056,0.154-0.085,0.23c0.053,0.08,0.102,0.163,0.153,0.244c0.233-0.085,0.456-0.14,0.628-0.144
	c0.721-0.015,1.473-0.065,2.246-0.136C309.554,263.284,309.724,263.269,309.896,263.251z M313.687,262.531
	c5.113,0.41,11.008-6.219,14.6-9.216c0.149-0.125,0.459-0.235,0.811-0.314c-0.053-3.828-0.452-7.796-0.854-11.803
	c-0.05,0.021-0.084,0.047-0.139,0.065c-8.509,2.838-17.301,5.563-25.327,9.649C305.101,255.324,308.733,262.133,313.687,262.531z
	 M343.408,159.865c0.42-0.146,0.673-0.193,0.673-0.193s-0.234,0.025-0.793,0.047C343.336,159.764,343.376,159.813,343.408,159.865z
	 M291.444,222.838c3.136,2.721,2.252,6.924,0.486,10.935c0.104,1.142,1.423,2.854,1.872,3.606c1.163,1.951,2.386,3.866,3.589,5.794
	c0.462,0.741,2.684,3.632,3.535,5.759c0.437-0.035,0.813,0.041,0.957,0.305c0.03,0.055,0.064,0.119,0.095,0.177
	c8.199-4.054,17.053-6.85,25.7-9.733c0.15-0.05,0.276-0.064,0.406-0.084c-0.752-7.653-1.328-15.404,0.697-22.568
	c1.054-3.729,2.927-6.479,6.691-7.812c2.715-0.962,6.811-1.421,8.153-4.381c2.225-4.903-0.565-14.214-8.126-8.989
	c-1.065,0.736-3.492-0.013-1.871-1.133c0.749-0.518,1.525-0.937,2.311-1.268c-0.266-0.115-0.469-0.318-0.535-0.637
	c-1.76-8.471-1.941-17.973,1.398-26.064c0.045-0.11,0.091-0.219,0.138-0.325c0.967-2.269,2.199-4.429,3.776-6.413
	c-8.626-0.063-17.182-0.542-25.619-2.091c-0.765-0.077-1.547-0.159-2.35-0.243c-9.181-0.967-16.338-3.774-21.745-7.117
	c-1.492,2.441-2.897,4.949-4.226,7.502c0.121,0.006,0.245,0.01,0.353,0.044c1.17,0.378,2.482,0.442,3.607,0.929
	c1.062,0.46,1.456,1.673,1.802,2.684c0.209,0.613-2.659,1.477-2.898,0.777c-0.279-0.82-0.625-2.136-1.578-2.44
	c-0.675-0.216-1.372-0.345-2.065-0.494c-1.621,3.22-3.108,6.513-4.461,9.851c0.659-0.113,1.271-0.035,1.278,0.314
	c0.012,0.575,0.112,1.196,0.599,1.567c0.419,0.319,0.926,0.37,1.398,0.376c0.381,0.004,1.181,0.175,0.749,0.714
	c-0.414,0.518-1.289,0.763-1.923,0.755c-1.198-0.013-2.437-0.268-3.14-1.063c-0.561,1.472-1.104,2.949-1.61,4.434
	c-3.156,9.253-6.288,20.026-4.413,29.874c0.771,4.049,2.287,8.961,6.188,11.043C284.113,219.262,288.451,220.24,291.444,222.838z
	 M288.532,240.313c0.323,0.133,0.512,0.395,0.404,0.814c-0.687,2.677-1.287,5.428-1.398,8.197c-0.07,1.729-0.174,4.025,0.824,5.556
	c0.644,0.986,1.541,1.163,2.531,0.874c0.046-0.014,0.092-0.03,0.138-0.045c2.549-0.848,5.656-4.641,6.66-5.762
	c0.095-0.105,0.214-0.19,0.345-0.263c-1.139-2.468-4.299-6.941-4.67-7.532c-0.639-1.018-2.182-2.904-3.244-4.748
	C289.563,238.441,289.012,239.422,288.532,240.313z M280.038,245.195c0.615,1.781,1.203,3.572,1.784,5.367
	c0.437-0.094,0.876-0.064,1.155,0.156c0.489,0.387,0.973,0.78,1.452,1.178c-0.159-2.161,0.177-4.52,0.627-6.658
	c-0.087,0.008-0.179,0.022-0.26,0.021c-1.216-0.012-2.398-0.115-3.594-0.327c-0.334-0.06-0.198-0.074-0.345-0.031
	C280.58,244.983,280.308,245.087,280.038,245.195z M232.021,190.565c-2.824-1.872-5.715-3.636-8.664-5.287
	c-0.655,1.349-1.457,2.646-2.404,3.778c0,0-0.001,0.001-0.002,0.002c0.001,0,0.001,0,0.001,0c0.053,0.029,0.087,0.064,0.085,0.111
	c-0.205,4.314,2.142,8.975,3.832,12.817c1.843,4.189,3.848,8.3,5.904,12.387c0.959,1.906,2.196,4.801,4.195,5.804
	c-0.01-0.005,1.118-3.789,1.196-4.216c0.616-3.358,0.775-6.788,1.442-10.134c0.123-0.622,2.357-1.17,2.794-0.749
	c6.146,5.92,7.81,15.147,9.365,23.181c0.171,0.885,0.399,2.704,0.756,4.856c0.688,4.166,1.86,9.581,4.039,11.958
	c0.55,0.6,1.163,1.004,1.849,1.146c2.168-3.851,3.641-11.811,8.061-12.59c5.522-0.975,7.042,8.601,7.439,12.069
	c1.045,9.144,0.519,18.374,0.969,27.551c0.09,1.821,0.15,3.947,0.332,6.142c0.218,2.643,0.621,5.379,1.465,7.82
	c0.682,1.97,1.645,3.748,3.049,5.111c0.481-0.271,0.91-0.598,1.068-1.263c0.141-0.593,2.619-1.293,2.879-0.64
	c0.395,0.992,1.309,2.866,2.449,4.719c1.954,3.172,4.576,6.268,6.42,4.768c0.582-0.475,1.088-1.397,1.469-2.934
	c1.288-5.197-0.724-10.698-2.358-15.607c-3.938-11.824-8.181-23.658-12.403-35.376c-7.337-20.36-21.236-37.562-38.352-50.55
	C236.657,193.743,234.362,192.117,232.021,190.565z M173.11,185.78c0.244-0.493,0.55-0.975,0.946-1.438
	c2.77-3.237,6.349-5.594,8.953-9.017c1.474-1.938,6.123-10.802,9.854-7.642c2.15,1.822,1.462,7.931,1.193,10.541
	c-0.199,1.935-0.517,3.86-0.918,5.769c2.405-1.161,5.008-2.14,7.616-1.81c4.248,0.537,7.141,3.556,10.781,5.367
	c0.186-0.455,0.497-0.903,1.008-1.357c0.559-0.497,3.351-0.762,2.645-0.135c-1.386,1.231-1.7,7.274,1.468,4.879
	c1.872-1.415,3.182-3.479,4.081-5.624c0.831-1.98,1.512-4.061,1.793-6.197c0.088-0.577,0.145-1.157,0.172-1.741
	c-0.805-0.613-1.389-0.537-1.75,0.229c-0.574,0.733-1.132,1.473-1.76,2.161c-0.507,0.557-3.328,0.884-2.645,0.135
	c0.208-0.228,0.406-0.456,0.602-0.682c-0.023-0.013-0.052-0.021-0.072-0.037c-4.952-3.744-12.271-3.313-13.771-10.327
	c-0.804-3.758-1.42-11.617-4.678-14.889c-0.166,0.011-0.326-0.002-0.473-0.047c-4.168-1.279-8.471-5.026-12.143-7.271
	c-8.525-5.216-17.036-10.456-25.543-15.703c-8.483-5.233-16.964-10.473-25.435-15.727c-3.687-2.287-8.165-4.333-11.482-7.161
	c-8.81-1.769-16.94,9.432-20.266,16.135c-2.916,5.876-6.304,15.959,0.689,20.184c0.341-0.061,0.65-0.058,0.847,0.055
	C128.081,157.766,148.217,175.316,173.11,185.78z M153.257,178.23c-2.771,6.012-1.373,15.153,1.418,20.656
	c8.092,1.404,16.081,3.213,22.338,8.666c0.569-0.077,1.062,0.053,1.109,0.601c5.271-3.674,8.28-10.951,10.177-16.712
	c0.579-1.76,1.127-3.569,1.595-5.406c-0.076-0.104-0.056-0.231,0.097-0.379c1.118-4.51,1.72-9.188,1.021-13.752
	c-0.127-0.834-0.899-2.581-0.309-3.178c-0.937,0.945-1.707,2.043-2.477,3.123c-1.714,2.402-3.457,4.741-5.509,6.869
	c-1.865,1.934-4.414,3.42-5.981,5.617c-2.347,3.287-1.306,6.598,0.251,9.982c0.361,0.786-2.467,1.715-2.898,0.777
	c-1.149-2.5-2.089-5.31-1.486-7.896c-0.449,0.128-0.884,0.183-1.106,0.091C165.149,184.671,159.112,181.59,153.257,178.23z
	 M222.098,311.526c2.966-8.081,6.076-16.109,9.366-24.06c5.031-12.16,10.122-24.986,17.584-35.952l0.367-0.845l0.405-0.271
	c0.124-0.176,0.243-0.356,0.368-0.531c0.123-0.173,0.373-0.311,0.673-0.415c-3.13-0.01-6.292,0.416-9.427,1.144
	c-3.252,0.755-6.474,1.832-9.599,3.089c-4.312,1.732-8.439,3.8-12.206,5.813c-12.35,6.598-24.041,14.78-35.232,23.165
	c-11.301,8.467-21.418,18.098-33.43,25.591c-1.243,0.775-4.135,2.836-5.238,2.154c-0.069-0.043-0.127-0.104-0.181-0.169
	c-0.255-0.308-0.346-0.86-0.163-1.794c2.082-10.621,5.725-21.072,8.837-31.418c4.542-15.097,9.199-30.158,13.871-45.215
	c1.717-5.531,3.438-11.063,5.146-16.597c0.539-1.747,1.594-3.902,1.908-5.829c-6.129-5.822-14.053-7.693-22.184-9.113
	c-12.777,20.047-25.604,40.662-36.648,62.072c-4.638,8.99-8.951,18.122-12.817,27.41c-2.425,5.822-4.691,11.699-6.725,17.65
	c-4.825,14.126-10.783,32.816-4.676,47.531c1.226,2.953,2.981,5.383,5.131,7.326c3.338,3.021,7.631,4.859,12.416,5.59
	c1.031,0.157,2.064,0.274,3.098,0.367c18.883,1.701,38.09-7.027,54.084-16.098c19.422-11.015,37.596-24.656,53.718-40.105
	C220.793,311.779,221.473,311.598,222.098,311.526z M215.396,468.492c-2.561,0.068-5.196,0.109-7.481,0.136
	C210.325,468.905,212.862,468.841,215.396,468.492z M305.45,456.824c0.156-0.402,0.314-0.809,0.473-1.219
	c1.381-4.114,2.754-8.23,4.147-12.34c2.3-6.78,4.593-13.566,7.017-20.305c0.172-0.478,0.338-0.957,0.512-1.434
	c0.513-1.412,1.063-4.488,2.447-5.969c-0.47-0.587-0.938-1.175-1.4-1.767c-4.222-5.4-8.148-11.024-11.787-16.789
	c-0.432-0.113-0.766-0.396-0.787-0.896c-0.006-0.127-0.001-0.247-0.006-0.373c-0.324-0.522-0.658-1.042-0.979-1.567
	c-0.166-0.273,0.334-0.642,0.969-0.875c0.002-0.092,0.01-0.182,0.012-0.272c0.014-0.38,0.028-0.759,0.052-1.132
	c-0.381,0.186-0.926,0.367-1.397,0.354c-0.183-0.005-0.354-0.038-0.499-0.112c-1.072-0.549-1.919-1.293-2.763-2.12
	c-0.094-0.092-0.188-0.18-0.281-0.273c-0.644-0.644,2.073-1.705,2.707-1.07c0.729,0.729,1.457,1.45,2.34,1.979
	c0.919-9.291,5.351-16.529,12.251-23.156c-0.051-0.02-0.099-0.041-0.14-0.07c-1.844-1.307-3.668-3.059-5.141-5.063
	c-0.125,0.106-0.257,0.213-0.398,0.318c0.502,0.193,0.596,0.63-0.453,1.095c-1.906,0.844-4.107,1.091-6.41,0.959
	c3.202,2.286,5.838,5.485,1.942,8.366c0.428,0.206,0.461,0.623-0.521,1.08c-1.27,0.59-2.687,0.881-4.176,0.967
	c2.272,1.762,3.796,4.014,1.056,6.072c0.378,0.219,0.363,0.603-0.601,0.991c-5.321,2.146-12.984-0.892-17.692-3.339
	c-2.73-1.419-10.066-6.608-3.713-8.891c0.872-0.313,1.788-0.506,2.725-0.613c-3.685-2.512-8.341-7.164-2.347-9.722
	c1.758-0.75,3.703-1.042,5.709-1.022c-4.193-2.641-9.603-7.703-2.758-10.669c1.447-0.627,3.791-0.701,6.533-0.364
	c-2.282-1.84-4.269-4.211-4.05-6.437c0.065-0.668,0.337-1.321,0.853-1.944c0.512-0.619,1.263-1.208,2.32-1.747
	c4.09-2.083,14.481-0.062,21.357,3.571c0.402,0.213,0.794,0.432,1.172,0.654c1.298-3.576,2.47-7.217,3.818-10.745
	c0.629-1.645,1.35-4.892,2.631-7.271c-3.603,1.004-8.495,0.291-11.139-0.076c-6.01-0.832-11.87-2.344-17.813-3.523
	c-6.04-1.199-12.106-2.724-17.896-4.835c-1.604-0.585-5.255-1.653-7.714-3.294c-0.177,1.251-0.523,2.554-0.668,3.609
	c-0.641,4.687-1.297,9.37-1.957,14.053c-1.708,12.094-3.438,24.184-5.227,36.265c-1.463,9.881-6.06,23.884,3.725,30.799
	c5.045,3.565,12.688,5.94,19.61,5.51c4.612-0.287,8.897-1.827,11.889-5.095c1.208-1.32,2.212-2.914,2.931-4.832
	c0.14-0.375,0.674-0.656,1.247-0.805c0.505-0.13,1.037-0.156,1.364-0.049c0.245,0.082,0.375,0.236,0.283,0.482
	c-3.958,10.568-16.568,13.133-26.779,11.459c-0.242-0.039-0.482-0.084-0.724-0.129c-0.427-0.079-0.851-0.163-1.267-0.257
	c-5.404-1.217-11.837-4.024-14.967-8.842c-3.278-5.047-2.718-11.323-1.84-17.025c2.078-13.497,4.006-27.018,5.927-40.538
	c0.876-6.167,1.749-12.334,2.598-18.506c0.274-1.993,1.194-5.5,1.019-7.28c-0.049-0.085-0.068-0.188-0.041-0.313
	c0.005-0.038,0.014-0.075,0.027-0.111c0.071-0.209,0.346-0.433,0.689-0.623c-0.197-0.414-0.301-0.852-0.282-1.313
	c0.175-4.409,9.444-5.699,12.444-5.79c4.682-0.141,9.376,0.363,14.024,1.219c0.4-0.168,0.827-0.253,1.146-0.173
	c0.61,0.152,1.628,0.38,2.931,0.677c2.101,0.479,4.951,1.141,8.077,1.973c11.105,2.951,25.658,8.031,22.247,14.565
	c0.146,0.038,0.279,0.094,0.354,0.195c0.02,0.024,0.037,0.05,0.056,0.075c0.277,0.379-0.032,0.766-0.529,1.037
	c-0.046,0.085-0.104,0.197-0.191,0.373c-0.196,0.396-0.383,0.795-0.56,1.201c-0.491,1.132-0.963,2.273-1.416,3.422
	c-1.046,2.656-2.055,5.326-3.044,8.004c-0.97,2.626-1.848,5.324-2.82,7.975c3.442,2.698,4.624,5.89,0.818,8.882
	c0.579,0.11,0.845,0.402-0.035,0.88c-1.14,0.617-2.394,1.004-3.714,1.207c0.077,0.895,0.262,1.781,0.547,2.65
	c0.715,0.875,1.136,1.763,1.178,2.638c1.398,2.505,3.457,4.736,5.594,6.395c0.051-0.046,0.1-0.094,0.151-0.14
	c0.893-0.793,2.605-0.272,2.369,0.663c0.041,0.012,0.084,0.022,0.12,0.04c2.009,0.985,4.007,1.992,5.996,3.012
	c0.169,0.087,0.336,0.176,0.504,0.264c0.021-0.047,0.043-0.094,0.063-0.141c10.715-23.99,13.569-50.137,14.285-76.316
	c-0.354-17.519-0.371-35.725-0.372-37.383c-3.946-0.746-7.906-1.443-11.85-2.152c-0.417,0.289-1.043,0.438-1.562,0.376
	c-2.552,2.184-5.501,5.021-8.719,7.103c-0.292,0.189-0.585,0.374-0.882,0.55c0.087-0.013,0.174-0.024,0.261-0.036
	c6.043-0.849,12.145-1.121,16.72,1.803c9.583,6.126-0.444,20.05-5.063,26.368c-1.312,1.795-3.012,4.149-5.011,6.081
	c-1.668,1.61-3.544,2.923-5.581,3.371c-1.337,0.294-2.743,0.219-4.204-0.397c-3.138-1.322-5.362-5.091-7.22-7.739
	c-3.202-4.565-6.39-9.121-9.851-13.494c-0.034-0.041-0.066-0.084-0.1-0.127c-0.021,0.009-0.043,0.018-0.064,0.025
	c-1.896,0.732-4.514,1.2-6.803,0.812c-0.661-0.112-1.293-0.296-1.872-0.566c0.132,0.386,0.269,0.771,0.397,1.157
	c0.324,0.971,0.639,1.943,0.943,2.921c1.447,4.646,3.713,10.573,1.656,15.392c-0.328,0.768-0.774,1.484-1.303,2.125
	c-0.105,0.129-0.211,0.256-0.324,0.377c-0.086,0.092-0.172,0.18-0.262,0.268c-0.104,0.1-0.214,0.189-0.322,0.283
	c-1.175,1.015-2.644,1.646-4.328,1.555c-4.373-0.239-6.812-4.707-8.442-8.55c-0.094-0.22-0.186-0.438-0.273-0.652
	c-0.247,0.188-0.448,0.422-0.561,0.759c-0.001,0.004-0.004,0.006-0.005,0.01c-0.216,0.663-2.264,1.136-2.794,0.749
	c-3.447-2.516-4.612-7.118-5.211-11.217c-1.675,0.536-3.639,0.823-5.509,0.645c-1.377,4.262-12.969,40.243-19.546,63.593
	c-2.231,9.563-4.189,19.188-5.79,28.883c-3.955,23.964-6.15,48.746-3.641,73.022c0.486,0.101,0.973,0.202,1.459,0.302
	c4.945,1.021,9.913,2.006,14.901,2.906C270.094,455.448,287.763,457.59,305.45,456.824z M312.034,360.586
	c-0.683-1.174-1.221-2.409-1.568-3.677c-1.188-1.183-2.813-2.265-4.207-3.072c-3.922-0.767-7.799-2.386-10.675-3.928
	c-0.443-0.237-0.918-0.517-1.405-0.827c-2.24-0.487-4.484-0.677-6.572-0.327c-8.134,1.362,4.37,9.419,6.249,10.264
	c0.606,0.272,1.296,0.585,2.036,0.913c1.942,0.606,3.795,1.361,5.447,2.148c3.058,1.012,6.255,1.647,8.779,1.041
	c-0.207-0.162-0.158-0.424,0.421-0.799C311.38,361.779,311.847,361.192,312.034,360.586z M298.942,363.369
	c-2.129-0.661-4.182-1.488-6.03-2.34c-2.602-0.76-5.269-1.159-7.718-0.783c-7.33,1.125,2.17,7.977,4.609,9.276
	c3.439,0.56,6.871,1.918,9.637,3.316c0.397,0.201,0.838,0.435,1.295,0.695c1.596,0.276,3.125,0.321,4.451-0.011
	c-0.258-0.102-0.292-0.287,0.137-0.58c4.642-3.17-1.864-7.33-4.693-8.753C300.09,363.919,299.524,363.643,298.942,363.369z
	 M298.273,374.77c-3.923-0.749-7.867-2.405-10.813-3.932c-1.203-0.165-2.387-0.192-3.502-0.002
	c-5.196,0.888,4.853,7.014,5.817,7.432c2.806,1.216,8.035,3.712,11.591,3.215c0.004-0.149,0.154-0.34,0.54-0.577
	C304.887,379.073,300.964,376.283,298.273,374.77z M298.616,348.947c3.124,0.888,6.287,2.098,8.974,3.486
	c0.847,0.207,1.685,0.359,2.498,0.447c0.095-0.982,0.317-1.963,0.73-2.931c0.206-0.481,1.239-0.787,2.015-0.823
	c0.561-0.026,0.988,0.088,0.862,0.382c-0.472,1.104-0.696,2.224-0.741,3.341c0.509-0.082,0.984-0.221,1.436-0.404
	c-0.4-0.086-0.549-0.297-0.051-0.679c2.587-1.983,2.344-4.106,0.582-6.082c-0.215,0.524-0.416,1.055-0.646,1.57
	c-0.146,0.328-0.604,0.578-1.113,0.728c-0.928,0.272-2.033,0.209-1.781-0.354c0.544-1.22,1.047-2.461,1.529-3.714
	c-5.507-3.966-16.175-6.857-19.479-5.876c-7.285,2.165,1.818,9.231,4.484,10.563C298.134,348.71,298.372,348.828,298.616,348.947z
	 M266.63,309.019c0.262,0.343,0.672,0.706,1.263,1.093c7.221,4.726,17.148,6.734,25.545,8.271c4.316,0.79,8.552,1.971,12.878,2.727
	c1.836,0.321,13.17,2.332,15.153-0.489c0.339-0.482,0.413-1.103,0.11-1.9c-0.07-0.188-0.172-0.362-0.262-0.542
	c-2.342-4.63-11.064-6.723-15.342-8.088c-0.688-0.22-1.381-0.422-2.072-0.633c-0.187,0.022-0.364,0.019-0.517-0.025
	c-1.657-0.48-3.34-0.959-5.034-1.425c-5.911-1.627-12.01-3.041-18.085-3.428c-0.327-0.021-0.655-0.025-0.982-0.041
	c-0.609-0.027-1.219-0.069-1.827-0.074c-0.93-0.007-3.965,0.281-6.64,0.933c-1.33,0.323-2.565,0.738-3.413,1.251
	C266.356,307.281,265.904,308.065,266.63,309.019z M322.286,322.751c0.72,0.436,1.355-0.218,1.617-0.556
	c-0.387,0.203-0.876,0.336-1.3,0.346C322.502,322.615,322.394,322.683,322.286,322.751z M404.413,460.221
	c3.834-0.468,7.541-1.455,10.934-3.159c7.968-4.001,13.225-11.22,15.947-19.599c4.958-15.266,3.84-32.137,1.803-47.82
	c-1.743-13.42-4.563-26.63-7.248-39.877c-0.371-1.833-0.74-3.667-1.104-5.502c-2.693-13.609-5.559-27.748-11.037-40.604
	c-3.54-8.307-8.168-16.078-14.555-22.822c-4.579-4.834-9.637-8.687-15.037-11.816c-4.729-2.741-9.723-4.928-14.889-6.736
	c0.006,0.193,0.013,0.386,0.019,0.578c0.491,15.076,1.565,30.139,2.022,45.216c0.066,2.201,0.119,4.402,0.156,6.604
	c0.23-0.063,0.458-0.104,0.662-0.116c0.289-0.017,0.527,0.023,0.644,0.152c4.288,4.781,6.312,11.756,8.149,17.76
	c2.97,9.7,5.236,19.612,7.286,29.543c3.352,16.241,5.688,32.679,9.058,48.909c0.021,0.102-0.023,0.201-0.107,0.298
	c3.758,2.575,7.506,5.165,11.246,7.761c1.186,0.822-1.485,2.001-2.297,1.438c-11.529-8.001-23.12-15.945-34.911-23.567
	c-13.559-8.765-27.388-17.093-41.698-24.577c-0.1-0.002-0.195-0.009-0.286-0.023c-0.274-0.044-0.483-0.15-0.568-0.33
	c-0.017-0.035-0.033-0.071-0.039-0.113c-0.501-0.26-0.999-0.524-1.502-0.783c-1.95-1.003-3.91-1.992-5.88-2.963
	c-7.969,7.456-12.441,15.715-12.188,26.947c6.609,10.638,14.468,21.394,23.494,31.038c8.214,8.774,17.395,16.622,27.48,22.62
	c5.266,3.131,10.775,5.763,16.525,7.75c3.28,1.133,6.844,2.131,10.525,2.867C392.722,460.434,398.709,460.917,404.413,460.221z
	 M116.585,416.355c0.832,0.763,0.018,1.659-0.828,1.916c-0.527,0.16-1.065,0.295-1.598,0.444
	c-2.447,16.677,1.868,33.671-1.013,50.267c-0.076,0.439-0.161,0.88-0.253,1.319c-0.131,0.634-0.28,1.265-0.445,1.892
	c-1.369,5.213-3.958,10.122-8.806,12.924c-5.305,3.066-11.313,3.934-17.33,3.838c-6.337,0.264-13.176-0.369-18.189-4.262
	c-0.792-0.615-1.507-1.286-2.165-1.996c-0.427-0.459-0.834-0.933-1.209-1.427c-2.881-3.8-4.269-8.565-4.834-13.393
	c-1.99-16.972,2.049-34.14-1.17-51.048c-0.006-0.032,0.001-0.064,0.007-0.097c-0.054-0.019-0.108-0.034-0.162-0.052
	c-0.865-0.294-0.749-1.239-0.149-1.729c6.632-5.413,16.872-5.877,25.021-5.661c7.421,0.196,14.822,1.073,22.047,2.744
	c0.464-0.486,1.302-0.801,1.941-0.505c2.175,1.008,4.264,1.704,6.222,2.775c0.355,0.116,0.717,0.219,1.071,0.34
	c0.505,0.172,0.684,0.452,0.662,0.751C115.804,415.689,116.199,416.002,116.585,416.355z M62.033,415.217
	c15.634,4.942,33.593,5.937,49.603,1.931c0.027-0.148,0.047-0.298,0.075-0.447c0.021-0.107,0.111-0.208,0.24-0.302
	c0.013-0.01,0.026-0.02,0.04-0.029c-0.014-0.009-0.028-0.017-0.043-0.025c-0.037-0.021-0.074-0.042-0.111-0.063
	c-9.166-2.988-18.974-4.649-28.604-4.757C76.465,411.448,68.052,411.449,62.033,415.217z M104.862,482.237
	c0.605-0.657,1.178-1.367,1.685-2.177c3.477-5.547,4.286-12.258,4.451-18.682c0.358-13.952-1.798-28.036,0.245-41.903
	c-15.949,3.815-33.67,2.934-49.319-1.733c2.463,15.162-0.55,30.475,0.546,45.711c0.45,6.253,1.516,13.526,6.109,18.229
	c3.741,3.83,8.591,5.433,13.671,5.928c0.29-0.084,0.546-0.134,0.687-0.12c1.496,0.14,3.047,0.245,4.614,0.284
	c1.485-0.041,2.964-0.139,4.416-0.274c0.495-0.046,0.693,0.006,0.709,0.107c4.187-0.423,8.179-1.665,11.246-4.437
	C104.246,482.877,104.56,482.566,104.862,482.237z M168.64,401.492c0.859,0.744-0.005,1.67-0.828,1.916
	c-0.299,0.089-0.603,0.163-0.903,0.247c-1.711,12.576,1.835,25.565-0.951,37.961c-2.303,10.245-10.608,13.533-19.858,13.563
	c0,7.272,0,14.545,0,21.817c3.094,0.257,6.171,0.686,9.211,1.302c0.562,0.113,1.119,0.245,1.679,0.371
	c0.11-0.05,0.226-0.098,0.345-0.14c0.543-0.195,1.136-0.294,1.433-0.162c0.48,0.213,0.95,0.41,1.414,0.604
	c1.052,0.44,2.063,0.868,3.033,1.399c0.286,0.093,0.576,0.174,0.862,0.27c0.016,0.006,0.032,0.01,0.048,0.016
	c0.269,0.091,0.304,0.233,0.194,0.392c0.383,0.26,0.764,0.536,1.135,0.858c0.578,0.5-0.94,1.07-1.19,1.146
	c-13.6,4.058-29.122,3.376-42.52-1.11c-0.472-0.158-0.247-0.58,0.029-0.799c4.852-3.854,11.932-4.488,17.903-4.439
	c1.176,0.01,2.352,0.049,3.525,0.105c0-7.242,0-14.486,0-21.729c-0.015-0.001-0.029-0.002-0.045-0.003
	c-0.159-0.011-0.319-0.021-0.479-0.033c-0.229-0.018-0.456-0.026-0.685-0.047c-0.138-0.012-0.227-0.035-0.294-0.063
	c-8.142-0.964-14.229-5.312-15.368-15.236c-1.433-12.471,1.457-25.065-0.857-37.489c-0.802-0.311-0.695-1.233-0.102-1.705
	c5.029-3.995,12.518-4.446,18.67-4.267c5.434,0.159,10.823,0.794,16.1,1.99c0.48-0.362,1.168-0.561,1.714-0.318
	c1.618,0.718,3.1,1.249,4.514,2.022c0.28,0.092,0.563,0.171,0.844,0.266c0.472,0.16,0.659,0.413,0.665,0.688
	C168.132,401.072,168.387,401.273,168.64,401.492z M146.099,478.542c0,0.98,0,1.96,0,2.94c0,1.032-2.898,1.54-2.898,0.775
	c0-1.317,0-2.635,0-3.952c-5.173-0.364-12.573-0.887-17.288,1.829c-0.425,0.244-0.834,0.506-1.211,0.805
	c0.362-0.288,3.409,0.964,3.859,1.074c0.063,0.016,0.128,0.03,0.191,0.045c1.938,0.471,3.895,0.904,5.869,1.191
	c3.676,0.535,7.378,0.916,11.098,0.914c4.492-0.003,8.947-0.305,13.328-1.147c0.979-0.188,1.956-0.403,2.929-0.649
	c-0.068-0.05-0.138-0.091-0.206-0.139c-0.313-0.218-0.626-0.414-0.94-0.594C156.055,480.098,151.097,479.046,146.099,478.542z
	 M164.38,402.072c0.002-0.01,0.003-0.02,0.005-0.029c0.011-0.055,0.042-0.107,0.083-0.158c-0.069-0.022-0.139-0.045-0.209-0.066
	c-6.565-2.082-13.566-3.294-20.446-3.351c-4.737-0.04-10.442-0.063-14.77,2.316c11.201,3.392,23.8,4.054,35.229,1.313
	C164.309,402.088,164.345,402.08,164.38,402.072z M161.463,447.01c2.016-4.308,2.413-9.15,2.426-13.855
	c0.028-9.578-1.208-19.24,0.12-28.763c-11.495,2.622-24.043,2.021-35.352-1.199c1.62,10.964-0.5,21.999,0.314,33.009
	c0.341,4.607,1.104,10.099,4.586,13.51c2.222,2.176,4.894,3.336,7.744,3.893c0.678,0.133,1.365,0.229,2.059,0.299
	c0.217-0.055,0.401-0.084,0.514-0.074c0.121,0.011,0.244,0.019,0.365,0.029c0.802-0.279,1.777-0.285,1.848,0.121
	c0.461,0.021,0.922,0.037,1.384,0.042c0.99-0.031,1.979-0.095,2.957-0.183c0.286-0.025,0.465-0.017,0.576,0.014
	c4.255-0.488,8.155-2.151,10.281-6.438C161.351,447.28,161.4,447.143,161.463,447.01z M511.896,483.402
	c-6.028-1.035-14.11-0.465-17.822-5.845c-13.399,3.79-28.564,3.06-41.692-1.337c-0.472-0.158-0.247-0.58,0.029-0.799
	c1.051-0.834,2.21-1.51,3.436-2.068c1.1-0.501,2.255-0.902,3.443-1.221c3.605-0.965,7.506-1.179,11.023-1.149
	c1.176,0.01,2.351,0.049,3.524,0.106c0-12.299,0-24.598,0-36.896c-0.533-0.134-1.057-0.284-1.571-0.448
	c-0.584-0.006-1.165-0.031-1.739-0.098c-0.289-0.033-0.105-0.217,0.267-0.424c-1.483-0.578-2.884-1.287-4.206-2.104
	c-3.401-2.103-6.287-4.939-8.729-8.218c-5.862-7.87-9.182-18.27-11.023-27.082c-0.01-0.046-0.004-0.092,0.013-0.137
	c-0.075-0.025-0.151-0.047-0.227-0.072c-0.866-0.295-0.748-1.237-0.149-1.729c6.917-5.671,17.584-6.225,26.106-6.064
	c6.549,0.124,13.095,0.76,19.536,1.947c0.014-7.681,0.09-15.358-0.432-23.026c-0.17-0.032-0.283-0.097-0.303-0.204
	c-1.01-5.652,7.116-12.093,10.598-15.484c2.938-2.861,6.096-5.238,5.602-9.846c-0.487-4.554-2.063-8.92-1.681-13.539
	c-3.204-0.43-7.55-1.383-6.181-4.6c1.855-4.359,9.281-4.784,13.291-5.23c1.991-0.221,1.199,1.713-0.32,1.883
	c-2.254,0.25-9.908,0.58-10.236,3.649c-0.268,2.491,5.429,2.467,7.028,2.717c1.786,0.28,0.479,1.807-0.739,1.899
	c-0.151,7.634,4.427,14.474-1.942,20.693c-3.557,3.474-12.098,9.785-12.579,15.584c0.158,0.112,0.266,0.275,0.283,0.504
	c0.651,8.518,0.552,17.041,0.544,25.574c0.663,0.142,1.323,0.295,1.982,0.449c0.452-0.517,1.324-0.866,1.986-0.56
	c2.331,1.08,4.569,1.827,6.667,2.975c0.39,0.128,0.784,0.239,1.173,0.372c0.521,0.179,0.697,0.471,0.661,0.78
	c0.438,0.319,0.872,0.66,1.295,1.048c0.539,0.495,0.383,1.043-0.022,1.438c-2.111,9.792-6.319,19.442-13.468,26.399
	c0.062,0.104,0.102,0.223,0.104,0.368c0.192,16.982,0.235,33.966,0.389,50.948c2.706,7.359,11.535,6.44,17.93,7.539
	C515.266,482.359,512.604,483.524,511.896,483.402z M450.044,394.142c0.057,0.019,0.112,0.036,0.169,0.054
	c17.267,5.47,37.227,6.439,54.786,1.699c-0.064-0.044-0.128-0.09-0.193-0.132c-0.316-0.208-0.637-0.404-0.962-0.587
	c-0.851-0.277-1.7-0.559-2.562-0.814c-8.896-2.643-18.277-4.109-27.518-4.283c-5.692-0.107-12.521-0.178-18.398,1.641
	C453.468,392.307,451.673,393.096,450.044,394.142z M473.931,432.378c0.485-0.82,2.805-1.157,2.805-0.474c0,0.16,0,0.319,0,0.479
	c4.742-0.809,9.697-3.703,13.02-6.359c8.854-7.081,13.623-17.232,16.051-28.096c-17.809,4.887-38.022,4.1-55.706-1.207
	C453.169,410.339,459.807,427.33,473.931,432.378z M476.735,471.276c2.26,0.188,4.51,0.475,6.743,0.852
	c1.39,0.234,2.771,0.51,4.146,0.821c0.246-0.113,0.518-0.208,0.782-0.272c0.4-0.099,0.778-0.127,0.996-0.03
	c0.247,0.109,0.49,0.213,0.733,0.316c0.952,0.405,1.872,0.775,2.759,1.197c-0.001-0.158-0.002-0.316-0.003-0.475
	c-0.141-15.995-0.194-31.991-0.366-47.986c-1.462,1.158-3.018,2.224-4.694,3.157c-3.251,1.812-7.15,3.589-11.096,4.415
	C476.735,445.939,476.735,458.608,476.735,471.276z M492.612,476.646c-0.232-0.17-0.465-0.324-0.697-0.471
	c-0.15-0.093-0.301-0.177-0.45-0.262c-4.774-1.537-9.732-2.588-14.729-3.092c0,0.98,0,1.96,0,2.939c0,1.033-2.898,1.541-2.898,0.777
	c0-1.318,0-2.636,0-3.953c-5.272-0.371-12.867-0.917-17.564,1.98c-0.325,0.2-0.637,0.418-0.933,0.652
	c0.362-0.288,3.409,0.964,3.859,1.074c0.069,0.017,0.138,0.032,0.207,0.049c1.933,0.469,3.884,0.9,5.854,1.188
	c3.676,0.535,7.378,0.916,11.097,0.914c2.1-0.002,4.189-0.074,6.269-0.229C485.991,477.964,489.325,477.479,492.612,476.646z
	 M526.654,350.445c-2.713-2.658-5.394-4.71-5.694-8.756c-0.354-4.755,1.908-9.311,1.756-14.117c3.035-0.436,6.648-1.357,6.351-4.129
	c-0.511-4.774-9.284-5.221-12.805-5.612c-1.28-0.143-3.02,1.675-1.061,1.893c3.161,0.352,8.032,0.581,10.372,3.019
	c2.726,2.841-4.371,3.127-5.787,3.348c-1.492,0.234-2.304,2.192-0.32,1.883c0.099-0.016,0.219-0.03,0.333-0.045
	c0.531,7.932-4.599,14.922,1.923,21.355c3.574,3.524,12.38,9.969,12.671,15.84c-0.148,0.091-0.257,0.192-0.292,0.305
	c-0.392,1.264-0.15,2.973-0.182,4.272c-0.094,4.06-0.152,8.12-0.214,12.182c-0.19,12.63-0.333,25.261-0.472,37.892
	c-0.139,12.744-0.266,25.488-0.374,38.232c-0.035,4.202-0.069,8.404-0.093,12.606c-0.007,1.279-0.416,3.366-0.02,4.638
	c-2.574,6.824-10.741,5.85-16.741,6.881c-1.224,0.211-2.521,1.586-0.494,1.238c7.094-1.219,17.14-0.469,20.144-8.668
	c0.018-0.048,0.017-0.09,0.006-0.127c0.001-0.004,0.004-0.008,0.005-0.012c0.001-0.006,0.002-0.012,0.003-0.018
	s-0.008-0.01-0.012-0.016c-0.383-1.153-0.001-3.089,0.006-4.269c0.02-4.097,0.055-8.194,0.088-12.291
	c0.103-12.331,0.227-24.661,0.359-36.991c0.135-12.544,0.279-25.088,0.459-37.631c0.063-4.372,0.13-8.743,0.22-13.115
	c0.022-1.089-0.11-2.633-0.046-3.922c0.236-0.123,0.404-0.267,0.433-0.422C538.19,360.215,530.155,353.876,526.654,350.445z" fill="#0a1230"></path>
</svg>