<?xml version="1.0" standalone="no"?>
<svg version="1.1" id="Layer_1" xmlns="http://www.w3.org/2000/svg" xmlns:xlink="http://www.w3.org/1999/xlink" x="0px" y="0px" width="595.279px" height="595.281px" viewBox="0 0 595.279 595.281" enable-background="new 0 0 595.279 595.281" xml:space="preserve">
<path id="color_x5F_2" fill="#6c63ff" d="M452.796,295.836c-0.105-0.695-0.215-1.391-0.33-2.084l3.5-2.381
	C454.572,292.721,453.55,294.221,452.796,295.836z M503.851,362.25c1.374,0.408,4.708,1.039,9.333-0.42
	c-2.173,0.35-4.374,0.508-6.547,0.479C505.729,362.295,504.796,362.278,503.851,362.25z M464.255,306.702
	c4.137-3.662,7.532-7.99,11.754-11.52c1.972-1.648,7.585-4.445,6.617-7.619c-0.219-0.715-0.486-1.377-0.783-2.012l-2.579-3.563
	c-0.691-0.615-1.479-1.143-2.375-1.57c-5.856,2.955-11.597,6.072-16.671,10.279c-1.534,1.27-2.708,2.59-3.62,3.992
	c0.044,0.01,0.089,0.016,0.127,0.029C461.641,296.596,463.066,301.958,464.255,306.702z M526.963,353.891
	c-2.129-8.256-3.839-16.977-4.252-25.512c-0.291-5.994,0.021-13.557-4.524-18.158c-4.882-4.941-10.937-8.598-16.714-12.395
	c-2.551-1.678-5.084-3.52-7.703-5.207l-8.403-4.113c-0.241,1.156-0.902,2.27-2.117,3.256c-6.636,5.385-12.062,11.945-18.88,17.152
	c-0.413,0.316-2.359,1.119-2.6,0.189c-1.126-4.35-2.077-10.08-6.235-12.486c-1.093,2.355-1.615,4.975-1.9,8.029
	c-0.113,1.209-2.482,1.639-2.882,0.621c-0.002-0.004-0.002-0.012-0.006-0.016c-0.018-0.033-0.03-0.072-0.031-0.115
	c0-0.002,0-0.006,0-0.008c-0.02-0.086-0.031-0.176-0.021-0.279c0.002-0.023,0.005-0.045,0.007-0.066
	c-0.106-3.674-0.6-7.414-1.232-11.094c-2.697,3.451-5.483,7-7.484,10.848c-0.044,0.084-0.116,0.162-0.202,0.234
	c-0.653,0.643-2.647,0.879-2.684,0.381c0-0.006-0.004-0.01-0.004-0.018c0.001-0.051,0.003-0.111,0.004-0.168
	c0.064-2.848,0.568-8.971,2.207-14.025c-5.896,0.002-12.428-0.133-17.91,2.32c-5.792,2.594-10.367,7.268-13.705,12.615
	c-5.966,9.561-8.875,20.48-13.417,30.711c-0.076,0.172-0.228,0.318-0.417,0.439c0.12,0.123,0.109,0.299,0,0.482
	c0.042-0.021,0.084-0.047,0.126-0.07c0.001-0.047,7.376,2.891,8.389,3.336c2.309,1.02,4.655,2.053,6.862,3.307
	c-0.105-3.703-0.066-7.408,0.249-11.084c0.773-9.004,6.428-15.822,9.454-24.064c0.309-0.842,3.155-1.197,2.877-0.438
	c-3.009,8.195-8.817,15.074-9.453,24.063c-0.604,8.535-0.045,17.16,0.737,25.666c1.038,11.281,2.481,22.553,4.404,33.719
	c0.043,0.252-0.16,0.484-0.472,0.674h73.061c-0.984-10.645-3.242-21.154-2.835-31.891c0.002-0.055,0.016-0.104,0.029-0.154
	c-1.282-0.318-2.54-0.678-3.729-1.129c-0.207-0.078-0.208-0.197-0.087-0.332c-0.421-0.008-0.737-0.131-0.737-0.402
	c0-9.826,0-19.652,0-29.48c0-1.076,2.897-1.604,2.897-0.777c0,9.826,0,19.652,0,29.48c0,0.133-0.045,0.258-0.123,0.373
	c0.178-0.02,0.332-0.014,0.433,0.023c5.068,1.92,10.979,2.234,16.332,2.604c5.131,0.352,10.267,0,14.903-1.74
	c4.195-2.195,6.934-4.236,7.946-5.043C527.047,354.079,526.989,353.997,526.963,353.891z M449.082,291.538
	c-0.192-1.035-0.39-2.066-0.591-3.084c-0.239-1.215-0.442-2.574-0.736-3.908c-2.321-0.389-4.247,8.73-5.172,14.801
	c1.771-2.516,3.705-4.938,5.552-7.33C448.288,291.815,448.659,291.649,449.082,291.538z M396.092,339.803
	c-0.036,0.037-0.072,0.074-0.109,0.109l13.202,5.658c-3.187-1.912-6.749-3.316-10.131-4.736
	C398.653,340.667,397.367,340.286,396.092,339.803z"></path>
<path id="color_x5F_1" d="M435.584,265.702c-6.445,0.26-2.562-11.891-1.388-15.137c0.284-0.785,3.102-1.125,2.867-0.479
	c-0.713,1.971-4.332,14.506-0.253,14.342C438.739,264.35,436.413,265.667,435.584,265.702z M451.841,266.094
	c-0.697-0.057-1.518,0.232-1.898,0.846c-0.523,0.848-0.897,1.264-1.787,1.139c-0.654-0.092-1.565,0.248-1.897,0.848
	c-0.356,0.643,0.308,0.988,0.842,1.063c2.361,0.33,4.365-0.867,5.583-2.832C453.062,266.545,452.359,266.135,451.841,266.094z
	 M449.638,243.542c1.019,0.924,3.495-0.576,2.216-1.738c-2.228-2.023-5.487-1.688-8.194-1.039c-1.819,0.438-1.239,2.547,0.566,2.115
	C446.086,242.434,448.112,242.157,449.638,243.542z M433.675,241.803c-2.229-2.023-5.487-1.688-8.194-1.039
	c-1.82,0.438-1.24,2.547,0.566,2.115c1.859-0.445,3.886-0.725,5.412,0.662C432.477,244.465,434.953,242.965,433.675,241.803z
	 M429.317,248.504c-0.517,0.047-1.614,0.422-1.614,1.105c0,0.85,0,1.699,0,2.551c0,0.701,0.714,0.891,1.31,0.836
	c0.517-0.049,1.614-0.422,1.614-1.105c0-0.852,0-1.701,0-2.551C430.627,248.639,429.913,248.45,429.317,248.504z M447.78,249.78
	c-0.517,0.049-1.613,0.422-1.613,1.105c0,0.852,0,1.701,0,2.551c0,0.701,0.713,0.893,1.309,0.836
	c0.517-0.047,1.614-0.422,1.614-1.104c0-0.852,0-1.701,0-2.553C449.089,249.915,448.376,249.723,447.78,249.78z M529.722,353.958
	c-1.26,1.232-2.646,2.313-4.117,3.262c-0.038,12.145-0.519,24.283-0.28,36.428c0.016,0.746-2.89,1.16-2.896,0.777
	c-0.234-11.855,0.217-23.709,0.274-35.564c-2.979,1.463-6.215,2.443-9.518,2.973c-2.173,0.35-4.374,0.508-6.547,0.479
	c-0.908-0.014-1.841-0.031-2.786-0.059c-3.807-0.105-7.847-0.375-11.695-1.063c-0.273,10.346,1.899,20.492,2.84,30.758
	c0.118,1.281-2.789,1.957-2.896,0.777c-0.003-0.035-0.007-0.068-0.01-0.104c-0.984-10.645-3.242-21.156-2.835-31.891
	c0.002-0.055,0.016-0.105,0.029-0.154c-1.282-0.32-2.54-0.678-3.729-1.129c-0.207-0.078-0.208-0.199-0.087-0.332
	c-0.421-0.008-0.737-0.131-0.737-0.404c0-9.826,0-19.652,0-29.479c0-1.076,2.897-1.605,2.897-0.777c0,9.826,0,19.652,0,29.479
	c0,0.135-0.045,0.26-0.123,0.373c0.178-0.018,0.332-0.014,0.433,0.025c5.068,1.92,10.979,2.232,16.332,2.602
	c5.131,0.354,10.267,0.002,14.903-1.738c1.226-0.459,2.413-1.025,3.559-1.693c0.071-0.271,0.511-0.49,1.031-0.637
	c1.167-0.768,2.287-1.65,3.341-2.682c0.007-0.008,0.02-0.014,0.026-0.021c-0.003-0.002-0.007-0.006-0.011-0.01
	c-0.069-0.072-0.127-0.154-0.153-0.26c-2.129-8.256-3.839-16.977-4.252-25.512c-0.291-5.994,0.021-13.557-4.524-18.158
	c-4.882-4.941-10.937-8.598-16.714-12.395c-2.551-1.678-5.084-3.52-7.703-5.207c-2.66-1.713-5.418-3.242-8.375-4.277
	c-0.01,0.055-0.017,0.109-0.028,0.164c-0.241,1.156-0.902,2.27-2.117,3.256c-6.636,5.385-12.062,11.945-18.879,17.152
	c-0.414,0.316-2.36,1.119-2.601,0.189c-1.126-4.35-2.077-10.08-6.235-12.486c-1.093,2.355-1.615,4.975-1.9,8.029
	c-0.113,1.209-2.482,1.639-2.882,0.621c-0.002-0.004-0.002-0.012-0.005-0.016c-0.019-0.033-0.031-0.072-0.032-0.115
	c0-0.002,0-0.006,0-0.008c-0.02-0.086-0.031-0.176-0.021-0.279c0.002-0.023,0.005-0.045,0.007-0.066
	c-0.106-3.674-0.6-7.414-1.232-11.094c-2.697,3.451-5.483,7-7.484,10.848c-0.044,0.084-0.116,0.162-0.202,0.234
	c-0.653,0.643-2.647,0.879-2.684,0.381c0-0.006-0.004-0.01-0.004-0.018c0.001-0.051,0.003-0.111,0.004-0.168
	c0.065-2.848,0.568-8.971,2.207-14.025c-5.896,0.002-12.428-0.133-17.91,2.32c-5.792,2.594-10.367,7.268-13.705,12.615
	c-5.966,9.561-8.875,20.48-13.417,30.711c-0.076,0.172-0.228,0.318-0.417,0.439c0.12,0.123,0.109,0.299,0,0.482
	c0.042-0.021,0.084-0.047,0.126-0.07c0.001-0.047,7.376,2.891,8.39,3.336c2.308,1.02,4.654,2.053,6.861,3.307
	c-0.105-3.703-0.066-7.408,0.249-11.084c0.773-9.004,6.428-15.822,9.454-24.064c0.31-0.842,3.155-1.197,2.877-0.438
	c-3.009,8.195-8.816,15.074-9.453,24.063c-0.604,8.535-0.045,17.16,0.737,25.666c1.038,11.281,2.482,22.553,4.404,33.719
	c0.043,0.252-0.16,0.484-0.472,0.674c-0.797,0.482-2.328,0.674-2.426,0.104c-1.188-6.906-2.213-13.857-3.06-20.828
	c-0.58,0.623-1.158,1.184-1.596,1.629c-3.08,3.148-6.449,6.045-10.069,8.559c-6.804,4.721-16.257,10.365-24.962,8.613
	c-4.081-0.82-6.888-2.945-9.577-6.045c-4.331-4.986-8.313-10.334-11.931-15.861c-8.458-12.924-14.735-27.68-18.356-42.678
	c-0.072-0.297,0.01-0.563,0.177-0.787c-4.593-6.553-21.554-24.641-9.365-29.631c1.3-1.629,3.133-2.908,5.063-3.406
	c-0.244-0.205-0.272-0.52,0.126-0.941c1.012-1.078,2.283-2.08,3.69-2.695c-0.017-0.133,0.013-0.289,0.1-0.469
	c1.396-2.918,3.494-9.957,8.096-8.189c0.396-2.926,2.07-5.74,4.496-7.688c0.118-0.096,0.25-0.164,0.386-0.221
	c0.003,0,0.007-0.002,0.01-0.004c0.033-0.016,0.073-0.027,0.109-0.043c0.062-0.023,0.12-0.051,0.188-0.07
	c5.086-1.549,10.917-0.885,13.506,4.324c1.866,3.754,1.167,8.941-2.157,11.684c-0.38,0.313-0.798,0.588-1.232,0.84
	c0.954,1.449,0.048,4.496-0.504,6.119c-2.146,6.314-1.242,12.723-2.805,19.193c-0.011,0.047-0.034,0.09-0.064,0.133
	c0.187,0.055,0.322,0.152,0.369,0.307c2.481,8.242,8.811,15.771,13.889,22.541c3.824,5.102,7.729,10.18,11.856,15.055
	c3.198-4.818,7.146-9.102,11.213-13.199c-0.659-0.367-1.114-0.752-1.104-1.123c0.008-0.27,0.283-0.477,0.612-0.631
	c-0.237-0.158-0.338-0.422-0.165-0.809c5.624-12.666,8.766-27.045,18.604-37.365c8.231-8.633,18.511-9.879,29.838-9.949
	c1.243-3.023,2.992-5.367,5.429-5.896c-0.271-0.939-0.608-1.84-1.073-2.629c-1.078-1.828-9.091-0.408-11.272-0.59
	c-16.236-1.357-15.065-18.9-14.182-32.467c-0.396,0.076-0.779,0.063-1.035-0.096c-8.719-5.381-21.163-19.42-17.519-30.723
	c1.541-4.775,5.137-7.701,9.537-9.34c0.576-0.305,1.198-0.51,1.893-0.611c0.477-0.133,0.958-0.258,1.447-0.365
	c6.499-1.434,10.742,1.893,16.073,4.471c1.145-7.049,10.024-10.164,16.558-10.129c4.387,0.023,8.069,1.471,11.432,4.318
	c3.856,3.268,7.431,7.785,12.252,9.459c0.297-0.131,0.637-0.186,0.979-0.104c6.754,1.623,17.545-1.777,22.1,5.25
	c3.184,4.914,4.43,11.775,3.34,17.551c-2.667,14.123-7.12,30.211-20.212,37.9c0.12,1.193,0.288,2.387,0.513,3.576
	c3.173,1.205,6.506,4.418,7.129,7.721c0.309-0.082,0.608-0.105,0.834-0.037c6.439,1.979,12.067,6.238,17.56,10.02
	c5.741,3.951,12.412,7.426,17.106,12.691c4.662,5.23,4.088,12.02,4.738,18.549c0.859,8.609,2.089,17.121,4.252,25.51
	c0.056,0.211-0.011,0.41-0.149,0.586C529.824,353.749,529.85,353.833,529.722,353.958z M422.537,237.87
	c-0.323,0.271-0.527,0.445-0.527,0.445v0.248C422.181,238.327,422.359,238.098,422.537,237.87z M477.794,263.004
	c-0.147,0.057-0.302,0.104-0.453,0.154c0.032,0.059,0.054,0.123,0.066,0.195L477.794,263.004z M349.592,285.809
	c2.81,2.879,8.562,3.313,10.911-0.385c1.584-2.49,1.653-6.154,0.042-8.664c-2.191-3.41-5.77-3.842-9.409-2.85
	C347.846,276.752,346.195,282.331,349.592,285.809z M339.761,288.049c0.043,0.004,0.086-0.004,0.13,0
	c0.581,0.043,1.162,0.188,1.72,0.408c0.354-0.645,0.701-1.289,1.005-1.959c0.437-0.961,1.695-3.357,0.854-4.396
	c-0.199-0.246-0.338-0.232-0.325-0.27c-0.233,0.197-0.444,0.422-0.626,0.666c-0.506,0.68-0.917,1.438-1.282,2.199
	C340.71,285.801,340.268,286.94,339.761,288.049z M335.398,292.114c1.361,0.176,2.678,0.828,3.796,2.133
	c0.066,0.078,0.136,0.162,0.204,0.242c0.688-0.154,1.442-0.045,1.684,0.518c0.141,0.328,0.851,1.217,0.687,1.346
	c0.373-0.295,0.662-0.799,0.747-1.268c0.246-1.346-0.217-2.559-1.099-3.588c-0.642-0.021-1.144-0.293-0.961-0.867
	c-1.72-1.135-3.487-0.178-5.013,1.445C335.43,292.088,335.412,292.1,335.398,292.114z M330.93,295.034
	c2.872,0.006,5.896,1.613,7.784,3.93c-0.068-0.24-0.145-0.477-0.252-0.705c-0.403-0.844-0.89-1.646-1.48-2.373
	c-0.754-0.93-1.63-1.852-2.795-2.26C332.695,293.1,331.762,294.004,330.93,295.034z M399.054,340.834
	c-0.4-0.168-1.687-0.549-2.962-1.031c-0.036,0.037-0.072,0.074-0.109,0.109c-4.241,4.311-8.285,8.865-11.432,14.045
	c0.783,0.902,1.555,1.813,2.355,2.699c0.61,0.674-2.132,1.699-2.711,1.061c-5.89-6.508-11.326-13.5-16.53-20.561
	c-4.84-6.563-10.936-13.875-13.325-21.816c-0.043-0.145,0.015-0.287,0.136-0.422c-0.27-0.031-0.438-0.117-0.398-0.273
	c0.824-3.412,1.161-6.713,1.134-10.207c-0.013-1.5-0.229-3.1,0.199-4.564c0.633-2.162,3.722-7.861,2.243-9.992
	c-0.296,0.08-0.596,0.15-0.899,0.207c-1.408,1.764-3.566,8.314-3.837,8.994c-1.98,4.971-4.578,7.791-4.749,13.498
	c-0.025,0.826-2.91,1.195-2.897,0.775c0.196-6.541,3.918-11.242,5.921-17.238c0.709-2.125,1.426-4.268,2.722-5.826
	c-2.681-0.129-5.287-1.15-6.967-3.182c-0.4-0.484-0.726-0.992-1.008-1.508c-0.64,1.572-1.553,3.133-2.188,4.246
	c0.775,0.748,1.371,1.674,1.618,2.719c0.688,2.91-1.512,5.41-3.761,5.604c0.083,0.322,0.143,0.65,0.144,0.98
	c0.002,0.992-0.834,1.563-1.749,1.893c0.232,0.537,0.408,1.094,0.505,1.66c0.275,1.633-0.172,3.639-2.243,3.785
	c-2.646,0.188-4.178-1.799-6.26-3.146c-1.414-0.916,1.094-2.449,2.221-1.723c1,0.648,5.039,3.967,2.598,0.096
	c-0.751-1.191-1.558-2.553-2.819-3.283c-3.483-2.016-8.334-0.184-7.368,4.314c0.356,1.666,0.892,3.242,1.706,4.75
	c3.368,6.236,8.299,11.328,12.049,17.293c0.305,0.484,0.129,0.943-0.25,1.275c3.294,13.33,8.64,26.648,15.916,38.303
	c3.078,4.93,6.431,9.713,10.037,14.271c2.6,3.285,5.559,7.912,9.723,9.328c8.542,2.906,18.313-2.959,24.964-7.855
	c3.081-2.27,6.098-4.699,8.733-7.482c1.044-1.104,3.509-3.16,3.482-4.852c-0.001-0.096,0.016-0.184,0.041-0.27
	c-0.403-3.672-0.761-7.348-1.055-11.023c-0.251-3.152-0.486-6.326-0.638-9.508c-0.006-0.004-0.016-0.006-0.021-0.012
	c-0.685-0.5-1.403-0.957-2.136-1.395C405.998,343.661,402.436,342.254,399.054,340.834z M449.082,291.538
	c-0.192-1.035-0.39-2.066-0.591-3.084c-0.239-1.215-0.442-2.574-0.736-3.908c-2.321-0.389-4.247,8.73-5.172,14.801
	c1.771-2.516,3.705-4.938,5.552-7.33C448.288,291.815,448.659,291.649,449.082,291.538z M455.965,291.374
	c0.087-0.084,0.167-0.172,0.257-0.254c5.61-5.182,12.25-8.865,19.018-12.291c-0.858-4.98-0.735-9.971-0.721-15.018
	c0-0.021,0.009-0.043,0.012-0.064c-0.819,0.08-1.641,0.096-2.424,0.035c-1.446-0.113,1.265-1.229,1.88-1.182
	c1.87,0.146,3.727,0.076,4.534-1.9c0.542-1.326,0.441-2.828-0.079-4.152c-0.516-1.311-1.362-2.586-2.613-3.299
	c-0.301-0.172-0.607-0.332-0.947-0.412c-0.135-0.031-0.603-0.041-0.571-0.09c-0.323,0.152-1.089,0.904-1.452,1.334
	c-0.442,0.525-3.211,0.918-2.623,0.221c0.342-0.404,0.72-0.754,1.115-1.066c-2.298,0.766-4.806,0.527-6.158-1.928
	c-1.394-2.533-1.455-5.834-0.133-8.406c-2.331,0.275-4.669-0.102-6.605-1.738c-2.543-2.15-4.076-5.07-5.425-8.057
	c-6.4,3.773-18.505,5.053-22.55-1.096c-2.365,2.223-4.609,4.541-6.419,7.268c0.043,0.049,0.074,0.104,0.073,0.174
	c-0.089,8.979-1.878,18.41,0.126,27.277c1.008,4.459,2.838,9.438,7.691,10.91c4.737,1.436,9.096,0.502,13.879,0.313
	c4.803-0.188,5.178,7.535,5.758,10.777c0.296,1.66,0.598,3.338,0.879,5.025c0.115,0.693,0.225,1.389,0.33,2.082
	C453.55,294.221,454.572,292.721,455.965,291.374z M482.626,287.563c-0.219-0.715-0.486-1.377-0.783-2.012
	c-0.649-1.389-1.489-2.592-2.579-3.563c-0.691-0.615-1.479-1.143-2.375-1.57c-5.856,2.955-11.597,6.072-16.671,10.279
	c-1.534,1.27-2.708,2.59-3.62,3.992c0.044,0.01,0.089,0.016,0.127,0.029c4.916,1.875,6.342,7.236,7.53,11.98
	c4.137-3.662,7.532-7.99,11.754-11.52C477.98,293.534,483.595,290.737,482.626,287.563z M234.214,308.174c0,26,0,52,0,78
	c0,0.629,2.897,0.162,2.897-0.777c0-26,0-52,0-78C237.112,306.766,234.214,307.235,234.214,308.174z M194.372,346.252
	c0,0.02,0,0.041,0,0.061c3.153,0.57,6.189,1.445,8.982,2.871c6.157,3.145,6.792,11.406,1.498,15.699
	c-2.945,2.389-6.566,3.904-10.479,4.84c0,2.014,0,4.027,0,6.041c0,1.123-2.917,1.668-2.917,0.293c0-1.918,0-3.836,0-5.754
	c-1.263,0.207-2.541,0.369-3.833,0.482c0,1.533,0,3.068,0,4.604c0,1.123-2.917,1.668-2.917,0.293c0-1.572,0-3.146,0-4.721
	c-5.255,0.207-10.515-0.189-15.026-0.67c-1.955-0.207-0.534-2.393,0.969-2.232c1.613,0.17,3.312,0.326,5.057,0.447
	c0-7.086,0-14.172,0-21.258c-2.016-0.152-4.028-0.334-6.026-0.596c-0.737-0.078-0.994-0.439-0.947-0.848
	c0.05-0.689,0.963-1.514,1.916-1.389c1.298,0.139,3.042,0.303,5.057,0.432c0-6.664,0-13.328,0-19.992
	c-1.621,0.189-3.042,0.391-4.151,0.561c-1.955,0.301-1.418-2.014,0.219-2.264c2.675-0.408,7.567-0.969,12.932-1.053
	c0-1.557,0-3.111,0-4.668c0-1.123,2.917-1.668,2.917-0.293c0,1.656,0,3.313,0,4.969c1.277,0.023,2.561,0.08,3.833,0.176
	c0-1.492,0-2.984,0-4.477c0-1.123,2.917-1.668,2.917-0.293c0,1.688,0,3.379,0,5.068c8.573,1.125,15.689,4.447,14.023,12.598
	C207.085,341.588,201.307,344.778,194.372,346.252z M194.372,324.768c0,6.408,0,12.818,0,19.229
	c6.122-1.305,10.957-4.025,11.164-9.361C205.77,328.586,200.755,325.842,194.372,324.768z M187.622,324.188
	c0,6.902,0,13.805,0,20.707c1.292-0.09,2.576-0.217,3.833-0.391c0-6.703,0-13.406,0-20.109
	C190.196,324.282,188.911,324.211,187.622,324.188z M178.622,344.997c1.919,0.072,3.981,0.098,6.083,0.039c0-6.947,0-13.895,0-20.84
	c-2.115,0.047-4.177,0.184-6.083,0.355C178.622,331.368,178.622,338.18,178.622,344.997z M184.705,368.686
	c0-6.945,0-13.891,0-20.836c-2.026-0.143-4.055-0.27-6.083-0.398c0,7.072,0,14.145,0,21.217
	C180.626,368.749,182.668,368.764,184.705,368.686z M191.455,368.01c0-6.5,0-13,0-19.5c-1.273-0.166-2.551-0.309-3.833-0.424
	c0,6.807,0,13.615,0,20.422C188.916,368.393,190.198,368.229,191.455,368.01z M194.372,348.952c0,6.143,0,12.283,0,18.424
	c2.023-0.521,3.955-1.211,5.726-2.129c2.737-1.42,5.31-3.645,5.438-6.971c0.207-5.34-4.192-7.896-8.876-8.902
	C195.901,349.209,195.136,349.084,194.372,348.952z M316.687,265.706c0.005,0.012,0.016,0.02,0.016,0.033
	c0,22.262,0,44.521,0,66.783c0,0.168-0.133,0.318-0.335,0.449c0.97,0.102-1.501,1.139-2.058,1.139c-17.399,0-34.798,0-52.198,0
	c0,13.014,0,26.025,0,39.037c0,0.57-1.063,0.965-1.902,1.047c-8.075,4.377-16.038,8.951-23.935,13.645
	c-0.01,0.006-0.025,0.01-0.036,0.018c-0.146,0.484-0.688,0.951-1.465,0.951c-30.667,0-61.333,0-92,0
	c-1.772,0-1.443-1.646-0.175-1.979c-0.503-0.08-0.903-0.371-0.903-0.93c0-16.68,0-33.357,0-50.037c-16.326,0-32.651,0-48.977,0
	c-0.184,0-0.294-0.021-0.351-0.057c-0.095-0.027-0.153-0.07-0.153-0.131c0-12.363,0-24.723,0-37.086c-8.516,0-17.032,0-25.548,0
	c-1.295,0-1.465-0.881-0.971-1.484c-0.129-0.146-0.212-0.336-0.212-0.582c0-15.051,0-30.1,0-45.148c0-0.166,0.05-0.316,0.134-0.453
	c-0.14-0.164-0.195-0.363-0.177-0.572c-0.072-0.053-0.063-0.127,0.045-0.223c0.159-0.482,0.688-0.934,1.451-0.934
	c0.183,0,0.366,0,0.548,0c5.254-2.293,10.508-4.586,15.762-6.879c0.092-0.535,0.651-1.078,1.49-1.078c16.353,0,32.705,0,49.057,0
	c0.604,0,0.965,0.199,1.132,0.475c0.737-0.164,1.488-0.129,1.488,0.191c0,15.676,0,31.354,0,47.031c0,0.508-0.849,0.877-1.628,1.01
	c-4.51,2.451-8.963,5.004-13.377,7.625c-0.112,0.51-0.674,1.021-1.488,1.021c-8.27,0-16.54,0-24.809,0c0,12.041,0,24.084,0,36.125
	c15.528,0,31.056,0,46.584,0c0-8.939,0-17.877,0-26.814c0-0.371,0.247-0.67,0.593-0.875c-0.613-0.15-0.823-0.586-0.724-1.018
	c-0.104-0.066-0.083-0.164,0.119-0.299c0.226-0.398,0.707-0.729,1.36-0.729c0.078,0,0.155,0,0.233,0
	c9.676-4.223,19.352-8.445,29.028-12.666c0.092-0.535,0.651-1.078,1.489-1.078c7.918,0,15.836,0,23.754,0
	c0-14.611,0-29.223,0-43.834c-6.422,0-12.844,0-19.265,0c-1.131,0-1.405-0.674-1.127-1.246c-0.064-0.121-0.105-0.262-0.105-0.43
	c0-9.967,0-19.936,0-29.902c0-0.107,0.026-0.207,0.064-0.303c-0.044-0.104-0.066-0.209-0.063-0.322
	c-0.058-0.047-0.052-0.109,0.022-0.188c0.118-0.518,0.668-1.025,1.479-1.025c0.231,0,0.462,0,0.694,0
	c3.202-1.396,6.404-2.795,9.606-4.191c0.092-0.535,0.651-1.078,1.489-1.078c10.83,0,21.661,0,32.491,0
	c0.551,0,0.896,0.168,1.08,0.406c0.591-0.074,1.1-0.006,1.1,0.258c0,10.385,0,20.768,0,31.15c0,0.48-0.756,0.834-1.497,0.984
	c-2.854,1.557-5.675,3.174-8.472,4.834c-0.096,0.521-0.661,1.053-1.491,1.053c-4.369,0-8.738,0-13.107,0c0,14.611,0,29.223,0,43.834
	c19.366,0,38.732,0,58.099,0c0.809,0,1.182,0.357,1.232,0.775c0.842-0.449,2.336-0.564,2.336-0.111c0,13.688,0,27.375,0,41.064
	c17.231,0,34.462,0,51.693,0c0-22.15,0-44.299,0-66.445c0-0.369,0.609-0.652,1.27-0.813c-5.865,0-11.729,0-17.595,0
	c-1.131,0-1.405-0.674-1.127-1.246c-0.064-0.121-0.105-0.262-0.105-0.43c0-9.967,0-19.936,0-29.902c0-0.107,0.026-0.207,0.064-0.303
	c-0.043-0.102-0.066-0.209-0.063-0.322c-0.058-0.047-0.052-0.107,0.022-0.188c0.118-0.518,0.668-1.025,1.479-1.025
	c0.231,0,0.461,0,0.694,0c3.202-1.396,6.404-2.795,9.606-4.191c0.092-0.535,0.65-1.078,1.488-1.078c10.83,0,21.661,0,32.491,0
	c0.551,0,0.896,0.168,1.08,0.406c0.591-0.074,1.1-0.004,1.1,0.26c0,10.383,0,20.766,0,31.148c0,0.479-0.756,0.836-1.497,0.984
	c-2.854,1.559-5.675,3.176-8.472,4.834c-0.096,0.521-0.661,1.053-1.491,1.053C327.395,265.706,322.041,265.706,316.687,265.706z
	 M215.428,215.321c0,9.801,0,19.604,0,29.404c2.212-1.285,4.438-2.549,6.687-3.77c0-9.906,0-19.813,0-29.717
	c-2.287,1.268-4.557,2.564-6.807,3.898C215.384,215.184,215.428,215.245,215.428,215.321z M181.849,213.983
	c10.658,0,21.315,0,31.974,0c0.335,0,0.591,0.064,0.785,0.166c1.938-1.135,3.89-2.244,5.854-3.33c-10.127,0-20.255,0-30.382,0
	c-0.286,0-0.512-0.049-0.695-0.125C186.873,211.79,184.361,212.887,181.849,213.983z M212.531,245.358c0-9.754,0-19.508,0-29.262
	c0-0.004,0.001-0.006,0.001-0.008c-10.849,0-21.698,0-32.547,0c0,9.756,0,19.512,0,29.27
	C190.834,245.358,201.683,245.358,212.531,245.358z M121.943,250.872c0,14.994,0,29.99,0,44.984
	c3.825-2.238,7.675-4.436,11.574-6.547c0-15.184,0-30.367,0-45.551c-4.031,2.215-8.023,4.498-11.979,6.844
	C121.781,250.639,121.943,250.723,121.943,250.872z M70.088,249.19c16.701,0,33.402,0,50.103,0c0.427,0,0.728,0.104,0.93,0.258
	c3.552-2.088,7.131-4.127,10.744-6.107c-15.796,0-31.593,0-47.389,0c-0.286,0-0.512-0.049-0.695-0.125
	C79.216,245.208,74.652,247.2,70.088,249.19z M119.045,296.545c0-14.967,0-29.932,0-44.898c0-0.127,0.056-0.244,0.146-0.352
	c-16.924,0-33.849,0-50.773,0c0,15,0,30,0,45c0,0.088-0.016,0.172-0.041,0.25C85.267,296.545,102.156,296.545,119.045,296.545z
	 M145.879,304.977c29.721,0,59.443,0,89.165,0c0.621,0,0.987,0.209,1.147,0.498c7.047-4.162,14.151-8.225,21.339-12.137
	c-27.999,0-55.998,0-83.998,0c-0.286,0-0.512-0.049-0.695-0.125C163.851,297.135,154.865,301.055,145.879,304.977z M259.214,373.417
	c0-26.561,0-53.119,0-79.678c-7.734,4.211-15.368,8.6-22.939,13.098c-0.412,0.244-2.244,0.486-2.491,0.246
	c-29.791,0-59.583,0-89.374,0c0.134,0.148,0.22,0.34,0.22,0.59c0,26,0,52,0,78c0,0.539-0.514,0.93-1.11,1.094
	c30.511,0,61.021,0,91.532,0c0.207,0,0.379,0.025,0.531,0.066C243.38,382.219,251.243,377.721,259.214,373.417z M334.625,233.625
	c0,9.803,0,19.602,0,29.404c2.212-1.285,4.438-2.549,6.687-3.77c0-9.906,0-19.813,0-29.719c-2.286,1.27-4.556,2.566-6.807,3.9
	C334.581,233.489,334.625,233.549,334.625,233.625z M301.046,232.29c10.657,0,21.314,0,31.974,0c0.335,0,0.591,0.063,0.785,0.166
	c1.938-1.135,3.89-2.244,5.854-3.33c-10.127,0-20.255,0-30.382,0c-0.286,0-0.512-0.049-0.694-0.125
	C306.069,230.096,303.558,231.192,301.046,232.29z M331.728,263.665c0-9.754,0-19.508,0-29.262c0-0.002,0.001-0.006,0.001-0.01
	c-10.849,0-21.698,0-32.547,0c0,9.758,0,19.514,0,29.271C310.03,263.665,320.88,263.665,331.728,263.665z" fill="#0a1230"></path>
</svg>