<?xml version="1.0" standalone="no"?>
<svg version="1.1" id="Layer_1" xmlns="http://www.w3.org/2000/svg" xmlns:xlink="http://www.w3.org/1999/xlink" x="0px" y="0px" width="595.279px" height="595.281px" viewBox="0 0 595.279 595.281" enable-background="new 0 0 595.279 595.281" xml:space="preserve">
<path id="color_x5F_2" fill="#6c63ff" d="M162.958,422.185l0.043,0.896l-25.551-0.904
	C145.952,422.181,154.454,422.181,162.958,422.185z M105.823,279.605c0.037-0.486,0.923-1.843,2.044-3.392l-2.201,2.201
	c0,0-0.001,0.547-0.168,1.402c0.099-0.05,0.215-0.098,0.348-0.14C105.842,279.653,105.821,279.629,105.823,279.605z
	 M121.982,283.317c5.603,1.664,11.216,3.292,16.833,4.909c2.229-0.125,4.252,0.199,6.081,0.894c0.46-2.614,0.68-5.597-0.59-7.718
	c-0.658-0.113-1.447-0.251-2.321-0.406c-9.632-0.779-21.187-2.894-27.093-10.8c-1.905,2.628-6.837,8.71-5.854,9.071
	C113.275,280.821,117.656,282.033,121.982,283.317z M150.036,360.931c2.479-2.183,7.157-6.393,10.618-10.023
	c-3.851,3.059-7.44,6.449-10.634,10.021C150.026,360.929,150.031,360.931,150.036,360.931z M145.167,291.693
	c-0.211,0.011-0.394,0.007-0.498-0.023c-1.966-0.559-3.929-1.128-5.894-1.69c-0.275,0.006-0.552,0.015-0.834,0.04
	c-0.88,0.077-1.206-0.232-1.168-0.614c-7.014-2.011-14.021-4.042-21.004-6.156c-0.808-0.245-6.15-1.437-8.653-2.586
	c-7.307,7.645-8.354,21.147-9.126,31.032c-0.858,10.979-0.789,22.002-1.086,33.004c-0.4,14.836-0.942,29.678-2.202,44.469
	c-0.868,10.188-1.505,21.498-5.6,31.016c-0.043,0.1-0.124,0.189-0.233,0.273l9.271,0.328c21.576,0.004,43.151,0.006,64.727,0.016
	c-0.007-0.42-0.022-0.838-0.035-1.256l-0.193-4.064c-1.022-15.299-4.904-30.334-5.696-45.68c-1.577-1.222-3.13-2.475-4.657-3.756
	c-1.099-0.923-2.795-1.999-3.904-3.225c-0.484,0.576-0.957,1.158-1.419,1.742c-0.011,0.375-0.365,0.715-0.839,0.928
	c-0.941,0.566-3.16,0.596-2.42-0.362c0.029-0.038,0.061-0.075,0.091-0.112c-9.838-10.5-16.887-21.439-22.242-34.879
	c-0.527-1.322,2.355-2.138,2.897-0.777c5.145,12.914,11.868,23.352,21.138,33.432c7.487-8.979,17.434-17.012,27.932-22.172
	c0.018-0.578,1.018-1.082,1.855-1.115c-7.487-8.582-12.063-19.068-17.05-29.193C155.402,304.381,151.489,295.42,145.167,291.693z
	 M384.136,339.248c1.656,4.715,3.49,9.357,5.539,13.906C388.003,348.908,386.058,344.006,384.136,339.248z M398.311,363.275
	l-2.902,1.317c0.08,0.144,0.158,0.286,0.238,0.431C396.522,364.424,397.417,363.849,398.311,363.275z M458.915,379.75
	c0.283-0.192,0.567-0.388,0.85-0.579c-0.055-0.168-0.122-0.326-0.18-0.491L458.915,379.75z M478.05,397.179
	c14.373-6.205,22.765-16.68,27.332-31.539c3.883-12.623,7.574-25.438,9.22-38.576c1.344-10.728,1.933-23.179-2.739-33.279
	c-1.811-3.145-3.898-5.801-5.761-7.856c-0.849-0.305-1.706-0.488-2.571-0.581c-1.686,0.177-3.921,0.404-5.74,0.559
	c-9.275,2.461-19.013,10.912-27.285,4.256c-1.617-1.3-3.028-2.882-4.258-4.66c-0.356,0.253-0.77,0.541-1.229,0.85
	c-3.479,4.085-8.454,5.675-14.248,4.519c-0.323-0.064-0.209-0.252,0.099-0.46c-0.426-0.025-0.751-0.192-0.765-0.545
	c-0.122-3.168-1.678-6.275-3.505-8.802c-0.835-1.155-2.798-3.954-4.731-5.058c-0.602,0.06-1.259,0.122-1.918,0.18
	c-0.32,0.112-0.634,0.17-0.873,0.129c-0.1-0.017-0.197-0.021-0.297-0.032c-0.533,0.042-1.04,0.077-1.48,0.1
	c-5.031,1.205-8.789,10.774-10.355,14.375c-3.982,9.158-6.908,18.762-9.73,28.329c-2.761,9.353-5.295,18.781-8.319,28.054
	c-1.787,5.478-3.503,11.877-7.276,16.387c-0.313,0.375-1.054,0.562-1.669,0.531c-9.92,6.398-18.714,14.301-26.487,23.178
	c-4.41,5.037-8.334,10.588-13.01,15.383c-0.04,0.041-0.093,0.08-0.152,0.117c0.002,0.049,0.006,0.098,0.01,0.146
	c0.824,6.795,6.326,10.408,13.021,10.541c0.074,0.002,0.133,0.01,0.196,0.016c12.776-5.146,24.543-14.672,34.321-24.406
	l-0.184-0.617c0,0,6.065-6.703,11.127-11.938c1.697-2.428,3.213-4.979,4.448-7.713c3.144-6.955,5.56-14.141,9.36-20.796
	c0.051-0.089,0.137-0.17,0.246-0.241c-4.849-7.615-5.127-15.936-0.998-25.209c0.418-0.939,3.299-1.263,2.897-0.363
	c-2.698,6.061-4.499,13.004-1.989,19.457c1.979,5.088,5.62,9.141,9.59,12.791c7.502,6.896,16.301,13.188,19.968,23.031
	c3.163-2.14,6.343-4.256,9.532-6.356c-0.041-0.065-0.047-0.146-0.008-0.242c7.01-17.044,10.866-36.499,11.86-54.869
	c0.047-0.872,2.944-1.489,2.888-0.403c-0.963,17.771-4.613,36.554-11.197,53.189c0.506-0.329,1.007-0.663,1.513-0.99
	c1.09-0.707,3.528,0.086,1.877,1.155c-18.851,12.224-37.177,25.263-55.513,38.239c-0.09,0.109-0.191,0.209-0.286,0.316
	c0.288,0.42,0.7,0.773,1.194,1.074l4.696,1.492c0.523,0.096,0.999,0.174,1.38,0.242c3.012,0.543,6.049,0.904,9.08,1.314
	C451.858,405.687,465.374,402.65,478.05,397.179z M414.048,413.228l0.953-0.146l-0.059-0.193
	C414.646,413.003,414.347,413.117,414.048,413.228z M541.167,420.855c-1.215-24.445-27.287-39.557-30.517-62.998
	c-1.032,3.476-2.14,6.916-3.312,10.311c-4.608,13.354-13.074,22.891-25.854,28.854c-13.251,6.186-27.76,9.08-40.982,15.426
	c-0.326,0.156-0.961,0.225-1.484,0.195c-0.493,0.215-1.042,0.369-1.32,0.33c-0.023-0.002-0.049-0.006-0.072-0.01
	c-1.529,1.297-2.755,2.83-4.048,4.273l-2.099,3.674c36.57,0.012,73.139,0.027,109.708,0.029
	C541.181,420.91,541.169,420.886,541.167,420.855z M331.667,301.749c0,0,0.006,0.034,0.017,0.083
	c-0.007-0.071-0.011-0.143-0.017-0.215V301.749z M408.366,390.767c-10.052,9.436-21.545,18.51-34.402,23.543
	c-0.145,0.172-0.351,0.342-0.582,0.486l6.099,6.1c2.13,0,4.26,0,6.391,0.002l3.042-0.469c-1.259-0.625-1.818-1.494-0.453-2.686
	c0.168-0.146,0.353-0.271,0.541-0.393v-0.271l0.711-0.107c1.481-0.652,3.297-0.762,4.818-1.064c3.189-0.639,6.396-1.215,9.575-1.906
	c3.375-0.734,7.037-1.471,10.313-2.873L408.366,390.767z M431.292,356.16c-1.972,4.712-3.755,9.502-6.139,14.027
	C427.153,367.564,429.48,361.506,431.292,356.16z M360.999,398.416c0,0-0.207,0.422-0.4,1.166c0.548-0.621,1.093-1.246,1.628-1.881
	c-0.035-0.031-0.074-0.061-0.104-0.1c-0.203-0.256-0.39-0.525-0.59-0.783L360.999,398.416z M542.183,422.318
	c-21.618-0.002-43.236-0.01-64.854-0.016l65.005,0.777C542.333,423.082,542.28,422.804,542.183,422.318z M373.462,384.303
	c6.061-6.505,12.615-12.42,19.795-17.588c-18.207-32.002-23.572-70.106-27.619-106.284c-4.437,7.323-12.187,15.753-19.853,18.309
	c-1.35,0.81-2.551,1.418-3.452,1.675c-2.24,0.64-4.781-0.874-6.826-2.618c-0.685-0.44-1.354-0.968-2.002-1.597
	c0.369,21.285,2.047,42.435,7.539,63.122c5.133,19.334,10.656,40.017,23.063,56.121C367.179,391.689,370.16,387.847,373.462,384.303
	z M410.603,332.119l-6.969,23.107c1.963-4.881,3.193-10.318,4.55-14.854C409.005,337.625,409.806,334.873,410.603,332.119z"></path>
<path id="color_x5F_1" d="M426.739,240.211c-0.05-1.104,2.855-1.689,2.896-0.776c0.16,3.516-1.133,6.588-2.45,9.782
	c-1.361,3.298-3.019,6.998,0.157,9.758c0.776,0.674-1.926,1.792-2.691,1.127C418.849,255.061,427.017,246.317,426.739,240.211z
	 M431.947,263c-0.207-0.189-0.11-0.401,0.074-0.586c0.131-0.495,1.192-0.944,2.012-0.939c1.114-0.463,2.146-1.042,3.042-1.918
	c0.421-0.411,0.982-0.645,1.564-0.721c-0.217-0.915,2.32-1.679,2.764-0.949c1.727,2.848,1.499,6.328-1.795,7.853
	c-3.018,1.397-5.862,0.18-7.325-2.567C432.158,263.138,432.042,263.087,431.947,263z M435.218,262.441
	c0.69,1.196,2.201,3.128,3.385,2.067c1.307-1.171,1.209-2.974,0.6-4.491C438.001,261.063,436.671,261.833,435.218,262.441z
	 M439.867,244.049c0-1.704,0-3.407,0-5.111c0-1.338-2.911-0.771-2.911,0.31c0,1.704,0,3.407,0,5.111
	C436.954,245.697,439.867,245.13,439.867,244.049z M424.402,243.912c0-1.704,0-3.408,0-5.112c0-1.284-2.905-0.688-2.905,0.333
	c0,1.704,0,3.408,0,5.112C421.496,245.528,424.402,244.933,424.402,243.912z M318.419,249.241c1.293-0.131,2.502-1.523,0.474-1.316
	c-5.095,0.518-5.661-4.545-4.64-8.325c0.225-0.831-2.649-0.397-2.877,0.442c-0.608,2.256-1.018,5.121,0.436,7.16
	C313.343,249.352,316.009,249.487,318.419,249.241z M323.755,232.861c0-0.788-2.897-0.272-2.896,0.776
	c0.001,1.525,0.077,2.978,0.73,4.382c0.432,0.928,3.256-0.006,2.896-0.776C323.833,235.839,323.757,234.386,323.755,232.861z
	 M309.036,238.48c-0.586-0.644-0.603-1.619-0.604-2.447c0-0.698-0.715-0.882-1.307-0.826c-0.512,0.048-1.615,0.419-1.615,1.101
	c0,1.163,0.027,2.484,0.857,3.395C307.177,240.589,309.939,239.47,309.036,238.48z M319.614,226.797
	c1.688-0.537,3.318-0.649,5.079-0.65c0.681,0,1.53-0.193,1.901-0.836c0.339-0.588-0.287-1.024-0.832-1.024
	c-2.268,0.001-4.428,0.117-6.604,0.811c-0.479,0.152-1.401,0.567-1.221,1.238C318.108,226.977,319.136,226.95,319.614,226.797z
	 M309.983,228.417c0.338-0.588-0.287-1.024-0.832-1.024c-2.268,0.001-4.428,0.117-6.604,0.811c-0.479,0.152-1.401,0.567-1.222,1.238
	c0.171,0.64,1.198,0.615,1.677,0.462c1.688-0.537,3.318-0.649,5.08-0.65C308.763,229.252,309.612,229.06,309.983,228.417z
	 M349.496,232.863c0.019-0.77,0.356-1.651,1.064-2.03c0.325-0.174,0.938-0.723,0.301-0.957c-0.633-0.233-1.476,0.014-2.04,0.316
	c-1.354,0.724-2.188,1.9-2.222,3.447C346.583,234.332,349.475,233.864,349.496,232.863z M329.233,255.317
	c0.416,3.818-1.629,6.887-5.669,7.025c-3.481,0.119-6.419-2.312-7.086-5.701c-0.209-1.064,2.7-1.783,2.897-0.776
	c0.053,0.269,0.125,0.537,0.209,0.802c0.272-0.069,0.525-0.098,0.701-0.059c2.363,0.526,4.223,0.024,5.983-1.641
	c0.53-0.501,2.649-0.691,2.575-0.056C329.062,254.983,329.212,255.112,329.233,255.317z M326.384,256.948
	c-1.824,1.022-3.904,1.483-6.006,1.374c0.782,1.194,1.948,2.115,3.426,2.333C325.913,260.965,326.403,258.71,326.384,256.948z
	 M557.518,422.32c-5.112,0-10.224-0.002-15.335-0.002c-21.618-0.002-43.236-0.01-64.854-0.016
	c-19.33-0.004-38.659-0.004-57.989-0.014c-2.662,0-5.322-0.002-7.983-0.004c-3.071,0.07-6.147,0.09-9.213-0.004
	c-79.729-0.033-159.456-0.068-239.184-0.098c-8.502-0.004-17.005-0.004-25.508-0.008c-33.629-0.01-67.257-0.027-100.886-0.027
	c-1.943,0,0.291-1.377,1.199-1.377c16.156,0,32.312,0.008,48.468,0.012c-0.017-0.041-0.022-0.084,0-0.137
	c4.601-10.695,5.079-23.668,5.93-35.1c1.103-14.803,1.6-29.643,1.956-44.477c0.261-10.848,0.154-21.734,1.34-32.535
	c1.044-9.507,2.372-21.691,9.836-28.588c0.05-0.046,0.123-0.089,0.205-0.131c0.099-0.05,0.215-0.098,0.348-0.14
	c-0.003-0.024-0.024-0.049-0.023-0.072c0.037-0.486,0.923-1.843,2.044-3.392c2.055-2.835,4.913-6.323,4.88-6.35
	c-0.209-0.177,0.515-0.618,1.285-0.879c-0.008-0.014-0.019-0.025-0.027-0.039c-0.433-0.697,0.447-1.335,1.329-1.514
	c0.652-1.764,1.208-3.474,1.581-5.215c-13.12-4.675-19.401-18.417-18.345-31.854c0.713-9.064,5.199-20.272,14.907-21.484
	c-4.007-14.825,21.508-12.834,30.082-10.939c0.021,0.005,0.034,0.012,0.054,0.017c1.051,0.013,2.142,0.004,3.256-0.036
	c7.368-0.901,14.597-4.311,21.93-5.224c5.421-0.675,14.254-0.813,16.645,5.518c2.396,6.346-0.793,13.67-6.878,16.515
	c-2.319,1.084-5,1.436-7.782,1.381c-0.243,6.138-1.719,14.979,2.333,19.891c0.029,0,0.059-0.006,0.087-0.005
	c2.044,0.038,5.935,0.664,5.476,3.595c-0.379,2.414-2.615,3.845-4.772,4.65c0.212,0.015,0.349,0.055,0.34,0.123
	c-1.043,8.135,1.72,20.508-7.168,25.053c-4.427,2.264-10.352,2.391-15.839,1.517c-1.105,0.964-2.329,1.992-2.898,3.366
	c-0.668,1.614-1.257,3.236-2.03,4.809c-0.048,0.098-0.128,0.187-0.226,0.269c0.021,0.001,0.046,0.003,0.068,0.004
	c0.869,0.052,0.998,0.431,0.767,0.832c0.017,0.016,0.037,0.028,0.05,0.046c1.926,2.679,1.099,6.958,0.428,10.103
	c4.533,2.755,7.811,7.732,10.467,12.638c6.558,12.111,11.296,25.376,20.589,35.791c0.299,0.336,0.126,0.689-0.249,0.968
	c0.068,0.271-0.135,0.597-0.797,0.888c-0.102,0.045-0.204,0.096-0.306,0.143c1.756,2.258,3.415,4.6,5.463,6.604
	c9.405-10.787,18.083-22.164,26.673-33.613c-0.074-0.131-0.121-0.285-0.124-0.471c-0.097-5.769-3.661-20.142,7.228-16.44
	c0.254,0.086,0.419,0.202,0.525,0.331c2.192-2.593,4.078-5.438,6.227-8.068c1.79-2.19,3.814-4.663,6.705-5.327
	c2.575-0.591,4.901,1.451,4.41,4.19c-0.664,3.704-3.741,6.467-6,9.343c0.063,0.011,0.122,0.027,0.172,0.051
	c4.984,2.373,9.77,7.033,8.148,13.105c-1.333,4.99-5.233,8.133-9.914,9.844c-7.19,10.203-12.133,21.705-18.597,32.346
	c-5.515,9.078-12.41,19.18-22.463,23.582c-7.723,3.383-16.515,2.2-23.296-2.537c-0.748-0.522-1.488-1.058-2.225-1.597
	c1.26,16.265,5.563,32.224,5.744,48.562c0,0.037-0.012,0.072-0.022,0.109c3.394,0,6.788,0,10.181,0.002
	c12.521,0.004,25.039,0.012,37.559,0.018v-0.131c-0.076,0-0.151,0-0.227,0c-0.664,0-0.833-0.162-0.743-0.373
	c-0.23-0.158-0.383-0.398-0.383-0.742c0-2.557,0-5.111,0-7.666c0-1.174,2.332-1.641,2.836-0.641c0.267-0.104,0.527-0.17,0.725-0.17
	c2.229,0,4.458,0,6.686,0c-0.711-0.352-1.286-0.855-1.374-1.619c-0.219-1.902,1.648-3.404,3.054-4.357
	c3.492-2.363,7.5-3.873,11.455-5.264c0.37-0.131,0.678-0.145,0.924-0.086c4.657-3.641,10.613-6.115,14.667-10.094
	c0.192-0.188,0.654-0.343,1.146-0.438c-0.18-0.633-0.327-1.264-0.433-1.887c-0.111-0.649,0.94-1.16,1.809-1.234
	c11.961-9.122,20.547-20.035,28.972-32.445c0.094-0.139,0.256-0.257,0.452-0.355c7.022-18.652,7.824-38.813,13.088-57.97
	c2.073-7.545,4.944-14.979,11.752-19.457c6.912-4.544,14.83-6.999,22.619-9.571c0.002-0.002,0.002-0.004,0.004-0.006
	c-4.344,1.397-8.809,1.913-12.537,1.288c-8.725-1.462-13.396-10.115-16.008-17.794c-0.789-2.322-1.474-4.678-2.066-7.056
	l0.037,0.817c-0.172-0.044-1.262-0.336-2.708-0.915c-2.772,0.91-5.706,0.421-7.47-2.694c-2.239-3.953-2.725-9.206-0.979-13.434
	c0.093-0.225,0.279-0.407,0.513-0.545c-3.638,0.046-7.146-1.528-8.008-5.515c-0.761-3.516,0.361-6.883,2.949-9.138
	c-0.608-0.542-1.354-1.288-2.05-2.2c-1.518-1.315-2.409-3.039-2.104-4.966c-0.111-1.198,0.055-2.484,0.654-3.832
	c1.896-4.268,5.691-4.537,8.226-4.159c0.385-0.1,0.772-0.192,1.166-0.257c-0.086-0.295-0.151-0.584-0.204-0.869
	c-1.472-2.118-2.946-5.881,0.812-9.965c5.095-5.538,15.482-1.265,17.785-0.219c0.135-0.538,0.318-1.057,0.55-1.554
	c0.295-2.431,1.518-6.604,6.415-7.478c5.293-0.945,8.152,2.68,9.234,4.506c0.211,0.187,0.416,0.384,0.612,0.591
	c0.451-1.693,2.595-8.086,8.901-6.347c4.568,1.26,5.76,4.105,6.019,6.04c0.278,0.409,0.538,0.832,0.776,1.269
	c2.275-1.862,9.074-6.556,15.207-2.059c5.599,4.106,5.207,8.629,4.647,10.658c0.034,0.286,0.056,0.58,0.075,0.875
	c1.489-0.638,6.188-2.254,8.277,1.717c1.4,2.663,0.996,4.854,0.369,6.265c-0.125,0.625-0.293,1.238-0.489,1.826
	c1.852,0.313,7.25,1.61,7.87,6.159c0.75,5.5-3,8-3,8s5.25,2,5,8c-0.209,5.004-5.447,6.7-7.186,7.126
	c-0.143,0.112-0.287,0.218-0.434,0.323c0.72,1.111,4.279,7.083,1.117,12.051c-2.532,3.981-10.172,3.247-14.199,2.538
	c2.347,3.341,4.742,6.613,8.18,9.018c0.459-0.166,1.048-0.261,1.5-0.268c10.809-2.417,23.449-6.206,33.434-0.398
	c0.095-0.814,0.304-1.784,0.607-2.87c0.789-5.657,2.912-11.172,4.82-16.503c3.285-9.177,5.318-19.204,10.91-27.365
	c5.6-8.174,13.855-12.539,23.301-14.938c0.609-0.155,1.074-0.015,1.357,0.252c0.076-0.008,0.151-0.012,0.222-0.007
	c11.27,0.746,24.907,1.131,33.592,9.477c7.076,6.8,11.312,16.448,14.961,25.387c3.558,8.71,6.214,17.873,10.17,26.41
	c2.529,5.458,6.002,10.327,7.837,16.137c1.835,5.814,2.451,11.654,2.235,17.719c7.888,10.563,7.792,25.292,6.217,37.858
	c-1.067,8.527-2.81,17.078-5.021,25.488c0.368,0.09,0.627,0.311,0.613,0.704c-1,26.747,29.52,42.269,30.828,68.604
	c0.018,0.346-0.214,0.641-0.548,0.863c5.065,0,10.132,0.004,15.198,0.004C560.659,420.943,558.425,422.32,557.518,422.32z
	 M174.475,342.037c-4.793,2.395-9.469,5.417-13.819,8.871c-3.851,3.058-7.44,6.447-10.634,10.021
	c0.005,0.001,0.011,0.003,0.016,0.003c0.189,0.025,0.333,0.074,0.395,0.145c0.03-0.02,0.06-0.043,0.09-0.064
	c0.827,1.561,3.18,2.969,4.5,4.063c1.14,0.947,2.29,1.884,3.45,2.807c0.67-0.123,1.302-0.098,1.313,0.148
	c0.013,0.302,0.036,0.604,0.052,0.904c0.875,0.68,1.747,1.363,2.641,2.018c2.268,1.658,4.692,3.664,7.348,4.676
	c8.227,3.136,16.465,0.359,22.532-5.646c14.151-14.006,20.239-33.402,31.592-49.388c0.124-0.175,0.382-0.312,0.694-0.411
	c0.127-0.102,0.359-0.218,0.732-0.35c4.522-1.594,8.905-6.006,8.528-11.186c-0.359-4.938-3.734-8.063-7.964-10.143
	c-0.663,0.026-1.159-0.145-0.806-0.62c1.823-2.457,4.484-4.737,5.645-7.616c0.87-2.158,0.299-6.636-2.504-3.938
	c-3.929,3.78-6.531,8.719-10.321,12.631c-0.59,0.609-3.471,0.838-2.677,0.02c0.016-0.018,0.031-0.034,0.046-0.05
	c-0.218,0.026-0.435,0.019-0.632-0.049c-1.76-0.599-2.922-0.549-3.259,1.481c-0.241,1.455-0.245,2.929-0.137,4.396
	c0.206,2.786,0.72,5.555,0.768,8.35c0.001,0.098-0.015,0.188-0.041,0.273c0.041,0.094,0.022,0.211-0.092,0.363
	c-9.673,12.893-19.451,25.697-30.261,37.667c-0.57,0.631-3.455,0.884-2.676,0.021c0.652-0.722,1.289-1.455,1.934-2.185
	c-0.237-0.028-0.446-0.103-0.593-0.239C178.089,346.937,176.338,344.437,174.475,342.037z M138.814,288.228
	c2.229-0.125,4.252,0.199,6.081,0.894c0.46-2.614,0.68-5.597-0.59-7.718c-0.05-0.083-0.101-0.166-0.155-0.247
	c-0.709-0.046-1.431-0.099-2.166-0.159c-9.632-0.779-21.187-2.894-27.093-10.8c-1.905,2.628-6.837,8.71-5.854,9.071
	c4.239,1.554,8.62,2.766,12.945,4.05C127.585,284.981,133.198,286.61,138.814,288.228z M167.913,215.926
	c-0.849-0.089-1.697-0.207-2.541-0.341l-0.016,0.019c0.204,0.448,0.288,0.946,0.182,1.509c-0.417,2.224-2.097,3.65-4.268,4.207
	c-5.234,1.343-10.597,0.328-15.924-0.567c0.266,2.114,0.82,9.039-2.096,16.328c-3.5,8.75-7,14.5-9.25,12.25
	c-0.063-0.063-0.119-0.124-0.182-0.186c-0.357,0.009-0.717-0.07-1.011-0.239c-1.213-0.696-1.891-1.579-2.414-2.665
	c-0.558,0.215-1.18,0.344-1.485,0.233c-2.496-0.905-4.815-1.008-6.404,1.396c-0.254,0.384-0.47,0.795-0.659,1.22
	c-0.504,1.551-0.729,3.455-0.676,5.27c0.792,5.053,4.92,7.249,9.691,4.876c0.801-0.399,3.464-0.259,1.729,0.604
	c-2.833,1.409-6.552,2.665-9.693,1.52c-0.908,0.028-2.183-0.116-2.884-0.208c-0.402,2.292-1.124,4.503-1.976,6.788
	c-0.115,0.31-0.396,0.54-0.737,0.688c5.611,7.881,16.894,9.852,26.25,10.574c0.764-1.622,1.315-3.327,2.092-4.937
	c0.73-1.512,2.042-2.664,3.29-3.76c-2.152-0.46-4.189-1.055-5.979-1.719c-0.215-0.08,1.936-1.267,2.734-0.971
	c6.338,2.35,20.284,5.122,23.476-2.91c2.504-6.303,1.341-13.183,2.187-19.766c0.02-0.157,0.134-0.293,0.304-0.409
	c-0.076-0.016-0.161-0.018-0.225-0.053c-0.413-0.223,0.8-0.707,0.887-0.735c1.625-0.524,3.645-2.08,3.484-4.022
	c-0.132-1.594-1.387-2.328-2.777-2.639c-0.717,0.36-1.816,0.624-2.136,0.298C165.809,232.422,167.815,222.489,167.913,215.926z
	 M162.866,420.8c-0.007-0.418-0.022-0.836-0.035-1.256c-0.041-1.355-0.103-2.713-0.193-4.064
	c-1.022-15.297-4.904-30.332-5.696-45.679c-1.577-1.222-3.13-2.476-4.657-3.756c-1.099-0.923-2.795-1.999-3.904-3.226
	c-0.484,0.578-0.957,1.158-1.419,1.744c-0.011,0.373-0.365,0.715-0.839,0.928c-0.941,0.566-3.16,0.595-2.42-0.363
	c0.029-0.038,0.061-0.075,0.091-0.113c-9.838-10.5-16.887-21.438-22.242-34.878c-0.527-1.323,2.355-2.138,2.897-0.776
	c5.145,12.912,11.868,23.351,21.138,33.431c7.487-8.978,17.434-17.011,27.932-22.173c0.018-0.577,1.018-1.081,1.855-1.114
	c-7.487-8.582-12.063-19.069-17.05-29.192c-2.921-5.93-6.834-14.89-13.156-18.618c-0.211,0.011-0.394,0.007-0.498-0.023
	c-1.966-0.559-3.929-1.128-5.894-1.69c-0.275,0.006-0.552,0.015-0.834,0.04c-0.88,0.077-1.206-0.232-1.168-0.614
	c-7.014-2.011-14.021-4.042-21.004-6.156c-0.808-0.245-6.15-1.437-8.653-2.586c-7.307,7.645-8.354,21.148-9.126,31.033
	c-0.858,10.979-0.789,22.002-1.086,33.002c-0.4,14.836-0.942,29.679-2.202,44.47c-0.868,10.187-1.505,21.497-5.6,31.015
	c-0.043,0.1-0.124,0.191-0.233,0.275c-0.172,0.131-0.414,0.24-0.681,0.324c3.317,0.002,6.635,0.002,9.952,0.004
	C119.715,420.791,141.292,420.792,162.866,420.8z M508.941,288.765c-0.257-0.092-0.423-0.268-0.416-0.548
	c-0.403-0.529-0.82-1.051-1.267-1.558c-0.075-0.086-0.094-0.177-0.071-0.271c-0.36-0.175-0.722-0.329-1.086-0.459
	c-0.849-0.305-1.706-0.488-2.571-0.581c-1.686,0.177-3.921,0.404-5.741,0.559c-9.274,2.461-19.012,10.912-27.284,4.256
	c-1.617-1.3-3.028-2.882-4.259-4.66c-0.092-0.132-0.177-0.272-0.267-0.407c-0.307,0.44-0.625,0.863-0.961,1.256
	c-3.479,4.085-8.454,5.675-14.248,4.519c-0.323-0.064-0.209-0.252,0.099-0.46c-0.426-0.025-0.751-0.192-0.765-0.545
	c-0.122-3.168-1.678-6.275-3.506-8.802c-0.834-1.155-2.797-3.954-4.73-5.058c-0.301-0.172-0.6-0.297-0.895-0.374
	c-0.278,0.222-0.653,0.425-1.023,0.554c-0.32,0.112-0.634,0.17-0.873,0.129c-0.1-0.017-0.197-0.021-0.297-0.032
	c-0.505-0.051-0.999-0.015-1.48,0.1c-5.031,1.205-8.789,10.774-10.355,14.375c-3.982,9.158-6.908,18.762-9.73,28.329
	c-2.761,9.353-5.295,18.78-8.319,28.053c-1.787,5.478-3.503,11.878-7.276,16.388c-0.313,0.375-1.054,0.562-1.669,0.531
	c-9.92,6.398-18.714,14.301-26.487,23.178c-4.41,5.037-8.334,10.588-13.01,15.383c-0.04,0.041-0.093,0.08-0.152,0.117
	c-0.002,0.002-0.006,0.002-0.008,0.004c0.004,0.049,0.012,0.096,0.018,0.143c0.824,6.795,6.326,10.408,13.021,10.543
	c0.074,0,0.133,0.01,0.196,0.016c12.776-5.148,24.543-14.672,34.321-24.408c0.672-0.668,1.334-1.336,1.986-2.006
	c3.229-3.313,6.318-6.774,8.957-10.549c1.697-2.428,3.213-4.979,4.448-7.713c3.144-6.955,5.56-14.141,9.36-20.796
	c0.051-0.089,0.137-0.17,0.246-0.241c-4.849-7.615-5.127-15.936-0.998-25.209c0.419-0.939,3.299-1.263,2.897-0.363
	c-2.698,6.061-4.499,13.004-1.989,19.457c1.979,5.088,5.621,9.141,9.59,12.791c7.502,6.896,16.301,13.188,19.968,23.031
	c3.164-2.14,6.343-4.257,9.532-6.356c-0.041-0.066-0.047-0.146-0.008-0.242c7.01-17.044,10.866-36.499,11.86-54.869
	c0.047-0.873,2.945-1.489,2.888-0.403c-0.963,17.771-4.613,36.553-11.197,53.189c0.506-0.329,1.007-0.663,1.513-0.991
	c1.09-0.706,3.528,0.087,1.877,1.156c-18.851,12.224-37.177,25.263-55.512,38.239c-0.091,0.109-0.192,0.209-0.287,0.316
	c0.288,0.42,0.7,0.773,1.194,1.074c1.328,0.803,3.209,1.225,4.696,1.492c0.523,0.096,0.999,0.174,1.38,0.242
	c3.012,0.543,6.049,0.904,9.08,1.314c12.525-5.91,26.043-8.949,38.717-14.42c14.373-6.204,22.765-16.679,27.332-31.538
	c3.883-12.624,7.573-25.438,9.22-38.577c1.344-10.727,1.933-23.178-2.739-33.278C511.054,292.034,510.091,290.353,508.941,288.765z
	 M426.275,419.91c3.885-0.223,6.028-4.836,8.653-7.293c-3.125-0.391-6.269-0.785-9.31-1.586c-1.266-0.332-3.2-0.773-4.522-1.701
	c-1.81,1.51-3.912,2.652-6.155,3.557c-0.295,0.119-0.595,0.23-0.896,0.342c-4.117,1.521-8.623,2.314-12.631,3.102
	c-2.682,0.525-5.373,1.021-8.044,1.602c-0.002,0-3.868,0.328-2.247,1.07c2.094,0.959,4.721,1.01,6.98,1.148
	c6.867,0.428,13.77,0.324,20.642,0.088C421.257,420.152,423.768,420.054,426.275,419.91z M368.783,415.24
	c0.146-0.109,0.448-0.213,0.796-0.287c-6.059-0.895-11.162-4.484-12.115-10.9c-8.404,2.445-18.291,3.682-25.363,9.203
	c-1.917,1.494-3.785,3.168-5.045,5.279c-1.853,3.109,6.355,1.283,7.511,1.074c3.386-0.615,6.646-1.023,10.081-0.676
	c0.175,0.018,0.145,0.102-0.008,0.213c3.371,0.367,6.736,0.967,10.117,1.166C360.333,420.642,364.435,418.552,368.783,415.24z
	 M364.107,395.441c3.071-3.752,6.052-7.595,9.354-11.139c6.061-6.505,12.615-12.42,19.795-17.588
	c-18.207-32.002-23.572-70.106-27.619-106.284c-4.437,7.323-12.187,15.753-19.853,18.309c-3.558,1.186-7.097,1.104-10.278-0.942
	c-0.685-0.44-1.354-0.968-2.002-1.597c0.369,21.285,2.047,42.435,7.539,63.122C346.177,358.656,351.7,379.337,364.107,395.441z
	 M444.089,272.804c1.711-0.518,2.018,0.706,0.326,1.217c-0.332,0.1-0.672,0.198-1.017,0.295c1.603,0.738,3.026,2.066,4.13,3.343
	c2.688,3.111,5.313,7.198,5.475,11.429c0.008,0.216-0.078,0.412-0.221,0.585c0.139-0.018,0.258-0.021,0.35-0.002
	c5.438,1.085,8.783-1.478,11.217-6.138c0.078-0.147,0.24-0.275,0.449-0.382c-4.248-7.618-5.711-17.787-5.31-25.602
	c-0.504-0.028-1.013-0.079-1.526-0.177c-1.621-0.31,0.924-1.676,1.791-1.511c4.998,0.954,7.7-3.468,7.323-7.863
	c-0.112,0.027-0.228,0.049-0.351,0.056c-12.127,0.653-21.057-6.877-27.6-16.359c-1.417,0-2.833,0-4.25,0
	c-0.289,0-1.184-0.063-0.705-0.555c0.442-0.457,1.313-0.713,1.934-0.713c0.723,0,1.445,0,2.168,0
	c-3.188-4.854-5.784-10.131-7.883-15.042c-0.019-0.044-0.023-0.087-0.031-0.13c-0.021,0.002-0.044,0.006-0.063,0.007
	c-0.447,0.015-0.88,0.073-1.305,0.153c-0.833,0.336-1.783,0.695-2.786,1.024c-2.618,1.49-4.562,4.207-5.481,7.082
	c-0.019,2.361-0.088,4.717-0.188,7.072c0.072-0.005,0.148-0.02,0.217-0.02c1.217,0,2.435,0,3.651,0c0.346,0,1.181,0.129,0.731,0.65
	c-0.428,0.495-1.297,0.738-1.928,0.738c-0.91,0-1.818,0-2.729,0c-0.17,3.548-0.411,7.092-0.713,10.637
	c-0.547,6.451-2.104,13.726-0.66,20.118C421.895,275.056,433.618,275.97,444.089,272.804z M368.371,255.057
	c-0.085,0.217-0.177,0.438-0.272,0.662c3.054,27.751,6.647,56.814,16.037,83.529c1.656,4.715,3.49,9.357,5.539,13.906
	c1.75,3.887,3.66,7.701,5.734,11.438c0.08,0.145,0.158,0.286,0.238,0.43c0.875-0.598,1.77-1.172,2.664-1.748
	c0.297-0.19,0.586-0.393,0.886-0.58c0.103-0.064,0.229-0.117,0.37-0.16c1.674-2.105,2.984-4.617,4.066-7.307
	c1.965-4.881,3.194-10.318,4.551-14.854c0.82-2.746,1.623-5.499,2.419-8.253c0.937-3.239,1.872-6.479,2.817-9.717
	c-0.188-0.068-0.346-0.185-0.438-0.359c-3.596-6.889-9.046-12.855-11.07-20.493c-0.334-1.26,2.564-2.034,2.896-0.776
	c1.773,6.69,6.25,12.076,9.69,17.973c1.046-3.526,2.112-7.049,3.244-10.549c2.839-8.778,5.747-18.18,10.838-25.97
	c1.563-2.392,3.5-4.813,5.892-6.295c-5.229,0.352-10.498-0.523-14.063-4.1c-0.327,0.193-0.718,0.3-1.116,0.233
	c-7.98-1.332-16.561-5.067-17.467-14.18c-0.052-0.526-0.087-1.051-0.107-1.574c-0.342,0.049-0.644,0.031-0.815-0.101
	C391.456,248.976,379.147,252.571,368.371,255.057z M298.521,219.809c0.076-0.008,0.15-0.012,0.223-0.012
	c-0.152-0.131-0.242-0.215-0.242-0.215L298.521,219.809z M303.11,243.175c0.768,2.861,1.673,5.981,2.875,8.992
	c0.035-0.004,0.07-0.01,0.098-0.01c13.152-0.093,26.231-2.371,36.892-10.571c0.134-0.103,0.399-0.198,0.713-0.275
	c0.604-0.498,2.377-1.012,2.711-0.399c5.956,10.914-2.981,20.361-13.604,24.589c0.362,0.133,0.623,0.405,0.623,0.853
	c0.002,2.007,0.018,4.013,0.037,6.019c0.279-0.007,0.506,0.048,0.611,0.206c9.914,14.83,26.292-4.949,31.105-16.148
	c-0.076-0.021-0.146-0.046-0.203-0.083c-4.764-3.001-7.621-7.494-10.765-11.858c-0.368-0.158-0.483-0.372-0.431-0.597
	c-0.707-0.969-1.434-1.926-2.203-2.857c-0.656,0.144-1.348,0.244-2.1,0.262c-1.948,0.047,0.195-1.467,1.168-1.49
	c4.996-0.121,5.184-6.75,4.017-10.288c-0.596-1.808-1.552-3.782-3.239-4.814c-2.263-1.385-3.919,0.971-5.135,2.69
	c-0.262,0.371-1.206,0.636-1.923,0.653c-0.237,0.095-0.509,0.186-0.817,0.252c-2.132,0.796-4.619,0.948-5.921-1.247
	c-0.915-1.543-1.259-3.392-1.208-5.24c-1.561,0.865-3.391,1.244-5.309,0.926c-3.106-0.515-5.01-2.681-5.672-5.369
	c-1.373,1.481-3.422,2.08-5.605,2.031c-0.744,0.307-1.456,0.48-2.074,0.432c-1.332-0.103-2.449-0.878-3.31-1.755
	c-0.877-0.418-1.69-0.923-2.401-1.495c-2.252,4.25-7.625,7.381-12.218,6.168C300.35,229.624,301.325,236.523,303.11,243.175z
	 M343.919,242.561c-10.982,7.739-24.191,10.368-37.479,10.71c1.738,4.048,4.072,7.81,7.438,10.349
	C326.401,273.067,351.243,258.185,343.919,242.561z M254.921,387.5c1.816,7.82,9.929,17.43,18.281,17.973
	c0.017-0.012,0.027-0.02,0.044-0.029c17.684-10.248,34.12-25.504,39.931-45.76c0.041-0.142,0.156-0.269,0.313-0.382
	c-0.197-0.797-0.395-1.594-0.593-2.391c-3.504-13.966-8.619-31.044-2.183-44.897c0.512-1.099,3.437-1.188,2.756,0.275
	c-6.631,14.273-0.582,32.146,2.988,46.49c4.502,18.082,8.256,36.152,14.43,53.781c7.631-5.143,17.881-6.813,26.457-9.32
	c0.007-0.002,0.012-0.002,0.018-0.004c-0.007-0.074-0.021-0.141-0.027-0.215c-0.039-0.533,0.534-0.953,1.182-1.158
	c0.708-0.748,1.402-1.508,2.084-2.281c0.548-0.621,1.093-1.246,1.628-1.881c-0.035-0.031-0.074-0.061-0.104-0.1
	c-0.203-0.256-0.39-0.525-0.59-0.783c-12.654-16.364-17.925-37.146-23.386-56.719c-3.493-12.521-5.414-25.348-6.463-38.269
	c-0.007-0.071-0.011-0.144-0.017-0.216c-0.899-11.175-1.149-22.42-1.18-33.605c-7.977,2.585-17.648,5.043-23.633,11.145
	c-6.303,6.425-7.76,15.813-9.832,24.21c-4.142,16.779-5.03,34.013-11.288,50.266c-0.103,0.268-0.387,0.484-0.737,0.646
	C276.286,367.06,267.386,378.135,254.921,387.5z M236.297,402.513c-1.093,1.127-2.594,2.57-2.782,4.225
	c-0.098,0.865,0.164,1.805,0.643,2.416c0.504,0.053,0.83,0.32,0.947,0.645c0.467,0.096,1.003-0.07,1.56-0.639
	c2.433-2.479,4.372-5.543,7.421-7.324c0.788-0.461,3.406-0.383,1.728,0.598c-1.713,1.002-2.992,2.531-4.26,4.064
	c0.104,0.029,0.203,0.068,0.285,0.127c7.722,5.525,15.429,1.117,23.279-1.563c-5.61-2.979-10.369-8.752-12.418-14.479
	C247.646,395.015,241.047,397.617,236.297,402.513z M298.978,412.476c-2.431,0-4.861,0-7.292,0l7.292,0.082
	C298.978,412.531,298.978,412.501,298.978,412.476z M246.74,411.099c-2.281-0.309-4.558-1.131-6.833-2.688
	c-1.026,1.105-2.153,2.082-3.572,2.688C239.803,411.099,243.271,411.099,246.74,411.099z M223.919,408.703
	c0.223,0.984,1.861,1.088,2.655,1.146c1.516,0.107,3.039-0.014,4.546-0.234c-0.586-0.975-0.755-2.188-0.197-3.348
	c0.632-1.313,1.445-2.469,2.368-3.529c-2.329,0.877-4.645,1.881-6.706,3.217C225.947,406.369,223.677,407.636,223.919,408.703z
	 M299.774,420.861c-0.163-0.043-0.309-0.111-0.432-0.207c-4.313,0-8.625,0.004-12.938,0.006l-31.112,0.182
	C270.12,420.847,284.947,420.853,299.774,420.861z M324.531,420.871c-0.317-0.139-0.628-0.297-0.925-0.484
	c-0.087-0.053-0.105-0.121-0.057-0.209c1.379-2.314,3.084-4.234,5.018-5.863c-0.182-0.104-0.325-0.25-0.398-0.459
	c-5.804-16.434-9.514-33.277-13.599-50.137c-6.971,18.564-22.775,32.621-39.586,42.363c-0.052,0.029-0.112,0.059-0.178,0.082
	c-0.341,0.445-1.217,0.949-1.805,0.959c-2,0.035-3.999-0.389-5.927-1.156c-0.162,0.27-0.458,0.523-0.937,0.682
	c-5.004,1.652-9.922,3.863-14.801,4.451c16.02,0,32.039,0,48.058,0c0.811-0.658,2.528-0.604,2.528,0.605c0,2.668,0,5.334,0,8
	c0,0.598-0.549,1.008-1.172,1.156C308.677,420.865,316.604,420.869,324.531,420.871z M346.192,420.882
	c-1.363-0.199-2.715-0.393-4.046-0.523c-0.474-0.047-0.534-0.199-0.373-0.383c-2.162-0.111-4.693,0.41-7.276,0.9
	C338.396,420.878,342.294,420.88,346.192,420.882z M390.102,420.898c-0.435-0.139-0.837-0.295-1.189-0.469
	c-1.259-0.625-1.817-1.494-0.454-2.686c0.17-0.146,0.354-0.271,0.541-0.393c0.228-0.145,0.465-0.271,0.713-0.379
	c1.48-0.652,3.297-0.762,4.817-1.064c3.19-0.639,6.396-1.215,9.575-1.906c3.375-0.734,7.037-1.471,10.313-2.873
	c1.981-0.85,3.815-1.947,5.366-3.434c-0.054-0.162-0.096-0.33-0.118-0.508c-0.059-0.48,0.735-0.877,1.508-1.033
	c12.526-8.867,25.053-17.758,37.74-26.403c0.283-0.192,0.567-0.388,0.851-0.579c-0.056-0.168-0.123-0.326-0.181-0.49
	c-3.983-11.304-14.707-17.475-22.636-25.777c-0.999-1.045-1.894-2.105-2.703-3.178c-1.077,2.104-2.044,4.258-2.954,6.435
	c-1.973,4.712-3.756,9.502-6.14,14.026c-0.115,0.219-0.218,0.442-0.335,0.66c-3.673,6.76-8.816,12.604-14.344,17.918
	c-0.694,0.668-1.398,1.336-2.108,2.002c-10.052,9.436-21.545,18.51-34.401,23.543c-0.146,0.172-0.352,0.342-0.584,0.486
	c-0.362,0.225-0.791,0.385-1.146,0.379c-0.311-0.008-0.619-0.029-0.928-0.049c-0.031,0.08-0.116,0.18-0.275,0.301
	c-3.177,2.42-6.443,4.393-10.173,5.463c6.207,0.002,12.415,0.002,18.622,0.006c2.13,0,4.26,0,6.391,0.002
	C387.281,420.898,388.691,420.898,390.102,420.898z M541.188,420.939c-0.006-0.027-0.019-0.053-0.021-0.084
	c-1.215-24.445-27.287-39.557-30.517-62.998c-1.032,3.476-2.14,6.916-3.312,10.311c-4.608,13.354-13.074,22.891-25.854,28.854
	c-13.251,6.186-27.76,9.08-40.982,15.426c-0.326,0.156-0.961,0.225-1.484,0.195c-0.493,0.215-1.042,0.369-1.32,0.33
	c-0.023-0.002-0.049-0.006-0.072-0.01c-1.529,1.297-2.755,2.83-4.048,4.273c-1.288,1.438-2.667,2.76-4.464,3.672
	c0.788,0,1.577,0,2.365,0.002C468.05,420.923,504.618,420.937,541.188,420.939z M161.651,233.412
	c-0.191-0.613-3.071,0.221-2.897,0.776c0.447,1.432,0.474,3.01,1.096,4.381c0.299,0.66,3.098-0.336,2.896-0.776
	C162.125,236.42,162.1,234.842,161.651,233.412z M155.334,232.166c0.731,0.103,1.54-0.238,1.881-0.909
	c0.676-1.327,1.321-2.335,2.874-2.364c0.658-0.013,1.513-0.493,1.586-1.212c0.077-0.763-0.753-1.034-1.358-1.022
	c-2.866,0.054-4.649,1.777-5.888,4.208C154.091,231.527,154.73,232.08,155.334,232.166z M161.416,256.133
	c-0.294,0.344-0.707,0.522-1.14,0.586c-1.535,1.881-4.583,2.566-6.772,1.583c-0.864-0.388-1.794-1.161-1.918-2.168
	c-0.132-1.068,0.416-1.956,1.146-2.671c-0.462-0.879,1.621-1.948,2.565-1.332c1.781,1.163,3.686,2.052,5.744,2.598
	C161.708,254.906,161.829,255.649,161.416,256.133z M158.151,256.299c-1.24-0.419-2.44-0.949-3.584-1.586
	c-0.17,0.727,0.015,1.475,0.798,2.069c0.506,0.384,1.111,0.677,1.757,0.699c0.303-0.225,0.521-0.516,0.708-0.842
	C157.907,256.506,158.02,256.395,158.151,256.299z M227.374,194.548c5.523-2.076,12.12-3.995,17.872-1.533
	c5.152,2.206,9.214,6.666,9.905,12.413c0.729,6.071-0.956,10.998-4.482,15.917c-4.186,5.839-9.491,11.396-8.464,19.129
	c0.068,0.514-0.275,0.936-0.747,1.2c-2.614,5.933-13.087,6.19-15.48,0.081c-0.236-0.156-0.375-0.405-0.329-0.767
	c0.011-0.084,0.008-0.168,0.018-0.251c-0.033-0.172-0.019-0.333,0.033-0.482c0.643-8.542-6.524-17.197-8.673-25.171
	C214.493,205.687,218.041,198.058,227.374,194.548z M240.029,233.957c-4.106-0.075-8.208-0.359-12.315-0.442
	c0.462,1.516,0.787,3.002,0.909,4.446c1.308-0.5,3.139-0.357,4.288-0.401c1.442-0.056,2.885-0.095,4.327-0.146
	c0.51-0.018,1.021-0.034,1.53-0.063c0.153-0.008,0.352-0.049,0.502-0.079C239.406,236.109,239.667,235.008,240.029,233.957z
	 M230.186,239.129c0.162-0.161,0.246-0.368,0.13-0.636C230.413,238.72,230.346,238.938,230.186,239.129z M239.244,240.63
	c-0.049-0.509-0.08-1.009-0.083-1.495c-1.353,0.243-2.887,0.109-4.171,0.15c-1.303,0.042-2.607,0.078-3.908,0.153
	c-0.495,0.028-0.991,0.053-1.483,0.107c-0.286,0.131-0.617,0.22-0.939,0.244c-0.006,0.136-0.02,0.27-0.03,0.404
	c1.19,4.356,8.235,5.436,10.096,1.001C238.825,240.96,239.012,240.772,239.244,240.63z M227.149,231.813
	c0.094-0.018,0.187-0.031,0.273-0.03c4.434,0.027,8.861,0.367,13.294,0.464c3.109-6.744,9.913-11.746,11.374-19.599
	c1.276-6.864-1.286-15.2-8.512-17.655c-6.114-2.078-14.334-0.168-19.513,3.688C212.462,207.322,222.976,220.258,227.149,231.813z
	 M215.527,196.626c0.788,0.602,3.443-0.542,2.697-1.112c-3.157-2.41-5.959-5.229-8.763-8.032c-0.69-0.69-3.426,0.383-2.697,1.112
	C209.568,191.396,212.37,194.215,215.527,196.626z M237.322,182.668c0-3.164,0-6.328,0-9.492c0-1.536-2.938-1.106-2.938,0.214
	c0,3.164,0,6.328,0,9.492C234.384,184.418,237.322,183.987,237.322,182.668z M258.042,195.01c0.042-0.036,0.103-0.086,0.214-0.171
	c0.348-0.263,0.724-0.494,1.09-0.732c1.065-0.693,2.149-1.357,3.229-2.027c0.871-0.541,1.744-1.08,2.6-1.645
	c0.438-0.289,1.233-0.686,1.387-1.244c0.275-1.004-2.632-0.57-2.893,0.381c0.116-0.425,0.133-0.216-0.277,0.059
	c-0.422,0.284-0.854,0.553-1.283,0.824c-1.085,0.683-2.178,1.353-3.265,2.033c-0.512,0.321-4.345,2.294-3.576,3.202
	C255.786,196.302,257.773,195.708,258.042,195.01z M300.001,243.582c0,0-0.031-0.008-0.045-0.012l0.045,1.012V243.582z
	 M128.797,250.282c-1.027-0.966-2.437-1.027-3.735-0.655c-0.396,0.114-1.421,0.493-1.26,1.092c0.158,0.59,1.242,0.429,1.637,0.315
	c0.031-0.009,0.032-0.018,0.032-0.026c0.012,0.004,0.008,0.005,0.026,0.011c0.168,0.056,0.317,0.152,0.456,0.257
	c0.33,0.25,0.601,0.583,0.865,0.897c0.582,0.694,1.107,1.417,1.835,1.968c0.535,0.404,1.34,0.252,1.914,0.014
	c0.255-0.106,1.313-0.732,0.78-1.137C130.337,252.255,129.71,251.143,128.797,250.282z" fill="#0a1230"></path>
</svg>