<?xml version="1.0" standalone="no"?>
<svg version="1.1" id="Layer_1" xmlns="http://www.w3.org/2000/svg" xmlns:xlink="http://www.w3.org/1999/xlink" x="0px" y="0px" width="595.28px" height="595.28px" viewBox="0 0 595.28 595.28" enable-background="new 0 0 595.28 595.28" xml:space="preserve">
<path id="color_x5F_2" fill="#6c63ff" d="M313.439,324.758c3.587-9.068,7.522-17.999,11.43-26.931
	c3.785-8.65,7.621-17.28,11.229-26.005c1.325-3.206,3.532-7.259,4.486-11.104l0.781-1.629c4.914,7.751,11.618,14.217,19.291,18.966
	c1.177,1,1.917,1.601,1.917,1.601s0.435,1.127,1.298,2.89c1.215,5.075,3.105,9.868,6.488,13.945
	c3.955,4.767,9.537,5.752,15.372,6.095c17.247,1.013,34.577-0.36,51.72-2.234c0.004,0.009,0.003,0.017,0.007,0.026
	c0.003,0.007,0.006,0.014,0.009,0.02c-0.57,0.369-0.229,0.719,0.37,0.848c1.425,3.255,2.829,6.711,4.023,10.284
	c0.523,2.091,1.096,4.453,1.713,7.127c0.712,3.084,1.193,5.762,1.521,8.072c0.006,0.093,0.009,0.185,0.015,0.277
	c-0.437,0.268-0.642,0.576-0.208,0.781c0.084,0.04,0.17,0.069,0.254,0.108c0.119,2.979-0.093,5.931-0.719,8.812
	c-0.419,0.049-0.824,0.199-1.088,0.478c1.011-1.069,0.535-0.465-0.919-0.345c-1.537,0.126-3.079,0.202-4.619,0.277
	c-4.849,0.238-9.704,0.342-14.558,0.399c-12.524,0.146-25.161-0.041-37.594-1.681c-13.19-1.74-23.79-7.86-31.248-19.067
	c-8.222-12.356-11.116-27.969-12.389-42.5c-0.109-1.242-2.37-0.832-2.822,0.286c-0.185,0.1-0.326,0.216-0.392,0.35
	c-10.933,22.475-8.205,47.168-2.533,70.7c-9.37-1.486-18.785-2.751-28.211-3.929C308.335,335.974,311.391,329.938,313.439,324.758z
	 M305.358,339.662l-0.63,1.598c0.143,0.018,0.285,0.036,0.428,0.053C305.199,340.766,305.271,340.215,305.358,339.662z
	 M224.487,249.799c0.864-1.225,1.89-2.346,3.186-3.334C226.457,247.307,225.376,248.38,224.487,249.799z M266.3,242.599
	c-3.305-0.348-6.593-0.705-9.787-0.764c-3.538-0.065-7.128-0.058-10.698,0.173C252.211,241.851,259.885,242.188,266.3,242.599z
	 M176.051,281.719c6.391,7.752,16.6,11.331,26.562,10.798c3.176-0.661,6.532-1.276,9.343-1.766c0.118-0.04,0.234-0.082,0.352-0.123
	c0.355-0.385,1.225-0.701,1.881-0.725c1.3-0.545,2.56-1.173,3.771-1.884c-1.988-12.584-3.308-30.039,5.267-40.245
	c5.896-7.018,18.505-7.399,26.841-7.64c6.632-0.192,13.244,0.129,19.855,0.641c3.843,0.297,7.985,1.028,11.835,0.527
	c1.463-0.19,1.357,0.708,0.632,1.28c1.95-0.248,0.61,0.978-0.577,1.142c-2.24,0.31-4.39,0.882-6.457,1.665
	c-2.31,1.059-5.385,2.629-8.78,4.794c-7.423,5.291-13.682,12.84-19.285,19.416c-2.446,2.871-4.769,5.821-6.996,8.834
	c-1.704,2.404-3.391,4.81-5.015,7.143c-4.543,6.746-8.729,13.734-12.775,20.835c-0.095,0.166-0.305,0.302-0.566,0.412
	c2.08,1.777,3.49,4.282,3.726,7.708c0.39,5.678,0.642,12.129-0.256,18.094c0.549,3.563,1.165,6.033,1.165,6.033l7.479,2.244
	c1.738,0.284,3.458,0.564,5.09,0.923c2.13,0.468,5.788,0.744,8.547,1.691c0.466-0.027,0.83,0.046,0.833,0.253
	c0,0.022-0.002,0.044-0.002,0.066c0.743,0.32,1.393,0.702,1.878,1.175c0.283,0.276,0.286,0.563,0.129,0.82
	c0.005,0.069-0.02,0.14-0.074,0.211c-0.977,2.649-1.204,5.841-1.751,8.585c-0.016,0.081-0.032,0.161-0.048,0.242
	c0.46-0.141,0.979-0.167,1.362-0.062c0.603-0.039,1.211-0.019,1.784,0.031c1.312,0.113,2.613,0.337,3.897,0.626
	c0.353,0.08,0.732,0.197,1.124,0.327c0.01,0.003,0.021,0.007,0.031,0.011c0.374,0.125,0.758,0.26,1.142,0.386
	c-0.016-1.53,0.188-3.144,0.527-4.784c0.873-4.213,2.611-8.58,3.664-12.036c0.239-0.783,0.488-1.563,0.732-2.345
	c3.62-11.602,7.829-23.032,12.473-34.259c10.489-25.356,22.816-53.159,42.862-72.542c0.221-0.214,0.817-0.387,1.399-0.472
	l0.92-1.087c-0.001-0.002-0.002-0.005-0.003-0.008c-0.107-0.044-18.411-7.565-37.22-11.562c-6.063-1.102-12.198-1.917-18.344-2.409
	c-0.479-0.012-0.96-0.026-1.43-0.026c-7.406,0-15.008-0.319-22.517-0.152c-7.107,0.498-14.114,1.51-20.916,3.11
	C192.471,224.122,176.713,254.954,176.051,281.719z M275.569,243.292c0.947,0.081,1.745,0.152,2.38,0.21
	c0.365-0.1,0.733-0.193,1.104-0.281C277.901,243.291,276.739,243.312,275.569,243.292z M293.282,269.037
	c2.474-4.615,4.862-8.827,7.015-12.492C297.821,260.614,295.484,264.789,293.282,269.037z M273.805,382.862
	c-8.722,9.05-16.264,19.059-23.467,29.333L273.805,382.862z M350.178,347.994c12.461,2.328,24.805,5.18,36.945,8.879
	c-0.484-0.191-0.983-0.397-1.464-0.584C378.069,353.336,365.019,350.519,350.178,347.994z M476.392,457.668
	c0.07,0.024,0.136,0.054,0.199,0.089l-0.134-0.146C476.436,457.631,476.414,457.65,476.392,457.668z M238.813,390.094
	c2.006-9.806,3.966-19.622,5.92-29.439c0.363-1.824,0.636-3.776,0.937-5.741c0.009-0.058,0.019-0.116,0.027-0.174
	c-0.026,0.056-0.055,0.111-0.082,0.167c-0.441,0.904-0.91,1.802-1.413,2.689L238.813,390.094z M470.707,460.976
	c0.171,0.055,0.289,0.148,0.315,0.291C470.986,461.069,470.862,460.991,470.707,460.976z M470.983,461.803
	c0.167,0.055,0.333,0.11,0.499,0.149c1.322,0.313-0.314,1.225-1.333,1.395c0.707,0.63,1.091,0.976,1.091,0.976l3.579-4.351
	c-0.163-0.192-0.331-0.379-0.491-0.574C473.153,460.341,471.987,461.203,470.983,461.803z M497.394,428.082
	c-0.176-0.044-0.282-0.115-0.281-0.216c-0.097-0.074-0.191-0.147-0.293-0.225c-1.932-1.013-3.673-2.708-5.224-4.022
	c-0.639-0.542-1.272-1.087-1.909-1.63c-4.177-3.393-9.475-7.832-15.531-13.203c-0.991-0.878-2.007-1.729-3.013-2.589
	c-3.432-2.861-6.903-5.673-10.432-8.418c-11.121-8.473-22.842-15.941-34.463-22.399c-16.157-8.557-33.195-15.125-51.124-19.876
	c-12.716-3.37-25.591-6.052-38.551-8.268c-9.689-1.657-19.426-3.051-29.181-4.268c-0.736,0.414-1.873,0.394-2.196-0.272
	c-0.142-0.017-0.284-0.034-0.426-0.051c-1.203-0.146-2.406-0.292-3.609-0.434c-8.473-0.995-16.963-1.838-25.436-2.833
	c-3.182-0.374-7.144-0.405-10.361-1.49c-0.018,0.06-0.038,0.119-0.056,0.178c-1.623,5.333-4.978,12.901-4.335,18.732
	c0.999,0.444,0.324,1.851-1.028,1.851c-0.506,0-1.013,0-1.519,0c-0.497,0-0.825-0.126-1.016-0.314
	c-2.2-0.482-4.393-1.368-6.648-1.512c-0.359-0.023-0.879-0.021-1.244,0.004c-0.392,0.268-0.85,0.425-1.341,0.422
	c-1.093,5.487-2.182,10.974-3.282,16.459c-2.787,13.896-5.093,28.088-8.796,41.775c-0.971,3.591-2.115,9.64-4.812,13.521
	c-0.362,0.521-0.761,0.988-1.183,1.42c-0.551,0.564-1.156,1.039-1.822,1.406c-0.557,0.359-1.188,0.584-1.854,0.705
	c-0.005,0.001-0.008,0.003-0.013,0.004c-0.07,0.014-0.143,0.02-0.213,0.032c-0.112,0.017-0.223,0.039-0.336,0.051
	c-5.904,0.898-13.491-2.306-18.894-3.917c-9.893-2.948-19.695-6.219-29.45-9.617c-2.428,2.813-4.638,6.125-8.395,7.131
	c-3.973,1.065-7.969-2.154-10.781-4.522c-4.507-3.796-8.934-7.917-12.812-12.365c-0.476-0.546-1.021-1.459-1.662-2.135l-3.052-1.271
	c-9.036-3.295-18.063-6.612-27.084-9.949c-0.816,0.183-1.65,0.45-2.488,0.774c-2.728,1.495-6.852,3.867-11.303,6.803
	c-2.197,1.75-4.175,3.71-5.811,5.91c-0.835,1.443-1.78,3.042-2.698,4.58c-0.612,1.37-1.104,2.813-1.439,4.344
	c-0.036,0.165-0.231,0.314-0.503,0.438c0.538,0.306,0.728,0.918,0.063,1.432c18.702,34.434,67.178,87.144,108.494,54.068
	c13.261-10.616,23.658-24.388,33.368-38.483c2.861-4.154,5.664-8.334,8.462-12.472c1.558-2.305,3.116-4.598,4.681-6.862
	c12.986-18.785,26.883-37.459,46.103-50.31c0.949-0.634,3.446-0.181,1.813,0.912c-5.817,3.889-11.251,8.322-16.224,13.247
	c-0.48,0.476-0.943,0.966-1.417,1.448l0.363,0.038c0.296-0.528,1.98-1.108,2.54-0.83c3.319,1.651,8.288,0.914,11.854,0.934
	c7.19,0.041,14.382,0.206,21.549,0.816c24.235,2.063,48.362,8.107,70.746,17.631c4.378,1.863,8.678,3.881,12.908,6.03
	c1.29,0.618,2.55,1.25,3.773,1.897c1.222,0.646,2.493,1.361,3.807,2.133c14.185,7.895,27.536,17.27,40.126,27.546
	c6.428,5.247,12.654,10.72,18.9,16.181c2.132,1.863,5.019,5.195,7.939,6.876c0.301-0.085,0.614-0.137,0.889-0.14
	c0.008-0.006,0.013-0.01,0.021-0.016c0.438-0.329,0.874-0.662,1.294-1.015c1.307-1.099,2.571-2.246,3.8-3.432
	c2.989-2.886,5.883-5.875,8.655-8.971c5.07-5.662,10.924-11.886,13.886-19.023C497.733,428.342,497.568,428.216,497.394,428.082z
	 M290.196,383.422l41.466,4.365c0,0,9.676,1.644,22.553,4.867c-15.354-4.542-31.17-7.547-47.108-8.655
	C301.469,383.606,295.836,383.492,290.196,383.422z M153.073,201.155l0.303-0.121c-0.031-0.005-0.065-0.006-0.095-0.014
	c-0.076,0.023-0.153,0.041-0.23,0.056L153.073,201.155z M154.064,198.784c0.474-0.13,0.947-0.258,1.424-0.379
	c-0.952-2.615-1.904-5.228-2.864-7.839c-0.726-1.977-1.452-3.953-2.191-5.925c-0.282-0.752-0.562-1.505-0.854-2.253
	c-0.514,0.084-1.031,0.21-1.529,0.285c-0.01,0.001-0.023,0.004-0.034,0.006c0.687,2.572,1.989,5.178,2.889,7.594
	C151.872,192.866,152.922,196.483,154.064,198.784z M164.571,184.705c0.938,3.558,1.61,7.42,2.875,10.91
	c0.489-0.152,0.979-0.303,1.471-0.448c-0.948-3.691-1.899-7.382-2.857-11.071c-0.678-2.609-1.355-5.22-2.048-7.825
	c-0.235-0.883-0.469-1.767-0.714-2.647c-0.521,0.093-1.042,0.221-1.554,0.298c-0.009,0.001-0.02,0.003-0.029,0.005l0.166,0.904
	C162.549,178.153,163.727,181.5,164.571,184.705z M180.81,191.029c0.944-0.308,1.898-0.591,2.854-0.867
	c-1.282-4.991-2.567-9.981-3.863-14.969c-1.195-4.601-1.991-9.721-3.666-14.234c-1.03,0.042-2.116,0.347-3.167,0.547
	c0.515,4.746,2.795,10.457,4.017,15.087C178.215,181.252,179.02,186.502,180.81,191.029z M190.07,168.136
	c1.467,5.565,2.368,12.05,4.604,17.435l0.912-0.07c1.033-0.328,2.071-0.641,3.114-0.94c-1.464-5.704-2.934-11.407-4.414-17.107
	c-1.434-5.525-2.429-12.943-4.589-18.089c-1.366,0.017-2.888,0.695-4.353,0.947c0.327,1.674,1.118,3.922,1.49,5.379
	C187.896,159.843,188.977,163.991,190.07,168.136z M403.674,128.82c1.377-2.421,3.01-4.523,4.848-6.33
	C406.965,123.881,405.118,125.761,403.674,128.82z M433.943,143.046c3.495-0.423,6.983-1.075,10.455-1.658l-10.41,1.115
	C433.976,142.685,433.956,142.865,433.943,143.046z M413.62,165.788c2.191,1.634,4.657,3.067,7.272,4.221
	c3.295,1.227,5.681,1.646,5.681,1.646s0.062,0.148,0.228,0.37c5.472,1.337,11.222,1.288,16.394-0.933
	c11.815-5.075,16.646-18.489,15.817-30.655c-2.832,1.154-8.979,1.498-10.208,1.703c-5.253,0.878-10.54,1.94-15.837,2.524
	c-0.703,0.078-0.947-0.232-0.895-0.591c-0.22-0.104-0.366-0.286-0.348-0.576c0.295-4.595,0.981-9.191,1.46-13.77
	c0.35-3.341,0.702-6.683,1.005-10.029c0.102-1.125-0.012-4.621,0.75-4.338c-0.241-0.09-0.377-0.207-0.435-0.336
	c-14.509-1.086-28.989,6.253-31.658,21.793C400.952,147.846,404.493,158.984,413.62,165.788z M436.573,113.655l-1.648,0.127
	c0.536,0.034,1.074,0.087,1.611,0.14L436.573,113.655z M410.573,120.655c-0.015,0.015-0.032,0.031-0.048,0.046
	c0.719-0.582,1.459-1.126,2.224-1.632C411.867,119.587,411.107,120.121,410.573,120.655z"></path>
<path id="color_x5F_1" d="M350.522,206.267c0.25,1.347-2.654,2.087-2.898,0.776c-0.256-1.382-0.903-2.505-1.879-3.507
	c-0.515-0.529,0.256-1.252,0.693-1.459c0.631-0.3,1.45-0.33,1.963,0.197C349.479,203.38,350.239,204.742,350.522,206.267z
	 M373.466,204.147c-0.706,0.061-1.393,0.432-1.606,1.132c-0.253,0.828-0.237,1.687,0.015,2.513c0.389,1.271,3.281,0.477,2.898-0.776
	c-0.211-0.689-0.196-1.297,0.015-1.987C375.002,204.327,373.908,204.11,373.466,204.147z M373.911,197.395
	c0.422-0.543-0.356-0.743-0.756-0.743c-0.938,0.001-1.854,0.075-2.755,0.358c-0.357,0.113-1.43,0.458-1.276,1.033
	c0.149,0.555,1.265,0.369,1.622,0.256c0.344-0.108,0.276-0.1,0.608-0.139c-0.103,0.011-0.064,0.011,0.113,0
	c0.174-0.006,0.349-0.004,0.523-0.004C372.631,198.157,373.499,197.927,373.911,197.395z M367.997,219.03
	c-0.841-0.449-1.247-1.391-1.475-2.264c-0.214-0.817-3.114-0.048-2.898,0.776c0.313,1.194,0.925,2.148,2.025,2.736
	c0.547,0.292,1.55-0.066,2.038-0.326C368.079,219.745,368.558,219.33,367.997,219.03z M159.432,362.398
	c1.268,0.579,2.575,0.963,3.969,1.057c2.168,0.145,4.574-0.587,6.079-2.205c1.055-1.134,1.571-2.745,0.681-4.124
	c-1.157-1.79-4.126-1.634-5.911-1.355c-0.573,0.09-1.496,0.362-1.631,1.043c-0.131,0.662,0.839,0.793,1.279,0.725
	c1.033-0.162,2.425-0.345,3.282,0.417c0.553,0.492,0.67,1.296,0.398,1.952c-0.182,0.437-0.432,0.746-0.748,1.044
	c-0.236,0.223-0.741,0.486-0.911,0.542c-1.22,0.401-2.707,0.059-3.976-0.485c-0.26-0.94,0.078-1.916,0.492-2.78
	c0.645-1.345-2.269-1.091-2.721-0.146c-0.353,0.737-0.638,1.486-0.771,2.294C158.854,360.91,158.826,362.122,159.432,362.398z
	 M548.514,410.942c-3.691,11.649-15.18,20.405-23.072,29.232c-1.709,1.911-3.375,3.802-5.076,5.545
	c-1.887,2.928-5.837,7.936-10.792,7.936c-0.565,0-1.113-0.017-1.651-0.041c-1.887,0.392-3.921,0.47-6.15,0.151
	c1.622,1.498,3.086,3.135,4.624,4.737c0.412,0.429-0.006,1.072-0.349,1.361c-5.134,4.345-11.181,7.402-16.5,11.5
	c-0.544,0.419-1.497,0.613-2.083,0.155c-4.523-3.533-8.933-7.161-12.645-11.547c-0.163-0.192-0.331-0.379-0.491-0.574
	c-1.175,0.944-2.341,1.805-3.345,2.405c0.167,0.055,0.333,0.11,0.499,0.149c1.322,0.313-0.314,1.225-1.333,1.395
	c-0.19,0.032-0.361,0.041-0.485,0.011c-3.477-0.824-6.619-4.324-9.202-6.569c-5.936-5.155-11.792-10.398-17.853-15.408
	c-18.745-15.496-39.066-29.497-61.527-39.053c-8.742-3.72-17.723-6.969-26.867-9.674c-15.354-4.542-31.17-7.547-47.108-8.655
	c-5.638-0.392-11.27-0.506-16.91-0.577c-1.708-0.021-3.415-0.039-5.125-0.058c-3.014-0.034-6.872,0.323-9.667-1.068
	c-0.255-0.127-0.294-0.287-0.202-0.452c0.296-0.528,1.98-1.108,2.54-0.83c3.319,1.651,8.288,0.914,11.854,0.934
	c7.19,0.041,14.382,0.206,21.549,0.816c24.235,2.063,48.362,8.107,70.746,17.631c4.378,1.863,8.678,3.881,12.908,6.03
	c2.553,1.296,5.08,2.639,7.58,4.03c14.185,7.895,27.536,17.27,40.126,27.546c6.428,5.247,12.654,10.72,18.9,16.181
	c2.132,1.863,5.019,5.195,7.939,6.876c0.301-0.085,0.614-0.137,0.889-0.14c0.008-0.006,0.013-0.01,0.021-0.016
	c0.438-0.329,0.874-0.662,1.294-1.015c1.307-1.099,2.571-2.246,3.8-3.432c2.989-2.886,5.883-5.875,8.655-8.971
	c5.07-5.662,10.924-11.886,13.886-19.023c0.043-0.103,0.088-0.205,0.129-0.308c-0.015-0.005-0.028-0.009-0.043-0.014
	c-0.225-0.001-0.429-0.019-0.582-0.057c-0.176-0.044-0.282-0.115-0.281-0.216c0-0.024,0.005-0.05,0.019-0.079
	c-0.104-0.05-0.209-0.093-0.312-0.146c-1.932-1.013-3.673-2.708-5.224-4.022c-0.639-0.542-1.272-1.087-1.909-1.63
	c-6.189-5.276-12.315-10.6-18.544-15.792c-3.432-2.861-6.903-5.673-10.432-8.418c-4.067-3.164-8.211-6.238-12.493-9.155
	c-7.133-4.859-14.457-9.265-21.97-13.244c-16.157-8.557-33.195-15.125-51.124-19.876c-12.716-3.37-25.591-6.052-38.551-8.268
	c-9.689-1.657-19.426-3.051-29.181-4.268c-0.736,0.414-1.873,0.394-2.196-0.272c-0.142-0.017-0.284-0.034-0.426-0.051
	c-1.203-0.146-2.406-0.292-3.609-0.434c-8.473-0.995-16.963-1.838-25.436-2.833c-3.182-0.374-7.144-0.405-10.361-1.49
	c-0.018,0.06-0.038,0.119-0.056,0.178c-1.623,5.333-4.978,12.901-4.335,18.732c0.999,0.444,0.324,1.851-1.028,1.851
	c-0.506,0-1.013,0-1.519,0c-0.497,0-0.825-0.126-1.016-0.314c-2.2-0.482-4.393-1.368-6.648-1.512
	c-0.359-0.023-0.879-0.021-1.244,0.004c-0.392,0.268-0.85,0.425-1.341,0.422c-1.093,5.487-2.182,10.974-3.282,16.459
	c-2.787,13.896-5.093,28.088-8.796,41.775c-0.971,3.591-2.115,9.64-4.812,13.521c-0.362,0.521-0.761,0.988-1.183,1.42
	c-0.551,0.564-1.156,1.039-1.822,1.406c-0.574,0.316-1.184,0.57-1.854,0.705c-0.005,0.001-0.008,0.003-0.013,0.004
	c-0.07,0.014-0.143,0.02-0.213,0.032c-0.111,0.02-0.224,0.034-0.336,0.051c-5.904,0.898-13.491-2.306-18.894-3.917
	c-9.893-2.948-19.695-6.219-29.45-9.617c-2.428,2.813-4.638,6.125-8.395,7.131c-3.973,1.065-7.969-2.154-10.781-4.522
	c-4.507-3.796-8.934-7.917-12.812-12.365c-0.476-0.546-1.021-1.459-1.662-2.135c-0.092-0.097-0.186-0.185-0.281-0.27
	c-0.923-0.336-1.848-0.665-2.771-1.001c-9.036-3.295-18.063-6.612-27.084-9.949c-0.816,0.183-1.65,0.45-2.488,0.774
	c-3.375,1.304-6.783,3.548-9.096,5.16c-0.755,0.526-1.492,1.075-2.207,1.644c-2.197,1.75-4.175,3.71-5.811,5.91
	c-0.835,1.443-1.78,3.042-2.698,4.58c-0.612,1.37-1.104,2.813-1.439,4.344c-0.036,0.165-0.231,0.314-0.503,0.438
	c0.538,0.306,0.728,0.918,0.063,1.432c18.702,34.434,67.178,87.144,108.494,54.068c13.261-10.616,23.658-24.388,33.368-38.483
	c2.861-4.154,5.664-8.334,8.462-12.472c1.558-2.305,3.116-4.598,4.681-6.862c12.986-18.785,26.883-37.459,46.103-50.31
	c0.949-0.634,3.446-0.181,1.813,0.912c-5.817,3.889-11.251,8.322-16.224,13.247c-0.48,0.476-0.943,0.966-1.417,1.448
	c-0.346,0.352-0.693,0.702-1.035,1.057c-8.722,9.05-16.264,19.059-23.467,29.333c-6.436,9.182-12.609,18.569-19.125,27.662
	c-12.269,17.121-27.245,38.317-48.588,44.366c-19.537,5.537-39.083-2.101-54.66-13.982c-16.789-12.806-30.577-29.697-40.736-48.184
	c-1.005,1.025-1.96,2.243-2.782,3.053c-2.591,2.556-5.181,5.115-7.801,7.641c-4.34,4.182-8.6,8.855-13.671,12.185
	c-3.536,2.321-14.56,8.467-16.496,0.886c-2.312-9.051,3.417-19.544,9.499-26.794c2.844-3.862,6.529-7.139,10.372-9.868
	c6.405-5.078,13.501-9.246,20.906-12.759c-2.227-4.599,1.986-7.236,6.374-7.708c-3.549-1.312-7.078-2.667-10.562-4.111
	c-0.293,0.079-0.586,0.101-0.837,0.028c-17.138-4.939-1.514-24.528,4.871-32.08c11.989-14.18,26.671-25.768,38.764-39.781
	c0.594-0.688,2.177-0.681,2.598-0.118c0.154-0.009,0.306,0,0.444,0.041c6.408,1.838,13.374,1.996,19.273,5.238
	c2.343-6.273,3.967-12.973,8.435-18.15c4.09-4.739,10.072-5.415,15.689-3.601c1.22-3.68,2.673-7.272,3.301-9.888
	c0.054-0.224,0.195-0.418,0.384-0.581c-0.609-0.567-1.2-1.157-1.764-1.782c-0.594,0.072-1.106-0.029-1.103-0.365
	c0.003-0.308,0.019-0.622,0.026-0.932c-0.089-0.182-0.074-0.36,0.015-0.528c0.811-26.235,16.406-58.248,43.731-65.089
	c33.592-8.409,71.306-3.72,103.457,8.351c0.816-3.522,5.025-5.704,8.323-6.737c0.121-0.038,0.219-0.051,0.325-0.073
	c0.199-0.159,0.458-0.288,0.734-0.38c2.222-3.746,1.703-11.202,0.138-14.613c-2.482-5.412-9.266-9.413-10.041-15.54
	c-0.144-1.14-0.137-2.433,0.091-3.675c0.039-0.479,0.147-0.896,0.319-1.254c0.599-1.807,1.78-3.329,3.839-3.822
	c3.099-0.742,5.551,0.095,7.74,1.691c-0.065-0.225-0.123-0.453-0.182-0.68l-0.067-0.109c0,0,0.005-0.036,0.013-0.097
	c-1.414-5.774-0.592-12.528,4.423-15.938c2.735-1.86,7.149-1.88,10.013-0.315c4.598,2.512,7.254,6.397,13.334,4.791
	c3.586-0.948,6.97-2.294,10.397-3.696c5.264-2.152,10.865-4.03,16.592-2.58c4.546,1.151,10.073,4.035,10.921,9.221
	c0.908,5.562-1.799,10.624-6.05,13.559c-0.955,1.143-2.206,1.657-3.499,1.799c-1.875,0.668-3.899,0.963-5.957,0.794
	c-0.063,0.06-0.129,0.119-0.211,0.179c-0.092,0.067-0.19,0.128-0.283,0.194c-0.068,3.996-0.551,8.205,0.218,12.146
	c0.306,1.57,0.687,4.228,2.313,5.083c1.166,0.614,2.418,0.74,3.563,1.313c3.725,1.862-3.546,6.653-4.97,7.951
	c-0.044,0.04-0.108,0.078-0.18,0.115c-1.33,5.492-0.927,12.792-6.493,15.877c-3.063,1.697-7.74,0.542-10.883,0.043
	c-3.314-0.526-7.026-1.551-10.326-0.424c-2.296,0.784-4.29,2.062-6.256,3.422c-0.127,3.651-0.712,7.26-0.973,10.903
	c-0.012,0.162-0.086,0.302-0.187,0.431c-0.002,1.158-0.254,2.185-0.723,3.059c0.01,0.01,0.021,0.017,0.029,0.026
	c9.26,10.799,20.847,16.885,35.268,16.596c15.797-0.317,25.111-16.521,27.938-30.347c0.018-0.086,0.048-0.168,0.088-0.246
	c-0.102-0.07-0.106-0.174,0.051-0.32c1.276-1.191,1.815-4.413,2.383-5.994c1.114-3.109,2.203-6.228,3.387-9.311
	c1.007-2.624,2.438-7.249,4.294-8.247c2.864-1.542,6.986,1.796,9.316,3.118c4.417,2.504,8.666,5.337,13.122,7.764
	c0.529,0.288,0.097,0.706-0.548,0.998c1.251,5.86-0.248,13.713-1.256,19.289c-2.209,12.222-7.179,24.532-16.526,33.061
	c-16.507,15.062-38.829,15.708-57.253,6.952c1.124,5.012,2.855,10.334,6.408,14.103c5.435,5.766,12.324,5.822,19.82,5.984
	c15.133,0.326,30.214-0.781,45.248-2.429c0.459-0.05,0.746-0.013,0.911,0.071c0.424-0.035,0.829,0.043,1.092,0.27
	c4.896-2.007,9.688-4.659,15.084-4.628c2.143,0.012,4.079,0.994,5.581,2.48c0.284-0.1,0.54-0.166,0.692-0.164
	c4.741,0.057,12.148,0.452,15.267,4.666c1.318,1.782,0.689,3.672-0.706,5.381c0.218,0.014,0.387,0.075,0.463,0.208
	c2.147,3.767,1.041,7.033-1.394,9.583c5.205,7.143-5.827,11.256-11.381,12.059c-2.033,0.294-4.762,0.614-7.092,0.145
	c-0.245,0.13-0.528,0.231-0.817,0.267c-2.627,0.325-5.212,0.234-7.71-0.395c0.008,3.022-0.313,6.014-1.096,8.92
	c-0.212,0.786-1.68,1.216-2.46,0.998c-1.545,0.516-3.724,0.34-5,0.41c-5.156,0.284-10.321,0.43-15.485,0.49
	c-13.09,0.153-26.414,0.136-39.402-1.696c-13.147-1.855-24.667-7.574-32.212-18.911c-7.877-11.838-11.346-25.893-12.924-39.9
	c-8.525,21.49-5.509,44.734-0.063,66.884c3.571,0.587,7.136,1.208,10.69,1.872c12.461,2.328,24.805,5.18,36.945,8.879
	c6.435,1.96,12.813,4.154,19.119,6.641c23.03,9.082,44.084,22.429,63.321,37.918c6.898,5.554,13.564,11.373,20.225,17.208
	c2.462,2.158,5.906,6.237,9.292,7.812c6.614-4.167,13.712-7.36,20.812-10.626c5.65-2.599,10.938-5.628,16.437-8.481
	C541.087,404.875,551.634,401.097,548.514,410.942z M472.906,318.757c-2.283,1.627-5.031,2.809-7.409,3.449
	c-2.33,0.627-5.457,1.033-8.094,0.654c-4.828,4.723,3.71,4.651,7.12,4.038C468.645,326.158,475.611,323.595,472.906,318.757z
	 M466.131,321.139c2.189-0.794,4.357-2.052,5.974-3.655c-0.114-0.474,0.38-0.91,1.003-1.137c1.562-2.056,2.182-4.559,0.984-7.343
	c-1.849,1.539-4.004,2.772-5.24,3.395c-3.811,1.917-9.104,4.47-13.564,3.299C453.887,322.068,461.188,322.931,466.131,321.139z
	 M461.857,298.389c1.254,1.697,2.023,3.777,2.079,5.801c0.089,3.269-1.889,7.327-5.856,6.784c-1.204-0.165-2.314-0.678-3.345-1.392
	c-2.252,0.958-1.108,3.02,0.861,4.062c2.6,1.375,4.968,1.024,7.645-0.014c3.658-1.42,9.065-3.704,10.762-7.548
	C476.577,300.249,467.076,298.735,461.857,298.389z M440.767,300.541c3.505,8.017,6.836,17.261,7.306,26.341
	c1.978,0.813,4.027,1.226,6.139,1.229c-0.038-0.025-0.084-0.04-0.121-0.066c-2.484-1.725-0.813-4.207,0.869-5.853
	c-2.229-1.004-3.474-3.051-2.312-6.769c0.063-0.203,0.348-0.374,0.711-0.502c-1.638-0.907-3.709-2.53-2.389-4.509
	c0.569-0.853,1.564-1.367,2.628-1.717c-2.14-1.88-3.898-4.521-5.376-6.495c-0.629-0.839,2.168-1.805,2.703-1.09
	c1.771,2.364,3.599,4.91,5.913,6.777c0.047,0.038,0.087,0.059,0.132,0.094c0.319,0.009,0.425,0.121,0.388,0.275
	c3.763,2.532,4.229-2.974,3.156-5.943C456.939,292.433,447.834,297.678,440.767,300.541z M363.458,280.709
	c-0.057-0.273,0.184-0.529,0.545-0.729c-1.133-0.607-2.251-1.248-3.347-1.926c-7.673-4.75-14.377-11.215-19.291-18.966
	c-0.129-0.203-0.261-0.405-0.388-0.61c-0.074,0.733-0.206,1.481-0.394,2.239c-0.954,3.845-3.161,7.899-4.486,11.104
	c-3.607,8.726-7.443,17.355-11.229,26.005c-3.907,8.933-7.843,17.863-11.43,26.931c-2.049,5.179-5.104,11.215-5.375,16.915
	c9.426,1.178,18.841,2.443,28.211,3.929c-5.672-23.531-8.399-48.225,2.533-70.7c0.065-0.134,0.207-0.25,0.392-0.35
	c0.452-1.118,2.713-1.527,2.822-0.286c1.272,14.53,4.167,30.144,12.389,42.5c7.458,11.207,18.058,17.327,31.248,19.067
	c12.433,1.641,25.069,1.828,37.594,1.681c4.854-0.057,9.709-0.162,14.558-0.399c1.54-0.076,3.082-0.151,4.619-0.277
	c1.454-0.12,1.93-0.724,0.919,0.345c0.264-0.279,0.669-0.429,1.088-0.478c0.626-2.881,0.838-5.833,0.719-8.812
	c-0.084-0.039-0.17-0.068-0.254-0.108c-0.434-0.205-0.229-0.513,0.208-0.781c-0.006-0.092-0.009-0.184-0.015-0.277
	c-0.345-5.105-1.582-10.256-3.234-15.199c-1.194-3.572-2.599-7.029-4.023-10.284c-0.599-0.129-0.94-0.479-0.37-0.848
	c-0.003-0.006-0.006-0.013-0.009-0.02c-0.004-0.009-0.003-0.017-0.007-0.026c-17.143,1.874-34.473,3.248-51.72,2.234
	c-5.835-0.343-11.417-1.328-15.372-6.095c-3.383-4.078-5.273-8.87-6.488-13.945C363.726,281.937,363.586,281.326,363.458,280.709z
	 M340.458,250.121c1.544,0.379,2.526-0.301,3.096-1.39c0.018-0.151,0.085-0.297,0.195-0.429c0.448-1.136,0.535-2.575,0.375-3.759
	c-0.001-0.003,0.001-0.006,0.001-0.009c-0.938-1.949-1.577-4.031-2.77-5.847c-1.414,1.653-2.791,3.338-4.178,5.019
	c-0.062,0.075-0.151,0.142-0.252,0.205C336.626,246.528,337.593,249.417,340.458,250.121z M342.836,236.983
	c0.458-0.044,0.881,0.045,1.077,0.332c0.39,0.567,0.722,1.16,1.025,1.767c0.151-1.409,0.285-2.819,0.363-4.233
	c-0.142-0.032-0.274-0.077-0.396-0.134c-0.053,0.08-0.11,0.152-0.163,0.208C344.092,235.597,343.459,236.286,342.836,236.983z
	 M344.454,250.081c-1.068,0.718-2.412,1.157-3.941,1.284c7.575,16.684,24.344,30.238,42.43,33.53
	c16.296,2.965,33.695-3.18,43.689-16.627c6.569-8.837,10.126-19.508,11.482-30.369c0.591-4.731,1.764-11.13,0.512-15.869
	c0.003,0,0.005-0.001,0.008-0.001c-0.013-0.06-0.019-0.125-0.011-0.197c0-0.004,0.001-0.009,0.001-0.013
	c0.008-0.074,0.037-0.146,0.076-0.216c-3.021-1.718-5.949-3.615-8.95-5.363c-2.464-1.435-4.928-2.909-7.497-4.149
	c-0.396-0.191-0.801-0.387-1.211-0.567c-0.928,1.3-1.5,3.47-1.973,4.677c-0.962,2.457-1.87,4.934-2.76,7.417
	c-0.938,2.614-1.747,7.862-3.83,9.917c0.075,0.137,0.105,0.306,0.063,0.516c-2.794,13.668-12.517,31.478-28.333,32.595
	C368.24,267.771,354.905,261.857,344.454,250.081z M378.32,189.865c-4.793,2.513-10.553,3.602-15.154,1.005
	c-0.548,5.496-2.906,11.068-7.637,13.99c0.147,1.383-2.625,2.077-2.905,0.684c-0.004-0.02-0.01-0.042-0.014-0.062
	c-0.415-0.278-0.618-0.734-0.384-1.161c-1.186-1.804-3.365-4.864-4.896-5.542c-0.854,0.022-1.752,0.535-2.647,1.784
	c-1.481,2.068-2.596,6.208,1.127,6.735c0.888,0.125,1.188,0.854,0.737,1.58c-3.436,5.535-8.171,10.208-14.545,11.572
	c1.897,5.726,7.906,9.464,12.404,13.204c0.085-0.147,0.226-0.299,0.443-0.452c0.199-0.14,0.403-0.285,0.604-0.429
	c0.152-0.278,0.498-0.503,0.902-0.64c2.336-1.666,4.839-3.39,7.591-4.046c4.087-0.975,7.757-0.289,11.865,0.317
	c2.739,0.404,8.086,1.977,10.047-0.794c0.995-1.405,1.527-2.976,1.86-4.656c0.559-2.817,0.906-5.668,1.631-8.451
	c0.203-0.78,1.313-1.207,2.118-1.135c1.552-1.188,3.263-2.492,3.913-4.068c0.72-1.744-3.892-2.633-5.087-3.683
	C376.937,202.664,378.049,194.537,378.32,189.865z M335.702,242.087c1.788-2.211,3.567-4.45,5.537-6.492
	c1.154-1.196-3.819-4.261-4.63-4.954c-3.298-2.819-6.651-5.924-7.744-10.196c-0.06-0.075-0.107-0.156-0.134-0.246
	c-0.115-0.093-0.179-0.21-0.173-0.35C316.417,224.042,328.491,237.268,335.702,242.087z M180.207,310.113
	c0.706-0.064,1.074,0.166,1.188,0.492c0.011,0.011,0.026,0.018,0.036,0.029c2.648,3.235,7.054,4.392,10.784,2.244
	c0.334-0.192,1.024-0.296,1.556-0.271c0.458-0.112,0.902-0.136,1.158,0.02c1.639,0.996,5.727,3.774,7.527,1.715
	c1.068-1.222,1.717-2.689,2.327-4.178c0.72-1.755,1.41-3.529,2.417-5.094c-1.015-0.404-0.349-1.875,1.012-1.936
	c0.188-0.008,0.381-0.007,0.571-0.012c0.21-0.206,0.421-0.411,0.656-0.602c0.546-0.443,3.051-0.685,2.471,0.062
	c1.4,0.167,3.197,0.245,3.756-1.13c0.409-1.006,0.399-2.071,0.141-3.119c-0.542-2.192-1.608-4.205-2.854-6.079
	c-11.52,3.946-25.246,2.628-34.839-4.759C175.621,295.068,166.992,311.322,180.207,310.113z M224.372,249.984
	c-6.448,10.64-5.347,25.845-3.433,37.757c0.122,0.129,0.157,0.286,0.073,0.463c0.003,0.021,0.006,0.042,0.01,0.063
	c0.123,0.75-1.098,1.306-1.996,1.296c-1.079,0.602-2.196,1.143-3.339,1.635c1.803,2.597,3.962,6.186,3.08,9.179
	c-0.547,1.858-2.059,2.812-3.832,3.266c1.954,0.408,3.805,1.073,5.408,2.048c8.42-14.663,17.537-28.482,28.917-41.059
	c8.12-8.974,16.911-17.925,28.688-21.13c0.365-0.1,0.733-0.193,1.104-0.281c-1.152,0.07-2.314,0.091-3.484,0.071
	c-3.063-0.054-6.174-0.368-9.269-0.693c-3.305-0.348-6.593-0.705-9.787-0.764c-3.538-0.065-7.128-0.058-10.698,0.173
	c-3.299,0.213-6.581,0.616-9.785,1.348c-3.055,0.698-5.97,1.458-8.358,3.109c-1.216,0.842-2.296,1.915-3.186,3.334
	C224.445,249.858,224.413,249.924,224.372,249.984z M205.602,313.636c-0.247,0.324-0.508,0.638-0.804,0.93
	c-3.465,3.409-8.395,1.549-12.015-0.55c-4.451,2.05-10.059,1.87-13.554-1.779c-6.081,0.367-8.401-2.006-8.806-5.57
	c-5.563-0.669-6.613,9.308-7.649,13.921c1.129,1.019,5.37,1.73,6.316,2.001c4.49,1.285,9.009,2.47,13.529,3.642
	c8.266,2.143,16.558,4.205,24.792,6.471c-1.68-1.578-3.286-3.224-4.703-5.046c-0.468-0.603,2.285-1.568,2.727-1.001
	c0.116,0.149,0.241,0.29,0.359,0.437c0.036-0.049,0.07-0.097,0.122-0.151c-0.287,0.304,0.295-0.323,0.395-0.433
	c0.396-0.438,0.787-0.88,1.167-1.331c0.811-0.963,1.612-1.947,2.249-3.036c0.144-0.246,0.528-0.448,0.967-0.574
	C210.703,316.969,209.604,313.118,205.602,313.636z M209.291,333.225c0.018-0.098,0.036-0.202,0.055-0.306
	c-0.188,0.067-0.382,0.123-0.57,0.162C208.947,333.129,209.119,333.176,209.291,333.225z M210.539,324.8
	c-0.737,0.891-1.527,1.742-2.31,2.57c-0.311,0.329-1.156,0.525-1.796,0.495c1.009,1.18,2.092,2.292,3.214,3.367
	C209.97,329.389,210.334,327.108,210.539,324.8z M102.959,338.953c-0.014,0.039-0.032,0.079-0.065,0.125
	c-6.411,8.869,17.813,16.536,22.742,18.353c12.907,4.76,25.751,9.839,39.082,13.302c8.488,2.205,17.06,4.085,25.538,6.329
	c7.053,1.866,13.995,4.665,21.273,5.561c5.258,0.647,11.386,0.766,15.336-3.444c0.258-0.275,0.503-0.562,0.752-0.846
	c1.005-1.668,1.907-3.07,2.633-4.116c0.126-0.181,0.457-0.343,0.845-0.46c1.321-1.954,2.556-3.973,3.814-5.935
	c4.164-6.492,10.372-14.296,10.688-22.36c-1.389-0.306-3.016-0.485-3.783-0.66c-2.816-0.642-5.64-1.253-8.466-1.849
	c-3.426-0.723-7.345-1.037-10.63-2.29c-0.62-0.236-0.715-0.621-0.569-0.996c-0.671-0.046-1.211-0.408-0.956-1.157
	c2.053-6.025,1.854-13.444,1.716-19.728c-0.062-2.83,0.06-6.137-1.676-8.575c-2.784-3.909-7.021-5.019-11.516-5.065
	c-1.188,1.97-1.833,4.306-2.85,6.4c9.995-0.441,6.11,16.523,5.175,22.447c0.069,0.02,0.14,0.038,0.209,0.058
	c0.966,0.278-1.628,1.423-2.357,1.213c-10.592-3.051-21.315-5.637-31.978-8.429c-4.512-1.182-9.043-2.333-13.498-3.718
	c-0.54-0.168-1.69-0.391-2.736-0.739c-0.968,0.441-2.343,0.336-2.075-0.601c0.047-0.165,0.093-0.335,0.139-0.508
	c-0.051-0.072-0.092-0.146-0.123-0.223c-0.068-0.173,0.07-0.361,0.315-0.532c1.518-6.177,2.793-16.175,10.445-15.98
	c0.13-2.072,0.68-4.382,1.393-6.715c-0.342,0.076-0.658,0.094-0.863,0.017c-13.678-5.118-16.703,11.887-20.396,21.128
	c-0.069,0.172-0.226,0.324-0.434,0.452c0.021,0.827-1.767,1.658-2.627,1.083c-5.939-3.97-13.462-3.933-20.162-5.842
	C119.728,323.235,111.15,330.915,102.959,338.953z M86.599,398.971c0.617-0.207,0.975-0.316,0.975-0.316v-0.151
	C87.249,398.66,86.923,398.812,86.599,398.971z M49.851,445.826c-0.772-2.64-0.616-6.402-0.07-10.078
	c-0.855,2.875-1.285,5.852-0.626,8.43C49.325,444.845,49.563,445.383,49.851,445.826z M143.482,405.05
	c0.382-0.124,0.76-0.185,0.994-0.123c0.838,0.22,1.564,0.722,2.23,1.342c10.343,3.909,20.733,7.795,31.188,11.44
	c0.229,0.022,0.404,0.075,0.479,0.167c12.698,4.417,25.491,8.47,38.413,11.733c0.688,0.174,2.37,0.708,4.171,1.18
	c-16.21-5.126-3.916-33.743,4.674-49.044c-1.507,0.877-3.19,1.543-5.114,1.926c-7.769,1.545-15.614-0.398-23.06-2.621
	c-9.411-2.81-18.918-5.103-28.452-7.452c-16.37-4.034-32.209-9.757-47.932-15.808c-4.821-1.855-21.849-7.376-22.079-14.86
	c-1.87,1.912-3.718,3.845-5.499,5.837c-5.44,6.085-25.155,27.216-11.406,33.262c0.063,0.008,0.122,0.02,0.168,0.04
	c0.255,0.111,0.514,0.214,0.77,0.325c0.292,0.104,0.57,0.213,0.888,0.305c0.25,0.072,0.412,0.172,0.513,0.287
	c3.678,1.556,7.4,3.028,11.151,4.441l0.994-0.772l11.534,5.339c2.547,0.907,5.093,1.813,7.633,2.723
	c0.944-0.14,1.876-0.192,2.781-0.124c0.918,0.069,0.088,0.54-0.765,0.85c1.397,0.504,2.794,1.009,4.185,1.522
	C129.103,399.604,136.282,402.326,143.482,405.05z M148.94,408.86c0.437,0.561,0.865,1.098,1.302,1.548
	c3.424,3.522,6.938,7.163,10.809,10.199c3.454,2.709,7.459,5.999,11.194,1.558c1.072-1.274,2.124-2.558,3.252-3.782
	c-3.56-1.247-7.114-2.509-10.663-3.777C159.529,412.71,154.236,410.78,148.94,408.86z M245.669,354.914
	c0.009-0.058,0.019-0.116,0.027-0.174c-0.026,0.056-0.055,0.111-0.082,0.167c-0.441,0.904-0.91,1.802-1.413,2.689
	c-2.542,4.485-5.73,8.731-8.205,12.513c-1.644,2.512-3.267,4.987-5.132,7.145c-8.152,13.383-25.703,49.464-5.869,52.744
	c1.481,0.245-0.963,1.358-1.767,1.319c1.688,0.33,3.153,0.437,3.605-0.068c3.171-3.543,4.602-8.831,5.86-13.316
	c2.517-8.969,4.152-18.232,6.02-27.353c0.033-0.162,0.065-0.323,0.098-0.485c2.006-9.806,3.966-19.622,5.92-29.439
	C245.095,358.831,245.368,356.878,245.669,354.914z M256.85,355.8c0.374,0.125,0.758,0.26,1.142,0.386
	c-0.016-1.53,0.188-3.144,0.527-4.784c0.873-4.213,2.611-8.58,3.664-12.036c0.239-0.783,0.488-1.563,0.732-2.345
	c3.62-11.602,7.829-23.032,12.473-34.259c10.489-25.356,22.816-53.159,42.862-72.542c0.221-0.214,0.817-0.387,1.399-0.472
	c0.849-0.125,1.666-0.062,1.247,0.344c-7.961,7.698-14.699,16.755-20.6,26.454c-2.476,4.069-4.813,8.244-7.015,12.492
	c-5.681,10.959-10.541,22.339-15.023,33.261c-4.533,11.043-8.73,22.253-12.289,33.653c0.104,0.009,0.2,0.027,0.272,0.063
	c2.446,1.208,5.727,1.275,8.381,1.605c10.011,1.247,20.062,2.405,30.105,3.641c0.143,0.018,0.285,0.036,0.428,0.053
	c0.043-0.547,0.114-1.098,0.202-1.651c0.786-4.925,3.226-10,4.97-14.411c3.563-9.01,7.44-17.893,11.324-26.768
	c3.816-8.724,7.702-17.421,11.341-26.221c1.784-4.315,5.239-10.173,5.11-15.002c-0.018-0.675,0.732-1.115,1.479-1.184
	c-0.897-1.629-1.723-3.306-2.458-5.033c-0.036-0.083-0.037-0.166-0.024-0.248c-2.345-1.137-3.566-3.759-2.976-6.752
	c0.011-0.056,0.034-0.108,0.066-0.158c-3.534-1.926-6.784-4.34-9.108-7.691c-1.43-2.063-3.651-4.888-4.513-7.534
	c-0.001-0.002-0.002-0.005-0.003-0.008c-0.162-0.499-0.281-0.991-0.331-1.471c-0.025-0.242-0.026-0.476-0.022-0.708
	c-0.612,0.295-1.413,0.496-1.802,0.349c-11.054-4.176-22.913-7.524-35.064-9.733c-6.063-1.102-12.198-1.917-18.344-2.409
	c-8.014-0.642-16.042-0.732-23.946-0.179c-7.107,0.498-14.114,1.51-20.916,3.11c-27.67,6.509-43.428,37.341-44.089,64.105
	c6.391,7.752,16.6,11.331,26.562,10.798c3.185-0.17,6.343-0.756,9.343-1.766c0.118-0.04,0.234-0.082,0.352-0.123
	c0.355-0.385,1.225-0.701,1.881-0.725c1.3-0.545,2.56-1.173,3.771-1.884c-1.988-12.584-3.308-30.039,5.267-40.245
	c5.896-7.018,18.505-7.399,26.841-7.64c6.632-0.192,13.244,0.129,19.855,0.641c3.843,0.297,7.985,1.028,11.835,0.527
	c1.463-0.19,1.357,0.708,0.632,1.28c1.95-0.248,0.61,0.978-0.577,1.142c-2.24,0.31-4.39,0.882-6.457,1.665
	c-3.105,1.175-6.023,2.829-8.78,4.794c-7.423,5.291-13.682,12.84-19.285,19.416c-2.446,2.871-4.769,5.821-6.996,8.834
	c-1.73,2.341-3.391,4.73-5.015,7.143c-4.543,6.746-8.729,13.734-12.775,20.835c-0.095,0.166-0.305,0.302-0.566,0.412
	c2.08,1.777,3.49,4.282,3.726,7.708c0.39,5.678,0.642,12.129-0.256,18.094c-0.307,2.039-0.749,4.02-1.367,5.895
	c0.232,0.021,0.421,0.101,0.563,0.224c2.925,1.081,6.216,1.629,9.448,2.158c1.738,0.284,3.458,0.564,5.09,0.923
	c2.13,0.468,5.788,0.744,8.547,1.691c0.466-0.027,0.83,0.046,0.833,0.253c0,0.022-0.002,0.044-0.002,0.066
	c0.743,0.32,1.393,0.702,1.878,1.175c0.283,0.276,0.286,0.563,0.129,0.82c0.005,0.069-0.02,0.14-0.074,0.211
	c-0.977,2.649-1.204,5.841-1.751,8.585c-0.016,0.081-0.032,0.161-0.048,0.242c0.46-0.141,0.979-0.167,1.362-0.062
	c0.603-0.039,1.211-0.019,1.784,0.031c1.312,0.113,2.613,0.337,3.897,0.626c0.353,0.08,0.732,0.197,1.124,0.327
	C256.829,355.792,256.84,355.796,256.85,355.8z M471.022,461.267c-0.036-0.198-0.16-0.275-0.315-0.291
	C470.878,461.031,470.996,461.124,471.022,461.267z M500.829,427.091c0.027,0.018,0.054,0.036,0.072,0.055
	c0.11,0.066,0.16,0.16,0.11,0.288c-0.047,0.12-0.104,0.238-0.151,0.357c0.472-0.595,0.864-1.086,1.155-1.447
	C501.617,426.589,501.223,426.84,500.829,427.091z M489.682,468.415l-1,0.588c0.031,0.025,0.063,0.05,0.096,0.075
	C489.079,468.858,489.377,468.631,489.682,468.415z M476.392,457.668c0.07,0.024,0.136,0.054,0.199,0.089l-0.134-0.146
	C476.436,457.631,476.414,457.65,476.392,457.668z M500.015,452.421c-1.547-0.411-2.441-0.766-2.441-0.766l1.106,1.265
	c0.316-0.218,0.719-0.362,1.106-0.383C499.859,452.497,499.936,452.458,500.015,452.421z M479.928,345.123
	c4.758,3.229,10.049,5.28,13.836,9.687c6.038-6.433,13.224-11.603,20.535-16.506c-1.131-1.14-2.451-2.012-4.091-2.28
	c-0.653-0.107-0.732-0.772-0.318-1.188c0.403-0.405,0.955-0.577,1.51-0.587c2.301-1.078,4.764-2.141,7.298-2.434
	c1.387-0.16,3.276-0.18,4.287,0.987c2.35,2.712-0.757,7.966-2.047,10.443c-0.357,0.688-2.172,1.31-2.701,0.509
	c-0.814-1.231-1.651-2.636-2.62-3.914c-7.497,5.045-14.84,10.364-20.849,17.176c-0.65,0.737-2.686,0.682-2.672-0.133
	c-0.164-0.032-0.299-0.092-0.377-0.194c-3.433-4.481-8.361-6.639-12.984-9.52c-6.586,5.729-12.265,12.357-17.934,18.97
	c-0.92,1.072-3.667,0.45-2.455-0.964c5.914-6.897,11.85-13.802,18.749-19.746c0.438-0.377,1.032-0.446,1.525-0.318
	C479.135,344.969,479.65,344.934,479.928,345.123z M519.508,340.422c0.432-0.973,0.807-1.97,1.049-2.999
	c0.21-0.893,0.572-2.32-0.031-3.154c-0.592-0.819-1.558-0.747-2.47-0.583c-1.358,0.245-2.672,0.74-3.95,1.297
	C516.396,336.104,518.049,338.247,519.508,340.422z M499.147,214.849c1.08-1.926,2.531-3.247,4.2-4.091
	c-0.693-1.722-1.391-3.442-2.111-5.153c-0.561-1.33,2.32-2.146,2.898-0.776c0.695,1.65,1.365,3.311,2.037,4.972
	c2.288-0.447,4.791-0.262,7.237,0.35c1.757,0.439-0.441,2.25-1.676,1.941c-1.383-0.346-3.099-0.475-4.734-0.259
	c1.66,4.169,3.253,8.365,4.815,12.572c1.338,0.396,2.645,0.88,3.875,1.565c3.961,2.206,9.374,6.413,7.154,11.685
	c-0.884,2.099-2.406,3.798-4.262,5.037c0.701,1.999,1.352,4.01,1.893,6.036c0.381,1.429-2.517,2.205-2.898,0.776
	c-0.485-1.82-1.059-3.628-1.673-5.429c-5.188,2.006-11.599,1.005-14.659-3.992c-0.789-1.288,1.977-2.378,2.654-1.272
	c2.258,3.688,7.4,4.952,11.372,3.446c-1.271-3.548-2.676-7.063-3.956-10.557c-0.665-1.816-1.334-3.631-2.006-5.445
	c-1.337-0.421-2.584-0.753-3.594-1.012C501.026,224.042,496.026,220.415,499.147,214.849z M512.996,227.609
	c0.553,1.504,1.106,3.009,1.654,4.514c1.033,2.84,2.157,5.691,3.212,8.565c0.803-0.724,1.48-1.616,1.942-2.714
	C521.95,232.878,517.716,229.639,512.996,227.609z M501.373,217.078c-0.063,2.968,1.062,4.797,3.953,5.655
	c0.971,0.288,1.96,0.528,2.953,0.766c-1.352-3.615-2.727-7.222-4.151-10.809C502.552,213.506,501.419,214.892,501.373,217.078z
	 M521.909,289.326c4.205-1.387,8.461-2.613,12.667-4c1.965-0.648,0.103-1.043-1.008-0.678c-4.205,1.387-8.461,2.613-12.667,4
	C518.938,289.297,520.799,289.692,521.909,289.326z M342.098,146.825c5.64-4.822,11.397-9.503,17.037-14.326
	c0.634-0.542-2.094-0.247-2.625,0.208c-5.641,4.822-11.398,9.504-17.039,14.326C338.838,147.575,341.565,147.28,342.098,146.825z
	 M468.038,169.519c0.956,1.847,2.104,3.507,3.333,5.106c-1.206,0.893-2.463,1.721-3.829,2.428c-1.767,0.915-0.161,2.207,1.225,1.489
	c1.283-0.665,2.563-1.497,3.811-2.387c0.956,1.183,1.938,2.354,2.903,3.563c0.678,0.85,3.463-0.193,2.68-1.175
	c-1.104-1.384-2.242-2.714-3.337-4.075c1.548-1.214,3.001-2.434,4.266-3.441c1.54-1.227-0.844-1.943-1.869-1.126
	c-1.233,0.982-2.423,1.998-3.63,2.984c-0.976-1.303-1.885-2.659-2.653-4.143C470.384,167.676,467.559,168.593,468.038,169.519z
	 M123.271,245.615c2.619,1.409,5.318,2.473,8.062,3.398c-0.859,2.754-1.625,5.545-2.479,8.348c-0.343,1.126,2.587,0.731,2.908-0.323
	c0.736-2.416,1.398-4.822,2.116-7.202c2.621,0.808,5.273,1.542,7.936,2.355c1.104,0.337,3.424-1.271,1.716-1.792
	c-3.025-0.924-6.036-1.727-8.997-2.67c0.959-2.973,2.067-5.895,3.593-8.729c0.695-1.292-2.228-1.052-2.719-0.139
	c-1.402,2.606-2.461,5.293-3.382,8.025c-2.202-0.785-4.37-1.689-6.488-2.829C124.544,243.523,121.935,244.896,123.271,245.615z
	 M357.949,142.485c1.791,0.411,2.77,2.266,2.268,4.041c-0.584,2.06-3.147,2.951-5.112,2.596c-1.998-0.361-3.562-2.212-2.771-4.295
	c0.799-2.104,3.429-2.711,5.448-2.504C357.965,142.341,357.992,142.406,357.949,142.485z M355.987,143.241
	c-0.116-0.02-0.167-0.057-0.179-0.101c-1.127,0.053-1.647,1.66-1.449,2.713c0.254,1.35,1.364,2.483,2.804,2.488
	c0.043-0.012,0.12-0.042,0.198-0.119c0.102-0.09,0.191-0.191,0.268-0.304c0.133-0.201,0.26-0.41,0.339-0.64
	c0.193-0.557,0.262-1.163,0.146-1.746C357.883,144.387,357.188,143.447,355.987,143.241z M336.334,131.826
	c0.799-2.104,3.429-2.711,5.448-2.504c0.183,0.019,0.21,0.084,0.167,0.163c1.791,0.411,2.77,2.266,2.268,4.041
	c-0.584,2.06-3.147,2.951-5.112,2.596C337.106,135.76,335.543,133.909,336.334,131.826z M338.359,132.854
	c0.254,1.35,1.364,2.483,2.804,2.488c0.043-0.012,0.12-0.042,0.198-0.119c0.102-0.09,0.191-0.191,0.268-0.304
	c0.133-0.201,0.26-0.41,0.339-0.64c0.193-0.557,0.262-1.163,0.146-1.746c-0.23-1.146-0.926-2.086-2.126-2.292
	c-0.116-0.02-0.167-0.057-0.179-0.101C338.682,130.193,338.161,131.8,338.359,132.854z M403.314,129.424
	c0.113-0.21,0.243-0.398,0.359-0.604c1.377-2.421,3.01-4.523,4.848-6.33c0.644-0.633,1.313-1.229,2.004-1.789
	c0.719-0.582,1.459-1.126,2.224-1.632c6.323-4.175,14.164-5.792,22.176-5.287c0.536,0.034,1.074,0.087,1.611,0.14
	c0.259,0.025,0.517,0.038,0.774,0.067c0.86,0.098,0.184,0.676-0.528,0.984c0.546,2.82-0.969,10.409-1.096,11.637
	c-0.546,5.286-1.315,10.59-1.698,15.893c-0.013,0.181-0.032,0.362-0.045,0.542c3.495-0.423,6.983-1.075,10.455-1.658
	c0.255-0.042,0.51-0.088,0.765-0.13c3.208-0.526,6.418-1.048,9.615-1.637c1.018-0.188,2.039-0.368,3.049-0.592
	c1.374-0.305,0.559-0.451,0.42,0.401c0.139-0.854,1.991-1.172,2.171-0.408c0.394-0.024,0.721,0.075,0.742,0.342
	c1.104,13.647-4.763,27.954-18.146,33.002c-9.918,3.741-22.141,1.182-30.495-5.047C400.947,158.693,396.225,142.591,403.314,129.424
	z M402.847,136.817c-1.895,11.029,1.646,22.167,10.773,28.971c2.191,1.634,4.657,3.067,7.272,4.221
	c1.902,0.839,3.885,1.521,5.908,2.016c5.472,1.337,11.222,1.288,16.394-0.933c11.815-5.075,16.646-18.489,15.817-30.655
	c-2.832,1.154-8.979,1.498-10.208,1.703c-5.253,0.878-10.54,1.94-15.837,2.524c-0.703,0.078-0.947-0.232-0.895-0.591
	c-0.22-0.104-0.366-0.286-0.348-0.576c0.295-4.595,0.981-9.191,1.46-13.77c0.35-3.341,0.702-6.683,1.005-10.029
	c0.102-1.125-0.012-4.621,0.75-4.338c-0.241-0.09-0.377-0.207-0.435-0.336C419.996,113.938,405.516,121.277,402.847,136.817z
	 M439.225,135.998c0.408-4.167,0.555-8.377,0.784-12.556c0.149-2.729,0.3-5.458,0.397-8.189c0.038-1.066,0.085-2.135,0.081-3.203
	c-0.002-0.74-0.33-1.131,0.347-0.834c-1.181-0.517,0.213-1.644,1.104-1.463c0.408-0.191,0.92-0.335,1.149-0.297
	c10.755,1.792,21.135,9.795,25.323,19.909c0.114,0.276-0.532,0.615-1.153,0.748c-2.235,1.553-9.292,2.368-10.569,2.666
	c-5.168,1.205-10.343,2.496-15.555,3.509C440.523,136.815,439.141,136.862,439.225,135.998z M465.807,129.007
	c-0.005,0.077-0.03,0.209-0.06,0.423c0.015-0.104,0.063-0.197,0.123-0.285C465.849,129.099,465.828,129.053,465.807,129.007z
	 M442.695,110.629c0.836,2.453-0.313,9.323-0.385,10.681c-0.239,4.461-0.404,8.952-0.798,13.406
	c3.67-0.739,7.318-1.631,10.963-2.468c3.033-0.697,6.066-1.394,9.087-2.143c1.1-0.272,2.202-0.541,3.295-0.845
	c0.596-0.167,0.833-0.345,0.913-0.334C461.624,119.985,452.352,112.616,442.695,110.629z M264.305,199.621
	c5.221,1.462,9.069,5.183,13.452,8.165c0.854,0.581,2.392,0.118,2.582-0.958c0.99-5.616,0.448-11.586-0.512-17.214
	c7.197-2.225,14.393-4.449,21.589-6.674c1.768-0.546,1.229-2.635-0.559-2.082c-7.643,2.363-15.286,4.726-22.929,7.088
	c-0.635,0.196-1.305,0.681-1.17,1.429c0.886,4.918,1.459,10.077,0.976,15.088c-3.7-2.722-7.243-5.594-11.774-6.863
	C264.655,197.234,262.536,199.125,264.305,199.621z M140.895,210.484c0.006,0.001,0.012,0.003,0.018,0.004
	c0.56,0.147,1.275-0.122,1.765-0.512c0.005,0.066,0.011,0.133,0.017,0.199c-0.623,0.571,0.001,0.077,0.555-0.099
	c0.845-0.268,1.695-0.523,2.544-0.779c2.793-0.842,5.594-1.66,8.394-2.479c8.206-2.397,16.424-4.754,24.645-7.103
	c8.288-2.368,16.581-4.72,24.883-7.041c3.334-0.932,8.5-2.742,11.629-3.287c0.411,1.137,3.031,0.414,2.848-0.956
	c-1.102-8.261-4.457-16.736-6.667-24.75c-1.51-5.475-3.03-10.946-4.584-16.408c-0.54-1.896-0.862-5.571-2.203-7.133
	c-0.802-0.935-2.509-0.367-2.794,0.749c-0.002,0.009-0.005,0.018-0.007,0.027c-0.103,0.402,0.059,0.662,0.344,0.807
	c0.783,1.376,1.484,5.352,1.962,7.032c1.578,5.544,3.114,11.1,4.646,16.657c1.952,7.078,4.806,14.528,6.083,21.851
	c-3.478,0.596-7.043,2.016-10.351,2.937c-8.792,2.447-17.57,4.943-26.345,7.448c-8.697,2.483-17.39,4.981-26.071,7.52
	c-2.74,0.802-5.48,1.607-8.212,2.438c-0.917,0.279-2.498,0.496-3.241,1.176C140.235,209.256,139.961,210.238,140.895,210.484z
	 M183.567,155.011c-0.449-1.783-1.362-3.943-1.313-5.813c0.024-0.954,1.564-1.447,2.299-1.105c1.148,0.535,3.056-0.252,4.732-0.67
	c0.527-0.655,2.127-1.361,2.617-0.344c2.668,5.551,3.498,12.721,5.037,18.65c1.648,6.352,3.289,12.707,4.919,19.063
	c0.187,0.727-0.581,1.248-1.172,1.422c-1.821,0.539-3.668,1.027-5.466,1.64c-0.525,0.179-0.938,0.119-1.217-0.064
	c-0.719,0.196-1.579,0.072-1.876-0.584c-2.641-5.825-3.585-13.081-5.205-19.244C185.789,163.649,184.657,159.335,183.567,155.011z
	 M195.586,185.5c1.033-0.328,2.071-0.641,3.114-0.94c-1.464-5.704-2.934-11.407-4.414-17.107
	c-1.434-5.525-2.429-12.943-4.589-18.089c-1.366,0.017-2.888,0.695-4.353,0.947c0.327,1.674,1.118,3.922,1.49,5.379
	c1.061,4.153,2.143,8.301,3.236,12.446c1.467,5.565,2.368,12.05,4.604,17.435c0.026,0.063,0.051,0.127,0.077,0.189
	C195.028,185.667,195.309,185.588,195.586,185.5z M173.836,176.414c-1.306-4.969-3.656-10.6-3.917-15.766
	c-0.044-0.867,1.319-1.278,1.963-1.188c1.333,0.187,2.673-0.274,4.02-0.531c0.07-0.073,0.155-0.146,0.256-0.219
	c0.003-0.002,0.007-0.004,0.01-0.007c0.718-0.523,2.016-0.658,2.419,0.308c2.123,5.074,2.983,11.05,4.36,16.359
	c1.297,5.006,2.59,10.013,3.875,15.022c0.187,0.727-0.581,1.247-1.172,1.422c-1.527,0.452-3.07,0.869-4.58,1.374
	c-0.479,0.16-0.863,0.122-1.14-0.024c-0.69,0.148-1.464,0.001-1.731-0.624C176.069,187.564,175.208,181.632,173.836,176.414z
	 M180.81,191.029c0.944-0.308,1.898-0.591,2.854-0.867c-1.282-4.991-2.567-9.981-3.863-14.969
	c-1.195-4.601-1.991-9.721-3.666-14.234c-1.03,0.042-2.116,0.347-3.167,0.547c0.515,4.746,2.795,10.457,4.017,15.087
	C178.215,181.252,179.02,186.502,180.81,191.029z M161.674,185.481c-1.036-3.939-2.593-8.092-3.067-12.151
	c-0.073-0.623,0.292-0.982,0.796-1.282c0.939-0.558,2.832-0.683,4.238-0.719c0.472-0.302,1.087-0.458,1.581-0.267
	c2.109,0.82,3,9.423,3.49,11.31c1.127,4.338,2.248,8.678,3.361,13.02c0.187,0.727-0.581,1.247-1.172,1.422
	c-1.155,0.341-2.316,0.667-3.462,1.039c-0.416,0.134-0.759,0.121-1.025,0.02c-0.65,0.098-1.333-0.078-1.567-0.667
	C163.378,193.514,162.683,189.317,161.674,185.481z M161.881,174.831c0.668,3.322,1.846,6.67,2.69,9.875
	c0.938,3.558,1.61,7.42,2.875,10.91c0.489-0.152,0.979-0.303,1.471-0.448c-0.948-3.691-1.899-7.382-2.857-11.071
	c-0.678-2.609-1.355-5.22-2.048-7.825c-0.235-0.883-0.469-1.767-0.714-2.647c-0.521,0.093-1.042,0.221-1.554,0.298
	c-0.009,0.001-0.02,0.003-0.029,0.005c-0.002,0-0.005,0-0.007,0.001C161.759,174.229,161.82,174.529,161.881,174.831z
	 M148.264,191.738c-1.138-3.054-2.89-6.39-3.448-9.619c-0.096-0.555,0.29-1.073,0.796-1.282c1.083-0.447,2.85-0.665,4.237-0.717
	c0.346-0.23,0.783-0.359,1.226-0.27c2.104,0.424,3.321,6.88,3.929,8.532c1.259,3.423,2.512,6.849,3.758,10.277
	c0.25,0.689-0.63,1.283-1.172,1.422c-1.146,0.294-2.301,0.568-3.438,0.896c-0.295,0.085-0.553,0.095-0.776,0.058
	c-0.031-0.005-0.065-0.006-0.095-0.014c-0.076,0.023-0.153,0.041-0.23,0.056c-0.551,0.106-1.111-0.008-1.364-0.462
	C150.18,197.911,149.34,194.626,148.264,191.738z M148.016,182.679c0.687,2.572,1.989,5.178,2.889,7.594
	c0.966,2.594,2.017,6.211,3.159,8.512c0.474-0.13,0.947-0.258,1.424-0.379c-0.952-2.615-1.904-5.228-2.864-7.839
	c-0.726-1.977-1.452-3.953-2.191-5.925c-0.282-0.752-0.562-1.505-0.854-2.253c-0.514,0.084-1.031,0.21-1.529,0.285
	C148.04,182.674,148.026,182.677,148.016,182.679z" fill="#0a1230"></path>
</svg>