<?xml version="1.0" standalone="no"?>
<svg version="1.1" id="Layer_1" xmlns="http://www.w3.org/2000/svg" xmlns:xlink="http://www.w3.org/1999/xlink" x="0px" y="0px" width="599.106px" height="595.28px" viewBox="0 0 599.106 595.28" enable-background="new 0 0 599.106 595.28" xml:space="preserve">
<path id="color_x5F_2" fill="#6c63ff" d="M353.708,389.438c-1.304,1.221-2.371,2.554-3.195,3.964
	c0.676-1.578,1.673-3.113,3.063-4.563C353.612,388.8,353.658,389.069,353.708,389.438z M371.352,387.667
	c-4.215-1.617-8.984-1.093-13.545,0.801c-0.026,0.011-0.053,0.017-0.079,0.026c-0.131,0.096-0.252,0.202-0.379,0.301
	c-2.502,1.934-4.376,4.424-5.316,7.152c-1.271,3.688-0.856,7.796,1.953,11.493c5.074,6.679,14.579,8.386,20.752,3.552
	c1.527-1.196,2.854-2.786,3.854-4.807c2.397-4.838,1.894-10.961-1.957-14.965C375.032,389.555,373.248,388.395,371.352,387.667z
	 M339.886,369.167c0.695-0.837,0.694-0.933-0.002-0.286c-0.311,0.288-0.625,0.583-0.941,0.881c1.732,0.339,3.034,1.633,4.543,2.533
	C342.394,371.152,341.263,369.959,339.886,369.167z M333.331,420.948c0.105-1.038,0.529-2.105,1.092-3.185
	C333.463,418.72,332.833,419.839,333.331,420.948z M405.829,336.894C405.56,336.885,405.53,336.959,405.829,336.894L405.829,336.894
	z M400.673,395.393c-0.204,0.024-0.403,0.045-0.598,0.063c0.976,0.168,2.018,0.263,2.965,0.505
	C402.524,395.505,401.775,395.263,400.673,395.393z M406.04,336.837c0.085-0.026,0.174-0.055,0.287-0.098
	c0.508-0.193,1.013-0.39,1.514-0.599c1.262-0.527,2.517-1.069,3.764-1.631c7.937-3.571,15.761-7.448,23.36-11.69
	c6.025-3.363,14.52-7.123,18.647-12.919c1.716-2.41-1.906-7.839-3.043-9.942c-0.78-1.445-1.556-2.985-2.421-4.457
	c-2.871,2.263-5.838,4.428-8.87,6.505l-3.279,2.589c0,0-0.875,0.406-2.302,1.074c-4.404,2.765-8.929,5.33-13.54,7.65
	c-7.553,3.801-15.553,7.382-23.957,8.749c1.162,2.546,2.389,5.086,3.959,7.402C401.51,331.463,403.772,335.638,406.04,336.837z
	 M337.237,444.371c-0.021,0.043-0.036,0.082-0.056,0.124c1.878-0.159,5.72-0.479,9.475-0.752
	C343.415,443.599,340.11,443.521,337.237,444.371z M388.585,302.229l-0.252,0.945c0.124-0.1,0.264-0.187,0.42-0.253
	C388.702,302.688,388.642,302.459,388.585,302.229z M331.466,449.595c-0.01-0.016-0.026-0.031-0.036-0.047
	c-0.035,0.068-0.057,0.132-0.083,0.197L331.466,449.595z M377.361,471.869c-2.067-2.009-3.362-3.272-3.362-3.272
	s-0.257-0.04-0.681-0.107C374.669,469.612,376.017,470.738,377.361,471.869z M391.002,321.487c-0.59,0.025-1.099-0.158-1.099-0.667
	c0.001-2.383,0.02-4.866-0.047-7.371l-0.649-6.279c-3.66,7.235-7.933,14.218-10.491,21.926
	C383.509,328.129,387.329,324.679,391.002,321.487z M401.539,406.489c0.661-0.073,1.173-0.322,1.526-1.038
	c-0.148,0.151-0.295,0.292-0.434,0.412C402.353,406.103,401.977,406.307,401.539,406.489z M361.616,432.304
	c-0.403-0.627-0.849-1.285-1.324-1.938c0.028,0.943-0.065,1.95-0.115,2.948c0.735-0.112,1.48-0.184,2.227-0.246
	C362.091,432.866,361.819,432.619,361.616,432.304z M326.134,400.706c-0.014,0.25-0.028,0.501-0.038,0.748
	c-0.086,2.104-0.679,2.114,1.419,1.862c0.015-0.001,0.03-0.003,0.045-0.005C326.761,402.688,326.337,401.761,326.134,400.706z
	 M353.575,373.397c-0.569,0.305-1.332,0.705-2.169,1.081c1.017-0.088,1.893-0.419,2.483-1.101
	C353.784,373.39,353.678,373.398,353.575,373.397z M326.278,393.94c0.021-0.009,0.043-0.018,0.064-0.027
	c0.225-0.607,0.93-0.809,1.461-0.596c0.211-0.083,0.424-0.166,0.635-0.249c-0.747,0.022-1.494,0.047-2.238,0.104
	C326.234,393.427,326.257,393.683,326.278,393.94z M389.343,369.982c-1.564-0.756-2.672-0.566-3.682,0.333
	C386.829,369.789,388.055,369.589,389.343,369.982z M530.868,458.038c-0.025,0.953-0.316,3.426,0.118,4.165
	c-1.199,0.188-2.975,0.456-5.147,0.748c-15.809,1.272-31.914,1.048-47.754,0.435c-5.619-0.324-11.148-0.648-15.558-0.908
	c-0.798-0.07-1.595-0.137-2.392-0.214c-1.916-0.187-3.826-0.424-5.73-0.694c-2.336-0.331-2.697-1.594-3.223-3.688
	c-1.021-4.08-0.949-8.497-0.939-12.672c0.004-1.631-0.158-3.568-0.043-5.358c26.094-0.266,52.716-3.813,78.383,2.355
	c1.496,0.359,2.877-1.766,0.973-2.224c-25.877-6.218-52.733-2.658-79.038-2.384c-0.008-0.147-0.07-0.262-0.169-0.352
	c0.193-0.212,0.242-0.442,0.025-0.647c-0.597-0.565,0.552-6.049,0.658-7.002c0.553-4.973,1.164-9.939,1.747-14.908
	c1.304-11.102,2.667-22.239,3.193-33.41c0.057-1.217-2.854-0.63-2.9,0.354c-0.563,11.98-2.074,23.921-3.477,35.825
	c-0.584,4.951-1.192,9.9-1.722,14.858c-0.101,0.94-1.037,4.622-0.188,5.426c0.003,0.003,0.008,0.004,0.011,0.007
	c-0.875,0.373-1.139,1.438-0.434,1.9c-0.808,4.907-0.005,10.971,0.478,15.656c0.243,2.359,0.557,5.53,2.386,7.269
	c0.637,0.605,1.631,0.957,2.752,1.172l-0.036,0.146c-11.475-2.642-23.779-3.292-34.38-8.458c-2.959-1.442-6.618-3.698-7.889-6.858
	c-1.004-2.499-0.013-5.972,0.558-8.495c0.004-0.019,0.01-0.038,0.015-0.057c0.423-1.442,0.931-3.178,1.475-5.039
	c1.446-4.106,3.399-8.016,5.538-11.823c1.142-2.031,2.913-5.002,1.48-7.257c-1.338-2.108-5.672-0.522-7.213,0.309
	c-9.305,5.018-9.902,18.506-20.595,22.018c-3.652,1.2-7.834,1.033-11.63,1.161c-3.605,0.122-7.153,0.652-10.725,1.119
	c-7.453,0.974-14.941,1.753-22.468,1.593c-4.244-0.091-8.723-0.29-12.672,1.497c-1.348,0.609-2.864,2.279-3.207,3.939
	c-0.63-0.132-1.425,0.02-1.819,0.538c-1.184,1.559-1.365,2.803-0.952,3.805c-0.702,0.201-1.336,0.71-1.233,1.371
	c0.424,2.738,3.736,4.599,7.441,5.912l0.766,0.766c0,0,19.332,4.667,24.666,6c1.039,0.26,2.205,0.52,3.408,0.769
	c2.331,0.62,4.723,1.444,6.215,2.883c0.292,0.281,0.766,0.355,1.244,0.295c10.002,8.315,19.844,16.814,30.137,24.743
	c1.957,1.841,3.497,3.263,4.33,3.977c1.226,1.05,3.974,2.701,7.352,4.56c0.644,0.442,1.273,0.9,1.922,1.337
	c5.927,3.991,12.407,7.991,19.231,11.241l-1.173,0.195H305.333c0,0-0.032-0.464-0.084-1.32c0.821-0.166,1.719-0.567,1.627-0.927
	c-1.56-6.077-2.188-12.367-2.361-18.683c-0.023-1.375-0.041-2.792-0.054-4.248c0.005-4.032,0.151-8.058,0.322-12.027
	c0.554-12.821,1.954-25.598,3.41-38.342c1.707-14.942,4.052-29.444,8.67-43.803c4.952-15.399,13.53-29.475,17.458-45.206
	c0.146-0.589-2.68-0.184-2.855,0.521c-3.922,15.711-12.381,29.866-17.458,45.206c-0.409,1.238-0.778,2.479-1.152,3.721
	c-9.664-0.004-19.327-0.044-28.991,0.008c-4.357,0.023-8.716,0.061-13.07,0.194c-0.555,0.017-1.201,0-1.868,0
	c5.906-14.614,7.428-35.556,8.161-43.432c0.972-10.444,1.526-20.964,1.539-31.455c0-0.517-2.897-0.087-2.898,0.776
	c-0.015,12.813-0.821,25.661-2.25,38.39c-1.3,11.587-2.785,24.89-7.61,36.1c-0.177,0.063-0.349,0.13-0.507,0.215
	c-1.018,0.546-0.899,1.279-0.342,1.643c-1.02,2.145-2.158,4.212-3.472,6.151c-4.171,6.157-9.717,6.614-15.875,2.708
	c-6.171-3.916-7.185-11.68-6.743-18.353c1.161-17.546,10.672-34.603,18.109-50.159c1.635-3.419,3.302-6.848,4.674-10.387
	c0.126-0.008,0.262-0.018,0.406-0.029c5.937,0.82,11.361-3.881,14.659-8.601c0.386-0.021,1.794-0.097,3.76-0.19
	c34.874,3.34,68.063-11.763,102.78-12.034c0.064,0,0.133-0.008,0.205-0.02c-3.095,5.799-6.2,11.595-8.077,17.913
	c-0.255,0.859,0.46,1.344,1.274,1.291c6.694-0.44,11.623-4.748,16.505-8.917c2.723,5.76,5.984,10.756,10.495,15.362
	c0.684,0.698,3.331-0.554,4.001-0.809c8.109-3.084,15.95-7.134,23.612-11.174c7.618-4.016,16.061-8.129,22.563-13.983
	c0.063,0.185,0.235,0.359,0.56,0.5c8.408,3.649,17.147,6.917,25.616,10.639c5.868,3.294,13.738,7.712,23.928,13.427
	c0.199,0.112,0.393,0.23,0.589,0.344c4.286,3.259,8.268,6.969,11.814,11.311c13.737,16.815,14.384,40.599,14.986,61.312
	c0.332,11.416,0.144,22.843-0.136,34.258C531.136,448.561,530.993,453.299,530.868,458.038z M402.707,393.408
	c-2.885,0.042-4.813,0.644-6.034-2.579c0.146,0.387,0.228-1.663,0.251-2.421c0.542-1.408,1.423-2.969,1.993-4.509
	c0.306-0.308,0.631-0.624,0.984-0.98c0.803-0.809,1.52-2.405,1.323-3.58c-0.805-4.818-8.508-12.789-13.833-12.268
	c-3.124,0.306-4.75,2.836-6.221,5.292c-1.982,3.309-4.94,1.519-7.534,0.435c-1.985-0.83-1.028-2.459-1.302-4.734
	c-1.029-8.552-10.189-7.916-16.529-6.217c-3.441,0.922-4.209,6.785-3.502,10.117c-1.066,0.604-2.197,1.058-3.402,1.342
	c-0.346,0.019-0.612,0.042-0.826,0.066c-0.555-0.732-1.15-1.433-1.759-2.122c-1.229-1.393-4.239-4.849-6.302-4.472
	c-3.197,0.583-6.014,4.916-7.914,7.219c-2.952,3.577-2.679,4.155,0.531,7.191c0.922,0.872,1.933,1.622,2.979,2.333
	c1.881,1.276,0.583,1.813-0.362,4.033c-2.079,4.886-6.302,3.199-10.535,3.943c-0.601,0.105-1.797,0.485-1.609,1.333
	c0.491,2.21-1.521,12.034,1.107,12.565c3.531,0.714,6.895-1.945,10.004,1.337c2.014,2.127,0.517,5.404,1.085,7.914
	c-2.392,1.448-6.161,4.22-5.453,6.862c0.573,2.137,4.56,5.095,6.319,6.366c2.408,1.739,6.526,2.896,9.298,1.34
	c1.341-0.752,1.819-2.591,3.587-2.508c1.591,0.074,3.527,0.472,5.062,0.754c4.782,0.879,3.098,4.146,3.116,7.203
	c0.005,0.866,1.059,0.888,1.693,0.73c4.598-1.145,16.355,1.032,18.773-4.473c0.352-0.802-0.198-1.639-0.605-2.302
	c-2.065-3.369,1.853-4.476,4.4-5.632c0.138-0.063,0.154-0.129,0.15-0.166c0.025,0.067,0.166,0.29,0.788,0.843
	c0.677,0.603,1.3,1.277,1.938,1.921c0.83,0.838,2.137,2.462,3.396,2.715c2.494,0.501,3.871-1.668,5.459-3.282
	c1.58-1.604,6.477-4.793,5.806-7.444c-0.185-0.729-2.329-2.229-4.126-3.307c-0.365-0.431-0.738-0.834-1.078-1.199
	c-0.354-0.378-0.629-0.726-0.845-1.05c1.561-2.699,3.242-3.658,7.048-3.616c1.664,0.019,3.173,0.126,4.527-0.913
	C408.102,404.767,408.94,393.317,402.707,393.408z M341.365,427.841c0.945,0.308,1.839,0.35,2.533-0.084
	C343.042,427.928,342.196,427.944,341.365,427.841z M395.461,374.99c-0.869-0.929-1.784-1.833-2.755-2.667
	c1.218,1.283,2.324,2.798,3.461,3.911c0.377,0.369,0.766,0.734,1.141,1.109C396.776,376.476,396.104,375.678,395.461,374.99z
	 M388.311,425.605c0.005,0.004,0.01,0.009,0.015,0.014c0.412,0.356,0.581,0.604,0.644,0.755c0.034-0.112,0.124-0.272,0.335-0.484
	c0.041-0.042,0.083-0.084,0.125-0.126c-0.343-0.001-0.69-0.036-1.047-0.135C388.356,425.623,388.335,425.612,388.311,425.605z
	 M374.601,430.14c-0.504,0.706-1.104,1.319-1.809,1.819c1.33-0.313,2.283-0.729,2.061-1.278
	C374.776,430.492,374.69,430.313,374.601,430.14z M335.171,404.093c1.047,0.535,1.919,1.327,2.336,2.539
	c0.498,1.445,0.414,3.045,0.422,4.587c0.182-0.567,0.297-1.127,0.307-1.677C338.274,407.477,337.577,404.159,335.171,404.093z"></path>
<path id="color_x5F_1" d="M152.661,311.043c17.913-4.47,33.945-20.304,35.72-39.01c1.432-15.094-7.004-29.451-19.717-37.15
	c-14.899-9.023-33.291-6.987-48.761-0.629c-0.489-0.074-1.059-0.015-1.447,0.235c-17.416,11.202-26.727,30.026-18.232,49.993
	C108.75,304.527,131.531,316.315,152.661,311.043z M146.228,310.392c-11.891,1.419-23.574-3.779-32.247-11.749
	c2.796-3.83,6.396-6.871,10.387-9.415c0.099-0.063,0.181-0.125,0.251-0.185c16.129-6.623,35.203-4.33,44.531,11.701
	C162.42,305.927,154.253,309.434,146.228,310.392z M99.806,266.434c0.506-12.182,8.242-22.144,17.786-29.019
	c0.438-0.307,0.894-0.591,1.341-0.887c0.223-0.01,0.453-0.055,0.678-0.152c18.852-8.192,41.394-8.359,56.135,7.701
	c11.412,12.432,12.746,30.955,3.972,45.159c-2.201,3.563-5.046,6.825-8.314,9.672c-10.284-16.312-30.251-17.249-46.923-10.884
	c-0.538-0.244-1.436-0.267-1.981,0.081c-3.864,2.464-7.337,5.381-10.194,8.925c-0.924-0.931-1.82-1.883-2.66-2.872
	C103.124,286.481,99.386,276.522,99.806,266.434z M154.1,273.854c7.821-5.34,10.243-15.253,5.003-23.246
	c-5.708-8.704-17.213-8.493-25.901-5.146c-0.408,0.015-0.827,0.108-1.1,0.289c-9.249,6.142-12.084,16.466-4.832,25.483
	C134.138,279.774,145.634,279.635,154.1,273.854z M133.288,247.025c0.039-0.014,0.078-0.024,0.117-0.041
	c8.23-3.463,17.433-2.836,23.004,4.75c4.43,6.032,3.066,14.198-1.893,19.394c-7.256,7.603-17.89,6.447-24.554-1.019
	C123.198,262.531,125.558,252.581,133.288,247.025z M447.218,153.774c17.307-5.102,32.484-19.989,34.229-38.37
	c1.478-15.579-7.737-30.285-21.188-37.579c-14.666-7.953-32.195-5.635-47.088,0.419c-0.647,0.024-1.546,0.199-1.814,0.373
	c-9.062,5.828-16.621,13.52-19.969,23.957c-2.818,8.783-1.385,18.313,2.385,26.56C402.931,149.171,426.159,159.982,447.218,153.774z
	 M392.871,109.806c0.509-12.246,8.385-22.375,17.976-29.283c0.453-0.316,0.922-0.609,1.383-0.914
	c0.279-0.037,0.532-0.091,0.685-0.157c19.175-8.332,41.979-7.742,56.493,8.834c10.991,12.553,11.986,30.907,3.325,44.928
	c-7.652,12.387-22.894,21.379-37.374,21.318c-13.405-0.057-25.974-7.974-33.954-18.35
	C395.625,128.668,392.478,119.28,392.871,109.806z M435.11,147.548c10.574,0.207,21.025-5.661,28.236-13.061
	c10.894-11.178,11.681-28.305,2.371-40.649c-10.507-13.932-29.989-15.421-45.29-9.647c-0.909,0.343-1.802,0.721-2.698,1.092
	c-0.463-0.049-0.977,0.02-1.336,0.251c-8.467,5.483-15.19,13.032-16.927,23.219c-1.48,8.687,1.89,17.494,7.069,24.338
	C413.267,141.984,424.024,147.332,435.11,147.548z M402.244,109.574c0.821-9.517,7.278-16.942,14.844-22.136
	c0.179-0.021,0.362-0.067,0.541-0.144c14.969-6.463,32.664-6.493,44.243,6.333c8.883,9.84,9.699,24.349,2.814,35.451
	c-5.382,8.68-15.715,15.005-25.69,16.39c-11.507,1.597-22.784-4.889-29.79-13.587C404.165,125.618,401.553,117.584,402.244,109.574z
	 M435.104,113.396c0,4.79,0,9.581,0,14.371c-2.321-0.652-4.73-1.68-6.825-1.909c-1.463-0.161-2.942,1.956-0.986,2.17
	c2.763,0.304,5.296,1.248,7.812,1.806c0,2.822,0,5.645,0,8.467c0,0.439,2.898,0.032,2.898-0.776c0-2.427,0-4.854,0-7.281
	c1.649,0.071,3.326-0.187,5.089-1.064c4.678-2.329,8.189-8.156,4.572-12.681c-2.367-2.962-6.022-4.135-9.661-5.089
	c0-4.443,0-8.886,0-13.329c1.738,0.032,3.451,0.269,4.876,0.528c1.468,0.268,2.922-1.817,0.986-2.17
	c-1.812-0.33-3.835-0.555-5.862-0.532c0-1.917,0-3.834,0-5.751c0-0.439-2.898-0.032-2.898,0.776c0,1.733,0,3.467,0,5.2
	c-1.979,0.299-3.867,0.914-5.456,2.008c-3.796,2.612-5.946,8.064-2.259,11.714C429.356,111.799,432.203,112.653,435.104,113.396z
	 M438.003,128.05c0-4.635,0-9.271,0-13.907c1.553,0.424,3.042,0.909,4.331,1.619c1.813,0.999,3.352,2.375,4.003,4.392
	c1.146,3.539-4.178,7.66-6.994,8.093c-0.432,0.066-0.881,0.08-1.34,0.057C438.003,128.219,438.003,128.135,438.003,128.05z
	 M430.706,100.132c1.168-1.06,2.722-1.622,4.398-1.878c0,4.134,0,8.269,0,12.403c-0.778-0.208-1.541-0.425-2.27-0.67
	C428.214,108.437,426.8,103.679,430.706,100.132z M188.576,181.558c8.798,6.817,19.459,11.649,30.552,12.938
	c2.806,0.326,15.148,1.07,16.168-2.831c1.084-4.143-0.393-9.827-0.855-13.962c-0.904-8.083-2.025-16.142-3.161-24.195
	c-0.981-6.957-2.572-14.076-3.141-21.111c2.911,0.891,6.285,2.495,8.919,3.45c7.463,2.707,14.916,5.439,22.377,8.149
	c6.702,2.435,13.404,4.875,20.149,7.19c2.066,0.71,5.993,2.876,8.144,1.268c2.036-1.524,3.295-5.722,4.166-8.004
	c1.316-3.456,2.003-7.126,2.318-10.8c0.611-7.128-0.727-14.295-3.201-20.966c-5.552-14.972-17.713-26.787-32.1-33.321
	c-20.49-9.306-43.984-6.072-64.184,2.329c-0.654-0.047-1.681,0.096-2.021,0.313c-17.654,11.254-31.055,28.214-31.127,49.886
	C161.514,151.746,173.335,169.747,188.576,181.558z M184.817,89.677c2.534-2.206,5.262-4.177,8.061-6.033
	c0.302-0.003,0.633-0.062,0.93-0.192c20.988-9.179,44.57-11.911,65.62-1.476c14.931,7.402,26.424,21.389,30.581,37.521
	c1.868,7.25,1.917,14.906,0.039,22.152c-0.858,3.314-2.262,6.462-3.973,9.418c-0.058,0.1,2.223,0.896,0.061,0.248
	c-1.033-0.31-2.057-0.658-3.08-1.002c-14.129-4.75-28.078-10.061-42.086-15.155c-4.206-1.529-9.013-4.13-13.493-4.712
	c-0.588-0.076-2.413,0.208-2.364,1.073c0.67,11.873,3.485,23.914,5.04,35.702c0.908,6.889,1.835,13.804,2.278,20.742
	c0.091,1.413,0.687,3.954-0.748,4.414c-5.731,1.839-12.246,0.857-17.939-0.59c-21.723-5.523-40.226-24.077-46.874-45.279
	C160.184,125.188,168.384,103.981,184.817,89.677z M261.017,153.524c-4.556-2.052-9.094-4.147-13.673-6.148
	c-1.894-0.827-4.453-2.388-6.617-2.237c-0.869,0.061-1.429,0.698-1.487,1.272c-0.43,0.244-0.688,0.558-0.477,0.849
	c1.184,1.628,1.222,4.99,1.563,6.885c0.919,5.111,1.716,10.244,2.557,15.368c1.866,11.378,3.691,22.824,6.576,33.998
	c0.05,0.193,0.249,0.296,0.517,0.335c0.272,0.148,0.655,0.219,1.157,0.114c9.152-1.904,17.699-7.699,24.82-13.512
	c7.273-5.936,14.949-13.135,18.336-22.139c0.554-0.499,0.722-1.162-0.217-1.45C282.718,163.371,271.83,158.394,261.017,153.524z
	 M274.65,188.944c-6.427,5.4-14.201,10.851-22.49,12.991c-2.874-11.334-4.696-22.935-6.588-34.463
	c-0.817-4.984-1.606-9.974-2.501-14.945c-0.25-1.394-0.367-3.315-0.887-4.871c1.744,0.599,3.854,1.884,5.086,2.426
	c4.432,1.953,8.83,3.984,13.246,5.974c10.104,4.551,20.3,9.144,30.884,12.487C288.303,176.793,281.235,183.411,274.65,188.944z
	 M384.438,246.627c0.734,1.35-2.025,2.434-2.652,1.282c-5.044-9.268,9.529-14.214,15.592-17.199
	c1.477-0.727,3.065,0.853,1.289,1.728C393.828,234.82,380.337,239.093,384.438,246.627z M409.258,244.988
	c0.996-1.056,1.599-2.478,2.241-3.761c0.27-0.539,1.153-0.752,1.685-0.839c0.161-0.027,1.442-0.15,1.183,0.367
	c-0.701,1.402-1.377,2.932-2.466,4.086c-0.455,0.482-1.299,0.682-1.933,0.717C409.657,245.575,408.796,245.477,409.258,244.988z
	 M382.744,229.135c-1.569-0.786-3.14-1.57-4.709-2.354c-0.616-0.308-0.143-0.886,0.255-1.127c0.545-0.331,1.441-0.577,2.052-0.272
	c1.57,0.784,3.14,1.568,4.709,2.354c0.615,0.308,0.143,0.886-0.255,1.127C384.251,229.193,383.354,229.439,382.744,229.135z
	 M386.709,215.163c-1.237-1.175,1.259-2.623,2.225-1.706c2.521,2.396,5.813,3.698,9.134,4.561c0.682,0.177,0.794,0.963,0.389,1.451
	c-0.502,0.605-1.326,0.737-2.049,0.549C392.915,219.11,389.36,217.682,386.709,215.163z M414.213,227.356
	c5.169,0.17,9.854,3.178,12.599,7.495c0.83,1.305-1.924,2.431-2.648,1.292c-2.428-3.817-6.346-6.478-10.94-6.629
	C411.265,229.449,412.781,227.309,414.213,227.356z M534.144,444.822c0.577-22.14,1.059-44.633-2.373-66.583
	c-2.701-17.285-10.15-31.234-23.967-42.298c-15.053-12.053-34.208-17.674-51.644-25.241c-0.231-0.101-0.514-0.107-0.8-0.054
	c2.434-2.465,1.282-4.731-0.033-7.721c-1.667-3.789-3.744-8.113-6.418-11.316c-0.077-0.093-0.193-0.146-0.332-0.174
	c0.381-2.295,0.545-4.682,1.199-6.835c0.258-0.849,0.687-1.681,1.23-2.495c0.63-0.775,1.376-1.683,2.199-2.673
	c2.296-2.403,5.143-4.628,6.968-6.647c6.843-7.57,12.681-16.066,16.755-25.439c2.932-6.744,4.453-14.01,3.936-21.203
	c16.438,0.133,24.115-16.457,15.415-30.191c-8.368-13.211-24.856-16.271-36.001-6.27c-1.073,0.688-1.841,1.268-1.945,1.583
	c-0.179,0.534-0.83,1.159-1.4,1.629c-34.521-19.549-77.09,7.526-89.861,42.456c-5.389,14.739-9.686,34.179,2.625,46.534
	c5.51,5.53,14.049,8.139,17.314,15.575c0.67,1.527,1.178,3.129,1.574,4.771c0.057,0.231,0.117,0.46,0.168,0.692
	c-0.156,0.066-0.296,0.153-0.42,0.253c-0.141,0.114-0.259,0.247-0.333,0.405c-1.15,2.462-2.411,4.878-3.69,7.287
	c-35.295,0.326-69.164,16.165-104.66,11.789c-0.555-0.068-1.905,0.531-2.236,0.989c0.039-0.062,0.08-0.123,0.119-0.185
	c5.296-8.418,7.442-18.415,10.5-27.755c0.007-0.021,0.004-0.039,0.006-0.059c3.98-0.175,7.911-0.685,11.626-1.95
	c9.002-3.065,13.743-10.432,16.626-19.15c2.221-6.716,3.955-17.281-1.131-23.178c-4.938-5.726-15.48-4.84-22.112-4.506
	c-1.032,0.052-3.085,1.696-1.139,1.599c6.455-0.325,14.839-1.043,20.079,3.547c5.361,4.696,3.324,14.119,2.076,20.07
	c-1.781,8.495-6.178,16.909-14.638,20.174c-7.6,2.932-16.901,1.746-24.897,1.697c0.086-0.076,0.167-0.162,0.254-0.236
	c1.206-1.042-1.68-0.804-2.273-0.29c-6.57,5.682-27.527,32.73-13.139,39.01c0.017,0.007,0.033,0.012,0.049,0.02
	c-0.068,0.065-0.125,0.133-0.152,0.207c-5.483,14.98-13.921,28.696-19.127,43.846c-2.723,7.923-5.831,19.208-3.297,27.847
	c-7.638,0.117-15.458,0.753-22.943-0.963c-8.863-2.032-15.699-8.444-20.178-16.087c-4.942-8.434-5.934-18.473-3.727-27.875
	c2.341-9.972,9.361-18.913,15.733-26.663c12.324-14.989,27.511-27.459,42.368-39.822c5.418-4.509,11.139-8.701,15.629-14.171
	c4.637-5.646,8.868-11.983,11.787-18.725c0.445-0.234,0.778-0.582,0.76-1.002c-0.013-0.29-0.003-0.571-0.001-0.856
	c0.022-0.118,0.021-0.224,0-0.319c0.192-7.339,5.28-12.909,11.396-16.579c3.378-2.027,7.271-3.177,11.167-3.582
	c6.771-0.704,2.085,4.854-0.474,7.292c-1.263,1.204,1.588,1.351,2.361,0.614c2.425-2.311,4.123-4.04,4.745-7.015
	c0.229-0.214,0.338-0.471,0.23-0.743c-0.008-0.018,0.803-1.843,1.004-2.312c0.752-1.756,1.525-3.501,2.293-5.25
	c0.641-1.461,1.281-2.924,1.9-4.395c0.109-0.258,0.293-0.598,0.45-0.951c0.012,0.012,0.022,0.024,0.034,0.036
	c0.97,0.958,3.443-0.519,2.219-1.73c-0.22-0.217-0.42-0.442-0.625-0.665c13.344,0.706,26.344-5.325,36.386-14.252
	c11.626-10.335,21.97-27.384,18.655-43.505c-0.476-2.313-1.287-4.396-2.358-6.253c3.694,2.539,6.62,6.185,8.177,10.438
	c2.861,7.815,0.776,16.685-2.369,24.052c-7.457,17.464-24.996,32.789-44.45,33.83c-3.831,0.205-7.671-0.389-11.345-1.441
	c-1.315-0.376-3.422,1.527-1.652,2.034c1.225,0.351,2.451,0.631,3.677,0.859c-3.499,5.872-6.768,11.782-9.021,18.269
	c-0.421,1.211,2.527,0.865,2.922-0.271c2.168-6.241,5.373-11.942,8.742-17.59c14.811,1.741,29.359-4.975,39.994-15.48
	c10.955-10.82,20.777-27.442,16.896-43.399c-1.95-8.02-7.874-13.29-14.99-15.695c-6.215-6.037-16.046-8.025-24.787-5.686
	c-14.172,3.791-25.04,16.331-31.961,28.637c-7.074,12.578-13.308,32.784-1.43,44.528c0.254,0.251,1.016,0.117,1.678-0.131
	c1.085,0.265,2.172,0.478,3.258,0.647c0.278,0.388,0.572,0.77,0.882,1.145c-0.267,0.082-0.501,0.179-0.638,0.256
	c-0.01,0.005-0.02,0.011-0.029,0.016c-0.627,0.355-0.682,0.67-0.451,0.897c-0.016,0-0.03-0.001-0.045-0.002
	c0.023,0.107-0.816,1.88-1.029,2.376c-0.753,1.76-1.528,3.511-2.297,5.264c-0.568,1.295-1.132,2.592-1.686,3.893
	c-13.153-1.353-29.752,8.178-30.326,22.213c-3.243,8.113-8.406,15.596-14.15,22.14c-6.212,7.075-14.832,12.693-22.019,18.764
	c-15.194,12.836-30.666,26.46-41.708,43.18c-1.569,2.377-3.01,4.766-4.279,7.201c-0.054-0.007-0.116-0.012-0.195-0.012
	c-41.067,0-82.136,0-123.203,0c-0.081,0-0.209,0.025-0.361,0.064c-0.465-0.9-2.828-0.356-2.828,0.641c0,53.099,0,106.198,0,159.298
	c0,1.36,2.914,0.806,2.914-0.3c0-52.864,0-105.728,0-158.592c40.526,0,81.054,0,121.58,0c0.312,0,1.282-0.34,1.854-0.644
	c-2.969,5.813-4.916,11.908-5.118,18.79c-0.271,9.246,3.434,18.037,8.875,25.33c10.352,13.874,27.567,12.446,42.853,12.35
	c1.494,3.47,4.101,6.371,8.286,8.239c10.69,4.771,17.638-1.569,22.206-11.685c1.564-0.099,3.813,0.05,4.905,0.024
	c4.339-0.102,8.679-0.121,13.019-0.14c8.744-0.039,17.486-0.001,26.23,0.004c-3.463,12.135-5.353,24.454-6.799,37.044
	c-1.456,12.668-2.807,25.35-3.479,38.087c-0.636,12.03-0.997,24.676,2.021,36.439c0.068,0.267,0.648,0.276,1.271,0.151
	c0.821-0.166,1.719-0.567,1.627-0.927c-1.56-6.077-2.188-12.367-2.361-18.683c-0.039-1.416-0.056-2.832-0.054-4.248
	c0.005-4.032,0.151-8.058,0.322-12.027c0.554-12.821,1.954-25.598,3.41-38.342c1.707-14.942,4.052-29.444,8.67-43.803
	c4.952-15.399,13.53-29.475,17.458-45.206c0.146-0.589-2.68-0.184-2.855,0.521c-3.922,15.711-12.381,29.866-17.458,45.206
	c-0.409,1.238-0.778,2.479-1.152,3.721c-9.664-0.004-19.327-0.044-28.991,0.008c-4.357,0.023-8.716,0.061-13.07,0.194
	c-0.555,0.017-1.201,0-1.868,0c5.906-14.614,7.428-35.556,8.161-43.432c0.972-10.444,1.526-20.964,1.539-31.455
	c0-0.517-2.897-0.087-2.898,0.776c-0.015,12.813-0.821,25.661-2.25,38.39c-1.3,11.587-2.785,24.89-7.61,36.1
	c-0.177,0.063-0.349,0.13-0.507,0.215c-1.018,0.546-0.899,1.279-0.342,1.643c-1.02,2.145-2.158,4.212-3.472,6.151
	c-4.171,6.157-9.717,6.614-15.875,2.708c-6.171-3.916-7.185-11.68-6.743-18.353c1.161-17.546,10.672-34.603,18.109-50.159
	c1.635-3.419,3.302-6.848,4.674-10.387c0.009-0.024,0.02-0.048,0.029-0.073c0.126,0.022,0.251,0.026,0.377,0.043
	c5.937,0.82,11.361-3.881,14.659-8.601c0.21-0.3,0.413-0.601,0.604-0.899c-0.113,0.199-0.016,0.364,0.463,0.423
	c0.898,0.111,1.796,0.2,2.692,0.286c34.874,3.34,68.063-11.763,102.78-12.034c0.064,0,0.133-0.008,0.205-0.02
	c-3.095,5.799-6.2,11.595-8.077,17.913c-0.255,0.859,0.46,1.344,1.274,1.291c6.694-0.44,11.623-4.748,16.505-8.917
	c2.723,5.76,5.984,10.756,10.495,15.362c0.684,0.698,3.331-0.554,4.001-0.809c8.109-3.084,15.95-7.134,23.612-11.174
	c7.618-4.016,16.061-8.129,22.563-13.983c0.063,0.185,0.235,0.359,0.56,0.5c8.408,3.649,17.147,6.917,25.616,10.639
	c8.674,3.811,17.061,8.103,24.517,13.771c4.286,3.259,8.268,6.969,11.814,11.311c13.737,16.815,14.384,40.599,14.986,61.312
	c0.332,11.416,0.144,22.843-0.136,34.258c-0.117,4.739-0.26,9.478-0.385,14.216c-0.025,0.953-0.316,3.426,0.118,4.165
	c0.097,0.165,0.229,0.245,0.408,0.201c-0.865,0.211-1.805,0.239-2.688,0.321c-0.953,0.088-1.911,0.148-2.867,0.226
	c-15.809,1.272-31.914,1.048-47.754,0.435c-1.09-0.042-2.183-0.08-3.27-0.125c-4.101-0.171-8.199-0.427-12.288-0.783
	c-0.798-0.07-1.595-0.137-2.392-0.214c-1.916-0.187-3.826-0.424-5.73-0.694c-2.336-0.331-2.697-1.594-3.223-3.688
	c-1.021-4.08-0.949-8.497-0.939-12.672c0.004-1.631-0.158-3.568-0.043-5.358c26.094-0.266,52.716-3.813,78.383,2.355
	c1.496,0.359,2.877-1.766,0.973-2.224c-25.877-6.218-52.733-2.658-79.038-2.384c-0.008-0.147-0.07-0.262-0.169-0.352
	c0.193-0.212,0.242-0.442,0.025-0.647c-0.597-0.565,0.552-6.049,0.658-7.002c0.553-4.973,1.164-9.939,1.747-14.908
	c1.304-11.102,2.667-22.239,3.193-33.41c0.057-1.217-2.854-0.63-2.9,0.354c-0.563,11.98-2.074,23.921-3.477,35.825
	c-0.584,4.951-1.192,9.9-1.722,14.858c-0.101,0.94-1.037,4.622-0.188,5.426c0.003,0.003,0.008,0.004,0.011,0.007
	c-0.875,0.373-1.139,1.438-0.434,1.9c-0.808,4.907-0.005,10.971,0.478,15.656c0.243,2.359,0.557,5.53,2.386,7.269
	c0.637,0.605,1.631,0.957,2.752,1.172c2.111,0.405,4.681,0.318,6.214,0.477c19.102,1.979,38.585,1.748,57.757,1.092
	c2.521-0.086,5.163-0.077,7.792-0.2c-0.105,0.136-0.172,0.286-0.17,0.451c0.153,16.812-7.296,31.454-20.629,41.612
	c-12.26,9.339-29.259,14.84-44.688,13.667c-17.267-1.313-33.416-11.587-47.204-21.281c-12.1-8.505-23.281-18.184-34.589-27.691
	c-1.345-1.13-2.692-2.256-4.043-3.379c-0.281-0.234-0.561-0.471-0.842-0.704c-0.242-0.201-0.626-0.241-1.023-0.179
	c-4.868-3.861-13.589-4.694-19.21-6.125c-4.632-1.179-9.264-2.375-13.803-3.876c-1.846-0.61-5.727-1.603-7.509-3.456
	c1.242,0.574,2.72,0.96,4.065,1.208c3.085,0.569,6.227,0.445,9.335,0.734c5.876,0.546,11.337,3.742,17.105,4.941
	c1.493,0.311,2.897-1.813,0.975-2.213c-6.625-1.377-12.763-5.081-19.656-5.118c-2.315-0.013-12.912-0.301-11.409-3.957
	c0.026-0.065,0.048-0.129,0.083-0.197c0.01,0.017,0.026,0.031,0.036,0.047c0.202,0.314,0.474,0.611,0.856,0.87
	c3.218,2.178,8.284,1,11.911,0.858c7.452-0.291,13.822,1.963,21.077,2.849c1.241,0.151,3.031-1.594,1.076-1.833
	c-5.54-0.676-10.726-2.761-16.336-2.981c-2.805-0.11-5.641,0.188-8.443,0.235c-0.485,0.01-0.97,0.026-1.454,0.049
	c-0.393,0.027-0.786,0.055-1.179,0.082c-3.175,0.763-3.771-0.982-1.793-5.229c0.02-0.042,0.035-0.081,0.056-0.124
	c2.873-0.85,6.178-0.772,9.419-0.628c1.946,0.086,3.87,0.197,5.662,0.146c6.252-0.177,12.483-0.999,18.678-1.808
	c8.503-1.11,20.062,0.723,27.184-5.077c3.196-2.603,5.429-5.918,7.595-9.388c1.17-1.874,2.313-3.756,3.561-5.582
	c0.871-1.275,1.77-2.266,2.876-3.304c1.687-0.115,3.372-0.231,5.059-0.347c-0.099,0.736-0.3,1.444-0.605,2.126
	c-1.339,3.442-3.546,6.649-5.089,10.01c-1.967,4.287-3.323,8.847-4.057,13.502c-1.468,9.325,8.443,13.42,15.884,15.758
	c10.288,3.232,21.288,4.03,31.712,6.853c11.736,3.179,22.809,8.311,32.797,15.233c0.887,0.615,3.524-0.648,2.277-1.513
	c-10.207-7.074-21.42-12.055-33.342-15.45c-1.32-0.376-2.658-0.707-4.004-1.017c-11.475-2.642-23.779-3.292-34.38-8.458
	c-2.959-1.442-6.618-3.698-7.889-6.858c-1.004-2.499-0.013-5.972,0.558-8.495c0.004-0.019,0.01-0.038,0.015-0.057
	c0.391-1.717,0.896-3.392,1.475-5.039c1.446-4.106,3.399-8.016,5.538-11.823c1.142-2.031,2.913-5.002,1.48-7.257
	c-1.338-2.108-5.672-0.522-7.213,0.309c-9.305,5.018-9.902,18.506-20.595,22.018c-3.652,1.2-7.834,1.033-11.63,1.161
	c-3.605,0.122-7.153,0.652-10.725,1.119c-7.453,0.974-14.941,1.753-22.468,1.593c-4.244-0.091-8.723-0.29-12.672,1.497
	c-1.348,0.609-2.864,2.279-3.207,3.939c-0.63-0.132-1.425,0.02-1.819,0.538c-1.184,1.559-1.365,2.803-0.952,3.805
	c-0.702,0.201-1.336,0.71-1.233,1.371c0.424,2.738,3.736,4.599,7.441,5.912c3.704,1.313,7.803,2.077,9.804,2.624
	c5.026,1.371,10.098,2.568,15.126,3.933c1.146,0.311,2.518,0.608,3.91,0.978c2.331,0.62,4.723,1.444,6.215,2.883
	c0.292,0.281,0.766,0.355,1.244,0.295c10.002,8.315,19.844,16.814,30.137,24.743c3.818,2.941,7.704,5.796,11.682,8.537
	c0.644,0.442,1.273,0.9,1.922,1.337c5.927,3.991,12.407,7.991,19.231,11.241c9.366,4.46,19.381,7.507,29.515,7.161
	c32.023-1.093,64.351-23.188,64.037-57.622c-0.001-0.137-0.037-0.25-0.09-0.351c1.629-0.151,3.236-0.377,4.783-0.754
	c2.131-0.52,1.613-2.448,1.656-4.271C533.856,454.872,534.013,449.847,534.144,444.822z M306.622,220.042
	c-0.104-0.03-0.261-0.025-0.441,0c-10.256-11.02-5.124-28.883,0.762-40.786c6.785-13.72,20.737-31.197,37.67-30.763
	c4.43,0.114,8.705,1.78,12.229,4.442c-3.863-0.51-7.861-0.262-11.621,0.771c-14.621,4.016-26.135,17.019-33.275,29.787
	c-5.916,10.581-10.485,25.772-4.126,36.867C307.419,220.258,307.019,220.156,306.622,220.042z M316.229,181.291
	c7.879-13.217,22.8-28.165,39.547-26.404c1.434,0.151,2.835,0.459,4.188,0.894c1.383,1.505,2.566,3.182,3.481,4.984
	c3.62,7.132,2.495,15.769,0.064,23.058c-6.087,18.256-23.666,35.445-43.226,37.603c-2.842,0.313-5.695,0.194-8.504-0.24
	C303.021,209.75,309.692,192.256,316.229,181.291z M259.063,329.293c-4.372-4.78,0.945-14.468,3.327-18.926
	c2.74-5.128,6.229-10.595,10.451-14.838c0.073,0.006,0.146,0.014,0.234,0.014c4.048,0.01,8.267,0.226,12.466,0.17
	c-0.194,0.122-0.336,0.265-0.389,0.424c-2.372,7.245-4.291,14.6-7.325,21.615C275.192,323.846,266.846,337.803,259.063,329.293z
	 M453.329,248.433c1.083,0.038,2.175,0.141,3.157,0.35c1.363,0.53,2.344,1.647,2.471,3.731c0.231,3.815-2.217,7.866-4.235,10.898
	c-2.041,3.064-4.766,6.426-8.123,8.157c-0.572-0.028-1.327,0.164-1.783,0.503c-2.365-0.165-2.879-4.345-2.969-6.359
	c-0.021-0.47-0.758-0.558-1.482-0.387c2.071-5.971,4.424-11.799,8.793-16.233C450.396,249.117,451.782,248.908,453.329,248.433z
	 M366.776,247.043c-0.106,0.001-0.207,0.013-0.305,0.031c0.538-2.254,1.128-4.436,1.699-6.482
	c3.888-13.932,11.133-24.798,21.622-34.649c3.799-3.567,7.892-6.717,12.2-9.346c-0.014,2.208,0.393,14.9,11.34,17.333
	c1.219,0.271,2.477,0.509,3.752,0.722c0.555,0.146,1.126,0.277,1.715,0.392c3.066,0.597,6.219,0.731,9.358,0.852
	c1.753,0.12,3.415,0.203,4.929,0.26c1.985,0.152,3.957,0.394,5.918,0.746c1.242,0.224,1.774,0.427,1.942,0.778l-0.032,0.884
	c-0.115,0.438-0.311,1.008-0.46,1.778c-0.843,4.334-1.518,11.354-0.609,17.375l-0.001,0.006
	c-3.662,12.018-8.154,30.921-23.949,28.688c-9.066-1.281-17.514-7.823-25.365-12.123
	C383.146,250.243,375.327,246.91,366.776,247.043z M402.241,271.375c-1.765,1.711-4.011,3.195-6.516,3.038
	c-3.18-0.2-3.563-3.988-3.402-6.629C395.47,269.36,398.839,270.467,402.241,271.375z M387.958,293.175
	c5.959,1.992,12.77,2.376,19.33,1.674c1.562-0.102,3.138-0.287,4.711-0.586c2.298-0.438,4.32-0.974,6.117-1.595
	c1.679-0.506,3.288-1.073,4.798-1.695c9.874-4.066,13.155-13.035,16.29-22.253c0.551,2.866,2.009,5.058,4.999,5.016
	c-0.312,2.481,0.58,4.965,1.914,7.068c0.221,0.349,0.821,0.392,1.408,0.254l0.577,1.386c-2.405,4.216-1.414,9.245-3.561,13.444
	c-0.07,0.137-0.09,0.251-0.083,0.351c-6.612,5.062-13.658,9.545-20.916,13.621c-8.47,4.757-18.088,9.651-27.919,10.947
	c-0.024-0.054-0.05-0.109-0.074-0.163c-0.103-0.227-0.488-0.264-0.944-0.199c-0.345-0.418-1.139-0.619-1.803-0.375
	c0.017-8.269,0.398-18.252-3.945-25.57C388.58,294.032,388.278,293.592,387.958,293.175z M378.716,329.097
	c2.559-7.708,6.831-14.691,10.491-21.926c0.064-0.127,0.132-0.252,0.195-0.379c0.271,2.201,0.396,4.438,0.454,6.658
	c0.066,2.504,0.048,4.988,0.047,7.371c0,0.509,0.509,0.691,1.099,0.667C387.329,324.679,383.509,328.129,378.716,329.097z
	 M405.829,336.894C405.53,336.959,405.56,336.885,405.829,336.894L405.829,336.894z M453.612,309.9
	c-4.128,5.797-12.622,9.557-18.647,12.919c-7.6,4.242-15.424,8.119-23.36,11.69c-1.247,0.562-2.502,1.104-3.764,1.631
	c-0.501,0.209-1.006,0.406-1.514,0.599c-0.113,0.043-0.202,0.071-0.287,0.098c-2.268-1.199-4.53-5.374-5.881-7.366
	c-1.57-2.315-2.797-4.856-3.959-7.402c8.404-1.367,16.404-4.948,23.957-8.749c4.611-2.32,9.136-4.885,13.54-7.65
	c1.886-1.183,3.745-2.406,5.581-3.664c3.032-2.077,5.999-4.242,8.87-6.505c0.865,1.472,1.641,3.012,2.421,4.457
	C451.706,302.062,455.328,307.491,453.612,309.9z M334.216,406.731c2.014,2.127,0.517,5.404,1.085,7.914
	c-2.392,1.448-6.161,4.22-5.453,6.862c0.573,2.137,4.56,5.095,6.319,6.366c2.408,1.739,6.526,2.896,9.298,1.34
	c1.341-0.752,1.819-2.591,3.587-2.508c1.591,0.074,3.527,0.472,5.062,0.754c4.782,0.879,3.098,4.146,3.116,7.203
	c0.005,0.866,1.059,0.888,1.693,0.73c4.598-1.145,16.355,1.032,18.773-4.473c0.352-0.802-0.198-1.639-0.605-2.302
	c-2.065-3.369,1.853-4.476,4.4-5.632c0.138-0.063,0.154-0.129,0.15-0.166c0.025,0.067,0.166,0.29,0.788,0.843
	c0.677,0.603,1.3,1.277,1.938,1.921c0.83,0.838,2.137,2.462,3.396,2.715c2.494,0.501,3.871-1.668,5.459-3.282
	c1.58-1.604,6.477-4.793,5.806-7.444c-0.185-0.729-2.329-2.229-4.126-3.307c-1.299-0.779-2.416-1.339-2.475-1.222
	c0.185-0.369,0.367-0.707,0.552-1.026c1.561-2.699,3.242-3.658,7.048-3.616c1.664,0.019,3.173,0.126,4.527-0.913
	c3.546-2.722,4.385-14.171-1.849-14.081c-2.885,0.042-4.813,0.644-6.034-2.579c0.146,0.387,0.228-1.663,0.251-2.421
	c0.003-0.102,0.006-0.183,0.007-0.229c0.055-2.12,0.83-3.115,1.986-4.28c0.306-0.308,0.631-0.624,0.984-0.98
	c0.803-0.809,1.52-2.405,1.323-3.58c-0.805-4.818-8.508-12.789-13.833-12.268c-3.124,0.306-4.75,2.836-6.221,5.292
	c-1.982,3.309-4.94,1.519-7.534,0.435c-1.985-0.83-1.028-2.459-1.302-4.734c-1.029-8.552-10.189-7.916-16.529-6.217
	c-3.441,0.922-4.209,6.785-3.502,10.117c-1.066,0.604-2.197,1.058-3.402,1.342c-0.346,0.019-0.612,0.042-0.826,0.066
	c-0.555-0.732-1.15-1.433-1.759-2.122c-1.229-1.393-4.239-4.849-6.302-4.472c-3.197,0.583-6.014,4.916-7.914,7.219
	c-2.952,3.577-2.679,4.155,0.531,7.191c0.922,0.872,1.933,1.622,2.979,2.333c1.881,1.276,0.583,1.813-0.362,4.033
	c-2.079,4.886-6.302,3.199-10.535,3.943c-0.601,0.105-1.797,0.485-1.609,1.333c0.491,2.21-1.521,12.034,1.107,12.565
	C327.743,406.108,331.106,403.449,334.216,406.731z M327.515,403.316c-2.098,0.252-1.505,0.243-1.419-1.862
	c0.01-0.247,0.024-0.498,0.038-0.748c0.119-2.208,0.339-4.537,0.145-6.766c-0.021-0.257-0.044-0.513-0.078-0.767
	c0.744-0.057,1.491-0.082,2.238-0.104c1.971-0.058,3.939-0.092,5.851-0.629c3.289-0.925,4.187-6.23,5.759-8.722
	c0.296-0.468-0.091-0.847-0.51-0.997c-2.022-0.724-7.719-4.065-6.313-6.351c1.484-2.412,3.621-4.623,5.717-6.608
	c0.316-0.299,0.631-0.593,0.941-0.881c0.696-0.646,0.697-0.551,0.002,0.286c1.377,0.792,2.508,1.985,3.6,3.128
	c0.053,0.056,0.107,0.112,0.161,0.167c0.739,0.772,1.44,2.271,2.366,2.823c1.27,0.757,3.518,0.036,5.394-0.807
	c0.837-0.376,1.6-0.776,2.169-1.081c0.103,0.001,0.209-0.007,0.314-0.02c0.867-0.103,1.772-0.658,1.539-1.335
	c-0.865-2.503-0.457-8.18,2.459-8.741c4.117-0.792,8.816-1.391,10.833,3.146c1.026,2.309,0.237,4.738,0.878,6.96
	c0.407,1.41,6.536,2.921,7.802,3.101c3.145,0.445,4.958-1.441,6.508-3.934c0.601-0.966,1.161-1.731,1.753-2.259
	c1.01-0.899,2.117-1.09,3.682-0.333c0.225,0.109,0.455,0.229,0.7,0.378c0.944,0.572,1.823,1.243,2.663,1.963
	c0.971,0.834,1.886,1.737,2.755,2.667c0.643,0.688,1.315,1.486,1.847,2.353c0.602,0.981,1.022,2.053,0.99,3.172
	c-0.052,1.793-2.518,3.07-3.527,4.443c-1.094,1.486-1.473,5.39-0.804,7.155c1.204,3.174,3.095,3.628,6.108,3.343
	c0.194-0.019,0.394-0.04,0.598-0.063c1.103-0.13,1.852,0.112,2.367,0.568c1.311,1.157,1.064,3.737,0.914,5.436
	c-0.098,1.106-0.338,2.18-0.604,3.255c-0.079,0.319-0.175,0.579-0.284,0.799c-0.354,0.716-0.865,0.965-1.526,1.038
	c-0.537,0.059-1.172,0.005-1.9-0.003c-4.053-0.044-6.272,0.632-8.614,4.008c-1.494,2.156-2.282,3.229,0.128,4.558
	c1.647,0.909,3.398,1.647,4.751,2.998c1.062,1.059-3.574,4.769-4.215,5.422c-0.752,0.766-1.504,1.53-2.26,2.293
	c-0.042,0.042-0.084,0.084-0.125,0.126c-0.211,0.212-0.301,0.372-0.335,0.484c-0.063-0.151-0.231-0.399-0.644-0.755
	c-0.005-0.004-0.01-0.009-0.015-0.014c-1.331-1.154-2.483-2.506-3.8-3.68c-2.082-1.854-3.318-0.605-5.622-0.093
	c-2.209,0.491-6.163,2.375-5.704,5.267c0.193,1.216,0.889,2.021,1.416,3.04c0.09,0.173,0.176,0.352,0.252,0.541
	c0.223,0.549-0.73,0.966-2.061,1.278c-2.303,0.541-5.743,0.767-6.219,0.808c-1.37,0.12-2.773,0.184-4.17,0.3
	c-0.746,0.062-1.491,0.134-2.227,0.246c0.05-0.998,0.144-2.004,0.115-2.948c-0.057-1.917-0.625-3.565-3.15-4.305
	c-3.277-0.96-7.44-1.961-10.75-0.777c-0.799,0.286-1.358,1.062-1.778,1.75c-0.2,0.327-0.444,0.555-0.715,0.724
	c-0.694,0.434-1.588,0.392-2.533,0.084c-2.031-0.663-4.282-2.521-5.222-3.402c-0.979-0.918-1.819-2.001-2.591-3.095
	c-0.093-0.131-0.162-0.263-0.222-0.395c-0.498-1.109,0.132-2.229,1.092-3.185c0.977-0.972,2.288-1.775,3.099-2.22
	c0.347-0.19,1.036-0.608,0.839-1.126c-0.372-0.978-0.426-2.073-0.432-3.198c-0.008-1.542,0.076-3.142-0.422-4.587
	c-0.417-1.212-1.289-2.004-2.336-2.539c-1.232-0.631-2.713-0.9-4.028-1.006c-1.177-0.094-2.419,0.083-3.583,0.223
	C327.545,403.313,327.529,403.314,327.515,403.316z M377.792,410.59c6.038-5.066,6.697-13.595,2.134-19.791
	c-5.23-7.101-14.984-6.666-22.395-3.85c-0.393,0.019-0.79,0.113-1.054,0.291c-1.012,0.683-1.937,1.418-2.77,2.197
	c-1.304,1.221-2.371,2.554-3.195,3.964c-2.829,4.835-2.695,10.598,1.453,16.056C358.546,418.117,370.215,416.948,377.792,410.59z
	 M352.032,395.947c0.94-2.729,2.814-5.219,5.316-7.152c0.127-0.099,0.248-0.205,0.379-0.301c0.026-0.009,0.053-0.016,0.079-0.026
	c4.561-1.894,9.33-2.418,13.545-0.801c1.896,0.728,3.681,1.888,5.283,3.553c3.851,4.004,4.354,10.127,1.957,14.965
	c-1.001,2.021-2.327,3.611-3.854,4.807c-6.173,4.834-15.678,3.127-20.752-3.552C351.176,403.743,350.761,399.636,352.032,395.947z
	 M299.765,511.474c-77.948,0-155.896,0-233.846,0c-1.373,0,1.359-1.083,1.906-1.083c77.948,0,155.896,0,233.846,0
	C303.044,510.391,300.312,511.474,299.765,511.474z M81.548,466.596c0,5.321,4.33,9.65,9.652,9.65c5.32,0,9.648-4.329,9.648-9.65
	c0-3.363-1.73-6.326-4.346-8.054l0.06,0.026l18.246-41.786l-3.666-1.601l-18.246,41.786l0.618,0.27
	c-0.742-0.184-1.516-0.292-2.314-0.292C85.878,456.945,81.548,461.274,81.548,466.596z M91.2,460.945
	c3.114,0,5.648,2.535,5.648,5.651c0,3.116-2.534,5.65-5.648,5.65c-3.117,0-5.652-2.535-5.652-5.65
	C85.548,463.48,88.083,460.945,91.2,460.945z M153.607,474.517c-1.903-1.018-4.184-1.323-6.342-0.937
	c-8.168-19.642-16.336-39.283-24.503-58.924c2.301-1.522,3.866-3.979,4.032-7.053c0.004-0.069-0.005-0.131-0.016-0.191
	c0-0.02,0.006-0.037,0.005-0.057c-0.606-11.256-17.63-10.277-18.212,0.528c-0.258,4.788,4.343,8.712,8.953,8.463
	c0.879-0.047,1.729-0.199,2.536-0.438c8.129,19.545,16.256,39.09,24.384,58.634c-2.548,1.329-4.491,3.827-4.688,7.466
	c-0.257,4.774,4.348,8.852,8.989,8.602c4.888-0.263,8.835-3.628,9.223-8.581c0.02-0.077,0.029-0.157,0.024-0.241
	c0.006-0.106-0.007-0.201-0.029-0.289c-0.216-2.7-1.354-4.717-2.976-6.057c0.483-0.105,0.931-0.297,1.127-0.554
	c9.184-12.054,18.368-24.108,27.553-36.162c1.927,1.944,4.87,2.981,7.577,2.541c1.949-0.317,3.715-1.028,5.132-2.104
	c6.396,9.408,12.794,18.815,19.191,28.223c-0.93,1.263-1.539,2.825-1.64,4.686c-0.607,11.292,17.623,10.409,18.203-0.355
	c0.002-0.041-0.007-0.075-0.012-0.112c0.003-0.033,0.013-0.065,0.011-0.099c-0.13-2.41-1.025-4.247-2.352-5.543
	c6.853-9.898,13.705-19.795,20.558-29.693c5.245,2.501,13.77-0.254,14.161-7.527c0.002-0.034-0.007-0.062-0.01-0.092
	c0.004-0.036,0.014-0.071,0.012-0.107c-0.602-11.158-17.628-10.029-18.199,0.577c-0.141,2.621,0.745,4.573,2.184,5.904
	c-0.141,0.086-0.257,0.186-0.334,0.297c-6.758,9.761-13.516,19.521-20.273,29.282c-3.107-1.595-7.272-1.274-10.244,0.781
	c-6.35-9.337-12.699-18.675-19.049-28.012c-0.066-0.099-0.17-0.165-0.296-0.208c0.848-1.244,1.379-2.745,1.474-4.501
	c-0.604-11.208-17.637-9.703-18.201,0.776c-0.075,1.4,0.292,2.677,0.944,3.785c-0.371,0.111-0.692,0.275-0.851,0.482
	C172.307,449.976,162.957,462.246,153.607,474.517z M117.376,414.392c-3.273-0.176-5.374-3.282-5.85-6.204
	c-0.631-3.869,2.693-7.297,6.463-7.095c3.555,0.191,5.639,3.676,5.88,6.854C123.647,411.587,121.298,414.603,117.376,414.392z
	 M155.059,482.008c-0.196,3.648-2.606,6.653-6.515,6.442c-3.428-0.185-5.682-3.519-5.851-6.663
	c-0.197-3.667,2.927-6.636,6.515-6.443C152.634,475.529,154.89,478.865,155.059,482.008z M256.15,422.224
	c3.36,0.548,5.245,3.902,5.444,7.003c-0.246,3.755-2.738,7.094-6.943,6.409c-3.063-0.499-4.949-3.44-5.408-6.261
	C248.585,425.34,252.093,421.563,256.15,422.224z M223.788,465.216c3.352,0.546,5.229,3.853,5.436,6.952
	c-0.242,3.762-2.772,7.083-6.95,6.402c-3.061-0.499-4.939-3.408-5.399-6.231C216.216,468.303,219.757,464.56,223.788,465.216z
	 M193.164,426.958c2.422,1.255,3.562,3.893,3.7,6.479c-0.243,4.521-4.113,8.083-8.705,5.704c-2.422-1.255-3.561-3.893-3.699-6.48
	C184.209,428.011,188.992,424.797,193.164,426.958z M281.158,463.501c-10.594,0-21.188,0-31.781,0c-1.97,0-1.354-2.051,0.275-2.051
	c10.594,0,21.188,0,31.781,0C283.403,461.451,282.788,463.501,281.158,463.501z M280.715,475.004c-10.594,0-21.188,0-31.781,0
	c-1.953,0,0.163-1.515,1.162-1.515c10.594,0,21.188,0,31.781,0C283.83,473.489,281.714,475.004,280.715,475.004z M282.231,485.413
	c1.437,0-1.248,1.21-1.871,1.21c-10.594,0-21.188,0-31.781,0c-1.437,0,1.248-1.21,1.871-1.21
	C261.044,485.413,271.638,485.413,282.231,485.413z M131.685,365.274c-4.353,0-8.705,0-13.059,0c-1.964,0-1.427-2.166,0.246-2.166
	c4.353,0,8.705,0,13.059,0C133.895,363.108,133.357,365.274,131.685,365.274z M102.839,365.691c-0.828,0-1.5-0.671-1.5-1.5
	s0.672-1.5,1.5-1.5h10.383c0.828,0,1.5,0.671,1.5,1.5s-0.672,1.5-1.5,1.5H102.839z M86.167,364.191c0-0.829,0.672-1.5,1.5-1.5h8.785
	c0.828,0,1.5,0.671,1.5,1.5s-0.672,1.5-1.5,1.5h-8.785C86.839,365.691,86.167,365.02,86.167,364.191z M132.915,372.463
	c-0.595,0.368-1.355,0.549-2.05,0.549c-3.375,0-6.751,0-10.127,0c-0.561,0-0.62-0.333-0.165-0.615
	c0.595-0.368,1.355-0.549,2.05-0.549c3.375,0,6.751,0,10.127,0C133.311,371.848,133.37,372.182,132.915,372.463z M99.825,370.93
	h16.209c0.828,0,1.5,0.671,1.5,1.5s-0.672,1.5-1.5,1.5H99.825c-0.828,0-1.5-0.671-1.5-1.5S98.997,370.93,99.825,370.93z
	 M86.167,372.43c0-0.829,0.672-1.5,1.5-1.5h5.674c0.828,0,1.5,0.671,1.5,1.5s-0.672,1.5-1.5,1.5h-5.674
	C86.839,373.93,86.167,373.259,86.167,372.43z M110.578,381.668c-1.972,0-1.318-1.997,0.291-1.997c7.028,0,14.056,0,21.084,0
	c1.972,0,1.318,1.997-0.291,1.997C124.634,381.668,117.606,381.668,110.578,381.668z M86.167,380.669c0-0.829,0.672-1.5,1.5-1.5
	h14.209c0.828,0,1.5,0.671,1.5,1.5s-0.672,1.5-1.5,1.5H87.667C86.839,382.169,86.167,381.498,86.167,380.669z" fill="#0a1230"></path>
</svg>