<?xml version="1.0" standalone="no"?>
<svg version="1.1" id="Layer_1" xmlns="http://www.w3.org/2000/svg" xmlns:xlink="http://www.w3.org/1999/xlink" x="0px" y="0px" width="595.279px" height="595.281px" viewBox="0 0 595.279 595.281" enable-background="new 0 0 595.279 595.281" xml:space="preserve">
<path id="color_x5F_2" fill="#6c63ff" d="M114.612,184.116c0.563-11.368,1.902-23.402,8.496-32.929
	c6.546-9.458,17.915-12.979,28.681-14.877c4.145-0.73,8.706-1.425,13.343-1.752c5.651-0.078,11.358-0.085,17.296,1.212
	c1.848,0.488,3.639,1.106,5.332,1.912c4.137,1.97,8.748,5.728,11.906,9.106c0.479,0.512,0.891,1.092,1.278,1.696
	c0.86,1.537,1.559,3.064,2.119,4.469c0.47,1.276,0.891,2.566,1.314,3.802c0.252,0.861,0.42,1.537,0.521,1.974
	c-2.236,0.103-4.472,0.241-6.708,0.361c-11.202,0.605-21.935,2.461-32.8,5.324c-2.333,0.613-4.672,1.268-6.992,1.983l-1.381,0.211
	l-1.398,0.699c-1.701,0.576-3.39,1.183-5.042,1.865c-1.416,0.586-5.156,1.735-5.876,3.545c-0.894,0.077-2.222,0.557-2.12,0.973
	c0,0.002,0,0.004,0.001,0.006c-0.625,0.196-1.249,0.4-1.872,0.604c-1.035,0.164-2.26,0.417-3.693,0.808
	c-2.743,0.748-8.596,3.237-13.774,5.546C120.352,181.792,117.476,182.954,114.612,184.116z M114.017,164.609
	c-0.119,0.834-0.224,1.814-0.316,2.889c0.758-3.511,1.804-6.928,3.261-10.151C115.454,159.877,114.333,162.393,114.017,164.609z
	 M128.162,143.476c1.161-0.825,2.369-1.581,3.617-2.269C130.2,141.97,128.952,142.739,128.162,143.476z M213.639,172.101
	c-1.303,0.167-2.491,0.301-3.479,0.416c0.016,0.096,0.032,0.192,0.048,0.288C211.171,172.617,212.35,172.379,213.639,172.101z
	 M228.755,164.642c-0.095-0.338-0.273-0.679-0.554-1.017c0.12,0.175,0.238,0.352,0.34,0.54
	C228.631,164.329,228.693,164.485,228.755,164.642z M192.046,160.426c-1.521,0.096-3.041,0.247-4.559,0.421
	c-7.321,0.84-14.605,2.514-21.682,4.419l3.191-0.487c-8.311,2.145-15.354,4.41-19.458,5.808c-0.627,0.313-1.186,0.668-1.569,1.065
	c0.813-0.102,1.812-0.226,2.978-0.369c5.151-1.351,10.361-2.447,15.644-3.17c14.189-1.938,27.849-1.013,41.539,2.956
	c0.79-0.278,1.749-0.241,1.849,0.348c0.002,0.012,0.004,0.022,0.006,0.035c4.36-0.75,8.882-1.025,13.105-2.29
	c7.054-2.111,0.047-7.265-3.615-8.23c-5.606-1.479-11.656-1.496-17.631-1.17C198.525,159.941,195.229,160.225,192.046,160.426z
	 M408.758,187.365c0.735-0.814,1.474-1.576,2.19-2.278C410.162,185.784,409.43,186.547,408.758,187.365z M442.879,166.989
	c2.608,0.885,5.125,2.036,7.503,3.47C448.478,168.804,445.813,167.706,442.879,166.989z M439.517,262.109
	c1.623-1.622,3.832-4.274,6.309-7.668c-2.057,2.618-4.176,5.188-6.35,7.709C439.489,262.137,439.503,262.124,439.517,262.109z
	 M423.499,276.592c0.043-0.043,0.086-0.087,0.13-0.13c-0.08,0.012-0.157,0.021-0.231,0.024
	C423.431,276.524,423.465,276.556,423.499,276.592z M399.224,175.061c1.963-1.485,4.082-2.84,6.334-4.056
	C403.351,172.086,401.207,173.417,399.224,175.061z M445.759,251.292c-6.288,8.375-13.261,16.247-20.641,23.677
	c-19.354-23.021-58.451-71.994-24.999-98.898c5.077-4.083,10.989-7.104,17.222-8.757c2.04-0.35,3.962-0.563,5.657-0.678l0.016-0.434
	c4.89-0.607,9.88-0.349,14.744,0.938c10.958,2.899,19.914,11.08,24.841,21.118C473.399,210.257,458.783,233.944,445.759,251.292z
	 M452.506,206.588c1.556-11.59-5.575-20.647-15.264-24.859c-0.132-0.072-0.226-0.12-0.226-0.12l-0.09-0.013
	c-3.027-1.276-6.295-2.089-9.621-2.354c-0.006,0-0.013,0-0.02,0c-0.072-0.034-0.173-0.062-0.329-0.073
	c-2.703-0.221-5.306-0.026-7.763,0.505l-1.678-0.064c0,0-0.459,0.308-1.22,0.876c-7.801,2.732-13.62,9.308-15.161,18.373
	c-2.361,13.874,6.949,25.344,20.497,27.329C435.304,228.191,450.521,221.37,452.506,206.588z M443.471,219.659
	c0.798-0.743,1.546-1.565,2.218-2.49c0.148-0.203,0.272-0.421,0.414-0.629c-0.832,1.021-1.703,2.04-2.586,3.069
	C443.502,219.626,443.485,219.641,443.471,219.659z M242.309,290.925c-11.387-10.067-25.423-15.967-39.887-20.232
	c1.18,1.12,2.211,2.597,3.058,3.638c3.707,4.554,7.081,9.394,10.162,14.39c7.481,12.13,14.122,25.391,16.32,39.605
	c0.689-0.017,1.378-0.037,2.068-0.054c-0.496-4.024-0.951-8.055-1.45-12.079c-0.151-1.219,2.758-1.901,2.897-0.775
	c0.516,4.165,0.984,8.335,1.5,12.5c0.013,0.106-0.004,0.208-0.034,0.306c2.274-0.046,4.547-0.084,6.821-0.115
	c0.259-0.314,0.668-0.593,0.981-0.669c0.146-0.036,0.293-0.071,0.444-0.076c0.26-0.006,0.471,0.023,0.642,0.076
	c0.002-0.007,0.005-0.014,0.007-0.02c3.026,0.715,9.657,0.615,13.667,0.86c0.092,0.007,0.184,0.012,0.275,0.017
	c-2.021-6.008-3.462-12.219-5.353-18.27C251.972,302.168,248.646,296.527,242.309,290.925z M192.353,272.36
	c-0.715-1.247-1.588-3.108-2.734-4.399c-0.013,10.036-11.327,12.25-20.067,11.44c-5.072-0.47-10.392-1.484-15.557-3.082
	c-4.642-1.137-8.303-2.37-9.479-3.21c-0.768-0.548-1.658-1.194-2.576-1.866c-1.981-1.105-3.869-2.331-5.642-3.673
	c0.657,2.181,1.033,4.57,1.58,6.652c1.691,6.44,3.349,12.891,4.95,19.354c1.576,6.355,3.15,12.721,4.491,19.132
	c0.274,1.31,1.404,4.477,1.461,6.668c0.035,0.007,0.071,0.01,0.104,0.021c8.575,2.755,17.995,3.725,26.942,4.295
	c5.625,0.358,11.327,0.566,16.944-0.038c0.339-0.035,0.693-0.074,1.045-0.113c4.104-0.939,7.515-2.095,9.677-2.909
	c0.289-0.217,0.581-0.432,0.841-0.685c0.172-0.167,0.433-0.285,0.723-0.36c-0.218-11.97-2.749-23.893-7.096-35.039
	C196.342,280.386,194.579,276.239,192.353,272.36z M121.279,331.645c-0.166,6.742-0.407,13.483-0.645,20.225l2.057-21.808
	c-0.264,0.409-0.534,0.815-0.828,1.214C121.759,331.417,121.543,331.542,121.279,331.645z M57.219,378.265
	c0.248-2.338,0.476-4.698,0.692-7.075c-0.553,4.236-0.895,6.918-0.895,6.918S57.09,378.168,57.219,378.265z M93.926,282.007
	c-11.759,6.484-18.833,15.27-23.03,27.938c-7.274,21.956-8.365,45.367-10.823,68.204c0.342-0.039,0.643-0.007,0.815,0.135
	c14.655,12.146,37.822,10.609,54.225,2.539c0.187-0.637,1.186-1.232,1.978-1.083c0.085-20.191,1.445-40.354,1.491-60.547
	c0.002-0.93,2.899-1.388,2.896-0.775c-0.007,3.104-0.052,6.209-0.112,9.313c3.81-7.78,3.123-16.937,3.222-25.511
	c0.133-11.516,0.893-23.011,0.981-34.527c-4.819,1.61-9.468,3.814-14.012,6.011C105.729,276.52,99.592,278.882,93.926,282.007z
	 M125.927,266.126c0.027-0.021,0.052-0.042,0.082-0.062c0.006-0.292,0.009-0.456,0.009-0.456s-1.546,0.69-4.022,1.822
	C123.298,266.96,124.609,266.524,125.927,266.126z"></path>
<path id="color_x5F_1" d="M171.997,190.193c-0.14,1.313-3.095,1.714-2.936,0.222c0.21-1.965,0.167-8.527-3.411-7.925
	c-1.21,0.204-2.069,1.84-2.455,2.841c-0.865,2.246-0.937,4.713-0.718,7.085c0.129,1.399-2.775,2.104-2.897,0.775
	c-0.423-4.596,0.357-12.203,6.327-12.825C171.325,179.803,172.431,186.137,171.997,190.193z M197.997,190.693
	c-0.143-2.17-0.269-4.584,0.455-6.676c0.102-0.294,0.239-0.573,0.393-0.842c0.005-0.01,0.013-0.018,0.019-0.026
	c0.051,0.028,0.103,0.059,0.146,0.088c1.078,0.771,1.602,2.347,1.963,3.548c0.692,2.305,0.771,4.747,0.59,7.13
	c-0.114,1.505,2.836,1.092,2.936-0.222c0.214-2.82,0.058-5.726-0.863-8.419c-0.574-1.677-1.54-3.459-3.249-4.178
	c-1.693-0.712-3.423,0.339-4.312,1.746c-1.412,2.236-1.176,5.58-1.012,8.072C195.162,192.439,198.082,191.978,197.997,190.693z
	 M160.472,178.394c2.459-1.873,5.427-2.947,8.537-2.607c1.329,0.145,3.001-1.752,1.041-1.966c-4.082-0.443-8.22,0.924-11.463,3.393
	C157.019,178.407,159.404,179.208,160.472,178.394z M197.29,176.777c1.89-0.338,3.686,0.144,4.912,1.659
	c0.813,1.009,3.575-0.128,2.655-1.266c-2.018-2.499-5.093-2.876-8.088-2.341c-0.567,0.102-1.366,0.697-1.188,1.361
	C195.776,176.922,196.724,176.878,197.29,176.777z M193.099,205.388c4.244-2.065,4.061-6.54,1.777-10.149
	c-0.507-0.802-3.325,0.128-2.692,1.128c1.287,2.035,2.686,6.437-0.223,7.852C190.149,205.1,191.82,206.011,193.099,205.388z
	 M167.212,209.713c3.206,1.081,6.548,1.083,9.889,1.013c0.014-0.031,0.028-0.063,0.042-0.094c0.496-1.102,3.047-1.172,2.863,0.041
	c0.046,0,0.092-0.001,0.138-0.002c1.551-0.01,0.359,0.808-0.604,1.134c-1.892,4.121-5.032,10.12-10.002,10.334
	c-5.403,0.233-5.442-8.219-5.477-11.728c-0.011-1.143,2.188-1.617,2.786-0.726C166.993,209.675,167.12,209.681,167.212,209.713z
	 M167.033,211.469c0.12,2.918,0.677,9.368,3.293,8.453c2.917-1.021,4.879-4.984,6.215-7.945
	C173.352,212.048,170.142,212.114,167.033,211.469z M531.997,343.312c0.291,0.304,0.105,0.782-0.118,1.051
	c-12.013,14.474-30.211,17.447-47.688,12.406c-0.099-0.027-0.18-0.062-0.254-0.097c-0.302,0.601-0.617,1.197-0.914,1.8
	c-4.181,8.489-8.565,17.845-11.231,27.473c8.647-13.851,35.285-17.066,46.206-5.633c0.291,0.304,0.105,0.782-0.118,1.051
	c-12.013,14.474-30.211,17.447-47.688,12.406c-0.049-0.014-0.084-0.032-0.125-0.048c-0.707,4.293-0.973,8.607-0.638,12.896
	c21.839-10.084,39.802,21.363,27.94,40.184c-0.11,0.175-0.359,0.326-0.662,0.443c10.757,0,21.514,0,32.27,0
	c1.393,0-1.326,1.12-1.896,1.12c-61.599,0-123.197,0-184.795,0c-0.626,0.185-1.312,0.223-1.585,0c-1.998,0-3.995,0-5.992,0
	c0.059,0.019,0.124,0.028,0.18,0.051c1.674,0.646-0.641,2.195-1.72,1.778c-0.042-0.016-3.174,0.176-4.162,0.234
	c-3.323,0.198-6.646,0.424-9.967,0.657c-9.983,0.703-19.963,1.467-29.939,2.274c-10.096,0.817-20.192,1.658-30.273,2.64
	c-3.625,0.354-7.251,0.707-10.866,1.157c-1.068,0.134-2.139,0.265-3.201,0.439c-0.379,0.063-0.612,0.106-0.751,0.132
	c-0.662,0.479-1.807,0.646-2.234,0.132c-0.846-0.021-1.674-0.145-2.117-0.173c-4.037-0.261-8.07-0.595-12.102-0.923
	c-4.74-0.386-9.479-0.783-14.221-1.15c-1.872-0.145-3.744-0.293-5.618-0.408c-0.499-0.031-2.697,0.047-1.939-0.159
	c-0.547,0.147-0.95,0.07-1.22-0.104c-6.966,1.808-14.309,2.26-21.472,2.236c-4.704-0.016-9.415-0.349-14.117-0.274
	c-4.125,0.065-8.285,1.354-12.35,2.016c-10.613,1.725-21.332,2.9-32.075,3.383c-10.095,0.452-20.47,0.628-30.464-1.126
	c-7.166-1.258-12.854-3.217-17.244-9.265c-14.223-19.59-13.271-45.146-13.257-68.221c0-0.201,0.096-0.382,0.25-0.541
	c-1.715-0.942-3.358-2.022-4.916-3.245c-0.852,0.267-1.897,0.233-1.828-0.396c0.045-0.413,0.088-0.829,0.132-1.244
	c0.248-2.338,0.476-4.698,0.692-7.075c2.084-22.828,3.253-47.174,12.881-67.955c5.345-11.537,14.296-18.78,25.699-24.109
	c8.216-3.84,16.702-8.514,25.503-11.694c1.304-0.472,2.614-0.907,3.932-1.306c0.027-0.021,0.052-0.042,0.082-0.062
	c0.48-0.326,1.266-0.511,1.823-0.491c1.901-0.513,3.819-0.924,5.751-1.231c1.478-9.101,1.626-18.452,1.611-27.652
	c-0.003-1.596-0.018-3.19-0.037-4.787c-0.408,0.077-0.781,0.071-0.986-0.084c-4.432-3.351-8.47-7.227-11.842-11.583
	c-3.487-3.66-6.429-7.685-6.812-11.126c-0.029-0.263-0.059-0.53-0.087-0.803c-0.868-2.168-1.575-4.415-2.099-6.739
	c-0.831-3.684-1.329-7.438-1.328-11.219c0-0.579,0.128-1.412,0.209-2.248c-0.376-0.063-0.644-0.25-0.629-0.607
	c0.267-6.53,0.697-13.421,2.117-19.996c0.758-3.511,1.804-6.928,3.261-10.151c1.507-3.333,3.443-6.464,5.978-9.268
	c1.581-1.748,3.342-3.265,5.224-4.603c1.161-0.825,2.369-1.581,3.617-2.269c5.908-3.257,12.68-5.078,19.244-6.236
	c11.614-2.049,27.135-4.336,38.254,0.958c4.529,2.156,9.814,5.886,13.083,9.739c2.9,3.418,4.002,8.162,5.617,12.247
	c0.101,0.252-0.065,0.502-0.357,0.71c3.16-0.087,6.319-0.05,9.475,0.274c3.608,0.371,8.843,1.423,11.106,4.725
	c0.12,0.175,0.238,0.352,0.34,0.54c0.089,0.162,0.151,0.319,0.213,0.477c1.876,4.726-8.157,6.565-15.116,7.459
	c-1.303,0.167-2.491,0.301-3.479,0.416c0.016,0.096,0.032,0.192,0.048,0.288c1.708,10.22,3.063,20.611,2.732,30.988
	c-0.293,9.206-1.033,19.65-6.918,27.178c-4.91,6.278-12.462,9.176-20.454,10.521c0.443,0.91,0.365,2.35,0.459,3.26
	c0.285,2.761,0.536,5.525,0.802,8.29c0.37,3.848,0.184,8.669,1.495,12.405c0.534-0.059,1.006,0.048,1.124,0.38
	c0.32-0.082,0.604-0.12,0.773-0.08c0.039,0.009,0.078,0.019,0.117,0.027c0.222-0.026,0.419-0.017,0.561,0.053
	c0.078,0.036,0.149,0.095,0.225,0.139c18.903,4.536,39.34,10.478,53.917,23.978c5.866,5.434,9.582,10.66,11.948,18.229
	c2.098,6.708,3.681,13.608,5.99,20.247c0.007,0.021,0.003,0.044,0.002,0.066c8.343,0.507,16.686,1.002,25.031,1.473
	c9.908,0.559,19.817,1.105,29.729,1.562c3.326,0.153,6.652,0.306,9.98,0.4c1.039,0.03,2.079,0.062,3.119,0.062
	c0.398,0,0.63-0.004,0.757-0.004c0.75-0.247,1.661-0.186,1.881,0.442c0.003,0.007,0.005,0.014,0.007,0.021
	c0.043,0.123,0.022,0.269-0.031,0.4c0.563,0.022,1.035,0.266,1.035,0.824c0,11.935,0,23.869,0,35.804
	c0.47-0.181,0.984-0.267,1.477-0.267c2.333,0,4.667,0,7,0c0.575,0,0.624,0.375,0.178,0.664c-0.594,0.386-1.349,0.549-2.049,0.549
	c-2.202,0-4.402,0-6.605,0c0,25.768,0,51.536,0,77.304c0.555-0.247,1.235-0.471,1.489-0.471c1.474,0,2.948,0,4.421,0
	c-3.68-19.13,16.334-34.01,33.405-26.563c2.556-17.564,27.384-30.766,42.351-20.22c4.441-12.28,16.929-20.095,30.031-19.464
	c10.271,0.494,17.682,5.919,20.85,13.975c0.703-4.633,1.914-9.249,3.439-13.781c-0.127-0.072-0.23-0.169-0.303-0.292
	c-18.227-0.336-31.043-28.492-21.525-43.253c0.543-0.843,1.613-1.109,2.502-0.67c14.778,7.31,21.223,21.842,21.867,37.384
	c2.363-5.829,5.102-11.456,7.774-16.724c3.225-6.354,6.687-12.607,10.358-18.736c-13.39-0.265-23.846-15.542-24.67-29.478
	c0.047,0.717-0.537,1.168-1.19,1.343c-0.442,0.119-1.656,0.141-1.706-0.573c-0.031-0.436-0.375-0.698-0.797-0.942
	c-0.477-0.275-0.864-0.406-1.264-0.42c-0.604-0.021-1.179-0.561-0.871-1.176c0.34-0.686,1.191-0.899,1.89-0.876
	c0.856,0.029,1.766,0.381,2.487,0.83c0.625,0.392,1.392,1.002,1.451,1.802c-0.293-5.018,0.651-9.859,3.17-13.765
	c0.543-0.843,1.611-1.108,2.502-0.67c15.16,7.479,22.025,22.311,22.396,38.389c1.505-2.393,3.049-4.76,4.623-7.107
	c-5.633-18.755,21.613-38.082,38.454-31.947c0.331,0.12,0.725,0.443,0.627,0.853c-4.278,17.958-17.913,26.257-35.254,29.239
	c-0.005,0.001-0.009,0-0.015,0.001c-0.295,0.431-0.58,0.867-0.871,1.298c0.066,0.454-0.256,0.834-0.719,1.07
	c-2.377,3.553-4.676,7.16-6.893,10.818c-0.001,0.034-0.002,0.066-0.003,0.101c-0.017,0.345-0.242,0.626-0.56,0.829
	c-0.91,1.517-1.807,3.042-2.688,4.575C502.637,334.445,522.839,333.723,531.997,343.312z M501.491,322.828
	c2.335-3.377,4.734-6.708,7.21-9.976c0.475-0.626,3.331-0.988,2.655-0.098c-2.313,3.05-4.557,6.163-6.754,9.312
	c8.086-1.508,16.614-4.22,22.367-10.359c2.713-2.896,4.949-6.205,6.381-9.923c0.78-2.026,3.287-5.77,0.217-6.256
	c-1.517-0.239-3.041-0.38-4.578-0.226C516.364,296.574,499.61,308.737,501.491,322.828z M470.121,378.767
	c0.366-15.937-5.192-31.275-19.569-39.27C443.878,352.928,454.278,377.921,470.121,378.767z M330.581,333.192
	c-0.143-0.404,0.133-0.768,0.563-1.017C330.771,332.342,330.387,332.642,330.581,333.192z M202.422,270.692
	c1.18,1.12,2.211,2.597,3.058,3.638c3.707,4.554,7.081,9.394,10.162,14.39c7.481,12.13,14.122,25.391,16.32,39.605
	c0.689-0.017,1.378-0.037,2.068-0.054c-0.496-4.024-0.951-8.055-1.45-12.079c-0.151-1.219,2.758-1.901,2.897-0.775
	c0.516,4.165,0.984,8.335,1.5,12.5c0.013,0.106-0.004,0.208-0.034,0.306c2.274-0.046,4.547-0.084,6.821-0.115
	c0.259-0.314,0.668-0.593,0.981-0.669c0.146-0.036,0.293-0.071,0.444-0.076c0.26-0.006,0.471,0.023,0.642,0.076
	c0.002-0.007,0.005-0.014,0.007-0.02c3.026,0.715,9.657,0.615,13.667,0.86c0.092,0.007,0.184,0.012,0.275,0.017
	c-2.021-6.008-3.462-12.219-5.353-18.27c-2.457-7.856-5.783-13.499-12.119-19.101C230.922,280.857,216.887,274.958,202.422,270.692z
	 M169.553,279.401c-5.072-0.47-10.392-1.484-15.557-3.082c-4.193-1.296-8.284-2.973-12.055-5.077
	c-1.981-1.104-3.869-2.331-5.642-3.672c0.657,2.181,1.033,4.57,1.58,6.652c1.691,6.439,3.349,12.891,4.95,19.354
	c1.576,6.356,3.15,12.722,4.491,19.133c0.274,1.31,1.404,4.477,1.461,6.668c0.035,0.007,0.071,0.01,0.104,0.021
	c8.575,2.755,17.995,3.724,26.942,4.295c5.625,0.358,11.327,0.566,16.944-0.038c0.339-0.036,0.693-0.074,1.045-0.113
	c3.276-0.36,7.02-0.912,9.677-2.909c0.289-0.218,0.581-0.432,0.841-0.685c0.172-0.167,0.433-0.286,0.723-0.36
	c-0.218-11.971-2.749-23.893-7.096-35.039c-1.622-4.16-3.384-8.309-5.61-12.188c-0.715-1.247-1.588-3.108-2.734-4.399
	C189.606,277.996,178.292,280.21,169.553,279.401z M201.844,159.761c-3.319,0.18-6.615,0.465-9.798,0.665
	c-1.521,0.096-3.041,0.247-4.559,0.421c-7.321,0.84-14.605,2.514-21.682,4.419c-0.058,0.016-0.116,0.03-0.174,0.046
	c-4.073,1.101-8.152,2.254-12.099,3.756c-0.789,0.301-2.563,0.803-3.994,1.519c-0.627,0.313-1.186,0.668-1.569,1.065
	c-0.17,0.178-0.31,0.36-0.4,0.555c1.123-0.319,2.249-0.627,3.377-0.924c5.151-1.351,10.361-2.447,15.644-3.17
	c14.189-1.938,27.849-1.013,41.539,2.956c0.79-0.278,1.749-0.241,1.849,0.348c0.002,0.012,0.004,0.022,0.006,0.035
	c4.36-0.75,8.882-1.025,13.105-2.29c7.054-2.111,0.047-7.265-3.615-8.23C213.869,159.453,207.819,159.435,201.844,159.761z
	 M137.017,175.109c1.434-0.391,2.658-0.644,3.693-0.808c0.624-0.203,1.247-0.407,1.872-0.604c-0.001-0.002-0.001-0.003-0.001-0.005
	c-0.102-0.417,1.226-0.896,2.12-0.973c0.72-1.811,4.461-2.959,5.876-3.545c1.652-0.685,3.341-1.289,5.042-1.865
	c0.923-0.313,1.848-0.622,2.78-0.91c2.32-0.717,4.659-1.37,6.992-1.983c10.865-2.863,21.598-4.719,32.8-5.324
	c2.235-0.121,4.471-0.259,6.708-0.361c0.066-0.003,0.133-0.007,0.2-0.01c-0.004-0.01-0.013-0.017-0.017-0.027
	c-0.244-0.616-0.475-1.271-0.704-1.938c-0.424-1.235-0.845-2.525-1.314-3.802c-0.581-1.581-1.254-3.116-2.119-4.469
	c-0.387-0.604-0.8-1.185-1.278-1.696c-3.158-3.381-7.769-7.138-11.906-9.106c-1.692-0.806-3.483-1.423-5.332-1.912
	c-5.438-1.437-11.426-1.626-17.296-1.212c-4.638,0.328-9.198,1.021-13.343,1.752c-10.766,1.899-22.135,5.419-28.681,14.877
	c-6.593,9.526-7.933,21.562-8.496,32.929c2.864-1.163,5.74-2.323,8.631-3.461C128.421,178.346,134.274,175.857,137.017,175.109z
	 M140.522,200.435c0.098,0.061,0.196,0.12,0.292,0.183c0.019-0.042,0.038-0.084,0.056-0.126
	C140.762,200.473,140.653,200.456,140.522,200.435z M135.108,229.394c-0.001-0.08-0.004-0.159-0.006-0.238l-0.01,0.227
	C135.097,229.386,135.103,229.389,135.108,229.394z M137.296,218.667c1.522-0.363,3.028-1.117,4.316-1.861
	c1.015-0.586,3.533,0.016,1.834,0.996c-1.643,0.948-3.606,1.916-5.632,2.468c0.147,1.229,0.024,2.646,0.066,3.702
	c0.167,4.146,0.242,8.296,0.235,12.446c-0.016,9.24-0.131,18.61-1.625,27.75c-0.021,0.126-0.078,0.242-0.153,0.35
	c-0.001,0.005-0.005,0.011-0.007,0.018c0.218,0.021,0.41,0.082,0.543,0.196c7.876,6.787,19.028,10.721,29.158,12.393
	c8.332,1.375,21.692,1.792,20.616-9.766c-0.473-0.034-0.896-0.234-1.067-0.667c-1.499-3.792-1.267-8.87-1.649-12.875
	c-0.242-2.537-0.471-5.076-0.732-7.61c-0.065-0.63-0.069-2.071-0.212-2.981c-0.283-0.152-0.462-0.417-0.428-0.814
	c0.016-0.182,0.041-0.341,0.087-0.494c-5.734,0.706-11.555,0.74-16.672,0.748c-1.96,0.003-0.024-1.717,1.107-1.719
	c13.069-0.021,32.169-0.141,38.785-13.972c4.196-8.771,4.529-19.897,4.121-29.434c-0.353-8.232-1.406-16.377-2.768-24.496
	c-13.435-4.015-27.035-5.209-40.967-3.104c-6.932,1.048-13.715,2.674-20.396,4.661c1.944,9.282,1.335,18.997-3.164,27.472
	c0.23,0.209,0.457,0.422,0.676,0.643c0.848,0.854-1.903,1.958-2.68,1.176c-0.213-0.214-0.446-0.439-0.694-0.668
	c-0.271-0.015-0.439-0.064-0.392-0.151c0.024-0.044,0.045-0.09,0.069-0.136c-1.89-1.652-4.533-3.218-6.604-1.23
	c-2.032,1.948-2.991,4.915-3.227,7.665c-0.234,2.733,0.102,6.125,2.205,8.137c0.851,0.813,1.809,1.215,2.809,1.338
	C135.463,218.333,136.742,218.125,137.296,218.667z M122.691,330.062c-0.264,0.409-0.534,0.815-0.828,1.214
	c-0.104,0.142-0.32,0.268-0.584,0.37c-0.166,6.742-0.407,13.483-0.645,20.225c-0.329,9.346-0.635,18.692-0.656,28.046
	c-0.001,0.51-0.874,0.877-1.661,1.004c1.177,2.605,0.161,8.567,0.094,10.294c-0.331,8.556-0.838,17.107-0.9,25.672
	c5.701,1.348,10.475,4.744,15.601,7.48c3.385,1.809,7.115,3.313,10.97,4.519c0.021-32.049,0.958-64.088,0.994-96.137
	c-0.044-0.121-0.037-0.247,0.002-0.369c0-0.229,0.002-0.458,0.002-0.688c0-1.05,2.898-1.565,2.897-0.775c0,0.03,0,0.062,0,0.093
	c1.008-0.177,2.112-0.132,3.051-0.177c3.486-0.166,6.975-0.286,10.463-0.404c11.373-0.386,22.748-0.711,34.123-1.029
	c11.105-0.31,22.218-0.702,33.33-0.993c-2.225-13.472-8.394-26.253-15.509-37.788c-3.005-4.873-6.183-9.67-9.756-14.147
	c-1.401-1.757-3.565-5.427-5.89-6.157c-0.398-0.125,0.094-0.459,0.745-0.725c-1.751-0.482-3.505-0.938-5.26-1.385
	c0.587,0.887,1.086,1.832,1.51,2.569c2.146,3.738,3.993,7.657,5.559,11.673c4.61,11.824,7.486,24.245,7.634,36.97
	c0.003,0.29-0.417,0.528-0.937,0.691c-0.006,0.156-0.099,0.34-0.318,0.554c-6.459,6.281-18.896,5.537-27.125,5.214
	c-10.455-0.408-21.551-1.331-31.631-4.435c-0.913,0.417-2.593,0.459-2.372,0.102c1.187-1.915-1.217-8.307-1.649-10.262
	c-1.394-6.303-2.923-12.576-4.491-18.838c-1.518-6.061-3.068-12.113-4.662-18.155c-0.667-2.528-1.062-5.542-2.134-7.962
	c-0.039-0.038-0.069-0.08-0.079-0.133c-0.009-0.026-0.013-0.053-0.011-0.081c0.003-0.089,0.042-0.177,0.103-0.262
	c-1.417,0.253-2.819,0.574-4.206,0.957c-0.092,12.688-1.032,25.354-0.985,38.046C127.513,313.545,127.528,322.588,122.691,330.062z
	 M148.881,331.26c0.066,0.104,0.084,0.207,0.07,0.308c0.004,0,0.008,0,0.012,0.001C148.972,331.474,148.954,331.374,148.881,331.26z
	 M115.112,380.822c0.187-0.637,1.186-1.232,1.978-1.083c0.085-20.191,1.445-40.354,1.491-60.547c0.002-0.93,2.899-1.388,2.897-0.775
	c-0.007,3.104-0.052,6.209-0.112,9.313c3.81-7.78,3.123-16.937,3.222-25.511c0.133-11.515,0.893-23.011,0.981-34.527
	c-4.819,1.61-9.468,3.814-14.012,6.012c-5.829,2.817-11.966,5.18-17.632,8.305c-11.759,6.485-18.833,15.27-23.03,27.938
	c-7.274,21.956-8.365,45.367-10.823,68.204c0.342-0.039,0.643-0.007,0.815,0.136C75.542,390.428,98.709,388.892,115.112,380.822z
	 M219.373,445.42c1.556-1.306,4.748-3.343,6.153-5.381c-5.083-1.456-11.227,3.905-16.402,4.209
	c-7.119,0.417-14.095-1.721-21.235-1.428c-1.719,0.07-1.456-1.463-0.302-1.912c0.01-0.081,0.028-0.166,0.061-0.259
	c0.916-2.599,3.02-4.63,4.849-6.61c1.366-1.48,5.238-4.854,2.913-6.912c-0.395-0.35-0.406-0.726-0.21-1.05
	c-0.056,0.021-0.104,0.042-0.167,0.063c-8.886,3.127-18.69,4.847-27.934,6.511c-7.066,1.273-13.374-0.204-20.299-1.604
	c-7.631-1.545-13.948-4.223-20.667-8.104c-3.339-1.93-6.422-3.416-9.495-4.231c-0.742,0.302-1.729,0.219-2-0.426
	c-4.288-0.714-8.658-0.031-13.772,2.719c-0.685,0.369-3.367,0.512-1.674-0.398c4.646-2.499,10.015-4.575,15.391-4.179
	c0.072-7.045,0.432-14.082,0.733-21.12c0.063-1.496,0.934-12.236,0.45-13.416c-14.624,6.918-34.211,9.444-49.292,2.599
	c-0.066,21.168-1.051,45.679,11.359,63.887c4.811,7.058,9.618,9.901,18.026,11.247c8.91,1.425,18.032,1.528,27.032,1.177
	c10.552-0.412,21.102-1.402,31.535-3.042c6.884-1.082,13.238-2.601,20.216-2.391c10.334,0.312,21.232,0.797,31.235-2.284
	C211.07,451.482,215.233,448.893,219.373,445.42z M240.719,455.793c0.49,0.029,0.982,0.057,1.473,0.079
	c-0.077-0.115-0.122-0.256-0.122-0.426c0-39.358,0-78.718,0-118.077c-0.76-0.026-1.518-0.104-2.176-0.118
	c-3.625-0.084-7.25-0.203-10.874-0.326c-7.015-0.237-14.029-0.5-21.043-0.771c0,7.009,0,14.018,0,21.025
	c0.587,0.251,0.746,0.789-0.371,1.241c-0.008,0.003-0.018,0.006-0.026,0.009c-0.503,0.307-1.37,0.482-1.941,0.474
	c-3.15,0.395-7.141-0.519-9.889-0.722c-3.829-0.283-7.829-0.329-11.649-0.915c-0.748,0.165-1.521,0.162-1.521-0.075
	c0-0.109,0-0.218,0-0.328c-0.069-0.097-0.059-0.209,0-0.328c0-6.781,0-13.563,0-20.344c0-0.605,1.574-0.989,2.401-0.964
	c-8.498-0.354-16.996-0.718-25.491-1.131c-3.477-0.169-6.954-0.333-10.427-0.556c-0.267-0.017-0.661-0.01-1.096-0.011
	c-0.064,31.631-0.974,63.253-0.99,94.885c0,0.455-0.544,0.81-1.161,1c4.74,1.353,9.63,2.23,14.313,2.558
	c5.61,0.391,10.762-1.398,16.204-2.408c5.976-1.109,11.936-2.074,17.691-4.1c0.676-0.238,1.622-0.189,1.82,0.04
	c0.588-0.318,1.368-0.412,1.804-0.026c5.087,4.505-5.476,11.172-7.165,15.299c8.299,0.205,16.614,2.938,24.596-0.21
	c3.768-1.485,8.165-3.755,12.25-2.4c0.876-0.228,1.845-0.137,1.646,0.451c-0.855,2.521-4.45,4.881-6.364,6.486
	c-2.93,2.458-6.032,5.129-9.515,6.782c-1.13,0.536-2.279,1.019-3.443,1.456c0.326,0.037,0.646,0.071,0.947,0.093
	c4.042,0.292,8.082,0.624,12.121,0.954c4.377,0.357,8.754,0.723,13.133,1.056C237.477,455.568,239.097,455.694,240.719,455.793z
	 M185.478,335.416c0,6.728,0,13.456,0,20.184c3.428,0.552,7.05,0.58,10.495,0.834c2.497,0.186,4.994,0.37,7.495,0.497
	c0.537,0.027,1.075,0.046,1.613,0.068c0-6.986,0-13.973,0-20.958c-3.67-0.145-7.34-0.285-11.009-0.435
	c-3.006-0.122-6.012-0.25-9.019-0.375C185.308,335.247,185.478,335.305,185.478,335.416z M242.383,456.06
	c-0.004-0.003-0.01-0.005-0.014-0.009c-0.287,0.115-0.583,0.311-0.708,0.647C241.763,456.422,242.041,456.206,242.383,456.06z
	 M244.205,335.234c25.547-0.588,51.097-1.065,76.644-1.624c-0.212-0.019-0.408-0.031-0.588-0.04
	c-10.135-0.438-20.266-0.99-30.395-1.558c-10.475-0.586-20.948-1.197-31.42-1.84c-4.043-0.248-8.613,0.006-12.719-0.662
	c-0.1,0.021-0.196,0.037-0.281,0.038c-16,0.163-32.01,0.813-48.003,1.257c-11.131,0.309-22.263,0.624-33.393,0.988
	c-2.227,0.072-4.455,0.159-6.682,0.238c2.035,0.104,4.068,0.214,6.103,0.31c10.878,0.511,21.76,0.97,32.642,1.41
	c10.832,0.437,21.664,0.859,32.498,1.229c3.683,0.125,7.366,0.251,11.05,0.344c1.108,0.028,2.217,0.059,3.325,0.069
	c0.167,0.002,0.331-0.011,0.478-0.026c0.049-0.008,0.098-0.014,0.147-0.02C243.791,335.282,243.989,335.239,244.205,335.234z
	 M277.478,336.404c0,6.463,0,12.925,0,19.387c3.043-0.438,6.194-0.536,9.234-0.83c2.711-0.263,7.459-0.104,10.368-0.809
	c0-5.986,0-11.974,0-17.961c0-0.072,0.027-0.141,0.066-0.207C290.591,336.121,284.034,336.269,277.478,336.404z M244.446,456.714
	c0,0.002-0.001,0.005-0.001,0.007c0.078,0.214,0.048,0.418-0.059,0.604C244.496,457.169,244.547,456.967,244.446,456.714z
	 M331.571,335.252c-10.53,0.241-21.063,0.456-31.592,0.672c0,5.894,0,11.786,0,17.679c0.547,0.241,0.681,0.793-0.371,1.317
	c-0.01,0.005-0.022,0.008-0.032,0.013c-0.218,0.131-0.5,0.239-0.8,0.318c-3.124,1.146-7.568,0.88-10.658,1.182
	c-3.633,0.354-7.412,0.443-11.043,0.984c-0.795,0.464-2.493,0.625-2.493,0.273c0-0.099,0-0.199,0-0.298
	c-0.078-0.094-0.068-0.21,0-0.334c0-6.789,0-13.578,0-20.367c0-0.081,0.035-0.155,0.084-0.228
	c-9.892,0.204-19.785,0.405-29.677,0.632c0,39.354,0,78.71,0,118.064c0,0.285-0.183,0.532-0.457,0.722
	c3.331-0.797,8.385-1.138,8.901-1.19c10.666-1.119,21.355-2.019,32.043-2.895c11.291-0.926,22.585-1.807,33.886-2.597
	c3.765-0.264,7.531-0.529,11.3-0.733c0.271-0.016,0.581-0.049,0.907-0.088C331.571,410.67,331.571,372.961,331.571,335.252z
	 M467.912,409.174c-0.511,0.331-1.622,0.38-2.089,0.141c-0.157-0.021-0.25-0.062-0.242-0.123
	c1.627-12.401-4.23-24.384-17.416-26.622c-13.559-2.302-25.873,5.954-29.708,18.974c-0.045,0.151-0.21,0.286-0.435,0.399
	c0.116,0.105,0.239,0.195,0.354,0.305c0.739,0.693-1.979,1.785-2.696,1.112c-13.906-13.059-38.144,1.395-39.167,18.713
	c0.124,0.073,0.25,0.135,0.373,0.21c0.229,0.143-0.084,0.434-0.579,0.688c-0.615,0.689-2.756,1.015-2.725,0.026
	c0-0.001,0-0.004,0-0.005c-16.639-9.626-34.088,6.644-30.141,24.251c50.396,0,100.793,0,151.188,0
	c-0.065-0.105-0.062-0.248,0.058-0.436C504.954,430.52,489.467,395.219,467.912,409.174z M472.286,391.952
	c9.66,2.719,20.594,3.444,29.9-0.958c1.42-0.673,14.457-8.508,12.17-10.395c-2.252-1.858-4.863-3.169-7.703-3.874
	C494.635,373.746,474.987,377.668,472.286,391.952z M491.586,336.798c0.472-16.147-5.58-31.284-20.045-39.277
	C464.826,311.09,475.491,336.426,491.586,336.798z M528.358,343.599c-2.252-1.858-4.864-3.169-7.705-3.874
	c-12.019-2.98-31.666,0.942-34.367,15.226c9.661,2.72,20.594,3.445,29.9-0.958C517.606,353.321,530.644,345.486,528.358,343.599z
	 M349.631,368.125c-0.896,0-3.146,1.357-1.203,1.357c4,0,8,0,12,0c0.896,0,3.146-1.357,1.203-1.357
	C357.631,368.125,353.631,368.125,349.631,368.125z M374.981,368.257c-0.687,0-1.455,0.207-2.049,0.549
	c-0.471,0.271-0.396,0.545,0.146,0.545c3.333,0,6.667,0,10,0c0.686,0,1.455-0.207,2.049-0.549c0.47-0.271,0.396-0.545-0.146-0.545
	C381.647,368.257,378.313,368.257,374.981,368.257z M395.459,369.599c1.667,0,3.333,0,5,0c0.649,0,1.514-0.222,1.916-0.78
	c0.401-0.558-0.337-0.812-0.774-0.812c-1.666,0-3.332,0-5,0c-0.648,0-1.514,0.222-1.916,0.78
	C394.284,369.345,395.022,369.599,395.459,369.599z M413.502,370.759c2,0,4,0,6,0c0.687,0,1.533-0.188,1.897-0.847
	c0.328-0.593-0.278-1.063-0.842-1.063c-2,0-4,0-6,0c-0.686,0-1.533,0.188-1.897,0.847
	C412.331,370.288,412.938,370.759,413.502,370.759z M436.558,367.848c-0.687,0-1.533,0.188-1.898,0.847
	c-0.328,0.593,0.279,1.063,0.842,1.063c2,0,4,0,6,0c0.686,0,1.533-0.188,1.898-0.847c0.328-0.593-0.279-1.063-0.842-1.063
	C440.558,367.848,438.558,367.848,436.558,367.848z M360.428,304.483c4,0,8,0,12,0c0.896,0,3.146-1.357,1.203-1.357c-4,0-8,0-12,0
	C360.735,303.125,358.485,304.483,360.428,304.483z M397.127,303.802c0.47-0.271,0.396-0.545-0.146-0.545c-3.334,0-6.668,0-10,0
	c-0.687,0-1.455,0.207-2.049,0.549c-0.471,0.271-0.396,0.545,0.146,0.545c3.333,0,6.667,0,10,0
	C395.765,304.35,396.533,304.143,397.127,303.802z M413.601,303.008c-1.668,0-3.334,0-5,0c-0.649,0-1.515,0.222-1.916,0.78
	c-0.401,0.558,0.336,0.812,0.773,0.812c1.667,0,3.333,0,5,0c0.648,0,1.514-0.222,1.916-0.78
	C414.774,303.261,414.037,303.008,413.601,303.008z M426.558,303.848c-0.687,0-1.533,0.188-1.898,0.847
	c-0.328,0.593,0.279,1.063,0.842,1.063c2,0,4,0,6,0c0.686,0,1.533-0.188,1.898-0.847c0.328-0.593-0.279-1.063-0.842-1.063
	C430.558,303.848,428.558,303.848,426.558,303.848z M448.558,302.848c-0.687,0-1.533,0.188-1.898,0.847
	c-0.328,0.593,0.279,1.063,0.842,1.063c2,0,4,0,6,0c0.686,0,1.533-0.188,1.898-0.847c0.328-0.593-0.279-1.063-0.842-1.063
	C452.558,302.848,450.558,302.848,448.558,302.848z M472.461,362.605c-0.444,0.007-1.172-0.266-0.776-0.821
	c0.203-0.286,0.521-0.479,0.871-0.603c0.01-0.063,0.024-0.124,0.027-0.19c0.027-0.603,1.221-0.911,1.65-0.968
	c0.465-0.06,1.273-0.044,1.244,0.593C475.412,362.013,473.632,362.587,472.461,362.605z M473.192,361.039
	c0.139-0.019,0.277-0.034,0.406-0.036c-0.097,0.001-0.463,0.048-0.233,0.01C473.301,361.022,473.244,361.03,473.192,361.039z
	 M342.581,295.192c0.984,2.72,3.516,5.047,6.496,5.155c0.672,0.024,1.469-0.219,2.049-0.549c0.486-0.278,0.38-0.518-0.145-0.537
	c-2.533-0.092-4.711-2.66-5.504-4.845C345.261,293.813,342.407,294.712,342.581,295.192z M340.478,285.416
	c-0.858-1.848-0.984-3.734-0.986-5.744c-0.001-1.436-2.926-0.927-2.924,0.265c0.002,2.165,0.084,4.26,1.013,6.256
	C338.136,287.385,340.993,286.521,340.478,285.416z M340.493,268.677c0.113-2.956,1.73-5.422,3.738-7.489
	c1.254-1.293-1.557-1.64-2.402-0.768c-2.243,2.311-4.135,5.206-4.262,8.511C337.511,270.379,340.446,269.904,340.493,268.677z
	 M351.858,255.44c0.638,0.233,1.471-0.019,2.041-0.316c1.787-0.937,3.433-2.539,5.537-2.608c0.642-0.021,1.492-0.229,1.926-0.745
	c0.436-0.521-0.371-0.688-0.738-0.677c-3.354,0.11-5.625,1.906-8.462,3.392C351.833,254.656,351.224,255.208,351.858,255.44z
	 M373.483,248.688c1.332,0,2.666,0,4,0c0.668,0,1.524-0.202,1.906-0.816c0.358-0.58-0.303-0.952-0.813-0.952c-1.333,0-2.667,0-4,0
	c-0.669,0-1.525,0.202-1.906,0.816C372.312,248.316,372.972,248.688,373.483,248.688z M393.504,248.766
	c0.688,0,1.534-0.188,1.897-0.85c0.324-0.595-0.277-1.076-0.846-1.076c-2,0-4,0-6,0c-0.688,0-1.533,0.188-1.896,0.85
	c-0.325,0.594,0.277,1.076,0.845,1.076C389.504,248.766,391.504,248.766,393.504,248.766z M384.579,206.264
	c-0.855-13.377,5.005-23.901,14.645-31.203c1.963-1.485,4.082-2.84,6.334-4.056c1.67-0.902,3.409-1.733,5.215-2.483
	c10.406-4.322,21.963-4.971,32.105-1.533c2.609,0.885,5.125,2.036,7.503,3.47c4.613,2.779,8.71,6.604,11.968,11.53
	c13.204,19.966,4.516,42.146-7.601,60.215c-2.813,4.194-5.804,8.268-8.924,12.237c-2.058,2.618-4.177,5.188-6.351,7.709
	c-4.343,5.041-8.894,9.903-13.625,14.575c-0.523,0.518-3.316,0.825-2.64,0.156c0.097-0.096,0.192-0.194,0.289-0.29
	c0.043-0.043,0.086-0.087,0.13-0.13c-0.08,0.012-0.156,0.021-0.232,0.024c-0.328,0.023-0.601-0.022-0.728-0.174
	c-8.896-10.569-17.438-21.582-24.487-33.488C391.644,231.781,385.413,219.301,384.579,206.264z M425.117,274.969
	c7.38-7.43,14.354-15.302,20.641-23.677c13.024-17.349,27.642-41.035,16.841-63.034c-4.929-10.038-13.884-18.218-24.842-21.118
	c-4.863-1.287-9.854-1.547-14.744-0.939c-1.912,0.238-3.806,0.617-5.673,1.112c-6.233,1.652-12.146,4.674-17.222,8.757
	C366.666,202.974,405.765,251.947,425.117,274.969z M421.634,226.187c-13.548-1.985-22.859-13.455-20.498-27.329
	c1.542-9.064,7.361-15.641,15.162-18.373c0.938-0.329,1.905-0.598,2.896-0.812c2.457-0.531,5.06-0.728,7.763-0.505
	c0.155,0.013,0.257,0.04,0.329,0.072c0.007,0,0.013,0,0.02,0c3.326,0.267,6.594,1.078,9.621,2.354
	c0.105,0.044,0.21,0.087,0.315,0.133c9.688,4.212,16.819,13.27,15.264,24.859C450.521,221.37,435.304,228.191,421.634,226.187z
	 M424.528,225.033c6.75,0.533,13.961-0.731,18.943-5.375c0.799-0.743,1.545-1.565,2.219-2.49c0.147-0.203,0.271-0.421,0.412-0.629
	c2.928-4.341,4.243-9.72,3.48-14.927c-1.964-13.397-13.503-20.972-26.48-21.174c-0.176-0.002-0.289-0.023-0.357-0.058
	c-4.621,0.156-8.648,1.914-11.795,4.705c-0.787,0.697-1.52,1.461-2.191,2.278c-3.391,4.129-5.266,9.674-5.043,15.498
	C404.166,214.676,412.504,224.083,424.528,225.033z" fill="#0a1230"></path>
</svg>