<?xml version="1.0" standalone="no"?>
<svg version="1.1" id="Layer_1" xmlns="http://www.w3.org/2000/svg" xmlns:xlink="http://www.w3.org/1999/xlink" x="0px" y="0px" width="595.28px" height="595.28px" viewBox="0 0 595.28 595.28" enable-background="new 0 0 595.28 595.28" xml:space="preserve">
<path id="color_x5F_2" fill="#6c63ff" d="M528.941,444.106c-0.23,0.213-0.48,0.392-0.723,0.585c-3.038,1.391-5.042,2.398-6.57,3.137
	c-1.654,0.453-3.354,0.773-5.017,1.071c-4.353,0.78-8.771,1.242-13.187,1.605c-6.389,0.337-15.773,0.862-25.072,1.39
	c-9.516,0.306-19.041,0.411-28.553,0.465c-14.597,0.084-29.194-0.057-43.789-0.252c-4.479-0.061-8.957-0.134-13.436-0.168
	c-0.852-0.007-2.035-0.15-3.14-0.086c-2.962-12.367-4.569-26.078-2.58-38.725l0.298-0.022c14.957,0.167,29.89,0.311,44.819-0.723
	c0.226,0.486,1.608,0.334,2.368-0.161c16.131-1.171,32.365-2.23,48.533-2.576c0.279-0.006,2.349-0.428,2.063-1.023
	c-4.379-9.116-6.57-19.75-9.078-29.477c-4.686-18.173-8.303-36.682-10.235-55.357c-0.067-0.646-2.985-0.07-2.898,0.776
	c1.884,18.194,5.42,36.172,9.866,53.903c2.473,9.861,4.733,20.644,9.023,29.975c-15.387,0.403-30.814,1.456-46.159,2.519
	c-0.214,0.015-0.427,0.024-0.64,0.039c-1.392-27.669-0.163-55.193-0.38-82.852c-0.095-12.116-0.095-24.284,1.394-36.327
	c0.971-7.851,2.582-19.732,10.004-24.408c17.979,3.476,38.452,5.466,49.031,20.792c11.772,17.057,16.339,38.954,22.975,58.344
	c3.35,9.788,6.712,19.576,9.684,29.479c0.427,1.455,0.839,2.866,1.238,4.231c1.6,5.584,3.068,11.207,4.3,16.897
	C536.016,410.719,540.735,433.213,528.941,444.106z M398.269,278.305c-0.002,0.002-0.004,0.005-0.006,0.007
	c0.015-0.006,0.028-0.01,0.043-0.016C398.294,278.299,398.28,278.302,398.269,278.305z M391.195,289.039
	c-0.569,4.788,1.863,9.529,7.009,10.233c3.111,0.426,5.509-0.727,7.155-2.682c-0.023-0.11-0.043-0.221-0.066-0.332
	c-0.064-0.31,0.355-0.606,0.893-0.809c1.018-1.652,1.617-3.668,1.77-5.747c0.011-0.144,0.078-0.276,0.18-0.398
	c-1.281-1.75-2.785-3.361-4.244-4.853c-1.748-1.788-3.798-4.354-6.118-5.44c0.165-0.021,0.331-0.043,0.496-0.064
	c-0.177-0.01-0.33-0.031-0.439-0.065c-2.414,3.121-4.614,6.395-6.961,9.563C391.094,288.558,391.23,288.749,391.195,289.039z
	 M398.79,278.117c-0.013,0.007-0.022,0.014-0.036,0.021c0.016-0.004,0.03-0.006,0.047-0.01L398.79,278.117z M391.191,411.482
	c0.008,0.133-0.026,0.258-0.085,0.375c4.229,0.042,8.456,0.067,12.679,0.063c0.461-0.683,2.196-3.599,2.699-4.439
	c1.324-2.214,2.613-4.449,3.877-6.698c1.86-3.315,3.695-6.645,5.491-9.996c0.415-0.774-0.176-3.654-0.259-4.775
	c-0.307-4.169-0.63-8.338-0.971-12.504c-1.092-13.309-2.144-26.727-3.63-40.083l-3.35-24.515c-0.56-3.353-1.163-6.696-1.825-10.024
	c-1.975,1.453-4.428,2.299-7.215,2.238c-2.293-0.05-4.307-0.668-5.945-1.714c0.377,12.717-1,25.469-2.65,38.058
	c-1.66,12.668-3.026,25.55-5.456,38.096c-0.982,5.072-2.105,10.117-3.314,15.14c-0.715,2.967-1.306,3.018,0.046,5.092
	c2.115,3.247,4.228,6.496,6.311,9.764C388.493,406.969,391.088,409.729,391.191,411.482z M389.626,296.592
	c-0.005-0.084,0.009-0.165,0.032-0.243c-0.033-0.055-0.058-0.117-0.09-0.172l0.266,8.24
	C389.838,301.808,389.775,299.199,389.626,296.592z M381.79,271.32c-1.038,0.347-2.374,0.804-3.657,1.265
	c-11.033,5.621-19.605,19.552-25.044,28.855c-7.212,12.336-13.264,25.473-17.823,39.021c-0.123,0.367-0.937,0.623-1.664,0.718
	l-0.173,0.692c10.667,8.38,15.506,18.884,15.506,32.706c0,22.427-16.398,39.898-41.893,44.792v11.546
	c4.323,9.01,13.789,17.943,23.97,19.018c0.621,0.066,0.489,0.305,0.087,0.553c0.651-0.034,1.303-0.07,1.955-0.117
	c3.528-0.253,9.288-0.761,14.513-2.252c1.15-0.365,2.279-0.745,3.337-1.13c4.619-1.864,8.204-4.764,8.371-9.333
	c-5.808-0.054-11.708-0.433-17.382-1.69c-1.887-0.418-8.242-2.306-5.158-5.383c4.688-4.677,13.307-6.107,19.625-6.425
	c3.052-0.153,6.099-0.14,9.144-0.057l0.935-0.072C360.241,373.146,358.763,318.459,381.79,271.32z M334.438,451.31
	c0.609,0.095,0.971,0.144,0.971,0.144s0.647-0.152,1.707-0.416c-0.17,0.024-0.34,0.054-0.51,0.077
	C335.902,451.209,335.174,451.266,334.438,451.31z M285.764,358.817c-0.549-0.185-1.101-0.374-1.653-0.565
	c-0.419,10.878,0.845,22.446,4.451,32.714c0.012,0,0.023,0,0.035,0c13.011,0,21.093-5.017,21.093-13.094
	C309.689,369.977,302.981,364.634,285.764,358.817z M308.658,329.162c1.806,0.637,3.543,1.29,5.217,1.958
	c-3.765-10.262-5.443-21.347-6.835-32.146c-2.185-0.204-4.478-0.33-6.91-0.33c-11.911,0-18.742,4.257-18.742,11.681
	C281.388,316.813,288.014,321.391,308.658,329.162z"></path>
<path id="color_x5F_1" d="M360.834,221.197c-12.92-1.627-4.734-16.785-2.164-24.041c0.322-0.908,3.202-1.285,2.889-0.399
	c-2.244,6.334-10.613,21.489,1.076,22.961C364.235,219.92,361.671,221.302,360.834,221.197z M386.188,226.428
	c-1.736,0.691-3.471,1.386-5.207,2.079c-0.217,0.087-1.287,0.582-0.825,0.965c0.456,0.38,1.416,0.104,1.888-0.083
	c1.735-0.693,3.471-1.388,5.207-2.079c0.217-0.086,1.287-0.582,0.825-0.965C387.62,225.964,386.661,226.24,386.188,226.428z
	 M424.076,207.129c0.425-0.082,1.498-0.272,1.712-0.741c0.408-0.896,1.227-1.485,1.637-2.379c0.196-0.427-1.009-0.217-1.136-0.193
	c-0.427,0.083-1.497,0.272-1.712,0.741c-0.411,0.894-1.229,1.484-1.637,2.379C422.745,207.364,423.949,207.154,424.076,207.129z
	 M536.326,437.819c-4.641,10.608-14.491,12.795-24.955,14.098c-15.797,1.967-31.819,2.316-47.719,2.568
	c-16.878,0.267-33.759,0.191-50.636-0.012c-5.804-0.07-11.607-0.161-17.411-0.228c-1.768-0.021-3.535-0.045-5.302-0.039
	c-1.784,0.007-1.929,0.611-0.748-0.572c-0.851,0.852-3.042,0.479-2.769-0.482c-0.078-0.059-0.139-0.131-0.161-0.227
	c-0.097-0.399-0.187-0.804-0.28-1.206c-10.332,5.127-22.037,7.6-33.442,8.668c-7.019,0.658-14.117,0.912-21.155,0.41
	c-3.476-0.247-12.219,0.114-14.888-2.626c-2.503-2.569,1.772-4.879,3.793-5.817c2.013-0.935,4.099-1.352,6.22-1.577
	c-7.912-1.64-15.122-7.322-19.831-14.112v6.96h-26.065v-22.434c-14.627-0.86-29.901-4.831-39.261-10.248l-0.984-0.57l7.821-30.508
	l1.694,0.927c6.501,3.559,19.382,9.376,35.122,10.098c-3.571-10.615-4.691-22.547-4.075-33.632c0-0.004,0.002-0.007,0.003-0.011
	c-18.997-6.949-38.916-18.361-38.916-42.921c0-15.187,7.637-27.855,20.82-35.821c-11.461-11.667-29-32.847-17.805-49.525
	c7.857-11.707,24.39-17.202,38.497-17.785c0.374-0.219,0.796-0.388,1.1-0.407c7.477-0.477,15.505,3.042,21.668,6.979
	c3.218,2.056,11.437,7.391,6.538,11.841c-0.2,0.182-0.41,0.341-0.621,0.5c0.381,0.118,0.657,0.383,0.657,0.834
	c-0.004,7.041-0.371,13.481-4.224,19.576c-0.156,0.246-0.449,0.434-0.791,0.559v18.282c12.997,0.722,23.897,3.292,33.283,7.844
	l1.104,0.535l-7.564,29.471l-1.604-0.679c-0.546-0.23-1.129-0.483-1.749-0.753c-4.686-2.035-11.788-5.108-21.604-6.455
	c1.473,11.285,3.327,22.841,7.606,33.405c5.748,2.537,10.643,5.3,14.727,8.35c-0.011-0.023-0.013-0.05-0.003-0.079
	c5.711-16.968,13.558-33.913,23.927-48.547c7.587-10.708,18.207-22.927,32.295-23.458c1.154-1.802,2.235-3.371,3.01-4.534
	c0.155-0.233,0.543-0.402,0.983-0.513c0.077-4.091-0.536-8.226-3.099-11.092c-2.947-3.297-7.524-3.758-11.704-3.716
	c-8.084,0.081-17.962,2.066-25.214-2.604c-9.483-6.105-9.649-19.499-9.199-29.583c0.043-0.963,0.118-1.921,0.183-2.881
	c-2.508,2.153-5.746,2.98-9.538,0.985c-11.962-6.296-10.38-37.456,6.826-32.551c0.951,0.271,0.74,0.925,0.152,1.411
	c0.046-0.013,0.075-0.037,0.124-0.048c2.755-0.633,4.631,0.855,5.886,3.263c0.475-3.083,0.938-6.168,1.345-9.265
	c0.179-1.358,3.142-1.724,2.941-0.2c-0.699,5.314-1.578,10.607-2.409,15.905c0.03,0.202,0.061,0.404,0.088,0.606
	c5.485,0,10.971,0,16.456,0c1.484-7.123,6.092-12.561,14.042-10.294c0.95,0.271,0.74,0.925,0.153,1.411
	c0.045-0.013,0.073-0.036,0.122-0.047c5.394-1.24,7.42,5.648,8.003,11.656c5.676,0,11.353,0,17.028,0
	c-6.865-7.729-11.932-16.582-11.108-27.497c-12.739,3.336-25.735,5.841-38.884,6.768c-6.185,0.436-15.291,1.447-20.842-2.194
	c-0.104-0.069-0.167-0.142-0.211-0.215c-0.426,0.027-0.813-0.063-1.011-0.325c-4.51-6.017-8.886-14.489-4.273-21.709
	c4.004-6.268,11.492-9.551,18.325-11.71c13.287-4.199,27.526-5.523,41.397-5.941c15.394-0.463,31.762,0.111,45.946,6.693
	c13.997,6.495,22.812,18.82,22.292,34.523c-0.066,2.004-0.232,4.005-0.479,5.998c-0.264,3.94-1.178,8.119-2.51,12.331
	c-1.318,4.765-2.975,9.439-4.784,13.968c-4.257,10.655-10.044,21.017-18.095,29.275c-0.297,0.305-0.925,0.467-1.496,0.476
	c0.321,1.321,0.628,2.553,0.875,3.647c0.777,3.437,1.788,6.863,2.778,10.295c0.406,0.058,0.62,0.237,0.344,0.582
	c-0.042,0.053-0.089,0.102-0.131,0.154c0.999,3.481,1.943,6.97,2.593,10.484c10.793,3.325,22.106,4.661,33.045,7.425
	c8.763,2.214,19.904,5.562,25.895,12.897c13.369,16.372,18.307,39.112,24.859,58.769c5.312,15.931,11.101,31.705,15.084,48.044
	C537.98,404.221,542.671,423.317,536.326,437.819z M361.527,138.09c-5.091,0.842-10.094,2.03-14.877,3.719L361.527,138.09z
	 M391.191,411.482c0.008,0.133-0.026,0.258-0.085,0.375c4.229,0.042,8.456,0.067,12.679,0.063c0.461-0.683,2.196-3.599,2.699-4.439
	c1.324-2.214,2.613-4.449,3.877-6.698c1.86-3.315,3.695-6.645,5.491-9.996c0.415-0.774-0.176-3.654-0.259-4.775
	c-0.307-4.169-0.63-8.338-0.971-12.504c-1.092-13.309-2.144-26.727-3.63-40.083c-0.914-8.208-1.993-16.393-3.35-24.515
	c-0.56-3.353-1.163-6.696-1.825-10.024c-1.975,1.453-4.428,2.299-7.215,2.238c-2.293-0.05-4.307-0.668-5.945-1.714
	c0.377,12.717-1,25.469-2.65,38.058c-1.66,12.668-3.026,25.55-5.456,38.096c-0.982,5.072-2.105,10.117-3.314,15.14
	c-0.715,2.967-1.306,3.018,0.046,5.092c2.115,3.247,4.228,6.496,6.311,9.764C388.493,406.969,391.088,409.729,391.191,411.482z
	 M397.772,279.011c0.165-0.021,0.331-0.043,0.496-0.064c-0.177-0.01-0.33-0.031-0.439-0.065c-2.414,3.121-4.614,6.395-6.961,9.563
	c0.226,0.114,0.362,0.305,0.327,0.594c-0.569,4.788,1.863,9.529,7.009,10.233c3.111,0.426,5.509-0.727,7.155-2.682
	c-0.023-0.11-0.043-0.221-0.066-0.332c-0.064-0.31,0.355-0.606,0.893-0.809c1.018-1.652,1.617-3.668,1.77-5.747
	c0.011-0.144,0.078-0.276,0.18-0.398c-1.281-1.75-2.785-3.361-4.244-4.853C402.143,282.663,400.093,280.097,397.772,279.011z
	 M398.306,278.296c-0.012,0.003-0.025,0.006-0.037,0.009c-0.002,0.002-0.004,0.005-0.006,0.007
	C398.277,278.306,398.291,278.302,398.306,278.296z M435.486,265.037c-4.767,10.954-13.43,20.999-21.704,29.387
	c-0.32,0.325-2.549,1.244-2.765,0.483c-0.21-0.742-0.502-1.455-0.828-2.156c-0.43,1.303-1.05,2.506-1.829,3.575
	c5.455,26.557,7.409,54.005,9.528,80.988c0.361,4.6,2.144,10.587-0.138,14.792c-2.574,4.747-5.165,9.494-7.938,14.129
	c-0.916,1.531-2.053,4.19-3.646,5.682c8.582-0.037,17.158-0.236,25.743-0.739c-1.424-28.977-0.304-57.842-0.377-86.82
	c-0.03-12.134-0.058-24.51,2.073-36.494c1.301-7.316,3.346-16.468,9.913-20.913C440.751,266.383,438.059,265.764,435.486,265.037z
	 M430.68,254.601c-8.951,9.555-21.469,15.645-31.789,23.456c-0.028,0.021-0.064,0.041-0.101,0.061
	c-0.013,0.007-0.022,0.014-0.036,0.021c0.016-0.004,0.03-0.006,0.047-0.01c2.3-0.611,3.847,1.436,5.512,3.035
	c3.295,3.164,7.14,6.879,8.987,11.239c7.755-8.086,15.446-17.461,19.704-27.743c-0.078-0.093-0.137-0.203-0.16-0.34
	C432.299,261.051,431.53,257.819,430.68,254.601z M445.601,152.279c1.446,1.919,2.807,4.042,4.071,6.377
	C448.582,156.395,447.23,154.26,445.601,152.279z M407.937,136.328c-6.254-0.616-12.587-0.69-18.811-0.512
	C395.159,135.874,401.849,136.018,407.937,136.328z M372.262,212.704c6.411,7.014,12.142-2.212,12.649-8.567
	c0.146-1.836-0.175-17.927-4.596-16.911c-1.391,0.32-2.019-0.791-1.393-1.503c-0.368,0.143-0.761,0.202-1.088,0.108
	C364.928,182.152,366.959,206.902,372.262,212.704z M345.889,194.647c-0.546-4.628-1.735-9.366-4.197-8.801
	c-1.391,0.32-2.02-0.791-1.393-1.503c-0.369,0.143-0.761,0.203-1.089,0.109c-12.907-3.679-10.876,21.071-5.572,26.873
	c4.115,4.501,7.947,2.31,10.301-1.516C344.422,204.731,345.122,199.686,345.889,194.647z M394.863,271.489
	c0.953,1.299,2.737,3.117,3.588,4.829c10.639-7.667,23.206-13.845,31.604-24.034c-2.773-10.085-6.073-20.089-5.769-30.712
	c0.069-2.422,0.188-5.417,1.769-7.417c1.994-2.525,4.89-3.927,7.282-6.005c4.657-4.046,1.867-10.203-2.975-13.033
	c-6.47-3.781-13.688-0.409-14.948,6.952c-0.077,0.448-0.516,0.786-1.031,0.971c-0.214,1.081-0.309,1.83-0.309,1.83l-0.667-1.333
	c0,0-0.111-0.097-0.307-0.271c-0.689,0.304-1.608,0.434-1.982,0.079c-1.484-1.406-2.944-2.846-4.351-4.325
	c-6.276,0-12.553,0-18.829,0c0.094,2.015,0.034,3.783-0.093,4.895c-0.812,7.078-6.573,17.04-15.164,12.518
	c-5.914-3.113-8.511-12.3-7.554-20.204c-5.301,0-10.602,0-15.903,0c0.206,2.588,0.153,4.942-0.003,6.307
	c-0.273,2.385-1.111,5.097-2.428,7.472c-0.198,2.241-0.363,4.486-0.44,6.742c-0.367,10.776-0.081,27.306,13.34,29.932
	c8.589,1.681,17.644-1.305,26.104,1.03C396.391,250.635,396.022,262.551,394.863,271.489z M387.517,289.61
	c2.873-3.779,5.449-7.77,8.419-11.479c-0.46-1.982-2.828-4.307-3.977-5.874c-0.018-0.025-0.014-0.056,0.002-0.09
	c-0.046-0.122-0.067-0.261-0.046-0.426c0.188-1.452,0.403-3.07,0.55-4.753C388.101,273.57,381.482,284.667,387.517,289.61z
	 M384.772,270.956c-23.29,47.237-21.594,102.297-15.317,153.281c4.543,0.194,9.086,0.46,13.638,0.54
	c0.038-4.093,0.356-8.153,1.034-12.109c0.139-0.811,2.631-1.315,2.867-0.609c0.36-0.14,0.698-0.236,0.882-0.234
	c0.117,0.001,0.233,0.002,0.351,0.003c-0.479-2.069-3.346-5.156-4.35-6.717c-1.942-3.022-3.896-6.036-5.86-9.044
	c-0.957-1.466-0.3-2.488,0.112-4.202c1.177-4.889,2.318-9.792,3.274-14.729c2.405-12.418,3.835-25.13,5.479-37.67
	c1.521-11.596,2.935-23.326,2.952-35.049c0.004-2.609-0.059-5.218-0.208-7.825c-0.005-0.084,0.009-0.165,0.032-0.243
	c-0.033-0.055-0.058-0.117-0.09-0.172c-0.794-1.373-1.271-2.972-1.349-4.746c-0.652,0.26-1.509,0.357-1.948,0.135
	c-7.777-3.935-2.85-14.205,1.664-21.465c-1.061-0.003-2.104,0.082-3.131,0.246C384.896,270.497,384.9,270.697,384.772,270.956z
	 M332.516,341.151c0.315,0.237,0.607,0.481,0.913,0.721c10.667,8.38,15.506,18.884,15.506,32.706
	c0,22.427-16.398,39.898-41.893,44.792v11.546c4.323,9.01,13.789,17.943,23.97,19.018c0.621,0.066,0.489,0.305,0.087,0.553
	c0.651-0.034,1.303-0.07,1.955-0.117c3.528-0.253,9.288-0.761,14.513-2.252c1.147-0.327,2.271-0.7,3.337-1.13
	c4.619-1.864,8.204-4.764,8.371-9.333c-5.808-0.054-11.708-0.433-17.382-1.69c-1.887-0.418-8.242-2.306-5.158-5.383
	c4.688-4.677,13.307-6.107,19.625-6.425c3.052-0.153,6.099-0.14,9.144-0.057c0.315,0.008,0.631,0.014,0.946,0.024
	c-0.004-0.032-0.008-0.064-0.012-0.096c-6.196-50.882-7.675-105.569,15.353-152.708c0.048-0.099,0.093-0.199,0.141-0.297
	c-1.297,0.403-2.562,0.933-3.798,1.563c-11.033,5.621-19.605,19.552-25.044,28.855c-7.212,12.336-13.264,25.473-17.823,39.021
	c-0.123,0.367-0.937,0.623-1.664,0.718C333.136,341.241,332.705,341.237,332.516,341.151z M307.04,298.974
	c-2.185-0.204-4.478-0.33-6.91-0.33c-11.911,0-18.742,4.257-18.742,11.681c0,6.489,6.626,11.066,27.271,18.837
	c1.806,0.637,3.543,1.29,5.217,1.958C310.11,320.858,308.432,309.772,307.04,298.974z M310.305,231.326
	c-3.9,1.419-8.762,0.339-12.486-0.904c-0.126-0.042-0.257-0.089-0.384-0.132c0.296,4.542-2.013,6.376-5.647,6.58
	c-0.394,3.704,0.015,7.334,0.05,11.051c0.002,0.258-0.221,0.479-0.542,0.653h15.906
	C310.036,243.159,310.297,237.484,310.305,231.326z M265.56,277.153c4.884-2.617,10.446-4.631,16.595-5.944v-22.637h6.783
	c-0.047-3.967-0.477-7.843,0.035-11.805c0-0.004,0.004-0.009,0.005-0.013c-1.895-0.229-3.989-0.729-6.171-1.41
	c-2.086,11.681-26.657,1.806-32.193-1.503c-1.195-0.714,1.479-1.907,2.303-1.414c4.402,2.632,25.857,11.681,27.057,2.955
	c0.042-0.301,0.338-0.558,0.726-0.739c-8.813-3.099-18.327-8.424-20.989-9.614c-0.304-0.136,1.953-1.332,2.731-0.984
	c5.389,2.409,10.439,5.523,15.87,7.872c3.467,1.499,7.104,3.037,10.86,3.642c4.393,0.707,5.853-1.363,5.287-5.485
	c-0.032-0.23,0.228-0.447,0.602-0.619c-4.829-1.76-9.953-4.099-13.609-7.501c-0.688-0.641,2.016-1.729,2.703-1.089
	c3.209,2.986,27.337,15.47,27.673,6.483c0.167-4.487-7.561-8.492-10.732-10.125c-4.403-2.268-9.358-4.477-14.399-4.897
	c-0.002,0-0.007,0-0.009,0c-15.033-0.575-40.409,6.768-41.694,25.128C243.925,252.683,255.438,266.805,265.56,277.153z
	 M288.562,390.966c0.012,0,0.023,0,0.035,0c13.011,0,21.093-5.017,21.093-13.094c0-7.896-6.708-13.238-23.925-19.056
	c-0.549-0.185-1.101-0.374-1.653-0.565C283.691,369.129,284.956,380.698,288.562,390.966z M305.285,416.642
	c25.073-4.361,40.649-20.479,40.649-42.064c0-20.655-11.098-32.996-38.304-42.597c-19.405-7.305-29.243-12.655-29.243-21.656
	c0-3.444,1.568-14.681,21.742-14.681c15.757,0,26.396,4.62,32.753,7.379c0.041,0.018,0.081,0.035,0.121,0.053l6.083-23.699
	c-9.11-4.205-19.737-6.527-32.436-7.094l-1.433-0.064v-20.646h-20.064v22.095l-1.211,0.238
	c-24.147,4.738-38.563,19.849-38.563,40.421c0,19.443,12.364,31.898,41.343,41.647c15.587,5.267,25.967,11.006,25.967,21.898
	c0,9.927-9.231,16.094-24.093,16.094c-16.557,0-30.424-5.673-38.091-9.637l-6.3,24.571c9.363,5.084,24.236,8.735,38.338,9.368
	l1.433,0.064v22.292h20.065v-9.15c-0.138-0.295-0.288-0.588-0.416-0.884c-0.067-0.154,0.117-0.342,0.416-0.515v-13.219
	L305.285,416.642z M386.072,450.546c-1.707-7.617-2.854-15.663-2.971-23.628c-4.835-0.1-9.888-0.56-14.959-0.827
	c-0.449,0.105-0.905,0.099-1.199-0.059c-8.719-0.399-17.44-0.093-25.146,3.746c-2.317,1.155-3.971,2.483-0.729,3.537
	c2.024,0.658,4.12,1.049,6.229,1.325c4.268,0.558,8.575,0.872,12.881,0.894c0.765,0.004,1.143,0.33,1.227,0.725
	c0.445-0.023,0.786,0.042,0.787,0.224c0.051,6.987-7.76,10.16-13.355,11.994c-3.802,1.247-7.762,2.008-11.721,2.562
	c-0.17,0.024-0.34,0.054-0.51,0.077c-0.703,0.095-1.432,0.151-2.168,0.196c-3.495,0.211-7.271,0.022-10.473,0.967
	c-3.148,0.93-7.923,4.69-2.043,5.813c2.942,0.563,5.906,1.007,8.892,1.259c6.241,0.526,12.521,0.629,18.771,0.188
	C362.076,458.657,374.889,456.423,386.072,450.546z M528.219,444.691c0.242-0.193,0.492-0.372,0.723-0.585
	c11.794-10.894,7.074-33.387,4.14-46.95c-1.231-5.69-2.7-11.313-4.3-16.897c-0.405-1.412-0.816-2.823-1.238-4.231
	c-2.972-9.902-6.334-19.691-9.684-29.479c-6.636-19.39-11.202-41.287-22.975-58.344c-10.579-15.326-31.053-17.316-49.031-20.792
	c-7.422,4.675-9.033,16.557-10.004,24.408c-1.488,12.043-1.488,24.211-1.394,36.327c0.217,27.659-1.012,55.183,0.38,82.852
	c0.213-0.014,0.426-0.024,0.64-0.039c15.345-1.063,30.772-2.116,46.159-2.519c-4.29-9.331-6.551-20.113-9.023-29.975
	c-4.446-17.731-7.982-35.709-9.866-53.903c-0.087-0.847,2.831-1.423,2.898-0.776c1.933,18.675,5.55,37.184,10.235,55.357
	c2.508,9.727,4.699,20.36,9.078,29.477c0.286,0.596-1.783,1.018-2.063,1.023c-16.168,0.346-32.402,1.405-48.533,2.576
	c-0.76,0.495-2.143,0.647-2.368,0.161c-14.93,1.034-29.862,0.89-44.819,0.723c-0.098-0.001-0.195-0.002-0.294-0.003
	c-0.001,0.009-0.002,0.017-0.004,0.026c-1.989,12.646-0.382,26.357,2.58,38.725c1.104-0.064,2.288,0.079,3.14,0.086
	c4.479,0.034,8.957,0.107,13.436,0.168c14.595,0.195,29.192,0.336,43.789,0.252c9.512-0.055,19.037-0.159,28.553-0.465
	c6.68-0.215,13.354-0.527,20.016-1.003c1.684-0.12,3.37-0.248,5.057-0.387c4.416-0.363,8.834-0.825,13.187-1.605
	c1.662-0.298,3.362-0.618,5.017-1.071C524.021,447.18,526.285,446.233,528.219,444.691z M214.44,391.887
	c0,16.784-12.183,29.874-31.157,33.631v18.107h-20.154v-16.709c-10.826-0.687-22.079-3.638-29.008-7.65l-0.984-0.57l6.011-23.451
	l1.694,0.927c5.13,2.808,15.634,7.519,28.339,7.519c9.582,0,15.303-3.497,15.303-9.354c0-5.675-4.916-9.547-17.534-13.81
	c-15.143-5.094-32.527-13.501-32.527-33.453c0-16.049,11.299-28.366,29.582-32.379v-16.91h20.153v15.481
	c9.559,0.567,17.599,2.486,24.538,5.851l1.104,0.535l-5.815,22.653l-1.604-0.677c-0.409-0.173-0.846-0.363-1.312-0.565
	c-4.541-1.97-12.141-5.268-23.31-5.268c-8.614,0-13.555,3.026-13.555,8.303c0,4.568,5.055,8.013,20.032,13.651
	C205.399,365.218,214.44,375.43,214.44,391.887z M211.44,391.887c0-15.169-8.179-24.243-28.231-31.319
	c-14.919-5.616-22.005-9.508-22.005-16.469c0-2.651,1.194-11.303,16.555-11.303c11.535,0,19.401,3.304,24.189,5.379l4.333-16.877
	c-6.665-3.022-14.43-4.695-23.689-5.108l-1.433-0.064v-15.34h-14.153v16.364l-1.211,0.238
	c-17.765,3.486-28.371,14.584-28.371,29.687c0,14.268,9.117,23.422,30.485,30.61c11.75,3.97,19.575,8.321,19.575,16.652
	c0,7.62-7.013,12.354-18.303,12.354c-12.09,0-22.261-4.039-28.078-6.991l-4.49,17.517c6.926,3.681,17.778,6.316,28.083,6.779
	l1.433,0.064v16.564h14.154V423.01l1.243-0.216C199.978,419.584,211.44,407.741,211.44,391.887z M116.208,406.082
	c0,12.378-8.897,22.05-22.781,24.92v13.313H77.883v-12.242c-7.947-0.547-15.889-2.66-21.009-5.623l-0.984-0.569l4.601-17.944
	l1.693,0.926c3.719,2.034,11.33,5.446,20.527,5.446c2.53,0,10.786-0.464,10.786-6.436c0-3.287-2.133-6.197-12.545-9.715
	c-11.2-3.768-24.058-9.997-24.058-24.842c0-11.843,8.253-20.949,21.63-23.999v-12.444h15.543v11.343
	c6.876,0.446,12.683,1.854,17.713,4.293l1.104,0.535l-4.45,17.337l-1.604-0.677c-0.301-0.127-0.622-0.267-0.964-0.415
	c-3.292-1.428-8.801-3.818-16.882-3.818c-6.132,0-9.509,2.013-9.509,5.668c0,3.131,3.63,5.555,14.388,9.605
	C109.517,386.269,116.208,393.849,116.208,406.082z M113.208,406.082c0-10.888-5.902-17.412-20.373-22.518
	c-11.094-4.177-16.36-7.097-16.36-12.423c0-2.033,0.902-8.668,12.509-8.668c8.176,0,13.85,2.247,17.413,3.779l2.965-11.554
	c-4.756-2.101-10.288-3.267-16.862-3.561l-1.433-0.064v-11.198h-9.543v11.894l-1.211,0.238
	c-12.786,2.509-20.419,10.476-20.419,21.311c0,10.229,6.584,16.808,22.017,21.999c8.756,2.958,14.587,6.225,14.587,12.558
	c0,5.82-5.283,9.436-13.786,9.436c-8.615,0-15.909-2.778-20.263-4.928l-3.08,12.014c5.025,2.588,12.743,4.434,20.083,4.763
	l1.433,0.064v12.093h9.544v-12.816l1.243-0.216C104.955,425.972,113.208,417.465,113.208,406.082z" fill="#0a1230"></path>
</svg>