<?xml version="1.0" standalone="no"?>
<svg version="1.1" id="Layer_1" xmlns="http://www.w3.org/2000/svg" xmlns:xlink="http://www.w3.org/1999/xlink" x="0px" y="0px" width="595.28px" height="595.28px" viewBox="0 0 595.28 595.28" enable-background="new 0 0 595.28 595.28" xml:space="preserve">
<path id="color_x5F_2" fill="#6c63ff" d="M97.058,402.267l17.436-3.614l0.031,0.134C108.741,400.125,102.907,401.232,97.058,402.267
	z M59.827,409.985c0,0,0.004,0.074,0.011,0.204c0.185-0.118,0.38-0.225,0.579-0.326L59.827,409.985z M120.71,432.721
	c-2.215-10.938-3.393-22.236-6.889-32.871c-9.226,2.096-18.574,3.622-27.89,5.256c-4.856,0.853-9.721,1.689-14.55,2.691
	c-0.093,0.02-0.201,0.039-0.307,0.058c0.031,0.161,0.061,0.322,0.092,0.483c-1.068,0.003-2.136,0.001-3.203-0.002
	c-0.346,0.055-0.697,0.115-1.05,0.18l-1.325,0.275c-1.719,0.396-3.289,0.956-4.002,1.837c-0.268,0.33-1.017,0.511-1.682,0.583
	c0.006,0.074,0.011,0.15,0.017,0.23c0.794-0.217,1.686-0.209,1.687,0.131c0.028,8.979-0.323,24.131,9.922,28.239
	c5.696,2.284,12.219,1.503,18.092,0.382c9.886-1.887,19.505-5.029,29.014-8.273c1.166-0.398,2.994,0.16,1.047,0.824
	c-2.319,0.791-4.65,1.583-6.99,2.358l8.654-2.163C121.001,432.947,120.743,432.886,120.71,432.721z M182.556,154.674
	c-0.246-0.014-0.489-0.021-0.73-0.021c-1.637,0-3.942,0.903-6.279,2.414c0.253-0.115,0.506-0.23,0.764-0.34
	C178.346,155.858,180.394,155.102,182.556,154.674z M384.218,114.494c-0.483-0.637-1.012-1.295-1.582-1.93
	c-1.977-1.243-4.255-2.6-6.37-3.686c-0.3,0.003-0.601,0.021-0.907,0.081c-3.341,0.644-6.056,3.459-8.421,5.729
	c-3.622,3.478-7.383,7.709-12.467,8.838c-4.392,0.975-8.465-1.565-12.5-1.357c-1.453,0.289-2.858,0.795-4.235,1.497
	c-0.343,0.246-0.686,0.525-1.03,0.847c-2.667,2.49-4.319,6.742-7.485,8.646c-2.781,1.672-6.281,3.012-9.537,2.119
	c-1.156-0.316-2.029-1.125-3.046-1.708c-2.308-1.324-6.02-0.738-8.517,0.026c-0.134,0.041-0.264,0.096-0.396,0.144
	c-1.499,0.793-2.929,1.766-4.26,2.729c-2.204,1.941-4.233,4.331-6.396,5.879c-2.941,2.105-6.008,4.32-9.577,5.188
	c-1.028,0.689-1.667,1.115-1.667,1.115s-0.71-0.354-1.836-0.89c-6.585-0.625-13.221-6.241-19.795-1.742
	c-3.726,2.549-6.849,5.097-11.525,5.405c-4.402,0.292-7.324-3.437-11.059-5.014c-5.78-2.44-9.684,4.746-14.822,6.244
	c-3.359,0.98-6.544,1.044-9.501-1.06c-2.384-1.696-4.78-4.663-7.541-5.664c-3.018-1.095-6.401,4.378-7.993,6.163
	c-2.399,2.689-5.357,4.279-8.897,4.838c-1.925,0.303-3.851-0.131-5.77-0.473c-0.502,0.098-1.046,0.023-1.376-0.213
	c-0.584-0.076-1.166-0.135-1.748-0.133c-3.934,0.008-8.729,2.392-11.722,4.877c-5.882,4.886-6.838,10.909-2.492,17.227
	c0.308,0.445-0.123,0.888-0.729,1.159c0.01,0.017,0.02,0.032,0.028,0.049c0.44-0.156,0.88-0.312,1.316-0.461
	c2.563-3.495,5.717-6.6,9.285-9.138c13.258-9.432,29.75-12.174,45.733-11.395c4.987-0.337,8.442-0.448,8.442-0.448h9.197
	c19.346-0.938,38.704-1.929,57.669-6.231c13.6-3.085,27.289-7.511,39.036-15.213c11.299-7.407,20.876-16.409,34.157-20.097
	C378.716,114.482,382.035,114.208,384.218,114.494z M350.473,130.558c1.54-1.109,2.989-2.182,4.491-3.258
	C353.445,128.348,351.948,129.438,350.473,130.558z M272.684,143.178c-1.137-0.325-2.131-0.525-2.858-0.525
	c-1.041,0-2.08,0.229-3.098,0.609c0.717-0.166,1.46-0.258,2.239-0.246C270.212,143.033,271.45,143.086,272.684,143.178z
	 M303.825,152.652c1.999-0.4,4.456-1.123,7.176-2.066c-3.691,1.064-7.438,1.985-11.225,2.786
	C301.321,153.119,302.7,152.877,303.825,152.652z M188.103,166.192c-3.398,1.667-6.563,3.696-9.379,6.133
	C181.15,170.368,184.226,168.285,188.103,166.192z M163.748,202.02c-0.781-7.207,1.067-14.135,4.653-20.125
	c-6.555,2.395-14.049,5.977-16.219,12.749c-3.306,10.318,4.866,18.447,15.005,18.017C165.39,209.463,164.171,205.918,163.748,202.02
	z M154.306,187.461c-1.49,0.963-2.511,2.408-3.198,3.779C152.011,189.842,153.093,188.592,154.306,187.461z M147.371,198.316
	c0.315-0.119,0.711-0.219,1.083-0.203c0.055-0.367,0.122-0.737,0.207-1.113c0.132-0.582,0.298-1.14,0.478-1.686
	c-0.108-0.039-0.212-0.087-0.3-0.158c-0.99-0.799-2.064-1.547-3.291-1.931c-0.414-0.129-0.729-0.202-1.202-0.226
	c0.027,0.008-0.395,0.014-0.47,0.023c-0.065,0.008-0.084,0.007-0.084,0.004c-0.027,0.008-0.065,0.018-0.125,0.033
	c-0.096,0.025-0.19,0.053-0.283,0.083c-0.002,0.001-0.003,0.001-0.005,0.002c-0.063,0.028-0.348,0.19-0.372,0.194
	c-0.118,0.08-0.236,0.16-0.345,0.254c-0.017,0.015-0.023,0.02-0.035,0.029c-0.01,0.012-0.015,0.018-0.029,0.032
	c-0.05,0.052-0.099,0.104-0.146,0.158c-0.32,0.374-0.655,0.996-0.75,1.417c-0.168,0.744-0.185,1.195,0.009,1.836
	c0.149,0.492,0.483,1.021,0.832,1.281c0.543,0.404,1.171,0.593,1.715,0.59C145.368,198.933,146.306,198.718,147.371,198.316z
	 M394.416,116.464c2.064,0.61,4.948,1.536,7.786,2.688C399.752,117.928,397.129,117.029,394.416,116.464z M417.696,130.098
	c1.867-3.838,3.574-8.747,2.869-12.879c-0.135-0.206-0.188-0.447-0.142-0.686c-0.51-2.099-1.702-3.961-3.903-5.323
	c-7.408-4.587-16.783-1.11-23.38,3.727C403.36,116.141,412.937,120.747,417.696,130.098z M418.396,109.77
	c2.356,1.358,3.738,3.283,4.405,5.514c1.135-0.324,2.3-0.765,3.297-1.353c0.89-0.671,1.79-1.57,2.476-2.747
	c0.297-0.935,0.228-2.035-0.396-3.334c-1.579-3.293-4.747-5.604-8.009-7.152c-1.992,2.597-2.38,5.297-1.774,8.768
	C418.413,109.57,418.409,109.672,418.396,109.77z M181.159,283.818c0.308-0.154,0.592-0.316,0.871-0.479
	c-1.055,0.503-2.209,0.915-3.478,1.204C179.464,284.445,180.345,284.226,181.159,283.818z M176.241,283.201
	c8.094,0.296,10.187-6.592,8.662-11.926c-0.105-0.367,0.443-0.792,1.144-1.119c0.01-0.118,0.02-0.236,0.032-0.355
	c-6.57,0.738-13.142,1.551-19.711,2.463C166.189,277.65,169.237,282.967,176.241,283.201z M535.948,372.674
	c-1.008-2.071-2.09-4.342-3.359-6.958c0.314,0.864,0.658,1.724,1.035,2.576C534.309,369.841,535.099,371.283,535.948,372.674z
	 M209.288,268.014c-5.868,0.371-11.71,0.758-17.391,1.16c-0.751,0.078-1.501,0.148-2.252,0.229
	c-0.337,5.404,2.581,10.868,9.6,11.322c8.063,0.546,10.305-6.267,8.904-11.641C208.053,268.72,208.596,268.318,209.288,268.014z
	 M232.403,266.641c-6.37,0.357-12.934,0.742-19.504,1.148c-0.274,5.248,2.539,10.525,9.344,11.174
	c8.035,0.795,10.422-5.935,9.142-11.347C231.304,267.274,231.774,266.916,232.403,266.641z M317.104,304.475l-3.397,1.235
	c-0.325,0.579-1.599,1.065-2.317,0.843l-0.73,0.266c0,0-0.032,0.017-0.053,0.027c-0.121,0.153-0.295,0.305-0.546,0.446
	c-2.573,1.444-4.896,3.905-5.667,6.806c-0.025,0.096-0.071,0.184-0.125,0.268C309.491,313.07,314.123,309.504,317.104,304.475z
	 M325.294,267.978c0.059-0.259,0.106-0.517,0.18-0.776c0.014-0.046,0.041-0.09,0.073-0.133c-6.541-0.48-13.087-0.881-19.641-1.189
	c-1.163,5.389,1.013,11.535,8.08,13.092c1.05,0.234,2.007,0.314,2.885,0.281c1.094-0.188,2.109-0.426,2.964-0.689
	c3.469-1.639,4.738-5.875,4.193-9.698C323.974,268.486,324.566,268.171,325.294,267.978z M61.509,306.468
	c1.771-0.215,3.203-0.732,4.368-1.443c0.343-0.21,0.661-0.436,0.956-0.679c1.229-1.015,2.045-2.297,2.501-3.702
	c-0.106-0.743-0.208-1.487-0.321-2.228c-0.077-0.489,0.266-0.987,0.767-1.379c-0.073-1.316-0.371-2.623-0.869-3.813
	c-0.146-0.347,0.354-0.854,1.017-1.289c-6.517,1.759-13.026,3.612-19.529,5.544c0.241,2.398,1.125,4.658,2.681,6.325
	c0.424,0.032,0.749,0.235,0.828,0.689c0.005,0.031,0.011,0.062,0.016,0.093C55.747,306.078,58.266,306.873,61.509,306.468z
	 M127.027,289.981c2.552,0.139,5.636-0.165,8.632-1.663c0.436-0.218,0.839-0.434,1.215-0.646c2.367-2.569,2.656-6.547,1.552-9.828
	c-0.122-0.359,0.411-0.818,1.099-1.19c0.003-0.056,0.006-0.11,0.008-0.165c-6.558,1.146-13.112,2.375-19.663,3.693
	C119.976,284.607,122.272,288.795,127.027,289.981z M84.38,300.352c0.483-0.043,0.939-0.112,1.377-0.199
	c0.771-0.223,1.576-0.477,2.388-0.771c4.821-2.264,5.54-7.815,3.897-12.024c-0.138-0.353,0.375-0.845,1.048-1.259v-0.036
	c-6.534,1.555-13.063,3.2-19.586,4.928C73.909,296.27,77.438,300.995,84.38,300.352z M153.241,286.4
	c8.118,0.041,10.061-6.916,8.418-12.207c-0.114-0.363,0.427-0.807,1.121-1.156c0.006-0.084,0.011-0.168,0.018-0.253
	c-6.565,0.942-13.13,1.963-19.691,3.078C143.086,281.222,146.258,286.386,153.241,286.4z M107.3,294.97
	c0.418-0.024,0.808-0.076,1.191-0.134c1.217-0.424,2.471-1.06,3.668-2.018c1.103-0.882,2.026-1.661,2.81-2.349
	c1.247-2.495,1.204-5.61,0.248-8.241c-0.13-0.355,0.395-0.832,1.075-1.225l0.003-0.091c-6.549,1.351-13.093,2.788-19.632,4.312
	C96.936,290.529,100.351,295.394,107.3,294.97z M246.462,278.004c0.926-0.004,1.914-0.104,2.94-0.339
	c4.685-1.354,6.124-6.456,5.2-10.801c-0.081-0.372,0.49-0.741,1.204-1.002c0.024-0.157,0.046-0.315,0.076-0.474
	c-6.113,0.311-12.776,0.66-19.728,1.044c-0.408,5.243,2.283,10.616,9.074,11.479C245.659,277.968,246.064,277.991,246.462,278.004z
	 M414.487,344.535c4.909,1.467,9.896,2.572,14.897,3.635l-22.489-6.615C408.815,343.107,413.052,344.096,414.487,344.535z
	 M329.05,267.32c-1.29,5.229,0.615,11.288,7.247,13.232c1.404,0.253,2.882,0.38,4.362,0.266c0.709-0.055,1.348-0.17,1.943-0.32
	c3.539-1.511,4.922-5.72,4.462-9.568c-0.048-0.377,0.552-0.674,1.282-0.844c0.063-0.257,0.117-0.514,0.197-0.77l-11.299-1.299
	C334.515,267.774,331.783,267.533,329.05,267.32z M359.56,283.127c7.769,2.217,11.003-3.934,10.468-9.442
	c-0.038-0.38,0.568-0.658,1.303-0.807c0.069-0.254,0.129-0.509,0.214-0.762c0.018-0.051,0.048-0.1,0.09-0.146l-19.568-2.25
	C350.713,274.993,352.631,281.168,359.56,283.127z M500.254,369.015l-16.735-4.923C489.073,365.893,494.644,367.587,500.254,369.015
	z M383.36,286.017c0.694,0.284,1.373,0.539,2.014,0.745c3.824,0.074,6.153-2.357,7.088-5.439c-0.016-0.09-0.018-0.186,0-0.29
	c0.118-0.73,0.274-1.505,0.45-2.31c0.032-0.533,0.038-1.069-0.001-1.602c-0.018-0.221,0.185-0.399,0.496-0.537
	c0.108-0.446,0.22-0.9,0.333-1.361c-2.704-0.45-5.409-0.879-8.117-1.3l-10.499-1.536c-1.078,3.559-0.645,7.619,1.911,10.561
	c1.42,0.771,3.209,1.697,4.994,2.498C382.592,285.489,383.102,285.678,383.36,286.017z M546.024,403.855
	c-0.461,6.617-1.721,12.976-4.19,18.993c-0.829,2.017-1.882,3.923-3.019,5.774c-0.496,0.808-1.076,1.553-1.668,2.291
	c-0.277,0.347-0.487,0.593-0.642,0.764c-0.229-0.03-0.461-0.039-0.685-0.025l-3.59-0.898c-1.89-0.805-3.807-1.545-5.739-2.239
	v-0.127c-0.233-0.036-0.472-0.081-0.71-0.124c-0.432-0.152-0.864-0.308-1.297-0.457c-4.203-1.456-8.934-3.343-13.502-4.303
	l-2.416-1.275l-0.075,0.424l-0.733,0.346c-0.442-0.045-0.883-0.08-1.317-0.098c-9.837-0.384-11.128,7.701-13.035,15.002
	c-1.275-0.436-2.554-0.863-3.835-1.28c-0.153-0.05-0.313-0.072-0.473-0.081c-1.149-8.966-3.098-18.072-8.668-25.98
	c-5.635-7.998-14.969-11.875-24.479-13.672c-8.366-1.59-17.113-1.416-24.65,1.764c-0.849,0.357-1.647,0.768-2.419,1.205
	c-3.085,1.477-5.927,3.476-8.407,6.071c-2.77,2.897-4.732,6.25-5.959,9.831c-10.795-2.228-21.632-4.182-32.507-5.85l-3.198-0.65
	c6.203-43.254,12.96-89.242,20.082-133.493c37.451,6.319,75.08,13.637,111.244,26.891c3.889,1.406,8.863,3.814,13.744,5.257
	c4.312,21.316-2.628,42.47,7.667,63.495c2.637,5.446,6.934,9.839,10.682,14.727C546.417,391.602,546.435,398.006,546.024,403.855z
	 M417.328,356.456c-4.689-0.976-9.514-2.21-14.296-1.927c-1.834,0.109-4.111,0.426-5.29,1.779c-1.478,1.704,0.37,4.145,1.521,5.652
	c0.58,0.758,3.911,0.106,3.281-0.723c-0.947-1.25-2.355-3.049-1.656-4.586c0.512-1.124,2.746-0.856,3.817-0.793
	c3.476,0.196,6.897,1.029,10.309,1.729C415.89,357.767,419.13,356.832,417.328,356.456z M511.728,319.391
	c-0.137-2.665,0.047-3.103-2.617-4.637c-2.316-1.332-4.793-2.441-7.247-3.526c-11.313-5.003-23.149-8.95-35.054-12.376
	c-9.221-3.137-18.199-5.703-24.938-6.59c-8.236-1.95-16.589-3.543-24.836-4.093c-0.055-0.004-0.119-0.003-0.186-0.001
	c-0.049-0.019-0.092-0.036-0.14-0.055c0.078-0.18,0.146-0.36,0.226-0.539c0.211-0.472-1.321-0.658-2.479-0.507
	c-0.447-0.259-0.632-0.415-0.632-0.415l-0.108,0.584c-0.228,0.085-0.396,0.193-0.457,0.331
	c-7.499,16.977-5.903,36.104-11.251,53.667c-0.068,0.232,0.042,0.287,0.265,0.403c8.59,4.426,18.385,6.174,27.807,8.143
	c8.842,1.842,17.496,4.197,26.148,6.847c16.561,5.069,33.447,11.729,50.451,15.129c0.098,0.33,0.228,0.629,0.398,0.883
	c0.508,0.752,3.885,0.563,3.402-0.155c-0.105-0.158-0.191-0.343-0.268-0.539l0.264,0.077l-0.088-7.6
	c0.152-1.005,0.288-1.884,0.318-2.476c0.357-7.038,0.744-14.077,0.996-21.133C511.956,333.709,512.091,326.574,511.728,319.391z
	 M538.979,395.744c-1.163-0.261-2.253,0.318-2.026,0.871c-0.27-0.168-0.662-0.295-1.181-0.331c-0.381-0.024-0.757-0.022-1.129,0.002
	c-0.122,0.009-0.239,0.033-0.359,0.047c-0.249,0.026-0.498,0.05-0.741,0.098c-0.138,0.027-0.271,0.071-0.406,0.104
	c-0.223,0.055-0.445,0.104-0.663,0.174c-0.142,0.047-0.278,0.109-0.418,0.162c-0.206,0.078-0.414,0.15-0.616,0.242
	c-0.141,0.064-0.277,0.145-0.416,0.215c-0.195,0.1-0.391,0.193-0.582,0.306c-0.139,0.082-0.271,0.178-0.408,0.266
	c-0.184,0.119-0.369,0.232-0.548,0.362c-0.138,0.1-0.271,0.213-0.405,0.32c-0.171,0.133-0.343,0.263-0.508,0.406
	c-0.139,0.119-0.271,0.251-0.405,0.377c-0.154,0.145-0.312,0.285-0.462,0.438c-0.139,0.141-0.271,0.292-0.405,0.44
	c-0.138,0.15-0.278,0.298-0.412,0.455c-0.14,0.164-0.271,0.338-0.405,0.508c-0.121,0.152-0.244,0.301-0.359,0.459
	c-0.141,0.188-0.272,0.386-0.406,0.581c-0.103,0.149-0.207,0.294-0.306,0.447c-0.141,0.218-0.273,0.442-0.407,0.666
	c-0.082,0.138-0.167,0.272-0.246,0.413c-0.141,0.248-0.271,0.502-0.403,0.757c-0.063,0.123-0.13,0.243-0.192,0.368
	c-0.137,0.277-0.264,0.56-0.391,0.843c-0.047,0.106-0.098,0.211-0.143,0.318c-0.132,0.308-0.254,0.619-0.372,0.932
	c-0.032,0.086-0.067,0.17-0.099,0.256c-0.123,0.338-0.236,0.679-0.344,1.021c-0.02,0.062-0.041,0.123-0.061,0.185
	c-0.111,0.366-0.212,0.733-0.306,1.103c-0.01,0.038-0.021,0.077-0.03,0.116c-0.098,0.393-0.183,0.785-0.258,1.178
	c-0.003,0.014-0.006,0.028-0.009,0.043c-1.132,5.973,0.32,11.827,5.731,13.289c0.043,0.01,0.086,0.018,0.129,0.026
	c0.736,0.188,1.533,0.308,2.416,0.324C540.876,424.833,551.95,398.732,538.979,395.744z M293.249,291.162l2.991-0.225
	c4.52-0.863,9.087-1.408,13.733-1.52C306.945,282.348,295.901,284.851,293.249,291.162z M528.66,403.401
	c1.682-2.376,3.858-4.761,6.413-5.447C532.352,398.196,530.201,400.639,528.66,403.401z M269.533,318.287
	c-2.276,8.582-7.825,15.232-14.781,20.567c-0.271,0.208-0.608,0.307-0.946,0.325c-1.09,0.827-2.945,1.428-4.498,1.281
	c-0.226,0.127-0.41,0.229-0.516,0.286c0.467,5.839-0.936,11.926-2.512,17.479c-1.171,4.124-2.301,9.263-4.965,12.776
	c1.643,1.416,8.329,2.564,9.32,2.731c0.668,0.112,1.346,0.216,2.025,0.312l5.524,0.395c2.005-0.029,3.985-0.308,5.892-0.953
	c1.268-6.507,2.522-13.73,1.437-20.416c-0.956-3.751-2.175-6.81-2.329-7.19c-0.007-0.013-0.015-0.025-0.021-0.038
	c-0.557,0.597-1.127,1.188-1.715,1.771c-0.847,0.84-3.669,0.513-2.396-0.748c8.285-8.211,13.454-17.979,12.85-29.809
	C271.186,317.488,270.348,317.976,269.533,318.287z M268.802,338.807c0.119-0.163,0.234-0.318,0.357-0.488
	c0.558-0.767,1.045-1.752,1.475-2.871c-0.596,1.143-1.244,2.264-1.951,3.36C268.723,338.807,268.762,338.807,268.802,338.807z
	 M261.486,265.107c-0.666,0.033-1.344,0.067-2.026,0.102c-0.798,5.399,1.698,11.248,8.728,12.357
	c7.956,1.282,10.635-5.276,9.602-10.74c-0.073-0.375,0.507-0.728,1.227-0.965c0.045-0.254,0.08-0.506,0.14-0.76
	C273.269,265.035,267.379,265.036,261.486,265.107z M300.935,267.497c-0.063-0.377,0.523-0.712,1.246-0.928
	c0.053-0.261,0.094-0.521,0.162-0.783c0.006-0.021,0.021-0.039,0.03-0.059c-6.549-0.277-13.104-0.472-19.663-0.577
	c-0.998,5.412,1.332,11.436,8.4,12.771C299.026,279.438,301.84,272.977,300.935,267.497z M333.977,338.387
	c0.44-12.886-4.816-22.252-11.442-32.874c-0.252-0.404-0.029-0.79,0.38-1.072c-0.271-0.361-0.509-0.671-0.699-0.917
	c-0.229,0.215-0.54,0.395-0.66,0.444c-0.419,0.176-0.923,0.278-1.378,0.191c-4.023,7.307-11.234,11.999-19.011,12.642
	c-0.002,0.005-0.007,0.018-0.007,0.018l-0.043-0.014c-3.156,0.254-6.4-0.162-9.563-1.34c3.239,15.132,26.469,6.644,32.546-2.47
	c0.762-1.142,3.468-0.647,2.438,0.898c-2.728,4.089-8.573,8.011-14.893,10.229c-0.007,0.037-0.015,0.072-0.027,0.111
	c-0.001,5.118-0.082,10.207-0.707,15.292l24.75,2.292c0,0,0-0.003-0.119-2.743C334.767,339.232,333.953,339.074,333.977,338.387z
	 M300.088,325.922c-2.79,3.844-5.414,7.854-8.987,11.029c-0.332,0.295-1.074,0.442-1.693,0.419l-1.154,1.616
	c1.217,0.038,2.432,0.078,3.648,0.125l4.46-0.743c-0.028-0.235,0.122-0.505,0.556-0.782c4.818-3.083,8.44-7.523,11.269-12.438
	C305.414,325.819,302.646,326.122,300.088,325.922z M536.396,431.795c0.01-0.011,0.021-0.022,0.032-0.035
	c-0.016,0.012-0.032,0.021-0.046,0.032L536.396,431.795z M425.327,290.387c0.871,0.16,1.809,0.314,2.806,0.464
	C427.198,290.688,426.263,290.531,425.327,290.387z"></path>
<path id="color_x5F_1" d="M415.014,357.588c-3.411-0.699-6.833-1.532-10.309-1.729c-1.071-0.063-3.306-0.331-3.817,0.793
	c-0.699,1.537,0.709,3.336,1.656,4.586c0.63,0.829-2.701,1.48-3.281,0.723c-1.15-1.508-2.998-3.948-1.521-5.652
	c1.179-1.354,3.456-1.67,5.29-1.779c4.782-0.283,9.606,0.951,14.296,1.927C419.13,356.832,415.89,357.767,415.014,357.588z
	 M118.636,431.92c-9.509,3.244-19.128,6.387-29.014,8.273c-5.873,1.121-12.396,1.902-18.092-0.382
	c-10.245-4.108-9.894-19.261-9.922-28.239c-0.001-0.34-0.893-0.348-1.687-0.131c-0.638,0.176-1.213,0.495-1.212,0.908
	c0.033,10.244-0.002,24.967,11.597,29.102c5.576,1.987,12.09,1.11,17.771,0.168c8.357-1.386,16.549-3.844,24.614-6.517
	c2.34-0.775,4.671-1.567,6.99-2.358C121.63,432.08,119.802,431.521,118.636,431.92z M545.146,423.57
	c-0.055,0.094-1.365,2.489-3.066,4.969c0.004,0.002,0.01,0.004,0.013,0.006c8.216,5.283,5.703,18.92-0.017,23.712
	c-5.768,4.839-16.344-0.663-23.509-3.267c-0.459,0.172-1.013,0.221-1.501,0.042c-9.656-3.57-19.246-7.34-29.016-10.498
	c-0.914,0.095-2.024-0.165-2.104-0.802c-0.367-3.016-0.865-6.051-1.547-9.027c0.066,1.75-0.011,3.514-0.246,5.276
	c-1.671,12.665-10.058,24.644-23.291,27.272c-3.057,0.596-6.254,0.754-9.479,0.553c-2.255-0.016-4.235-0.295-5.764-0.756
	c-10.286-2.055-20.216-7.773-26.239-16.096c-4.379-6.104-6.639-13.52-6.395-20.723l-1.158-4.247l1.51-2.156
	c-49.316-10.104-99.543-14.291-150.011-13.222c-1.92,6.804-5.013,13.291-9.573,19.336c0.032,0.345-0.211,0.703-0.777,0.91
	c-0.045,0.028-0.09,0.056-0.138,0.08c-0.377,3.172-1.115,6.567-2.585,9.391c-1.196,2.298-4.088,4.973-6.782,2.972
	c-2.132-1.583-2.692-4.243-2.643-6.824c-1.411,1.959-3.847,3.647-6.142,1.943c-2.685-1.994-2.881-5.694-2.499-8.796
	c0.189-1.534,0.792-3.544,2-4.557c-0.006-0.002-0.012-0.006-0.018-0.008c-0.127-0.054-0.129-0.135-0.067-0.224
	c-0.558-0.005-0.921-0.16-0.596-0.531c1.432-1.636,2.587-3.452,3.523-5.397c0.756-2.01,1.607-4.58,2.283-7.438
	c-5.102,0.271-10.205,0.59-15.309,0.967c-0.789,0.423-1.843,0.61-2.201,0.154c-0.215,0.018-0.43,0.029-0.645,0.046
	c-0.041,0.003-0.072-0.001-0.111,0.001c-0.1,0.563-0.271,1.475-0.51,2.635c0.191,11.273-4.504,22.949-14.651,29.428
	c-4.239,2.688-9.099,4.547-14.152,5.566c-2.368,0.713-3.908,1.057-3.908,1.057l-1.841-0.264c-8.917,0.655-17.945-1.277-24.882-5.982
	c-6.859-4.693-11.582-12.052-12.974-20.188c-0.055,0.02-0.113,0.043-0.162,0.059c-5.269,1.639-10.713,2.749-16.072,3.936
	c-3.168,0.701-6.363,1.426-9.568,2.151c0.402,2.313,0.816,4.623,1.281,6.914c0.098,0.484-1.378,0.975-2.262,0.996
	c-0.346,0.008-0.604-0.054-0.637-0.219c-2.215-10.938-3.393-22.236-6.889-32.871c-9.226,2.096-18.574,3.622-27.89,5.256
	c-4.856,0.853-9.721,1.689-14.55,2.691c-0.093,0.02-0.201,0.039-0.307,0.058c0.031,0.161,0.061,0.322,0.092,0.483
	c-1.068,0.003-2.136,0.001-3.203-0.002c-0.346,0.055-0.697,0.115-1.05,0.18c-0.445,0.082-0.889,0.175-1.325,0.275
	c-1.719,0.396-3.289,0.956-4.002,1.837c-0.268,0.33-1.017,0.511-1.682,0.583c-0.67,0.073-1.254,0.039-1.174-0.062
	c0.303-0.374,0.683-0.688,1.106-0.96c0.185-0.118,0.38-0.225,0.579-0.326c1.251-0.642,2.752-1,3.948-1.328
	c1.046-0.287,2.099-0.553,3.154-0.805c-0.877-4.467-1.734-8.938-2.548-13.424c-5.308-29.188-9.466-58.735-14.668-88.008
	c-1.524-1.34-2.584-3.152-3.109-5.272c-0.319-0.063-0.559-0.245-0.629-0.602c-0.111-0.582-0.251-1.182-0.406-1.794
	c-0.721-0.019-0.722-0.623-0.34-1.268c-2.13-7.54-6.281-16.895-0.954-24.738c5.937-8.708,17.026-12.738,27.41-14.398
	c11.069-1.782,21.937-1.856,32.964-3.776c9.438-1.638,18.861-3.341,28.282-4.931c10.086-1.703,20.179-3.24,30.275-4.63
	c5.349-6.422,10.393-13.085,15.407-19.771c-4.318-2.873-8.139-6.431-10.923-10.663c-0.25,0.201-0.579,0.346-0.972,0.37
	c-8.952,0.561-19.035-5.193-19.013-14.666c-2.441,0.88-5.655,1.598-7.901-0.073c-1.455-1.083-2.085-2.985-1.604-4.738
	c0.573-2.093,2.191-3.778,4.342-4.278c2.551-0.593,4.982,0.305,7.054,1.747c0.279-0.548,0.591-1.069,0.92-1.577
	c0.903-1.398,1.985-2.648,3.198-3.779c4.015-3.743,9.469-6.154,14.742-8.034c0.44-0.156,0.88-0.312,1.316-0.461
	c2.563-3.495,5.717-6.6,9.285-9.138c13.258-9.432,29.75-12.174,45.733-11.395c1.306,0.064,2.608,0.143,3.904,0.252
	c4.574-0.26,9.155-0.479,13.735-0.7c19.346-0.938,38.704-1.929,57.669-6.231c13.6-3.085,27.289-7.511,39.036-15.213
	c11.299-7.407,20.876-16.409,34.157-20.097c0.446-0.124,0.884-0.259,1.339-0.37c2.918-0.717,6.01-1.182,9.154-1.371
	c-0.052-0.068-0.106-0.14-0.16-0.209c-0.483-0.637-1.012-1.295-1.582-1.93c-1.778-1.98-3.953-3.705-6.37-3.686
	c-0.3,0.003-0.601,0.021-0.907,0.081c-3.341,0.644-6.056,3.459-8.421,5.729c-3.622,3.478-7.383,7.709-12.467,8.838
	c-4.392,0.975-8.465-1.565-12.5-1.357c-1.412,0.072-2.819,0.481-4.235,1.497c-0.343,0.246-0.686,0.525-1.03,0.847
	c-2.667,2.49-4.319,6.742-7.485,8.646c-2.781,1.672-6.281,3.012-9.537,2.119c-1.156-0.316-2.029-1.125-3.046-1.708
	c-2.308-1.324-6.02-0.738-8.517,0.026c-0.134,0.041-0.264,0.096-0.396,0.144c-1.529,0.556-2.928,1.557-4.26,2.729
	c-2.204,1.941-4.233,4.331-6.396,5.879c-2.941,2.105-6.008,4.32-9.577,5.188c-0.043,0.011-0.084,0.026-0.127,0.036
	c-1.124,0.262-2.249,0.297-3.376,0.189c-6.585-0.625-13.221-6.241-19.795-1.742c-3.726,2.549-6.849,5.097-11.525,5.405
	c-4.402,0.292-7.324-3.437-11.059-5.014c-5.78-2.44-9.684,4.746-14.822,6.244c-3.359,0.98-6.544,1.044-9.501-1.06
	c-2.384-1.696-4.78-4.663-7.541-5.664c-3.018-1.095-6.401,4.378-7.993,6.163c-2.399,2.689-5.357,4.279-8.897,4.838
	c-1.925,0.303-3.851-0.131-5.77-0.473c-0.502,0.098-1.046,0.023-1.376-0.213c-0.584-0.076-1.166-0.135-1.748-0.133
	c-3.934,0.008-8.729,2.392-11.722,4.877c-5.882,4.886-6.838,10.909-2.492,17.227c0.308,0.445-0.123,0.888-0.729,1.159
	c-0.711,0.319-1.666,0.403-1.963-0.028c-6.516-9.47-0.806-18.009,8.489-22.283c0.253-0.115,0.506-0.23,0.764-0.34
	c2.036-0.868,4.084-1.625,6.246-2.053c0.285-0.057,0.566-0.128,0.857-0.172c0.88-0.133,1.763-0.098,2.646,0.003
	c17.285-24.059,52.938-17.519,78.463-19.304c36.145-2.526,66.734-27.045,103.414-26.386c1.959,0.035,0.36,2.099-1.012,2.074
	c-35.587-0.639-65.349,23.436-100.381,26.226c-24.836,1.979-60.711-5.215-77.774,17.83c1.16,0.215,2.317,0.41,3.467,0.393
	c6.481-0.095,8.942-7.23,13.903-10.239c2.748-1.667,5.453-1.221,7.929,0.679c2.173,1.667,4.25,4.002,6.745,5.178
	c4.488,2.114,7.845-1.074,11.141-3.502c2.491-1.835,6.116-4.216,9.404-3.318c6.155,1.68,10.545,8.483,17.338,3.676
	c2.515-1.779,5.026-3.848,8.031-4.549c0.717-0.166,1.46-0.258,2.239-0.246c1.245,0.018,2.483,0.07,3.717,0.162
	c2.858,0.212,5.682,0.659,8.438,1.553c4.276,1.388,6.631,1.803,10.681-0.847c4.203-2.749,7.206-6.254,11.036-9.275
	c2.991-2.358,6.869-3.128,10.6-3.452c3.018-0.263,4.564,0.668,7.116,2.074c6.253,3.446,9.454-5.102,12.944-8.36
	c2.566-2.396,6.133-4.769,9.819-4.647c2.432,0.079,4.505,0.93,6.846,1.465c4.478,1.025,7.415-0.902,10.412-3.643
	c2.979-2.723,5.731-5.891,9.112-8.133c7.343-4.869,13.275-1.803,18.129,4.699c1.057,0.008,2.113,0.05,3.167,0.125
	c6.673-4.85,15.645-8.424,23.743-6.406c0.187,0.047,0.359,0.102,0.539,0.152c-0.318-3.722,0.597-6.843,3.371-9.77
	c0.496-0.523,1.342-0.847,2.049-0.549c4.22,1.777,10.238,5.436,10.891,10.532c0.661,5.159-4.029,7.562-8.354,8.71
	c0.489,4.641-1.422,10.125-3.873,14.534c-0.101,0.181-0.333,0.328-0.624,0.444c0.267,0.676,0.518,1.365,0.736,2.085
	c5.484,18.048-6.926,34.138-20.115,45.654c0.327-0.005,0.568,0.057,0.602,0.214c3.659,17.441,6.709,34.892,7.719,52.704
	c5.508-0.901,13.069,0.338,16.959,1.039c16.545,2.846,32.765,8.468,48.234,14.772c16.961,6.906,33.562,14.945,48.986,24.425
	c5.383,3.304,10.741,6.767,15.551,10.684c2.44,1.987,5.743,4.522,6.533,7.276c0.088,0.304-0.495,0.457-1.232,0.47
	c-0.573,1.739-0.268,5.227-0.521,6.408c-0.698,3.259-1.767,6.409-4.421,8.702c-2.654,2.295-6.172,2.63-9.952,2.014
	c2.511,13.088,0.71,25.7,1.511,38.626c0.361,6.022,1.098,12.267,3.273,18.258c0.314,0.864,0.658,1.724,1.035,2.576
	c0.685,1.549,1.475,2.991,2.324,4.382c2.845,4.654,6.438,8.634,9.685,13.336c3.997,5.798,4.479,12.027,3.885,18.177
	C548.87,410.898,547.899,417.505,545.146,423.57z M405.366,236.617c-0.001,0.025,0.007,0.049,0.002,0.076
	c-2.099,12.264-4.17,24.791-6.213,37.457c32.996,5.619,66.066,11.956,98.276,22.373c8.134,2.628,16.229,5.474,24.156,8.739
	c6.364,2.623,12.041,3.265,14.825-1.965c1.565-2.945,2.146-6.231,2.495-9.583c0.108-1.072-0.089-2.914,0.775-3.746
	c-1.154-2.242-3.984-4.404-6.005-6.003c-4.439-3.53-9.271-6.716-14.197-9.729c-13.404-8.201-27.646-15.356-42.259-21.604
	c-14.86-6.358-30.263-12.036-46.101-15.708C425.797,235.617,408.051,230.754,405.366,236.617z M397.218,181.938
	c-1.107,0.922-2.213,1.816-3.309,2.671c-17.961,14.021-38.607,24.631-59.596,33.329c-20.928,8.674-42.074,14.802-64.626,17.563
	c-2.12,0.26-4.243,0.485-6.369,0.695c0.585-0.021,1.17-0.049,1.755-0.069c0.903-0.031,1.245,0.235,1.24,0.597
	c15.194,0.649,30.34,1.776,45.494,2.742c10.827,0.688,22.014,1.857,32.854,1.756c6.574-0.063,13.102-0.639,19.688-0.599
	c10.753,0.021,26.575,1.142,32.327,10.52c0.768,1.254,1.352,2.529,1.788,3.822c1.001-6.174,2.007-12.309,3.021-18.372
	c0.021-0.122,0.098-0.231,0.214-0.327c0.628-1.11,1.707-1.899,3.069-2.449C403.776,216.285,400.802,199.104,397.218,181.938z
	 M417.696,130.098c1.867-3.838,3.574-8.747,2.869-12.879c-0.135-0.206-0.188-0.447-0.142-0.686c-0.51-2.099-1.702-3.961-3.903-5.323
	c-7.408-4.587-16.783-1.11-23.38,3.727C403.36,116.141,412.937,120.747,417.696,130.098z M428.573,111.184
	c0.297-0.935,0.228-2.035-0.396-3.334c-1.579-3.293-4.747-5.604-8.009-7.152c-1.992,2.597-2.38,5.297-1.774,8.768
	c0.019,0.105,0.015,0.207,0.001,0.305c2.356,1.358,3.738,3.283,4.405,5.514c1.135-0.324,2.3-0.765,3.297-1.353
	C427.272,113.238,428.206,112.34,428.573,111.184z M167.188,212.66c-1.798-3.197-3.017-6.742-3.439-10.641
	c-0.781-7.207,1.067-14.135,4.653-20.125c-6.555,2.395-14.049,5.977-16.219,12.749C148.877,204.962,157.049,213.091,167.188,212.66z
	 M148.454,198.113c0.055-0.367,0.122-0.737,0.207-1.113c0.132-0.582,0.298-1.14,0.478-1.686c-0.108-0.039-0.212-0.087-0.3-0.158
	c-0.99-0.799-2.064-1.547-3.291-1.931c-0.414-0.129-0.729-0.202-1.202-0.226c0.027,0.008-0.395,0.014-0.47,0.023
	c-0.065,0.008-0.084,0.007-0.084,0.004c-0.027,0.008-0.065,0.018-0.125,0.033c-0.096,0.025-0.19,0.053-0.283,0.083
	c-0.002,0.001-0.003,0.001-0.005,0.002c-0.063,0.028-0.348,0.19-0.372,0.194c-0.118,0.08-0.236,0.16-0.345,0.254
	c-0.017,0.015-0.023,0.02-0.035,0.029c-0.01,0.012-0.015,0.018-0.029,0.032c-0.05,0.052-0.099,0.104-0.146,0.158
	c-0.32,0.374-0.655,0.996-0.75,1.417c-0.168,0.744-0.185,1.195,0.009,1.836c0.149,0.492,0.483,1.021,0.832,1.281
	c0.543,0.404,1.171,0.593,1.715,0.59c1.11-0.005,2.048-0.22,3.113-0.621C147.687,198.197,148.082,198.098,148.454,198.113z
	 M181.429,223.85c0.697-0.063,1.26,0.064,0.922,0.515c-0.012,0.017-0.024,0.032-0.036,0.048c6.184,3.967,13.238,6.503,20.456,7.873
	c15.936,3.024,32.292,4.312,48.501,3.57c25.725-1.176,50.662-6.372,74.604-15.762c22.294-8.743,44.567-19.421,63.651-34.045
	c15.501-11.877,36.897-33.283,25.436-54.661c-2.894-5.397-7.421-9.566-12.76-12.235c-2.45-1.225-5.073-2.123-7.786-2.688
	c-0.882-0.184-1.77-0.344-2.668-0.454c-0.228,0.184-0.45,0.369-0.669,0.555c-0.551,0.469-3.311,0.742-2.637,0.168
	c0.36-0.307,0.735-0.609,1.115-0.911c-0.464-0.028-0.927-0.053-1.386-0.066c-0.483,0.664-2.231,1.098-2.669,0.488
	c-0.108-0.151-0.224-0.311-0.34-0.472c-11.146,0.461-21.078,5.233-30.199,11.528c-1.519,1.048-3.016,2.138-4.491,3.258
	c-0.64,0.485-1.275,0.975-1.907,1.47c-11.317,8.869-24.076,14.668-37.564,18.559c-3.691,1.064-7.438,1.985-11.225,2.786
	c-23.545,4.978-48.65,5.317-71.852,6.636c-0.212,0.012-0.365,0.004-0.482-0.017c-12.587-1.054-27.397,0.343-39.34,6.201
	c-3.398,1.667-6.563,3.696-9.379,6.133c-2.306,1.995-4.379,4.26-6.151,6.827c0.249,0.525-0.021,1.299-0.983,1.625
	c-0.031,0.011-0.063,0.021-0.095,0.032c-1.021,1.673-1.931,3.452-2.694,5.366c-5.119,12.827-1.175,26.831,9.591,35.457
	C179.372,222.419,180.39,223.15,181.429,223.85z M166.681,244.51c24.47-3.296,48.958-5.676,73.432-7.156
	c-3.964-0.011-7.928-0.123-11.887-0.377c-12.531-0.805-25.989-1.838-37.876-6.234c-3.215-1.189-6.404-2.695-9.402-4.513
	C176.306,232.412,171.62,238.562,166.681,244.51z M394.277,273.015c1.978-8.266,3.676-17.946-3.726-23.761
	c-10.355-8.097-26.42-6.617-39.104-6.018c-16.005,0.708-32.591-0.951-48.591-2.02c-15.383-1.036-30.775-2.042-46.229-2.461
	c-38.272,1.704-76.604,5.564-114.848,11.768c-16.669,2.694-34.174,7.041-50.9,8.291c-11.994,0.809-32.43,0.974-41.207,11.711
	c-6.39,7.822-2.481,17.1-0.301,24.854C163.833,261.293,280.706,254.041,394.277,273.015z M392.911,277.121
	c-0.018-0.221,0.185-0.399,0.496-0.537c0.108-0.446,0.22-0.9,0.333-1.361c-2.704-0.45-5.409-0.879-8.117-1.3
	c-3.495-0.543-6.993-1.06-10.495-1.553c-0.001,0.005-0.003,0.011-0.004,0.017c-1.078,3.559-0.645,7.619,1.911,10.561
	c0.928,1.068,2.143,1.98,3.656,2.674c0.402-0.152,0.883-0.211,1.338-0.176c0.563,0.044,1.072,0.232,1.331,0.571
	c0.115,0.151,0.177,0.332,0.172,0.543c0.651,0.135,1.26,0.191,1.842,0.202c3.824,0.074,6.153-2.357,7.088-5.439
	c-0.016-0.09-0.018-0.186,0-0.29c0.118-0.73,0.274-1.505,0.45-2.31C392.944,278.189,392.95,277.653,392.911,277.121z
	 M326.536,313.894c-2.728,4.089-8.573,8.011-14.893,10.229c-0.007,0.037-0.015,0.072-0.027,0.111
	c-0.001,5.118-0.082,10.207-0.707,15.292c-0.006,0.044-0.008,0.088-0.014,0.132c-0.023,0.191-0.115,0.361-0.243,0.51
	c20.253,1.479,40.469,3.975,60.473,6.795c-0.298-20.27,5.422-39.794,8.534-59.621c-3.958-1.212-6.608-3.669-7.892-6.67
	c-2.343,3.059-6.543,4.795-11.974,4.192c-5.539-0.603-9.187-3.368-10.834-6.987c-2.273,3.137-6.435,5.004-11.883,4.563
	c-5.553-0.436-9.263-3.097-10.992-6.672c-2.204,3.21-6.325,5.205-11.787,4.929c-5.567-0.27-9.341-2.821-11.152-6.35
	c-2.133,3.281-6.213,5.404-11.687,5.293c-5.577-0.102-9.411-2.543-11.303-6.021c-2.062,3.352-6.097,5.603-11.58,5.66
	c-5.585,0.066-9.479-2.261-11.452-5.685c-1.989,3.419-5.98,5.795-11.467,6.021c-5.59,0.24-9.542-1.97-11.595-5.337
	c-1.916,3.483-5.859,5.983-11.352,6.377c-5.595,0.412-9.603-1.68-11.732-4.989c-1.841,3.547-5.735,6.173-11.229,6.736
	c-5.597,0.587-9.657-1.381-11.864-4.625c-1.133,2.312-3.124,4.262-5.855,5.562c-1.055,0.503-2.209,0.915-3.478,1.204
	c-0.57,0.13-1.157,0.24-1.769,0.322c-0.954,0.13-1.854,0.164-2.721,0.149c1.809,20.013,1.358,40.203,4.545,60.087
	c0.163,1.021-2.75,1.7-2.898,0.777c-3.246-20.26-2.712-40.838-4.646-61.222c-2.527-0.591-4.537-1.859-5.942-3.601
	c-0.117-0.146-0.223-0.301-0.331-0.453c-0.31,0.671-0.681,1.316-1.129,1.927c-2.002,2.724-5.357,4.774-9.842,5.517
	c-5.591,0.934-9.753-0.779-12.113-3.887c-1.613,3.719-5.351,6.709-10.832,7.791c-5.584,1.111-9.795-0.473-12.229-3.507
	c-1.535,3.771-5.216,6.881-10.689,8.136c-5.574,1.289-9.832-0.16-12.341-3.115c-1.457,3.82-5.082,7.049-10.544,8.477
	c-5.256,1.386-9.39,0.293-12.007-2.257c3.07,22.124,3.698,44.968,10.63,65.942c53.858-14.57,108.217-23.393,162.424-26.012
	c0.226-0.193,0.542-0.346,0.879-0.446c-0.393-0.579-0.768-1.386-1.146-2.287c-0.254,0.115-0.517,0.188-0.755,0.188
	c-8.707-0.006-14.595-6.977-11.288-15.574c1.733-4.506,5.035-7.699,9.034-9.074c0.396-0.277,0.732-0.437,0.984-0.437
	c0.143,0,0.319,0.009,0.512,0.021c2.727-0.604,5.705-0.406,8.693,0.751c0.458,0.177,0.6,0.419,0.555,0.667
	c0.344-0.055,0.646-0.041,0.813,0.089c3.895,3.028,6.344,8.311,5.873,13.245c-0.342,3.57-3.041,5.393-6.109,6.219
	c0.328,0.072,0.596,0.246,0.71,0.547c0.243,0.641,0.428,1.25,0.54,1.871c5.29-4.607,9.482-10.212,11.262-17.171
	c0.018-0.07,0.047-0.137,0.08-0.202c-0.002-0.001-0.004-0.002-0.005-0.004c-0.703-0.869,0.99-1.753,2.06-1.554
	c0.078-0.038,0.156-0.073,0.232-0.113c0.311-0.163,0.617-0.331,0.923-0.504c0.668-0.377,1.335-0.754,2.025-1.088
	c0.045-0.022,0.097-0.041,0.147-0.061c0.573-1.286,1.02-2.923,0.271-4.14c-0.307-0.498-0.664-0.87-1.172-1.123
	c-0.455-0.226-0.804-0.305-1.264-0.311c-0.061,0.005-0.287,0.014-0.328,0.02c-0.063,0.009-0.102,0.014-0.131,0.017
	c-0.009,0.004-0.025,0.01-0.065,0.021c-0.078,0.021-0.118,0.031-0.146,0.037c-0.01,0.005-0.02,0.01-0.041,0.019
	c-0.108,0.046-0.147,0.06-0.16,0.062c-0.01,0.007-0.021,0.015-0.042,0.027c-0.374,0.231-0.628,0.43-0.889,1.023
	c-0.646,1.473,0.209,3.291,0.995,4.535c0.693,1.098-2.113,2.072-2.68,1.176c-1.107-1.752-2.082-4.084-0.925-6.064
	c0.945-1.618,2.963-2.575,4.799-2.635c1.688-0.055,3.704,0.355,4.663,1.918c1.198,1.949,0.539,4.199-0.428,6.105
	c0.105,0.1,0.176,0.229,0.187,0.398c0.469,7.267-1.081,13.776-4.149,19.664c-0.596,1.143-1.244,2.264-1.951,3.36
	c0.04-0.001,0.079-0.001,0.119-0.001c6.477-0.086,12.963-0.021,19.451,0.18c1.217,0.038,2.432,0.078,3.648,0.125
	c5.354,0.206,10.708,0.498,16.061,0.863c0.002-0.029-0.004-0.055,0-0.086c0.424-3.391,0.592-6.785,0.664-10.186
	c0.004-0.197,0.011-0.394,0.015-0.59c-0.279,0.4-0.561,0.801-0.852,1.191c-2.483,3.334-5.431,6.299-8.962,8.559
	c-0.855,0.547-2.386,0.167-2.466-0.495c-0.028-0.235,0.122-0.505,0.556-0.782c4.818-3.083,8.44-7.523,11.269-12.438
	c-2.771,0.671-5.54,0.974-8.098,0.773c-2.79,3.844-5.414,7.854-8.987,11.029c-0.332,0.295-1.074,0.442-1.693,0.419
	c-0.784-0.029-1.368-0.336-0.652-0.972c2.895-2.572,5.133-5.715,7.369-8.852c0.479-0.673,0.961-1.344,1.447-2.012
	c-0.022-0.005-0.047-0.01-0.069-0.015c-4.534-1.071-8.021-4.103-8.988-9.966c-0.584,0.162-1.177,0.195-1.392-0.05
	c-0.838-0.953-1.756-1.886-2.842-2.559c-0.374-0.232-0.758-0.44-1.181-0.571c-0.073-0.021-0.427-0.102-0.401-0.106
	c-0.024-0.002-0.053-0.004-0.085-0.005c-0.063,0.057-0.15,0.136-0.176,0.163c-0.741,0.814-1.112,2.234-1.013,3.471
	c0.103,1.268,0.589,2.605,1.72,3.302c0.273,0.168,0.489,0.266,0.866,0.347c0.171,0.037,0.428,0.049,0.65,0.034
	c0.081-0.01,0.202-0.025,0.236-0.031c0.006-0.001,0.006-0.001,0.011-0.002c0.015-0.004,0.021-0.006,0.042-0.012
	c0.041-0.012,0.224-0.068,0.23-0.067c0.072-0.025,0.145-0.049,0.215-0.076c0.285-0.111,0.783-0.341,1.243-0.615
	c0.604-0.36,1.336-0.605,2.05-0.549c0.531,0.042,0.699,0.426,0.194,0.727c-2.284,1.36-5.837,2.881-8.394,1.308
	c-2.38-1.465-2.506-5.169-1.01-7.287c1.042-1.476,3.193-2.203,4.945-1.999c1.661,0.192,3.055,1.139,4.246,2.276
	c0.531-0.529,1.753-0.936,2.385-0.602c3.473,1.831,7.047,2.484,10.458,2.178c-0.075-0.128-0.104-0.287-0.05-0.488
	c1.017-3.828,3.953-6.781,7.333-8.681c0.354-0.199,0.719-0.257,1.038-0.216c-0.656-0.537-1.307-1.073-2.023-1.534
	c-6.86,4.297-14.656-1.318-15-9.435c-0.052-1.234,2.852-1.861,2.898-0.777c0.213,5.041,5.268,13.503,11.091,8.592
	c0.632-0.532,1.539-0.799,2.321-0.441c1.719,0.786,2.781,2.071,4.334,3.098c0.358,0.237,0.395,0.51,0.251,0.765
	c-0.325,0.579-1.599,1.065-2.317,0.843c-0.076-0.024-0.148-0.055-0.211-0.096c-0.135-0.089-0.255-0.19-0.385-0.284
	c0.048,0.21-0.005,0.443-0.188,0.673c-0.121,0.153-0.295,0.305-0.546,0.446c-2.573,1.444-4.896,3.905-5.667,6.806
	c-0.025,0.096-0.071,0.184-0.125,0.268c5.223-1.295,9.854-4.861,12.836-9.891c0.328-0.555,0.635-1.128,0.922-1.716
	c-1.726-1.299-3.406-2.682-4.889-4.235c-0.34-0.356,0.031-0.768,0.604-1.047c0.004-0.033,0.004-0.065,0.018-0.104
	c0.426-1.174,1.033-2.802,0.467-4.032c-0.517-1.123-1.816-0.971-2.835-0.803c-0.038,0.007-0.089,0.011-0.142,0.015
	c-0.68,2.325-2.201,4.49-4.855,4.64c-3.142,0.177-4.918-2.223-5.637-5.042c-0.039-0.154-0.016-0.302,0.049-0.439
	c-3.032,0.414-6.036,1.005-9.023,1.719c-0.174,0.041-0.346,0.087-0.52,0.129c-1.588,0.388-3.172,0.802-4.753,1.253
	c-1.736,0.495-2.114-0.959-0.389-1.451c1.286-0.367,2.575-0.707,3.866-1.033c2.428-9.428,19.203-13.839,23.058-3.276
	c0.283,0.776-0.607,1.371-1.485,1.455c0.039,0.094,0.062,0.197,0.046,0.324c-0.008,0.066-0.021,0.133-0.029,0.199
	c0.079-0.017,0.155-0.031,0.225-0.042c1.613-0.266,4.018-0.456,5.073,1.114c0.952,1.416,0.304,3.446-0.221,4.893
	c-0.084,0.232-0.326,0.431-0.635,0.583c1.902,1.955,4.105,3.647,6.312,5.236c0.285,0.205,0.132,0.479-0.115,0.71
	c-0.229,0.215-0.54,0.395-0.66,0.444c-0.419,0.176-0.923,0.278-1.378,0.191c-4.023,7.307-11.234,11.999-19.011,12.642
	c-0.017,0.002-0.033,0.002-0.05,0.004c-3.156,0.254-6.4-0.162-9.563-1.34c3.239,15.132,26.469,6.644,32.546-2.47
	C324.86,311.854,327.566,312.348,326.536,313.894z M293.249,291.162c-0.059,0.14-0.11,0.283-0.16,0.428
	c1.048-0.234,2.099-0.451,3.151-0.652c4.52-0.863,9.087-1.408,13.733-1.52C306.945,282.348,295.901,284.851,293.249,291.162z
	 M252.929,332.275c8.573-0.944,3.487-12.888-0.414-16.993c-0.031,0.018-0.057,0.036-0.092,0.054
	c-1.093,0.542-2.011,1.341-2.945,2.127l-1.65,1.856v0.581c0.047,1.158-0.045,2.333,0.287,3.457c0.097,0.328-0.036,0.623-0.287,0.859
	v0.436c0,0-0.184-0.054-0.466-0.126c-0.138,0.065-0.285,0.115-0.437,0.155c-0.003,0.001-0.005,0.002-0.008,0.003
	c-0.096,0.022-0.2,0.042-0.299,0.063c-0.966,0.209-2.07,0.365-2.92,0.834c-1.116,0.615-0.842,2.17-0.6,3.293
	c1.914,0.434,3.053,2.089,3.979,3.944c0.738,1.48,1.305,3.091,2.155,4.511c0.467,0.78,0.743,1.268,1.788,0.971
	c0.077-0.021,0.348-0.164,0.559-0.258c0.231-0.265,0.587-0.474,1.026-0.537c0.047-1.152-0.219-2.125-0.631-3.205
	c-0.142-0.371,0.067-0.707,0.425-0.955c-0.242,0.037-0.484,0.069-0.727,0.096C249.772,333.65,252.187,332.357,252.929,332.275z
	 M245.064,334.983c-1.312-0.242-3.054-0.621-4.675-1.153c1.275,0.751,2.855,1.239,4.767,1.37
	C245.126,335.127,245.095,335.056,245.064,334.983z M93.09,286.098v-0.036c-6.534,1.555-13.063,3.2-19.586,4.928
	c0.405,5.28,3.935,10.006,10.876,9.362c0.483-0.043,0.939-0.112,1.377-0.199c0.89-0.176,1.681-0.439,2.388-0.771
	c4.821-2.264,5.54-7.815,3.897-12.024C91.904,287.004,92.417,286.512,93.09,286.098z M116.292,281.004l0.003-0.091
	c-6.549,1.351-13.093,2.788-19.632,4.312c0.272,5.305,3.688,10.169,10.637,9.745c0.418-0.024,0.808-0.076,1.191-0.134
	c3.313-0.497,5.391-2.191,6.478-4.366c1.247-2.495,1.204-5.61,0.248-8.241C115.087,281.873,115.611,281.396,116.292,281.004z
	 M139.524,276.653c0.003-0.056,0.006-0.11,0.008-0.165c-6.558,1.146-13.112,2.375-19.663,3.693c0.106,4.426,2.403,8.613,7.158,9.8
	c0.976,0.243,2.043,0.375,3.229,0.34c3.046-0.079,5.202-1.113,6.618-2.649c2.367-2.569,2.656-6.547,1.552-9.828
	C138.304,277.484,138.837,277.025,139.524,276.653z M162.78,273.037c0.006-0.084,0.011-0.168,0.018-0.253
	c-6.565,0.942-13.13,1.963-19.691,3.078c-0.021,5.359,3.151,10.523,10.135,10.538c8.118,0.041,10.061-6.916,8.418-12.207
	C161.545,273.83,162.086,273.387,162.78,273.037z M186.047,270.156c0.01-0.118,0.02-0.236,0.032-0.355
	c-6.57,0.738-13.142,1.551-19.711,2.463c-0.179,5.387,2.869,10.703,9.873,10.938c8.094,0.296,10.187-6.592,8.662-11.926
	C184.798,270.908,185.347,270.483,186.047,270.156z M209.288,268.014c0.009-0.003,0.017-0.007,0.025-0.01
	c0.017-0.156,0.031-0.312,0.053-0.468c-5.822,0.474-11.646,1.028-17.469,1.638c-0.751,0.078-1.501,0.148-2.252,0.229
	c-0.337,5.404,2.581,10.868,9.6,11.322c8.063,0.546,10.305-6.267,8.904-11.641C208.053,268.72,208.596,268.318,209.288,268.014z
	 M231.385,267.616c-0.081-0.342,0.39-0.7,1.019-0.976c0.054-0.023,0.112-0.045,0.168-0.067c0.025-0.19,0.047-0.381,0.079-0.573
	c-6.572,0.332-13.147,0.76-19.723,1.265c-0.017,0.175-0.02,0.349-0.028,0.524c-0.274,5.248,2.539,10.525,9.344,11.174
	C230.278,279.758,232.665,273.028,231.385,267.616z M255.807,265.862c0.024-0.157,0.046-0.315,0.076-0.474
	c0.013-0.065,0.019-0.13,0.031-0.195c-6.565,0.128-13.134,0.349-19.704,0.649c-0.024,0.196-0.039,0.393-0.055,0.59
	c-0.408,5.243,2.283,10.616,9.074,11.479c0.43,0.056,0.835,0.079,1.232,0.092c1.097,0.035,2.073-0.088,2.94-0.339
	c4.685-1.354,6.124-6.456,5.2-10.801C254.521,266.492,255.093,266.123,255.807,265.862z M277.789,266.826
	c-0.073-0.375,0.507-0.728,1.227-0.965c0.045-0.254,0.08-0.506,0.14-0.76c-5.887-0.066-11.776-0.065-17.669,0.006
	c-0.671,0.009-1.343,0.021-2.015,0.031c-0.003,0.023-0.008,0.047-0.012,0.07c-0.798,5.399,1.698,11.248,8.728,12.357
	C276.144,278.849,278.822,272.29,277.789,266.826z M300.935,267.497c-0.063-0.377,0.523-0.712,1.246-0.928
	c0.053-0.261,0.094-0.521,0.162-0.783c0.006-0.021,0.021-0.039,0.03-0.059c-6.549-0.277-13.104-0.472-19.663-0.577
	c-0.998,5.412,1.332,11.436,8.4,12.771C299.026,279.438,301.84,272.977,300.935,267.497z M324.028,268.864
	c-0.055-0.378,0.538-0.693,1.266-0.887c0.059-0.259,0.106-0.517,0.18-0.776c0.014-0.046,0.041-0.09,0.073-0.133
	c-6.541-0.48-13.087-0.881-19.641-1.189c-1.163,5.389,1.013,11.535,8.08,13.092c1.05,0.234,2.007,0.314,2.885,0.281
	c1.125-0.043,2.111-0.287,2.964-0.689C323.304,276.924,324.573,272.688,324.028,268.864z M347.064,270.93
	c-0.048-0.377,0.552-0.674,1.282-0.844c0.063-0.257,0.117-0.514,0.197-0.77c0,0,0-0.001,0-0.002c0.021-0.067,0.071-0.13,0.133-0.189
	c-3.808-0.399-7.618-0.767-11.432-1.107c-2.73-0.243-5.462-0.484-8.195-0.697c-1.29,5.229,0.615,11.288,7.247,13.232
	c0.171,0.051,0.331,0.11,0.509,0.155c2.354,0.6,4.271,0.441,5.797-0.21C346.142,278.987,347.524,274.778,347.064,270.93z
	 M370.027,273.685c-0.038-0.38,0.568-0.658,1.303-0.807c0.069-0.254,0.129-0.509,0.214-0.762c0.018-0.051,0.048-0.1,0.09-0.146
	c0.024-0.027,0.061-0.052,0.092-0.076c-6.523-0.889-13.055-1.694-19.596-2.41c-0.022,0.079-0.045,0.158-0.064,0.236
	c-1.353,5.272,0.565,11.447,7.494,13.406C367.328,285.344,370.563,279.193,370.027,273.685z M53.922,304.586
	c1.825,1.492,4.344,2.287,7.587,1.882c1.771-0.215,3.203-0.732,4.368-1.443c0.343-0.21,0.661-0.436,0.956-0.679
	c1.229-1.015,2.045-2.297,2.501-3.702c-0.106-0.743-0.208-1.487-0.321-2.228c-0.077-0.489,0.266-0.987,0.767-1.379
	c-0.073-1.316-0.371-2.623-0.869-3.813c-0.146-0.347,0.354-0.854,1.017-1.289c-6.517,1.759-13.026,3.612-19.529,5.544
	c0.241,2.398,1.125,4.658,2.681,6.325c0.424,0.032,0.749,0.235,0.828,0.689C53.911,304.524,53.917,304.555,53.922,304.586z
	 M196.918,412.612l-0.825-4.675c-1.505-4.221-5.033-7.676-10.308-8.014c-0.131,0.047-0.246,0.078-0.328,0.08
	c-2.036,0.09-3.815,0.445-5.372,0.987c-2.134,1.358-4.566,3.29-6.357,4.784c-4.905,7.525,0.32,19.594,12.393,18.567
	c2.656-0.18,4.786-1.013,6.441-2.254c1.913-2.236,3.454-5.452,4.166-7.077C196.863,414.224,196.924,413.42,196.918,412.612z
	 M239.808,403.132c0.266-1.413,0.475-2.872,0.601-4.353c0.054-0.742,0.094-1.488,0.122-2.236c0.021-0.854,0.012-1.708-0.038-2.559
	c-0.125-2.126-0.133-4.182-0.063-6.119c-0.261-4.922-0.784-9.703-1.143-13.922c-0.026-0.311,0.25-0.58,0.642-0.78
	c-0.92-0.468-1.592-1.014-1.799-1.643c-0.035-0.108-0.076-0.215-0.082-0.327c-0.005-0.086,0.003-0.168,0.021-0.247
	c0.1-0.441,0.529-0.786,1.025-0.985c0.083-0.033,0.166-0.062,0.251-0.086c0.091-0.145,0.182-0.287,0.269-0.437
	c2.084-3.574,3.137-8.308,4.102-12.079c1.27-4.964,2.521-10.266,2.21-15.443c-54.756,2.673-109.669,11.686-164.061,26.58
	c-1.095,0.301-1.383-0.142-1.214-0.742c-0.109-0.102-0.202-0.228-0.259-0.395c-6.85-20.215-7.76-42.23-10.63-63.653
	c-1.839,1.868-4.358,3.396-7.524,4.33c-2.903,0.862-5.477,0.946-7.653,0.438c4.048,23.695,7.443,47.566,11.441,71.239
	c1.535,9.114,3.137,18.208,4.881,27.257c2.224-0.468,4.457-0.889,6.688-1.301c6.471-1.194,12.976-2.256,19.462-3.403
	c5.85-1.034,11.684-2.142,17.467-3.48c0.174-0.04,0.348-0.075,0.521-0.116c0.257-0.061,1.419-0.395,1.563,0.037
	c2.657,7.954,3.988,16.286,5.41,24.566c-0.018-0.248-0.036-0.497-0.055-0.745c6.166-1.309,12.331-2.616,18.455-4.085
	c2.031-0.488,4.071-0.973,6.084-1.553c0.44-0.127,0.881-0.262,1.319-0.403c-0.441-4.997,0.372-10.21,2.718-15.226
	c0.104-0.225,0.219-0.44,0.328-0.66c1.404-3.772,3.584-7.318,6.781-10.374c2.532-2.419,5.405-4.433,8.475-6.111
	c0.59-0.322,1.186-0.635,1.789-0.931c4.074-2,8.449-3.434,12.872-4.348c9.132-1.897,18.642-1.92,26.229,2.752
	c0.078,0.049,0.153,0.103,0.231,0.152c0.353,0.223,0.707,0.443,1.052,0.688c7.687,5.446,12.279,13.466,16.07,21.66
	C229.516,403.713,234.662,403.398,239.808,403.132z M241.07,420.766l-0.293-0.17c-0.809,0.088-1.621,0.103-2.422-0.024
	c-0.479-0.076-0.938-0.21-1.392-0.362c-0.352,0.197-0.768,0.325-1.137,0.32c-0.076,0.142-0.151,0.284-0.211,0.434
	c-0.186,0.495-0.313,1.022-0.393,1.545c-0.187,1.207-0.284,2.452-0.183,3.674c0.105,1.274,0.465,4.885,2.432,4.933
	c0.905,0.022,2.288-4.433,2.541-5.346C240.469,424.127,240.835,422.455,241.07,420.766z M242.292,374.088
	c-0.009-0.003-0.018-0.006-0.027-0.009c0.003,0.029,0.006,0.058,0.008,0.087C242.28,374.137,242.285,374.115,242.292,374.088z
	 M245.29,423.364c-0.555-0.342-1.082-0.713-1.551-1.132c-0.08,0.459-0.17,0.918-0.27,1.376
	C243.984,423.334,244.587,423.225,245.29,423.364z M249.935,425.039c-1.17-0.143-2.341-0.512-3.438-1.023
	c0.214,0.621-0.987,1.407-1.886,1.395c-0.076,0.142-0.151,0.283-0.212,0.433c-0.186,0.495-0.313,1.022-0.393,1.545
	c-0.186,1.208-0.283,2.453-0.183,3.674c0.106,1.275,0.466,4.886,2.433,4.934c0.904,0.022,2.288-4.433,2.541-5.347
	C249.307,428.811,249.708,426.935,249.935,425.039z M264.077,373.486c1.268-6.507,2.522-13.73,1.437-20.416
	c-0.405-2.495-1.146-4.912-2.329-7.19c-0.007-0.013-0.015-0.025-0.021-0.038c-0.557,0.597-1.127,1.188-1.715,1.771
	c-0.847,0.84-3.669,0.513-2.396-0.748c8.285-8.211,13.454-17.979,12.85-29.809c-0.716,0.432-1.554,0.919-2.368,1.23
	c-2.276,8.582-7.825,15.232-14.781,20.567c-0.271,0.208-0.608,0.307-0.946,0.325c-1.09,0.827-2.945,1.428-4.498,1.281
	c-0.188-0.018-0.37-0.048-0.547-0.088c0.012,0.124,0.021,0.249,0.031,0.374c0.467,5.839-0.936,11.926-2.512,17.479
	c-1.171,4.124-2.301,9.263-4.965,12.776c1.643,1.416,8.329,2.564,9.32,2.731c0.668,0.112,1.346,0.216,2.025,0.312l5.524,0.395
	C260.19,374.41,262.171,374.132,264.077,373.486z M375.599,408.968c5.609-40.167,11.694-82.677,18.104-123.968
	c-2.343,2.27-5.941,3.476-10.398,3.049c-3.243,19.827-9.167,39.41-8.668,59.736c0.104,0.176,0.091,0.377-0.013,0.58
	c-0.141,1.229-2.484,1.701-3.239,0.936c-34.427-4.82-69.496-8.741-104.308-8.176c-0.643,0.873-1.32,1.732-2.03,2.576
	c0.187,0.045,0.339,0.127,0.423,0.268c5.275,8.793,3.241,20.086,1.378,29.611c0.279,0.368,0.18,0.858-0.68,1.205
	c-0.24,0.098-0.483,0.183-0.726,0.271c0.891,9.38,0.582,18.544-1.518,27.233C301.374,401.538,338.688,403.679,375.599,408.968z
	 M422.892,445.754l-4.283-6.73C419.767,441.412,421.208,443.666,422.892,445.754z M439.272,457.905
	c-3.575-2.043-7.829-4.654-10.728-6.46C431.732,454.066,435.362,456.248,439.272,457.905z M460.571,428.249l-2.848-6.96
	c-1.106-1.35-2.543-2.504-4.324-3.354c-0.135-0.005-0.251-0.02-0.328-0.048c-0.332-0.119-0.649-0.205-0.973-0.305
	c-1.34-0.314-2.728-0.602-3.987-0.791c-14.228-1.027-16.1,19.295-1.423,23.846c2.674,0.875,5.013,0.852,6.979,0.207
	c0.407-0.156,0.801-0.314,1.168-0.469C459,438.321,461.102,433.222,460.571,428.249z M437.555,398.33
	c-2.151,0.523-4.205,1.31-6.097,2.431c-0.532,0.315-1.037,0.649-1.53,0.993C432.352,400.524,435.011,399.287,437.555,398.33z
	 M540.853,430.236c-1.005,1.314-2.066,2.496-3.045,3.189c1.29,0.701,2.558,1.449,3.789,2.267c1.756,1.166-1.135,2.105-2.354,1.298
	c-8.604-5.701-20.359-9.772-30.32-11.596c-9.852-1.791-10.607,6.736-12.416,13.586c7.421,2.617,14.768,5.475,22.157,8.217
	c0.507,0.189,0.758,0.429,0.83,0.674c7.747,2.623,18.71,8.686,22.402-0.176C543.878,442.926,545.423,434.866,540.853,430.236z
	 M536.396,431.795c0.01-0.011,0.021-0.022,0.032-0.035c-0.016,0.012-0.032,0.021-0.046,0.032
	C536.12,431.984,536.049,432.158,536.396,431.795z M537.257,431.873c0.304,0.128,0.539,0.305,0.623,0.534
	c-0.136-0.372-0.302-0.584-0.476-0.708c-0.293-0.209-0.606-0.146-0.848-0.016C536.81,431.721,537.048,431.785,537.257,431.873z
	 M546.024,403.855c0.41-5.85,0.393-12.254-3.794-17.72c-3.748-4.888-8.045-9.28-10.682-14.727
	c-10.295-21.025-3.355-42.179-7.667-63.495c-4.881-1.442-9.855-3.851-13.744-5.257c-36.164-13.254-73.793-20.571-111.244-26.891
	c-7.122,44.251-13.879,90.239-20.082,133.493c-0.008,0.055-0.016,0.109-0.023,0.164c1.074,0.16,2.148,0.321,3.222,0.486
	c10.875,1.668,21.712,3.622,32.507,5.85c1.227-3.581,3.189-6.934,5.959-9.831c2.48-2.596,5.322-4.595,8.407-6.071
	c0.771-0.438,1.57-0.848,2.419-1.205c7.537-3.18,16.284-3.354,24.65-1.764c9.51,1.797,18.844,5.674,24.479,13.672
	c5.57,7.908,7.519,17.015,8.668,25.98c0.16,0.009,0.319,0.031,0.473,0.081c1.281,0.417,2.56,0.845,3.835,1.28
	c1.907-7.301,3.198-15.386,13.035-15.002c0.435,0.018,0.875,0.053,1.317,0.098c1.06,0.104,2.137,0.277,3.225,0.506
	c4.568,0.96,9.299,2.847,13.502,4.303c0.433,0.149,0.865,0.305,1.297,0.457c0.236,0.084,0.474,0.166,0.71,0.251
	c1.933,0.694,3.85,1.435,5.739,2.239c0.878,0.375,1.749,0.764,2.611,1.172c0.228-0.162,0.584-0.252,0.979-0.273
	c0.224-0.014,0.456-0.005,0.685,0.025c0.154-0.171,0.364-0.417,0.642-0.764c0.592-0.738,1.172-1.483,1.668-2.291
	c1.137-1.852,2.189-3.758,3.019-5.774C544.304,416.831,545.563,410.473,546.024,403.855z M511.728,319.391
	c0.363,7.184,0.229,14.318-0.023,21.423c-0.252,7.056-0.639,14.095-0.996,21.133c-0.03,0.592-0.166,1.471-0.318,2.476
	c-0.336,2.199-0.752,5.011-0.361,6.867c0.13,0.084,0.137,0.168,0.053,0.248c0.038,0.144,0.084,0.277,0.133,0.407
	c0.076,0.196,0.162,0.381,0.268,0.539c0.482,0.719-2.895,0.907-3.402,0.155c-0.171-0.254-0.301-0.553-0.398-0.883
	c-17.004-3.4-33.891-10.06-50.451-15.129c-8.652-2.649-17.307-5.005-26.148-6.847c-9.422-1.969-19.217-3.717-27.807-8.143
	c-0.223-0.116-0.333-0.171-0.265-0.403c5.348-17.563,3.752-36.69,11.251-53.667c0.061-0.138,0.229-0.246,0.457-0.331
	c0.206-0.077,0.461-0.133,0.74-0.169c1.157-0.151,2.689,0.035,2.479,0.507c-0.08,0.179-0.147,0.359-0.226,0.539
	c-0.01,0.021-0.019,0.045-0.028,0.066c0.059-0.006,0.115-0.01,0.168-0.012c0.066-0.002,0.131-0.003,0.186,0.001
	c8.247,0.55,16.6,2.143,24.836,4.093c4.81,1.139,9.58,2.397,14.266,3.643c3.556,0.942,7.116,1.924,10.672,2.947
	c11.904,3.426,23.74,7.373,35.054,12.376c2.454,1.085,4.931,2.194,7.247,3.526C511.774,316.288,511.591,316.726,511.728,319.391z
	 M508.096,321.419c-0.106-2.357,0.558-4.755-2.161-6.246c-2.039-1.122-4.149-2.133-6.289-3.076
	c-14.799-6.503-30.447-11.288-46.034-15.339c-8.313-2.167-16.89-4.409-25.479-5.907c-0.935-0.163-1.87-0.319-2.806-0.464
	c-3.048-0.471-6.094-0.831-9.127-1.054c-5.385,13.214-5.445,27.688-8.191,41.556c-0.569,2.899-1.158,5.813-2.021,8.646
	c-0.23,0.758,0.176,1.429,0.908,2.021c1.92,1.553,6.156,2.541,7.592,2.98c4.909,1.467,9.896,2.572,14.897,3.635
	c2.874,0.61,5.754,1.208,8.626,1.852c15.346,3.441,30.365,9.162,45.508,14.07c5.555,1.801,11.125,3.495,16.735,4.923
	c2.065,0.525,4.138,1,6.214,1.446c-0.165-2.265,0.486-5.184,0.557-6.67c0.315-6.813,0.689-13.615,0.924-20.439
	C508.197,336.075,508.424,328.77,508.096,321.419z M530.427,424.532c-0.883-0.017-1.68-0.136-2.416-0.324
	c-0.043-0.009-0.086-0.017-0.129-0.026c-0.174-0.043-0.34-0.103-0.503-0.173c-4.983-1.687-6.317-7.345-5.229-13.116
	c0.003-0.015,0.006-0.029,0.009-0.043c0.074-0.393,0.16-0.785,0.258-1.178c0.01-0.039,0.021-0.078,0.03-0.116
	c0.093-0.368,0.194-0.736,0.306-1.103c0.02-0.062,0.041-0.123,0.061-0.185c0.107-0.343,0.221-0.684,0.344-1.021
	c0.031-0.086,0.066-0.17,0.099-0.256c0.118-0.313,0.24-0.624,0.372-0.932c0.045-0.107,0.096-0.212,0.143-0.318
	c0.127-0.283,0.254-0.565,0.391-0.843c0.063-0.124,0.129-0.245,0.192-0.368c0.131-0.255,0.263-0.509,0.403-0.757
	c0.079-0.141,0.164-0.275,0.246-0.413c0.134-0.224,0.267-0.449,0.407-0.666c0.099-0.152,0.203-0.298,0.306-0.447
	c0.134-0.195,0.266-0.393,0.406-0.581c0.115-0.157,0.238-0.307,0.359-0.459c0.134-0.17,0.267-0.344,0.405-0.508
	c0.134-0.157,0.274-0.305,0.412-0.455c0.135-0.148,0.267-0.3,0.405-0.44c0.15-0.153,0.308-0.294,0.462-0.438
	c0.135-0.126,0.267-0.258,0.405-0.377c0.165-0.144,0.338-0.273,0.508-0.406c0.135-0.107,0.268-0.221,0.405-0.32
	c0.179-0.13,0.364-0.244,0.548-0.362c0.137-0.088,0.27-0.184,0.408-0.266c0.191-0.112,0.387-0.206,0.582-0.306
	c0.139-0.07,0.275-0.15,0.416-0.215c0.202-0.092,0.41-0.164,0.616-0.242c0.14-0.053,0.276-0.115,0.418-0.162
	c0.218-0.07,0.44-0.119,0.663-0.174c0.136-0.033,0.269-0.077,0.406-0.104c0.243-0.048,0.492-0.071,0.741-0.098
	c0.12-0.014,0.237-0.038,0.359-0.047c0.372-0.024,0.748-0.026,1.129-0.002c0.519,0.036,0.911,0.163,1.181,0.331
	c-0.227-0.553,0.863-1.132,2.026-0.871C551.95,398.732,540.876,424.833,530.427,424.532z M539.398,397.883
	c-0.358-0.287-0.771-0.514-1.28-0.628c-0.367-0.081-0.631-0.186-0.822-0.299c0.172,0.294,0.083,0.61-0.292,0.803
	c-0.257,0.132-0.638,0.206-1.154,0.171c-0.266-0.018-0.521,0.002-0.776,0.024c-2.722,0.242-4.872,2.685-6.413,5.447
	c-1.281,2.297-2.145,4.803-2.566,6.42c-0.263,1.04-0.56,3.777-0.395,6.497c0.056,0.928,0.167,1.852,0.351,2.708
	c0.661,3.073,2.272,5.243,5.758,3.353c4.41-2.365,6.873-7.67,8.116-12.192C540.487,408.146,542.415,400.298,539.398,397.883z
	 M333.977,338.387c-0.023,0.688,0.79,0.846,1.563,0.688c0.68-0.139,1.328-0.521,1.345-1.013c0.45-13.211-4.888-22.85-11.671-33.722
	c-0.352-0.563-1.6-0.385-2.3,0.1c-0.409,0.282-0.632,0.668-0.38,1.072C329.16,316.135,334.417,325.501,333.977,338.387z
	 M152.452,303.309c1.498,1.428,2.421,3.451,2.293,5.78c-0.418,7.584-5.977,14.617-10.879,20.036
	c-5.616,6.209-11.917,11.616-19.525,15.263c-5.859,2.809-12.972,5.89-19.611,4.747c-0.935-0.16-1.813-0.482-2.615-0.92
	c-2.175,1.046-4.926,0.914-6.421-1.041c-0.554,0.326-1.179,0.52-1.827,0.385c-0.66-0.137-1.3-0.588-1.388-1.311
	c-0.087-0.719,0.187-1.435,0.805-1.85c0.502-0.338,1.043-0.492,1.599-0.523c0.301-1.531,1.395-2.955,2.539-4.129
	c-0.002-0.001-0.005-0.002-0.007-0.004c-2.685-2.129-1.896-6.206,1.377-7.634c0.201-0.088,0.376-0.191,0.555-0.292
	c1.906-6.883,9.172-9.11,15.003-11.914c8.803-4.229,13.791-13.269,22.729-17.26c0.217-0.097,0.438-0.129,0.643-0.116
	c1.557-1.604,3.307-1.507,5.146-0.694c1.114-1.752,2.798-3.17,4.802-3.719c-0.409-0.876-0.459-1.744-0.094-2.749
	c0.149-0.412,0.723-0.683,1.132-0.687c1.397-0.017,3.312,0.25,4.202,1.488c0.878,1.219,0.131,2.432-0.834,3.295
	c0.512,0.979,0.634,2.287,0.512,3.594C152.578,303.148,152.526,303.231,152.452,303.309z M94.606,345.451
	c-0.019,0.003-0.021,0.004-0.055,0.009c0.026-0.004,0.029-0.004,0.049-0.007C94.603,345.452,94.604,345.451,94.606,345.451z
	 M94.944,345.703c-0.021-0.078-0.049-0.156-0.064-0.234c-0.05-0.007-0.099-0.014-0.17-0.019c-0.01-0.001-0.006-0.001-0.013-0.002
	c-0.01,0.026-0.018,0.052-0.023,0.074c-0.008,0.047-0.018,0.094-0.019,0.142c0,0.019-0.002,0.015-0.004,0.02
	c0.004,0.012,0.004,0.011,0.009,0.033c0.013,0.057,0.033,0.111,0.052,0.167c0.075-0.062,0.168-0.138,0.138-0.108
	C94.878,345.748,94.914,345.729,94.944,345.703z M149.539,296.433c0.009,0.465,0.173,0.895,0.475,1.353
	c0.037,0.056,0.063,0.111,0.083,0.166c0.265,0.056,0.51,0.133,0.727,0.241c0.29-0.351,0.419-0.755,0.003-1.165
	C150.497,296.703,150.024,296.528,149.539,296.433z M145.079,301.354c0.214-0.044,0.418-0.096,0.641-0.131
	c1.675-0.264,3.313,0.02,4.728,0.701c-0.04-0.659-0.154-1.346-0.41-1.906c-0.012-0.008-0.027-0.008-0.039-0.017
	c-0.17-0.122-0.229-0.285-0.242-0.452c-0.149-0.202-0.329-0.371-0.544-0.496c-0.42,0.114-0.874,0.068-1.126-0.229
	C146.875,298.961,145.8,300.21,145.079,301.354z M104.719,326.736c0.048-0.004,0.094-0.013,0.142-0.015
	c2.321-0.083,3.016-0.033,4.831-1.785c1.176-1.135,1.44-1.196,3.082-1.352c2.979-0.281,4.351-3.243,7.508-3.731
	c3.59-0.554,3.209-4.748,6.285-6.271c0.934-0.462,1.53-0.688,2.581-0.544c0.545,0.074,1.771-3.931,2.418-4.502
	c0.723-0.638,3.662-1.134,4.045-1.862c0.311-0.591,0.564-1.299,0.851-1.994c-6.912,3.755-11.394,10.644-18.057,14.854
	C114.327,322.109,108.463,323.456,104.719,326.736z M98.509,338.019c1.856-4.897,6.549-7.778,11.375-9.536
	c7.848-3.92,17.01-7.689,22.323-15.014c1.381-1.904,2.56-3.837,3.822-5.598c-0.271,0.247-0.534,0.444-0.784,0.563
	c-2.903,1.377-2.412,3.957-4.787,5.397c-0.5,0.304-1.205,0.504-1.79,0.491c-2.247-0.049-2.344,1.872-3.152,3.218
	c-0.914,1.52-1.66,2.72-3.398,3.228c-1.955,0.57-3.764,0.938-5.034,2.83c-0.329,0.49-1.169,1.049-1.796,1.217
	c-1.385,0.371-3.264-0.254-4.268,1.283c-0.768,1.176-0.805,1.133-1.978,1.983c-0.535,0.388-1.46,0.392-2.06,0.379
	c-2.168-0.047-1.798,0.106-2.971,1.817C102.233,332.874,95.636,334.674,98.509,338.019z M100.549,347.116
	c-1.493-1.322-2.496-3.143-2.685-5.153c-0.643,0.904-1.059,1.918-0.79,2.945C97.532,346.663,98.936,347.561,100.549,347.116z
	 M151.46,305.275c-1.649-2.417-4.313-3.451-6.933-2.947c-0.014,0.026-0.028,0.055-0.041,0.08c-0.143,0.29-0.738,0.479-1.269,0.544
	c-0.327,0.173-0.749,0.295-1.081,0.297c-0.396,0.234-0.785,0.501-1.158,0.816c-2.688,2.271-4.079,5.211-5.927,8.11
	c-5.261,8.255-15.421,12.48-23.833,16.68c-0.102,0.066-0.243,0.135-0.439,0.205c-4.161,1.5-9.604,4.955-10.638,9.726
	c0.186,0.228,0.19,0.546-0.141,0.896c-0.074,0.785-0.035,1.602,0.156,2.45c1.406,6.245,7.857,7.001,13.229,5.491
	c14.248-4.004,26.8-13.839,34.674-26.378C150.672,317.084,154.777,310.136,151.46,305.275z" fill="#0a1230"></path>
</svg>