<?xml version="1.0" standalone="no"?>
<svg version="1.1" id="Layer_1" xmlns="http://www.w3.org/2000/svg" xmlns:xlink="http://www.w3.org/1999/xlink" x="0px" y="0px" width="595.279px" height="595.281px" viewBox="0 0 595.279 595.281" enable-background="new 0 0 595.279 595.281" xml:space="preserve">
<path id="color_x5F_2" fill="#6c63ff" d="M332.45,161.702c0.612-0.221,1.206-0.463,1.786-0.72c-0.618,0.388-1.063,0.638-1.318,0.776
	C332.762,161.738,332.607,161.72,332.45,161.702z M338.313,128.669c-1.839,3.612-3.777,7.348-5.874,11.009
	c-2.088,4.957-4.463,9.575-7.1,12.21c-1.428,1.428-2.903,2.647-4.358,3.696c-1.916,2.003-4.274,4.154-6.83,5.637h5.854l3.419,0.18
	c2.294-0.067,4.574-0.056,6.828,0.099c14.479-4.234,19.299-21.098,21.992-34.348c0.047-0.229,0.401-0.43,0.844-0.575
	c0.025-0.129,0.048-0.249,0.069-0.36c-3.228-4.237-5.94-8.833-7.869-13.825C343.929,118.258,340.488,124.394,338.313,128.669z
	 M433.148,303.721c-1.014,0-2.063,0-3.031,0C431.189,303.779,432.218,303.777,433.148,303.721z M487.197,365.429
	c-1.226,1.361-2.713,2.477-4.332,3.426l-2.596,1.35c-2.433,1.115-5.002,1.976-7.374,2.76c-4.58,1.518-9.281,2.691-14.021,3.664
	c-0.626-0.52-1.913-0.182-2.406,0.476c-2.149,0.411-4.306,0.79-6.458,1.142c-7.358,1.197-14.795,1.981-22.241,2.342
	c-0.476-0.518-1.707-0.375-2.339,0.111c-4.777,0.205-9.862,0.273-14.421-1.035c-0.115-0.033-0.242-0.041-0.374-0.039
	c-0.001-1.188-0.002-2.377,0.002-3.566c0.028-10.447,0.218-20.895,0.413-31.339c0.196-10.447,0.432-20.894,0.688-31.339
	c0.104-4.291-0.072-8.721,0.273-13.02l0.551-0.393c1.361-0.207,2.723-0.434,4.084-0.652l1.009,0.672
	c-0.086,0.061-0.169,0.131-0.252,0.197c-0.776,0.264-1.408,0.771-0.988,1.172c2.523,2.403,8.328,3.497,11.658,3.945
	c5.725,0.77,11.74-1.137,17.06-3.018c2.715-0.959,5.355-2.129,8.007-3.25c3.19-1.348,6.604-1.654,9.981-2.339
	c2.69-0.546,5.435-1.124,8.154-1.817c0.226,0.393,0.752,0.627,1.508,0.38c2.944-0.964,8.58,32.629,8.913,35.595
	c0.829,7.395,1.343,14.818,2.276,22.202C484.404,356.449,484.554,362.541,487.197,365.429z M447.955,363.333
	c-5.909-13.707-6.199-29.672-13.509-42.78c-0.485-0.87-3.253,0.14-2.898,0.776c7.312,13.109,7.601,29.074,13.51,42.779
	C445.438,364.99,448.272,364.068,447.955,363.333z M441.567,191.464c-0.059,0.146-0.11,0.293-0.167,0.438
	c1.769-3.148,3.515-6.064,4.436-7.584c-0.11,0.035-0.224,0.064-0.338,0.089c-0.063,0.085-0.133,0.178-0.22,0.293
	c-0.407,0.543-0.808,1.092-1.157,1.674C443.145,188,442.271,189.7,441.567,191.464z M413.462,288.792
	c0.297,0.064,0.567,0.17,0.789,0.348c1.8,0.869,3.465,2.225,3.598,4.301c0.103,1.624-0.813,2.948-2.064,4.01
	c0.818-0.128,1.639-0.244,2.457-0.376c3.663-0.591,7.331-1.205,10.957-1.996c-13.792-10.272-15.684-41.548-0.532-48.998
	c1.71-1.33,3.835-1.62,5.633-1.535c1.384-0.12,2.857-0.09,4.43,0.113l3.653-2.842c0.042-0.202,0.085-0.404,0.125-0.607v-1.49
	c0,0-0.069-0.085-0.186-0.239c-0.003-0.003-0.007-0.005-0.009-0.008c-0.01-0.012-0.017-0.024-0.024-0.036
	c-0.183-0.246-0.474-0.658-0.833-1.229c-7.888-11.768-8.443-29.844-4.063-42.792c1.308-3.866,2.97-8.685,6.051-11.581
	c0.076-0.071,0.19-0.16,0.333-0.255c-1.03-0.072-2.076-0.125-3.141-0.165c-0.525-0.02-1.999,0.086-3.646,0.141
	c-7.979,8.864-12.325,23.883-8.534,35.525c0.175,0.537-1.501,1.158-2.387,1.063c-5.479,1.678-11.37,2.822-17.076,2.993
	c-3.678,0.11-7.824,0.138-11.063-1.759c-0.369,0.073-0.697,0.075-0.867-0.06c-6.62-5.227-5.72-14.343-3.377-21.59
	c1.319-4.088,3.703-12.741,7.858-15.128c-2.281,0.345-4.599,0.7-6.794,1.283c0.259,0.062,0.234,0.207-0.421,0.479
	c0.294-0.122-1.179,1.738-1.567,2.368c-0.967,1.569-1.87,3.177-2.7,4.823c-2.493,4.95-4.641,10.124-6.132,15.469
	c-3.213,11.521-4.122,24.924,4.224,34.22c0.497-0.063,0.972,0.032,1.188,0.37c5.752,8.969,10.519,18.49,11.194,29.288
	c0.386,6.155-0.719,12.273-2.314,18.256c3.938-3.1,9.192-4.403,14.284-2.716C412.816,288.543,413.138,288.661,413.462,288.792z
	 M411.104,221.168c-2.934-0.073-6.683-0.252-9.639-0.677C404.311,221.614,407.926,221.508,411.104,221.168z M445.113,184.47
	c-0.539,0.054-1.001-0.042-1.058-0.361C444.188,184.854,444.683,184.73,445.113,184.47z M425.994,286.512
	c-0.991-2.333-2.052-4.876-3.04-7.342C423.744,281.786,424.769,284.276,425.994,286.512z M133.759,91.757
	c-2.05,0.918-3.592,1.906-4.253,2.964c-0.256,0.409-0.511,0.955-0.765,1.595c0.32-0.411,0.655-0.814,1.011-1.207
	C130.937,93.802,132.293,92.7,133.759,91.757z M161.429,85.658c-2.204-0.375-4.422-0.438-6.423,0.063
	c-0.433,0.108-0.89,0.22-1.361,0.334C156.206,85.75,158.849,85.571,161.429,85.658z M143.087,109.701
	c1.922-2.641,9.734-3.975,12.017-4.584c3.8-1.015,7.565-1.812,11.365-2.406c5.052-0.917,10.522-1.313,12.632-1.439
	c-2.146-5.341-4.559-9.598-10.314-12.106c-6.403-2.792-14.556-1.915-21.244-0.715c-6.736,1.209-13.84,3.517-17.504,9.809
	c-2.925,5.024-3.825,10.83-4.223,16.582l14.189-4.119C140.006,110.721,141.207,110.321,143.087,109.701z M147.362,108.302
	c1.727-0.562,3.613-1.171,5.499-1.772C150.981,106.973,148.845,107.56,147.362,108.302z M204.083,316.428
	c-1.688-12.313-4.099-27.821-5.105-34.224c-0.234-0.745-0.487-1.482-0.762-2.211c-0.087-0.23,0.054-0.459,0.309-0.655
	c-0.012-0.074-0.019-0.117-0.019-0.117l-0.447,0.025c-2.849,0.253-5.698,0.507-8.547,0.763c-2.548,0.229-7.583,0.396-9.109,0.844
	c-0.398,0.117-0.719,0.105-0.973,0.032c-3.454,0.847-7.122,1.117-10.509,1.193c-5.979,0.133-11.454-0.095-17.355,0.896
	c-6.441,1.082-12.944,1.842-19.47,2.173c-1.884,0.096-4.153,0.262-6.588,0.376c-2.133,6.017-2.95,12.597-3.768,18.882
	c-1.305,10.023-2.193,20.1-2.91,30.182c-1.753,24.621-2.663,49.304-3.038,73.982c0.099,0.029,0.184,0.071,0.24,0.135
	c3.441,3.881,9.624,5.316,14.543,6.07c2.824,0.432,6.589,1.02,10.202,0.939c1.723-0.151,3.307-0.363,4.662-0.582
	c1.615-0.42,3.073-1.094,4.236-2.131c0.122-0.107,0.352-0.205,0.626-0.283c1.849-13.9,4.738-27.77,7.602-41.484
	c1.142-5.47,2.46-10.896,3.738-16.332c-0.028-0.303-0.065-0.605-0.091-0.908c-0.03-0.357,0.188-0.664,0.514-0.896
	c0.631-2.715,1.249-5.434,1.815-8.164c2.213-10.662,4.342-21.465,9.689-31.078c0.411-0.738,3.096-0.922,2.861-0.5
	c-5.35,9.618-7.464,20.415-9.689,31.079c-0.681,3.263-1.434,6.509-2.197,9.751c1.643,17.646,7.497,34.729,7.248,52.559
	c0.106,0.021,0.201,0.059,0.287,0.102c1.258,0.064,2.519,0.123,3.781,0.172c3.736-0.139,9.099-0.295,14.148-0.295
	c2.636,0,5.356-0.172,7.887-0.415c3.246-0.429,6.467-1.041,9.647-1.894c0.002-0.139,0.008-0.279,0.009-0.42
	c0.002-0.326,0.271-0.601,0.64-0.803c-0.382-24.465-1.248-48.947-3.027-73.352C204.837,325.369,204.482,320.896,204.083,316.428z
	 M138.215,220.197c0.853-0.711,1.702-1.387,2.291-1.976c0.297-0.297,0.642-0.498,1.008-0.638c-0.954,0.104-1.84,0.512-2.55,1.428
	C138.68,219.377,138.431,219.777,138.215,220.197z M174.831,169.173c-0.025-0.01,0.011-0.048,0.073-0.099l-0.532-0.29
	c1.552,2.468,2.626,5.819,3.377,7.798c2.68,7.063,4.325,14.345,4.465,21.916c0.004,0.209-0.218,0.391-0.537,0.538
	c-0.019,0.146-0.112,0.314-0.324,0.509c-4.203,3.865-11.485,3.601-16.786,3.399c-4.215-0.16-8.569-0.459-12.821-1.163
	c-4.141-0.292-7.24-0.561-7.24-0.561s-0.064-0.33-0.176-0.911c-0.627,0.058-1.141-0.025-1.02-0.281
	c0.649-1.369-0.726-4.888-1.03-6.248c-0.876-3.925-1.831-7.833-2.813-11.733c-1.213-4.813-1.882-10.696-3.978-15.242
	c-0.024-0.026-0.039-0.057-0.049-0.089c-0.168,0.033-0.337,0.071-0.505,0.107c-0.302,0.157-0.595,0.316-0.872,0.472
	c-0.09,7.646-0.59,15.278-0.581,22.927c0.007,5.511-0.16,10.917-3.449,15.576c-0.065,0.092-0.177,0.177-0.317,0.254
	c-0.242,9.653-0.745,19.299-0.779,28.958c-0.001,0.347-0.405,0.627-0.91,0.812c0.569,1.713,0.021,4.792-0.025,5.957
	c-0.191,4.927-0.465,9.852-0.535,14.783l3.748,1.606c0-4.467,0-8.933,0-13.399c-0.619-0.016-0.438-0.316,0-0.628
	c0-3.481,0-6.962,0-10.443c-0.22,0.021-0.44,0.038-0.661,0.059c-1.917,0.179,0.392-1.224,1.219-1.301
	c2.787-0.26,5.577-0.499,8.365-0.744c-4.133-1.723-7.079-5.978-5.035-10.636c1.752-3.994,5.813-5.386,9.76-4.805
	c-3.077-10.374,16.308-13.98,16.253-2.433c2.549-1.713,5.702-2.435,7.829,0.447c1.906,2.582,2.229,6.241,1.58,9.615
	c0.917-0.849,2.008-1.531,3.195-2.05l0.785-0.628h0.97c0.987-0.279,2.011-0.455,3.042-0.522c0.119-0.295,0.232-0.592,0.372-0.882
	c0.28-0.58,1.081-0.821,1.667-0.907c0.208-0.03,1.49-0.084,1.215,0.485c-0.216,0.447-0.405,0.908-0.576,1.375
	c3.89,0.467,7.404,2.554,8.583,6.448c0.064,0.211-0.361,0.469-0.903,0.667c2.101-0.108,4.202-0.218,6.304-0.315
	c-0.486-14.014-3.903-27.878-9.678-40.651c-2.003-4.43-4.188-8.817-6.83-12.907C177.81,172.676,176.441,169.782,174.831,169.173z
	 M163.983,213.799c-0.831,0.032-1.544,0.692-2.182,1.431C162.476,214.71,163.233,214.189,163.983,213.799z M160.131,216.631
	c-0.196,0.055-0.404,0.099-0.611,0.129c-0.004,0.283-0.014,0.46-0.014,0.46S159.742,216.986,160.131,216.631z M151.388,208.612
	c-0.785,0.214-1.446,0.536-1.995,0.936c1.371-0.582,3.209-0.971,5.204-0.893C153.65,208.338,152.565,208.29,151.388,208.612z
	 M189.292,188.229c0.613,1.464,1.195,2.938,1.751,4.422C190.544,191.146,189.949,189.667,189.292,188.229z"></path>
<path id="color_x5F_1" d="M157.994,118.11c-0.4,1.341-0.463,2.686-0.326,4.073c0.093,0.935-2.823,1.527-2.897,0.776
	c-0.147-1.489-0.083-2.97,0.347-4.409C155.369,117.706,158.237,117.295,157.994,118.11z M175.451,118.884
	c-0.429,1.439-0.494,2.92-0.347,4.409c0.074,0.751,2.99,0.159,2.897-0.776c-0.137-1.387-0.074-2.732,0.326-4.073
	C178.571,117.628,175.703,118.039,175.451,118.884z M157.845,112.358c0.671,0.073,1.562-0.23,1.895-0.858
	c0.338-0.637-0.292-1.046-0.854-1.107c-2.662-0.288-5.397,0.594-7.517,2.202c-1.571,1.192,0.815,1.993,1.884,1.182
	C154.588,112.763,156.156,112.175,157.845,112.358z M174.753,111.005c-0.567,0.101-1.366,0.699-1.188,1.362
	c0.195,0.73,1.143,0.686,1.709,0.585c0.919-0.164,1.764,0.147,2.347,0.867c0.815,1.007,3.576-0.13,2.655-1.267
	C178.9,110.852,176.781,110.644,174.753,111.005z M171.549,124.613c0.568,0.896,1.602,3.589,0.171,4.283
	c-0.322,0.156-1.246,0.666-0.777,1.148c0.435,0.448,1.432,0.255,1.916,0.021c1.253-0.607,2.201-1.461,2.412-2.894
	c0.193-1.312-0.343-2.605-1.03-3.687C173.733,122.683,170.915,123.615,171.549,124.613z M165.028,133.651
	c-1.265,2.745-3.34,6.573-6.708,6.718c-3.687,0.158-3.821-4.929-3.846-7.461c-0.011-1.141,2.185-1.616,2.785-0.727
	c0.064,0.004,0.122,0.013,0.17,0.029c1.647,0.554,3.354,0.623,5.068,0.604c0.586-0.929,2.71-1.005,2.804-0.033
	C166.173,132.849,165.705,133.307,165.028,133.651z M161.882,134.071c-1.469,0.032-2.942,0.041-4.389-0.145
	c0.147,1.709,0.512,4.537,1.247,4.28c0.709-0.247,1.353-1.198,1.761-1.777C161.03,135.681,161.476,134.887,161.882,134.071z
	 M417.748,137.639c0.147-1.496,0.105-2.962-0.326-4.41c-0.25-0.837-3.139-0.031-2.897,0.776c0.396,1.333,0.482,2.692,0.348,4.074
	C414.776,139.039,417.668,138.449,417.748,137.639z M397.089,133.563c-0.25-0.837-3.139-0.031-2.897,0.776
	c0.396,1.333,0.482,2.692,0.347,4.074c-0.095,0.959,2.797,0.37,2.877-0.44C397.563,136.477,397.521,135.011,397.089,133.563z
	 M414.015,127.644c1.851-0.2,3.619,0.519,5.075,1.625c0.938,0.713,3.53-0.622,2.256-1.59c-1.992-1.514-4.538-2.268-7.032-1.999
	c-0.607,0.066-1.505,0.409-1.611,1.114C412.595,127.495,413.499,127.7,414.015,127.644z M394.788,128.888
	c0.604-0.745,1.317-0.746,2.221-0.585c0.671,0.119,1.581-0.252,1.89-0.88c0.33-0.675-0.294-1.089-0.877-1.193
	c-2.057-0.365-4.296,0.157-5.65,1.831c-0.42,0.519-0.287,1.152,0.369,1.377C393.404,129.664,394.337,129.445,394.788,128.888z
	 M398.286,139.313c-1.273,2.006-1.713,4.934,0.799,6.152c0.613,0.298,1.503,0.055,2.051-0.275c0.392-0.235,0.879-0.814,0.259-1.115
	c-1.863-0.903-1.313-3.293-0.412-4.711C401.7,138.23,398.786,138.524,398.286,139.313z M406.989,148.608
	c0.065-0.045,0.142-0.076,0.212-0.116c-0.043-1.065,2.424-1.681,2.962-0.491c0.013,0.028,0.026,0.059,0.039,0.088
	c1.663,0.063,3.399,0.163,4.994-0.231c0.453-1.044,2.871-1.271,2.856,0.122c-0.027,2.921-0.457,7.84-4.47,7.667
	c-3.031-0.131-4.914-3.8-6.069-6.32c-0.11-0.001-0.223-0.002-0.334-0.003C406.594,149.321,406.55,148.907,406.989,148.608z
	 M410.778,149.345c0.775,1.624,1.91,3.599,3.387,4.106c0.258-0.352,0.442-0.81,0.543-1.231c0.259-1.088,0.355-2.188,0.391-3.299
	C413.669,149.217,412.231,149.323,410.778,149.345z M181.97,265.614C181.57,265.66,181.685,265.677,181.97,265.614L181.97,265.614z
	 M561.718,428.169c-9.341,0-18.684,0-28.023,0c2.021,3.041,4.486,5.73,7.671,8.279c7.693,6.158,15.695,12.19,10.951,22.863
	c-0.146,0.327-0.521,0.566-0.952,0.701c0.571,0.014,0.908,0.193,0.349,0.656c-6.362,5.279-10.508,13.98-15.578,20.429
	c-4.406,5.606-9.425,12.034-16.501,14.257c-0.317,0.1-1.229,0.301-1.505-0.027c-8.385-9.992,1.768-22.676-1.155-34.014
	c-1.951-7.568-7.021-14.58-11.564-20.813c-3.324-4.561-6.825-8.987-10.563-13.209c-23.118-0.066-46.212-1.523-69.327-1.641
	c0.039,0.094,0.077,0.188,0.117,0.283c2.803,6.648,5.611,13.297,8.512,19.904c0.711,0.047,1.952,0.15,3.535,0.357
	c2.577-0.642,5.289-0.957,8.103-0.867c0.652,0.021,0.882,0.236,0.861,0.511c0.321-0.106,0.641-0.153,0.887-0.101
	c14.515,3.183,22.827,17.258,18.752,31.643c-3.769,13.305-16.359,21.82-30.21,18.855c-13.882-2.973-22.831-15.166-19.034-29.397
	c2.244-8.415,7.729-14.993,14.944-18.563c-2.887-6.543-5.687-13.125-8.465-19.713c-0.425-1.006-0.844-2.014-1.267-3.019
	c-4.354,14.92-4.378,30.843-7.851,45.961c-2.3,10.009-6.98,21.718-19.379,18.833c-0.413-0.096-0.592-0.268-0.617-0.466
	c-11.899,0.415-24.352,6.735-35.918,1.345c-0.13-0.029-0.221-0.104-0.272-0.223c0.184-5.491,2.707-9.125,7.182-12.127
	c6.291-4.221,11.968-8.252,14.113-15.993c3.2-11.54,5.32-23.992,5.916-36.202c-0.285,0.1-0.541,0.167-0.688,0.167
	c-31.93,0.015-63.851,0.708-95.772,1.345c-0.473,5.881-0.964,11.762-1.429,17.645c0.359-0.135,0.725-0.2,1-0.139
	c14.535,3.188,23.01,17.275,19.7,31.771c-3.007,13.169-14.735,22.456-28.52,19.979c-14.382-2.582-24.113-14.826-20.171-29.601
	c3.206-12.021,13.017-20.294,25.063-21.38c0.479-6.073,0.987-12.145,1.475-18.219c-25.782,0.512-51.564,0.973-77.353,0.983
	c-1.447,0,1.227-1.235,1.865-1.235c25.198-0.01,50.392-0.451,75.584-0.947c0.739-9.307,1.382-18.614,1.664-27.932
	c-0.004-0.002-0.007-0.002-0.011-0.002c-1.642-0.504,0.109-2.15,1.394-2.049c0.013-0.002,0.025-0.005,0.038-0.008
	c-2.381-0.584-1.577,1.952-1.911-0.381c-0.15-1.045-0.343-2.082-0.557-3.115c-0.679-3.275-1.467-6.527-2.284-9.771
	c-1.347-5.352-2.766-10.687-4.219-16.01c-0.257,0.035-0.487,0.028-0.652-0.045c-9.946-4.511-21.951-1.096-30.913,4.373
	c0.872,0.957,1.674,1.989,2.383,3.118c0.372,0.591-2.356,1.638-2.897,0.776c-0.671-1.067-1.433-2.051-2.267-2.957
	c-0.598,0.011-0.973-0.111-0.452-0.469c-8.515-8.703-24.188-9.754-34.949-5.528c-0.132,0.052-0.271,0.087-0.411,0.112
	c0.48,12.24,0.793,24.486,0.975,36.731c0.005,0.345-0.293,0.632-0.699,0.839c-0.359,17.436-4.317,34.586-6.309,51.858
	c-0.872,7.556-2.701,15.517,4.96,19.903c4.976,2.849,10.768,4.816,14.918,8.896c0.622-0.031,1.163,0.172,1.134,0.725
	c-0.484,9.498-12.36,11.01-19.75,11.303c-7.896,0.314-18.469,0.641-25.894-2.225c-4.579-1.767-1.662-7.746-0.995-11.228
	c1.577-8.224-0.557-17.821-2.033-25.96c-1.681-9.271-3.714-18.482-5.14-27.768c-7.197,0.002-14.394,0.041-21.591,0.047
	c-1.77,6.51-3.825,12.933-5.864,19.363c-1.863,5.875-4.133,11.855-4.718,18.028c-0.916,9.647,0.213,20.567-3.74,29.663
	c-3.313,7.627-10.223,12.199-18.509,12.572c-10.05,0.451-17.436-9.986-13.589-19.406c1.184-2.898,2.756-5.541,4.645-8.039
	c1.289-1.703,3.266-3.48,4.123-5.439c0.863-1.975,1.188-4.186,1.436-6.311c0.925-7.908,0.87-15.953,0.734-23.9
	c-0.093-5.47-0.276-10.938-0.535-16.4c-27.196,0.002-54.392,0.049-81.588,0.051c-1.96,0-0.012-1.704,1.111-1.704
	c1.203,0,2.406-0.002,3.608-0.002c-0.417-14.531,15.967-23.644,29.417-21.681c-0.012-0.024-0.026-0.047-0.029-0.078
	c-1.424-14.598,15.955-21.355,27.431-15.389c2.937-8.027,11.081-12.412,19.268-13.605c0.346-0.051,0.588-0.051,0.758-0.021
	c0.487-13.852,1.177-27.697,2.161-41.52c0.752-10.571,1.605-21.155,3.016-31.662c0.857-6.391,1.655-13.07,3.869-19.173
	c-7.643,0.164-16.204-0.609-20.262-5.842c-9.306-11.997-8.817-27.753-8.804-42.184c0-0.126,0.042-0.244,0.107-0.354
	c-0.929-0.512-1.827-1.087-2.688-1.729c-0.717,0.118-1.403,0.001-1.348-0.512c1.688-15.511,1.498-33.745,9.149-47.787
	c3.408-6.255,8.806-10.222,15.22-13.156c5.693-2.604,11.434-5.766,17.483-7.669c0.46-0.333,1.236-0.528,1.806-0.522
	c0.885-0.237,1.776-0.447,2.676-0.618c0.836-5.432,0.96-10.984,0.945-16.471c-0.002-0.815,0.041-1.721,0.087-2.661
	c-0.277,0.02-0.518-0.014-0.667-0.128c-6.021-4.618-10.99-10.745-12.652-18.308c-0.549-2.501-0.172-5.421-0.465-7.974
	c-0.356-0.068-0.607-0.253-0.592-0.598c0.344-7.885,1.054-16.397,6.028-22.793c0.32-0.411,0.655-0.814,1.011-1.207
	c1.185-1.307,2.541-2.409,4.007-3.352c3.882-2.497,8.555-3.84,13.016-4.641c2.131-0.383,4.464-0.775,6.87-1.062
	c2.561-0.305,5.204-0.484,7.784-0.396c3.133,0.107,6.17,0.607,8.839,1.771c6.667,2.906,9.446,7.253,11.946,13.599
	c0.037,0.095,0.031,0.188,0.002,0.281c2.119-0.067,4.238-0.02,6.283,0.359c1.566,0.29,6.862,1.476,6.531,4.051
	c-0.443,3.438-7.397,4.011-11.448,4.411c1.092,6.555,1.988,13.267,1.595,19.917c-0.307,5.183-0.736,11.576-4.488,15.603
	c-3.224,3.46-7.443,5.204-11.945,6.093c0.146,0.545,0.131,1.207,0.181,1.691c0.172,1.667,0.325,3.335,0.485,5.003
	c0.218,2.253,0.12,5.063,0.839,7.288c0.33,0.018,0.599,0.117,0.711,0.318c0.162-0.023,0.303-0.029,0.401-0.005
	c0.009,0.002,0.018,0.004,0.026,0.006c0.181-0.008,0.34,0.01,0.455,0.074c0.031,0.017,0.06,0.041,0.09,0.059
	c7.575,1.822,15.269,3.925,22.221,7.512c5.431,2.802,13.272,7.263,15.892,13.197c3.62,8.199,3.31,17.851,6.069,26.331
	c0.068,0.21-0.245,0.45-0.685,0.645c0.103,0.088,0.171,0.204,0.185,0.355c0.186,1.995-0.69,3.325-2.174,4.186
	c0.332,0.01,0.593,0.102,0.674,0.314c0.332,0.869,0.586,1.757,0.807,2.654c2.412-5.658,7.532-10.14,13.274-7.125
	c0.047-0.124,0.125-0.256,0.257-0.401c2.824-3.098,9.726-7.808,12.862-2.271c2.714,4.792,0.28,10.411-3.306,14.011
	c0.065,0.092,0.105,0.202,0.105,0.338c-0.004,3.903-0.036,7.807-0.08,11.709c0.028,0.026,0.059,0.051,0.08,0.084
	c0.004,0.006,0.008,0.012,0.012,0.018c0.06,0.094,0.004,0.2-0.094,0.3c-0.088,7.813-0.225,15.626-0.318,23.44
	c0.175,0.04,0.319,0.114,0.4,0.242c0.004,0.006,0.008,0.012,0.012,0.018c0.116,0.183-0.203,0.414-0.423,0.548
	c-0.048,4.213-0.084,8.427-0.088,12.641c-0.001,0.745-1.776,1.286-2.545,0.903c-2.158,0.604-5.028,0.465-6.885,0.651
	c-6.151,0.616-12.308,1.174-18.464,1.728c-2.928,0.264-5.856,0.523-8.785,0.784c0.079,0.061,0.144,0.132,0.179,0.227
	c2.348,6.223,3.184,13.108,4.037,19.663c1.368,10.514,2.281,21.086,3.016,31.66c0.817,11.756,1.442,23.525,1.916,35.301
	c11.706-4.354,28.381-3.809,37.734,5.314c9.345-5.385,21.5-8.82,31.914-5.453c-0.788-2.863-1.583-5.725-2.388-8.582
	c-2.533-8.987-5.118-17.963-7.853-26.891c-0.91-2.97-1.82-5.943-2.819-8.886c-0.288-0.851-0.572-1.705-0.906-2.539
	c-0.04-0.101-0.064-0.181-0.083-0.255c-0.303-0.154-0.505-0.426-0.485-0.842c0.003-0.063,0.016-0.118,0.024-0.176
	c-0.862-0.022-1.604-0.174-1.952-0.594c-0.169-0.203-0.193-0.55-0.051-0.773c0.042-0.067,0.103-0.125,0.155-0.188
	c-2.976-1.328-5.719-3.568-7.143-6.111c-1.349-2.408-0.643-3.961,0.879-4.869c-1.708-0.641-3.318-1.697-3.689-3.508
	c-0.417-2.033,0.729-3.99,2.256-5.256c1.921-1.595,4.563-2.493,7.063-2.228c2.251,0.239,3.994,1.437,5.344,3.092
	c0.84-2.078,2.102-3.911,4.533-4.314c2.467-0.409,4.074,1.034,5.502,2.894c3.369,4.387,6.121,10.725,6.997,16.208
	c0.127,0.796-2.792,1.44-2.897,0.776c-0.67-4.19-2.579-8.51-4.547-12.229c-1.076-2.032-2.303-4.421-4.211-5.805
	c-0.313-0.227-0.647-0.467-1.021-0.591c-0.081,0.056-0.183,0.148-0.302,0.304c-0.833,1.091-1.29,2.398-1.705,3.691
	c-0.106,0.332-0.688,0.587-1.299,0.722c-0.177,0.615-2.436,1.365-2.916,0.576c-1.865-3.069-5.976-5.636-8.818-2.195
	c-0.891,1.078-1.508,2.555-0.976,3.943c0.642,1.674,2.343,2.496,4.004,2.949c0.589-0.061,1.185-0.08,1.762-0.057
	c1.965,0.078,0.248,1.994-1.047,1.941c-1.094-0.045-3.212-0.242-2.757,1.467c0.36,1.355,1.29,2.512,2.278,3.478
	c1.623,1.587,3.662,3.056,5.879,3.847c2.043-0.313,4.411-0.267,5.503-0.391c4.285-0.486,8.572-0.951,12.859-1.413
	c1.095-4.006,5.167-8.688,9.928-11.501c-8.733-5.935,1.781-13.375,8.579-16.196c-0.777-1.466-1.574-2.922-2.421-4.351
	c-0.642-1.083,2.175-2.017,2.687-1.154c0.883,1.491,1.716,3.01,2.528,4.538c4.3-1.229,9.639-2.007,13.729,0.093
	c4.117,2.114,5.18,6.072,4.935,10.204c2.919-2.411,6.996-3.926,11.341-4.554c-1.008-1.774-2.533-3.284-4.561-4.497
	c-0.646-0.386,1.894-1.565,2.705-1.079c2.336,1.397,4.006,3.174,5.017,5.276c1.975-0.091,3.956-0.004,5.868,0.256
	c2.552-8.138,10.213-13.963,17.557-10.183c-1.165-2.946-1.511-6.159,0.014-8.666c2.355-3.879,6.471-2.885,9.628-0.819
	c2.824-4.753,10.164-3.096,13.951,0.45c2.347,2.196,4.533,5.364,4.178,8.744c-0.427,4.049-3.98,6.36-7.435,7.825
	c5.328,1.256,10.518,4.994,10.747,9.003c0.027-0.051,0.058-0.101,0.085-0.15c2.123-6.979,3.942-14.2,3.705-21.462
	c-0.342-10.467-4.687-19.762-10.141-28.491c-0.093-0.019-0.174-0.049-0.229-0.099c-1.796-1.614-3.26-3.391-4.443-5.285
	c-11.447,8.686-23.442,19.596-37.547,23.445c-4.682,1.278-10.684,1.975-14.721-1.422c-5.545-4.664-7.008-13.027-7.242-19.9
	c-0.706-20.63,8.646-39.947,13-59.75c1.351-6.14,3.821-11.688,7.555-15.43c-10.876-6.9-23.296-4.437-35.467-4
	c-0.926,0.033-0.947-0.318-0.609-0.7c-0.486-0.023-0.972-0.076-1.455-0.191c-6.193-1.479-7.426-9.167-6.76-14.643
	c1.007-8.276,4.888-16.498,9.054-23.615c3.157-5.394,6.823-11.397,12.153-14.965c0.039-0.151,0.131-0.314,0.294-0.495
	c3.658-4.012,20.996-14.77,24.176-5.285c0.037,0.109,0.054,0.226,0.087,0.336c0.372,0.073,0.669,0.275,0.752,0.649
	c3.399,15.275,13.97,26.993,26.105,36.104c3.051,2.291,9.151,4.841,10.564,8.59c1.885,4.998,1.021,10.707-0.672,15.649
	c-0.023,0.586-0.117,1.139-0.241,1.675c2.618-3.188,5.7-5.843,8.577-7.396c-3.641-6.346-3.872-14.594-3.091-22.461
	c-0.168-0.031-0.307-0.09-0.389-0.192c-5.482-6.844-4.307-15.511-0.441-23.175c3.359-9.291,12.911-17.096,15.971-18.407
	c1.394-0.597,3.497-0.716,5.527-0.646c1.638-0.211,3.372-0.243,5.248-0.139c7.803,0.433,14.739-2.212,22.271,1.469
	c1.601,0.782,3.09,1.68,4.489,2.66c0.156,0.052,0.306,0.102,0.465,0.156c5.023,1.675,8.245,6.673,10.313,12.289
	c3.198,6.147,4.787,13.24,4.943,20.429c0.474,1.063,2.678,2.406,3.435,3.21c1.828,1.945,3.662,4.106,4.777,6.56
	c2.464,5.418,1.157,10.026-2.335,13.872c-1.589,4.825,5.084,9.638,7.317,13.32c4.242,6.995,1.807,13.313-3.313,19.104
	c-0.079,0.089-0.228,0.173-0.41,0.249c-0.271,0.459-0.513,0.853-0.709,1.165c1.004,0.903,1.961,1.876,2.838,2.966
	c4.102,5.097,7.155,10.622,8.932,16.94c1.527,5.43,2.781,10.825,5.162,15.941c0.374,0.026,0.684,0.157,0.792,0.439
	c4.876,12.562,9.625,25.704,11.222,39.155c0.64,5.392,1.151,11.497-0.686,16.73c-1.535,4.374-4.951,7.003-8.927,9.145
	c-2.748,1.48-5.69,2.608-8.707,3.542c5.329,4.105,7.544,24.119,8.109,27.463c1.354,8.021,1.99,16.082,2.828,24.168
	c0.405,3.914,0.789,7.854,1.521,11.723c0.39,2.063,0.674,5.848,2.508,7.232c0.654,0.494,0.405,1.098-0.145,1.5
	c4.037,7.686,10.215,13.684,16.332,19.762c7.65-5.693,18.965-5.361,27.385-1.645c11.596,5.119,17.546,15.917,12.078,27.982
	c-0.005,0.012-0.017,0.021-0.021,0.033c3.785-0.588,8.164-0.543,11.11,2.229c3.324,3.125,4.194,7.59,4.258,11.992
	c0.006,0.386-0.756,0.681-1.5,0.824c1.333,0,2.665,0,3.998,0C565.007,427.042,562.29,428.169,561.718,428.169z M272.5,293.999
	C272.659,293.99,272.638,293.928,272.5,293.999L272.5,293.999z M198.763,279.184c-0.235,0.021-0.469,0.042-0.704,0.063
	c-2.849,0.253-5.698,0.507-8.547,0.763c-2.548,0.229-7.583,0.396-9.109,0.844c-0.398,0.117-0.719,0.105-0.973,0.032
	c-3.454,0.847-7.122,1.117-10.509,1.193c-5.979,0.133-11.454-0.095-17.355,0.896c-6.441,1.082-12.944,1.842-19.47,2.173
	c-1.884,0.096-4.153,0.262-6.588,0.376c-2.133,6.017-2.95,12.597-3.768,18.881c-1.305,10.024-2.193,20.102-2.91,30.184
	c-1.753,24.619-2.663,49.303-3.038,73.98c0.099,0.03,0.184,0.072,0.24,0.137c3.441,3.879,9.624,5.315,14.543,6.068
	c2.824,0.434,6.589,1.02,10.202,0.941c1.618-0.035,3.204-0.203,4.662-0.584c1.615-0.42,3.073-1.094,4.236-2.129
	c0.122-0.108,0.352-0.205,0.626-0.285c1.849-13.9,4.738-27.768,7.602-41.482c1.142-5.471,2.46-10.896,3.738-16.332
	c-0.028-0.304-0.065-0.605-0.091-0.91c-0.03-0.356,0.188-0.662,0.514-0.896c0.631-2.716,1.249-5.435,1.815-8.164
	c2.213-10.662,4.342-21.466,9.689-31.078c0.411-0.739,3.096-0.922,2.861-0.5c-5.35,9.618-7.464,20.415-9.689,31.079
	c-0.681,3.264-1.434,6.508-2.197,9.751c1.643,17.646,7.497,34.728,7.248,52.56c0.106,0.021,0.201,0.057,0.287,0.101
	c1.258,0.063,2.519,0.122,3.781,0.172c7.351,0.286,14.755,0.25,22.035-0.71c3.246-0.428,6.467-1.041,9.647-1.893
	c0.002-0.141,0.008-0.281,0.009-0.42c0.002-0.328,0.271-0.602,0.64-0.805c-0.382-24.464-1.248-48.947-3.027-73.352
	c-0.326-4.469-0.681-8.941-1.08-13.409c-0.534-5.974-1.156-11.938-1.979-17.874c-0.752-5.435-1.466-11.072-3.127-16.35
	c-0.234-0.745-0.487-1.482-0.762-2.211c-0.087-0.23,0.054-0.459,0.309-0.655C198.595,279.283,198.676,279.232,198.763,279.184z
	 M232.675,274.154c0.455-0.052,1.517-0.342,2.052-0.406c0.01-3.538,0.032-7.075,0.072-10.612c-1.85,0.208-3.906,0.067-5.413,0.147
	c-6.061,0.323-12.124,0.591-18.187,0.863c-6.504,0.292-13.009,0.574-19.512,0.896c-2.424,0.12-4.849,0.237-7.271,0.391
	c-0.695,0.044-1.39,0.086-2.083,0.146c-0.157,0.014-0.27,0.025-0.364,0.036c0.363-0.081,0.986-0.292,1.13-0.742
	c-0.12,0.375-0.811,0.655-1.486,0.776c0,1.522,0,3.046,0,4.57c0,1.128-2.897,1.68-2.897,0.776c0-1.852,0-3.705,0-5.557
	c-0.371-0.03-0.741-0.064-1.113-0.074c-0.129-0.003-0.258-0.006-0.387-0.004c-0.063,0.002-0.143,0.005-0.162,0.007
	c-0.161,0.012-0.322,0.01-0.483,0.02c-0.845,2.121-3.725,4.332-4.758,6.126c5.314,0.175,10.102,1.287,15.435-0.676
	c2.233-0.822,4.321-1.551,6.65-0.808c0.672-0.059,1.219,0.083,1.028,0.492c-1.497,3.199-6.023,6.113-9.171,7.888
	c0.889-0.039,1.765-0.076,2.594-0.15c6.245-0.562,12.49-1.111,18.735-1.67c6.411-0.575,12.823-1.146,19.229-1.775
	C228.435,274.604,230.557,274.397,232.675,274.154z M167.356,264.218c2.042-0.542,3.967-1.132,5.641-1.697
	c0.311-0.105,0.678-0.148,1.006-0.145c0.591-0.329,1.387-0.43,1.829-0.04c0.505,0.446,0.788,0.912,0.907,1.389
	c0.662-0.019,1.319-0.034,1.979-0.032c0-3.324,0-6.647,0-9.971c-5.082,0.844-11.063,0.2-15.908,0.384
	c-9.568,0.364-19.151,0.715-28.694,1.527c0,1.361,0,2.722,0,4.083c0,0.152-0.088,0.29-0.227,0.414
	c0.294,0.159,0.587,0.317,0.886,0.488c3.323,1.905,6.686,3.188,10.224,4.132c7.239-0.021,14.45-0.64,21.677-0.99
	C167.453,263.723,167.561,263.941,167.356,264.218z M150.862,266.01c3.333,0.523,7.452,0.138,11.511-0.645
	C158.536,265.584,154.701,265.84,150.862,266.01z M141.514,217.583c-0.954,0.104-1.84,0.512-2.55,1.428
	c-0.284,0.366-0.533,0.766-0.749,1.186c-0.518,1.007-0.821,2.137-0.783,3.265c0.131,3.884,2.696,6.659,6.473,7.433
	c0.441,0.09,0.55,0.255,0.47,0.44c2.816-0.243,5.631-0.487,8.448-0.727c-1.37-2.313-1.924-4.897-1.966-7.58
	c-0.022-1.408,2.922-1.783,2.947-0.179c0.037,2.386,0.562,4.731,1.847,6.763c0.164,0.26,0.194,0.512,0.132,0.742
	c1.412-0.121,2.824-0.24,4.236-0.362c1.911-0.165,3.821-0.329,5.731-0.496c1.957-3.304,2.658-7.526,1.669-11.258
	c-0.383-1.445-0.96-3.192-2.271-4.072c-0.415-0.278-0.802-0.382-1.167-0.368c-0.831,0.032-1.544,0.692-2.182,1.432
	c-0.284,0.329-0.554,0.672-0.812,0.98c-0.14,0.167-0.473,0.313-0.858,0.42c-0.196,0.055-0.404,0.1-0.611,0.129
	c-0.812,0.12-1.566,0.035-1.18-0.428c0.303-0.362,0.646-0.727,1.018-1.082c-0.626,0.014-1.174-0.229-1.153-0.838
	c0.091-2.709-1.36-5.006-3.607-5.758c-0.947-0.316-2.033-0.364-3.209-0.043c-0.785,0.214-1.446,0.536-1.995,0.936
	c-2.259,1.649-2.539,4.674-1.062,7.45c0.644,1.209-1.984,2.167-2.617,1.286c-0.221,0.027-0.416,0.022-0.552-0.03
	C143.983,217.801,142.697,217.455,141.514,217.583z M210.186,228.148c-6.75,0.298-13.5,0.584-20.248,0.915
	c-2.371,0.116-4.741,0.229-7.11,0.379c-0.405,0.025-0.809,0.056-1.214,0.084c0,3.567,0,7.134,0,10.701
	c1.755-0.244,3.924-0.146,4.545-0.181c5.98-0.332,11.964-0.59,17.948-0.854c7.167-0.317,14.334-0.621,21.5-0.966
	c2.522-0.122,5.045-0.242,7.565-0.394c0.656-0.039,1.312-0.084,1.967-0.13c0.039-3.567,0.066-7.133,0.073-10.7
	c-2.003,0.385-4.449,0.175-6.158,0.265C222.766,227.599,216.476,227.871,210.186,228.148z M134.114,233.441c0,3.304,0,6.609,0,9.914
	c8.896-0.749,17.833-1.008,26.754-1.241c4.161-0.108,8.323-0.195,12.484-0.309c1.488-0.041,3.821,0.117,5.365-0.074
	c0-3.912,0-7.825,0-11.737c0-0.142,0.046-0.274,0.125-0.396c-0.028-0.017-0.054-0.036-0.072-0.057
	c-5.152,1.224-11.166,0.989-16.252,1.431C153.049,231.793,143.578,232.581,134.114,233.441z M181.6,228.871
	c-0.014,0.044-0.039,0.087-0.068,0.129c0.001,0.002,0.003,0.004,0.004,0.006C181.562,228.964,181.585,228.919,181.6,228.871z
	 M181.614,253.577c0.365-0.101,0.86-0.312,0.986-0.706c-0.09,0.281-0.502,0.508-0.986,0.656
	C181.614,253.544,181.614,253.562,181.614,253.577z M181.614,241.38c0.222-0.119,0.416-0.284,0.486-0.509
	c-0.055,0.176-0.24,0.33-0.486,0.458C181.614,241.346,181.614,241.364,181.614,241.38z M134.114,254.429
	c9.527-0.852,19.098-1.211,28.653-1.574c4.082-0.155,8.164-0.294,12.245-0.463c1.013-0.042,2.431-0.004,3.705-0.044
	c0-3.144,0-6.288,0-9.432c-5.107,1.162-11.477,0.306-16.525,0.434c-9.359,0.237-18.74,0.458-28.077,1.198
	C134.114,247.841,134.114,251.135,134.114,254.429z M181.614,264.427c1.688-0.445,4.367-0.318,5.092-0.36
	c5.955-0.342,11.915-0.601,17.873-0.87c6.917-0.312,13.834-0.611,20.75-0.948c2.578-0.125,5.156-0.25,7.732-0.405
	c0.585-0.035,1.17-0.077,1.756-0.117c0.042-3.563,0.093-7.124,0.146-10.687c-2.005,0.341-4.386,0.151-6.077,0.241
	c-6.061,0.323-12.124,0.591-18.187,0.863c-6.504,0.292-13.009,0.574-19.512,0.896c-2.424,0.12-4.849,0.237-7.271,0.391
	c-0.695,0.044-1.39,0.086-2.083,0.146c-0.085,0.007-0.154,0.014-0.22,0.021C181.614,257.208,181.614,260.818,181.614,264.427z
	 M234.977,249.993c-0.237,0.133-0.389,0.299-0.261,0.5c-0.076-0.12,0.039-0.278,0.26-0.436
	C234.977,250.036,234.977,250.015,234.977,249.993z M235.126,239.086c-1.88,0.254-4.024,0.101-5.572,0.182
	c-6.288,0.332-12.578,0.604-18.868,0.881c-6.75,0.298-13.5,0.584-20.248,0.915c-2.371,0.116-4.741,0.229-7.11,0.379
	c-0.572,0.036-1.143,0.074-1.714,0.119c0,3.465,0,6.929,0,10.394c0.463-0.05,0.735,0.063,0.799,0.245
	c1.528-0.167,3.236-0.101,3.793-0.132c5.955-0.342,11.915-0.601,17.873-0.87c6.917-0.312,13.834-0.611,20.75-0.948
	c2.578-0.125,5.156-0.25,7.732-0.405c0.807-0.049,1.614-0.1,2.42-0.162C235.033,246.15,235.085,242.618,235.126,239.086z
	 M234.943,226.01c-0.219,0.13-0.352,0.291-0.227,0.484c-0.076-0.117,0.036-0.273,0.254-0.43
	C234.961,226.046,234.951,226.029,234.943,226.01z M177.549,225.327c0.026-1.184,0.226-2.327,0.556-3.438
	c-2.934,0.04-5.752,1.52-7.016,4.777c-0.137,0.354-0.907,0.588-1.613,0.684c-0.288,0.678-0.611,1.318-0.969,1.901
	c1.639-0.146,3.278-0.291,4.916-0.446c1.679-0.159,5.483-0.357,6.222-0.603c0.56-0.186,1.275-0.154,1.647,0.001
	c1.721-0.214,3.767-0.123,4.368-0.156c0.406-0.021,0.813-0.04,1.219-0.062c-0.902-2.963-3.365-4.962-6.118-5.735
	c-0.177,0.754-0.296,1.521-0.313,2.301C180.424,225.569,177.533,226.046,177.549,225.327z M216.02,226.643
	c3.029-0.135,6.058-0.271,9.087-0.417c2.522-0.122,5.045-0.242,7.565-0.394c0.746-0.045,1.491-0.093,2.236-0.148
	c0.03-0.224,0.167-0.474,0.462-0.738c2.898-2.59,5.16-7.056,3.778-10.993c-1.699-4.842-5.89-1.868-8.271,0.746
	c-0.271,0.297-0.724,0.458-1.184,0.499c0.217,0.162,0.435,0.329,0.652,0.513c0.767,0.649-1.927,1.771-2.694,1.122
	c-1.493-1.264-3.787-2.869-5.769-1.561c-1.118,0.739-2.045,1.735-2.75,2.875c-1.506,2.437-2.368,5.099-2.688,7.938
	C216.421,226.295,216.255,226.485,216.02,226.643z M211.241,219.262c-4.102,1.049-10.115,0.327-13.752-0.338
	c0.324,2.819,0.533,5.658,0.614,8.514c1.834-0.083,3.669-0.166,5.504-0.247c3.024-0.134,6.047-0.266,9.071-0.399
	c-0.104-2.499-0.567-4.955-1.461-7.299C211.188,219.418,211.202,219.34,211.241,219.262z M179.587,170.05
	c0.805,1.1,1.49,2.4,1.984,3.185c2.593,4.12,4.872,8.45,6.83,12.907c0.305,0.693,0.599,1.39,0.892,2.087
	c0.613,1.464,1.195,2.938,1.751,4.422c2.93,7.814,5.058,15.884,6.182,24.133c3.129,0.717,15.941,3.037,15.492-1.791
	c-0.034-0.367,0.205-0.682,0.555-0.916c-0.023-0.026-0.044-0.052-0.055-0.084c-2.714-8.342-2.355-17.918-5.913-25.977
	c-2.601-5.891-10.323-10.646-15.881-13.343C187.586,172.813,183.623,171.323,179.587,170.05z M146.346,198.322
	c5.032,1.557,10.487,2.167,15.723,2.505c4.605,0.297,13.117,1.479,16.897-1.997c0.087-0.081,0.2-0.146,0.324-0.205
	c-0.213-7.274-1.716-14.509-4.438-21.268c-0.858-2.131-2.042-5.992-3.825-8.447c-1.408,11.156-22.764,4.479-31.671-0.444
	c1.627,4.669,2.351,10.13,3.488,14.719c0.93,3.753,1.866,7.51,2.655,11.296C145.684,195.375,146.275,197.021,146.346,198.322z
	 M180.634,110.601c-12.329-3.574-24.247-2.317-35.942,0.963c1.051,5.472,0.633,11.094-1.979,16.096
	c0.116,0.106,0.231,0.215,0.343,0.327c0.849,0.853-1.902,1.957-2.68,1.176c-0.162-0.163-0.334-0.328-0.511-0.49
	c-0.14-0.026-0.214-0.07-0.18-0.132c0.003-0.006,0.005-0.012,0.009-0.017c-0.578-0.505-1.229-0.954-1.968-1.102
	c-0.049-0.01-0.076-0.013-0.117-0.021c-0.393,0.15-0.77,0.403-1.103,0.82c-0.419,0.524-0.814,1.162-1.162,1.851
	c-0.232,0.687-0.373,1.407-0.432,2.101c-0.137,1.595,0.062,3.571,1.29,4.742c0.336,0.32,0.703,0.507,1.082,0.61
	c0.586-0.308,1.404-0.395,1.889-0.106c0.677-0.211,1.341-0.553,1.929-0.891c0.581-0.334,1.421-0.588,2.06-0.243
	c0.599,0.324,0.22,0.982-0.226,1.239c-0.913,0.525-1.988,1.061-3.114,1.436c0.6,2.958,0.109,6.766,0.101,9.549
	c-0.016,5.586-0.107,11.221-0.984,16.748c-0.003,0.02-0.012,0.035-0.016,0.053c0.075,0.03,0.145,0.067,0.202,0.115
	c4.717,3.976,29.756,14.447,29.025,2.142c-0.286-0.101-0.522-0.284-0.639-0.579c-0.908-2.287-0.768-5.354-0.999-7.771
	c-0.147-1.531-0.285-3.063-0.443-4.593c-0.034-0.331-0.131-1.225-0.179-1.74c-0.154-0.156-0.239-0.372-0.216-0.656
	c-3.249,0.384-6.558,0.435-9.68,0.443c-1.96,0.006-0.023-1.715,1.107-1.718c8.634-0.025,21.138-0.366,23.725-10.74
	C183.263,130.44,182.27,120.418,180.634,110.601z M171.413,102.949c-5.032,0.394-10.044,1.458-14.914,2.758
	c-0.656,0.175-2.056,0.449-3.639,0.822c-1.88,0.444-4.016,1.03-5.499,1.772c-0.708,0.354-1.266,0.742-1.572,1.168
	c11.773-3.124,23.774-4.208,36.118-0.734c0.651-0.149,1.313-0.075,1.479,0.337c1.936-0.321,3.887-0.552,5.811-0.94
	c6.282-1.268,0.623-4.655-1.932-5.127C182.148,102.06,176.591,102.544,171.413,102.949z M125.817,114.84
	c-0.008,0.126-0.016,0.251-0.024,0.377l13.14-3.706c0.859-0.281,1.72-0.553,2.581-0.816c0.147-0.268,0.757-0.534,1.382-0.688
	c0.056-0.104,0.119-0.206,0.192-0.306c1.922-2.641,9.734-3.975,12.017-4.584c3.8-1.015,7.565-1.812,11.365-2.406
	c3.348-0.523,6.723-0.89,10.175-1.087c0.835-0.048,1.682-0.105,2.534-0.16c-0.026-0.065-0.052-0.128-0.078-0.193
	c-2.146-5.341-4.559-9.598-10.314-12.106c-6.403-2.792-14.556-1.915-21.244-0.715c-6.736,1.209-13.84,3.517-17.504,9.809
	C127.114,103.282,126.214,109.088,125.817,114.84z M134.935,166.824c-0.289,0.061-0.576,0.119-0.866,0.188
	c-0.001,0.095-0.004,0.189-0.005,0.284c-0.09,7.646-0.59,15.278-0.581,22.927c0.007,5.511-0.16,10.917-3.449,15.576
	c-0.065,0.092-0.177,0.177-0.317,0.254c-0.242,9.653-0.745,19.299-0.779,28.958c-0.001,0.347-0.405,0.627-0.91,0.812
	c0.569,1.713,0.021,4.792-0.025,5.957c-0.191,4.927-0.465,9.852-0.535,14.783c-0.005,0.35-0.016,0.699-0.019,1.049
	c1.239,0.265,2.487,0.676,3.767,1.22c0-0.221,0-0.441,0-0.663c0-4.467,0-8.933,0-13.399c-0.619-0.016-0.438-0.316,0-0.628
	c0-3.481,0-6.962,0-10.443c-0.22,0.021-0.44,0.038-0.661,0.059c-1.917,0.179,0.392-1.224,1.219-1.301
	c2.787-0.26,5.577-0.499,8.365-0.744c-4.133-1.723-7.079-5.978-5.035-10.636c1.752-3.994,5.813-5.386,9.76-4.805
	c-3.077-10.374,16.308-13.98,16.253-2.433c2.549-1.713,5.702-2.435,7.829,0.447c1.906,2.582,2.229,6.241,1.58,9.615
	c0.917-0.849,2.008-1.531,3.195-2.05c0.565-0.248,1.152-0.458,1.755-0.628c0.987-0.279,2.011-0.455,3.042-0.522
	c0.119-0.295,0.232-0.592,0.372-0.882c0.28-0.58,1.081-0.821,1.667-0.907c0.208-0.03,1.49-0.084,1.215,0.485
	c-0.216,0.447-0.405,0.908-0.576,1.375c3.89,0.467,7.404,2.554,8.583,6.448c0.064,0.211-0.361,0.469-0.903,0.667
	c2.101-0.108,4.202-0.218,6.304-0.315c-0.486-14.014-3.903-27.878-9.678-40.651c-2.003-4.43-4.188-8.817-6.83-12.907
	c-0.863-1.335-2.232-4.229-3.842-4.838c-0.025-0.01,0.011-0.048,0.073-0.099c0.087-0.07,0.246-0.168,0.45-0.278
	c-0.396-0.11-0.791-0.219-1.188-0.326c0.069,0.104,0.139,0.206,0.207,0.313c1.552,2.468,2.626,5.819,3.377,7.798
	c2.68,7.063,4.325,14.345,4.465,21.916c0.004,0.209-0.218,0.391-0.537,0.538c-0.019,0.146-0.112,0.314-0.324,0.509
	c-4.203,3.865-11.485,3.601-16.786,3.399c-4.215-0.16-8.569-0.459-12.821-1.163c-2.318-0.384-4.602-0.895-6.819-1.563
	c-0.201,0.044-0.404,0.076-0.598,0.093c-0.627,0.058-1.141-0.025-1.02-0.281c0.649-1.369-0.726-4.888-1.03-6.248
	c-0.876-3.925-1.831-7.833-2.813-11.733c-1.213-4.813-1.882-10.696-3.978-15.242c-0.024-0.026-0.039-0.057-0.049-0.089
	C135.272,166.75,135.103,166.788,134.935,166.824z M124.817,235.702c0.142-0.41,0.662-0.781,1.235-0.948
	c0.083-12.034,0.854-24.049,0.897-36.083c0.003-0.93,2.9-1.387,2.897-0.776c-0.003,0.809-0.017,1.617-0.026,2.425
	c0.979-4.029,0.699-8.369,0.772-12.588c0.116-6.644,0.508-13.278,0.579-19.923c-6.344,1.97-12.791,5.373-18.23,8.406
	c-7.324,4.083-11.578,9.654-14.038,17.602c-4.014,12.966-4.783,26.599-6.216,40.018c0.18,0.013,0.335,0.054,0.441,0.139
	C101.883,241.002,115.006,240.33,124.817,235.702z M130.448,283.655c6.343-0.263,12.688-0.843,18.96-1.841
	c3.743-0.595,7.347-1.566,11.151-1.465c6.102,0.163,12.533,0.624,18.493-0.978c3.615-0.971,9.993-3.89,12.452-7.57
	c-2.841-0.213-7.235,2.391-9.971,2.637c-3.984,0.357-8.089-1.005-12.108-0.904c-1.53,0.039-1.489-1.174-0.644-1.745
	c0.004-0.011,0.003-0.02,0.007-0.03c0.567-1.604,1.872-2.869,3.004-4.091c0.436-0.471,1.67-1.565,2.018-2.529
	c-0.121-0.15-0.154-0.346,0-0.583c0.018-0.028,0.049-0.044,0.069-0.071c-0.036-0.182-0.122-0.352-0.289-0.499
	c-0.205-0.181-0.299-0.369-0.322-0.554c-5.218,1.688-10.779,2.729-16.146,3.706c-3.543,0.645-6.79,0.442-10.309-0.316
	c-0.962-0.207-1.9-0.417-2.827-0.633c-0.286,0.001-0.571,0.008-0.857,0.007c-0.675-0.001-0.848-0.176-0.754-0.401
	c-3.206-0.818-6.249-1.842-9.278-3.578c-2.37-1.358-4.483-2.565-6.635-3.233c-0.709,0.241-1.583,0.144-1.861-0.429
	c-2.256-0.334-4.642,0.017-7.476,1.487c-0.687,0.356-3.38,0.486-1.674-0.398c3.28-1.701,6.203-2.442,9.069-2.375
	c0.05-4.331,0.27-8.656,0.453-12.983c0.045-1.068,0.524-6.108,0.302-7.43c-8.731,3.841-19.777,5.268-28.735,1.702
	c-0.068,12.487-0.558,27.104,6.842,37.701c3.023,4.329,5.97,6.024,11.195,6.777C119.821,283.789,125.161,283.873,130.448,283.655z
	 M113.62,428.705c-0.108-2.133-0.228-4.266-0.362-6.396c-0.195-3.089,0.473-8.816-1.042-11.646c-0.1-0.188,0.213-0.446,0.667-0.66
	c0-0.004-0.001-0.006-0.001-0.008c0.155-10.438,0.405-20.881,0.766-31.319c-0.302,0.245-0.773,0.474-1.233,0.541
	c-7.538,1.101-14.17,5.636-16.315,13.157c-0.049,0.17-0.224,0.322-0.459,0.449c0.126,0.09,0.257,0.17,0.382,0.262
	c0.583,0.436-2.002,1.578-2.715,1.047c-10.144-7.555-25.504-1.342-24.194,12.089c0.051,0.519-0.874,0.931-1.692,1.056
	c0.718,0.143,1.429,0.307,2.123,0.516c1.656,0.498-0.791,1.924-1.759,1.634c-12.618-3.793-28.971,5.153-28.02,19.327
	C64.383,428.742,89.002,428.707,113.62,428.705z M150.093,414.435c-4.514,2.523-10.608,2.623-15.489,2.293
	c-5.825-0.393-13.646-1.224-18.841-4.852c0.539,2.796,0.199,6.578,0.342,8.848c0.466,7.375,0.804,14.762,0.965,22.15
	c0.169,7.791,0.288,15.638-0.324,23.414c-0.345,4.379-0.538,8.854-3.355,12.386c-3.88,4.864-9.491,11.577-8.079,18.394
	c1.456,7.025,7.184,12.938,14.925,11.428c12.837-2.502,14.672-16.861,15.247-27.574c0.246-4.586,0.294-9.219,0.898-13.777
	c0.698-5.275,2.498-10.375,4.102-15.432C144.351,439.511,148.695,427.224,150.093,414.435z M171.108,428.885
	c-0.988-6.729-1.629-13.501-1.564-20.366c-0.396-0.093-0.681-0.334-0.671-0.768c0.357-15.357-3.993-30.156-6.287-45.227
	c-0.635,2.729-1.256,5.463-1.824,8.209c-2.858,13.832-5.817,27.799-7.649,41.813c0,0.002,0,0.002,0,0.002
	c-0.513,5.375-1.525,10.677-2.894,15.898c-0.042,0.162-0.09,0.321-0.133,0.483C157.094,428.927,164.101,428.892,171.108,428.885z
	 M207.508,405.882c-11.417,2.996-23.321,3.15-35.06,2.607c-0.091,14.742,3.15,29.037,5.91,43.447
	c2.256,11.775,4.704,23.715,2.109,35.547c-0.566,2.582-1.497,5.564,1.826,6.387c2.352,0.582,4.75,0.918,7.163,1.127
	c3.546,0.309,7.115,0.466,10.67,0.621c7.115,0.31,20.98,0.859,22.028-8.582c-0.21-0.025-0.39-0.09-0.505-0.211
	c-5.014-5.199-12.699-6.322-17.969-11.096c-4.535-4.107-3.416-10.611-2.772-16.123C202.99,441.751,207.091,423.9,207.508,405.882z
	 M284.521,475.684c2.358,0.386,3.702-2.171,3.773-4.233c0.062-1.781-0.689-3.375-2.162-4.186c-0.002,0.041-0.005,0.082-0.007,0.122
	c-0.046,1.026-2.962,1.597-2.904,0.337c0.002-0.04,0.005-0.08,0.007-0.119c-0.129,0.045-0.259,0.094-0.398,0.148
	C280.224,469.553,280.736,475.066,284.521,475.684z M286.737,456.76c-0.189,2.853-0.355,5.704-0.498,8.556
	c0.102-0.021,0.198-0.033,0.29-0.039L286.737,456.76z M266.039,487.018l-2.481-4.671
	C264.178,483.998,265.003,485.57,266.039,487.018z M276.802,494.63l-4.765-2.118C273.46,493.359,275.05,494.072,276.802,494.63z
	 M292.296,494.306c-1.85,0.566-3.912,1.063-5.737,1.453C288.585,495.551,290.505,495.052,292.296,494.306z M294.572,450.546
	c1.721,1.279,3.559,2.789,5.314,4.492C298.376,453.302,296.595,451.791,294.572,450.546z M443.025,465.996
	c-0.267,0.111-0.535,0.184-0.763,0.181c-4.638-0.063-4.798,7.765-0.251,8.507c2.358,0.385,3.702-2.171,3.773-4.234
	C445.855,468.443,444.896,466.669,443.025,465.996z M439.813,465.037l0.075,0.221c0.035-0.016,0.073-0.023,0.108-0.038
	C439.936,465.158,439.872,465.101,439.813,465.037z M427.979,490.488l-3.682-3.465C425.342,488.299,426.566,489.465,427.979,490.488
	z M445.433,494.595l-4.757,0.238C442.311,494.926,443.9,494.842,445.433,494.595z M443.195,447.166
	c3.524,0.783,7.522,2.009,11.139,3.92c-2.454-1.661-5.31-2.906-8.535-3.613c-0.366-0.081-0.536-0.221-0.578-0.383
	c-0.174,0.053-0.349,0.082-0.512,0.076C444.197,447.15,443.694,447.154,443.195,447.166z M487.813,367.934
	c-3.553,2.994-8.226,4.81-12.499,6.278c-4.979,1.711-10.081,3.059-15.234,4.158c5.896,8.974,13.457,16.574,19.979,25.082
	c2.625,3.424,5.217,6.875,7.889,10.264c1.066,1.354,2.13,2.716,3.261,4.018c0.396,0.455,0.786,0.922,1.214,1.348
	c0.015,0.013,0.023,0.021,0.036,0.035c3.207-5.174,8.237-9.545,13.177-12.654c3.191-2.01,7.049-4.23,10.979-4.742
	C508.548,389.119,495.208,380.906,487.813,367.934z M492.172,419.568c0.019-0.029,0.036-0.056,0.054-0.084
	c-0.243,0.041-0.531,0.149-0.853,0.393C491.606,419.699,491.886,419.603,492.172,419.568z M391.474,413.885
	c5.429-0.989,11.369-0.435,16.482,0.563c3.235,0.629,7.385,1.438,10.924,3.051c-2.03-4.86-4.058-9.725-6.082-14.588
	c-1.421-3.412-2.826-9.463-5.128-12.119l0,0c-3.06,0.916-8.691,1.722-15.231,2.404C392.325,400.105,391.585,406.978,391.474,413.885
	z M400.534,272.9c0.386,6.155-0.719,12.273-2.314,18.256c3.938-3.1,9.192-4.403,14.284-2.716c0.313,0.103,0.634,0.221,0.958,0.352
	c0.264,0.106,0.527,0.222,0.789,0.348c1.8,0.869,3.465,2.225,3.598,4.301c0.103,1.624-0.813,2.948-2.064,4.01
	c0.818-0.128,1.639-0.244,2.457-0.376c3.663-0.591,7.331-1.205,10.957-1.996c-13.792-10.273-15.684-41.548-0.532-48.998
	c1.669-0.82,3.543-1.353,5.633-1.535c1.384-0.12,2.857-0.09,4.43,0.113c0.047,0.006,0.092,0.008,0.139,0.015
	c0.36,0.049,0.593,0.149,0.727,0.278c0.731-1.086,1.642-2.045,2.725-2.833c0.021-0.1,0.044-0.201,0.064-0.301
	c0.042-0.202,0.085-0.404,0.125-0.607c0.099-0.501,0.188-1.008,0.272-1.518c-0.202-0.027-0.365-0.093-0.458-0.211
	c-0.003-0.003-0.007-0.005-0.009-0.008c-0.01-0.012-0.017-0.024-0.024-0.036c-0.294-0.396-0.558-0.818-0.833-1.229
	c-7.888-11.768-8.443-29.844-4.063-42.792c1.308-3.866,2.97-8.685,6.051-11.581c0.076-0.071,0.19-0.16,0.333-0.255
	c-1.03-0.072-2.076-0.125-3.141-0.165c-0.525-0.02-1.999,0.086-3.646,0.141c-7.979,8.864-12.325,23.883-8.534,35.525
	c0.175,0.537-1.501,1.158-2.387,1.063c-5.479,1.678-11.37,2.822-17.076,2.993c-3.678,0.11-7.824,0.138-11.063-1.759
	c-0.369,0.073-0.697,0.075-0.867-0.06c-6.62-5.227-5.72-14.343-3.377-21.59c1.319-4.088,3.703-12.741,7.858-15.128
	c-2.281,0.345-4.599,0.7-6.794,1.283c0.259,0.063,0.234,0.207-0.421,0.479c0.294-0.122-1.179,1.738-1.567,2.368
	c-0.967,1.569-1.87,3.177-2.7,4.823c-2.493,4.95-4.641,10.124-6.132,15.469c-3.213,11.521-4.122,24.924,4.224,34.22
	c0.497-0.063,0.972,0.032,1.188,0.37C395.092,252.581,399.858,262.103,400.534,272.9z M370.146,218.322
	c2.659,1.797,6.114,3.991,8.548,6.673c-0.024-5.545,1.071-11.231,2.692-16.473c1.76-5.687,4.013-11.262,6.904-16.471
	c0.758-1.365,1.696-3.601,3.019-4.977c-0.317,0.143-0.631,0.294-0.937,0.455c-7.351,3.871-14.398,9.237-20.184,15.188
	c-0.899,0.926-9.589,10.956-8.235,11.442C364.852,215.199,367.591,216.596,370.146,218.322z M444.058,184.109
	c0.131,0.744,0.625,0.621,1.057,0.361C444.574,184.524,444.112,184.428,444.058,184.109z M390.618,123.58
	c-0.694,0.431-1.112,0.641-1.112,0.641l-0.024,0.263c0.092-0.069,0.195-0.13,0.309-0.188
	C390.07,124.064,390.347,123.824,390.618,123.58z M406.056,183.899c0.004-0.022,0.015-0.043,0.021-0.064
	c-0.682,0.141-1.378,0.267-2.085,0.384c0.176,0.045,0.175,0.147-0.17,0.337c-1.527,0.842-2.758,4.009-3.494,5.459
	c-1.497,2.947-2.844,6.003-3.793,9.175c-1.922,6.422-3.038,14.256,1.568,19.534c0.354-0.004,0.682,0.074,0.896,0.27
	c0.714,0.65,1.551,1.136,2.467,1.498c2.845,1.123,6.46,1.017,9.639,0.677c1.146-0.123,2.239-0.273,3.214-0.41
	c3.668-0.513,7.302-1.245,10.854-2.289c-3.121-11.713,1.404-26.239,9.295-34.893c-0.83-0.021-1.599-0.083-2.219-0.201
	c-0.216,0.142-0.464,0.251-0.721,0.302C424.998,188.589,404.144,199.122,406.056,183.899z M388.817,187.249
	c4.135-1.821,8.413-2.612,12.84-3.454c-3.529,0.492-8.119,1.301-10.65,2.426C390.256,186.554,389.523,186.902,388.817,187.249z
	 M383.785,190.015c0.476-0.298,0.955-0.589,1.435-0.878c-0.573,0.32-1.073,0.607-1.484,0.848
	C383.752,189.995,383.769,190.005,383.785,190.015z M445.408,240.525c1.109-0.378,2.329-0.62,3.656-0.697
	c1.25-4.244,4.31-10.357-0.061-13.221C446.494,230.633,446.276,235.872,445.408,240.525z M475.675,244.559
	c-4.65-5.724-11.555-9.25-16.66-2.314c7.317,4.644,9.942,15.021,11.6,23.471c0.156,0.801-2.758,1.494-2.898,0.776
	c-1.702-8.683-3.114-18.707-11.97-23.104c-3.575-1.776-7.655-2.499-10.743-1.181c-0.178,0.222-0.565,0.406-1.002,0.527
	c-1.643,1.037-2.903,2.782-3.471,5.468c-0.876,4.15-0.112,8.001,1.918,11.68c0.291,0.528-2.462,1.567-2.898,0.776
	c-2.634-4.774-2.8-10.194-0.764-14.314c-0.315,0.15-0.668,0.233-0.988,0.189c-16.215-2.188-19.461,17.354-14.843,32.636
	c0.79,2.616,1.813,5.105,3.04,7.342c1.793,3.271,4.023,5.996,6.613,7.767c0.576-0.153,1.149-0.315,1.714-0.508
	c0.589-0.202,1.224-0.747,0.964-0.311c0.229-0.385,0.773-0.631,1.33-0.721c-2.842-1.457-7.098-2.923-5.488-5.945
	c0.292-0.548,1.17-0.829,1.882-0.795c0.411-0.195,0.875-0.353,1.145-0.364c4.229-0.181,9.443-0.704,14.244-1.904
	c-3.598-2.692-6.056-6.455-6.182-11.072c-0.027-1.059,2.876-1.607,2.898-0.776c0.126,4.651,2.615,8.331,6.3,10.978
	c2.22-0.735,4.274-1.645,5.991-2.778c4.131-2.73,7.736-5.418,11.176-8.965c3.657-3.772,8.158-4.143,13.007-3.697
	C482.631,259.491,480.8,250.866,475.675,244.559z M437.9,293.942c0.122-0.06,0.245-0.116,0.367-0.174
	c-0.054-0.045-0.108-0.09-0.167-0.135c-0.02,0.04-0.029,0.077-0.056,0.119C438.005,293.819,437.944,293.876,437.9,293.942z
	 M462.454,236.819c-0.892-0.04-1.786-0.105-2.684-0.193c0.173,0.561,0.27,1.047,0.267,1.43
	C460.812,237.542,461.618,237.127,462.454,236.819z M454.107,231.49c-0.29,2.764-1.581,5.792-2.276,8.393
	c1.842,0.165,3.5,0.581,4.988,1.213c0.475-0.615,0.976-1.182,1.509-1.684c-0.438,0.065-0.863,0.039-1.132-0.141
	c-0.016-0.011-0.032-0.021-0.049-0.032c-0.151-0.101-0.058-0.265,0.166-0.438c-0.027,0.006-0.056,0.012-0.082,0.018
	C457.462,238.528,455.379,234.146,454.107,231.49z M395.482,300.337c5.221-0.68,10.437-1.396,15.644-2.172
	c1.866-0.923,4.535-2.58,3.674-4.85c-0.682-1.799-2.704-2.816-4.468-3.258c-5.791-1.448-10.74,1.263-13.524,6.027
	C396.372,297.512,395.927,298.93,395.482,300.337z M412.04,300.042c-0.009,0.105-0.019,0.211-0.027,0.316
	c-0.347,4.299-0.17,8.729-0.273,13.02c-0.256,10.445-0.49,20.893-0.688,31.339c-0.195,10.444-0.385,20.892-0.412,31.339
	c-0.005,1.189-0.004,2.378-0.003,3.566c0.132-0.002,0.259,0.006,0.374,0.039c4.559,1.309,9.644,1.238,14.422,1.035
	c0.631-0.484,1.862-0.629,2.338-0.111c7.446-0.36,14.883-1.145,22.241-2.342c2.152-0.352,4.309-0.729,6.458-1.141
	c0.493-0.658,1.78-0.994,2.406-0.477c4.738-0.973,9.439-2.146,14.021-3.663c2.372-0.785,4.941-1.646,7.374-2.761
	c0.893-0.41,1.759-0.859,2.596-1.35c1.619-0.951,3.107-2.064,4.332-3.426c-2.645-2.889-2.793-8.98-3.224-12.376
	c-0.936-7.383-1.448-14.808-2.277-22.202c-0.333-2.966-5.969-36.559-8.913-35.595c-0.756,0.248-1.282,0.013-1.508-0.38
	c-2.721,0.693-5.464,1.271-8.154,1.817c-3.377,0.686-6.791,0.993-9.98,2.339c-2.651,1.121-5.292,2.291-8.008,3.25
	c-5.318,1.881-11.335,3.787-17.06,3.018c-3.33-0.447-9.135-1.542-11.658-3.945c-0.42-0.4,0.212-0.908,0.988-1.172
	c0.083-0.066,0.166-0.136,0.252-0.197c2.562-1.836,5.835-1.168,8.852-1.387c1.987-0.145,3.873-0.833,5.719-1.71
	c0,0-0.001-0.001-0.002-0.001c-3.557,0.862-7.692,1.122-9.744,1.477c-1.94,0.336-3.888,0.639-5.832,0.949
	c-1.361,0.219-2.723,0.445-4.084,0.652C412.39,299.994,412.214,300.016,412.04,300.042z M425.088,382.712
	c-4.755,0.117-9.757,0.246-14.439-0.836c0.01,1.424,0.022,2.848,0.063,4.271c0.028,1.01,0.047,2.025,0.145,3.032
	c0.109,1.164,0.249,0.907-0.214,0.813c0.063,0.084,0.13,0.166,0.191,0.254c0.209,0.027,0.292,0.097,0.153,0.227
	c1.903,2.83,2.923,7.369,4.132,10.273c2.243,5.387,4.486,10.773,6.735,16.156C426.033,406.007,425.441,394.277,425.088,382.712z
	 M480.16,228.101c-2.061,3.247-4.669,6.218-8.379,7.54c-0.97,0.345-1.945,0.588-2.924,0.777c2.146,0.493,4.262,1.606,6.174,3.366
	c7.646,7.034,10.916,17.641,9.442,27.829c-0.134,0.922-1.632,1.383-2.438,1.064c-0.294,0.084-0.557,0.132-0.72,0.111
	c-3.689-0.469-7.383-0.811-10.109,2.121c-1.039,1.118-2.05,2.282-3.191,3.297c-3.241,2.88-7.003,5.179-10.699,7.425
	c-2.41,1.463-5.24,2.489-8.047,2.815c-5.13,0.595-10.116,1.927-15.267,2.295c-0.011,0.108-0.041,0.226-0.112,0.36
	c-0.77,1.445,1.96,2.422,2.911,2.882c1.537,0.742,3.206,1.444,4.359,2.748c1.127,0.059,1.239,1.498-0.206,2.011
	c-4.183,1.486-7.748,4.287-12.006,5.554c-2.521,0.75-6.355-0.436-8.882,0.686c2.504,1.705,6.509,2.551,10.049,2.739
	c1.072,0.058,2.102,0.056,3.031,0c0.626-0.038,1.208-0.101,1.728-0.185c6.023-0.979,11.528-3.355,17.127-5.669
	c10.748-4.443,24.214-2.957,33.706-10.712c8.376-6.845,5.471-21.047,3.428-30.227C486.944,247.083,483.75,237.515,480.16,228.101z
	 M463.404,191.514c-4.831-5.05-10.424-6.909-16.688-7.656c-0.209,0.189-0.528,0.351-0.88,0.461c-0.11,0.035-0.224,0.064-0.338,0.089
	c-0.063,0.085-0.133,0.178-0.22,0.293c-0.407,0.543-0.808,1.092-1.157,1.674c-0.978,1.625-1.852,3.325-2.554,5.089
	c-0.059,0.146-0.11,0.293-0.167,0.438c-1.674,4.291-2.89,8.801-3.343,13.393c-0.964,9.717,0.107,21.799,5.325,30.612
	c0.654-3.963,1.559-7.872,4.295-10.891c0.487-0.538,3.231-0.877,2.653-0.181c0.194-0.003,0.367,0.02,0.491,0.086
	c0.108,0.057,0.206,0.118,0.308,0.177c-0.345-0.728-0.685-1.458-1.043-2.179c-0.264-0.531-0.937-2.436-1.496-3.046
	c-0.332-0.041-0.556-0.17-0.521-0.422c0.03-0.221,0.2-0.325,0.36-0.462c0.481-0.414,1.688-0.763,2.305-0.501
	c0.979,0.419,1.574,2.293,2.003,3.156c1.182,2.381,2.301,4.793,3.388,7.219c0.357,0.798,2.025,3.715,3.067,6.202
	c0.088-0.011,0.17-0.016,0.231-0.008c3.562,0.44,7.89,1.212,11.302-0.271c3.824-1.664,6.118-5.247,8.054-8.767
	C473.131,214.342,472.9,201.439,463.404,191.514z M392.567,157.336c4.523,8.655,15.394,8.879,23.966,8.904
	c1.799,0.005,0.319,1.446-0.813,1.682c0.238,3.814-0.381,7.378-2.393,10.686c-1.127,1.852-3.085,3.099-4.185,4.87
	c-0.054,0.085-0.124,0.161-0.201,0.232c-1.403,12.271,14.53,3.791,20.193-0.478c-12.04-3.845-5.487-22.401,0.035-30.324
	c-0.558-0.558,0.665-1.312,1.658-1.436c0.111-0.16,0.176-0.251,0.176-0.251s3.085,1.231,5.136,1.518
	c0.17-0.088,0.325-0.205,0.464-0.362c1.025-1.17,1.184-3.09,0.996-4.563c-0.21-1.657-0.771-3.512-2.115-4.612
	c-1.337-1.093-2.368-0.177-3.497,0.958c-0.741,0.745-3.582,0.648-2.354-0.587c0.03-0.03,0.063-0.06,0.095-0.089
	c-2.793-5.438-2.974-11.567-1.555-17.455c0.012-0.046,0.035-0.09,0.068-0.133c-0.132-0.025-0.258-0.064-0.365-0.13
	c-2.6-1.583-5.62-2.873-8.637-4.229c-0.405-0.111-0.816-0.217-1.235-0.313c-2.105-0.486-4.154-1.815-5.97-3.386
	c-2.928-1.842-5.444-4.104-7.01-7.241c-0.107,0.085-0.232,0.186-0.373,0.3c-4.451,4.294-7.788,9.686-12.651,13.575
	c0.013,0.064,0.017,0.135,0.002,0.214C390.344,134.472,387.729,148.076,392.567,157.336z M378.324,172.06
	c-2.636,1.846-6.223,2.404-9.418,1.269c-1.087,2.164-1.989,4.393-2.786,6.662c0.601-0.236,1.268-0.389,1.581-0.197
	c1.687,1.033,3.354,2.839,2.235,4.926c-1.173,2.186-3.558,3.428-5.777,4.305c-0.352,0.139-0.747,0.277-1.147,0.354
	c-0.457,1.328-0.932,2.65-1.464,3.954c-1.677,4.105-4.213,9.19-9.169,9.857c-0.506,0.068-1.062,0.11-1.64,0.126
	c-2.329,8.764-2.087,17.909-2.443,26.955c2.076-2.44,3.986-5.053,6.057-7.48c1.845-2.163,4.075-5.504,6.81-6.874
	c-0.866-0.358-1.746-0.687-2.654-0.952c-0.119-0.035-0.35-0.122-0.236-0.302c5.866-9.355,14.146-17.137,23.355-23.255
	C373.765,187.121,374.431,179.148,378.324,172.06z M363.349,188.401c1.597-0.711,3.354-1.776,3.877-3.462
	c0.493-1.595-0.353-2.79-1.534-3.688C364.89,183.624,364.146,186.021,363.349,188.401z M322.127,150.459
	c1.08-1.466,2.125-2.963,3.146-4.479c-0.392-0.006-0.743-0.127-0.938-0.416c-2.06-3.074-5.271-5.175-7.147-8.366
	c-1.813-3.079-0.678-6.849,1.003-9.71c3.688-6.283,11.646-3.386,16.599-0.697c1.388,0.753-1.184,2.204-2.246,1.627
	c-2.348-1.274-5.491-3.049-8.29-2.694c-3.145,0.398-5.049,4.208-5.059,7.149c-0.017,4.709,4.856,7.48,7.46,10.967
	c2.692-4.171,5.192-8.478,7.476-12.858c3.425-6.572,7.667-14.161,8.538-21.644c1.374-11.804-13.024-4.917-18.295-0.072
	c0.126,0.404-0.044,0.885-0.717,1.252c-5.396,2.948-9.271,9.282-12.208,14.468c-3.189,5.63-6.117,11.612-7.845,17.873
	c-1.226,4.443-2.969,15.289,2.747,17.453C312.273,162.555,319.126,154.533,322.127,150.459z M323.425,161.401
	c2.294-0.067,4.574-0.056,6.828,0.099c14.479-4.234,19.299-21.098,21.992-34.348c0.047-0.229,0.401-0.43,0.844-0.575
	c0.092-0.03,0.188-0.058,0.284-0.083c-0.071-0.093-0.144-0.185-0.215-0.278c-3.229-4.237-5.94-8.833-7.869-13.825
	c-1.36,5.866-4.801,12.002-6.977,16.277c-1.839,3.612-3.777,7.348-5.874,11.009c-2.806,4.898-5.9,9.657-9.497,13.762
	c-0.58,0.662-1.242,1.393-1.961,2.144c-1.916,2.003-4.274,4.154-6.83,5.637c-0.487,0.283-0.98,0.54-1.48,0.767
	C316.26,161.788,319.859,161.505,323.425,161.401z M345.788,166.092c4.092-3.095,9.433-4.238,16.168-2.24
	c0.437,0.129,0.826,0.624,0.531,1.076c-0.984,1.505-1.952,2.212-3.528,3.104c-0.03,0.018-0.062,0.028-0.092,0.043
	c0.215,0.081,0.429,0.161,0.643,0.256c0.129,0.028,0.22,0.101,0.271,0.219c-0.044,0.843-0.24,1.44-0.527,2.026
	c0.527,0.079,0.984,0.294,1.302,0.724c1.856,2.515-0.667,5.512-2.709,6.931c-2.734,1.902-5.931,3.25-7.063,6.397
	c0.007,0.123-0.007,0.257-0.063,0.411c-0.054,0.149-0.117,0.295-0.176,0.443c-0.041,0.186-0.081,0.371-0.107,0.568
	c-0.021,0.142-0.125,0.274-0.278,0.394c-1.304,3.017-3.115,5.907-3.84,9.104c-1.456,6.424,6.5,7.582,9.743,2.834
	c5.46-7.993,6.149-18.488,10.888-26.932c0.595-1.06,3.434-1.096,2.795,0.231c0.244-0.023,0.461-0.005,0.614,0.075
	c2.631,1.373,5.268,1.29,7.147-1.217c1.021-1.36,1.647-2.89,1.717-4.598c0.003-0.075,0.029-0.145,0.066-0.212
	c-0.08-0.175-0.094-0.393,0-0.663c2.01-5.767,3.362-14.279-2.694-17.828c-4.284-2.511-8.451-5.775-12.168-9.063
	c-3.461-3.062-6.736-6.371-9.668-9.938c-2.846,13.214-7.939,27.162-20.522,32.742c-0.58,0.257-1.174,0.5-1.786,0.72
	c0.156,0.018,0.312,0.036,0.468,0.056C337.36,162.321,341.683,163.58,345.788,166.092z M381.795,238.944
	c-1.532-2.998-2.429-6.247-2.837-9.609c-0.437,0.051-0.801,0.001-0.9-0.226c-1.335-3.014-4.761-5.53-7.326-7.446
	c-2.4-1.792-4.896-3.495-7.57-4.837c-0.025,0.009-0.045,0.02-0.071,0.029c-1.325,0.46-2.54,2.114-3.452,3.112
	c-1.541,1.688-3.02,3.43-4.472,5.194c-2.143,2.603-4.148,5.395-6.49,7.826c-0.12,0.125-0.307,0.226-0.522,0.305
	c-0.091,1.536-0.208,3.067-0.371,4.591c-0.092,0.858-2.937,1.127-2.898,0.776c1.261-11.796-0.063-23.989,3.188-35.513
	c-2.733-0.446-5.202-1.82-5.028-5.005c0.266-4.822,3.314-8.974,4.915-13.405c0.042-0.115,0.112-0.216,0.195-0.31
	c0.763-1.711,2.115-3.051,3.769-4.136c2.002-1.315,5.066-2.551,6.008-4.936c0.233-0.594,0.557-2.184,0.009-2.92
	c-0.688,0.326-1.812,0.437-2.229,0.294c-0.397,0.258-0.76,0.525-0.978,0.672c-1.543,1.045-3.066,2.19-4.401,3.497
	c-0.566,0.556-3.409,0.813-2.66,0.08c1.834-1.795,3.94-3.459,6.176-4.723c0.563-0.318,1.546-0.839,2.605-1.225
	c0.44-0.87,0.569-1.738-0.795-2.083c-2.916-0.738-5.25,0.353-7.529,2.097c-0.568,0.435-3.474,0.721-2.254-0.213
	c3.232-2.472,7.176-3.996,11.102-3.285c-0.082-0.346,0.104-0.761,0.73-1.116c3.645-2.063-3.63-1.812-4.499-1.702
	c-2.028,0.256-4.012,0.84-5.641,2.13c-2.515,1.99-4.359,4.638-5.626,7.573c-2.622,6.074-3.405,12.724-5.229,19.053
	c-4.646,16.134-11.989,33.315-10.355,50.45c0.564,5.939,1.756,15.132,7.849,18.17c5.502,2.744,12.17,0.148,17.257-2.389
	c10.992-5.483,20.49-13.385,30.259-20.723C381.741,238.973,381.771,238.96,381.795,238.944z M391.739,300.824
	c0.264-0.033,0.525-0.067,0.79-0.103c0.129-0.405,0.257-0.812,0.385-1.218C392.606,299.949,392.21,300.389,391.739,300.824z
	 M376.801,288.415c-0.479,0.315-1.977,0.989-2.49,0.389c-1.768-2.06-3.654-2.812-5.548-2.734c-0.5,0.191-1.076,0.3-1.467,0.217
	c-3.87,0.98-7.637,4.964-10.3,7.948c-0.112,0.125-0.329,0.237-0.591,0.328c2.674,2.475,3.972,5.875,2.902,10.195
	c7.14-0.827,14.274-1.675,21.407-2.554c2.733-0.336,5.466-0.676,8.199-1.021c0.016-0.103,0.095-0.228,0.281-0.386
	C395.634,295.298,382.004,284.998,376.801,288.415z M364.896,274.476c0.171,3.743,1.656,7.245,4.193,9.969
	c2.61-0.311,5.18,0.412,7.457,2.787c1.374-0.397,2.924-0.479,4.524-0.305c0.119-0.137,0.346-0.286,0.726-0.443
	c6.169-2.546,7.59-8.474,3.112-13.452c-1.628-1.81-3.691-3.463-6.069-4.145c-2.657-0.762-3.819,0.6-4.401,3.165
	c-0.174,0.764-2.249,1.242-2.794,0.749c-0.87-0.786-4.475-4.197-5.647-2.61C365.108,271.39,364.829,273.012,364.896,274.476z
	 M347.858,290.411c2.741,0.635,5.24,1.661,7.228,3.078c2.856-3.074,6.869-6.678,11.024-8.277c-0.426-0.488-0.844-1.026-1.246-1.606
	c-0.506,0.106-0.993,0.097-1.218-0.128c-3.375-3.391-8.096-5.311-11.813-0.958C349.834,284.86,348.614,287.463,347.858,290.411z
	 M324.024,299.473c1.267,1.022,2.283,2.331,2.896,3.89c3.547-0.963,7.01,0.607,9.747,3.229c0.245,0.234,0.267,0.48,0.147,0.709
	c6.518-0.721,13.034-1.458,19.55-2.207c2.166-8.936-7.083-13.642-16.339-13.694c0.475,1.624,0.616,3.405,0.415,5.333
	c-0.09,0.857-2.989,1.437-2.883,0.418c0.214-2.053-0.005-3.921-0.618-5.594C331.055,292.196,325.733,294.804,324.024,299.473z
	 M297.329,300.134c3.88-1.648,7.94-1.87,11.063,0.594c2.88-4.146,8.706-4.792,13.185-2.757c0.793-4.135,0.917-9.75-3.462-11.998
	c-3.44-1.767-7.548-1.456-11.203-0.413c0.978,1.875,1.924,3.767,2.87,5.658c0.446,0.892-2.38,1.813-2.898,0.776
	c-0.909-1.819-1.817-3.639-2.756-5.444C298.483,288.998,289.815,295.18,297.329,300.134z M287.881,312.58
	c2.089-0.225,4.178-0.447,6.267-0.672c13.209-1.412,26.418-2.826,39.624-4.277c-2.071-1.902-4.751-3.326-7.473-1.863
	c-1.089,0.586-2.255-0.132-1.995-0.921c-0.033-0.058-0.065-0.116-0.089-0.187c-0.439-1.363-1.343-2.566-2.491-3.51
	c-0.522-0.013-0.916-0.205-0.861-0.627c-3.492-2.268-8.51-2.347-10.476,1.926c-0.301,0.654-1.314,0.939-2.057,0.815
	c-0.511,0.179-1.079,0.161-1.437-0.188C301.059,297.38,289.746,306.275,287.881,312.58z M268.135,317.503
	c-0.017,0.357-0.238,0.646-0.548,0.854C267.887,318.287,268.109,318.059,268.135,317.503z M270.831,324.449
	c2.104,6.652,4.091,13.342,6.028,20.047c2.352-0.834,6.021-1.01,7.26-1.219c2.935-0.49,5.876-0.949,8.803-1.486
	c0.827-0.152,6.327-1.477,6.044-1.692c-0.119-0.091,0.002-0.249,0.245-0.417c-0.112-0.563-0.228-1.122-0.329-1.688
	c-0.125-0.695,0.635-1.225,1.409-1.383c0.935-1.935,8.3-2.138,9.487-2.297c8.591-1.154,17.21-2.105,25.825-3.051
	c14.608-1.602,29.249-2.963,43.849-4.646c0.823-0.438,2.259-0.549,2.326-0.148c0.85,0.238,0.729,1.262,0.015,1.834
	c0.032,1.373,0.146,2.725,0.32,4.063c3.297-1.151,7.359-1.4,10.637-1.988c5.19-0.93,10.478-1.961,15.767-2.23
	c0.094-4.166,0.186-8.332,0.286-12.498c0.122-5.008-0.106-10.189,0.37-15.189c-7.853,1.148-15.727,2.166-23.598,3.152
	c-29.07,3.641-58.203,6.758-87.333,9.875c-9.153,0.979-18.311,1.924-27.455,2.985c-0.256,0.341-0.699,0.621-1.263,0.657
	c-0.181,0.012-0.433,0.043-0.723,0.082c-0.058,0.009-0.114,0.018-0.175,0.025c-0.098,0.014-0.201,0.027-0.306,0.041
	c0.039,0.063,0.076,0.125,0.106,0.191C269.415,319.71,270.093,322.117,270.831,324.449z M352.765,366.039
	c7.693-1.295,15.378-2.703,22.99-4.412c3.44-0.771,7.065-1.459,10.455-2.617c-2.212-10.191-7.117-19.551-7.313-30.107
	c-13.104,1.502-26.243,2.729-39.354,4.153c-8.295,0.901-16.592,1.808-24.871,2.843c-2.884,0.36-5.771,0.721-8.644,1.164
	c-0.946,0.146-1.897,0.287-2.833,0.493c-0.235,0.052-0.396,0.093-0.509,0.125c-0.209,0.159-0.473,0.271-0.748,0.333
	c2.182,11.443,6.74,22.133,11.858,32.545C326.747,370.748,340.087,368.173,352.765,366.039z M286.396,378.945
	c0.004-0.002,0.007-0.004,0.011-0.006c5.945-2.287,13.722-2.004,19.962-2.63c13.238-1.325,26.489-2.517,39.738-3.722
	c13.831-1.258,27.666-2.489,41.486-3.859c4.769-0.473,9.536-0.947,14.293-1.518c1.626-0.193,4.424-0.407,5.928-0.764
	c0.063-5.359,0.153-10.717,0.25-16.074c0.122-6.85,0.264-13.697,0.414-20.545c-5.008,0.162-10.063,1.16-14.973,2.041
	c-3.323,0.596-8.152,0.926-11.143,2.154c1.381,8.146,4.873,15.775,6.686,23.926c1.374-0.287,2.599,1.137,0.932,1.873
	c-0.179,0.078-0.36,0.147-0.539,0.225c-0.145,0.555-1.522,0.996-2.325,0.934c-10.449,3.938-22.604,5.213-33.385,7.029
	c-12.896,2.171-26.336,4.738-39.518,4.723c-0.655,0.58-2.195,0.781-2.646-0.041c-0.133-0.004-0.268-0.002-0.399-0.008
	c-1.271-0.042-1.073-0.955-0.388-1.58c-4.723-9.627-8.954-19.494-11.266-29.979c-1.94,0.685-4.376,1.201-4.701,1.266
	c-3.449,0.682-6.922,1.229-10.39,1.809c-1.296,0.217-6.582,0.967-6.666,1.151c-0.076,0.166-0.276,0.304-0.533,0.417
	c0.926,3.217,1.844,6.436,2.752,9.656C282.183,363.242,284.377,371.072,286.396,378.945z M290.292,397.076
	c0.24,0.08,0.417,0.226,0.476,0.453c0.008,0,0.018-0.002,0.026-0.004c18.791-0.627,37.579-1.422,56.355-2.384
	c2.575-0.132,26.116-1.659,42.947-3.079c0.627-0.357,1.633-0.498,2.103-0.181c8.676-0.755,15.097-1.46,15.018-1.888
	c-0.038-0.209,0.189-0.414,0.528-0.584c-0.604-2.319,0.004-6.385-0.002-7.818c-0.018-4.463,0.01-8.928,0.057-13.391
	c-5.658,1.643-12.538,1.473-18.171,2.037c-13.236,1.326-26.487,2.518-39.736,3.721c-13.832,1.259-27.667,2.49-41.487,3.861
	c-4.769,0.473-9.536,0.947-14.293,1.517c-1.874,0.224-5.309,0.474-6.519,0.938c-0.271,0.104-0.556,0.141-0.824,0.129
	c0.623,2.457,1.233,4.916,1.814,7.383C288.807,388.746,290.548,394.031,290.292,397.076z M385.479,425.609
	c0.108-2.648,0.144-5.283,0.103-7.895c-1.069-0.034-1.789-1.068-0.384-1.785c1.073-0.547,2.204-0.982,3.369-1.34
	c0.093-7.047,0.863-14.059,0.975-21.104c-15.539,1.489-34.553,2.336-36.734,2.453c-20.673,1.109-41.359,2.006-62.051,2.703
	c-0.283,9.454-0.939,18.898-1.691,28.342C321.199,426.345,353.334,425.639,385.479,425.609z M420.644,421.705
	c-0.006-0.012-0.012-0.025-0.017-0.039c-3.747-3.447-10.409-4.742-14.907-5.426c-5.487-0.836-11.853-1.492-17.253,0.422
	c0.171,10.826-1.253,21.822-3.157,32.445c-1.759,9.797-3.41,19.871-11.956,26.127c-3.293,2.412-7.765,4.359-10.12,7.811
	c-1.193,1.748-3.661,6.789-0.493,7.748c2.828,0.854,5.746,1.152,8.697,1.047c8.18-0.291,16.37-3.021,24.539-3.291
	c0.27-0.072,0.531-0.096,0.753-0.043c0.043,0.01,0.083,0.013,0.126,0.023c0.69-0.008,1.383-0.002,2.072,0.031
	c0.368,0.018,0.486,0.109,0.448,0.234c10.771-0.174,12.667-18.733,13.875-26.77C415.272,448.574,416.156,434.635,420.644,421.705z
	 M492.947,425.22c-0.241-0.262-0.482-0.521-0.726-0.781c-0.967,0.365-2.342,0.125-1.935-0.969c0.1-0.268,0.216-0.531,0.326-0.796
	c-0.063-0.138,0.012-0.289,0.179-0.438c0.127-0.287,0.269-0.572,0.407-0.855c-4.008-1.588-9.846-11.473-11.156-13.189
	c-7.521-9.848-16.365-18.746-23.052-29.191c-2.023,0.394-4.052,0.752-6.083,1.084c-7.57,1.232-15.229,2.177-22.899,2.523
	c0.385,12.742,0.947,25.553-4.636,37.383c-0.009,0.018-0.022,0.033-0.033,0.051c0.313,0.142,0.495,0.404,0.412,0.805
	c0.447,0.482,0.856,0.994,1.199,1.557c0.273,0.449,0.081,0.873-0.302,1.18c0.001,0.002,0.002,0.006,0.003,0.008
	C447.427,423.66,470.176,425.072,492.947,425.22z M533.61,433.162c-7.208-8.221-7.563-19.674-13.943-28.274
	c-0.26-0.351-0.17-0.696,0.101-0.978c-0.1-0.002-0.194-0.014-0.282-0.039c-0.145-0.041-0.293-0.059-0.438-0.09
	c-0.494,0.092-0.973,0.067-1.226-0.164c-5.057-0.254-10.929,4.17-14.397,7.045c-3.844,3.188-7.521,6.893-9.676,11.443
	c8.721,9.081,16.846,19.405,22.836,30.502c2.771,5.129,4.373,10.314,3.714,16.207c-0.543,4.854-2.197,9.531-2.647,14.383
	c-0.255,2.748-0.205,5.789,1.209,8.266c1.84,3.221,3.229,1.707,5.497-0.248c4.048-3.492,7.446-7.711,10.644-11.975
	c4.561-6.082,8.548-13.893,14.458-18.793c0.155-0.129,0.491-0.246,0.868-0.324c-0.61-0.068-1.049-0.396-0.757-1.057
	C555.326,446.111,540.564,441.09,533.61,433.162z M558.242,427.042c-0.014-0.014-0.026-0.029-0.026-0.049
	c-0.117-8.43-4.424-15.609-13.836-13.912c-1.156,0.209-1.174-0.061-0.771-0.369c-0.453,0.009-0.776-0.064-0.699-0.235
	c4.246-9.37,1.848-19.135-6.953-24.823c-7.701-4.977-20.038-8.09-27.813-1.662c-0.184,0.151-0.621,0.283-1.094,0.373
	c4.767,4.75,9.425,9.606,12.962,15.385c0.392,0.064,0.78,0.145,1.169,0.254c0.888,0.255,0.726,0.824,0.201,1.277
	c0.395-0.002,0.75,0.105,0.949,0.375c3.574,4.816,5.074,10.535,7.139,16.078c1.004,2.689,2.143,5.096,3.49,7.309
	C541.387,427.042,549.815,427.042,558.242,427.042z M326.582,363.031c2.729-1.094,7.414-6.643,3.661-9.113
	c-1.582-1.041-3.51-1.387-5.286-1.965c-2.106-0.687-3.84-2.153-5.982-2.877c-0.864-0.293-1.782-0.549-2.456-1.197
	c-1.268-1.219,0.979-4.057,1.811-4.723c2.806-2.254,8.167-0.246,10,2.383c0.645,0.924,3.438-0.103,2.674-1.196
	c-2.626-3.767-8.453-4.638-12.557-3.243c-2.997,1.018-7.449,6.043-3.773,8.656c1.574,1.121,3.734,1.295,5.403,2.285
	c1.943,1.154,3.726,1.824,5.898,2.484c3.333,1.016,2.799,3.02,1.269,5.67c-2.189,3.791-7.499-0.043-8.906-2.521
	c-0.543-0.955-3.346,0.016-2.674,1.197C317.688,362.437,322.64,364.609,326.582,363.031z M337.781,361.218
	c-0.011-2.199-0.068-4.416-0.082-6.631c1.677-0.229,3.3-0.732,4.912-1.27c0.584-0.195,1.368-0.691,1.17-1.433
	c-0.187-0.69-1.146-0.851-1.729-0.655c-1.434,0.477-2.86,0.945-4.348,1.153c0.043-3.452,0.278-6.886,1.05-10.233
	c3.043,4.867,5.386,10.131,8.128,15.18c0.401,0.738,3.148-0.315,2.898-0.776c-3.282-6.04-5.975-12.394-10-18
	c-0.438-0.61-2.641-0.022-2.88,0.638c-2.654,7.313-2.057,15.161-2.02,22.805C334.886,362.501,337.785,362.07,337.781,361.218z
	 M361.444,357.66c1.204-0.838-1.703-0.473-2.226-0.108c-5.139,3.579-7.782-14.209-8.771-17c-0.251-0.708-3.113,0.169-2.898,0.776
	C349.751,347.542,350.897,365.006,361.444,357.66z M361.335,349.639c3.272,6.42,10.162,7.183,14.997,1.938
	c0.754-0.817-2.111-0.545-2.666,0.057c-1.982,2.15-3.878,2.779-6.338,1.008c-1.358-0.979-2.37-2.375-3.138-3.876
	c1.676-0.56,3.352-1.118,5.026-1.676c0.458-0.153,1.407-0.544,1.23-1.205c-0.168-0.624-1.211-0.581-1.668-0.429
	c-1.763,0.586-3.524,1.174-5.286,1.762c-0.051-0.128-0.105-0.258-0.153-0.385c-0.763-2.049-1.104-4.395-0.464-6.514
	c0.383-1.269,1.194-1.66,2.103-1.965c0.375-0.05,0.705-0.1,0.85-0.143c0.714-0.209,1.097-0.563,1.615-1.079
	c0.674-0.675-1.453-0.563-2.368-0.136c-0.73,0.111-1.367,0.312-1.934,0.572c-0.694,0.119-1.405,0.242-1.683,0.373
	c-0.92,0.438-0.616,0.705-0.004,0.803C359.02,341.285,359.444,345.93,361.335,349.639z M445.058,364.109
	c0.38,0.881,3.215-0.041,2.897-0.775c-5.909-13.707-6.199-29.672-13.509-42.78c-0.485-0.87-3.253,0.14-2.898,0.776
	C438.858,334.439,439.148,350.404,445.058,364.109z" fill="#0a1230"></path>
</svg>