<?xml version="1.0" standalone="no"?>
<svg version="1.1" id="Layer_1" xmlns="http://www.w3.org/2000/svg" xmlns:xlink="http://www.w3.org/1999/xlink" x="0px" y="0px" width="595.28px" height="595.28px" viewBox="0 0 595.28 595.28" enable-background="new 0 0 595.28 595.28" xml:space="preserve">
<path id="color_x5F_2" fill="#6c63ff" d="M487.698,373.148c-7.173,0.559-14.354,0.845-21.55,0.939
	c-0.19-0.912-0.416-1.813-0.726-2.679c-1.882-5.267-6.812-5.652-11.334-4.003l-1.797-0.399l-0.069,0.76
	c-0.563,0.165-1.075,0.49-1.192,0.934c-0.474,1.797-0.825,3.705-1.032,5.645l-7.854-0.07c-13.883-0.323-27.767-0.708-41.645-0.368
	l-11.048-0.099c-0.176-0.815-0.377-1.622-0.654-2.398c-0.042-0.117-0.094-0.219-0.139-0.332c0.285-1.191,0.024-2.405-1.88-2.827
	c-2.561-2.322-6.474-2.044-10.019-0.574c-0.801-0.162-2.156,0.263-2.356,1.024c-0.488,1.854-0.851,3.824-1.054,5.824
	c-5.182,0.146-10.364,0.454-15.514-0.344c-0.258-0.04-0.534,0.004-0.795,0.097c-0.521-5.702-2.076-16.59,4.414-16.891
	c0.474-0.021,1.283-0.419,1.698-0.789c29.52-0.029,59.036-0.559,88.555-0.854c0.262,0.468,1.467,0.368,2.226-0.024
	c9.962-0.096,19.925-0.159,29.888-0.167c0.948,0.452,2.008,1.088,2.967,1.956C489.174,361.438,487.991,368.65,487.698,373.148z
	 M380.744,368.493c-0.751,0.045-1.588,0.236-2.514,0.59C379.008,368.868,379.859,368.664,380.744,368.493z M373.214,376.569
	c0.003-0.061,0.002-0.122,0.005-0.184c-0.523,0.013-1.046,0.03-1.569,0.046L373.214,376.569z M190.047,429.069v44.192h92.568
	c0-14.731,0-29.462,0-44.193c-0.006,0-0.011,0.001-0.017,0.001C251.748,429.069,220.897,429.069,190.047,429.069z M120.131,459.59
	c0,8.918,0,17.836,0,26.754c0.348-0.191,0.733-0.327,1.04-0.327c17.307,0,34.614,0,51.92,0v-26.438
	c-0.046,0.005-0.09,0.011-0.139,0.011C155.346,459.59,137.738,459.59,120.131,459.59z M350.56,157.89l-0.553,1.474
	c0.251-0.457,0.438-0.95,0.554-1.476L350.56,157.89z M406.095,212.372c-0.126,0.276-0.272,0.547-0.41,0.82
	c0.171-0.317,0.318-0.598,0.438-0.831C406.113,212.364,406.104,212.369,406.095,212.372z M376.555,272.097
	c0.567-0.213,1.263-0.177,1.638-0.008c0.006-0.006,0.013-0.013,0.02-0.019c-3.798-12.849-3.179-27.319-3.181-40.485
	c0-0.941,2.898-1.408,2.898-0.777c0,0.104-0.001,0.21-0.001,0.313l2.741-0.822c-4.003,0.444-7.998-0.014-11.638-1.656
	c-0.109-0.05,0.202-0.279,0.657-0.51c-0.068-0.052-0.117-0.114-0.131-0.196c-2.171-13.321,0.381-26.778-1.217-40.139
	c-0.109-0.922,2.807-1.537,2.898-0.775c1.597,13.359-0.955,26.816,1.217,40.137c0.037,0.232-0.132,0.448-0.403,0.629
	c12.079,5.197,26.96-4.391,31.583-15.789c0.053-0.129,0.186-0.242,0.363-0.341c-2.941-6.059-5.384-12.519-8.071-18.849
	c-3.628-6.603-8.776-15.809-12.528-21.834c-7.982-9-18.73-11.275-29.821-14.285c-0.989,10.577-23.558,12.892-24.768,1.311
	c-0.017-0.159,0.014-0.309,0.076-0.446c-0.028-0.052-0.058-0.103-0.076-0.163c-0.153-0.487-0.323-0.936-0.503-1.361l-4.313,1.294
	c0,0-8.859,3.797-16.397,8.076c-10.693,8.398-17.818,21.232-21.49,34.632c-0.064,0.233-0.249,0.434-0.493,0.596
	c3.455,6.667,11.016,10.744,18.156,12.258c2.076-10.91,4.437-21.781,6.782-32.645c0.261-1.209,3.217-1.607,2.926-0.258
	c-6.534,30.264-13.224,60.582-13.377,91.691c0.061,0.021,0.126,0.045,0.189,0.066c0.427,0.119,1.535,0.425,3.174,0.855
	c11.178,2.113,22.396,4.496,33.745,5.281c3.898,0.27,7.745,0.293,11.552,0.09c6.242-0.807,13.371-2.032,19.279-3.127
	C370.893,274.063,373.729,273.153,376.555,272.097z M299.593,234.757l-0.255,5.783c0.346-2.785,0.721-5.566,1.133-8.344
	C300.184,233.052,299.89,233.904,299.593,234.757z M303.356,215.084c0.09-0.483,0.181-0.968,0.272-1.452
	c-0.255,0.132-0.557,0.252-0.851,0.351l-0.58,3.479c0.172-0.557,0.345-1.114,0.518-1.672
	C302.814,215.474,303.056,215.239,303.356,215.084z M395.774,224.581c1.573-0.629,3.102-1.916,4.489-3.444
	c-0.027-0.157-0.061-0.312-0.087-0.469c-1.578,1.563-3.343,2.986-5.228,4.242C395.227,224.8,395.504,224.689,395.774,224.581z
	 M402.52,218.312c0.619-0.869,1.185-1.737,1.684-2.549c-0.563,0.857-1.171,1.698-1.838,2.509
	C402.421,218.281,402.471,218.296,402.52,218.312z"></path>
<path id="color_x5F_1" d="M348.349,133.196c0.343-0.113,0.659-0.286,0.881-0.552c0.427-0.512-0.362-0.709-0.739-0.68
	c-0.631,0.05-1.239,0.168-1.801,0.475c-0.174,0.095-0.317,0.206-0.458,0.327c-0.343,0.113-0.66,0.287-0.882,0.553
	c-0.427,0.512,0.362,0.709,0.739,0.68c0.631-0.05,1.24-0.168,1.802-0.475C348.064,133.43,348.208,133.318,348.349,133.196z
	 M348.657,132.914c-0.021,0.021-0.019,0.021-0.025,0.03c-0.004,0.002-0.008,0.004-0.013,0.006
	C348.632,132.938,348.645,132.927,348.657,132.914z M345.923,133.05c0.021-0.021,0.019-0.021,0.025-0.029
	c0.004-0.003,0.008-0.005,0.012-0.007C345.947,133.026,345.935,133.037,345.923,133.05z M318.853,118.771
	c-2.167,3.271-5.17,7.745-1.239,10.883c0.903,0.721-1.801,1.886-2.678,1.186c-4.342-3.466-1.223-8.583,1.192-12.229
	C316.711,117.73,319.652,117.563,318.853,118.771z M328.563,121.735c-0.386,0.52-1.292,0.818-1.918,0.772
	c-1.347-0.098-2.3-1.142-3.207-2.048c-0.717-0.717,2.017-1.787,2.699-1.105c0.36,0.359,0.722,0.722,1.111,1.051
	c0.168,0.143,0.343,0.311,0.533,0.423c0.248,0.146,0.636,0.172,0.016,0.127C328.203,120.984,328.987,121.166,328.563,121.735z
	 M325.633,136.163c-0.116,1.442-2.12,1.649-3.217,1.651c-0.507,0.001-1.172-0.365-0.811-0.943c0.268-0.428,0.768-0.646,1.272-0.745
	C323.488,135.33,325.724,135.053,325.633,136.163z M486.787,354.044c-0.02-0.265-0.273-0.456-0.887-0.456
	c-0.146,0-0.293,0.001-0.438,0.001c-0.544-0.13-1.137-0.214-1.786-0.244c-0.217-0.01-0.588,0.097-0.969,0.253
	c-6.895,0.012-13.79,0.05-20.686,0.104c0.305-0.19,0.498-0.42,0.439-0.658c-1.977-8.084,0.743-25.543-12.472-22.708
	c1.888-9.735-5.877-14.285-12.078-20.716c-7.935-13.988-12.556-29.291-18.573-44.139c-6.214-15.332-13.979-30.305-16.475-46.836
	c-0.025-0.165-0.156-0.271-0.344-0.334c-0.049-0.016-0.099-0.03-0.154-0.04c0.667-0.811,1.275-1.651,1.838-2.509
	c0.55-0.838,1.042-1.695,1.481-2.57c0.138-0.273,0.284-0.544,0.41-0.82c0.01-0.003,0.019-0.008,0.028-0.011
	c0.657-0.226,1.185-0.632,0.997-1.013c-6.388-12.997-10.593-27.138-19.047-39.045c-8.855-12.473-22.72-14.108-36.337-18.162
	c-0.047-1.01-0.114-2.016-0.21-3.016c0.347-0.015,0.69-0.098,0.95-0.266c17.237-11.154,24.588-43.203,5.888-56.551
	c-13.484-9.624-42.634-8.481-50.146,8.471c-0.314,0.71,0.26,1.013,0.968,1.01c0.123,0.057,0.283,0.089,0.482,0.091
	c-0.454,0.191-0.836,0.507-0.945,0.925c-2.874,10.982-9.869,24.253-4.844,35.559c1.94,4.364,7.543,6.8,11.813,7.95
	c5.687,1.531,10.264,2.134,12.617,7.716c0.18,0.426,0.35,0.874,0.503,1.361c0.019,0.061,0.048,0.111,0.076,0.163
	c-0.063,0.138-0.093,0.287-0.076,0.446c1.21,11.581,23.778,9.267,24.768-1.311c11.091,3.01,21.839,5.285,29.821,14.285
	c0.379,0.428,0.76,0.854,1.126,1.313c4.893,6.127,8.31,13.238,11.402,20.521c2.688,6.33,5.13,12.79,8.071,18.849
	c-0.178,0.099-0.311,0.212-0.363,0.341c-4.623,11.398-19.504,20.986-31.583,15.789c0.271-0.181,0.44-0.396,0.403-0.629
	c-2.172-13.32,0.38-26.777-1.217-40.137c-0.092-0.762-3.008-0.146-2.898,0.775c1.598,13.36-0.954,26.817,1.217,40.139
	c0.014,0.082,0.063,0.145,0.131,0.196c-0.455,0.23-0.767,0.46-0.657,0.51c3.64,1.643,7.635,2.101,11.638,1.656
	c0.148-0.017,0.297-0.024,0.445-0.044c-0.002,0.038-0.008,0.074-0.003,0.113c3.813,28.888,9.579,57.672,19.461,85.141
	c0.139,0.385,0.562,0.539,1.044,0.539c-0.42,3.244-0.629,7.178,2.108,9.315c0.46,0.359,0.976,0.643,1.524,0.876
	c-11.269,1.629-8.107,18.969-8.855,28.201c-0.014,0-0.026,0-0.039,0l-15.419-78.885c0.724-0.205,1.381-0.604,1.25-0.961
	c-4.966-13.532-4.267-29.25-4.258-43.474c0-0.104,0.001-0.21,0.001-0.313c0-0.631-2.898-0.164-2.898,0.777
	c0.002,13.166-0.617,27.637,3.181,40.485c0.002,0.009,0.004,0.018,0.007,0.026c-0.008-0.004-0.019-0.005-0.026-0.008
	c-0.375-0.169-1.07-0.205-1.638,0.008c-2.825,1.057-5.662,1.966-8.512,2.744c-5.908,1.095-13.037,2.32-19.279,3.127
	c-3.807,0.203-7.653,0.18-11.552-0.09c-11.349-0.785-22.567-3.168-33.745-5.281c-1.639-0.431-2.747-0.736-3.174-0.855
	c-0.092-0.025-0.164-0.045-0.189-0.053c0-0.004,0-0.009,0-0.014c0.153-31.109,6.843-61.428,13.377-91.691
	c0.291-1.35-2.665-0.951-2.926,0.258c-2.346,10.863-4.706,21.734-6.782,32.645c-7.14-1.514-14.702-5.591-18.156-12.258
	c0.244-0.162,0.429-0.362,0.493-0.596c3.671-13.399,10.796-26.233,21.49-34.632c5.322-4.181,11.524-7.268,18.633-8.768
	c1.799-0.38,1.313-2.064-0.453-1.691c-22.501,4.75-36.766,24.155-42.584,45.39c-0.018,0.065-0.022,0.124-0.022,0.181
	c-0.41,0.21-0.68,0.462-0.578,0.667c1.08,2.163,2.577,4.066,4.345,5.717c-0.357,0.182-0.636,0.433-0.704,0.738
	c-1.926,8.676-6.472,16.899-12.023,23.783c-3.369,4.18-8.563,8.971-14.069,5.549c-3.871-2.406-6.656-7.123-9.425-10.621
	c-0.027-0.034-0.062-0.06-0.095-0.088c0.076-0.057,0.143-0.116,0.185-0.183c6.016-9.387-0.815-18.813-9.888-22.255
	c0.072-0.066,0.132-0.138,0.166-0.214c5.522-12.663-4.957-18.329-16.044-20.243c-7.765-1.341-15.371-1.77-21.786,1.538
	c-1.104-1.141-7.52-1.91-8.008-1.977c-9.166-1.244-18.418-1.931-27.636-2.646c-18.2-1.412-36.488-2.806-54.744-3.214
	c-0.753-0.018-2.337,0.881-1.889,1.249c-0.659,0.13-1.324,0.481-1.483,0.986c-1.686,5.327-3.736,10.507-4.771,16.02
	c-0.004,0.021,0,0.036-0.003,0.056c-0.671,0.427-1.017,1.063-0.057,1.38c2.663,0.879,5.275-0.077,7.395-1.69
	c-0.084,1.926,0.058,3.697,0.863,5.531c0.26,0.594,1.017,0.729,1.701,0.584c-0.023,0.017-0.047,0.033-0.07,0.05
	c-0.436,0.306-0.825,0.949-0.207,1.309c0.605,0.352,1.521,0.157,2.064-0.225c1.538-1.083,3.076-2.165,4.614-3.248
	c0.614,1.647,1.653,3.085,2.665,4.509c0.013,0.019,0.033,0.03,0.049,0.046c0.311,0.497,2.349,0.159,2.739-0.441
	c0.763-1.175,1.622-2.213,2.596-3.152c1.017,2.497,2.799,4.938,5.543,5.594c2.162,0.517,3.729-1.265,4.826-3.276
	c1.316,1.58,2.998,2.623,5.328,2.463c1.757-0.121,3.123-1.047,4.18-2.309c1.063,1.91,2.422,3.73,4.387,4.556
	c1.932,0.812,3.742,0.082,5.14-1.187c0.677,1.75,1.761,3.346,3.722,3.627c1.669,0.239,3.096-0.48,4.233-1.567
	c0.875,1.717,1.94,3.243,3.699,4.191c0.761,0.41,2.326-0.043,2.794-0.748c0.779-1.173,1.641-2.282,2.489-3.398
	c0.598,1.204,1.39,2.36,2.628,2.817c1.451,0.535,2.872,0.035,4.056-0.812c0.485,1.421,1.287,2.902,2.734,3.408
	c0.656,0.229,1.356,0.272,2.052,0.188c-0.173,1.173-0.297,2.351-0.365,3.532c-0.582,10.125,5.939,15.816,15.213,17.762
	c1.631,0.342,3.755,0.674,6.165,0.924c-0.286,0.371-0.299,0.804,0.237,1.146c10.063,6.408,17.791,16.415,26.522,24.427
	c8.323,7.636,18.715,15.753,30.662,14.97c11.514-0.755,19.656-11.451,24.96-20.561c3.861-6.63,6.782-13.748,9.314-21.015
	c0.297-0.853,0.591-1.705,0.878-2.561c-0.412,2.777-0.787,5.559-1.133,8.344c-1.243,10.004-2.036,20.063-2.14,30.207
	c-0.36,0.19-0.62,0.453-0.62,0.755c-0.052,69.932-5.926,141.409,12.79,209.663c0.077,0.49,0.121,0.762,0.121,0.762
	s0.035,0.018,0.098,0.047c0.127,0.46,0.243,0.922,0.373,1.381c0.116,0.41,0.604,0.55,1.148,0.51
	c0.171,0.231,0.469,0.449,0.796,0.643c-8.758,0.307-15.095,6.816-16.541,15.665c-0.07,0.429,0.292,0.627,0.782,0.655
	c-0.754,0.482-1.188,1.194,0.104,1.203c17.656,0.125,35.907,4.254,53.373,0.212c1.101-0.255,1.354-0.91,0.967-1.27
	c0.004-0.051-0.002-0.101-0.025-0.149c-1.741-3.646-2.819-7.506-3.788-11.402c5.909-0.299,8.419-2.024,9.466-3.244
	c0.848-0.13,1.771-0.621,1.62-1.166c-0.072-0.264-0.141-0.527-0.213-0.791c0.296-0.294,0.166-0.482-0.156-0.576
	c-14.441-52.892-18.752-108.487-19.072-163.187c2.166,6.958,6.295,19.94,9.697,30.606c0.625,2.213,1.316,4.411,2.104,6.589
	c1.97,6.164,3.354,10.485,3.354,10.485s0.097-0.387,0.283-1.017c-0.063,3.406,0.376,7.025,0.418,9.972
	c0.011,0.717,2.912,0.211,2.898-0.777c-0.001-0.063-0.004-0.135-0.006-0.201c0.265,0.039,0.53,0.067,0.796,0.1
	c0,16.28,0,32.561,0,48.84c0,0.141,0.319,0.189,0.743,0.164c-0.325,0.482-0.251,0.957,0.713,0.956
	c2.645-0.001,5.289-0.024,7.934-0.037l15.233,51.646c0,0,0.56,0.165,1.552,0.439c-0.185,0.486,0.844,0.608,1.704,0.463
	c0.075,0.021,0.146,0.039,0.224,0.06c2.511,1.051,5.152,1.967,7.875,2.726c-0.048,0.114-0.082,0.236-0.082,0.37
	c-0.002,3.604-0.062,7.179-1.139,10.65c-0.14,0.45-0.024,0.78,0.22,1.002c-0.444,0.401-0.573,0.918,0.068,1.291
	c14.104,8.201,35.958,12.562,49.521,1.067c0.696-0.591,0.572-1.153,0.126-1.492c0.257-0.229,0.405-0.515,0.346-0.835
	c-1.207-6.436-5.205-10.949-10.707-13.717c1.977-1.115,3.043-2.024,3.043-2.024l-14.936-43.017c-0.487-1.794-1.105-3.751-1.86-5.357
	l-1.363-3.927c22.911-0.42,45.822-0.878,68.736-0.89c1.186,0,2.717-1.65,1.441-1.92c0-15.819,0-31.641,0-47.461
	c0.525-0.04,1.052-0.07,1.577-0.114c0.747-0.063,1.283-0.55,1.446-1.036c0.097-0.116,0.158-0.243,0.16-0.381
	C490.622,367.835,493.063,356.918,486.787,354.044z M351.322,149.275c-0.01-0.083-0.02-0.167-0.029-0.25
	c0.944-0.747,2.692-2.14,4.576-3.709C354.459,146.825,352.935,148.151,351.322,149.275z M358.074,97.39
	c0.687,0.591,1.312,1.224,1.908,1.874c-1.678-1.516-3.451-2.936-5.096-4.151C356.038,95.808,357.113,96.563,358.074,97.39z
	 M350.007,159.363c-3.317,6.059-17.444,6.031-18.297-2.14c-0.002-0.021-0.012-0.038-0.016-0.059
	c0.063-0.168,0.077-0.352,0.016-0.549c-3.488-11.09-14.729-7.965-22.401-14.241c-5.949-4.866-5.079-13.443-2.793-21.734
	c0.279,0.252,0.756,0.333,1.118,0.333c1.203-0.002,2.593-0.162,3.521-1.009c0.444-0.405,0.788-1.067,0.154-1.505
	c-0.566-0.392-1.574-0.287-2.078,0.173c-0.042,0.042-0.09,0.077-0.137,0.113c-0.019,0.006-0.033,0.011-0.061,0.019
	c-0.037,0.011-0.057,0.018-0.078,0.023c-0.016,0.002-0.023,0.003-0.046,0.006c-0.338,0.046-0.681,0.047-1.021,0.047
	c-0.297,0-0.645,0.109-0.941,0.292c1.617-5.466,3.713-10.699,4.716-14.532c0.131-0.498-0.151-0.777-0.583-0.881
	c10.674-1.395,21.53-0.446,30.825,5.424c0.061,0.038,0.127,0.068,0.198,0.092c-1.663,4.943-3.407,14.707,2.739,16.973
	c-1.256,1.199,1.527,1.641,2.44,0.802c3.166-2.913,6.884-1.841,8.398,2.024c2.022,5.158-3.498,7.986-7.649,8.684
	c-0.671,0.113-1.781,0.533-1.583,1.43c1.126,5.078,2.108,10.1,2.356,15.287c-0.512,0.312-0.766,0.662-0.239,0.823
	c0.092,0.028,0.184,0.055,0.275,0.083c0.006,0.188,0.019,0.374,0.022,0.563c0.018,0.876,1.017,1.08,1.845,0.85
	c-0.009,0.396-0.066,0.771-0.147,1.135C350.444,158.413,350.258,158.906,350.007,159.363z M186.37,211.619
	c-0.909-0.827-1.336-2.148-1.646-3.298c-0.083-0.309-0.671-0.338-1.296-0.215c-0.095-0.172-0.268-0.313-0.511-0.385
	c-0.692-0.207-1.547,0.039-2.049,0.549c-0.266,0.27-0.595,0.676-0.971,0.799c0.19-0.063-0.225-0.143-0.416-0.31
	c-0.916-0.802-1.426-2.069-1.883-3.161c-0.057-0.137-0.148-0.243-0.259-0.329c0.356-0.55,0.698-1.112,1.003-1.699
	c0.267-0.513-2.467-0.288-2.866,0.479c-1.124,2.161-2.664,4.025-4.11,5.962c-1.019-0.967-1.73-2.188-2.365-3.523
	c-0.142-0.299-0.642-0.336-1.189-0.238c0.249-0.376,0.474-0.759,0.669-1.137c0.26-0.503-2.471-0.28-2.865,0.482
	c-0.468,0.907-0.978,1.743-1.703,2.469c-0.048,0.048-0.069,0.078-0.1,0.115c-0.004-0.001-0.004-0.003-0.008-0.004
	c-0.296-0.08-0.554-0.306-0.787-0.491c-1.357-1.084-1.906-3.146-2.304-4.745c-0.16-0.642-2.522-0.094-2.859,0.559
	c-0.268,0.116-0.491,0.267-0.61,0.449c-0.46,0.707-1.02,1.864-1.996,1.454c-0.774-0.325-1.367-1.009-1.908-1.623
	c-1.096-1.245-1.897-2.76-2.608-4.252c0.221-0.502,0.416-1.005,0.583-1.493c0.338-0.988-2.566-0.604-2.897,0.365
	c-0.073,0.212-0.161,0.47-0.261,0.75c-0.381,0.238-0.606,0.559-0.449,0.893c0.018,0.039,0.039,0.081,0.057,0.12
	c-0.573,1.359-1.421,2.834-2.598,3.045c-1.859,0.333-3.624-2.612-4.32-3.878c-0.011-0.021-0.029-0.035-0.042-0.055
	c0.012-0.033,0.026-0.069,0.039-0.102c0.603-1.606-2.307-1.661-2.785-0.387c-0.622,1.658-1.466,3.164-2.544,4.54
	c-1.894-0.739-3.1-2.784-3.767-4.628c-0.104-0.289-0.317-0.477-0.58-0.589c0.047-0.252-0.155-0.481-0.523-0.541
	c-0.711-0.115-1.475,0.14-2.049,0.55c-1.207,0.861-2.254,1.858-3.197,2.959c-0.61-0.924-1.167-1.88-1.539-2.928
	c-0.105-0.299-0.788-0.262-1.465-0.086c0.322-0.335,0.5-0.821-0.009-1.118c-0.605-0.352-1.522-0.157-2.064,0.225
	c-1.491,1.05-2.981,2.099-4.472,3.147c0.047-0.154,0.047-0.32-0.03-0.496c-0.839-1.914-0.925-3.669-0.784-5.726
	c0.045-0.662-0.504-0.948-1.14-0.95c-0.005-0.732-2.033-0.746-2.675-0.091c-1.031,1.054-2.21,2.033-3.613,2.104
	c0.014-0.038,0.031-0.074,0.039-0.114c1.034-5.513,3.084-10.691,4.77-16.02c0.075-0.238,0.023-0.415-0.108-0.539
	c16.047,0.382,32.112,1.601,48.115,2.767c9.093,0.664,18.186,1.389,27.251,2.363c3.056,0.329,6.112,0.693,9.146,1.19
	c0.535,0.088,3.617,1.014,3.794,0.822c-0.317,0.343,0.035,0.484,0.58,0.487c-1.444,0.979-2.811,2.196-4.096,3.662
	c-0.052,0.038-0.097,0.076-0.13,0.117c-0.113,0.145-0.232,0.284-0.351,0.424c-0.043,0.053-0.088,0.096-0.131,0.148
	c-0.131,0.161-0.181,0.31-0.029,0.474c0.001,0.001,0.003,0.003,0.004,0.005c0.038,0.041,0.093,0.063,0.141,0.091
	c-4.584,6.181-8.087,13.512-9.481,21.145C186.841,212.04,186.595,211.823,186.37,211.619z M200.02,232.621
	c-9.713-3.146-11.695-11.402-10.215-20.149c0.154-0.099,0.308-0.199,0.45-0.306c0.435-0.325,0.399-0.659-0.187-0.698
	c-0.026-0.002-0.057,0.003-0.084,0.002c1.565-7.899,5.806-16.053,9.632-21.095c0.167-0.222,0.085-0.353-0.128-0.419
	c0.045-0.056,0.092-0.108,0.136-0.164c0.029-0.035,0.043-0.066,0.06-0.098c0.811-0.602,2.288-2.225,2.666-2.556
	c2.704-2.374,5.679-3.333,9.281-3.333c5.213-0.001,10.47,0.494,15.542,1.719c9.319,2.25,14.958,8.254,11.432,17.565
	c-2.507-0.642-5.108-0.814-7.606-0.412c1.293-3.378,2.688-7.774-0.569-10.363c-1.465-1.164-3.533-1.563-5.313-1.94
	c-3.275-0.692-6.621-1.064-9.917-1.652c-1.381-0.247-2.649,1.531-1.393,2.108c-3.688,0.013-7.192,2.115-8.906,5.352
	c-5.855,3.401-8.502,13.661-8.054,19.572c-0.988,1.856-1.505,3.902-1.352,5.997c0.022,0.306,1.185,0.219,2.03-0.076
	c-0.09,0.209,0.018,0.405,0.479,0.531c8.158,2.225,26.146,6.492,30.807-3.676c2.563,2.029,5.694,3.415,8.782,3.966
	C238.779,238.784,209.664,235.744,200.02,232.621z M224.142,212.692c0.635,1.435,1.528,2.745,2.599,3.917
	c-0.041,0.062-0.074,0.124-0.09,0.19c-2.551,10.772-19.368,5.967-26.847,3.928c-0.328-0.09-0.916,0.051-1.417,0.279
	c0-0.011,0.006-0.021,0.005-0.031c-0.13-1.791,0.244-3.581,0.978-5.221c0.244-0.209,0.397-0.467,0.375-0.758
	c0-0.008,0-0.015,0-0.022c2.091-3.895,6.322-6.691,10.98-5.983c2.575,0.391,4.912,2.144,5.818,4.563
	c1.562,4.171-4.159,6.174-7.023,6.798c-1.109,0.241-2.581,1.455-0.554,1.014c3.074-0.669,7.903-1.603,9.657-4.608
	c2.404-4.121-0.665-7.163-4.381-8.503c2.965-2.421,3.385-5.72,2.227-8.425c0.255-0.067,0.467-0.145,0.571-0.219
	c1.681-1.199,3.655-2.91,3.247-5.213c-0.272-1.532-1.755-2.477-3.167-2.995c3.388,0.46,6.892,0.838,10.012,2.067
	c4.037,1.591,1.911,6.654,0.783,9.546c-0.075,0.192-0.097,0.361-0.081,0.511C223.624,205.183,222.252,208.423,224.142,212.692z
	 M212.138,198.453c3.086,2.521,3.049,6.786-0.167,9.125c-0.037,0.027-0.062,0.053-0.095,0.079
	c-4.237-0.598-8.826,1.221-12.071,4.273c0.39-4.084,2.024-8.247,4.067-11.593c0.525-0.86,1.115-1.579,1.755-2.13
	c0.654-0.126,1.3-0.384,1.395-0.716c0.019-0.065,0.042-0.128,0.062-0.192C208.596,196.688,210.313,196.962,212.138,198.453z
	 M208.056,195.073c1.413-2.36,3.768-3.735,6.791-2.52c3.254,1.308,2.927,4.095,0.996,6.101
	C214.288,196.249,211.404,194.608,208.056,195.073z M290.599,249.413c-5.109,10.809-13.649,24.545-27.084,24.735
	c-11.371,0.161-21.775-9.898-29.44-17.138c-7.326-6.918-13.996-15.184-22.371-20.921c12.617,0.706,29.478-1.324,28.792-14.096
	c0.426-0.228,0.659-0.438,0.344-0.478c-5.943-0.761-18.004-8.04-14.121-15.662c0.385-0.756,1-1.278,1.753-1.63
	c0.66,0.227,1.644,0.044,2.083-0.535c3.063-0.325,6.965,0.784,8.89,1.53c2.636,1.021,4.899,2.818,6.848,4.824
	c4.481,4.613,5.082,11.201,1.659,16.544c-0.038,0.06,0.02,0.103,0.141,0.131c-0.213,0.247-0.275,0.532-0.051,0.815
	c3.423,4.324,6.667,9.57,11.802,12.023c3.963,1.893,8.258-0.125,11.52-2.399c8.693-6.062,14.972-18.409,17.499-28.653
	c3.77,2.861,8.39,4.759,12.855,5.662c0.23,0.047,0.639-0.043,1.062-0.185c0.294-0.099,0.596-0.219,0.851-0.351
	c-0.092,0.484-0.183,0.969-0.272,1.452c-0.301,0.155-0.542,0.39-0.641,0.706c-0.173,0.558-0.346,1.115-0.518,1.672
	C298.845,228.302,295.459,239.13,290.599,249.413z M484.847,355.549c0.827,0.477,1.453,1.155,1.941,1.959
	c2.386,3.931,1.203,11.143,0.91,15.641c-7.173,0.559-14.354,0.845-21.55,0.939c-0.19-0.912-0.416-1.813-0.726-2.679
	c-1.882-5.267-6.812-5.652-11.334-4.003c-0.235,0.086-0.472,0.173-0.704,0.27c-0.333-0.067-0.76-0.027-1.162,0.091
	c-0.563,0.165-1.075,0.49-1.192,0.934c-0.474,1.797-0.825,3.705-1.032,5.645c-0.003,0.033-0.008,0.065-0.012,0.099
	c-2.614-0.05-5.229-0.108-7.843-0.169c-13.883-0.323-27.767-0.708-41.645-0.368c-3.645,0.089-7.288,0.212-10.932,0.418
	c-0.034-0.174-0.079-0.344-0.116-0.517c-0.176-0.815-0.377-1.622-0.654-2.398c-0.042-0.117-0.094-0.219-0.139-0.332
	c-0.478-1.195-1.115-2.133-1.88-2.827c-2.561-2.322-6.474-2.044-10.019-0.574c-0.801-0.162-2.156,0.263-2.356,1.024
	c-0.488,1.854-0.851,3.824-1.054,5.824c-5.182,0.146-10.364,0.454-15.514-0.344c-0.258-0.04-0.534,0.004-0.795,0.097
	c-0.521-5.702-2.076-16.59,4.414-16.891c0.474-0.021,1.283-0.419,1.698-0.789c29.52-0.029,59.036-0.559,88.555-0.854
	c0.262,0.468,1.467,0.368,2.226-0.024c9.962-0.096,19.925-0.159,29.888-0.167C484.163,355.552,484.505,355.549,484.847,355.549z
	 M462.772,387.66c-0.187,0.021-0.376,0.066-0.563,0.148c-10.681,4.695-9.996-11.406-8.505-18.348
	c0.186-0.021,0.376-0.066,0.562-0.148C464.947,364.619,464.264,380.717,462.772,387.66z M376.283,375.774
	c0.598-0.491,0.873-1.136,0.082-1.275c0.148-1.889,0.414-3.646,0.713-5.038c0.187-0.021,0.377-0.066,0.563-0.148
	c0.203-0.089,0.394-0.155,0.589-0.229c0.926-0.354,1.763-0.545,2.514-0.59c3.429-0.206,5.129,2.551,5.83,6.198
	c-0.877,0.365-1.753,0.974-0.374,0.886c0.173-0.011,0.346-0.016,0.518-0.026c0.598,4.088,0.095,9.008-0.571,12.109
	c-0.186,0.021-0.375,0.066-0.562,0.148C377.522,391.353,375.936,383.047,376.283,375.774z M425.264,350.431
	c2.395,0.194,4.279-0.644,5.752-2.109c0.266,0.104,0.622,0.113,1.059-0.027c1.494-0.482,2.81-1.196,3.967-2.083
	c0.016-0.001,0.027,0,0.044-0.001c3.202-0.241,5.769-1.652,7.815-3.694c5.395-0.89,7.913,6.52,7.888,11.276
	c-14.688,0.149-29.378,0.353-44.067,0.525c0.506-3.486,0.662-7.187,1.848-10.525c1.45-4.081,6.156-3.724,9.762-3.742
	c0.238-0.001,0.779-0.181,1.275-0.4c-0.258,1.115-0.536,2.224-0.76,3.289C418.926,347.319,420.641,350.057,425.264,350.431z
	 M449.702,331.579c0.157-0.007,0.326-0.023,0.519-0.066c9.734-2.141,8.033,16.646,9.32,22.209c-1.611,0.014-3.223,0.023-4.834,0.039
	c0.428-6.102-3.153-12.834-9.426-12.818c2.013-2.591,3.408-5.815,4.315-8.958C449.637,331.847,449.666,331.715,449.702,331.579z
	 M404.678,314.293c0.072-0.509-0.729-0.583-1.505-0.417c-9.681-27.166-15.369-55.604-19.144-84.147
	c3.832-0.901,7.572-2.588,10.92-4.818c1.885-1.256,3.649-2.68,5.228-4.242c0.026,0.157,0.06,0.312,0.087,0.469
	c2.651,15.271,9.602,29.377,15.539,43.575c6.313,15.098,10.875,30.781,18.885,45.111c-0.064,0.121-0.065,0.24,0.035,0.348
	c0.127,0.135,0.26,0.265,0.389,0.397c0.245,0.431,0.481,0.864,0.733,1.292c0.161,0.274,0.533,0.369,0.958,0.351
	c4.523,4.152,9.738,7.632,10.598,14.243c0.489,3.765-1.295,10.648-4.557,14.846c-0.627,0.233-0.869,0.603-0.764,0.901
	c-1.308,1.412-2.816,2.38-4.483,2.601c3.731-3.882,5.322-9.837,5.419-15.211c0.026-1.466-2.906-0.991-2.928,0.248
	c-0.1,5.543-1.819,13.336-7.271,16.055c2.851-5.061,3.269-13.05,2.886-17.176c-0.126-1.353-3.03-0.643-2.898,0.777
	c0.35,3.762-0.191,7.674-1.088,11.324c-0.572,2.33-1.562,4.881-3.347,6.551c-1.979,1.851-5.703,0.794-5.881-2.002
	c-0.254-3.979,1.918-7.905,1.957-11.927c0.041-4.108-2.723-6.547-6.388-7.757c-0.489-0.161-1.108,0.014-1.586,0.32
	c-0.049-0.008-0.095-0.018-0.158-0.021c-3.035-0.196-6.888,0.107-9.606-1.498C403.428,322.549,404.244,317.354,404.678,314.293z
	 M408.202,328.307c0.808,0.104,1.679-0.521,1.883-1.113c1.55,0.096,3.087,0.087,4.403,0.173c0.271,0.018,0.78-0.145,1.252-0.361
	c0.004,0.264,0.187,0.507,0.652,0.66c5.759,1.9,5.411,6.52,4.395,11.178c-4.138,0.021-8.946,0.069-12.303,2.786
	c-3.216,2.602-3.096,8.837-3.564,12.719c-1.874,0.021-3.747,0.041-5.621,0.061C399.856,346.519,396.124,326.738,408.202,328.307z
	 M378.359,272.59c0.012,0.036,0.02,0.073,0.031,0.109c-0.064,0.006-0.129,0.014-0.193,0.025
	C378.266,272.679,378.318,272.634,378.359,272.59z M340.206,489.225c1.254,0.118,2.41,0.188,3.484,0.219
	c0.979,3.996,2.048,7.962,3.778,11.712c-16.215,3.211-33.322-0.576-49.671-0.755c0.249-0.161,0.429-0.359,0.465-0.584
	c1.287-7.873,6.403-14.415,15.019-13.585c0.459,0.044,1.053-0.195,1.466-0.505c3.501,1.245,7.312,1.897,10.923,2.486
	C330.272,488.963,335.27,489.438,340.206,489.225z M429.607,481.148c5.472,2.55,9.325,6.912,10.495,13.153
	c0.026,0.139,0.091,0.249,0.18,0.338c-12.298,10.096-32.185,5.818-44.882-1.498c0.047-0.074,0.084-0.154,0.111-0.24
	c1.09-3.51,1.274-7.057,1.291-10.698c5.559,1.292,11.379,1.91,17.073,1.645C420.581,484.249,425.932,482.763,429.607,481.148z
	 M484.457,422.644c-22.651,0.043-45.301,0.495-67.949,0.909l-0.01-0.027l-1.79,0.06c-17.948,0.325-35.896,0.612-53.846,0.626
	c0-15.91,0-31.82,0-47.729c3.588,0.21,7.186,0.059,10.787-0.05c0.523-0.016,1.046-0.033,1.569-0.046
	c-0.003,0.062-0.002,0.123-0.005,0.184c-0.125,3.139,0.193,6.29,1.214,9.145c1.979,5.539,7.334,5.684,12.035,3.732
	c0.801,0.164,2.158-0.262,2.358-1.023c1.075-4.078,1.591-8.709,0.949-13.026c19.933-1.029,39.882-0.108,59.825,0.244
	c0.07,0.001,0.172-0.015,0.291-0.042c-0.24,3.456,0.042,6.966,1.167,10.115c1.979,5.539,7.333,5.684,12.034,3.732
	c0.801,0.164,2.159-0.262,2.359-1.023c1.014-3.848,1.518-8.185,1.036-12.288c5.999-0.088,11.989-0.31,17.974-0.712
	C484.457,391.163,484.457,406.902,484.457,422.644z M285.072,377.889c-0.018-0.266-0.27-0.459-0.886-0.459
	c-0.146,0-0.292,0.001-0.438,0.002c-0.36-0.079-0.74-0.138-1.155-0.159c-0.176-0.01-0.454,0.059-0.754,0.166
	c-30.401,0.056-60.797,0.861-91.198,0.878c-0.869,0-1.922,0.887-1.925,1.468c-7.063,1.885-4.922,11.648-4.842,17.631
	c0.008,0.637,2.301,0.307,2.798-0.471c0,35.846,0,71.69,0,107.535c0,0.12,0.233,0.172,0.563,0.17
	c-0.257,0.45-0.14,0.868,0.765,0.867c31.984-0.024,63.958-1.305,95.943-1.33c1.144-0.001,2.611-1.538,1.57-1.888
	c0-35.465,0-70.929,0-106.392c0.271-0.023,0.542-0.041,0.813-0.065c0.739-0.068,1.272-0.553,1.441-1.035
	c0.098-0.116,0.159-0.243,0.161-0.382C287.988,389.824,290.033,380.399,285.072,377.889z M282.615,502.238
	c-31.018,0.082-62.027,1.276-93.045,1.314c0-9.45,0-18.901,0-28.352c30.867,0,61.734,0,92.601,0c0.136,0,0.288-0.026,0.445-0.073
	C282.615,484.165,282.615,493.202,282.615,502.238z M282.615,473.582c-30.667,0-61.334,0-92.001,0c-0.308,0-0.695,0.137-1.044,0.329
	c0-14.947,0-29.895,0-44.842c0.159,0,0.318,0,0.477,0c30.851,0,61.701,0,92.552,0c0.006,0,0.011-0.001,0.017-0.001
	c0,14.731,0,29.462,0,44.193C282.615,473.368,282.615,473.476,282.615,473.582z M190.859,397.915
	c5.97,16.41,29.058,25.814,45.38,24.361c9.303-0.828,19.081-2.622,27.334-7.18c6.986-3.858,12.147-10.087,16.968-16.293
	c1.109-1.429-1.655-1.67-2.39-0.725c-4.248,5.469-8.658,10.807-14.479,14.668c-6.981,4.63-15.712,6.103-23.846,7.196
	c-16.289,2.189-39.929-5.965-46.063-22.787c2.846-0.007,5.701-0.134,8.427-0.113c10.604,0.08,21.21,0.067,31.815,0.048
	c16.203-0.029,32.407-0.147,48.61-0.207c0,10.047,0,20.094,0,30.141c-31.015,0-62.03,0-93.045,0c0-9.996,0-19.991,0-29.986
	c0.505,0.032,1.012,0.056,1.522,0.073C190.861,397.337,190.75,397.614,190.859,397.915z M285.095,393.904
	c-5.417,0.455-10.841,0.691-16.277,0.767c-0.452,0.007-0.822,0.172-1.084,0.404c-3.069,0.016-6.138,0.026-9.207,0.042
	c-0.062-0.033-0.173-0.054-0.347-0.058c-16.216-0.323-32.43-1.165-48.633-0.035c-0.151,0.011-0.373,0.071-0.612,0.157
	c-1.623-0.007-3.246-0.006-4.869-0.017c-5.513-0.036-11.547,0.52-17.012-0.408c-0.135-0.023-0.275-0.02-0.415-0.002
	c-0.419-4.555-1.444-13.631,2.888-13.86c0.398-0.021,1.037-0.31,1.477-0.622c30.691-0.041,61.377-0.864,92.069-0.882
	C286.639,381.805,285.414,389.602,285.095,393.904z M175.789,431.71c-0.013-0.27-0.263-0.468-0.885-0.467
	c-18.179,0.016-36.356,0.501-54.535,0.518c-0.716,0-1.56,0.604-1.835,1.143c-4.018,1.413-2.983,6.641-2.932,10.561
	c0.005,0.388,0.854,0.416,1.632,0.207c0,20.736,0,41.473,0,62.211c0,0.087,0.124,0.137,0.315,0.158
	c-0.13,0.378,0.06,0.693,0.845,0.692c18.646-0.023,37.287-0.752,55.933-0.776c1.071-0.001,2.423-1.349,1.737-1.808
	c0-20.455,0-40.91,0-61.364c0.646-0.127,1.107-0.569,1.257-1.014c0.092-0.113,0.148-0.237,0.15-0.371
	C177.509,438.612,178.647,433.276,175.789,431.71z M173.167,504.008c-17.68,0.072-35.355,0.72-53.035,0.76c0-5.71,0-11.421,0-17.132
	c17.464,0,34.929,0,52.394,0c0.192,0,0.416-0.054,0.642-0.141C173.167,492.999,173.167,498.504,173.167,504.008z M173.167,486.017
	c-0.025,0-0.05,0-0.075,0c-17.307,0-34.614,0-51.92,0c-0.307,0-0.692,0.136-1.04,0.327c0-8.918,0-17.836,0-26.754
	c17.607,0,35.214,0,52.822,0c0.048,0,0.093-0.006,0.139-0.011c0.024-0.003,0.05-0.003,0.075-0.006
	C173.167,468.388,173.167,477.202,173.167,486.017z M173.167,457.545c-17.678,0-35.356,0-53.035,0c0-4.646,0-9.294,0-13.94
	c0.306,0.03,0.612,0.06,0.919,0.085c4.113,8.835,16.538,13.157,25.64,12.539c10.724-0.728,18.535-4.434,25.335-12.644
	c0.056-0.067,0.095-0.129,0.133-0.191c0.335-0.001,0.671-0.004,1.007-0.005C173.167,448.107,173.167,452.826,173.167,457.545z
	 M124.433,443.888c7.014,0.251,14.298-0.368,21.082-0.381c7.884-0.015,15.768-0.063,23.652-0.099
	c-5.734,6.706-11.535,9.532-20.486,10.69C140.507,455.155,128.838,451.604,124.433,443.888z M174.661,440.877
	c-2.954,0.231-5.913,0.356-8.877,0.396c-0.362,0.005-0.67,0.114-0.915,0.274c-3.032,0.016-6.065,0.025-9.098,0.039
	c-8.115-0.207-16.223-0.454-24.335,0.083c-0.267,0.018-0.747,0.187-1.168,0.389c-2.381,0.022-4.75-0.018-7.079-0.173
	c-0.299-0.127-0.683-0.145-1.058-0.079c-1.245-0.104-2.478-0.241-3.692-0.425c-0.054-0.966-0.123-1.932-0.155-2.898
	c-0.018-0.557-0.069-4.461,0.97-4.517c0.369-0.02,0.795-0.099,1.18-0.252c17.756-0.033,35.51-0.491,53.266-0.51
	C175.326,434.61,174.881,438.449,174.661,440.877z" fill="#0a1230"></path>
</svg>