<?xml version="1.0" standalone="no"?>
<svg version="1.1" id="Layer_1" xmlns="http://www.w3.org/2000/svg" xmlns:xlink="http://www.w3.org/1999/xlink" x="0px" y="0px" width="595.28px" height="595.28px" viewBox="0 0 595.28 595.28" enable-background="new 0 0 595.28 595.28" xml:space="preserve">
<path id="color_x5F_2" fill="#6c63ff" d="M133.519,511.208c0.053-0.003,0.102-0.014,0.152-0.021
	c-0.001,0.15-0.002,0.229-0.002,0.229h-2.149c-0.005-0.026-0.01-0.052-0.015-0.078C132.175,511.295,132.846,511.25,133.519,511.208z
	 M111.153,403.975c5.237,0.205,8.896-2.258,10.82-6.913c0.104-0.252,0.207-0.507,0.301-0.771c0.054-0.151,0.164-0.287,0.305-0.408
	c0.173-1.613,0.347-3.227,0.52-4.84l-0.051,0c0.051-0.316,0.103-0.632,0.155-0.96c3.041-28.291,6.082-56.581,9.123-84.872
	c0.014-0.125,0.09-0.243,0.203-0.351c-0.019-1.571,0.03-3.138,0.059-4.611c-6.526,4.049-14.589,5.47-21.782,7.884
	c-5.715,1.917-9.601,4.892-12.135,10.413c-1.73,3.77-3.115,7.68-4.74,11.494c-2.747,6.444-4.94,13.028-7.223,19.642
	c-1.708,4.95-2.479,7.064-1.395,12.01c2.229,10.175,5.171,20.243,8.318,30.169c0.753,2.375,1.183,7.124,4.002,7.343
	c3.575,0.278,7.169,0.365,10.756,0.43c-1.827-13.243-4.346-26.427-4.657-39.818c-0.091-0.145-0.104-0.333-0.012-0.566
	c-0.006-0.362-0.019-0.724-0.022-1.086c-0.003-0.356,0.431-0.645,0.963-0.829c2.627-5.226,4.875-10.679,6.741-16.211
	c2.12-6.284,4.406-13.204,3.992-19.929c-0.083-1.345,2.821-2.02,2.897-0.776c0.794,12.894-5.773,27.566-11.659,38.779
	c0.332,13.517,2.904,26.823,4.729,40.192c0.001,0.012,0.003,0.024,0.005,0.036c0.017,0.12-0.032,0.235-0.119,0.343
	c-0.191,0.237-0.589,0.437-1.03,0.569c-0.316,0.341-0.979,0.697-1.503,0.795c0.545,0.626,1.047,1.328,1.495,2.086
	c0.16,0.27,0.318,0.54,0.462,0.821C110.834,403.993,110.999,403.969,111.153,403.975z M468.385,342.82
	c-0.457,0.002-0.679-0.108-0.187-0.43c0.058-0.038,0.114-0.076,0.171-0.114c-0.106-3.146-0.229-6.291-0.364-9.433
	c-0.484-11.222-0.793-22.653-2.561-33.766c-0.885-5.562-2.791-7.54-8.727-9.542c-8.103-2.732-17.438-4.688-24.844-9.17l0.748,9.49
	c3.048,28.508,6.096,57.016,9.144,85.524c0.127,0.085,0.225,0.198,0.278,0.348c1.909,5.404,6.01,8.505,11.833,8.277
	c0.042-0.002,0.076,0.002,0.116,0.002c0.554-0.999,1.202-1.928,1.941-2.712c0.046-0.049,0.11-0.095,0.18-0.139
	c-0.472-0.001-0.943-0.001-1.403,0.006c-0.752,0.013-0.895-0.206-0.733-0.48c-0.094-0.097-0.151-0.222-0.149-0.383
	c0.264-23.891,0.584-47.787,0.594-71.68c0-1.1,2.898-1.637,2.897-0.776c-0.009,23.931-0.33,47.864-0.595,71.792
	c1.893-0.036,3.785-0.079,5.676-0.149c1.598-0.061,3.2-0.112,4.795-0.231c0.538-0.04,0.878-0.054,1.093-0.052
	c0.579-3.073,0.437-6.367,0.467-9.472C468.844,360.762,468.682,351.787,468.385,342.82z M291.059,395.909c4.191,0,8.381,0,12.572,0
	c-0.358-1.511-0.2-3.514-0.271-4.817c-0.217-3.969-0.357-7.941-0.478-11.913c-0.29-9.491-0.48-18.984-0.68-28.477
	c-0.175-8.322,0.432-17.481-1.011-25.624c-1.493-8.427-7.001-10.431-14.196-13.337c-5.522-2.23-10.512-5.445-15.585-8.517
	c0,0.463,0,0.927,0,1.391c0.004,2.254,0.042,4.507,0.068,6.76c0.009,0.155,0.014,0.309,0.004,0.448
	c0.326,26.528,2.029,53.023,2.265,79.554c0.014,1.589,0.045,3.178,0.048,4.767c0,0.087-0.027,0.17-0.066,0.25
	c0.18,6.345,8.035,11.188,13.711,11.742c1.271,0.125,1.111,1.09,0.433,1.712c-0.365,0.335-0.877,0.573-1.403,0.521
	c-6.963-0.681-16.227-6.698-15.696-14.541c0.009-0.136,0.052-0.258,0.109-0.374c-0.005-1.176-0.025-2.352-0.036-3.528
	c-3.816,0-7.633,0-11.45,0c-0.715,0.283-1.636,0.39-1.955,0c-3.636,0-7.273,0-10.909,0c-0.158,1.466-0.315,2.932-0.473,4.397
	c-0.025,0.229-0.25,0.437-0.561,0.602c-2.41,5.736-7.251,8.706-13.38,8.868c0.291,0.791,0.513,1.594,0.657,2.396
	c4.922,1.043,6.446,8.088,5.171,12.399c-0.018,0.06-0.046,0.118-0.083,0.173c4.734,0.058,9.46,0.351,14.194,0.381
	c0.693-0.585,2.655-0.806,2.655-0.353c0,13.25,0,26.501,0,39.752c0,0.885-2.897,1.326-2.897,0.776c0-0.041,0-0.081,0-0.121
	c-0.462,0.202-0.942,0.358-1.171,0.358c-5.555,0-11.109,0-16.664,0l-2.808,0.095c0.091,15.894,2.176,31.906,4.152,47.679
	c5.645,0.773,11.267,0.428,16.923,0.057c0.533-12.755,1.257-25.506,2.12-38.243c1.29-19.04,2.2-38.577,6.182-57.289
	c0.163-0.764,1.475-1.202,2.29-1.052c0.794-0.361,1.86-0.283,2.036,0.541c4.002,18.804,4.924,38.443,6.205,57.579
	c0.849,12.682,1.58,25.375,2.112,38.075c2.708,0.518,5.436,0.711,8.17,0.77l7.57-0.044c2.117-30.458,5.253-61.186,5.345-91.727
	c0-0.238,0.176-0.446,0.438-0.616c-0.039-0.034-0.084-0.074-0.137-0.119c-1.16,0.057-2.337-0.369-3.414-1.526
	c-1.514-1.627-1.963-3.425-2.071-5.506c0-0.007,0-0.014-0.001-0.021c-0.012-0.236-0.022-0.474-0.027-0.718
	c-0.052-2.93-0.176-5.857-0.137-8.783l-0.088-1.003c0.053-0.684,0.113-1.336,0.176-1.951c-0.071,0-0.143,0-0.214,0
	c-0.05,0-0.088-0.006-0.133-0.009c-0.858-0.044-0.862-0.496-0.495-0.943c-0.189-1.346-0.347-2.697-0.479-4.054
	c-0.91-9.39-0.563-19.014-0.495-28.387c0.087-11.805,0.377-23.61,0.391-35.416c0.001-1.1,2.898-1.637,2.897-0.776
	c-0.014,12.27-0.339,24.538-0.399,36.808C290.041,375.212,289.646,385.738,291.059,395.909z M262.547,418.268l0.727,2.57
	c-0.191-1.093-0.389-2.185-0.598-3.274C262.631,417.798,262.591,418.033,262.547,418.268z M452.05,390.036
	c0.146-1.388,0.528-2.844,1.091-4.235c-6.373,0.134-11.292-2.613-13.695-8.534c-0.28-0.044-0.477-0.159-0.499-0.364
	c-0.179-1.672-0.358-3.345-0.537-5.018c-4.013,0-8.026,0-12.04,0c-0.076,0.017-0.152,0.033-0.229,0.046
	c-0.557,0.148-1.103,0.179-1.333-0.046c-3.543,0-7.087,0-10.63,0c-0.009,1.11-0.03,2.221-0.034,3.332
	c0.06,0.119,0.104,0.251,0.115,0.408c0.541,8.04-9.247,14.108-16.281,14.799c-1.967,0.193-1.45-2.098,0.22-2.263
	c5.498-0.541,12.565-5.167,13.098-11.105c-0.034-0.044-0.058-0.094-0.058-0.154c0.05-30.667,2.333-61.278,2.383-91.945
	c0-0.917,0-1.833,0-2.75c-5.272,3.233-10.465,6.701-16.249,8.912c-3.537,1.352-8.056,2.437-10.51,5.529
	c-2.736,3.448-3.263,7.733-3.377,12.017c-0.201,7.529-0.509,15.049-0.665,22.583c-0.203,9.782-0.39,19.565-0.72,29.345
	c-0.124,3.688-0.241,7.381-0.488,11.063c-0.079,1.178,0.061,3.008-0.402,4.236c4.253,0,8.506,0,12.759,0
	c0.266-22.423,0.574-44.85,0.584-67.274c0-1.1,2.898-1.637,2.897-0.776c-0.009,22.719-0.325,45.44-0.594,68.157
	c0.617,0.289-0.042,1.107-0.852,1.51c0.215,3.913,0,7.813-0.027,11.731c-0.016,2.257-0.441,4.708-2.247,6.294
	c-1.044,0.917-2.077,1.412-3.07,1.58c0.067,0.049,0.108,0.109,0.109,0.187c0.092,30.806,3.248,61.806,5.367,92.529
	c0.01,0.142-0.053,0.274-0.158,0.396l8.664,0.052c2.41-0.051,4.813-0.221,7.197-0.631c0.531-12.743,1.251-25.481,2.109-38.205
	c1.289-19.126,2.197-38.748,6.177-57.549c0.209-0.988,1.861-1.427,2.604-1.006c0.749-0.224,1.599-0.126,1.732,0.506
	c4.059,19.172,4.972,39.205,6.255,58.711c0.827,12.571,1.543,25.153,2.063,37.741c5.631,0.371,11.228,0.757,16.843,0.078
	c1.113-13.81,2.184-27.623,3.21-41.439c1.308-17.606,3.186-35.38,3.354-53.055c-0.151-0.284-0.274-0.587-0.349-0.92
	C453.448,394.34,451.742,392.989,452.05,390.036z M231.843,403.975c4.231,0.165,7.43-1.415,9.52-4.479
	c0.637-0.934,1.174-2,1.602-3.205c0.054-0.151,0.163-0.286,0.304-0.407c0.173-1.611,0.346-3.222,0.519-4.833l-0.8-0.009
	c1.051-6.48,2.27-15.408,3.505-25.156c2.174-20.225,4.348-40.451,6.522-60.676c0.013-0.125,0.09-0.242,0.203-0.351
	c-0.019-1.57,0.03-3.137,0.059-4.61c-6.526,4.048-14.589,5.47-21.782,7.883c-5.715,1.917-9.601,4.892-12.135,10.413
	c-1.73,3.77-3.115,7.68-4.74,11.494c-2.747,6.444-4.94,13.028-7.223,19.642c-1.708,4.95-2.479,7.064-1.395,12.01
	c2.229,10.175,5.171,20.243,8.317,30.169c0.753,2.375,1.183,7.124,4.002,7.343c3.576,0.278,7.169,0.365,10.756,0.43
	c-1.826-13.243-4.346-26.427-4.657-39.818c-0.091-0.145-0.104-0.333-0.011-0.566c-0.007-0.362-0.019-0.724-0.022-1.086
	c-0.003-0.356,0.431-0.645,0.963-0.829c2.627-5.226,4.875-10.679,6.741-16.211c2.12-6.284,4.406-13.204,3.992-19.929
	c-0.083-1.345,2.821-2.02,2.897-0.776c0.794,12.894-5.773,27.566-11.659,38.779c0.317,12.943,2.687,25.693,4.49,38.491
	c0.082,0.58,0.164,1.159,0.243,1.738c0.049,0.36-0.44,0.677-1.029,0.874c-0.04,0.013-0.079,0.026-0.12,0.039
	c-0.316,0.34-0.978,0.697-1.503,0.795c0.347,0.399,0.677,0.826,0.986,1.282c0.351,0.516,0.679,1.056,0.971,1.625
	C231.525,403.993,231.689,403.969,231.843,403.975z M252.209,511.417h1.399c0,0,0-0.064,0.002-0.17
	c-0.472,0.03-0.944,0.061-1.416,0.092C252.199,511.365,252.204,511.391,252.209,511.417z M170.369,395.909c4.19,0,8.381,0,12.572,0
	c-0.358-1.511-0.2-3.514-0.271-4.817c-0.217-3.969-0.357-7.941-0.479-11.913c-0.29-9.491-0.48-18.984-0.679-28.477
	c-0.175-8.322,0.431-17.481-1.011-25.624c-1.493-8.427-7.001-10.431-14.196-13.337c-5.522-2.23-10.512-5.445-15.585-8.517
	c0,0.463,0,0.927,0,1.391c0.004,2.245,0.042,4.49,0.068,6.734c0.011,0.164,0.015,0.327,0.005,0.475
	c0.326,26.526,2.028,53.017,2.265,79.545c0.014,1.592,0.045,3.183,0.048,4.775c0,0.087-0.027,0.17-0.066,0.25
	c0.18,6.345,8.035,11.188,13.71,11.742c1.153,0.113,1.127,0.918,0.607,1.532c-0.362,0.427-0.961,0.762-1.576,0.702
	c-6.964-0.681-16.227-6.698-15.697-14.541c0.009-0.136,0.052-0.258,0.109-0.374c-0.005-1.176-0.025-2.352-0.036-3.528
	c-3.816,0-7.633,0-11.449,0c-0.715,0.283-1.636,0.39-1.955,0c-3.636,0-7.273,0-10.909,0c-0.158,1.466-0.315,2.932-0.473,4.397
	c-0.025,0.23-0.25,0.438-0.562,0.602c-2.41,5.736-7.251,8.706-13.38,8.868c0.291,0.791,0.513,1.594,0.657,2.396
	c1.408,0.298,2.535,1.087,3.4,2.165l0.292,0.09v0.302c1.912,2.715,2.347,6.909,1.479,9.842c-0.018,0.06-0.046,0.118-0.083,0.173
	c4.733,0.058,9.459,0.351,14.193,0.381c0.693-0.585,2.655-0.806,2.655-0.353c0,13.25,0,26.501,0,39.752
	c0,0.885-2.897,1.326-2.897,0.776c0-0.04,0-0.081,0-0.121c-0.461,0.201-0.941,0.358-1.17,0.358c-5.305,0-10.609,0-15.914,0
	l-3.558,0.12c0.093,15.886,2.176,31.889,4.151,47.654c5.645,0.773,11.267,0.429,16.923,0.057
	c0.533-12.755,1.257-25.506,2.121-38.243c1.29-19.04,2.2-38.577,6.182-57.289c0.163-0.764,1.475-1.203,2.29-1.052
	c0.794-0.361,1.861-0.284,2.036,0.541c4.001,18.804,4.924,38.443,6.205,57.579c0.848,12.682,1.58,25.375,2.112,38.075
	c2.745,0.525,5.508,0.718,8.281,0.774l7.458-0.044c2.118-30.459,5.254-61.189,5.346-91.731c0.001-0.329,0.333-0.599,0.77-0.789
	c-1.309,0.209-2.661-0.158-3.883-1.472c-1.57-1.688-1.993-3.563-2.08-5.744c-0.007-0.167-0.016-0.331-0.019-0.501
	c-0.07-3.917-0.266-7.826-0.023-11.738c-0.08,0-0.16,0-0.24,0c-1.001,0-1.015-0.481-0.628-0.952
	c-0.196-1.399-0.357-2.805-0.491-4.216c-0.892-9.338-0.551-18.906-0.482-28.225c0.087-11.805,0.377-23.61,0.391-35.416
	c0.001-1.1,2.898-1.637,2.897-0.776c-0.014,12.27-0.339,24.538-0.399,36.808C169.351,375.212,168.956,385.738,170.369,395.909z"></path>
<path id="color_x5F_1" d="M495.591,307.652c-3.364-0.316-7.025,1.032-7.854,4.625c-0.803,3.479,1.485,6.737,5.103,6.691
	c3.69-0.046,7.779-1.832,7.841-5.986C500.725,309.995,498.561,307.385,495.591,307.652z M494.891,317.736
	c-5.393,0.664-5.777-9.49-1.265-8.902c0.13,0.073,0.422,0.083,0.944-0.018c1.649-0.318,2.815,2.589,3.082,3.743
	C498.13,314.628,497.302,317.439,494.891,317.736z M88.025,104.619c28.852,0,57.703,0,86.554,0c1.961,0,0.087,1.786-1.089,1.786
	c-28.852,0-57.703,0-86.554,0C84.975,106.405,86.849,104.619,88.025,104.619z M157.281,271.519c0.595-0.363,1.356-0.549,2.049-0.549
	c0.754,0,1.548,0.04,2.275-0.184c0.229-0.07,1.45-0.384,1.563,0.038c0.116,0.433-1.104,0.744-1.334,0.814
	c-1.423,0.436-2.915,0.482-4.392,0.482C156.885,272.122,156.823,271.798,157.281,271.519z M419.146,160.684
	c3.654,0.263,6.839-2.083,7.113-5.769c0.296-3.975-2.913-5.774-6.347-5.544c-3.011-0.419-5.713,1.607-6.515,4.474
	C412.254,157.932,415.383,160.414,419.146,160.684z M416.656,152.221c0.199-0.459,0.479-0.885,0.804-1.265
	c0.119-0.131,0.245-0.254,0.378-0.37c0.015-0.014,0.016-0.021,0.028-0.034c0.307,0.055,0.634,0.039,0.956-0.022
	c2.452-0.299,4.085,1.688,4.478,3.908c0.25,1.412-0.282,5.068-2.279,5.043c-2.569-0.033-4.603-1.623-4.917-4.181
	C415.973,154.244,416.238,153.183,416.656,152.221z M148.566,279.513c-0.416,0.039-1.527-0.14-1.307-0.831
	c0.281-0.882,0.333-1.747,0.333-2.667c0-0.683,1.1-1.055,1.615-1.103c0.593-0.056,1.308,0.131,1.307,0.831
	c0,0.919-0.053,1.785-0.333,2.667C149.961,279.097,149.254,279.448,148.566,279.513z M145.604,272.601
	c-0.163-0.605,0.817-1.041,1.248-1.139c1.784-0.41,3.626-0.466,5.417-0.055c0.599,0.138,0.744,0.643,0.285,1.062
	c-0.51,0.466-1.374,0.705-2.049,0.549c-1.063-0.245-2.18-0.3-3.25-0.055C146.824,273.063,145.772,273.227,145.604,272.601z
	 M162.174,275.719c0,0.667,0,1.333,0,2c0,0.646-1.167,0.989-1.631,1.041c-0.547,0.061-1.278-0.049-1.278-0.72c0-0.667,0-1.333,0-2
	c0-0.646,1.167-0.989,1.631-1.041C161.443,274.938,162.174,275.047,162.174,275.719z M152.528,285.469
	c0.74,0.521,1.185,0.772,1.94,0.241c0.535-0.376,1.459-0.569,2.06-0.241c0.628,0.343,0.188,0.958-0.223,1.246
	c-1.839,1.293-4.168,1.571-6.06,0.241C149.022,286.096,151.672,284.867,152.528,285.469z M515.187,227.912
	c-0.008-3.491-1.255-7.309-3.444-10.175c-2.36-3.311-5.857-5.516-10.285-4.84c-2.324-0.3-4.54-0.201-6.576,0.272
	c-19.794-18.603-39.647-37.151-59.234-55.972c-0.047-0.045-0.112-0.074-0.186-0.097c0.097-0.604,0.172-1.216,0.208-1.841
	c0.038-0.66,0.041-1.301,0.009-1.924c-0.126-2.511-0.803-4.715-1.899-6.572c-1.664-2.819-4.302-4.83-7.468-5.9
	c0.637-0.161,1.211-0.438,1.211-0.793c0-11.34,0-22.681,0-34.021c2.328-1.682,4.358-3.741,5.91-6.141
	c4.5-6.96,1.563-15.299-4.714-19.866c-7.049-5.127-19.429-4.547-27.965-5.304c-15.984-1.418-31.98-2.701-47.987-3.837
	c-39.898-2.833-80.279-5.592-120.28-3.509c-15.819,0.824-34.444,2.035-47.86,11.466c-1.47,1.034-2.727,2.177-3.813,3.402
	c-31.472,0-62.944,0-94.417,0c-1.706,0-2.18,2.261-0.22,2.261c30.967,0,61.934,0,92.902,0c-3.676,5.552-4.303,12.463-3.084,19.515
	c0.879,4.264,3.003,7.675,5.885,10.423c-31.828,0-63.655,0-95.483,0c-1.706,0-2.18,2.261-0.22,2.261c32.032,0,64.063,0,96.095,0
	c0.657,0,1.128-0.335,1.351-0.748c7.298,5.776,18.167,8.184,26.666,9.497c6.771,1.045,13.403,1.497,19.423,1.08
	c24.478-1.697,48.929-3.872,73.381-5.897c30.472-2.524,60.943-5.07,91.405-7.709c6.066-0.526,12.156-0.959,18.211-1.62
	c0,9.813,0,19.626,0,29.44c-4.236,1.785-7.258,6.23-8.442,10.834c-0.438,1.705-0.608,3.313-0.544,4.814
	c0.071,1.678,0.44,3.219,1.048,4.619c-0.115,0.052-0.209,0.107-0.27,0.166c-18.719,17.982-37.725,35.671-56.674,53.411
	c-1.798-0.361-3.717-0.443-5.699-0.223c-7.29-1.245-12.656,4.959-14.333,11.484c-0.438,1.705-0.608,3.313-0.544,4.814
	c0.165,3.886,1.898,7.056,4.602,9.369c0.84,0.72,1.774,1.358,2.785,1.908c-0.184,0.126-0.297,0.267-0.284,0.417
	c1.626,19.355,3.05,38.745,6.56,57.872c-4.015,1.895-6.879,6.192-8.023,10.643c-0.438,1.706-0.608,3.313-0.543,4.814
	c0.16,3.768,1.798,6.859,4.361,9.153c2.954,2.646,7.137,4.231,11.728,4.545c0.936,0.064,1.835,0.029,2.71-0.062
	c-0.109,0.231-0.06,0.477,0.254,0.698c8.814,6.215,17.677,12.321,26.818,18.048c0.308,0.193,0.84,0.16,1.344,0.005
	c-0.075,3.127-0.145,6.254-0.236,9.38c-0.126,4.344-0.271,8.689-0.497,13.029c-0.09,1.73,0.231,4.686-0.644,6.26
	c-0.094,0.17,0.243,0.247,0.716,0.235c-0.214,0.394-0.076,0.741,0.775,0.741c1.287,0,2.575,0,3.862,0
	c-0.008,0.03-0.021,0.058-0.025,0.089c-0.527,3.675-2.592,12.31,0.956,15.305c1.171,2.143,2.807,3.651,4.668,3.982
	c-0.658,0.176-1.265,0.517-1.263,0.962c0.092,30.806,3.248,61.806,5.367,92.529c0.026,0.384,0.847,0.408,1.609,0.209
	c-0.303,0.241-0.515,0.516-0.536,0.742c-7.924,0.938-18.323,5.191-18.331,13.931c0,0.225,0.879,0.205,1.67,0.01
	c-0.027,0.185,0.177,0.317,0.775,0.313c10.616-0.081,21.325-1.518,31.858,0.385c0.479,0.086,1.66-0.358,2.123-0.777
	c0.505-0.134,0.935-0.338,1.008-0.591c1.252-4.309,0.465-8.979-0.372-13.294c-0.101-0.518-3.019,0.154-2.897,0.776
	c0.766,3.95,1.519,8.279,0.602,12.274c-10.307-1.594-20.759-0.273-31.134-0.194c-0.2,0.001-0.459,0.071-0.723,0.175
	c0.126-7.855,9.459-11.93,16.264-12.079c0.246-0.005,0.891-0.223,1.434-0.465c5.31,0.044,10.574,0.143,15.823-0.798
	c0.85,0.335,2.301-0.14,2.341-1.102c0.534-12.966,1.277-25.927,2.14-38.875c1.184-17.773,2.07-35.979,5.382-53.551
	c3.31,17.34,4.192,35.304,5.39,52.853c0.901,13.208,1.655,26.433,2.201,39.66c-0.726,0.557-1.018,1.419,0.277,1.5
	c0.931,0.059,1.861,0.121,2.79,0.182c-0.026,0.057-0.049,0.113-0.061,0.174c-0.841,4.338-1.645,9.091-0.386,13.425
	c0.115,0.395,0.506,0.571,0.967,0.591c0.093,0.177,0.41,0.263,1.058,0.146c10.515-1.899,21.215-0.453,31.813-0.372
	c0.236,0.002,0.535-0.083,0.829-0.21c0.528,0.81,2.801,0.259,2.8-0.698c-0.008-8.621-9.793-12.994-17.524-13.801
	c1.157-14.309,2.263-28.623,3.329-42.938c1.249-16.764,3.002-33.682,3.314-50.521c3.257,1.205,8.032,0.757,10.242-0.224
	c7.04-3.123,2.681-12.217,0.233-17.154c2.315-0.781,1.877-3.497,1.971-5.628c0.481-10.921,0.134-21.916-0.249-32.848
	c6.496-4.274,12.89-8.696,19.253-13.163c0.796,0.112,1.61,0.185,2.459,0.17c9.154-0.158,17.442-6.228,17.104-15.779
	c0-0.042,0.006-0.082,0.006-0.125c-0.009-3.529-1.283-7.392-3.517-10.268c-1.332-1.833-3.015-3.317-5.018-4.141
	c3.485-19.015,4.923-38.284,6.537-57.525c4.376-2.698,7.292-7.201,7.086-12.966C515.181,227.993,515.187,227.954,515.187,227.912z
	 M434.767,159.951c18.968,18.193,38.169,36.147,57.321,54.146c-2.711,1.199-4.949,3.164-6.507,5.763
	c-18.155-17.808-36.275-35.656-54.601-53.289c-0.087-0.084-0.202-0.141-0.331-0.182
	C432.501,164.673,433.915,162.468,434.767,159.951z M352.406,114.5c-31.763,2.678-63.528,5.328-95.301,7.887
	c-16.944,1.365-31.987,3.441-48.47,0.599c-11.504-1.983-27.036-6.605-29.742-19.727c-0.986-5.709-1.038-11.511,1.76-16.74
	c0.378-0.706,0.815-1.365,1.28-1.999c0.113,0,0.226,0,0.339,0c1.274,0,1.86-1.261,1.259-1.899
	c4.445-4.599,11.186-7.066,17.085-8.764c19.482-5.605,41.118-5.097,61.238-4.973c40.325,0.25,80.665,3.127,120.838,6.438
	c10.041,0.828,20.073,1.74,30.107,2.642c8.155,0.733,16.837,2.803,19.483,11.64c3.165,10.567-8.934,18.477-17.877,19.516
	C393.824,111.513,373.05,112.76,352.406,114.5z M424.627,107.86c0,10.846,0,21.691,0,32.537c-1.89-0.418-3.923-0.518-6.025-0.285
	c-1.04-0.178-2.038-0.2-2.995-0.095c0-9.684,0-19.368,0-29.053C418.729,110.445,421.815,109.389,424.627,107.86z M406.948,152.141
	c0.001-0.007,0.002-0.014,0.003-0.021c0.009-0.052,0.021-0.105,0.031-0.158c0.052-0.278,0.11-0.559,0.174-0.841
	c0.007-0.031,0.016-0.063,0.023-0.095c0.979-4.217,3.324-8.789,6.935-9.681c0.027-0.007,0.056-0.011,0.083-0.018
	c0.181-0.042,0.366-0.074,0.553-0.097c0.002,0,0.004-0.001,0.007-0.001c0.568-0.069,1.165-0.049,1.79,0.076
	c0.047,0.01,0.105,0.012,0.168,0.011c0.167,0.026,0.409,0.024,0.756-0.025c7.976-1.129,12.923,4.066,14.59,10.244
	c0.405,1.5,0.604,3.057,0.619,4.597c0.045,4.841-1.85,9.494-5.812,11.593c-0.798,0.028-2.054,0.348-2.217,0.841
	c-0.911,0.225-1.897,0.343-2.968,0.324c-2.207-0.038-4.299-0.449-6.191-1.182c-0.052-0.034-0.123-0.06-0.204-0.078
	c-3.191-1.285-5.775-3.529-7.265-6.601c-0.018-0.038-0.04-0.074-0.058-0.112c-0.106-0.225-0.202-0.457-0.296-0.69
	c-0.025-0.062-0.055-0.122-0.079-0.185c-0.081-0.208-0.151-0.425-0.222-0.64c-0.031-0.093-0.066-0.182-0.095-0.276
	c-0.066-0.216-0.121-0.439-0.177-0.662c-0.025-0.099-0.056-0.194-0.079-0.294c-0.053-0.229-0.094-0.466-0.136-0.702
	c-0.018-0.099-0.042-0.194-0.057-0.295c-0.054-0.339-0.097-0.684-0.128-1.036c-0.025-0.278-0.038-0.574-0.04-0.884
	C406.651,154.323,406.749,153.258,406.948,152.141z M468.385,342.82c0.297,8.967,0.459,17.942,0.372,26.91
	c-0.03,3.104,0.111,6.399-0.467,9.472c-0.215-0.002-0.555,0.012-1.093,0.052c-1.595,0.119-3.197,0.171-4.795,0.231
	c-1.891,0.07-3.783,0.113-5.676,0.149c0.266-23.928,0.586-47.861,0.595-71.792c0-0.861-2.897-0.323-2.897,0.776
	c-0.01,23.893-0.331,47.789-0.594,71.68c-0.002,0.162,0.056,0.286,0.149,0.383c-0.162,0.274-0.02,0.493,0.733,0.48
	c0.46-0.008,0.931-0.007,1.403-0.006c-0.07,0.044-0.134,0.09-0.18,0.139c-0.739,0.785-1.388,1.713-1.941,2.712
	c-0.04,0-0.074-0.004-0.116-0.002c-5.824,0.229-9.924-2.873-11.833-8.277c-0.053-0.15-0.151-0.263-0.278-0.348
	c-3.048-28.508-6.096-57.016-9.144-85.524c-0.203-1.891-0.405-3.783-0.607-5.674c-0.019-0.177-0.173-0.285-0.395-0.339
	c0.049-1.193,0.08-2.386,0.092-3.58c0.055,0.033,0.107,0.07,0.163,0.103c7.406,4.483,16.742,6.438,24.844,9.17
	c5.937,2.002,7.842,3.98,8.727,9.542c1.767,11.112,2.077,22.543,2.561,33.766c0.135,3.143,0.257,6.288,0.364,9.433
	c-0.057,0.038-0.113,0.076-0.171,0.114C467.706,342.712,467.928,342.822,468.385,342.82z M438.206,369.965c-3.31,0-6.619,0-9.929,0
	c0.917-1.762,1.833-3.524,2.75-5.286c0.907-1.743,2.614-3.802,2.458-5.828c-0.62-8.072-1.528-16.125-2.424-24.169
	c-1.42-12.757-2.952-25.502-4.561-38.237c-0.003-0.026-0.017-0.046-0.027-0.069c0.594-0.978,0.978-2.147,1.307-3.405
	c0.774-0.031,1.533-0.287,2.111-0.758C432.664,318.13,435.435,344.048,438.206,369.965z M425.212,292.125
	c-0.435,1.938-0.692,5.277-3.035,5.522c0-0.295,0.004-0.591,0.005-0.887c0-0.265-0.942-0.244-1.752-0.023
	c-0.289-0.506-0.468-1.12-0.629-1.568c-0.376-1.05-0.833-2.021-1.422-2.955c0.083-0.059,0.154-0.112,0.204-0.157
	c1.123-1.017,2.039-2.288,2.86-3.596C422.72,289.652,423.788,291.089,425.212,292.125z M423.632,286.815
	c1.864-0.75,3.631-2.25,5.121-4c-0.051,1.919-0.149,3.836-0.355,5.743c-0.077,0.714-0.195,1.421-0.367,2.118
	c-0.178,0.725-0.868-0.304-1.495-0.88C425.517,288.862,424.647,287.754,423.632,286.815z M419.591,287.179
	c-0.834,1.449-1.794,2.843-2.876,4.118c-0.061,0.072-0.13,0.141-0.194,0.212c0-0.608,0-1.217,0-1.826c0-1.525,0-3.05,0-4.576
	c1.012,1.061,2.063,1.704,3.122,2.005C419.625,287.135,419.604,287.156,419.591,287.179z M417.744,297.849
	c0.41,0.586,0.943,0.916,1.533,1.1c-0.032,15.201-0.362,30.406-0.611,45.604c-0.087,5.257-0.176,10.513-0.268,15.77
	c-0.024,1.398,1.565,3.149,2.23,4.309c1.02,1.778,2.039,3.556,3.059,5.334c-3.162,0-6.324,0-9.486,0
	c0.269-25.027,1.798-50.022,2.215-75.046C416.799,295.933,417.128,296.969,417.744,297.849z M423.524,363.854
	c-0.665-1.159-2.254-2.91-2.229-4.309c0.092-5.256,0.181-10.513,0.268-15.77c0.246-14.909,0.564-29.824,0.607-44.736
	c0.603-0.077,1.135-0.209,1.61-0.39c1.438,11.432,2.808,22.873,4.105,34.321c0.939,8.29,1.847,16.586,2.56,24.898
	c0.318,3.719-2.008,7.488-4.076,10.945C425.421,367.162,424.473,365.508,423.524,363.854z M429.89,266.267
	c-3.078,2.174-1.356,8.672-1.101,11.966c-1.02,1.948-2.266,3.77-3.869,5.288c-2.297,2.176-4.469,1.99-6.44-0.505
	c-0.113-0.143-0.259-0.246-0.423-0.316c1.051-7.187-4.695-8.533-10.51-10.208c-9.226-2.657-9.856-11.362-9.536-19.752
	c0.015,0.022,0.02,0.045,0.039,0.067c0.438,0.51,1.413,0.347,1.937,0.101c0.002-0.001,0.002-0.001,0.005-0.002
	c0.023,0.006,0.107-0.005,0.117-0.016c0.229,0.021,0.491,0.102,0.744,0.183c0.66,0.21,1.569-0.073,2.049-0.549
	c0.47-0.466,0.281-0.981-0.314-1.171c-1.268-0.405-2.58-0.407-3.8,0.165c-0.23,0.108-0.57,0.334-0.751,0.604
	c0.088-2.04,0.219-4.05,0.287-5.942c7.655,3.044,18.506,2.248,25.133-1.352c0.002,4.347,0.081,8.845,1.787,12.876
	c0.242,0.572,1.172,0.458,1.639,0.322c4.985-1.455,8.621,0.151,8.492,5.465C435.347,264.575,430.848,265.59,429.89,266.267z
	 M400.068,252.867c0.002-0.001,0.008-0.004,0.01-0.005c0.013-0.003,0.019-0.004,0.035-0.009
	C400.092,252.859,400.084,252.862,400.068,252.867z M415.608,222.982c0-17.85,0-35.7,0-53.551c1.345,0.347,2.754,0.577,4.207,0.677
	c1.706,0.117,3.317-0.038,4.813-0.421c0,19.905,0,39.812,0,59.717C421.881,227.058,418.854,224.738,415.608,222.982z
	 M405.541,162.516c0.728,1.204,1.65,2.28,2.733,3.215c1.056,0.914,2.262,1.697,3.583,2.338c-0.14,0.059-0.255,0.123-0.326,0.19
	c-18.18,17.492-36.158,35.198-54.168,52.865c-0.069-0.119-0.15-0.227-0.223-0.343c-1.691-2.716-4.299-4.657-7.418-5.684
	C368.379,197.628,387.092,180.207,405.541,162.516z M331.602,235.385c-0.727-1.474-1.212-3.132-1.377-4.976
	c-0.458-5.108,2.988-16.204,9.851-14.834c0.048,0.01,0.105,0.012,0.168,0.011c0.167,0.026,0.409,0.024,0.756-0.025
	c16.821-2.382,20.159,23.348,7.674,27.125c-0.369-1.301-2.974-0.886-2.903,0.432c0,0.007,0,0.014,0.001,0.021
	c-0.188,0.005-0.366,0.027-0.56,0.023C339.21,243.058,334.015,240.278,331.602,235.385z M337.383,243.17
	c1.85,0.654,3.861,1.066,5.959,1.21c0.858,0.059,1.685,0.029,2.493-0.043c0.981,18.398,1.696,36.838,4.982,55.001
	c-1.165-0.09-2.366-0.069-3.592,0.067c-1.199-0.205-2.346-0.212-3.433-0.045C340.393,280.786,338.953,261.966,337.383,243.17z
	 M350.307,328.184c-6.65-0.115-12.311-3.514-14.29-9.437c-0.055-0.163-0.121-0.319-0.169-0.486c-0.26-0.89-0.439-1.833-0.528-2.83
	c-0.083-0.92-0.031-2.039,0.137-3.24c0.019-0.134,0.032-0.264,0.054-0.4c0.011-0.07,0.027-0.142,0.039-0.212
	c0.689-4.022,2.7-8.773,5.939-10.46c0.641,0.032,1.772-0.255,2.235-0.622c0.464-0.026,0.945,0,1.446,0.101
	c0.048,0.01,0.105,0.012,0.168,0.011c0.167,0.026,0.409,0.024,0.756-0.025c1.82-0.257,3.475-0.174,4.977,0.164
	c0.009,0.047,0.017,0.095,0.025,0.142c0.164,0.865,1.271,0.938,2.073,0.543c4.722,2.053,7.447,6.995,8.029,12.091
	c0.004,0.036,0.004,0.073,0.008,0.109c0.273,2.533,0.012,5.09-0.786,7.344c-0.818,0.317-1.447,0.994-0.704,1.551
	c0.014,0.01,0.028,0.021,0.042,0.031C358.049,325.917,354.921,328.264,350.307,328.184z M379.614,346.045
	c-8.73-5.503-17.216-11.34-25.651-17.284c2.942-0.921,5.394-2.748,7.172-5.175c5.734,4.29,11.505,8.529,17.407,12.587
	c0.311,0.213,0.811,0.205,1.292,0.07C379.766,339.511,379.69,342.778,379.614,346.045z M380.22,319.589
	c-0.119,2.987-0.159,5.979-0.222,8.968c-0.039,1.807-0.077,3.615-0.115,5.421c-5.89-4.077-11.659-8.321-17.391-12.618
	c0.697-1.387,1.197-2.905,1.501-4.505c0.143-0.751,0.256-1.515,0.302-2.302c0.203-3.513-0.621-6.496-2.149-8.881
	c-1.851-2.891-4.749-4.886-8.196-5.81c-3.479-18.512-4.183-37.323-5.187-56.091c6.035-1.838,10.046-7.483,10.438-14.242
	c0.02-0.345,0.03-0.686,0.03-1.021c0.002-2.345-0.467-4.437-1.298-6.255c0.498-0.098,0.965-0.252,1.145-0.429
	c17.837-17.494,35.641-35.027,53.634-52.361c0,17.383,0,34.767,0,52.15c-3.49-1.427-7.19-2.083-11.036-1.338
	c-5.864,1.138-9.716,5.769-11.783,11.099c-0.045,0.065-0.082,0.131-0.095,0.201c-1.212,6.235,1.348,10.526,5.655,13.168
	c-0.006,0.038-0.018,0.074-0.018,0.113c-0.103,8.314-2.627,20.11,4.295,26.513c3.753,3.473,11.409,3.092,14.335,6.664
	c-0.264,0.174-0.44,0.389-0.44,0.635c0,0.686,0,1.371,0,2.056c-6.908,4.013-13.455,8.226-20.996,11.082
	c-5.132,1.944-9.151,4.54-11.029,9.904C379.697,307.144,380.446,313.917,380.22,319.589z M388.507,394.091
	c3.236-1.096,3.5-7.542,3.503-10.502c0.001-1.511-2.934-1.061-2.935,0.227c-0.001,1.786-0.063,3.561-0.322,5.33
	c-0.133,0.907-0.377,1.771-0.784,2.591c-0.52,1.05-1.615-0.63-1.848-1.24c-1.428-3.752-0.26-8.875,0.307-12.76
	c2.221,0,4.442,0,6.664,0c0.284,4.298-0.005,8.598-0.035,12.901c-0.009,1.322-0.454,2.5-1.154,3.605
	C390.766,396.04,389.49,395.278,388.507,394.091z M466.991,504.337c-10.541-0.119-21.148-1.437-31.608,0.365
	c-1.184-4.084-0.437-8.534,0.355-12.639c4.285,0.251,8.556,0.373,12.836-0.081c-0.29,0.423-0.207,0.829,0.711,0.849
	c0.308,0.007,0.625,0.023,0.946,0.045c0.117,0.008,0.233,0.015,0.352,0.024C457.232,493.446,466.278,497.073,466.991,504.337z
	 M452.837,448.482c-1.026,13.816-2.097,27.629-3.21,41.439c-5.615,0.679-11.211,0.293-16.843-0.078
	c-0.521-12.588-1.237-25.17-2.063-37.741c-1.283-19.506-2.196-39.539-6.255-58.711c-0.134-0.632-0.984-0.73-1.732-0.506
	c-0.743-0.421-2.395,0.018-2.604,1.006c-3.98,18.801-4.888,38.423-6.177,57.549c-0.858,12.724-1.578,25.462-2.109,38.205
	c-2.385,0.41-4.787,0.581-7.197,0.631c-2.794,0.058-5.597-0.027-8.392-0.04c-0.102,0-0.209,0.017-0.319,0.041
	c0.017-0.017,0.032-0.035,0.047-0.053c0.105-0.121,0.168-0.253,0.158-0.396c-2.12-30.723-5.275-61.723-5.367-92.529
	c0-0.078-0.042-0.138-0.109-0.187c0.994-0.168,2.026-0.663,3.07-1.58c1.806-1.585,2.231-4.037,2.247-6.294
	c0.027-3.918,0.242-7.818,0.027-11.731c0.81-0.402,1.469-1.221,0.852-1.51c0.269-22.717,0.584-45.438,0.594-68.157
	c0-0.861-2.897-0.323-2.897,0.776c-0.01,22.425-0.318,44.852-0.584,67.274c-4.253,0-8.506,0-12.759,0
	c0.462-1.228,0.323-3.058,0.402-4.236c0.247-3.683,0.364-7.375,0.488-11.063c0.33-9.779,0.517-19.563,0.72-29.345
	c0.156-7.534,0.464-15.054,0.665-22.583c0.114-4.284,0.641-8.569,3.377-12.017c2.454-3.093,6.973-4.177,10.51-5.529
	c5.784-2.211,10.976-5.679,16.249-8.912c0,0.917,0,1.834,0,2.75c-0.05,30.667-2.333,61.278-2.383,91.945
	c0,0.06,0.024,0.109,0.058,0.154c-0.532,5.938-7.6,10.564-13.098,11.105c-1.67,0.165-2.187,2.456-0.22,2.263
	c7.034-0.691,16.822-6.76,16.281-14.799c-0.01-0.157-0.055-0.289-0.115-0.408c0.004-1.111,0.024-2.222,0.034-3.332
	c3.543,0,7.087,0,10.63,0c0.229,0.226,0.775,0.194,1.333,0.046c0.077-0.013,0.153-0.029,0.229-0.046c4.013,0,8.026,0,12.04,0
	c0.179,1.673,0.357,3.346,0.537,5.018c0.022,0.205,0.218,0.32,0.499,0.364c2.403,5.921,7.322,8.668,13.695,8.534
	c-0.563,1.391-0.946,2.847-1.091,4.235c-0.308,2.953,1.398,4.305,3.792,4.471c0.075,0.333,0.198,0.636,0.349,0.92
	C456.023,413.102,454.145,430.876,452.837,448.482z M469.977,393.901c-0.826,3.65-8.882,3.671-10.855,0.67
	c0.002-0.341,0.015-0.683,0.016-1.024c0.003-0.95-1.323-1.02-2.189-0.609c-4.646-0.411-0.091-9.743,1.676-11.619
	c0.049-0.052,0.083-0.099,0.106-0.144c2.608,0.033,5.284,0.038,7.824-0.287c0.001,0.002,0.001,0.004,0.002,0.006
	C468.484,384.78,470.985,389.441,469.977,393.901z M468.511,299.445c-0.518-3.788-0.833-6.316-3.953-8.758
	c-3.656-2.861-9.874-4.212-14.25-5.604c-5.933-1.887-11.969-3.201-17.2-6.75c-0.297-0.202-0.846-0.166-1.38-0.017
	c0-0.002,0-0.005,0-0.008c0.084-0.24,0.068-0.439-0.024-0.597c-0.188-3.398-2.332-10.614,2.33-11.376
	c2.114-0.345,3.533-1.181,4.236-3.215c0.328-0.949,0.446-1.78,0.398-2.508c0.267-7.829,2.964-15.363,2.279-23.294
	c-0.71-8.223-6.935-9.233-13.421-7.477c0-20.418,0-40.836,0-61.254c0.357-0.183,0.707-0.377,1.044-0.589
	c18.396,17.703,36.584,35.623,54.811,53.5c0.26,0.255,0.745,0.295,1.241,0.209c-0.642,1.5-1.083,3.166-1.292,4.983
	c-0.888,7.752,3.424,14.621,10.375,16.58c-0.986,18.488-1.7,37.017-5.049,55.262c-5.602,1.743-9.643,6.409-10.419,13.188
	c-0.392,3.42,0.232,6.663,1.64,9.39c-3.023,2.267-6.062,4.513-9.117,6.737C470.366,318.351,469.794,308.835,468.511,299.445z
	 M471.219,340.379c-0.023-0.677-0.047-1.355-0.071-2.032c-0.101-2.894-0.203-5.794-0.316-8.697c3.296-2.373,6.561-4.79,9.814-7.222
	c1.867,2.852,4.685,4.966,8.14,5.888C482.973,332.4,477.134,336.444,471.219,340.379z M504.854,305.325
	c0.024,0.045,0.049,0.09,0.073,0.136c0.16,0.303,0.313,0.611,0.456,0.921c0.012,0.027,0.025,0.053,0.038,0.08
	c0.765,1.673,1.28,3.409,1.548,4.88c0.015,0.084,0.028,0.168,0.042,0.252c0.076,0.455,0.125,0.897,0.16,1.333
	c0.011,0.147,0.022,0.294,0.029,0.44c0.019,0.368,0.02,0.727,0.01,1.081c-0.004,0.156-0.008,0.313-0.017,0.468
	c-0.028,0.446-0.071,0.886-0.143,1.309c-0.001,0.006-0.001,0.011-0.002,0.016c-1.077,6.273-6.847,9.998-13.762,10.485
	c0.72-0.507,1.441-1.012,2.161-1.52c0.566-0.399-2.067-0.12-2.611,0.264c-0.571,0.402-1.143,0.803-1.713,1.205
	c-1.31-0.14-2.494-0.49-3.545-1.024c-1.983-1.181-3.506-2.958-4.565-5.047c0.095-0.151,0.024-0.25-0.151-0.305
	c-0.956-1.996-1.495-4.246-1.612-6.52c-0.052-5.602,2.591-11.299,8.045-13.205c0.532,0.072,1.196-0.092,1.643-0.446
	c1.408-0.268,2.969-0.309,4.689-0.065c0.218,0.031,0.438,0.005,0.647-0.055c0.042-0.006,0.076,0.002,0.12-0.006
	c0.801-0.16,1.558-0.16,2.272-0.039c0.083,0.055,0.225,0.085,0.396,0.097C501.558,300.664,503.5,302.815,504.854,305.325z
	 M498.909,297.866c-0.803-0.08-1.646-0.056-2.524,0.077c-1.627-0.211-3.203-0.226-4.702-0.052
	c3.236-17.867,3.971-36.004,4.931-54.104c0.482,0.036,0.969,0.063,1.469,0.054c2.468-0.042,4.867-0.523,7.056-1.375
	C503.59,260.993,502.182,279.547,498.909,297.866z M512.286,229.886c-0.45,7.085-6.563,11.29-13.956,11.796
	c-0.566,0.039-1.107,0.033-1.634,0c-0.164-0.954-1.623-0.998-2.42-0.426c-0.643-0.193-1.241-0.453-1.807-0.757
	c-3.805-2.383-5.873-6.991-6.126-11.694c-0.085-7.459,4.622-15.124,14.381-13.742c0.216,0.03,0.431,0.006,0.638-0.051
	c0.046-0.006,0.083,0.003,0.131-0.007c3.833-0.766,6.67,1.98,8.471,5.327c0.017,0.032,0.035,0.063,0.052,0.095
	c0.163,0.307,0.316,0.619,0.462,0.933c0.013,0.027,0.026,0.055,0.039,0.082c0.761,1.665,1.274,3.393,1.543,4.862
	c0.016,0.093,0.031,0.185,0.046,0.277c0.074,0.449,0.124,0.887,0.158,1.318c0.012,0.15,0.023,0.3,0.03,0.449
	c0.018,0.368,0.019,0.729,0.009,1.083C512.298,229.583,512.295,229.735,512.286,229.886z M500.687,222.63
	c-3.364-0.316-7.025,1.032-7.855,4.625c-0.803,3.479,1.486,6.737,5.104,6.691c3.689-0.046,7.779-1.833,7.84-5.986
	C505.82,224.972,503.656,222.363,500.687,222.63z M499.986,232.714c-5.394,0.665-5.778-9.491-1.266-8.902
	c0.131,0.073,0.423,0.083,0.944-0.018c1.649-0.318,2.815,2.589,3.082,3.743C503.225,229.605,502.397,232.417,499.986,232.714z
	 M423.113,93.987c0.283-3.811-1.077-6.742-3.355-8.661c-2.293-2.088-5.585-3.062-9.337-2.65c-5.61-0.918-9.711,3.963-10.874,8.992
	c-0.043,0.187-0.06,0.366-0.094,0.549c-0.041,0.212-0.079,0.422-0.108,0.629c-0.028,0.204-0.043,0.402-0.061,0.601
	c-0.025,0.31-0.047,0.618-0.046,0.918c0,0.088,0.005,0.173,0.007,0.261c0.011,0.384,0.035,0.764,0.086,1.132
	c0.002,0.018,0.006,0.035,0.008,0.053c0.058,0.403,0.14,0.795,0.244,1.176c0.008,0.028,0.017,0.056,0.025,0.084
	c0.096,0.337,0.212,0.663,0.341,0.981c0.062,0.148,0.129,0.294,0.199,0.438c0.076,0.163,0.155,0.323,0.24,0.481
	c1.96,3.662,6.203,5.917,10.966,5.978C417.755,105.029,422.949,100.566,423.113,93.987z M411.836,103.416
	c-5.344-0.383-9.246-3.826-9.649-9.165c-0.002-0.068-0.011-0.126-0.012-0.197c-0.018-1.187,0.198-2.769,0.653-4.331
	c0.009-0.029,0.019-0.058,0.028-0.087c0.045-0.154,0.099-0.306,0.149-0.459c1.031-2.906,2.994-5.543,5.808-5.033
	c0.015,0.003,0.029,0.001,0.043,0.004c0.001,0,0.002,0,0.003,0c0.169,0.027,0.384,0.032,0.68-0.009
	c3.185-0.438,5.661,0.537,7.42,2.241c1.651,1.67,2.675,3.993,3.056,6.395C420.749,98.123,418.092,103.864,411.836,103.416z
	 M133.271,283.601c-0.159-0.466-0.344-0.887-0.58-1.281c-0.509,0.376-1.253,0.546-1.845,0.399c-0.619-0.153-0.746-0.69-0.303-1.132
	c0.483-0.482,1.015-1.025,1.67-1.266c0.667-0.245,1.634-0.549,2.315-0.182c0.865,0.466,1.345,1.822,1.639,2.685
	C136.53,283.885,133.648,284.708,133.271,283.601z M86.937,92.631c-1.961,0-0.087-1.786,1.089-1.786c28.852,0,57.703,0,86.554,0
	c1.961,0,0.087,1.786-1.089,1.786C144.639,92.631,115.788,92.631,86.937,92.631z M413.502,255.158c0,0.667,0,1.333,0,2
	c0,0.929-2.897,1.39-2.897,0.776c0-0.667,0-1.333,0-2C410.604,255.005,413.502,254.544,413.502,255.158z M375.459,96.411
	c-43.728,0-87.455,0-131.182,0c-1.963,0-1.443-2.192,0.238-2.192c43.728,0,87.455,0,131.182,0
	C377.661,94.219,377.142,96.411,375.459,96.411z M212.48,93.93c-2.84-0.388-5.442,1.488-6.202,4.206
	c-1.066,3.81,1.855,6.108,5.358,6.358c3.44,0.247,6.503-1.925,6.763-5.415C218.675,95.368,215.67,93.728,212.48,93.93z
	 M213.51,103.291c-2.366-0.03-4.226-1.503-4.515-3.854c-0.12-0.975,0.125-1.952,0.51-2.84c0.183-0.421,0.438-0.813,0.735-1.16
	c0.101-0.111,0.209-0.215,0.321-0.314c0.27,0.031,0.548,0.021,0.826-0.032c2.229-0.269,3.702,1.605,4.056,3.605
	C215.657,99.902,215.199,103.313,213.51,103.291z M411.075,266.349c0.46,0.396-0.583,0.9-0.819,0.99
	c-2.219,0.849-4.85,1.363-7.041,0.17c-1.043-0.568,1.645-1.641,2.344-1.261c1.22,0.664,2.348,0.658,3.625,0.17
	C409.665,266.234,410.615,265.953,411.075,266.349z M223.49,89.169c-2.907-3.083-7.333-4.542-12.435-3.945
	c-6.848-1.172-11.725,4.844-13.244,10.918c-0.009,0.033-0.02,0.065-0.028,0.099c-0.02,0.079-0.033,0.155-0.051,0.233
	c-0.036,0.153-0.079,0.307-0.11,0.46c-0.013,0.065-0.021,0.129-0.034,0.194c-0.015,0.08-0.027,0.158-0.041,0.237
	c-0.035,0.196-0.066,0.391-0.094,0.583c-0.032,0.233-0.059,0.465-0.079,0.695c-0.002,0.03-0.006,0.06-0.009,0.09
	c-0.207,2.35,0.172,4.45,1.006,6.274c0.002,0.005,0.004,0.009,0.006,0.014c0.057,0.128,0.122,0.253,0.183,0.379
	c2.375,4.877,7.875,7.862,14.042,7.952c7.914,0.115,14.104-5.511,14.48-13.42c0-0.004,0.001-0.007,0.001-0.011
	c0.004-0.041,0.001-0.079,0.004-0.119c0.009-0.222,0.031-0.438,0.03-0.664c0-0.022-0.003-0.042-0.003-0.064
	C227.288,94.909,225.888,91.538,223.49,89.169z M212.871,111.805c-7.146-0.502-12.334-5.204-12.609-12.378
	c-0.001-0.13-0.012-0.247-0.01-0.383c0.032-1.569,0.37-3.523,1.002-5.423c1.38-3.942,4.151-7.621,8.102-6.944
	c0.046,0.008,0.09,0.011,0.137,0.02c0.006,0.001,0.014,0,0.02,0.001c0.168,0.024,0.374,0.03,0.663-0.01
	c3.741-0.521,6.74,0.417,8.984,2.188c2.454,2.02,4.023,5.047,4.661,8.259c0.01,0.056,0.023,0.111,0.033,0.168
	c0.027,0.147,0.045,0.297,0.069,0.445C224.918,104.773,221.326,112.4,212.871,111.805z M348.536,308.664
	c-3.011-0.419-5.713,1.607-6.515,4.473c-1.144,4.089,1.985,6.57,5.749,6.84c3.654,0.262,6.838-2.083,7.112-5.77
	C355.178,310.233,351.97,308.434,348.536,308.664z M349.644,318.773c-2.57-0.032-4.603-1.622-4.918-4.181
	c-0.13-1.055,0.135-2.116,0.553-3.078c0.199-0.46,0.479-0.885,0.804-1.265c0.118-0.131,0.244-0.254,0.378-0.37
	c0.015-0.014,0.016-0.021,0.028-0.033c0.308,0.055,0.635,0.038,0.958-0.023c2.45-0.298,4.083,1.688,4.476,3.908
	C352.172,315.143,351.641,318.799,349.644,318.773z M349.787,229.185c0.295-3.975-2.913-5.774-6.347-5.543
	c-3.011-0.419-5.713,1.607-6.515,4.473c-1.144,4.088,1.985,6.57,5.749,6.839C346.328,235.216,349.513,232.871,349.787,229.185z
	 M344.548,233.751c-2.57-0.033-4.603-1.622-4.918-4.181c-0.13-1.056,0.135-2.116,0.553-3.078c0.2-0.46,0.479-0.885,0.804-1.265
	c0.119-0.131,0.245-0.254,0.378-0.37c0.015-0.014,0.016-0.021,0.028-0.034c0.308,0.055,0.635,0.039,0.958-0.022
	c2.45-0.298,4.083,1.688,4.476,3.907C347.077,230.12,346.545,233.776,344.548,233.751z M290.258,510.867
	c0.223-0.19,0.392-0.396,0.453-0.58c0.57-0.17,1.062-0.462,1.084-0.786c2.125-30.637,5.289-61.558,5.381-92.279
	c0.001-0.288-0.523-0.365-1.125-0.286c1.776-0.682,3.379-2.316,4.352-3.977c3.649-2.948,1.813-11.172,1.184-15.205
	c0.907,0,1.813,0,2.72,0c0.583,0,1.302-0.425,1.679-0.867c0.573-0.229,1.016-0.539,0.903-0.742
	c-0.741-1.334-0.502-3.714-0.593-5.174c-0.26-4.185-0.385-8.379-0.517-12.569c-0.307-9.78-0.492-19.563-0.698-29.346
	c-0.181-8.616,0.245-17.772-1.252-26.224c-1.049-5.924-5.53-8.78-10.731-10.844c-7.755-3.078-14.511-7.273-21.688-11.395
	c0-0.747,0-1.493,0-2.239c0-0.14-0.111-0.232-0.287-0.286c3.031-3.292,10.475-3.122,14.07-6.43
	c6.601-6.074,4.782-16.684,4.462-24.918c1.748-0.259,3.194-1.277,4.439-2.681c7.385-8.331-6.585-15.24-13.124-16.257
	c-7.521-1.17-15.514,1.864-20.639,7.401c-0.06,0.002-0.115,0.003-0.187,0.009c-5.892,0.542-11.8,2.372-14.057,8.367
	c-2.242,5.955,0.167,12.777,0.285,18.875c0.002,0.099,0.099,0.164,0.251,0.201c-0.201,2.149,1.04,3.65,3.271,4.208
	c3.629,0.907,4.013,2.218,3.904,5.827c-0.061,2.011-0.382,4.008-0.476,6.019c0,0,0,0.001,0,0.002
	c-0.359,0.039-0.71,0.134-0.938,0.287c-6.614,4.445-15.024,5.735-22.692,8.322c-0.784,0.265-1.557,0.547-2.322,0.843
	c-0.847,0.328-1.686,0.67-2.503,1.049c-6.819,3.161-9.382,11.846-11.878,18.266c-2.931,7.539-5.87,14.966-8.479,22.629
	c-1.778,5.225-2.507,7.18-1.407,12.381c2.364,11.177,5.709,22.258,9.264,33.108c0.85,2.594,0.932,4.367,3.234,4.934
	c-0.879,1.762-2.269,4.539-3.111,7.372c-0.166-0.032-0.423-0.028-0.8,0.028c-5.818,0.87-6.077,7.029-6.086,11.817
	c-5.378-0.043-10.737-0.233-16.041,0.823c-0.854,0.005-2.246,0.404-2.246,1.018c0,13.251,0,26.501,0,39.752
	c0,0.072,0.051,0.125,0.137,0.165c0.047,0.037,0.144,0.06,0.293,0.066c0.028,0.002,0.049,0.005,0.082,0.005c0.003,0,0.004,0,0.007,0
	c0.002,0,0.005,0,0.007,0c0.078,0,0.155,0,0.233,0c13.417,0,26.834,0,40.251,0c-0.046,0.097-0.079,0.198-0.078,0.308
	c0.088,16.31,2.236,32.729,4.261,48.906c-7.765,1.079-17.461,5.429-17.468,13.918c0,0.872,1.23,0.934,2.092,0.575
	c0.104,0.015,0.222,0.025,0.372,0.024c10.622-0.08,21.34-1.52,31.879,0.375c0.265,0.048,0.708-0.056,1.136-0.227
	c0.792,0.002,1.832-0.397,2.021-1.044c1.219-4.172,0.478-8.775-0.334-12.977c-0.005-0.026-0.01-0.052-0.015-0.078
	c0.472-0.031,0.944-0.062,1.416-0.092c0.2-0.013,0.399-0.026,0.599-0.039c1.366-0.086,2.076-1.589,0.953-1.911
	c0.533-12.817,1.272-25.629,2.128-38.429c1.168-17.453,2.051-35.331,5.257-52.601c0.043-0.234,0.084-0.47,0.128-0.704
	c0.209,1.089,0.407,2.181,0.598,3.274c2.889,16.546,3.735,33.609,4.865,50.282c0.873,12.888,1.606,25.792,2.141,38.699
	c0.036,0.88,0.969,1.14,1.774,0.961c0.5,0.088,1,0.178,1.5,0.247c-0.721,0.11-1.48,0.352-1.564,0.779
	c-0.828,4.243-1.635,8.88-0.397,13.119c0.064,0.222,0.533,0.236,1.075,0.142c-0.295,0.396-0.153,0.742,0.937,0.546
	c10.522-1.892,21.232-0.445,31.837-0.365c0.232,0.002,0.542-0.083,0.846-0.213c0.524,0.203,2.788-0.189,2.787-0.886
	C309.067,515.194,297.804,511.15,290.258,510.867z M299.053,410.481c-0.704,3.188-2.353,0.139-2.677-1.342
	c-0.398-1.815-0.399-3.715-0.4-5.564c-0.001-1.511-2.935-1.061-2.935,0.227c0.002,3.341,0.124,9.898,3.843,10.285
	c-0.76,1.032-1.715,1.609-3.046,0.446c-0.971-0.848-1.454-2.107-1.744-3.325c-0.475-1.996-0.166-4.468-0.224-6.523
	c-0.065-2.314-0.068-4.622,0.065-6.931c2.239,0,4.478,0,6.716,0c-0.03,0.115-0.045,0.233-0.027,0.36
	C299.204,402.139,299.941,406.456,299.053,410.481z M250.514,279.259c1.314-2.318,5.033-1.16,6.931-0.609
	c0.759,0.22,2.018-0.211,2.337-0.962c1.646-3.868,1.78-8.165,1.788-12.352c5.061,1.172,11.983-1.676,16.456-2.249
	c2.678-0.344,5.418-0.181,7.63,1.493c0.397,0.3,0.702,0.761,1.035,1.185c0.085,5.45,0.658,10.869,0.082,16.313
	c-0.657,6.2-3.818,9.497-9.572,11.146c-5.76,1.65-11.095,3.311-10.24,10.142c-0.117,0.076-0.224,0.164-0.31,0.271
	c-0.821,1.034-1.634,1.577-2.46,1.742c-0.373,0.074-0.748,0.073-1.128,0c-0.907-0.174-1.839-0.739-2.824-1.575
	c-1.705-1.448-2.983-3.486-4.023-5.457c0.183-3.796,1.542-8.316-0.632-11.711c-0.675-1.053-2.868-1.177-3.908-1.346
	C248.468,284.769,249.556,280.948,250.514,279.259z M265.633,307.314c0.976-0.378,1.943-1.039,2.879-2.051c0,0.043,0,0.086,0,0.129
	c0,1.691,0,3.381,0,5.072c0,0.287,0,0.573,0,0.86C267.383,310.152,266.458,308.72,265.633,307.314z M266.662,313.198
	c-0.509,0.806-0.932,1.637-1.275,2.536c-0.169,0.443-0.292,0.86-0.436,1.217c-0.787,0.051-1.895,0.361-2.074,0.831
	c-2.231-0.728-2.556-3.529-2.996-5.582c1.253-0.918,2.223-2.215,3.329-3.324c0.94,1.535,2,3.039,3.323,4.23
	C266.571,313.144,266.62,313.165,266.662,313.198z M261.621,307.406c-0.912,0.817-1.719,1.768-2.567,2.635
	c-1.838,1.877-2.073,0.986-2.378-1.102c-0.26-1.773-0.37-3.576-0.419-5.382C257.816,305.348,259.669,306.8,261.621,307.406z
	 M261.128,319.289c0.486,0.138,1.029,0.225,1.656,0.238c0.024,0,0.048-0.001,0.073-0.001c0.035,14.73,0.352,29.462,0.594,44.19
	c0.09,5.492,0.184,10.984,0.28,16.477c0.025,1.446-1.473,3.107-2.207,4.38c-0.834,1.447-1.667,2.893-2.501,4.339
	c-2.043-3.312-4.795-7.349-4.529-10.654c0.656-8.161,1.579-16.303,2.495-24.438C258.285,342.3,259.676,330.79,261.128,319.289z
	 M264.381,384.06c0.628-1.089,2.278-2.922,2.254-4.245c-0.088-4.964-0.172-9.927-0.254-14.891
	c-0.255-15.326-0.587-30.659-0.626-45.988c0.486-0.244,0.936-0.568,1.33-1c0.746-0.817,1.115-1.974,1.522-3.097
	c0.381,25.065,1.923,50.102,2.221,75.169c-3.292,0-6.584,0-9.876,0C262.095,388.025,263.238,386.043,264.381,384.06z
	 M255.031,312.883c0.564,0.409,1.301,0.514,2.042,0.441c0.369,1.511,0.758,2.946,1.479,4.054c-0.005,0.018-0.016,0.035-0.018,0.054
	c-1.558,12.265-3.032,24.542-4.424,36.826c-0.921,8.136-1.814,16.278-2.496,24.438c-0.309,3.702,2.6,7.821,4.713,11.313
	c-3.196,0-6.392,0-9.588,0C249.504,364.3,252.267,338.591,255.031,312.883z M214.32,391.861c-3.146-9.926-6.088-19.994-8.317-30.169
	c-1.084-4.946-0.313-7.06,1.395-12.01c2.283-6.614,4.476-13.198,7.223-19.642c1.625-3.814,3.01-7.724,4.74-11.494
	c2.535-5.521,6.42-8.496,12.135-10.413c7.193-2.414,15.256-3.835,21.782-7.883c-0.029,1.474-0.078,3.04-0.059,4.61
	c-0.113,0.109-0.189,0.227-0.203,0.351c-2.174,20.225-4.348,40.451-6.522,60.676c-0.901,8.388-1.803,16.776-2.705,25.165
	c-0.173,1.611-0.346,3.222-0.519,4.833c-0.141,0.121-0.25,0.255-0.304,0.407c-0.428,1.204-0.965,2.271-1.602,3.205
	c-2.09,3.065-5.289,4.645-9.52,4.479c-0.154-0.006-0.318,0.018-0.483,0.064c-0.292-0.569-0.62-1.109-0.971-1.625
	c-0.31-0.456-0.639-0.883-0.986-1.282c0.525-0.098,1.187-0.455,1.503-0.795c0.041-0.012,0.08-0.025,0.12-0.039
	c0.589-0.196,1.078-0.514,1.029-0.874c-0.079-0.579-0.161-1.158-0.243-1.738c-1.803-12.797-4.173-25.547-4.49-38.491
	c5.886-11.213,12.454-25.886,11.659-38.779c-0.076-1.243-2.98-0.568-2.897,0.776c0.414,6.726-1.872,13.646-3.992,19.929
	c-1.866,5.532-4.114,10.985-6.741,16.211c-0.533,0.185-0.967,0.473-0.963,0.829c0.003,0.362,0.016,0.724,0.022,1.086
	c-0.092,0.233-0.08,0.421,0.011,0.566c0.311,13.392,2.831,26.576,4.657,39.818c-3.586-0.064-7.18-0.151-10.756-0.43
	C215.503,398.985,215.073,394.236,214.32,391.861z M218.236,400.794c2.761,0.2,5.538,0.278,8.309,0.325
	c-0.283,0.234-0.396,0.502-0.168,0.743c1.368,1.444,6.478,11.577,1.843,11.003c-0.826-0.102-3.136,1.175-2.005,1.482
	c-0.932,3.287-7.408,2.712-10.061,0.627c0.12-0.132,0.246-0.261,0.392-0.379c0.458-0.37,0.347-0.806-0.24-0.895
	c-0.353-0.054-0.748-0.016-1.122,0.091C213.34,409.922,216.499,404.244,218.236,400.794z M190.216,460.307
	c0-12.606,0-25.212,0-37.818c5.236-1.015,10.606-0.683,15.91-0.659c1.271,0.005,1.903-1.236,1.225-1.81
	c0.612-0.168,1.151-0.454,1.151-0.818c0.001-1.85,0.049-3.692,0.337-5.523c0.184-1.166,0.825-4.448,2.32-4.672
	c0.406-0.061,0.835-0.247,1.143-0.451c-0.729,2.761-0.859,5.5,0.595,7.33c-0.652,1.208-0.799,2.618-0.535,4.092
	c0.051,0.288,0.408,0.401,0.853,0.394c-0.129,0.018-0.259,0.029-0.388,0.048c-1.354,0.202-2.429,1.82-0.418,1.521
	c4.76-0.708,9.551-0.4,14.343-0.375c1.036,0.006,3.104-1.559,1.147-1.569c-4.704-0.025-9.402-0.272-14.077,0.299
	c0.766-0.168,1.527-0.594,1.437-1.095c-0.103-0.573-0.142-1.16-0.102-1.732c0.08,0.031,0.153,0.066,0.236,0.094
	c2.961,1.021,9.452,1.254,12.392-1.368c1.125,1.232,1.526,2.981,1.351,4.692c-0.154,1.514,2.802,1.122,2.938-0.212
	c0.245-2.398-0.474-4.934-2.324-6.484c1.691-0.465,3.041-1.573,3.203-3.585c2.48,2.242,2.851,7.833,2.102,10.366
	c-0.08,0.269,0.084,0.43,0.363,0.507c-0.475,0.441-0.564,0.919,0.488,0.926c5.038,0.028,10.067,0.37,15.106,0.398
	c0.241,0.001,0.526-0.081,0.802-0.206c0,12.57,0,25.139,0,37.708C231.283,460.307,210.75,460.307,190.216,460.307z M249.787,523.977
	c-10.304-1.579-20.745-0.273-31.115-0.194c-0.201,0.001-0.448,0.066-0.699,0.167c0.332-7.258,8.775-10.988,15.365-11.55
	c0.263,0.042,0.568,0.022,0.869-0.054c0.146-0.006,0.293-0.014,0.437-0.017c0.531-0.012,1.191-0.384,1.587-0.79
	c4.337,0.415,8.667,0.254,13.011-0.011c-0.017,0.09-0.023,0.182-0.004,0.278C250.008,515.753,250.734,520,249.787,523.977z
	 M273.194,509c-0.532-12.699-1.263-25.393-2.112-38.075c-1.281-19.136-2.203-38.775-6.205-57.579
	c-0.175-0.824-1.242-0.902-2.036-0.541c-0.815-0.15-2.127,0.289-2.29,1.052c-3.982,18.712-4.892,38.249-6.182,57.289
	c-0.863,12.736-1.587,25.487-2.12,38.243c-5.656,0.372-11.278,0.717-16.923-0.057c-1.977-15.773-4.061-31.785-4.152-47.679
	c0-0.021-0.001-0.042-0.001-0.063c0-0.011-0.004-0.02-0.004-0.031c0.938,0,1.876,0,2.814,0c5.555,0,11.109,0,16.664,0
	c0.229,0,0.709-0.157,1.171-0.358c0,0.04,0,0.081,0,0.121c0,0.55,2.897,0.108,2.897-0.776c0-13.251,0-26.501,0-39.752
	c0-0.453-1.961-0.232-2.655,0.353c-4.734-0.03-9.46-0.323-14.194-0.381c0.037-0.056,0.066-0.113,0.083-0.173
	c1.275-4.311-0.25-11.355-5.171-12.399c-0.144-0.802-0.367-1.606-0.657-2.396c6.128-0.162,10.97-3.132,13.38-8.868
	c0.311-0.165,0.536-0.372,0.561-0.602c0.158-1.466,0.315-2.932,0.473-4.397c3.636,0,7.273,0,10.909,0c0.319,0.39,1.24,0.283,1.955,0
	c3.817,0,7.633,0,11.45,0c0.011,1.176,0.031,2.352,0.036,3.528c-0.057,0.115-0.1,0.238-0.109,0.374
	c-0.531,7.843,8.733,13.86,15.696,14.541c0.525,0.051,1.038-0.186,1.403-0.521c0.678-0.622,0.838-1.587-0.433-1.712
	c-5.676-0.555-13.531-5.397-13.711-11.742c0.039-0.08,0.066-0.162,0.066-0.25c-0.002-1.589-0.034-3.178-0.048-4.767
	c-0.236-26.531-1.939-53.025-2.265-79.554c0.01-0.14,0.005-0.293-0.004-0.448c-0.026-2.253-0.064-4.506-0.068-6.76
	c0-0.463,0-0.927,0-1.391c5.073,3.071,10.063,6.287,15.585,8.517c7.195,2.906,12.704,4.91,14.196,13.337
	c1.443,8.142,0.836,17.302,1.011,25.624c0.199,9.493,0.39,18.986,0.68,28.477c0.121,3.972,0.261,7.944,0.478,11.913
	c0.071,1.304-0.087,3.307,0.271,4.817c-4.19,0-8.381,0-12.572,0c-1.413-10.171-1.018-20.697-0.967-30.933
	c0.061-12.27,0.385-24.538,0.399-36.808c0.001-0.86-2.896-0.323-2.897,0.776c-0.014,11.806-0.304,23.61-0.391,35.416
	c-0.069,9.373-0.416,18.997,0.495,28.387c0.132,1.357,0.29,2.708,0.479,4.054c-0.367,0.447-0.364,0.899,0.495,0.943
	c0.045,0.003,0.083,0.009,0.133,0.009c0.071,0,0.143,0,0.214,0c0.008,0,0.017,0,0.026,0c-0.061,0.985-0.101,1.97-0.114,2.955
	c-0.039,2.926,0.085,5.853,0.137,8.783c0.004,0.244,0.015,0.482,0.027,0.718c0,0.007,0,0.014,0.001,0.021
	c0.108,2.081,0.557,3.879,2.071,5.506c1.077,1.157,2.253,1.583,3.414,1.526c0.157-0.008,0.313-0.029,0.468-0.055
	c-0.12,0.053-0.232,0.109-0.332,0.173c-0.262,0.169-0.437,0.377-0.438,0.616c-0.091,30.541-3.228,61.269-5.345,91.727
	c0,0.006-0.001,0.013-0.001,0.02c-2.525,0.022-5.05,0.078-7.568,0.024C278.629,509.711,275.902,509.518,273.194,509z
	 M274.489,524.187c0-0.013,0.006-0.027,0.002-0.04c-1.224-4.189-0.448-8.768,0.369-12.972c4.353,0.476,8.728,0.372,13.121,0.339
	c-0.427,0.238-0.591,0.453,0.015,0.466c6.959,0.151,17.222,3.928,18.113,11.836C295.563,523.697,284.956,522.391,274.489,524.187z
	 M411.523,89.508c-2.348-0.272-4.65,1.175-5.29,3.462c-0.852,3.043,1.503,4.838,4.289,5.038c2.846,0.204,5.582-1.499,5.8-4.442
	C416.546,90.559,414.063,89.356,411.523,89.508z M413.176,95.524c-0.12,0.35-0.311,0.69-0.546,0.976
	c-0.093,0.106-0.194,0.206-0.301,0.297c-1.773-0.051-3.126-1.194-3.343-2.954c-0.092-0.751,0.097-1.5,0.394-2.186
	c0.137-0.315,0.325-0.611,0.548-0.872c0.022-0.025,0.049-0.047,0.072-0.071c0.161-0.004,0.322-0.025,0.483-0.056
	c1.614-0.182,2.65,1.387,2.896,2.777C413.505,94.141,413.406,94.854,413.176,95.524z M415.069,250.995
	c0.536,0.377-0.569,0.999-0.792,1.09c-0.571,0.233-1.365,0.394-1.907,0.013c-0.464-0.326-0.998-0.708-1.5-0.355
	c-0.581,0.408-1.33,0.672-2.049,0.549c-0.549-0.094-0.76-0.584-0.252-0.941C410.585,249.932,412.977,249.523,415.069,250.995z
	 M169.568,510.867c0.223-0.19,0.392-0.396,0.453-0.581c0.569-0.17,1.061-0.462,1.083-0.786c2.125-30.637,5.29-61.558,5.382-92.279
	c0.001-0.288-0.523-0.365-1.126-0.286c1.777-0.682,3.379-2.317,4.353-3.977c3.649-2.948,1.813-11.171,1.184-15.205
	c0.906,0,1.813,0,2.72,0c0.583,0,1.301-0.425,1.678-0.867c0.574-0.229,1.017-0.54,0.904-0.742c-0.741-1.334-0.502-3.714-0.593-5.174
	c-0.26-4.185-0.385-8.379-0.517-12.569c-0.308-9.78-0.493-19.563-0.698-29.346c-0.181-8.616,0.244-17.772-1.253-26.224
	c-1.049-5.924-5.53-8.78-10.731-10.844c-7.755-3.078-14.511-7.273-21.688-11.395c0-0.747,0-1.493,0-2.239
	c0-0.14-0.111-0.232-0.287-0.286c3.031-3.292,10.475-3.122,14.069-6.43c7.005-6.447,4.525-18.006,4.42-26.408
	c-0.001-0.125-0.03-0.232-0.069-0.33c4.331-2.78,6.913-7.136,5.718-13.248c-0.082-0.42-0.82-0.465-1.532-0.293
	c-10.408-0.308-24.896-4.141-33.227,3.802c-5.976-2.01-13.955-2.458-15.84,5.042c-1.834,7.298,1.555,14.933,1.71,22.231
	c0.002,0.099,0.099,0.164,0.251,0.201c-0.201,2.149,1.041,3.65,3.272,4.208c3.63,0.907,4.014,2.218,3.904,5.827
	c-0.061,2.011-0.382,4.008-0.476,6.019c0,0,0,0.001,0,0.002c-0.36,0.039-0.712,0.134-0.939,0.287
	c-8.038,5.402-18.73,6.141-27.517,10.214c-6.819,3.161-9.381,11.846-11.877,18.266c-2.93,7.539-5.87,14.966-8.479,22.629
	c-1.778,5.225-2.507,7.18-1.407,12.381c2.364,11.177,5.709,22.258,9.264,33.108c0.85,2.594,0.931,4.367,3.234,4.934
	c-0.88,1.762-2.27,4.539-3.112,7.372c-0.166-0.032-0.423-0.028-0.799,0.028c-5.818,0.87-6.078,7.029-6.087,11.817
	c-5.378-0.043-10.736-0.233-16.04,0.823c-0.854,0.004-2.247,0.404-2.247,1.018c0,13.251,0,26.501,0,39.752
	c0,0.072,0.051,0.126,0.137,0.165c0.047,0.037,0.144,0.06,0.292,0.066c0.029,0.002,0.05,0.005,0.083,0.005c0.003,0,0.004,0,0.007,0
	c0.002,0,0.004,0,0.007,0c0.078,0,0.155,0,0.233,0c13.417,0,26.835,0,40.252,0c-0.046,0.097-0.079,0.198-0.078,0.308
	c0.088,16.31,2.236,32.729,4.26,48.906c-7.766,1.079-17.461,5.429-17.469,13.918c-0.001,0.872,1.23,0.934,2.092,0.574
	c0.104,0.016,0.223,0.026,0.373,0.025c10.622-0.08,21.34-1.519,31.879,0.375c0.265,0.048,0.708-0.056,1.136-0.227
	c0.792,0.002,1.832-0.397,2.021-1.044c1.219-4.171,0.478-8.775-0.334-12.977c-0.005-0.026-0.01-0.052-0.015-0.078
	c0.671-0.044,1.342-0.088,2.015-0.13c0.053-0.003,0.102-0.014,0.152-0.021c1.264-0.184,1.881-1.581,0.8-1.89
	c0.534-12.817,1.272-25.629,2.128-38.429c1.184-17.69,2.072-35.817,5.386-53.306c3.378,17.563,4.259,35.781,5.463,53.557
	c0.873,12.888,1.606,25.792,2.141,38.699c0.036,0.88,0.968,1.14,1.774,0.961c0.5,0.088,1,0.178,1.5,0.247
	c-0.721,0.11-1.48,0.352-1.564,0.779c-0.828,4.243-1.635,8.88-0.397,13.119c0.065,0.222,0.534,0.236,1.076,0.142
	c-0.295,0.396-0.153,0.742,0.937,0.546c10.522-1.892,21.232-0.445,31.837-0.365c0.232,0.002,0.541-0.083,0.845-0.213
	c0.524,0.202,2.788-0.189,2.787-0.886C188.377,515.195,177.113,511.15,169.568,510.867z M178.362,410.481
	c-0.704,3.188-2.352,0.138-2.677-1.342c-0.398-1.815-0.399-3.715-0.4-5.564c-0.001-1.511-2.935-1.061-2.935,0.227
	c0.002,3.34,0.124,9.898,3.843,10.285c-0.76,1.032-1.715,1.609-3.046,0.446c-0.971-0.848-1.454-2.107-1.744-3.325
	c-0.475-1.996-0.166-4.468-0.224-6.523c-0.065-2.314-0.068-4.622,0.065-6.931c2.239,0,4.478,0,6.716,0
	c-0.029,0.115-0.045,0.233-0.027,0.36C178.512,402.139,179.25,406.456,178.362,410.481z M130.984,285.29
	c-3.208-0.521-2.119-4.342-1.161-6.031c0.324-0.571,0.794-0.929,1.347-1.14c0.57-0.14,1.217-0.228,1.952-0.237
	c1.315,0.077,2.695,0.495,3.631,0.767c0.759,0.22,2.018-0.211,2.337-0.962c1.572-3.693,1.765-7.778,1.786-11.785
	c6.695,3.427,17.504,3.802,25.137,0.506c0.117,5.233,0.62,10.44,0.067,15.669c-0.656,6.2-3.817,9.497-9.571,11.146
	c-5.759,1.65-11.095,3.311-10.24,10.142c-0.117,0.076-0.225,0.164-0.311,0.272c-2.078,2.616-4.103,2.127-6.411,0.167
	c-1.705-1.448-2.983-3.486-4.023-5.457c0.183-3.796,1.542-8.317-0.632-11.711C134.217,285.583,132.024,285.459,130.984,285.29z
	 M145.84,313.107c0.04,0.036,0.088,0.057,0.13,0.091c-0.509,0.806-0.932,1.637-1.275,2.536c-0.169,0.443-0.292,0.86-0.436,1.217
	c-0.787,0.051-1.895,0.362-2.074,0.831c-2.231-0.727-2.556-3.529-2.997-5.582c1.253-0.918,2.223-2.216,3.329-3.325
	C143.458,310.411,144.518,311.916,145.84,313.107z M144.943,307.314c0.976-0.378,1.943-1.04,2.879-2.051c0,0.043,0,0.086,0,0.129
	c0,1.691,0,3.381,0,5.072c0,0.287,0,0.573,0,0.86C146.692,310.152,145.767,308.72,144.943,307.314z M138.363,310.041
	c-1.838,1.877-2.073,0.985-2.378-1.102c-0.259-1.773-0.37-3.577-0.418-5.382c1.56,1.791,3.413,3.244,5.364,3.849
	C140.019,308.223,139.211,309.174,138.363,310.041z M140.438,319.289c0.486,0.138,1.029,0.225,1.655,0.238
	c0.024,0,0.049-0.001,0.074-0.001c0.035,14.73,0.352,29.462,0.594,44.19c0.09,5.492,0.184,10.984,0.28,16.477
	c0.025,1.446-1.473,3.107-2.207,4.38c-0.834,1.447-1.667,2.893-2.501,4.339c-2.043-3.312-4.796-7.349-4.53-10.654
	c0.656-8.161,1.579-16.303,2.495-24.438C137.594,342.3,138.985,330.79,140.438,319.289z M143.691,384.06
	c0.628-1.089,2.278-2.922,2.254-4.245c-0.088-4.964-0.172-9.927-0.254-14.891c-0.255-15.327-0.588-30.659-0.626-45.988
	c0.485-0.244,0.936-0.568,1.33-1c0.746-0.817,1.115-1.974,1.522-3.097c0.381,25.065,1.923,50.102,2.221,75.169
	c-3.292,0-6.584,0-9.876,0C141.405,388.025,142.548,386.043,143.691,384.06z M134.34,312.883c0.564,0.409,1.301,0.514,2.042,0.441
	c0.369,1.511,0.758,2.946,1.479,4.054c-0.005,0.018-0.016,0.035-0.018,0.054c-1.558,12.265-3.032,24.542-4.424,36.826
	c-0.921,8.136-1.814,16.278-2.495,24.438c-0.31,3.702,2.599,7.821,4.712,11.313c-3.196,0-6.392,0-9.587,0
	C128.813,364.3,131.576,338.591,134.34,312.883z M93.63,391.861c-3.146-9.926-6.088-19.994-8.318-30.169
	c-1.083-4.946-0.313-7.06,1.395-12.01c2.283-6.614,4.477-13.198,7.223-19.642c1.625-3.814,3.01-7.724,4.74-11.494
	c2.534-5.521,6.419-8.495,12.135-10.413c7.193-2.414,15.256-3.835,21.782-7.884c-0.029,1.473-0.078,3.04-0.059,4.611
	c-0.113,0.108-0.189,0.227-0.203,0.351c-3.041,28.291-6.082,56.581-9.123,84.872c-0.035,0.32-0.069,0.641-0.104,0.96
	c-0.173,1.613-0.347,3.227-0.52,4.84c-0.141,0.121-0.251,0.256-0.305,0.408c-0.094,0.265-0.196,0.52-0.301,0.771
	c-1.925,4.654-5.583,7.117-10.82,6.913c-0.154-0.006-0.318,0.018-0.483,0.064c-0.145-0.281-0.303-0.551-0.462-0.821
	c-0.448-0.758-0.949-1.459-1.495-2.086c0.525-0.098,1.187-0.455,1.503-0.795c0.44-0.132,0.838-0.332,1.03-0.569
	c0.087-0.108,0.136-0.223,0.119-0.343c-0.001-0.012-0.003-0.024-0.005-0.036c-1.824-13.369-4.397-26.676-4.729-40.192
	c5.886-11.213,12.454-25.886,11.659-38.779c-0.077-1.243-2.98-0.568-2.897,0.776c0.414,6.726-1.872,13.646-3.992,19.929
	c-1.867,5.532-4.114,10.985-6.741,16.211c-0.533,0.185-0.967,0.473-0.963,0.829c0.003,0.362,0.016,0.724,0.022,1.086
	c-0.092,0.233-0.08,0.421,0.012,0.566c0.311,13.392,2.831,26.576,4.657,39.818c-3.586-0.064-7.181-0.151-10.756-0.43
	C94.813,398.985,94.383,394.236,93.63,391.861z M97.545,400.794c2.761,0.2,5.538,0.278,8.309,0.325
	c-0.283,0.234-0.396,0.502-0.168,0.743c1.368,1.444,6.478,11.577,1.844,11.003c-0.826-0.102-3.135,1.175-2.006,1.481
	c-0.931,3.288-7.408,2.713-10.061,0.627c0.121-0.131,0.246-0.26,0.392-0.378c0.458-0.37,0.346-0.806-0.24-0.895
	c-0.353-0.054-0.748-0.016-1.122,0.091C92.649,409.922,95.808,404.244,97.545,400.794z M69.525,460.307c0-12.606,0-25.212,0-37.818
	c5.236-1.016,10.607-0.683,15.911-0.659c1.271,0.005,1.903-1.237,1.225-1.81c0.612-0.168,1.151-0.454,1.151-0.818
	c0.001-1.85,0.049-3.692,0.337-5.523c0.184-1.166,0.826-4.448,2.321-4.672c0.406-0.061,0.834-0.246,1.142-0.451
	c-0.729,2.761-0.859,5.5,0.595,7.33c-0.651,1.208-0.798,2.618-0.535,4.092c0.051,0.288,0.409,0.401,0.854,0.394
	c-0.129,0.018-0.259,0.029-0.389,0.048c-1.354,0.202-2.429,1.82-0.418,1.521c4.761-0.708,9.552-0.4,14.344-0.375
	c1.036,0.006,3.104-1.559,1.147-1.569c-4.705-0.025-9.404-0.272-14.08,0.299c0.766-0.167,1.528-0.593,1.438-1.095
	c-0.102-0.573-0.142-1.16-0.101-1.732c0.08,0.031,0.153,0.066,0.236,0.094c2.96,1.02,9.452,1.254,12.392-1.367
	c1.125,1.232,1.526,2.98,1.352,4.691c-0.154,1.514,2.802,1.122,2.938-0.212c0.245-2.399-0.474-4.934-2.324-6.484
	c1.691-0.465,3.041-1.573,3.203-3.586c2.48,2.242,2.851,7.833,2.103,10.367c-0.08,0.269,0.084,0.43,0.363,0.507
	c-0.475,0.441-0.564,0.919,0.488,0.926c5.038,0.028,10.067,0.37,15.106,0.398c0.241,0.001,0.525-0.081,0.801-0.205
	c0,12.569,0,25.139,0,37.708C110.592,460.307,90.058,460.307,69.525,460.307z M129.097,523.977
	c-10.304-1.579-20.745-0.273-31.116-0.194c-0.201,0.001-0.449,0.067-0.699,0.167c0.332-7.258,8.775-10.988,15.366-11.55
	c0.263,0.042,0.568,0.022,0.869-0.054c0.146-0.006,0.293-0.014,0.437-0.017c0.531-0.012,1.191-0.385,1.587-0.79
	c4.337,0.415,8.667,0.254,13.011-0.011c-0.017,0.09-0.022,0.182-0.004,0.278C129.317,515.753,130.043,520,129.097,523.977z
	 M152.503,509c-0.532-12.699-1.264-25.393-2.112-38.075c-1.281-19.136-2.203-38.775-6.205-57.579
	c-0.175-0.825-1.242-0.902-2.036-0.541c-0.815-0.15-2.127,0.289-2.29,1.052c-3.982,18.712-4.892,38.249-6.182,57.289
	c-0.863,12.736-1.587,25.487-2.121,38.243c-5.656,0.372-11.278,0.717-16.923-0.057c-1.976-15.765-4.058-31.768-4.151-47.654
	c0-0.03-0.002-0.06-0.002-0.089c0-0.011-0.004-0.02-0.004-0.031c1.188,0,2.376,0,3.564,0c5.305,0,10.609,0,15.914,0
	c0.229,0,0.708-0.157,1.17-0.358c0,0.04,0,0.081,0,0.121c0,0.55,2.897,0.108,2.897-0.776c0-13.251,0-26.501,0-39.752
	c0-0.453-1.961-0.232-2.655,0.353c-4.734-0.03-9.459-0.323-14.193-0.381c0.037-0.056,0.066-0.113,0.083-0.173
	c0.867-2.933,0.432-7.127-1.479-9.842c-0.094-0.134-0.191-0.266-0.292-0.392c-0.866-1.077-1.992-1.866-3.4-2.165
	c-0.145-0.803-0.366-1.606-0.657-2.396c6.128-0.162,10.97-3.131,13.38-8.868c0.312-0.165,0.537-0.372,0.562-0.602
	c0.158-1.466,0.315-2.932,0.473-4.397c3.636,0,7.273,0,10.909,0c0.319,0.39,1.24,0.283,1.955,0c3.816,0,7.633,0,11.449,0
	c0.011,1.176,0.031,2.352,0.036,3.528c-0.057,0.115-0.1,0.238-0.109,0.374c-0.53,7.842,8.733,13.86,15.697,14.541
	c0.615,0.06,1.214-0.274,1.576-0.702c0.52-0.614,0.546-1.419-0.607-1.532c-5.675-0.555-13.53-5.397-13.71-11.742
	c0.039-0.08,0.066-0.162,0.066-0.25c-0.002-1.592-0.034-3.183-0.048-4.775c-0.236-26.528-1.939-53.02-2.265-79.545
	c0.01-0.148,0.006-0.311-0.005-0.475c-0.026-2.245-0.064-4.489-0.068-6.734c0-0.463,0-0.927,0-1.391
	c5.073,3.071,10.063,6.287,15.585,8.517c7.195,2.906,12.704,4.91,14.196,13.337c1.442,8.143,0.836,17.302,1.011,25.624
	c0.199,9.493,0.39,18.986,0.679,28.477c0.121,3.972,0.262,7.944,0.479,11.913c0.071,1.304-0.087,3.307,0.271,4.817
	c-4.19,0-8.381,0-12.572,0c-1.413-10.171-1.018-20.697-0.968-30.933c0.061-12.27,0.385-24.538,0.399-36.808
	c0.001-0.86-2.896-0.323-2.897,0.776c-0.014,11.806-0.304,23.61-0.391,35.416c-0.068,9.318-0.409,18.886,0.482,28.225
	c0.134,1.411,0.295,2.817,0.491,4.216c-0.387,0.471-0.374,0.952,0.628,0.952c0.08,0,0.16,0,0.24,0
	c-0.242,3.912-0.047,7.821,0.023,11.738c0.003,0.17,0.012,0.335,0.019,0.501c0.087,2.182,0.509,4.057,2.08,5.744
	c1.222,1.313,2.574,1.681,3.883,1.472c-0.437,0.19-0.769,0.46-0.77,0.789c-0.092,30.542-3.229,61.272-5.346,91.731
	c0,0.005-0.001,0.01-0.001,0.016c-2.488,0.022-4.976,0.078-7.457,0.028C158.012,509.717,155.249,509.524,152.503,509z
	 M153.799,524.188c0-0.014,0.005-0.027,0.001-0.04c-1.224-4.189-0.448-8.768,0.369-12.971c4.352,0.475,8.728,0.372,13.121,0.339
	c-0.427,0.238-0.591,0.453,0.015,0.466c6.959,0.151,17.222,3.928,18.112,11.836C174.872,523.697,164.265,522.391,153.799,524.188z
	 M401.852,255.76c0,0.696-0.115,1.301-0.418,1.936c-0.313,0.654-1.216,0.949-1.89,0.875c-0.6-0.065-1.182-0.526-0.872-1.174
	c0.224-0.468,0.248-0.863,0.249-1.398c0-0.706,1.052-1.103,1.603-1.148C401.148,254.799,401.853,255.042,401.852,255.76z
	 M264.588,269.333c0.091-0.676,0.986-1.144,1.604-1.144c1.333,0,2.667,0,4,0c0.539,0,1.428,0.151,1.327,0.902
	c-0.091,0.676-0.986,1.144-1.604,1.144c-1.333,0-2.667,0-4,0C265.375,270.235,264.487,270.084,264.588,269.333z M251.271,281.267
	c-0.161-0.599,0.872-0.968,1.262-1.085c1.531-0.459,3.233-0.232,4.201,1.137c0.658,0.931-2.148,1.893-2.695,1.119
	c-0.23-0.325-0.501-0.664-0.882-0.818c-0.034-0.014-0.155-0.038-0.222-0.054c-0.013,0.004-0.013,0.004-0.029,0.009
	C252.517,281.693,251.427,281.851,251.271,281.267z M269.774,277.054c-0.308,0.67-1.196,0.981-1.885,0.894
	c-0.619-0.079-1.194-0.583-0.89-1.244c0.251-0.547,0.251-1.126,0.252-1.72c0.001-0.723,1.014-1.142,1.593-1.184
	c0.648-0.047,1.346,0.242,1.345,0.973C270.188,275.57,270.111,276.32,269.774,277.054z M272.181,285.083
	c1.16,0.658,2.359,1.019,3.584,0.352c0.531-0.289,1.53-0.371,1.953,0.16c0.461,0.578-0.261,1.15-0.711,1.395
	c-2.286,1.244-4.877,0.937-7.082-0.315c-0.628-0.356-0.258-1.075,0.185-1.388C270.685,284.881,271.548,284.724,272.181,285.083z
	 M276.59,269.675c0.098-0.664,1.004-1.122,1.61-1.122c1.222,0,2.444,0,3.667,0c0.517,0,1.425,0.121,1.316,0.863
	c-0.098,0.664-1.004,1.122-1.61,1.122c-1.222,0-2.444,0-3.667,0C277.39,270.538,276.481,270.417,276.59,269.675z M282.168,273.824
	c0,0.889,0,1.777,0,2.667c0,0.898-2.897,1.345-2.897,0.776c0-0.889,0-1.778,0-2.667
	C279.271,273.703,282.168,273.255,282.168,273.824z" fill="#0a1230"></path>
</svg>