<?xml version="1.0" standalone="no"?>
<svg version="1.1" id="Layer_1" xmlns="http://www.w3.org/2000/svg" xmlns:xlink="http://www.w3.org/1999/xlink" x="0px" y="0px" width="595.28px" height="595.28px" viewBox="0 0 595.28 595.28" enable-background="new 0 0 595.28 595.28" xml:space="preserve">
<path id="color_x5F_2" fill="#6c63ff" d="M468.144,147.946c-17.945-12.134-40.078-10.275-59.197-1.934
	c-0.263,0.114-0.532,0.161-0.786,0.156c-16.773,11.42-27.451,30-21.355,50.391c0.135,0.45,0.265,0.9,0.416,1.352
	c0.076,0.227,0.164,0.45,0.244,0.676c8.087,23.076,33.629,41.376,58.557,35.304c12.104-2.948,23.869-10.188,31.873-20.133
	c2.518-3.416,4.774-7.072,6.553-10.617c1.917-4.292,3.158-8.886,3.548-13.701C489.305,173.257,481.643,157.074,468.144,147.946z
	 M452.406,222.803c-20.525,8.955-44.906-0.3-54.925-20.364c-0.948-1.9-1.716-3.795-2.322-5.68c-0.033-0.104-0.062-0.207-0.094-0.31
	c-5.373-17.202,3.102-33.432,18.642-43.441c0.369-0.237,1.017-0.321,1.536-0.265c11.919-4.888,25.478-7.209,37.959-3.046
	c14.42,4.81,25.938,17.731,26.741,33.305C480.874,201.063,468.41,215.82,452.406,222.803z M384.273,199.345
	c0,0-0.023-0.3-0.063-0.827c0.08,0.262,0.162,0.522,0.247,0.783L384.273,199.345z M404.521,208.131
	c0.044,0.054,0.088,0.108,0.131,0.162c-0.024-0.031-0.052-0.06-0.076-0.091C404.558,208.179,404.541,208.154,404.521,208.131z
	 M423.131,222.289c4.31,1.21,7.76,2.046,10.592,2.546C430.074,224.547,426.518,223.656,423.131,222.289z M140.777,379.875
	c5.314,0,10.629,0,15.943,0c0,21.125,0,42.249,0,63.373h-15.963c0.008-0.043,0.02-0.086,0.02-0.131
	C140.777,422.037,140.777,400.956,140.777,379.875z M114.113,395.869c5.312,0,10.623,0,15.935,0c0,15.678,0,31.356,0,47.035
	c-5.312,0-10.623,0-15.935,0C114.113,427.226,114.113,411.547,114.113,395.869z M87.417,421.658c5.317,0,10.634,0,15.951,0
	c0,7.101,0,14.203,0,21.304c-5.322,0-10.645,0-15.968,0c0.006-0.034,0.017-0.066,0.017-0.102
	C87.417,435.793,87.417,428.726,87.417,421.658z M85.968,419.288h18.855v0.355c-6.178,0-12.355,0-18.533,0
	c-0.113,0-0.22,0.012-0.322,0.03V419.288z M415.937,432.338c0.382,0.382,0.738,0.783,1.182,1.044
	c-0.788,0.008-1.577,0.023-2.365,0.025c-1.273,0.004-1.944,1.254-1.19,1.773c-0.041,0.089-0.071,0.182-0.071,0.28
	c0,1.894,0,3.787,0,5.681c-0.2,0.247-0.29,0.536-0.229,0.791c-0.06,0.283,0.03,0.562,0.301,0.748
	c-0.041,0.089-0.071,0.182-0.071,0.28c0,1.709,0,3.419,0,5.128c-6.858,0.053-13.713,0.295-20.572,0.318
	c-1.273,0.004-1.944,1.254-1.19,1.773c-0.041,0.089-0.071,0.182-0.071,0.28c0,1.894,0,3.787,0,5.681
	c-0.071,0.088-0.13,0.18-0.171,0.275l-23.546,0.156l-17.917-0.333h-17.75l-12-0.833h-13l-8.672,0.29
	c0.116-0.118,0.169-0.236,0.121-0.344c-3.948-8.846-0.727-19.234-5.975-27.552c3.073,0.896,6.056,1.953,9.263,2.554
	c18.238,3.421,36.77,5.823,55.32,6.501c19.427,0.71,40.676-0.851,57.444-11.695c0.102-0.065,0.194-0.135,0.295-0.201
	c0.271,1.798,0.634,3.577,1.117,5.335c0.053,0.192,0.168,0.524,0.293,0.885C415.893,431.474,415.528,431.93,415.937,432.338z
	 M290.55,398.525l-4.811-1.484c-1.299-0.554-2.486-1.224-3.593-1.979c11.645-6.172,19.243-19.111,21.765-31.729
	c2.683-13.422-4.874-25.948-14.843-34.373c-11.904-10.059-27.955-14.414-43.936-14.423l0.018-0.069
	c0.531-0.104,1.023-0.393,1.178-0.853c1.931-5.726,5.197-10,9.198-13.532c0.88-0.197,1.808-0.811,1.541-1.289
	c4.939-3.968,10.799-7.021,16.61-10.307c9.33-5.274,16.692-11.882,20.469-21.667c1.597,4.985,2,11.436,2.444,15.48
	c-0.011,0.049-0.022,0.097-0.021,0.148c0.277,10.938,10.535,8.306,17.141,4.217c8.428-5.215,18.125-15.19,19.77-25.634
	c5.202,3.511,11.061,5.707,17.104,7.505c6.556,2.584,13.548,4.234,20.25,6.31c4.06,1.257,5.75,1.825,8.987,4.157
	c2.795,2.015,5.591,4.029,8.386,6.044c0.285,0.3,0.574,0.595,0.853,0.91c15.515,17.552,16.021,43.922,26.729,64.118
	c-0.514,7.722-9.379,13.561-15.458,16.843c-9.228,4.981-20.641,6.896-30.178,1.936c0.71-0.22,1.349-0.588,1.236-0.839
	c-6.991-15.588-12.487-32.74-12-50c0.013-0.445-2.874-0.066-2.898,0.776c-0.479,17.028,4.866,33.949,11.723,49.368
	c-1.114,0.133-2.44,1.094-1.403,1.7c1.086,0.635,2.195,1.166,3.317,1.633c-0.287,0.24-0.411,0.525-0.202,0.802
	c3.122,4.127,3.059,9.673,3.982,14.623c-11.492,1.037-22.766,4.302-34.015,7.312c-9.669,2.587-19.419,4.709-29.454,5.049
	C303.976,399.501,296.985,399.937,290.55,398.525z"></path>
<path id="color_x5F_1" d="M246.603,233.111c0.954,1.046-1.801,2.196-2.658,1.256c-1.043-1.144-0.972-2.873-2-4
	c-0.954-1.046,1.801-2.196,2.658-1.256C245.646,230.255,245.575,231.984,246.603,233.111z M266.603,216.717
	c-0.857-0.94-3.612,0.21-2.658,1.256c1.028,1.127,0.957,2.856,2,4c0.857,0.94,3.612-0.21,2.658-1.256
	C267.575,219.59,267.646,217.861,266.603,216.717z M265.484,240.986c-10.03,1.465-11.301-11.831-13.762-18.635
	c-0.347-0.961-3.217-0.107-2.897,0.776c3.048,8.428,4.368,21.1,16.238,19.365C266.412,242.295,267.497,240.692,265.484,240.986z
	 M255.724,209.565c0.794-2.904,2.555-4.717,5.667-4.019c0.678,0.152,1.537-0.081,2.049-0.549c0.457-0.418,0.316-0.929-0.285-1.064
	c-4.737-1.063-9.037,1.244-10.333,5.981C252.525,211.002,255.447,210.576,255.724,209.565z M281.825,236.127
	c-0.059,3.126-1.438,6.249-4.679,7.135c-0.26,0.071-1.445,0.4-1.321,0.865c0.124,0.462,1.316,0.16,1.577,0.088
	c4.421-1.209,7.233-4.168,7.321-8.865C284.731,234.848,281.841,235.256,281.825,236.127z M181.158,346.127c0,2,0,4,0,6
	c0,0.427,2.897,0.023,2.897-0.776c0-2,0-4,0-6C184.055,344.923,181.158,345.327,181.158,346.127z M227.924,324.32
	c3.687-3.225,12.159-2.954,16.698-3.185c5.729-0.292,12.108-0.237,17.467,2.059c0.662,0.284,3.302-0.77,2.368-1.17
	c-7.111-3.047-15.888-2.488-23.408-1.791c-4.833,0.448-11.884,0.866-15.761,4.257C224.618,325.078,227.38,324.796,227.924,324.32z
	 M93.191,219.233c-7.494-10.304-14.979-21.765-13.459-35.155c2.119-18.665,15.512-33.621,32.465-38.66
	c0.14-0.257,0.463-0.511,1.037-0.659c25.716-6.654,55.977,12.457,57.451,40.069c0.665,12.445-5.693,22.711-13.011,32.173
	c-8.27,10.692-14.236,20.857-12.352,34.901c0.022,0.167-0.036,0.322-0.14,0.465c0.29-0.032,0.581-0.031,0.853,0.043
	c2.048,0.559,5.248,1.896,5.273,4.49c0.023,2.405-1.817,4.005-3.708,5.195c1.523,0.813,2.589,2.156,2.079,4.146
	c-0.708,2.761-2.979,4.776-5.333,6.209c-0.348,0.468-1.145,0.957-1.763,0.957c-0.355,0-0.709,0-1.064,0
	c-0.001,0.004-0.001,0.008-0.003,0.013c-5.239,13.938-29.053,15.069-33.379-0.013c-2.495,0-4.989,0-7.484,0
	c-0.866,0-0.986-0.351-0.749-0.743c-1.731-1.236-3.537-3.168-2.81-5.369c0.532-1.61,1.735-2.692,3.158-3.454
	c-1.85-1.199-4.103-3.385-3.039-5.777c1-2.249,3.386-3.326,5.64-3.985c0.366-0.228,0.795-0.394,1.144-0.395
	c0.374-0.001,0.748-0.007,1.122-0.009C106.535,240.299,100.905,229.841,93.191,219.233z M138.609,273.407
	c-9.112,0-18.225,0-27.337,0C115.479,285.178,133.933,284.958,138.609,273.407z M144.236,253.829
	c-0.394,0.412-1.125,0.811-1.667,0.812c-8.007,0.019-16.01,0.277-24.013,0.485c-0.591,0.363-1.482,0.419-1.985,0.049
	c-4.561,0.113-9.123,0.204-13.687,0.215c-0.032,0-0.054-0.004-0.084-0.005c-1.571,0.601-3.246,1.784-2.882,3.658
	c0.334,1.719,1.626,2.842,3.039,3.735c0.087-0.025,0.175-0.055,0.262-0.079c1.756-0.479,2.194,1.166,0.44,1.645
	c-1.571,0.428-3.742,1.31-3.761,3.271c-0.018,1.818,1.522,3.102,2.945,3.992c2.009,0,4.018,0,6.026,0
	c0.546-0.229,1.208-0.26,1.628,0c10.92,0,21.841,0,32.761,0c3.133-2.569,5.886-7.467,0.407-9.039
	c-0.738-0.212,1.407-1.129,2.229-1.108c1.43-0.958,3.017-2.576,2.409-4.416C147.702,255.225,145.962,254.361,144.236,253.829z
	 M119.138,253.435c4.519-0.117,9.037-0.249,13.556-0.349c0.05-11.122,0.706-22.23,0.746-33.353c0-0.123,0.048-0.238,0.129-0.344
	c0.144-0.458,0.723-0.931,1.487-0.959c2.86-0.106,5.389-2.456,4.607-5.53c-0.977-3.841-4.511-2.199-6.844-0.513
	c-0.516,0.373-2.507,0.787-2.383-0.38c0.198-1.865-0.015-5.221-2.429-5.716c-2.834-0.581-4.484,3.776-5.141,5.789
	c-0.28,0.86-2.145,1.627-2.794,0.749c-2.146-2.9-7.535-6.38-8.962-0.789c-1.014,3.972,2.014,5.981,5.338,6.761
	c0.701-0.8,2.624-0.842,2.683,0.393c1.082,0.15,0.724,0.914,0.007,1.406C119.138,231.545,119.138,242.489,119.138,253.435z
	 M84.223,197.604c3.391,10.353,10.515,18.257,16.349,27.229c5.813,8.938,8.633,18.183,7.365,28.819
	c2.753-0.031,5.506-0.083,8.258-0.148c0-10.885,0-21.77,0-32.655c-2.87-0.369-5.788-1.313-7.406-3.85
	c-1.254-1.966-1.034-4.786,0.33-6.648c3.306-4.514,8.362-3.768,11.914-0.587c1.489-2.95,3.935-5.668,7.467-5.392
	c3.269,0.256,4.708,2.72,4.889,5.566c3.49-1.632,8.387-2.527,9.172,2.187c0.705,4.225-2.458,7.173-6.235,7.942
	c-0.078,10.865-0.701,21.718-0.738,32.584c0,0.138-0.064,0.265-0.165,0.381c2.383-0.044,4.767-0.076,7.151-0.088
	c-0.08-0.069-0.135-0.155-0.15-0.266c-1.487-11.082,1.521-20.779,8.03-29.742c6.449-8.88,14.343-17.25,16.573-28.384
	c5.462-27.283-21.654-52.174-48.002-49.354c-0.238,0.031-0.477,0.06-0.715,0.095c-0.306,0.038-0.611,0.088-0.917,0.134
	C94.524,149.369,76.489,173.988,84.223,197.604z M382.938,193.314c-3.813-20.928,7.738-38.379,24.912-49.372
	c0.426-0.272,1.047-0.315,1.557-0.207c15.764-6.54,33.971-9.417,50.259-3.002c12.937,5.094,23.784,15.182,28.565,28.41
	c5.22,14.445,3.037,30.563-6.094,42.982c-12.952,17.617-36.912,29.121-58.66,23.218c-17.524-4.757-33.328-18.531-39.019-36.042
	c-0.085-0.26-0.167-0.521-0.247-0.783C383.69,196.815,383.26,195.081,382.938,193.314z M484.447,203.141
	c1.917-4.292,3.158-8.886,3.548-13.701c1.31-16.183-6.353-32.365-19.852-41.493c-17.945-12.134-40.078-10.275-59.197-1.934
	c-0.263,0.114-0.532,0.161-0.786,0.156c-16.773,11.42-27.451,30-21.355,50.391c0.135,0.45,0.265,0.9,0.416,1.352
	c0.076,0.227,0.164,0.45,0.244,0.676c8.087,23.076,33.629,41.376,58.557,35.304c12.104-2.948,23.869-10.188,31.873-20.133
	C480.524,210.491,482.752,206.936,484.447,203.141z M479.943,183.001c0.931,18.061-11.533,32.819-27.537,39.801
	c-20.525,8.955-44.906-0.3-54.925-20.364c-0.948-1.9-1.716-3.795-2.322-5.68c-0.033-0.104-0.062-0.207-0.094-0.31
	c-5.373-17.202,3.102-33.432,18.642-43.441c0.369-0.237,1.017-0.321,1.536-0.265c11.919-4.888,25.478-7.209,37.959-3.046
	C467.622,154.507,479.141,167.428,479.943,183.001z M433.723,224.835c1.416,0.112,2.844,0.149,4.282,0.071
	c12.977-0.703,26.448-8.829,33.409-19.903c8.512-13.542,7.238-31.424-3.783-43.259c-13.981-15.013-35.033-14.945-52.838-7.219
	c-0.196,0.085-0.403,0.133-0.605,0.156c-9.117,6.218-16.818,15.22-17.895,26.612c-0.906,9.604,2.244,19.296,8.229,26.837
	c0.02,0.023,0.036,0.048,0.055,0.071c0.024,0.031,0.052,0.06,0.076,0.091c4.809,6,11.249,11.075,18.479,13.996
	C426.518,223.656,430.074,224.547,433.723,224.835z M436.887,194.609c-2.16,0.062-4.727-0.995-5.161-3.396
	c-0.359-1.983,0.822-3.352,2.381-4.215c-0.192-0.185-0.202-0.425-0.09-0.666c-3.88-7.296-7.403-14.775-11.327-22.048
	c-0.703-1.303,2.071-2.342,2.658-1.254c4.017,7.444,7.61,15.106,11.598,22.565c2.161,0.613,4.362,2.105,4.575,4.495
	c0.107,1.199-0.294,2.21-0.996,2.971c0.402-0.072,0.761-0.062,0.937,0.097c4.196,3.792,8.393,7.583,12.588,11.374
	c0.473,0.427-2.142,1.527-2.727,0.998c-4.174-3.771-8.348-7.542-12.52-11.313C438.208,194.454,437.557,194.59,436.887,194.609z
	 M437.196,192.687c1.354-0.121,1.701-1.336,1.264-2.535c-0.343-0.938-0.996-1.684-1.813-2.189c-1.261,0.371-2.478,1.167-1.97,2.688
	C435.015,191.655,436.027,192.791,437.196,192.687z M159.589,379.005c0.019,0.059,0.03,0.124,0.03,0.195c0,21.29,0,42.58,0,63.87
	c0,0.21-0.143,0.402-0.358,0.564c0.681,0.572,0.051,1.823-1.222,1.823c-6.285,0-12.57,0-18.855,0c-1.242,0-1.468-0.839-1.05-1.458
	c-0.173-0.142-0.281-0.345-0.281-0.62c0-21.29,0-42.58,0-63.87c0-0.833,1.418-1.329,2.279-1.068c6.271,0,12.541,0,18.811,0
	C159.775,378.442,159.849,378.705,159.589,379.005z M140.735,443.353c5.329,0,10.657,0,15.985,0c0-0.035,0-0.069,0-0.104
	c0-21.125,0-42.249,0-63.373c-5.314,0-10.629,0-15.943,0c0,21.081,0,42.161,0,63.242c0,0.045-0.012,0.088-0.02,0.131
	C140.75,443.283,140.746,443.319,140.735,443.353z M132.945,394.968c0,15.964,0,31.929,0,47.893c0,0.095-0.042,0.184-0.113,0.267
	c0.318,0.454-1.047,1.446-1.896,1.446c-6.285,0-12.57,0-18.854,0c-0.838,0-0.953-0.306-0.727-0.655
	c-0.112-0.15-0.184-0.336-0.184-0.572c0-15.974,0-31.947,0-47.921c0-1.054,1.75-1.529,2.549-0.97c6.184,0,12.367,0,18.551,0
	C133.063,394.456,133.162,394.69,132.945,394.968z M114.113,442.904c5.312,0,10.623,0,15.935,0c0-15.678,0-31.356,0-47.035
	c-5.312,0-10.623,0-15.935,0C114.113,411.547,114.113,427.226,114.113,442.904z M106.279,420.848c0,7.415,0,14.831,0,22.246
	c0,0.127-0.043,0.247-0.115,0.357c-0.001,0.002-0.001,0.004-0.002,0.005c-0.004,0.008-0.012,0.017-0.017,0.025
	c-0.25,0.452-1.271,1.034-1.898,1.034c-6.285,0-12.57,0-18.855,0c-0.826,0-0.927-0.277-0.697-0.598
	c-0.107-0.066-0.176-0.157-0.176-0.281c0-7.507,0-15.014,0-22.521c0-0.226,0.129-0.425,0.328-0.595
	c0.148-0.387,0.551-0.746,1.121-0.847c0.103-0.019,0.209-0.03,0.322-0.03c6.178,0,12.355,0,18.533,0c0.107,0,0.215,0,0.322,0
	C106.26,419.644,106.539,420.288,106.279,420.848z M103.367,421.658c-5.317,0-10.634,0-15.951,0c0,7.067,0,14.135,0,21.202
	c0,0.035-0.011,0.068-0.017,0.102c5.323,0,10.646,0,15.968,0C103.367,435.861,103.367,428.759,103.367,421.658z M112.366,375.384
	c-0.71,0.383-1.522,0.603-2.333,0.659c-4.664,8.844-9.328,17.687-13.991,26.53c-0.003,0.011,0.001,0.018-0.002,0.028
	c-0.033,0.102-0.097,0.19-0.172,0.273c1.964,0.718,3.745,2.753,3.098,4.982c-0.655,2.258-3.488,3.175-5.622,2.799
	c-2.247-0.396-4.874-1.753-4.03-4.497c0.598-1.946,2.296-3.2,4.186-3.755c4.689-8.893,9.379-17.786,14.069-26.679
	c-1.913-0.598-3.664-1.922-2.954-4.232c0.736-2.396,3.135-3.762,5.513-4.04c0.272-0.032,1.408-0.114,1.214,0.482
	c-0.033,0.101-0.097,0.189-0.172,0.272c1.964,0.719,3.745,2.754,3.098,4.983c-0.093,0.32-0.238,0.605-0.41,0.871
	c0.435-0.08,0.834-0.065,1.041,0.112c2.007,1.724,3.885,3.574,5.867,5.322c0.82-0.42,1.729-0.688,2.638-0.794
	c0.272-0.032,1.408-0.114,1.214,0.481c-0.033,0.102-0.097,0.19-0.172,0.273c0.001,0,0.001,0,0.002,0
	c6.059-6.059,12.117-12.118,18.177-18.177c-0.043-0.396-0.007-0.829,0.14-1.306c0.736-2.396,3.135-3.762,5.513-4.04
	c0.272-0.032,1.408-0.114,1.214,0.482c-0.033,0.101-0.097,0.189-0.172,0.272c1.964,0.719,3.745,2.754,3.098,4.983
	c-0.655,2.258-3.488,3.175-5.622,2.799c-1.14-0.201-2.375-0.651-3.208-1.401c-5.806,5.806-11.611,11.611-17.417,17.417
	c1.117,0.985,1.818,2.423,1.374,3.953c-0.655,2.258-3.488,3.175-5.622,2.799c-2.247-0.396-4.874-1.753-4.03-4.497
	c0.186-0.604,0.478-1.142,0.848-1.614c-0.029-0.016-0.061-0.03-0.084-0.05C116.504,379.231,114.506,377.237,112.366,375.384z
	 M145.55,360.015c-0.02,0.205-0.014,0.397,0.008,0.582c0.08,0.08,0.114,0.182,0.072,0.312c0.299,1.161,1.408,1.87,2.661,2.091
	c0.621,0.11,0.749,0.27,1.022-0.317c0.252-0.541,0.374-1.124,0.262-1.72c-0.281-1.494-1.269-2.537-2.695-3.024
	c-0.081-0.028-0.142-0.061-0.187-0.098C146.054,358.375,145.624,359.228,145.55,360.015z M124.701,383.73
	c-0.281-1.494-1.269-2.537-2.695-3.024c-0.082-0.028-0.142-0.061-0.187-0.099c-0.639,0.535-1.069,1.387-1.143,2.175
	c-0.161,1.704,1.19,2.712,2.74,2.985c0.621,0.109,0.749,0.269,1.022-0.318C124.692,384.909,124.813,384.326,124.701,383.73z
	 M93.43,404.124c-0.082-0.028-0.142-0.061-0.187-0.099c-0.639,0.535-1.069,1.387-1.143,2.175c-0.161,1.704,1.19,2.712,2.74,2.985
	c0.621,0.109,0.749,0.269,1.022-0.318c0.252-0.541,0.374-1.124,0.262-1.72C95.844,405.654,94.856,404.611,93.43,404.124z
	 M111.426,372.481c-0.281-1.494-1.269-2.537-2.695-3.024c-0.081-0.028-0.142-0.061-0.187-0.098
	c-0.639,0.534-1.069,1.387-1.143,2.174c-0.129,1.365,0.718,2.275,1.855,2.727c0.859-0.188,1.79-0.14,1.606,0.209
	c-0.026,0.051-0.053,0.101-0.08,0.151c0.145-0.02,0.245-0.126,0.382-0.42C111.417,373.66,111.538,373.077,111.426,372.481z
	 M476.525,423.635c-1.549,3.877-7.187,6.683-12.351,6.951c-0.146,4.098-0.039,8.187,0.882,12.099c0.2,0.851-2.706,1.593-2.898,0.776
	c-0.984-4.182-1.062-8.602-0.875-13.016c-3.185-0.506-5.78-2.243-6.459-5.651c-0.287-1.443,2.615-2.198,2.898-0.776
	c0.43,2.158,1.863,3.364,3.691,3.908c0.157-2.613,0.362-5.208,0.484-7.732c0.1-2.069,0.229-4.137,0.364-6.205
	c-0.751-0.234-1.508-0.485-2.272-0.794c-9.251-3.737-3.6-12.191,3.141-14.908c0.058-2.163,0.078-4.326,0.027-6.493
	c-0.022-0.967,2.882-1.474,2.898-0.776c0.051,2.167,0.024,4.33-0.039,6.49c3.057-0.399,5.938,0.67,7.372,4.177
	c0.541,1.325-2.341,2.14-2.898,0.776c-0.798-1.952-2.593-2.649-4.565-2.529c-0.179,4.078-0.475,8.148-0.738,12.224
	c0.48,0.122,0.957,0.245,1.418,0.381C470.702,413.742,478.744,418.082,476.525,423.635z M462.434,411.396
	c0.24-3.585,0.473-7.169,0.616-10.758c-2.532,1.065-4.72,3.173-4.807,5.467C458.122,409.322,460.045,410.599,462.434,411.396z
	 M470.564,417.346c-1.8-1.273-3.647-1.943-5.539-2.522c-0.089,1.53-0.171,3.061-0.229,4.594c-0.11,2.899-0.354,5.875-0.517,8.862
	c3.033-0.079,6.324-1.332,8.06-2.979C475.211,422.572,473.346,419.312,470.564,417.346z M514.999,448.585
	c-0.002,0.042-0.007,0.084-0.016,0.126c0.017,0.069,0.02,0.141,0.015,0.213c0.258,0.123,0.43,0.336,0.43,0.662
	c0,1.817-0.004,3.636,0.325,5.43c0.082,0.446-0.27,0.826-0.754,1.068c-0.029,0.543-0.622,1.148-1.507,1.151
	c-7.335,0.024-14.665,0.309-22,0.333c-1.283,0.004-1.45-0.837-0.971-1.429c0-1.343,0-2.686,0-4.029
	c-9.643,5.796-21.456,5.927-32.563,5.316c-0.314-0.017-0.416-0.085-0.389-0.179c-6.934,0.049-13.862,0.297-20.796,0.32
	c-0.507,0.002-0.838-0.13-1.026-0.325c-7.097,0.039-14.189,0.302-21.286,0.325c-0.503,0.002-0.833-0.128-1.022-0.32
	c-6.938,0.048-13.873,0.297-20.812,0.32c-1.093,0.003-1.376-0.607-1.142-1.154c0.041-0.095,0.1-0.187,0.171-0.275
	c0-1.894,0-3.787,0-5.681c0-0.099,0.03-0.191,0.071-0.28c-0.754-0.519-0.083-1.769,1.19-1.773
	c6.859-0.022,13.714-0.265,20.572-0.318c0-1.709,0-3.419,0-5.128c0-0.099,0.03-0.191,0.071-0.28
	c-0.271-0.186-0.36-0.464-0.301-0.748c-0.061-0.255,0.029-0.544,0.229-0.791c0-1.894,0-3.787,0-5.681c0-0.099,0.03-0.191,0.071-0.28
	c-0.754-0.519-0.083-1.769,1.19-1.773c0.788-0.002,1.577-0.017,2.365-0.025c-0.443-0.261-0.8-0.662-1.182-1.044
	c-0.408-0.408-0.044-0.864,0.544-1.16c-0.125-0.36-0.24-0.693-0.293-0.885c-0.483-1.759-0.846-3.538-1.117-5.335
	c-0.101,0.066-0.193,0.136-0.295,0.201c-16.769,10.844-38.018,12.406-57.444,11.695c-18.551-0.678-37.082-3.08-55.32-6.501
	c-3.207-0.602-6.189-1.659-9.263-2.554c5.248,8.318,2.026,18.706,5.975,27.552c0.048,0.107-0.005,0.226-0.121,0.344
	c-0.536,0.545-2.489,1.078-2.777,0.433c-4.142-9.281-0.213-20.458-6.912-28.876c-0.104-0.131-0.071-0.275,0.046-0.417
	c-8.243-1.735-16.831-3.064-25.292-3.323c-11.265,4.3-32.997,7.432-37.842-7.384c-0.1-0.307,0.401-0.641,1.015-0.854
	c-2.394-2.216-3.694-5.013-2.34-8.656c0.188-0.507,1.234-0.838,2.018-0.869c-0.029-0.026-0.061-0.052-0.089-0.079
	c-0.635-0.575-1.789-1.613-2.39-2.722c-1.126-0.104-2.23-0.27-3.34-0.452c-0.233,0.97-0.679,1.853-1.483,2.508
	c-2.436,1.985-5.77,2.222-8.791,1.853c-2.676-0.327-7.106-0.681-8.446-3.565c-0.741-1.595-0.596-3.451-0.396-5.265
	c-9.21-3.745-17.2-9.625-22.424-17.979c-0.216,0.118-0.467,0.202-0.745,0.226c-2.364,0.205-5.263-0.093-6.415-2.512
	c-0.876-1.841-0.639-3.962-0.096-5.918c-6.091,2.377-10.983-4.601-11.883-10.62c-1.203-8.056,3.213-13.629,10.957-13.014
	c0.053-0.211,0.103-0.422,0.167-0.63c0.002-0.007,0.009-0.014,0.011-0.021c-0.061-0.111-0.08-0.249-0.039-0.417
	c1.998-8.201,7.91-13.791,14.614-18.482c3.276-2.292,6.885-4.378,9.801-7.138c2.958-2.799,3.799-5.465,3.955-9.455
	c0.115-2.966,1.165-5.532,3.064-6.82c-1.003-0.523-1.833-1.231-2.434-2.177c-6.006,0.324-14.375-4.067-10.71-12.037
	c-0.1-0.438-0.187-0.875-0.25-1.305c-0.466-3.202,0.237-8.949,3.838-9.329c-0.203-0.99-0.282-1.989-0.199-2.965
	c0.245-2.863,2.25-3.917,4.37-3.469c-0.558-4.87,1.485-10.211,6.2-12.097c7.727-3.09,12.456,5.033,14.955,11.214
	c2.585-2.363,5.88-2.35,8.495,0.101c2.226,2.087,4.452,6.236,3.526,9.392c-0.029,0.101-0.075,0.191-0.109,0.289
	c0.332,0.005,0.631,0.085,0.824,0.275c2.94,2.897,2.632,7.771,1.009,11.54c0.193,0.063,0.32,0.171,0.326,0.339
	c0.129,3.931-1.523,8.594,0,12.333c1.076,2.64,2.017,5.049,3.639,7.421c0.048,0.071,0.07,0.142,0.079,0.212
	c2.987-0.3,6.005-0.449,9.025-0.447c15.981,0.009,32.032,4.365,43.936,14.423c9.969,8.424,17.526,20.951,14.843,34.373
	c-2.521,12.617-10.12,25.556-21.765,31.729c1.107,0.755,2.294,1.425,3.593,1.979c0.389,0.166,0.787,0.322,1.195,0.467
	c1.179,0.419,2.389,0.748,3.616,1.017c6.435,1.412,13.425,0.976,19.889,0.757c10.035-0.34,19.785-2.462,29.454-5.049
	c11.249-3.01,22.522-6.275,34.015-7.312c-0.924-4.95-0.86-10.496-3.982-14.623c-0.209-0.277-0.085-0.563,0.202-0.802
	c-1.122-0.468-2.231-0.999-3.317-1.633c-1.037-0.606,0.289-1.567,1.403-1.7c-6.856-15.419-12.202-32.34-11.723-49.368
	c0.024-0.843,2.911-1.222,2.898-0.776c-0.487,17.26,5.009,34.412,12,50c0.112,0.251-0.526,0.619-1.236,0.839
	c9.537,4.96,20.95,3.045,30.178-1.936c6.079-3.282,14.944-9.121,15.458-16.843c-10.709-20.196-11.215-46.566-26.729-64.118
	c-0.278-0.315-0.567-0.609-0.853-0.91c-2.795-2.015-5.591-4.029-8.386-6.044c-3.237-2.333-4.928-2.9-8.987-4.157
	c-6.702-2.076-13.694-3.726-20.25-6.31c-6.043-1.798-11.901-3.995-17.104-7.505c-1.645,10.443-11.342,20.419-19.77,25.634
	c-6.606,4.089-16.864,6.721-17.141-4.217c-0.001-0.051,0.01-0.099,0.021-0.148c-0.445-4.045-0.847-10.496-2.444-15.48
	c-3.777,9.785-11.139,16.393-20.469,21.667c-5.811,3.285-11.671,6.338-16.61,10.307c0.267,0.479-0.661,1.092-1.541,1.289
	c-4,3.531-7.267,7.806-9.198,13.532c-0.155,0.46-0.647,0.75-1.178,0.853c-0.911,0.178-1.94-0.192-1.598-1.207
	c1.95-5.784,5.265-10.289,9.383-14.054c-9.493-5.369-14.065-13.558-12.402-24.801c1.247-8.435,5.171-18.061,3.101-26.642
	c-0.288,0.053-0.58,0.039-0.833-0.079c-8.606-3.992-15.789-12.668-21.716-19.791c-6.655-7.997-15.04-17.854-17.292-28.339
	c-2.148-10.004,0.463-22.12,9.387-28.069c8.762-5.841,19.652-6.777,29.912-6.825c0.333-0.001,0.589,0.063,0.784,0.164
	c7.757-2.974,15.596-5.808,23.626-7.935c14.793-3.919,33.28-6.815,46.643,2.782c7.144,5.13,11.968,12.635,14.826,20.887
	c3.876,11.193,5.233,22.256,13.986,31.084c13.979,14.098,35.827,17.332,47.492,33.732c5.971,8.395,14.418,23.834,10.346,34.613
	l0.002,0.983l-0.724,0.602c-1.221,2.336-3.112,4.407-5.88,6.063c-0.043,0.026-0.094,0.052-0.143,0.077
	c12.986,17.955,14.157,42.031,24.547,61.373c0.011,0.021,0.015,0.042,0.024,0.063c0.079,0.121,0.122,0.271,0.113,0.453
	c-0.089,1.892-0.643,3.701-1.523,5.413c0.106,0.081,0.175,0.189,0.178,0.334c0.04,2.233,0.137,4.465,0.455,6.679
	c1.995,13.892,8.621,27.167,8.88,41.307c0.149,8.191-2.937,14.67-8.923,19.608c0.265,2.092,0.626,4.173,1.185,6.208
	c0.266,0.969,0.748,1.996,0.877,2.995c0.069,0.539-0.255,0.954-0.705,1.213c2.932-0.043,5.862-0.103,8.794-0.163
	c-0.289-0.099-0.48-0.295-0.462-0.619c0.731-13.016,0.362-26.32,7.085-38.012c4.445-7.731,11.049-12.663,18.964-16.398
	c-0.294-0.312-0.539-0.655-0.714-1.042c-0.083-0.183-0.072-0.357-0.007-0.517c-2.975-2.875-5.848-5.88-8.52-9.029
	c-2.355-2.778-8.126-8.501-7.157-12.724c0.435-1.895,1.157-2.969,2.033-3.434c0.042-0.217,0.185-0.455,0.465-0.703
	c2.468-2.177,5.428-2.48,8.621-2.425c4.829,0.083,8.639,0.556,13.044-1.837c4.477-2.432,13.067-7.004,16.961-1.032
	c0.824,1.264,1.428,2.347,1.479,3.913c0.131,4.013,2.962,5.381,6.65,5.698c3.278,0.281,5.978,1.189,7.75,4.159
	c2.728,4.565-5.834,9.143-7.148,12.723c-0.24,0.654-1.156,0.958-1.888,0.87c-1.409,2.015-3.149,3.988-4.021,5.807
	c0.005,0.004,0.01,0.009,0.015,0.014c3.36-0.258,6.406-0.929,9.766-2.471c3.738-1.715,7.21-3.035,11.253-1.67
	c1.721,0.581-0.521,2.271-1.693,1.875c-4.618-1.559-9.784,1.986-14.789,3.613c4.62,3.665,11.12,7.053,16.864,6.954
	c1.957-0.034-0.038,1.639-1.123,1.657c-5.28,0.091-10.96-2.307-15.63-5.421c12.767,13.392,21.749,31.287,17.532,50.085
	c3.5-0.073,7-0.145,10.502-0.157c0.892-0.003,1.242,0.404,1.215,0.851c0.258,0.123,0.43,0.336,0.43,0.662
	c0,1.817-0.004,3.636,0.325,5.43c0.082,0.446-0.27,0.826-0.754,1.068c-0.002,0.042-0.007,0.084-0.016,0.126
	c0.017,0.069,0.02,0.141,0.015,0.213c0.258,0.123,0.43,0.335,0.43,0.662c0,1.817-0.004,3.637,0.325,5.43
	C515.835,447.963,515.483,448.343,514.999,448.585z M512.779,447.751c-0.255-1.709-0.265-3.445-0.266-5.17
	c-6.365,0.04-12.729,0.244-19.094,0.302c0,1.725,0,3.449,0,5.173C499.874,448.004,506.325,447.793,512.779,447.751z M493.42,435.383
	c0,1.725,0,3.449,0,5.174c6.454-0.053,12.905-0.263,19.359-0.305c-0.255-1.709-0.265-3.445-0.266-5.171
	C506.148,435.121,499.785,435.326,493.42,435.383z M442.107,351.692c0.908,0.507,1.84,1.332,2.715,2.375
	c1.17,1.396,4.382,5.702,6.645,3.768c0.772-0.661,1.455-1.405,2.256-2.034c1.486-1.168,3.335-1.112,5.06-0.685
	c0.909,0.225,0.742,0.812,0.206,1.282c2.387,1.537,3.248,5.606,6.456,3.012c1.616-1.307,3.651-2.307,5.713-2.671
	c5.384-0.953,3.895,3.281,5.228,7c1.566,4.375,4.152,1.649,7.274,1.494c1.072-0.054,3.025,0.095,3.396,1.45
	c0.084,0.307,0.121,0.616,0.134,0.926c2.989-3.219,6.469-6.768,2.304-9.354c-3.701-2.299-12.396-0.012-12.624-6.724
	c-0.412-12.195-12.093-3.873-17.991-1.491C453.725,352.122,446.676,348.41,442.107,351.692z M456.602,376.442
	c0.301,0.285,0.264,0.589,0.045,0.854c2.393,1.477,8.162,1.26,10.062,1.339c3.71,0.154,7.418,0.154,11.129,0.111
	c0.159-0.002,0.31-0.009,0.467-0.012c0.816-1.817,2.099-3.43,3.22-5.057c0.539-0.782,5.162-8.648,0.6-6.842
	c-2.222,0.879-6.148,2.524-7.735-0.353c-1.304-2.364-0.925-4.715-1.723-7.158c-1.103-3.376-6,1.682-7.882,2.419
	c-5.161,2.022-4.953-2.782-8.681-4.371c-0.163-0.069-0.229-0.156-0.236-0.25c-1.364,0.503-2.585,2.167-3.865,2.781
	c-1.827,0.877-3.86,0.243-5.569-0.543c-2.048-0.941-3.412-3.099-4.854-4.728c-1.212-1.369-1.251-2.753-1.506-0.013
	c-0.072,0.773,0.088,1.526,0.384,2.244C443.571,364.407,450.765,370.917,456.602,376.442z M416.39,435.383c0,1.725,0,3.449,0,5.174
	c6.454-0.053,12.905-0.263,19.359-0.305c-0.255-1.709-0.265-3.445-0.265-5.171C429.118,435.121,422.755,435.326,416.39,435.383z
	 M416.39,442.883c0,1.725,0,3.449,0,5.173c6.454-0.052,12.905-0.263,19.359-0.305c-0.255-1.709-0.265-3.445-0.265-5.17
	C429.118,442.621,422.755,442.825,416.39,442.883z M330.798,259.295c-5.275-3.498-8.86-7.917-11.627-12.863
	c-1.59-2.049-2.589-4.323-3.886-6.827c-2.153-4.159-4.307-8.318-6.461-12.478c-0.032-0.062-0.032-0.132-0.019-0.205
	c-0.016-0.088,0.025-0.188,0.138-0.298c0.051-0.074,0.105-0.142,0.151-0.185c3.699-3.433,9.408-8.477,8.755-13.8
	c-0.114-0.721-0.318-1.44-0.633-2.153c-0.03-0.066-0.057-0.133-0.09-0.2c-0.288-0.573-0.655-1.147-1.126-1.722
	c-1.461-1.781-3.365-2.681-5.472-3.068c-3.982-0.313-8.678,1.676-12.473,2.753c-3.59,1.019-6.691,0.935-9.398,0.065l-0.161-0.001
	l-0.068-0.079c-0.173-0.06-0.348-0.116-0.518-0.182c-0.152,0.025-0.304,0.047-0.456,0.073c-0.344,0.059-0.928,0.013-1.164-0.296
	c-0.237-0.31-0.473-0.62-0.71-0.93c-4.756-2.88-8.102-8.36-10.728-14.057c-0.348-0.456-0.696-0.912-1.044-1.368
	c-9.722,7.984-26.122,12.34-36.466,4.114c-0.57,6.856,0.865,13.706-0.563,20.43c0.828-0.271,1.699-0.396,2.605-0.406
	c1.963-0.021,1.48,2.236-0.222,2.254c-0.67,0.007-1.715-0.039-2.184,0.477c-0.585,0.643-0.906,1.44-1.189,2.251
	c2.521,9.645,6.584,19.35,12.974,27.094c3.378,4.094,7.428,8.1,12.396,10.215c5.012,2.134,9.18,1.941,14.416,0.877
	c5.569-1.132,15.132-3.887,18.785,2.356c0.188,0.321,0.36,0.648,0.532,0.976c0.395,0.113,0.643,0.386,0.517,0.856
	c-0.011,0.041-0.025,0.079-0.036,0.12c2.933,6.25,3.284,13.538,4.349,20.263c0.026,0.169,0.006,0.328-0.05,0.475
	c1.63,9.214,12.376,2.59,17.414-1.899C323.441,276.265,330.35,268.238,330.798,259.295z M207.314,200.911l-0.59-3.568l-0.631-2.387
	C206.281,197.001,206.685,199.01,207.314,200.911z M240.639,243.531l-1.882-1.679l-1.08-0.52
	C238.639,242.119,239.627,242.854,240.639,243.531z M228.972,285.024c-1.092,1.199-2.638,1.919-4.406,1.96
	c-1.911,0.044-3.455-0.774-4.637-2.021c-1.217,1.928-3.564,2.953-5.603,1.507c-2.576-1.828-4.498-4.688-6.177-7.397
	c-4.259,3.689-7.317,9.157-5.25,14.905c2.071,5.759,7.62,9.709,13.884,9.134c5.845-0.537,11.342-3.912,12.944-9.86
	C230.464,290.518,230.721,287.352,228.972,285.024z M218.928,274.624c0.672,1.718,1.462,3.876,1.72,5.933
	c0.026,0.045,0.056,0.087,0.075,0.139c0.665,1.772,1.997,4.065,4.156,4.173c1.373,0.068,2.418-1.11,2.602-2.415
	c0.388-2.761-3.426-11.838-6.995-8.292C220.134,274.51,219.5,274.652,218.928,274.624z M195.987,275.835
	c-0.042,0.078-0.085,0.186-0.123,0.364c-0.248,1.177-0.165,2.384,0.123,3.548c0.659,2.671,1.977,5.162,4.132,6.857
	c1.148-3.615,3.71-6.745,6.963-9.266c-1.47-2.377-3.065-4.899-3.923-7.544c-0.438-1.35,2.454-2.145,2.897-0.776
	c0.83,2.557,2.235,5.172,3.83,7.628c0.23,0.124,0.365,0.301,0.336,0.52c1.131,1.697,2.342,3.31,3.511,4.753
	c1.164,1.437,3.597,4.865,3.861,1.276c0.206-2.786-0.718-5.631-1.724-8.198c-1.552-3.961-5.957-14.541-11.687-11.116
	c-5.048,3.018-5.415,10.653-1.919,14.877c0.967,1.17-1.78,2.344-2.648,1.295c-0.72-0.871-1.273-1.885-1.688-2.97
	c-0.168-0.035-0.322-0.099-0.445-0.204C197.05,276.512,196.545,276.053,195.987,275.835z M196.041,275.747
	C196.166,275.715,196.125,275.647,196.041,275.747L196.041,275.747z M192.21,289.809c0.617,2.771,2.908,8.537,6.633,6.269
	c0.207-0.126,0.884-0.282,1.478-0.356c-0.116-0.317-0.228-0.636-0.319-0.968c-0.551-2.002-0.658-3.913-0.422-5.724
	c-0.288,0.018-0.557-0.023-0.764-0.149c-2.422-1.48-4.433-4.104-5.412-6.974c-0.205,0.023-0.394,0.024-0.529-0.037
	c-0.021-0.01-0.036-0.018-0.056-0.027c-0.101,0.148-0.195,0.301-0.269,0.466c-0.302,0.679-0.505,1.388-0.594,2.128
	C191.742,286.219,191.82,288.055,192.21,289.809z M199.466,301.599c0.052-0.802,2.103-1.415,2.757-0.816
	c0.214-0.299,0.355-0.688,0.396-1.188c-0.834-0.96-1.529-2.046-2.048-3.256c-2.179,1.211-5.349,2.207-7.558,0.724
	c-0.53-0.356-0.987-0.792-1.396-1.273c0.519,1.972,1.968,3.66,4.155,4.69C196.658,300.896,198.119,301.446,199.466,301.599z
	 M203.127,302.39c0.715,0.945,1.728,1.547,2.964,1.972c0.038,0.013,0.058,0.032,0.088,0.048c0.874,0.091,1.825,0.344,2.861,0.813
	c3.445,1.561,8.847,8.88,9.052,13.468c4.742-1.512,9.754-2.637,14.891-3.334c-1.457-2.183-2.889-4.695-3.491-7.23
	c-0.756-3.184-0.282-6.227-0.074-9.36c-3.671,4.147-9.032,6.449-14.679,6.235c-3.625-0.138-7.343-1.349-10.197-3.581
	C204.16,301.818,203.678,302.137,203.127,302.39z M220.911,400.752c0.942,0.153,1.87,0.316,2.797,0.457
	c0.045-0.179,0.112-0.355,0.224-0.525c0.692-1.051,1.807-1.547,3.021-1.773c-1.178-0.85-1.985-1.851-1.909-3.016
	c0.276-4.215,8.552-5.045,11.476-4.977c9.01,0.211,17.655,3.412,26.638,3.755c-1.66-4.308-4.881-8.135-5.503-12.791
	c-0.388-2.901,0.954-6.741,4.673-6.098c4.67,0.807,8.064,5.799,10.614,9.378c2.422,3.4,4.903,6.616,8.076,9.079
	c10.92-6.166,18.611-19.518,20.232-31.678c1.639-12.291-4.742-23.992-14.011-31.824c-18.533-15.661-46.599-18.396-69.206-10.89
	c0,0.002,0,0.004,0,0.006c-0.198,1.021-2.529,1.476-2.884,0.662c-0.647-0.09-0.961-0.421,0.015-0.829
	c0.071-2.348-2.343-5.958-3.377-7.575c-0.777-1.214-1.565-2.488-2.58-3.524c-1.071-1.095-5.151-3.842-6.19-1.194
	c-1.729,4.41,0.174,9.009-3.284,12.93c-8.403,9.527-22.357,12.815-25.699,26.531c-0.009,0.035-0.027,0.067-0.04,0.101
	c0.019,0.037,0.027,0.078,0.012,0.127c-0.708,2.322-0.648,4.789-0.649,7.193c0,0.863-2.898,1.293-2.897,0.776
	c0-1.621-0.017-3.27,0.168-4.888c-7.022-1.06-8.935,5.523-7.481,11.439c0.9,3.664,4.357,11.486,9.163,7.843
	c0.446-0.338,1.152-0.398,1.68-0.262c0.821-0.149,1.609,0.03,1.378,0.67c-1.231,3.408-1.935,8.586,2.818,8.547
	c-0.369-0.658-0.724-1.329-1.059-2.016c-0.352-0.721,2.458-1.678,2.897-0.776c4.58,9.385,12.436,15.967,21.77,20.199
	c0.011-0.189,0.027-0.382,0.03-0.566c0.017-1.002,2.924-1.599,2.902-0.343c-0.076,4.416-1.572,8.678,4.148,9.816
	c2.185,0.435,7.349,1.695,8.621-1.079c0.736-1.605,0.533-3.455,0.331-5.153c-0.136-1.138,2.776-1.8,2.897-0.776
	C220.833,398.638,220.941,399.7,220.911,400.752z M301.261,428.22c16.151,3.134,32.546,5.455,48.97,6.482
	c20.186,1.263,43.986,1.612,61.689-9.836c0.988-0.639,1.98-1.33,2.948-2.071c0.138-0.404,0.599-0.72,1.117-0.887
	c2.957-2.455,5.532-5.441,6.737-9.08c1.978-5.974,1.128-12.626-0.158-18.676c-2.512-11.818-7.133-23.213-7.952-35.32
	c-4.119,4.834-10.497,8.58-15.249,10.704c-8.147,3.642-17.287,5.422-25.776,3.138c2.368,4.209,2.358,9.342,3.33,14.032
	c4.684-0.255,9.405-0.118,14.181,0.607c1.946,0.296,0.493,2.408-0.982,2.184c-17.646-2.681-34.411,2.868-51.287,7.239
	c-14.477,3.75-29.311,5.861-44.301,4.664c-5.277-0.421-10.475-1.711-14.852-4.827c-4.472-3.184-6.808-6.715-10.014-10.98
	c-1.768-2.352-3.674-5.083-6.186-6.694c-4.05-2.598-2.925,2.932-2.135,4.976c1.566,4.053,4.392,7.893,5.382,12.142
	c0.329,1.411-2.571,2.176-2.897,0.776c-0.024-0.101-0.055-0.2-0.082-0.3c-0.303,0.177-0.645,0.292-0.975,0.284
	c-7.101-0.164-13.983-2.271-20.987-3.233c-3.504-0.481-7.159-0.979-10.6,0.12c-1.664,0.532-4.556,1.53-2.129,3.258
	c6.539,4.654,16.024,6.134,23.728,7.853c1.755,0.392-0.457,2.202-1.68,1.929c-5.568-1.242-11.166-2.594-16.547-4.506
	c-0.913-0.325-2.695-0.859-4.473-1.608c-0.22,0.084-0.446,0.134-0.662,0.127c-1.202-0.042-2.941-0.234-2.71,0.795
	c0.417,0.024,1.121,0.229,0.717,0.768c-0.05,0.066-0.126,0.116-0.189,0.174c1.132,1.513,2.65,2.724,4.184,3.806
	c3.327,2.347,7.572,5.273,11.709,5.837c1.953,0.266,0.281,2.135-1.044,1.954c-5.162-0.703-10.758-4.169-14.782-7.612
	c-2.704,7.949,8.27,11.552,13.806,13.989c1.088,0.479-1.576,1.626-2.336,1.292c-2.581-1.136-6.222-2.518-9.25-4.423
	c5.259,10.715,21.364,9.401,31.498,6.004c-0.598-0.429,0.855-1.597,1.803-1.587c8.203,0.086,16.599,1.288,24.646,2.817
	C292.206,425.429,296.608,427.317,301.261,428.22z M394.556,455.556c6.313-0.052,12.623-0.252,18.936-0.3c0-1.598,0-3.197,0-4.795
	c0-0.099,0.03-0.191,0.071-0.28c-0.045-0.031-0.088-0.062-0.123-0.097c-6.295,0.043-12.588,0.243-18.884,0.299
	C394.556,452.106,394.556,453.831,394.556,455.556z M416.889,455.017c0.035,0.193-0.017,0.372-0.119,0.535
	c6.327-0.059,12.651-0.26,18.979-0.301c-0.255-1.709-0.265-3.445-0.265-5.171c-6.308,0.04-12.611,0.24-18.918,0.3
	C416.571,451.933,416.607,453.484,416.889,455.017z M458.062,455.251c-0.255-1.709-0.265-3.445-0.265-5.171
	c-6.366,0.04-12.729,0.245-19.095,0.302c0,1.496,0,2.993,0,4.489c0.009,0.048,0.012,0.097,0.021,0.146
	c0.02,0.108,0.007,0.212-0.021,0.312c0,0.076,0,0.151,0,0.228C445.156,455.503,451.607,455.292,458.062,455.251z M490.521,450.595
	c0-0.045,0-0.09,0-0.135c0-0.099,0.029-0.191,0.071-0.28c-0.271-0.186-0.36-0.464-0.301-0.748c-0.061-0.255,0.029-0.544,0.229-0.791
	c0-1.893,0-3.787,0-5.68c0-0.099,0.029-0.191,0.071-0.28c-0.271-0.186-0.36-0.464-0.301-0.748c-0.061-0.255,0.029-0.544,0.229-0.791
	c0-1.894,0-3.787,0-5.681c0-0.099,0.029-0.191,0.071-0.28c-0.753-0.519-0.083-1.769,1.19-1.773c2.874-0.009,5.747-0.062,8.62-0.12
	c4.415-20.173-6.615-39.113-20.971-52.535c-2.788,0.042-5.579,0.063-8.364,0.032c-3.287-0.037-11.774,0.729-16.047-1.518
	c-9.11,4.265-16.125,10.437-19.932,19.96c-4.268,10.678-4.064,21.716-4.698,33.004c-0.024,0.428-0.569,0.777-1.181,0.942
	c2.514-0.049,5.027-0.091,7.542-0.099c0.892-0.003,1.243,0.404,1.215,0.851c0.258,0.123,0.43,0.336,0.43,0.662
	c0,1.817-0.004,3.636,0.325,5.43c0.082,0.446-0.27,0.826-0.754,1.068c-0.002,0.042-0.007,0.084-0.016,0.126
	c0.017,0.069,0.02,0.141,0.015,0.213c0.258,0.123,0.43,0.335,0.43,0.662c0,1.817-0.004,3.637,0.325,5.43
	c0.063,0.343-0.135,0.644-0.446,0.876c6.931-0.048,13.857-0.297,20.789-0.32c0.892-0.003,1.243,0.404,1.215,0.851
	c0.258,0.123,0.43,0.336,0.43,0.662c0,1.817-0.004,3.636,0.325,5.43c0.082,0.446-0.27,0.826-0.754,1.068
	c-0.004,0.079-0.021,0.158-0.049,0.237C470.699,456.887,481.775,457.022,490.521,450.595z M512.779,455.251
	c-0.255-1.709-0.265-3.445-0.266-5.171c-6.365,0.04-12.729,0.245-19.094,0.302c0,1.725,0,3.449,0,5.174
	C499.874,455.503,506.325,455.292,512.779,455.251z M308.206,210.775c-1.442-0.329-2.79-0.185-3.977,0.733
	c-1.143,0.885-1.431,2.551-1.289,3.897c0.134,1.269,2.135,1.282,2,0c-0.082-0.777-0.077-1.64,0.468-2.261
	c0.566-0.646,1.499-0.616,2.267-0.441C308.931,212.99,309.464,211.062,308.206,210.775z" fill="#0a1230"></path>
</svg>