<?xml version="1.0" standalone="no"?>
<svg version="1.1" id="Layer_1" xmlns="http://www.w3.org/2000/svg" xmlns:xlink="http://www.w3.org/1999/xlink" x="0px" y="0px" width="595.28px" height="595.28px" viewBox="0 0 595.28 595.28" enable-background="new 0 0 595.28 595.28" xml:space="preserve">
<path id="color_x5F_2" fill="#6c63ff" d="M357.491,386.51c2.511,4.065,5.384,11.129,1.979,14.914
	c-3.305,3.672-9.846-3.082-11.735-5.236c-2.192-2.499-4.21-5.605-5.182-8.885C346.855,388.689,352.456,388.064,357.491,386.51z
	 M345.385,360.715c-4.018,2.793-10.523,1.275-14.786,3.353c-0.022,0.011-0.044,0.018-0.066,0.027
	c0.194,0.385,0.393,0.769,0.568,1.163c0.094,0.211,0.09,0.407,0.027,0.586c0.759-0.118,1.474-0.184,2.078-0.194
	C336.526,365.592,347.299,366.578,345.385,360.715z M148.47,412.257c2.719,0.12,4.009-3.911,4.617-8.48c-3.845,0-7.69,0-11.535,0
	C142.706,408.255,144.751,412.092,148.47,412.257z M153.578,390.476c-4.531,0-9.062,0-13.593,0l1.185,11.545
	c4.039,0,8.078,0,12.117,0c0.42-4.385,0.317-8.841,0.31-10.337C153.595,391.281,153.583,390.878,153.578,390.476z M180.761,385.161
	c-0.029,0.002-0.058,0.008-0.087,0.008c-4.511,0-9.021,0-13.531,0c0.003,1.942,0.039,3.883,0.144,5.812
	c0.124,2.278,0.312,6.769,1.183,11.04c4.046,0,8.092,0,12.139,0c0.42-4.385,0.317-8.841,0.31-10.337
	C180.907,389.511,180.851,387.336,180.761,385.161z M173.069,411.329c0.087,0.06,0.175,0.118,0.264,0.175
	c0.726,0.443,1.54,0.713,2.458,0.753c2.719,0.12,4.009-3.911,4.617-8.48c-3.845,0-7.69,0-11.535,0
	C169.707,407.013,171.009,409.907,173.069,411.329z M203.112,412.257c2.719,0.12,4.009-3.911,4.617-8.48c-3.845,0-7.69,0-11.535,0
	C197.349,408.255,199.394,412.092,203.112,412.257z M194.825,394.597c0.164,2.201,0.441,4.851,0.966,7.424c4.046,0,8.092,0,12.139,0
	c0.257-2.681,0.319-5.382,0.326-7.424c-4.476,0-8.952,0-13.428,0C194.826,394.597,194.825,394.597,194.825,394.597z M79.344,391.777
	c-0.131,0.016-0.281,0.01-0.432-0.014c-0.41,0.291-0.96,0.406-1.443,0.385c-1.224-0.053-1.741,0.731-1.326,1.916
	c0.411,1.171,1.606,2.175,2.903,2.092c1.321-0.086,2.366-1.25,2.482-2.563C81.658,392.123,80.677,391.619,79.344,391.777z
	 M92.586,378.9c-0.131,0.016-0.281,0.01-0.432-0.014c-0.41,0.291-0.96,0.406-1.443,0.385c-1.224-0.053-1.741,0.731-1.326,1.916
	c0.411,1.171,1.606,2.175,2.903,2.092c1.321-0.086,2.366-1.25,2.482-2.563C94.9,379.246,93.919,378.742,92.586,378.9z
	 M107.94,371.886h0.054c0,9.007,0,18.015,0,27.021c-0.231,0.151-0.38,0.329-0.369,0.526c0.194,3.275-2.05,6.086-5.267,6.737
	c-0.013,0.003-0.029,0.006-0.043,0.009c-10.81,0-21.621,0-32.431,0l-3.424-0.061c0.006-0.226-0.181-0.416-0.531-0.484
	c-3.507-0.685-6.218-2.709-6.42-6.285c0-8.926,0-17.852,0-26.778c15.587,0,31.175,0,46.763,0
	C106.725,372.571,107.51,372.229,107.94,371.886z M79.617,389.715c-0.343,0.041-0.758,0.166-1.083,0.388
	c-0.016-0.001-0.032-0.006-0.048-0.007c-2.464-0.107-5.689,0.993-5.383,4.016c0.268,2.643,2.953,4.137,5.396,4.109
	c2.778-0.031,5.366-1.891,5.932-4.667C85.037,390.581,82.045,389.428,79.617,389.715z M92.86,376.838
	c-0.343,0.041-0.758,0.166-1.083,0.388c-0.016-0.001-0.032-0.006-0.048-0.007c-2.464-0.107-5.689,0.993-5.383,4.016
	c0.268,2.643,2.953,4.137,5.396,4.109c2.778-0.031,5.366-1.891,5.932-4.667C98.28,377.704,95.288,376.551,92.86,376.838z
	 M492.45,427.782c0.058-0.087,0.115-0.187,0.174-0.301c-0.146,0.104-0.3,0.202-0.453,0.301
	C492.264,427.782,492.357,427.782,492.45,427.782z M493.307,394.273c-0.43,0.343-1.215,0.686-1.668,0.686c-7.94,0-15.88,0-23.821,0
	c-0.927,11.063,1.553,22.118,6.418,32.691c0.021,0.044,0.027,0.088,0.033,0.132c5.167,0,10.333,0,15.5,0
	c2.073-1.197,3.373-3.439,3.223-5.962c-0.012-0.197,0.138-0.374,0.368-0.525c0-9.007,0-18.014,0-27.021H493.307z M464.828,394.959
	c-6.65,0-13.301,0-19.952,0c0,8.928,0,17.855,0,26.784c0.185,3.228,2.417,5.187,5.431,6.039c6.917,0,13.833,0,20.75,0
	C466.347,417.319,463.825,406.082,464.828,394.959z M160.651,274.604c1.74,0.348,3.49,0.521,5.178,0.475L160.651,274.604z
	 M172.568,298.377c5.063-0.811,6.247-4.283,5.915-8.568c-0.439-5.659-1.84-11.27-2.85-16.869c-6.382,4.377-17.197,3.49-23.661,1.018
	c-4.655-1.779-7.989-5.096-10.868-9.095c-1.903-2.644-3.684-4.99-5.752-6.862c-1.582-1.205-3.01-2.146-4.231-2.854
	c-1.654-0.781-3.523-1.328-5.733-1.575c-0.004,0-0.007-0.002-0.011-0.002c-7.356,4.273-14.782,8.636-17.744,16.319
	c-3.074,7.976,1.532,12.423,8.903,15.041c6.408,2.275,12.741,4.774,19.169,6.989c4.474,1.541,9.028,3.036,13.646,4.228
	c0.131,0.014,0.24,0.042,0.322,0.084c3.172,0.808,6.374,1.472,9.606,1.891C163.637,298.684,168.193,299.076,172.568,298.377z"></path>
<path id="color_x5F_1" d="M281.919,238.27c-0.029,1.557-0.373,3.055-0.748,4.559c-0.198,0.791-3.06,1.233-2.869,0.469
	c0.35-1.4,0.692-2.799,0.72-4.25C279.039,238.121,281.931,237.688,281.919,238.27z M299.833,271.15
	c3.45,0.773,7.644-0.349,9.226-3.752c0.213-0.459-2.515-0.229-2.858,0.51c-0.373,0.803-0.849,1.505-1.582,2.021
	c-0.7,0.493-1.632,0.271-2.405,0.098c-0.646-0.145-1.446,0.096-2.025,0.37C299.959,270.506,299.183,271.005,299.833,271.15z
	 M295.917,241.82c-0.431,1.246-1.037,2.424-1.468,3.67c-0.257,0.742,2.588,0.375,2.874-0.451c0.431-1.246,1.037-2.424,1.468-3.67
	C299.047,240.627,296.202,240.994,295.917,241.82z M324.312,259.723c1.697-1.318,1.018-4.29,1.939-6.055
	c0.595-1.137,1.937-1.546,3.131-1.714c1.455-0.205,2.678,0.476,3.841,1.277c0.294,0.203-2.104,1.388-2.74,0.949
	c-0.463-0.319-0.946-0.643-1.461-0.882c-0.23,0.533-0.34,1.121-0.437,1.688c-0.259,1.509-0.36,3.429-1.669,4.446
	c-0.527,0.409-1.297,0.595-1.946,0.666C324.777,260.121,323.792,260.127,324.312,259.723z M329.29,252.806
	c0.596-0.2,0.291-0.433,0.026-0.048C329.306,252.773,329.299,252.791,329.29,252.806z M303.497,321.033
	c0.126,2.997-2.107,5.293-4.803,6.25c-2.558,0.909-5.841,0.467-6.723-2.521c-1.494-5.064,8.764-8.789,11.402-4.49
	c0.085,0.14-0.014,0.308-0.218,0.469C303.356,320.79,303.491,320.883,303.497,321.033z M300.859,321.309
	c-0.167-0.049-0.303-0.129-0.383-0.26c-1.902-3.099-6.938,0.327-5.446,3.333c0.625,1.26,2.057,2.603,3.466,1.563
	c1.341-0.987,2.175-2.445,2.104-4.137C300.592,321.624,300.692,321.456,300.859,321.309z M159.774,264.602
	c-1.156-0.943-1.106-2.449-0.779-3.79c0.169-0.698,0.953-1.056,1.611-1.115c0.16-0.015,0.386,0.001,0.607,0.054
	c0.01-0.182,0.089-0.371,0.249-0.543c0.486-0.525,1.365-0.758,2.049-0.549c0.642,0.197,1.311,0.445,1.866,0.83
	c1.017,0.706,1.559,1.791,1.005,2.98c-0.484,1.039-1.596,1.867-2.654,2.248C162.542,265.146,160.86,265.488,159.774,264.602z
	 M161.919,260.535c-0.001,0.005,0,0.008,0,0.013c-0.092,0.38-0.17,0.767-0.193,1.158c-0.004,0.062,0.001,0.353-0.005,0.368
	c0.011,0.113,0.021,0.227,0.047,0.336c0.027,0.118,0.058,0.236,0.105,0.349c0.01,0.024,0.016,0.039,0.02,0.052
	c0.011,0.014,0.022,0.029,0.041,0.055c0.046,0.065,0.1,0.126,0.155,0.184c0.021,0.017,0.042,0.034,0.059,0.044
	c0.02,0.013,0.041,0.023,0.061,0.035c0.029,0.008,0.06,0.016,0.091,0.022c0.024,0.003,0.049,0.006,0.073,0.007
	c0.03-0.001,0.058-0.003,0.081-0.005c0.042-0.01,0.081-0.023,0.122-0.035c0.088-0.037,0.258-0.105,0.366-0.156
	c0.026-0.018,0.053-0.033,0.078-0.051c0.078-0.054,0.154-0.11,0.229-0.169c0.022-0.021,0.045-0.043,0.067-0.065
	c0.063-0.066,0.125-0.136,0.182-0.207c0.016-0.026,0.033-0.051,0.048-0.078c0.039-0.07,0.073-0.143,0.104-0.217
	c0.008-0.034,0.017-0.068,0.022-0.103c0.01-0.062,0.015-0.124,0.017-0.187c-0.005-0.036-0.01-0.072-0.02-0.107
	c-0.017-0.064-0.043-0.126-0.067-0.188c-0.033-0.054-0.085-0.14-0.112-0.173c-0.057-0.07-0.122-0.134-0.186-0.197
	c-0.058-0.042-0.2-0.153-0.244-0.181c-0.136-0.086-0.275-0.168-0.42-0.238c-0.026-0.013-0.04-0.02-0.052-0.026h0
	c-0.09-0.037-0.181-0.074-0.272-0.107C162.184,260.62,162.052,260.578,161.919,260.535z M554.852,429.765
	c-41.725,0-83.451,0-125.176,0c-41.499,0-82.999,0-124.498,0c-0.866,0.361-2.233,0.424-2.207,0.13
	c0.004-0.043,0.006-0.087,0.01-0.13c-18.888,0-37.775,0-56.662,0c-0.81,0.573-2.618,0.729-2.53,0c-70.645,0-141.29,0-211.935,0
	c-1.972,0-1.309-1.982,0.295-1.982c7.438,0,14.877,0,22.316,0c-0.045-0.11-0.077-0.231-0.077-0.374c0-6.361,0-12.724,0-19.085
	c0-0.452,0.334-0.795,0.776-0.997c-3.509,0-7.018,0-10.527,0c-1.405,0,1.304-1.146,1.889-1.146c4.857,0,9.713,0,14.57,0
	c-2.182-1.011-3.777-2.648-4.302-5.023c-0.11-0.059-0.181-0.141-0.181-0.254c0-0.365,0-0.73,0-1.096c0-0.225,0-0.45,0-0.675
	c0-14.825,0-29.649,0-44.474c0-0.139,0.056-0.266,0.146-0.384c-2.099,0-4.198,0-6.297,0c-0.622,0-0.825-0.15-0.785-0.354
	c-1.663-0.211-3.278-1.09-3.52-2.947c-0.308-2.371,1.576-3.771,3.634-4.4c0.318-0.098,1.044-0.195,1.422,0.05
	c0.152-0.042,0.295-0.066,0.42-0.066c20.797,0,41.595,0,62.392,0c0.534-0.233,1.181-0.3,1.689-0.029
	c0.017,0.009,0.034,0.021,0.051,0.029c0.167,0,0.334,0,0.501,0c0.921,0,0.924,0.33,0.572,0.679c1.07,0.786,2.048,1.883,2.154,3.163
	c0.158,1.9-1.095,3.077-2.705,3.862c-0.474,0.231-1.307,0.364-1.789,0.015c-1.202,0-2.405,0-3.607,0c0,15.284,0,30.567,0,45.851
	c0,0.295-0.241,0.544-0.581,0.735c-0.632,2.476-2.586,4.219-4.937,5.319c8.521,0,17.043,0,25.564,0c1.405,0-1.304,1.146-1.889,1.146
	c-3.98,0-7.959,0-11.939,0c0.259,0.16,0.432,0.418,0.432,0.792c0,6.362,0,12.724,0,19.085c0,0.221-0.085,0.413-0.217,0.579
	c4.841,0,9.682,0,14.523,0c0-12.937,0-25.873,0-38.81c0-1.053,2.897-1.57,2.897-0.775c0,4.607,0,9.215,0,13.823
	c1.175,0,2.35,0,3.524,0c-0.453-2.191-0.709-4.254-0.861-5.771c-0.682-6.849-0.724-13.821-0.13-20.686c-0.345,0-0.69,0-1.035,0
	c-0.394,0-0.451-0.091-0.326-0.22c-1.944-0.854-1.405-5.571-0.208-6.816c0.25-0.261,0.812-0.432,1.35-0.477
	c0.234-0.097,0.472-0.156,0.683-0.156c6.508,0,13.017,0,19.525,0c0.897,0,0.979,0.365,0.699,0.76
	c0.933,1.877,1.188,4.572,0.101,6.385c-0.314,0.524-1.62,0.83-2.335,0.675c0.458,4.402,0.763,8.859,0.831,13.31
	c0.193,0.121,0.166,0.313,0.003,0.522c0.028,2.533-0.016,5.063-0.159,7.577c-0.077,1.35-0.152,3.068-0.339,4.897
	c3.174,0,6.348,0,9.522,0c-0.453-2.191-0.709-4.254-0.861-5.771c-0.368-3.693-0.546-7.423-0.544-11.152
	c-0.553-0.185-0.416-0.696,0.009-1.145c0.03-2.804,0.164-5.604,0.405-8.389c-0.345,0-0.69,0-1.035,0c-0.394,0-0.45-0.091-0.327-0.22
	c-1.944-0.854-1.405-5.572-0.208-6.816c0.25-0.261,0.812-0.432,1.35-0.477c0.234-0.097,0.472-0.156,0.683-0.156
	c6.508,0,13.016,0,19.524,0c0.897,0,0.979,0.365,0.699,0.76c0.933,1.877,1.188,4.572,0.101,6.385
	c-0.314,0.524-1.62,0.83-2.335,0.675c0.736,7.081,1.078,14.306,0.675,21.409c-0.077,1.35-0.152,3.068-0.339,4.897
	c3.174,0,6.348,0,9.522,0c-0.453-2.191-0.709-4.254-0.861-5.771c-0.682-6.849-0.724-13.821-0.13-20.686c-0.345,0-0.69,0-1.035,0
	c-0.394,0-0.45-0.091-0.327-0.22c-1.944-0.854-1.405-5.572-0.207-6.816c0.25-0.26,0.811-0.431,1.348-0.477
	c0.235-0.096,0.473-0.156,0.685-0.156c6.508,0,13.017,0,19.525,0c0.897,0,0.979,0.365,0.698,0.761
	c0.933,1.876,1.188,4.571,0.102,6.384c-0.314,0.525-1.621,0.831-2.336,0.675c0.736,7.081,1.078,14.307,0.675,21.409
	c-0.077,1.35-0.152,3.068-0.339,4.897c1.32,0,2.641,0,3.961,0c0-4.35,0-8.698,0-13.048c0-1.053,2.897-1.57,2.897-0.775
	c0,4.832,0,9.665,0,14.498c2.428-11.081,5.949-22.025,9.421-32.34c3.757-11.159,7.975-22.255,13.361-32.742
	c1.904-3.707,3.928-7.451,6.247-10.986c-16.143,8.896-35.358,9.658-53.194,5.283c-11.99-2.941-23.314-8.113-32.913-15.977
	c-5.257-4.307-13.306-10.98-13.552-18.513c-1.759-0.456-3.51-0.944-5.251-1.474c-9.265-2.815-18.441-6.209-27.478-9.68
	c-5.421-2.082-11.967-5.507-10.519-12.46c3.202-15.371,21.51-19.378,31.596-28.956c-3.745-3.428-3.715-8.972,0.732-11.936
	c0.072-0.048,0.15-0.089,0.231-0.124c0.246-4.815,5.567-6.763,10.463-6.856c1.269-3.11,4.599-4.035,7.976-3.596
	c1.369-2.076,3.772-3.236,6.003-2.623c2.577-8.1,6.794-15.508,10.89-22.93c0.161-0.291,0.625-0.518,1.128-0.639
	c-2.792-1.475-5.078-3.715-2.105-6.329c4.411-3.88,10.824-0.039,15.359,1.753c2.685,1.061,11.425,5.145,7.599,9.377
	c-1.495,1.653-3.51,1.973-5.558,1.593c0.095,0.173,0.104,0.397-0.018,0.681c-4.115,9.602-8.233,19.202-12.351,28.803
	c5.812,1.188,11.405,4.313,12.369,10.58c1.324,8.609-6.675,16.861-10.304,23.984c0.071-0.018,0.143-0.031,0.216-0.041
	c1.828-0.229,5.369-1.474,7.181-0.395c2.584,1.54,3.759,5.463,5.072,7.96c3.044,5.789,6.813,11.02,13.237,13.36
	c5.884,2.144,12.068,2.192,18.207,1.239c12.312-1.912,23.547-6.978,35.615-9.756c11.888-2.736,22.853-0.587,34.827,0.043
	c1.954,0.103-0.139,1.579-1.159,1.525c-6.639-0.35-13.237-1.625-19.883-1.741c-6.996-0.123-13.644,1.313-20.289,3.395
	c-10.7,3.354-21.286,7.396-32.554,8.38c-8.716,0.761-18.564-0.127-24.984-6.866c-3.215-3.375-5.303-7.485-7.392-11.615
	c-0.627-1.241-1.525-4.11-3.022-4.591c-1.352-0.435-3.514,0.244-4.98,0.484c0.639,3.942,1.304,7.879,2.07,11.799
	c0.889,4.549,3.113,11.286,0.468,15.652c-2.761,4.559-8.908,4.862-13.72,4.83c-5.624-0.038-11.16-0.841-16.613-2.086
	c1.041,5.954,6.768,11.277,11.033,14.91c7.685,6.547,16.617,12.051,26.244,15.219c20.062,6.602,43.028,7.661,61.228-4.42
	c1.817-2.487,3.813-4.831,6.063-6.927c0.501-0.466,3.223-0.795,2.619-0.232c-2.222,2.068-4.196,4.401-6.007,6.875
	c0.077,0.093,0.015,0.229-0.278,0.426c-0.027,0.018-0.054,0.034-0.081,0.053c-3.393,4.729-6.162,9.982-8.656,15.108
	c-4.821,9.909-8.848,20.204-12.32,30.658c-5.427,16.34-11.075,34.14-12.277,51.63c0,1.938,0,3.877,0,5.816
	c0,0.185-0.093,0.352-0.239,0.499c8.986,0,17.973,0,26.959,0c3.411-13.175,6.825-26.354,10.333-39.505
	c-0.339-0.152-0.58-0.435-0.581-0.88c-0.029-10.06-0.506-20.111-0.548-30.171c-0.035-8.386-0.567-17.688,1.619-25.853
	c3.211-11.997,15.235-21.683,25.048-28.621c-1.967-3.082-6.248-6.405-4.031-10.05c1.492-2.451,4.425-4.104,6.733-5.66
	c3.47-2.338,6.951-4.636,10.209-7.267c0.383-0.31,0.882-0.395,1.332-0.329c-0.442-0.617-0.976-1.188-1.638-1.693
	c-3.291-2.51-6.797-4.001-10.831-4.9c-2.523-0.563-5.534-1.044-7.692-2.593c-3.748-2.688-5.655-6.11-6.406-9.936
	c-1.943-0.106-3.782-0.878-4.844-2.681c-3.633-6.168-3.032-13.141-1.005-19.793c1.903-6.246,6.583-10.56,12.11-11.813
	c0.083-0.568,0.156-1.13,0.2-1.672c0-0.008,0.005-0.014,0.006-0.021c-5.721,0.771-10.412,0.378-9.667-3.387
	c0.574-2.905,4.074-5.449,6.257-7.104c2.119-1.607,4.346-3.178,6.692-4.491c-6.514,1.18-27.014,6.438-25.284-1.667
	c1.132-5.305,7.523-8.135,12.09-9.84c4.266-1.594,8.757-2.891,13.301-3.517c-4.464-2.572-9.928-6.765-10.202-11.995
	c-0.21-4.022,5.128-5.387,8.092-5.852c12.403-1.944,24.833,1.518,35.747,7.228c-0.293-6.278-2.157-16.307,4.296-18.218
	c4.24-1.256,9.168,3.398,11.321,6.414c3.792,5.31,5.694,11.48,7.919,17.537c4.954-3.091,11.23-6.768,16.783-6.258
	c2.865,0.263,5.06,2.338,4.007,5.42c-0.688,2.012-1.765,3.801-3.031,5.505c-0.391,0.525-3.25,4.026-2.491,4.071
	c6.099,0.36,12.159-0.895,18.255-0.217c2.146,0.239,7.901,1.655,8.086,4.609c0.355,5.658-10.765,8.68-13.863,12.387
	c6.99,6.938,15.133,20.406,12.245,30.701c-1.821,6.494-10.625,3.451-15.556,1.79c2.072,4.938,3.282,10.476,2.979,15.83
	c-0.179,3.169-0.519,8.208-4.153,9.528c-5.724,2.08-11.218-2.615-15.879-6.004c-1.184,4.711-3.421,10.656-7.617,12.46
	c-2.021,0.868-3.748,1.062-5.267,0.763c0.023,0.057,0.045,0.114,0.068,0.171c23.811,0.607,49.009,5.305,70.627,15.536
	c9.445,4.471,18.426,10.132,26.485,16.801c6.578,5.443,10.866,12.396,11.243,21.098c0.785,18.127-8.717,33.066-25.506,40.01
	c-7.784,3.219-16.321,5.537-24.529,7.382c-5.816,1.308-12.71,2.935-18.733,1.423c1.234,7.17,2.693,14.305,4.595,21.318
	c2.205,8.135,4.731,16.939,10.022,23.673c0.087,0.11,0.123,0.222,0.129,0.33c20.435,0,40.87,0,61.306,0
	c-1.464-1.005-2.508-2.402-2.914-4.239c-0.11-0.059-0.18-0.141-0.18-0.254c0-0.363,0-0.727,0-1.09c0-0.248,0-0.496,0-0.744
	c0-14.803,0-29.606,0-44.41c0-0.138,0.055-0.266,0.146-0.383c-2.099,0-4.198,0-6.297,0c-0.622,0-0.825-0.15-0.785-0.355
	c-1.663-0.21-3.278-1.089-3.519-2.946c-0.308-2.371,1.576-3.771,3.634-4.4c0.318-0.097,1.043-0.195,1.421,0.05
	c0.152-0.042,0.295-0.066,0.42-0.066c12.515,0,25.03,0,37.545,0c3.478-5.388,7.198-10.619,9.532-16.581
	c3.267-8.345,4.104-16.202-0.38-24.28c-4.922-8.868-11.17-16.435-14.308-26.267c-2.885-9.04-4.292-19.046-1.692-28.348
	c2.595-9.284,7.852-17.304,12.082-25.874c0-1.183,0-2.365,0-3.548c-8.514,0-17.028,0-25.542,0c-1.446,0,1.229-1.232,1.866-1.232
	c7.892,0,15.784,0,23.676,0c0-3.339,0-6.677,0-10.016c-10.467-1.187-18.76-7.998-19.084-19.103
	c-0.339-11.616,6.389-18.361,17.48-19.594c9.764-1.084,22.045,1.287,25.223,12.229c2.913,10.033-2.35,23.671-13.438,25.304
	c0,3.426,0,6.852,0,10.277c0,0.426-0.698,0.746-1.409,0.901c9.458,0,18.915,0,28.372,0c0.434-0.863,2.824-1.228,2.824-0.507
	c0,0.169,0,0.338,0,0.507c2.764,0,5.528,0,8.292,0c1.446,0-1.229,1.232-1.866,1.232c-2.142,0-4.284,0-6.426,0
	c0,61.201,0,122.403,0,183.604c0,0.045-0.012,0.088-0.022,0.132c11.808,0,23.615,0,35.423,0
	C557.119,427.782,556.456,429.765,554.852,429.765z M116.536,284.929c6.408,2.275,12.741,4.774,19.169,6.989
	c4.474,1.541,9.028,3.036,13.646,4.228c0.131,0.014,0.24,0.042,0.322,0.084c3.172,0.808,6.374,1.472,9.606,1.891
	c4.358,0.563,8.914,0.956,13.289,0.257c5.063-0.811,6.247-4.283,5.915-8.568c-0.439-5.659-1.84-11.27-2.85-16.869
	c-6.382,4.377-17.197,3.49-23.661,1.018c-4.655-1.779-7.989-5.096-10.868-9.095c-1.903-2.644-3.684-4.99-5.752-6.862
	c-1.268-1.146-2.65-2.108-4.231-2.854c-1.654-0.781-3.523-1.328-5.733-1.575c-0.004,0-0.007-0.002-0.011-0.002
	c-7.356,4.273-14.782,8.636-17.744,16.319C104.558,277.863,109.165,282.311,116.536,284.929z M166.96,233.711
	c-0.942,0.125-1.947,0.44-2.871,0.906c-0.417,0.545-0.947,0.852-1.527,0.99c-1.773,1.455-2.647,3.596-0.803,5.992
	c3.3,4.289,10.122,6.056,15.333,5.872c1.971-0.069,1.434,2.133-0.238,2.191c-0.655,0.022-1.374,0.015-2.127-0.022
	c0.811,4.316,1.52,8.65,2.213,12.986c5.592-9.451,14.956-23.555-0.18-27.85C173.653,233.896,170.194,233.281,166.96,233.711z
	 M158.505,236.383c-0.691,0.352-1.457,0.608-2.138,0.779c0.117,0.109,0.242,0.206,0.355,0.322c0.525,0.539,0.913,1.078,1.184,1.611
	C157.874,238.08,158.093,237.178,158.505,236.383z M163.028,221.157c2.512,2.626,4.307,6.916,3.49,10.6
	c1.357-0.243,2.709-0.344,3.915-0.317c0.818,0.018,1.663,0.076,2.516,0.167c4.097-9.552,8.194-19.104,12.288-28.657
	c0.181-0.422,0.714-0.698,1.271-0.797c-1.988-0.67-3.896-1.865-5.271-3.006c-1.317-1.093,1.181-2.583,2.221-1.721
	c1.111,0.922,2.375,1.729,3.721,2.259c0.67,0.265,4.232,1.819,4.147-0.45c-0.024-0.736-0.275-1.367-0.752-1.893
	c-1.8-1.952-4.378-3.101-6.846-3.969c-2.779-0.979-5.547-2.777-8.543-2.966c-2.912,1.021-3.541,2.075-1.886,3.166
	c0.215,0.144,0.431,0.286,0.646,0.43c0.628,0.358,1.279,0.666,1.954,0.923c0.911,0.336,1.824,0.632,2.762,0.883
	c1.771,0.475-0.353,2.368-1.655,2.02c-0.703-0.188-1.695-0.512-2.736-0.949C169.948,204.707,165.476,212.503,163.028,221.157z
	 M156.972,222.838c2.237,0.689,4.272,1.908,5.442,3.414c0.315,0.405,0.644,0.898,0.955,1.439c-0.326-1.15-0.807-2.256-1.373-3.226
	c-0.683-1.172-1.549-2.417-2.733-3.14c-0.273-0.167-0.555-0.331-0.869-0.409c-0.036-0.005-0.052-0.008-0.081-0.012
	c-0.538,0.477-0.881,1.104-1.19,1.743C157.089,222.716,157.035,222.778,156.972,222.838z M149.388,226.071
	c0.939,0.116,1.817,0.302,2.583,0.552c3.057,0.999,6.544,2.967,8.179,5.848c0.136,0.239,0.223,0.465,0.29,0.685
	c0.252,0.004,0.474,0.055,0.629,0.169c0.099,0.081,0.207,0.148,0.311,0.221c0.134-0.078,0.27-0.154,0.408-0.229
	c0.025-0.753-0.071-1.518-0.275-2.241c-0.441-1.561-1.118-3.265-2.401-4.332c-2.304-1.913-8.319-4.986-9.685-0.748
	C149.418,226.021,149.4,226.046,149.388,226.071z M138.642,233.611c5.207-0.098,11.623-0.557,16.145,2.307
	c0.176-0.113,0.388-0.214,0.682-0.274c5.705-1.183-2.881-6.728-5.238-7.322c-3.781-0.954-11.379-1.037-11.079,4.444
	C139.169,233.101,138.956,233.389,138.642,233.611z M139.448,244.382c3.458,1.105,7.417,1.253,11,0.737
	c1.767-0.253,5.846-1.279,5.177-3.871c-0.558-2.162-2.811-3.873-4.873-4.548c-4.356-1.427-9.043-1.101-13.563-1.083
	c-0.282,0.001-0.504-0.042-0.683-0.111C134.411,238.472,135.637,243.163,139.448,244.382z M127.395,252.391
	c4.187,0.484,8.219,1.679,11.231,4.818c3.052,3.181,5.111,7.152,8.151,10.332c3.004,3.141,8.386,5.967,13.874,7.063
	c1.74,0.348,3.49,0.521,5.178,0.475c1.256-0.034,2.476-0.192,3.633-0.488c0.23-0.059,0.459-0.12,0.684-0.19
	c1.996-0.621,3.771-1.692,5.166-3.312c-1.181-7.261-2.295-14.532-3.687-21.757c-5.29-0.783-11.246-2.996-13.071-7.435
	c-0.066-0.161-0.12-0.317-0.175-0.475c-0.263,2.662-3.247,4.827-6.5,5.406c-4.144,0.737-10.985,1.431-15.074-0.869
	C134.076,248.365,130.788,250.4,127.395,252.391z M115.098,352.796c2.508-1.251-0.195-3.958-1.653-4.732
	c-0.017-0.009-0.024-0.021-0.04-0.029c-20.981,0-41.962,0-62.944,0c-0.109,0-0.202-0.006-0.286-0.015
	c-2.184,0.674-0.976,4.485,1.109,4.349c0.325-0.021,1.186-0.033,1.257,0.428C73.394,352.796,94.246,352.796,115.098,352.796z
	 M59.509,354.274c0,5.651,0,11.304,0,16.955c0.09-0.017,0.176-0.029,0.251-0.029c15.904,0,31.808,0,47.712,0
	c0.231,0,0.4,0.021,0.522,0.055c0-5.532,0-11.064,0-16.597c0-0.139,0.056-0.266,0.146-0.384
	C91.93,354.274,75.72,354.274,59.509,354.274z M66.453,406.18c1.144,0,2.288,0,3.432,0c10.81,0,21.621,0,32.431,0
	c0.014-0.003,0.03-0.006,0.043-0.009c3.217-0.651,5.461-3.462,5.267-6.737c-0.012-0.197,0.138-0.375,0.369-0.526
	c0-9.007,0-18.015,0-27.021c0-0.017,0-0.032,0-0.048c-0.019,0.016-0.034,0.031-0.054,0.048c-0.43,0.343-1.215,0.686-1.668,0.686
	c-15.587,0-31.175,0-46.763,0c0,8.927,0,17.853,0,26.778c0.202,3.576,2.913,5.601,6.42,6.285c0.351,0.068,0.537,0.259,0.531,0.484
	C66.46,406.139,66.457,406.159,66.453,406.18z M114.68,427.782c-0.045-0.11-0.077-0.231-0.077-0.374c0-6.361,0-12.724,0-19.085
	c0-0.452,0.334-0.795,0.775-0.997c-4.501,0-9.003,0-13.504,0c-0.01,0.002-0.02,0.005-0.03,0.007
	c-0.112,0.023-0.653,0.085-0.969-0.007c-14.66,0-29.319,0-43.979,0c0.259,0.16,0.432,0.418,0.432,0.792c0,6.362,0,12.724,0,19.085
	c0,0.221-0.085,0.413-0.217,0.579C76.3,427.782,95.49,427.782,114.68,427.782z M209.17,374.448c0.082,0,0.164,0,0.246,0
	c0.278,0,0.556,0,0.833,0c0.549-1.452,0.207-3.405-0.434-4.812c-5.819,0-11.639,0-17.458,0c-0.198,0.714-0.145,1.695-0.1,2.229
	c0.042,0.509,0.096,1.036,0.259,1.523c0.255,0.762,0.381,0.284-0.471,0.447c0.192-0.037,0.556-0.035,0.846,0.058
	c0.81-0.329,1.879-0.209,2.015,0.555C199.661,374.448,204.416,374.448,209.17,374.448z M194.825,394.597
	c0.164,2.201,0.441,4.851,0.966,7.424c4.046,0,8.092,0,12.139,0c0.257-2.681,0.319-5.382,0.326-7.424c-4.476,0-8.952,0-13.428,0
	C194.826,394.597,194.825,394.597,194.825,394.597z M196.194,403.776c1.154,4.479,3.2,8.315,6.918,8.48
	c2.719,0.12,4.009-3.911,4.617-8.48C203.884,403.776,200.039,403.776,196.194,403.776z M194.854,375.563
	c-0.434,5.112-0.524,10.302-0.247,15.417c0.024,0.438,0.05,0.964,0.083,1.549c0.125-0.027,0.254-0.048,0.395-0.048
	c4.387,0,8.774,0,13.161,0c-0.003-0.318-0.006-0.588-0.007-0.798c-0.026-5.243-0.257-10.505-0.813-15.721
	c-0.015-0.142,0.006-0.273,0.044-0.399C203.265,375.563,199.06,375.563,194.854,375.563z M167.287,390.98
	c0.124,2.278,0.312,6.769,1.183,11.04c4.046,0,8.092,0,12.139,0c0.42-4.385,0.317-8.841,0.31-10.337
	c-0.011-2.173-0.067-4.348-0.157-6.522c-0.029,0.002-0.058,0.008-0.087,0.008c-4.511,0-9.021,0-13.531,0
	C167.146,387.111,167.182,389.052,167.287,390.98z M181.849,374.448c0.082,0,0.164,0,0.246,0c0.278,0,0.556,0,0.833,0
	c0.549-1.452,0.207-3.404-0.435-4.812c-5.819,0-11.638,0-17.458,0c-0.198,0.714-0.144,1.695-0.1,2.229
	c0.042,0.509,0.096,1.036,0.259,1.523c0.255,0.762,0.381,0.284-0.471,0.447c0.192-0.037,0.556-0.035,0.846,0.058
	c0.81-0.329,1.879-0.209,2.015,0.555C172.34,374.448,177.094,374.448,181.849,374.448z M173.069,411.329
	c0.087,0.061,0.174,0.12,0.264,0.175c0.726,0.443,1.54,0.713,2.458,0.753c2.719,0.12,4.009-3.911,4.617-8.48
	c-3.845,0-7.69,0-11.535,0C169.707,407.013,171.009,409.907,173.069,411.329z M167.533,375.563c-0.215,2.53-0.349,5.078-0.389,7.629
	c4.509,0,9.018,0,13.527,0c-0.13-2.415-0.311-4.827-0.567-7.229c-0.015-0.142,0.006-0.273,0.044-0.399
	C175.943,375.563,171.738,375.563,167.533,375.563z M148.47,412.257c2.719,0.12,4.009-3.911,4.617-8.48c-3.845,0-7.69,0-11.535,0
	C142.706,408.255,144.751,412.092,148.47,412.257z M154.527,374.448c0.082,0,0.164,0,0.246,0c0.278,0,0.556,0,0.833,0
	c0.549-1.452,0.207-3.404-0.435-4.812c-5.819,0-11.638,0-17.458,0c-0.198,0.714-0.145,1.695-0.1,2.229
	c0.043,0.509,0.096,1.036,0.259,1.523c0.256,0.762,0.381,0.284-0.471,0.447c0.192-0.037,0.556-0.035,0.846,0.058
	c0.81-0.329,1.879-0.209,2.015,0.555C145.018,374.448,149.773,374.448,154.527,374.448z M140.212,375.563
	c-0.378,4.46-0.48,8.975-0.317,13.451c0.206-0.073,0.408-0.119,0.581-0.119c4.359,0,8.719,0,13.078,0
	c-0.084-4.318-0.313-8.641-0.771-12.933c-0.015-0.142,0.006-0.273,0.044-0.399C148.622,375.563,144.417,375.563,140.212,375.563z
	 M141.148,402.021c0.007,0,0.015,0,0.022,0c4.039,0,8.078,0,12.117,0c0.42-4.385,0.317-8.841,0.31-10.337
	c-0.002-0.402-0.014-0.806-0.019-1.208c-4.531,0-9.062,0-13.593,0c-0.013,0-0.025,0-0.038,0c0.008,0.168,0.009,0.337,0.018,0.505
	C140.089,393.259,140.277,397.749,141.148,402.021z M157.325,427.782c19.04,0,38.079,0,57.118,0c0.022-1.856,0.103-3.719,0.23-5.585
	c0-6.164,0-12.329,0-18.493c-0.154,0.046-0.306,0.072-0.446,0.072c-1.243,0-2.486,0-3.729,0c-0.719,5.036-2.492,10.28-7.49,10.698
	c-5.544,0.464-8.298-5.182-9.692-10.698c-3.379,0-6.759,0-10.139,0c-0.719,5.036-2.492,10.28-7.49,10.698
	c-5.544,0.464-8.298-5.182-9.692-10.698c-3.38,0-6.759,0-10.139,0c-0.719,5.036-2.492,10.28-7.49,10.698
	c-5.544,0.464-8.298-5.182-9.692-10.698c-1.309,0-2.617,0-3.926,0c0,7.836,0,15.671,0,23.507c0,0.185-0.093,0.352-0.239,0.499
	C142.113,427.782,149.719,427.782,157.325,427.782z M342.553,387.303c0.972,3.279,2.989,6.386,5.182,8.885
	c1.89,2.154,8.43,8.908,11.735,5.236c3.406-3.785,0.532-10.849-1.979-14.914C352.456,388.064,346.855,388.689,342.553,387.303z
	 M365.566,380.854c0.039-0.033,0.086-0.063,0.138-0.094c-0.538-3.228-1.036-6.462-1.494-9.699
	c-0.844-5.965-1.683-11.997-2.403-18.055c-3.344-0.322-6.415-1.83-9.658-2.618c-2.586-0.629-8.032-0.967-6.678,3.464
	c0.396,1.296,1.033,2.414,1.661,3.609c1.95,3.707,1.505,7.896-3.117,9.363c-2.63,0.835-5.448,0.746-8.177,0.755
	c-1.82,0.005-11.983-0.248-8.43,4.081c3.19,3.888,11.709,4.506,16.313,3.354c1.776-0.444,2.273,1.37,0.487,1.816
	c-3.156,0.79-7.72,0.953-11.763,0.12c3.541,5.395,11.095,5.471,16.384,2.525c1.441-0.802,3.003,0.742,1.281,1.701
	c-2.668,1.484-5.963,2.354-9.2,2.375c3.554,3.585,10.297,3.361,16.122,1.596c0.418-0.317,1.348-0.681,2.02-0.686
	C361.691,383.465,364.011,382.182,365.566,380.854z M321.315,345.438c-0.021,0.016-7.711,5.445-1.971,5.406
	c1.379,0.017,2.739-0.14,4.08-0.468c2.427-0.6,4.794-1.349,7.138-2.221c3.659-1.359,7.862-2.875,10.854-5.445
	c5.744-4.935-2.328-7.955-6.334-4.558c-0.068,0.187-0.313,0.384-0.823,0.56c-1.546,0.531-3.093,1.165-4.616,1.874
	c-0.023,0.038-0.046,0.076-0.069,0.115c-0.307,0.532-1.098,0.796-1.781,0.788C325.522,342.659,323.331,343.993,321.315,345.438z
	 M324.192,351.881c1.102,3.946,3.586,7.25,5.582,10.791c2.043-0.919,4.295-1.266,6.505-1.528c2.368-0.281,6.276-0.087,7.986-1.995
	c0.073-0.082,0.176-0.153,0.294-0.217c-1.205-2.188-2.943-4.812-1.839-7.192c0.027-0.059,0.058-0.108,0.086-0.166
	c-0.234-0.058-0.429-0.174-0.543-0.364c-1.002-1.674-1.97-3.357-2.483-5.233c-2.277,1.185-4.604,2.069-6.021,2.6
	C332.452,349.064,328.328,350.784,324.192,351.881z M331.127,365.844c0.759-0.118,1.474-0.184,2.078-0.194
	c3.32-0.058,14.094,0.929,12.179-4.935c-4.018,2.793-10.523,1.275-14.786,3.353c-0.022,0.011-0.044,0.018-0.066,0.027
	c0.194,0.385,0.393,0.769,0.568,1.163C331.194,365.469,331.19,365.665,331.127,365.844z M363.979,345.963
	c0.314-0.487,1.168-1.029,1.817-1.03c6.316-0.008,29.152,0.731,29.01-9.083c-0.192-13.246-21.854-11.836-32.123-11.553
	C362.747,331.482,363.244,338.729,363.979,345.963z M330.063,281.625c1.381,2.848,3.247,5.412,5.065,8.093
	c1.489,2.195,3.909,4.844,4.444,7.528c0.738,3.698-2.826,4.309-5.396,5.8c-10.376,6.021-0.16,13.94,1.394,21.524
	c1.119,5.457-1.774,9.456-4.526,13.744c0.591-0.241,1.186-0.47,1.786-0.682c2.859-2.336,11.461-4.917,13.3-0.338
	c1.115,2.775-0.869,5.176-3.645,7.077c0.344,1.79,1.133,3.357,2.033,4.905c4.233-3.623,11.776,0.456,17.043,1.563
	c-1.019-8.955-1.754-17.954-1.802-26.872c-0.001-0.219,0.13-0.416,0.332-0.582c0.385-0.428,1.104-0.84,1.667-0.843
	c8.215-0.04,16.954-0.839,24.926,1.63c4.918,1.523,13.088,6.151,10.819,12.699c-1.939,5.594-8.882,7.343-14.046,8.383
	c-6.149,1.238-12.493,1.46-18.75,1.468c-0.322,0-0.532-0.051-0.668-0.132c0.864,8.342,2.033,16.66,3.232,24.835
	c0.439,2.991,0.903,5.982,1.399,8.97c0.129,0,0.242,0.015,0.326,0.05c7.582,3.188,17.574-0.104,25.063-2.217
	c8.022-2.264,16.608-4.208,23.653-8.841c13.593-8.94,21.697-27.399,15.553-43.33c-3.173-8.228-10.081-13.234-17.039-18.172
	c-7.632-5.416-15.841-10.253-24.625-13.561C371.9,286.906,351.118,282.394,330.063,281.625z M333.504,245.776
	c-1.387-5.205-8.127-6.476-13.112-7.431c-3.473,3.488-8.173,7.359-11.129,3.979c-1.488-1.701-1.415-4.323-0.987-6.681
	c-0.141-0.004-0.283-0.01-0.417-0.04c-2.887-0.651-5.774-1.306-8.653-1.992c-0.061-0.015-0.104-0.033-0.155-0.051
	c-0.959,0.558-1.913,1.115-2.848,1.677c-3.034,1.824-6.662,3.901-10.27,2.495c-2.719-1.06-2.019-4.405-0.249-8.019
	c-0.583,0.299-1.338,0.42-1.81,0.134c-2.413-1.466-4.914-2.099-7.291-2.026c-1.438,7.246-4.632,14.061-5.631,21.414
	c-0.369,2.719-0.424,5.734-0.01,8.647c5.484-1.812,9.512-13.212,16.078-12.405c3.299,0.405,6.223,2.684,6.967,6.08
	c0.816,3.729,4.595,17.008,10.963,10.537c6.705-6.812,12.72-14.448,22.602-16.343c0.737-0.142,1.25,0.112,1.491,0.477
	C330.451,245.964,331.992,245.771,333.504,245.776z M301.651,232.053c2.35,0.557,4.704,1.094,7.059,1.626
	c0.062-0.244,0.124-0.482,0.184-0.708c0.624-2.34,1.376-4.634,2.258-6.884C308.141,228.241,304.89,230.176,301.651,232.053z
	 M289.51,226.938c-0.694,1.148-1.296,2.308-1.73,3.438L289.51,226.938z M276.954,225.674c3.002-0.098,6.146,0.685,9.159,2.515
	c0.111,0.067,0.188,0.14,0.252,0.214c1.666-3.048,3.882-6.113,5.287-8.021c-2.025,0.439-8.413,2.389-14.485,3.504
	C277.111,224.485,277.039,225.082,276.954,225.674z M267.497,257.662c-0.604-9.383,4.372-20.592,6.208-29.396
	c-4.072,1.168-7.431,4.527-8.781,9.358c-1.425,5.103-3.982,15.671,1.51,19.444C266.796,257.317,267.149,257.504,267.497,257.662z
	 M296.931,278.16c3.333,4.129,1.92,10.221,1.871,15.127c2.932,10.307,18.902,5.125,22.073-3.381
	c0.052-0.141,0.185-0.266,0.361-0.375c-0.774-5.437-1.171-11.246,0.316-16.56c-0.073-0.114-0.147-0.227-0.22-0.342
	c-0.294-0.468,0.118-0.913,0.706-1.188c0.042-0.117,0.078-0.237,0.122-0.354c0.914-2.413,2.976-2.187,5.109-2.891
	c5.536-1.828,11.211-6.979,11.715-13.131c0.606-7.402-6.195-8.423-12.09-6.921c-0.321,0.082-0.577,0.087-0.8,0.063
	c-7.893,2.335-13.1,8.943-18.723,14.727c-2.718,2.796-6.755,4.27-10.144,1.447c-1.989-1.656-3.645-3.658-4.667-6.064
	c-1.292-3.043-0.807-7.859-3.947-9.812c-2.39-1.485-4.982,0.134-7.477,2.541c0.939-0.478,2.497-0.501,2.252,0.283
	c-0.592,1.892-1.516,3.675-2.016,5.596c-0.196,0.754-0.484,1.717-0.184,2.482c0.395,1.01,1.538,0.717,2.383,0.522
	c1.747-0.401,2.171,1.094,0.401,1.5c-2.071,0.476-5.782,0.939-5.799-2.152c-0.015-2.641,1.532-5.119,2.307-7.582
	c-2.708,2.766-5.268,6.234-7.288,7.375c-0.562,0.318-1.202,0.592-1.882,0.803c1.166,5.145,4.019,9.646,9.62,11.096
	C286.454,272.398,293.087,273.396,296.931,278.16z M256.897,379.807c1.222-4.51,2.45-9.017,3.708-13.516
	c7.369-26.367,20.058-51.542,35.04-74.419c0.073-0.112,0.206-0.213,0.369-0.303c0.227-3.528,0.608-7.458-0.742-10.581
	c-0.067,0.076-0.148,0.154-0.244,0.231c-4.746,3.831-10.679,6.591-15.047,10.829c-3.576,3.471,1.607,6.796,3.28,10.18
	c0.039,0.078,0.063,0.156,0.082,0.232c0.211,0.313,0.151,0.72-0.431,1.128c-0.003,0.002-0.006,0.004-0.009,0.006
	c-0.078,0.065-0.163,0.125-0.253,0.179c-10.062,7.068-23.963,17.8-25.297,30.945C255.83,349.713,256.613,364.769,256.897,379.807z
	 M380.327,427.782c-4.95-6.721-7.508-15.283-9.608-23.226c-1.911-7.227-3.427-14.553-4.697-21.92
	c-1.606,1.049-3.579,2.053-5.751,2.905c3.453,5.529,6.398,15.326-1.813,17.546c-9.112,2.462-17.946-8.91-19.244-16.867
	c-0.025-0.156,0.075-0.308,0.248-0.443c-0.75-0.543-1.417-1.191-1.982-1.958c-0.144-0.194-0.117-0.392,0.009-0.575
	c-3.314-0.671-6.28-2.426-8.061-5.584c-0.314-0.557-0.005-1.066,0.503-1.391c-1.646-0.567-3.114-1.34-4.225-2.363
	c-4.197-3.869-0.956-6.312,2.814-7.467c-0.133-0.104-0.242-0.237-0.316-0.404c-2.062-4.653-5.601-8.521-6.948-13.5
	c-3.468,0.602-6.435,0.393-7.039-1.861c-0.727-2.713,4.859-5.863,6.555-6.916c1.958-1.215,3.974-2.408,6.047-3.483
	c1.618-2.798,3.839-5.461,5.135-8.409c1.877-4.271,0.566-7.639-1.544-11.564c-2.349-4.37-5.429-9.498-2.952-14.418
	c0.851-1.689,2.896-3.184,4.473-4.098c2.292-1.33,6.068-1.991,4.003-5.434c-3.556-5.926-8.558-11.206-10.3-18.033
	c-0.022-0.087-0.032-0.172-0.03-0.254c-0.604-0.531-1.18-1.136-1.73-1.81c-0.777,4.958-0.169,9.929,0.62,14.866
	c0.012,0.075,0.003,0.148-0.017,0.22c-0.006,0.087-0.024,0.18-0.061,0.282c-4.044,11.336-7.299,22.904-10.034,34.62
	c-0.272,1.165-3.223,1.571-2.921,0.275c2.588-11.088,5.668-22.026,9.397-32.78c-6.643,6.76-21.051,10.396-24.612,1.371
	c-14.149,22.145-25.958,46.279-32.975,71.59c-5.626,20.298-10.913,40.692-16.193,61.083c18.686,0,37.371,0,56.057,0
	c2.426-30.168,0.863-60.623,6.119-90.537c0.06-0.339,0.729-0.627,1.406-0.764c-1.588-0.86-2.889-2.165-3.16-3.938
	c-0.5-3.273,3.023-4.857,5.726-5.287c3.205-0.509,6.605,0.809,7.702,4.115c1.068,3.223-0.972,5.372-3.965,6.234
	c-0.553,0.159-0.941,0.133-1.179,0.023c-0.33,0.075-0.671,0.105-0.992,0.08c-0.855-0.068-1.807-0.271-2.735-0.605
	c-5.208,29.964-3.585,60.473-6.084,90.679C330.757,427.782,355.542,427.782,380.327,427.782z M317.769,331.537
	c-1.063-2.012-3.202-3.559-5.542-2.812c-1.981,0.633-2.312,2.781-1.302,4.409c1.227,1.977,3.432,3.014,5.693,3.195
	c0.065,0.006,0.101,0.031,0.154,0.045C318.711,335.694,318.568,333.05,317.769,331.537z M482.677,230.93c0,3.961,0,7.923,0,11.884
	c1.49,0,2.979,0,4.469,0c-0.05-0.033-0.084-0.073-0.084-0.124c0-3.661,0-7.322,0-10.982c0-0.107,0.045-0.207,0.122-0.301
	c0.046-0.498,1.185-1.292,1.94-1.306c6.762-0.124,11.517-8.469,12.189-14.438c0.549-4.88-0.525-10.488-4.016-14.167
	c-5.611-5.913-13.503-6.793-21.175-5.498c-4.749,0.803-9.244,2.975-11.001,7.812c-1.718,4.729-2.35,10.654-0.562,15.459
	c2.54,6.826,8.875,10.814,15.863,11.782C481.277,230.664,482.677,230.564,482.677,230.93z M476.254,370.422
	c-0.986,1.553-1.928,3.134-2.79,4.762c9,0,18.001,0,27.001,0c2.508-1.252-0.194-3.958-1.654-4.732
	c-0.017-0.009-0.024-0.02-0.04-0.029C491.266,370.422,483.76,370.422,476.254,370.422z M492.993,421.82
	c-0.012-0.197,0.138-0.374,0.368-0.525c0-9.007,0-18.014,0-27.021c0-0.016,0-0.032,0-0.048c-0.019,0.016-0.034,0.032-0.054,0.048
	c-0.43,0.343-1.215,0.686-1.668,0.686c-7.94,0-15.88,0-23.821,0c-0.927,11.063,1.553,22.118,6.418,32.691
	c0.021,0.044,0.027,0.088,0.033,0.132c5.167,0,10.333,0,15.5,0C491.843,426.585,493.142,424.343,492.993,421.82z M471.057,427.782
	c-4.71-10.463-7.231-21.7-6.229-32.823c-6.65,0-13.301,0-19.952,0c0,8.928,0,17.855,0,26.784c0.185,3.228,2.417,5.187,5.431,6.039
	C457.224,427.782,464.14,427.782,471.057,427.782z M493.506,376.662c-6.931,0-13.862,0-20.793,0
	c-0.45,0.924-0.877,1.861-1.259,2.825c-1.852,4.674-2.975,9.387-3.491,14.101c8.292,0,16.584,0,24.876,0
	c0.231,0,0.399,0.021,0.521,0.055c0-5.533,0-11.064,0-16.598C493.361,376.907,493.416,376.779,493.506,376.662z M470.793,375.184
	c0.879-1.62,1.827-3.202,2.81-4.762c-12.592,0-25.184,0-37.775,0c-0.109,0-0.201-0.006-0.286-0.015
	c-2.184,0.674-0.976,4.485,1.109,4.349c0.325-0.021,1.186-0.033,1.257,0.428C448.87,375.184,459.832,375.184,470.793,375.184z
	 M444.876,376.662c0,5.651,0,11.304,0,16.955c0.09-0.018,0.176-0.029,0.25-0.029c6.621,0,13.241,0,19.862,0
	c0.54-4.637,1.679-9.248,3.56-13.766c0.448-1.076,0.944-2.126,1.468-3.16C461.637,376.662,453.256,376.662,444.876,376.662z
	 M492.45,427.782c8.133,0,16.266,0,24.398,0c0-61.245,0-122.491,0-183.736c-11.391,0-22.781,0-34.171,0c0,1.011,0,2.021,0,3.032
	c0,0.011-0.005,0.02-0.006,0.03c0.019,0.115-0.006,0.253-0.086,0.416c-4.812,9.791-11.609,19.233-12.922,30.338
	c-1.177,9.946,0.817,20.098,4.948,29.188c3.922,8.632,11.149,15.898,14.084,24.931c2.444,7.521,0.61,14.494-2.362,21.602
	c-2.31,5.522-5.854,10.354-9.126,15.36c7.396,0,14.792,0,22.187,0c0.534-0.233,1.181-0.299,1.689-0.029
	c0.017,0.009,0.034,0.021,0.051,0.029c0.167,0,0.334,0,0.501,0c0.921,0,0.924,0.33,0.572,0.678c1.069,0.786,2.048,1.883,2.154,3.164
	c0.157,1.9-1.095,3.077-2.705,3.862c-0.474,0.23-1.307,0.364-1.789,0.015c-1.203,0-2.405,0-3.608,0c0,15.283,0,30.567,0,45.852
	c0,0.294-0.241,0.543-0.58,0.734c-0.453,1.775-1.58,3.179-3.054,4.233c-0.146,0.104-0.3,0.202-0.453,0.301
	C492.264,427.782,492.357,427.782,492.45,427.782z M484.928,203.644c0.098-0.289,0.498-0.522,0.969-0.675
	c-0.119-0.05-0.21-0.129-0.245-0.256c-0.14-0.523,0.964-0.9,1.292-0.974c1.708-0.382,4.061-0.494,5.412,0.881
	c1.41,1.436,0.629,3.257-0.663,4.48c-1.331,1.261-3.905,2.119-5.552,0.943C484.748,207.048,484.4,205.205,484.928,203.644z
	 M487.632,202.869c0.152,0.069,0.228,0.179,0.174,0.337c-0.353,1.043-0.31,2.392,0.468,3.259c0.208,0.231,0.493,0.523,0.813,0.641
	c0.05-0.041,0.104-0.074,0.15-0.119c0.199-0.213,0.402-0.43,0.561-0.676c0.534-0.828,0.647-1.923-0.154-2.631
	C489.128,203.224,488.361,202.854,487.632,202.869z M480.641,215.689c1.572,1.538,1.246,3.666-0.511,4.934
	c-2.152,1.551-5.419,2.229-7.759,0.617c-2.173-1.497-2.008-3.883-0.433-5.779c0.127-0.153,0.299-0.269,0.49-0.356
	c-0.009-0.063-0.017-0.128-0.009-0.197c0.086-0.768,0.946-1.087,1.592-1.187C476.302,213.368,478.961,214.046,480.641,215.689z
	 M477.392,216.576c-0.853-0.496-1.787-0.748-2.748-0.752c-0.03,0.157-0.113,0.331-0.273,0.523c-2.402,2.891,2.383,5.024,4.179,2.571
	C479.231,217.989,478.146,217.015,477.392,216.576z M59.355,326.553c-0.306-3.021,2.919-4.122,5.383-4.016
	c0.017,0.001,0.032,0.006,0.049,0.008c0.324-0.222,0.739-0.348,1.082-0.388c2.428-0.287,5.419,0.866,4.813,3.839
	c-0.566,2.775-3.154,4.637-5.932,4.668C62.308,330.691,59.623,329.196,59.355,326.553z M62.395,326.507
	c0.411,1.171,1.606,2.176,2.903,2.092c1.321-0.085,2.366-1.25,2.482-2.563c0.129-1.471-0.852-1.975-2.185-1.816
	c-0.131,0.016-0.281,0.011-0.432-0.014c-0.41,0.292-0.96,0.406-1.443,0.386C62.497,324.538,61.98,325.322,62.395,326.507z
	 M73.103,394.111c-0.306-3.022,2.919-4.123,5.383-4.016c0.016,0.001,0.032,0.006,0.048,0.007c0.325-0.222,0.74-0.347,1.083-0.388
	c2.428-0.287,5.42,0.866,4.813,3.839c-0.566,2.776-3.154,4.636-5.932,4.667C76.056,398.248,73.371,396.754,73.103,394.111z
	 M76.143,394.064c0.411,1.171,1.606,2.175,2.903,2.092c1.321-0.086,2.366-1.25,2.482-2.563c0.129-1.471-0.852-1.975-2.185-1.816
	c-0.131,0.016-0.281,0.01-0.432-0.014c-0.41,0.291-0.96,0.406-1.443,0.385C76.245,392.096,75.728,392.88,76.143,394.064z
	 M86.346,381.234c-0.306-3.022,2.919-4.123,5.383-4.016c0.016,0.001,0.032,0.006,0.048,0.007c0.325-0.222,0.74-0.347,1.083-0.388
	c2.428-0.287,5.42,0.866,4.813,3.839c-0.566,2.776-3.154,4.636-5.932,4.667C89.299,385.371,86.614,383.877,86.346,381.234z
	 M89.386,381.188c0.411,1.171,1.606,2.175,2.903,2.092c1.321-0.086,2.366-1.25,2.482-2.563c0.129-1.471-0.852-1.975-2.185-1.816
	c-0.131,0.016-0.281,0.01-0.432-0.014c-0.41,0.291-0.96,0.406-1.443,0.385C89.488,379.219,88.971,380.003,89.386,381.188z
	 M98.903,419.41c-5.856,10.504-22.459,10.843-29.323,1.2c-0.19-0.268-0.206-0.528-0.117-0.765c-1.09-0.091,1.385-1.237,2.005-1.237
	c2.757,0,5.515,0,8.271,0c-2.894-3.019,2.893-7.181,4.405-9.994c0.274-0.511,2.829-1.579,2.89-0.599
	c0.175,2.815,3.815,3.904,5.347,5.875c1.481,1.905,0.37,3.488-1.163,4.718c1.786,0,3.572,0,5.357,0
	C97.598,417.969,99.581,418.193,98.903,419.41z M83.509,418.608c1.67,0,3.341,0,5.012,0c4.136-3.064-1.104-4.86-3.406-7.642
	c-0.721,0.891-1.48,1.754-2.187,2.68c-1.443,1.891-1.675,3.338,0.524,4.68C83.57,418.398,83.578,418.498,83.509,418.608z
	 M95.733,419.646c-0.332,0.123-0.636,0.208-0.803,0.208c-1.858,0-3.717,0-5.576,0c-0.6,0.231-1.607,0.245-1.946,0
	c-4.914,0-9.828,0-14.742,0C78.261,426.885,90.666,427.611,95.733,419.646z" fill="#0a1230"></path>
</svg>