<?xml version="1.0" standalone="no"?>
<svg version="1.1" id="Layer_1" xmlns="http://www.w3.org/2000/svg" xmlns:xlink="http://www.w3.org/1999/xlink" x="0px" y="0px" width="595.279px" height="595.281px" viewBox="0 0 595.279 595.281" enable-background="new 0 0 595.279 595.281" xml:space="preserve">
<path id="color_x5F_2" fill="#6c63ff" d="M360.076,365.078c-3.104,3.707-11.618,2.975-15.678,5.653
	c-2.413,1.593-4.266,3.938-6.72,5.429c-1.042,0.633-2.244,0.713-3.478,0.459c-0.067-0.074-0.136-0.154-0.202-0.229
	c-0.175-0.195-0.59-0.213-1.046-0.131c-2.555-0.943-5.068-3.031-6.443-4.5c-7.445-7.947-7.915-24.938,1.087-31.959l1.401-0.461
	c0.016,0.492,0.063,0.98,0.193,1.453c0.646,2.328,2.421,4.559,3.295,6.881c1.088,2.895,2.251,5.759,3.421,8.617
	c1.859,4.547,5.183,7.26,9.901,8.75C350.375,366.48,355.264,366.225,360.076,365.078z M479.823,329.483
	c0.102,7.271-9.532,8.838-14.946,10.138c-4.388,1.053-7.95,2.766-10.591,6.572c-0.922,1.328-1.837,2.395-3.123,2.98
	c5.718,8.92,24.423,20.639,28.01,4.504c0.924-4.156,1.203-8.416,2.025-12.563C482.178,336.178,482.139,332.774,479.823,329.483z
	 M443.809,257.282c-2.189-0.13-4.385-0.263-6.581-0.261c-3.771,0.005-7.886,0.004-11.468,1.338c-4.014,1.494-5.018,3.469-4.313,7.3
	c0.535,2.912,1.194,5.801,1.914,8.672c1.292,5.155,2.486,10.535,4.458,15.497c7.409-0.487,14.838-0.054,22.256,0.042
	c-0.101-8.177-2.495-16.343-4.264-24.259C445.621,264.755,444.464,257.321,443.809,257.282z M269.118,262.242l-3.296,0.672
	c1.655-0.197,3.315-0.339,4.98-0.409L269.118,262.242z M245.304,268.185c-0.021,0.03-0.034,0.057-0.059,0.088
	c-3.898,4.832-7.519,12.938-1.969,17.811c9.367-0.404,18.731-0.304,28.084,0.261c-1.25-1.717-2.225-3.833-2.835-6.379
	c-1.258-5.251-1.449-11.303,3.033-15.155c0.438-0.376,0.894-0.725,1.354-1.061C263.582,263.472,254.336,266.071,245.304,268.185z
	 M355.792,194.258c3.34,0.822,5.134-1.542,6.148-4.305c-5.227,1.73-10.255-3.342-12.935-7.45
	c-2.755-4.224-6.161-11.489-1.877-15.285c-6.55,5.125-4.97,14.409,0.095,20.678C349.409,190.6,352.306,193.399,355.792,194.258z
	 M340.157,179.126l-0.076,0.265c0,0,0.058,0.08,0.157,0.219C340.21,179.448,340.18,179.288,340.157,179.126z M376.901,200.757
	c-1.138,0.172-2.334,0.371-3.544,0.596c-3.826,0.863-7.354,2.381-10.902,4.709c-0.02,0.083-0.05,0.172-0.114,0.273
	c-5.293,8.451-3.567,18.808-3.418,28.285c2.735-0.321,5.456-0.229,8.081,0.508c1.779,0.499,3.409,1.259,4.929,2.193
	c-5.807-9.874-6.178-23.355,2.865-31.912c2.015-1.907,4.334-3.581,6.837-4.98c-0.101,0.021-0.196,0.036-0.275,0.037
	C379.809,200.483,378.336,200.589,376.901,200.757z M322.678,251.47c-1.878-4.628-2.015-9.851-0.408-14.564
	c-0.276,0.184-0.553,0.368-0.838,0.542c-0.016,0.173-0.085,0.366-0.237,0.583c-4.144,5.868-6.285,11.624-5.271,18.544
	c1.924-1.507,3.915-2.944,5.942-4.334L322.678,251.47z"></path>
<path id="color_x5F_1" d="M351.408,252.8c-9.253,6.048-19.266,10.652-29.322,15.181c-1.402,0.631-3.046-0.655-1.222-1.477
	c9.833-4.427,19.629-8.905,28.678-14.819C350.607,250.988,353.056,251.722,351.408,252.8z M338.118,269.971
	c-3.387,1.86-7.117,2.873-10.668,4.353c-1.892,0.788-0.115,1.321,1.05,0.836c3.776-1.573,7.729-2.668,11.332-4.647
	C341.53,269.581,338.881,269.552,338.118,269.971z M344.646,266.373c0.453,0.59,1.378,0.437,1.963,0.195
	c2.743-1.133,5.281-2.667,7.82-4.19c0.523-0.313,0.733-1.081,0.167-1.457c-0.646-0.43-1.474-0.175-2.075,0.186
	c-2.328,1.396-4.666,2.771-7.18,3.81C344.826,265.129,344.216,265.811,344.646,266.373z M355.054,271.23
	c-6.984,4.187-14.558,7.222-22.299,9.692c-1.716,0.548-1.306,2.197,0.438,1.64c8.237-2.628,16.271-5.855,23.701-10.308
	C358.58,271.245,356.081,270.614,355.054,271.23z M365.572,278.799c-8.356,4.942-17.021,10.754-27.038,11.108
	c-1.085,0.039-3.072,1.738-1.12,1.67c11.163-0.395,20.616-6.365,29.962-11.892C369.064,278.686,366.522,278.237,365.572,278.799z
	 M179.233,410.196c-9.983,0.123-19.688,2.032-29.419,4.114c-1.75,0.375-1.396,1.563,0.32,1.195
	c9.237-1.978,18.433-3.77,27.913-3.885C178.981,411.608,181.18,410.174,179.233,410.196z M520.031,403.563
	c-12.144,0.676-24.913,1.15-36.982-0.67c-7.222-1.09-14.49-1.698-21.792-1.873c-5.387-0.127-11.966,0.916-17.233-0.512
	c-2.879-0.779-5.506-2.088-8.308-3.08c-5.114-1.81-9.463-0.297-13.702,2.582c-2.885,1.961-6.072,4.123-9.611,4.647
	c-10.937,1.625-21.221-4.64-32.005-2.87c-3.254,4.32-7.027,8.34-11.25,11.615c-2.808,2.181-8.417,6.441-12.175,3.869
	c-2.771-1.896-2.771-5.914-2.008-9.834c-6.572-0.365-14.073,1.021-20.413-0.98c-2.309-0.729-2.786-1.949-4.277-3.66
	c-0.98-1.125-4.397-3.494-5.293-0.91c-0.228,0.658-0.411,1.543-0.857,2.094c-2.403,2.961-7.45,3.795-11.021,4.24
	c-6.896,0.855-13.751,0.211-20.63-0.496c-18.335-1.885-36.813,0.479-55.048,2.674c-15.353,1.85-30.663,4.023-45.992,6.056
	c-2.412,1.572-6.206,2.446-8.707,2.542c-1.947,0.075,0.185-1.471,1.163-1.509c0.689-0.026,1.414-0.138,2.124-0.319
	c-0.672,0.088-1.343,0.18-2.015,0.266c-1.883,0.242,0.609-0.967,1.285-1.053c1.23-0.158,2.46-0.328,3.69-0.49
	c2.067-1.385,2.825-3.496-0.447-5.621c-2.938-1.91-5.742-2.656-9.244-2.621c-4.785,0.047-9.454,0.775-14.193,1.318
	c-6.008,0.689-12.43,1.41-18,3.897c-2.679,1.196-12.215,8.851-3.288,6.729c0.885-0.209,1.405,0.027,1.474,0.363
	c0.396-0.205,0.796-0.398,1.187-0.619c0.722-0.41,3.375-0.479,1.694,0.473c-10.467,5.929-23.089,6.703-34.854,6.74
	c-13.221,0.041-26.376-1.611-39.59-1.682c-1.46-0.007,1.206-1.26,1.859-1.257c11.155,0.06,22.271,1.304,33.421,1.59
	c10.942,0.281,23.012,0.407,33.343-3.864c-1.932,0.442-4.357,0.762-5.32-0.738c-1.038-1.614,1.907-4.256,2.926-5.116
	c7.19-6.067,17.538-6.894,26.48-8.085c7.422-0.988,18.394-3.594,24.808,1.779c3.037,2.543,2.971,4.631,1.491,6.219
	c15.327-2.039,30.634-4.234,45.989-6.053c15.495-1.834,31.925-4.568,47.554-3.455c8.729,0.623,17.786,2.562,26.536,1.475
	c3.253-0.404,7.883-0.742,9.1-4.256c0.251-0.725,0.477-1.229,0.967-1.818c0.675-0.813,2.016-1.074,2.966-1.335
	c3.871-1.058,6.125,0.677,8.381,3.493c2.675,3.341,8.186,2.781,12.058,2.746c2.988-0.026,5.967-0.047,8.947,0.074
	c0.507-2.192,1.189-4.275,1.699-5.865c-10.778-3.924-18.147-14.625-25.521-22.854c-1.595-0.361-3.176-1.061-4.682-2.156
	c-11.545-8.396-12.006-30.295,1.065-37.44c0.286-0.157,0.827-0.246,1.311-0.251c0.864-5.25,6.483-11.018,9.659-13.965
	c5.325-4.941,11.202-9.139,17.077-13.387c0.083-0.432,0.813-0.818,1.54-0.926c0.079-0.104,0.163-0.201,0.267-0.279
	c-3.15-2.598-5.868-5.57-7.354-9.375c-2.391,0.4-4.777,0.615-7.141,0.563c-8.597-0.187-15.102-5.524-20.286-11.969
	c-4.62,1.725-8.669,1.139-12.014-0.954c-5.363,2.77-11.458,3.465-16.771,1.914c-6.973,3.78-15.14,4.008-20.492-0.581
	c-10.367-0.742-20.743-0.898-31.127-0.426c-0.017,0.001-0.029-0.002-0.045-0.001c-4.129,3.45-9.766,6.46-15.218,4.488
	c-4.372-1.581-7.427-5.548-8.661-9.956c-2.954-10.554,3.298-19.596,14.514-18.912c0.328,0.02,0.552,0.101,0.704,0.216
	c0.889-0.778,1.94-1.371,3.189-1.675c3.536-0.861,5.886,1.608,7.18,4.583c0.345-0.032,0.685,0,0.944,0.1
	c6.836-1.596,13.766-3.414,20.768-4.246c1.655-0.197,3.315-0.339,4.98-0.409c1.346-0.057,2.694-0.07,4.044-0.025
	c3.186-1.875,6.742-3.047,10.326-4.076c0.752-0.216,1.202-0.129,1.345,0.068c4.366-4.167,10.646-6.983,16.834-8.408
	c2.49-4.532,6.566-7.714,12.458-8.16c0.397-0.761,0.824-1.518,1.288-2.273c-12.442,5.245-29.117,3.922-39.493-4.497
	c-10.365-8.41-15.238-22.594-12.296-35.644c1.868-8.285,6.408-14.931,12.582-19.756c-0.017-0.022-0.022-0.049-0.009-0.079
	c5.518-11.757,17.037-20.464,29.481-23.811c14.591-3.924,28.882-0.779,40.08,9.415c0.82-0.428,3.448-0.271,1.733,0.635
	c-0.174,0.092-0.337,0.19-0.503,0.286c0.138-0.07,0.274-0.144,0.422-0.208c4.986-2.231,11.261,2.572,13.898,6.438
	c0.003,0.004,0.003,0.008,0.005,0.012c0.038,0.042,0.069,0.088,0.091,0.142c1.329,3.285,4.089,9.97,2.521,14.117
	c-0.674,3.079-2.026,6.13-4.524,7.826c0.001,0.006,0.004,0.01,0.005,0.015c0.68,4.15-0.014,8.305-1.765,11.985
	c0.044-0.031,0.088-0.06,0.131-0.09c0.054-0.088,0.097-0.179,0.151-0.267c0.207-0.33,0.717-0.56,1.249-0.662
	c6.688-4.264,13.568-6.193,21.732-6.276c0.683-0.007,0.827,0.148,0.699,0.352c5.783-2.856,12.396-4.232,18.636-3.438
	c11.425,1.456,17.675,9.83,18.165,21.065c0.008,0.173-0.073,0.332-0.205,0.474c2.035-0.417,4.122-0.522,6.21-0.2
	c7.849,1.216,12.731,7.365,15.932,14.171c5.568,0.771,10.673,3.512,13.533,9.003c4.201,8.063,1.486,16.216-6.265,20.729
	c-0.436,0.253-0.876,0.28-1.238,0.171c2.3,9.529,5.06,19.319,4.966,29.028c1.67,3.644,3.262,8.181,3.962,12.737
	c0.034,0.022,0.07,0.04,0.102,0.065c7.021,5.988,18.456,12.139,21.812,21.512c0.174,0.021,0.324,0.066,0.429,0.154
	c0.913,0.769,1.856,1.604,2.708,2.521c0.278-0.007,0.512,0.04,0.631,0.173c9.126,10.084,22.258,14.573,33.333,22
	c0.147,0.1,0.035,0.27-0.213,0.448c0.185,0.123,0.304,0.308,0.308,0.569c0.171,13.713,3.7,30.371-9.561,39.688
	c-9.028,6.344-11.313-8.271-11.357-14.492c-0.238,0.047-0.476,0.051-0.693-0.008c-9.741-2.717-18.535-7.279-27.281-12.26
	c-0.211-0.12-0.332-0.258-0.395-0.4c-7.581-1.494-15.334-8.014-18.732-13.625c-4.699-0.32-9.731-4.228-13.617-6.119
	c-6.923-3.371-14.09-6.178-21.127-9.293c-2.598,2.547-5.696,4.328-9.503,4.695c-7.906,7.213-16.749,13.711-26.145,18.818
	c-1.976,1.073-4.109,2.18-6.34,3.225c5.629,6.85,11.343,13.563,15.374,21.494c0.239,0.076,0.443,0.219,0.578,0.445
	c2.576,4.354-1.314,10.568-3.623,14.174c-0.736,1.148-1.521,2.281-2.327,3.404c3.558-0.557,7.105-0.539,10.732,0.148
	c7.056,1.34,16.551,5.535,23.448,1.801c3.958-2.143,7.482-5.607,11.891-6.857c4.264-1.207,7.977-0.502,12.044,1.188
	c3.639,1.513,6.887,2.813,10.917,2.817c3.063,0.004,6.13,0.004,9.194,0.061c7.199,0.129,14.422,0.424,21.563,1.403
	c13.304,1.825,26.716,1.948,40.113,1.205C523.178,402.146,520.878,403.516,520.031,403.563z M277.378,202.909
	c0-1.81-2.808-1.81-2.808,0v3.333c0,1.81,2.808,1.81,2.808,0V202.909z M401.225,338.955c-0.303-0.021-0.605-0.041-0.917-0.08
	c-6.463-0.783-13.107-4.08-18.606-8.6c-6.479,4.289-13.362,7.939-19.79,12.308c-7.051,4.792-14.788,10.459-17.5,18.927
	c-0.051,0.156-0.198,0.295-0.401,0.416c0.75,0.492,1.551,0.934,2.455,1.271c4.711,1.76,9.712,1.566,14.617,0.334
	c0.435-0.363,1.367-0.576,2.011-0.563c5.707-1.758,11.208-4.768,15.882-7.57C386.864,350.668,394.414,345.162,401.225,338.955z
	 M413.892,330.215c2.655-4.045,4.746-8.371,6.729-12.775c0.081-0.182,0.264-0.336,0.497-0.462c-0.364-0.325-0.698-0.681-0.952-1.087
	c-4.84-7.764,1.699-17.508,4.953-24.788c-1.952-4.757-3.137-9.947-4.383-14.917c-0.048-0.193-0.106-0.399-0.159-0.597
	c-3.714,7.289-9.59,13.762-17.306,16.791c-0.63,0.248-1.295,0.116-1.7-0.171c-0.126-0.022-0.229-0.066-0.293-0.139
	c-2.842-3.152-5.734-6.3-8.389-9.62c-1.799,1.571-3.873,2.858-5.364,4.732c2.34,2.605,4.647,5.261,7.11,7.749
	c0.075,0.076,0.125,0.152,0.161,0.229c0.028,0.049,0.045,0.101,0.055,0.156c0,0.003,0.001,0.005,0.002,0.008
	c0.007,0.047,0.005,0.097-0.002,0.148c-0.002,0.024-0.005,0.048-0.011,0.072c-0.006,0.022-0.016,0.045-0.025,0.069
	c-0.021,0.055-0.047,0.108-0.083,0.161c-0.007,0.01-0.014,0.021-0.021,0.031c-0.032,0.044-0.067,0.086-0.108,0.128
	c-0.025,0.029-0.043,0.057-0.074,0.087c-5.044,4.997-11.344,9.449-18.277,11.24c-1.051,0.273-1.671-0.314-1.649-0.941
	c-0.262-0.006-0.491-0.063-0.64-0.191c-2.573-2.229-5.146-4.461-7.719-6.691c-1.66,0.734-3.32,1.469-4.979,2.201
	c2.2,2.092,4.586,3.986,6.748,6.117c0.161,0.158-0.163,0.426-0.639,0.658c0.018,0.035,0.042,0.063,0.053,0.104
	c0.172,0.642-0.795,1.039-1.238,1.175c-2.304,0.702-4.733,0.752-7.131,0.754c1.024,2.059,2.238,4.484,4.316,5.563
	c3.056,1.586,6.839,1.052,10.126,0.723c0.485-0.049,0.797,0.018,0.972,0.146c7.297-1.969,15.949-3.797,22.069-7.996
	c0.491-0.338,3.391-0.762,2.209,0.049c-6.747,4.629-16.093,6.627-24.081,8.799c0.033,0.039,0.066,0.076,0.092,0.122
	c4.706,8.769,14.734,16.548,24.446,18.825c4.841,1.137,8.5,0.117,11.544-2.674c-0.037-0.041-0.073-0.082-0.102-0.131
	c-0.288-0.521-0.56-1.043-0.825-1.568c-4.322-8.494-5.931-17.616-6.247-27.069c-0.032-0.954-0.056-1.909-0.063-2.87
	c-0.009-1.246,2.919-1.725,2.93-0.242c0.075,10.135,1.476,19.959,6.082,29.008c0.095,0.019,0.188,0.045,0.275,0.086
	c0.101,0.045,0.203,0.088,0.304,0.133C413.368,330.984,413.633,330.609,413.892,330.215z M450.076,289.871
	c-0.101-8.177-2.495-16.343-4.264-24.259c-0.19-0.856-1.349-8.29-2.004-8.329c-2.189-0.13-4.385-0.263-6.581-0.261
	c-3.771,0.005-7.886,0.004-11.468,1.338c-4.014,1.494-5.018,3.469-4.313,7.3c0.535,2.912,1.194,5.801,1.914,8.672
	c1.292,5.155,2.486,10.535,4.458,15.497C435.229,289.341,442.658,289.774,450.076,289.871z M464.877,339.621
	c-4.388,1.053-7.95,2.766-10.591,6.572c-0.922,1.328-1.837,2.395-3.123,2.98c5.718,8.92,24.423,20.639,28.01,4.504
	c0.924-4.156,1.203-8.416,2.025-12.563c0.979-4.938,0.939-8.342-1.375-11.633C479.925,336.754,470.291,338.321,464.877,339.621z
	 M483.953,342.238c-0.687,5.635-0.962,12.881-4.918,17.279c-2.036,2.264-4.422,3.479-6.962,3.9
	c7.702,4.278,15.502,8.073,24.056,10.457c0.159,0.045,0.277,0.104,0.377,0.168c0.78-0.164,1.611-0.004,1.588,0.7
	c-0.129,4.046-0.188,10.136,2.654,13.5c4.146,4.909,9.436-4.504,10.842-7.935c3.888-9.486,1.718-19.344,1.594-29.246
	c-0.001-0.111,0.036-0.217,0.093-0.315c-9.192-6.164-19.795-10.313-28.354-17.312c0.006,0.113,0.019,0.225,0.02,0.338
	C484.973,336.633,484.297,339.414,483.953,342.238z M449.728,321.971c-8.009,4.166-18.976,1.309-26.021-3.645
	c-0.219-0.055-0.434-0.113-0.646-0.191c-2.109,4.688-4.555,10.01-7.916,14.108c5.854,2.569,11.813,4.905,17.599,7.626
	c4.924,2.316,10.345,6.505,15.799,7.404c2.628,0.434,3.886-3.055,5.509-4.717c1.896-1.941,4.423-3.4,7.014-4.188
	c6.042-1.838,18.669-2.391,15.219-11.906c-3.093-8.525-11.858-13.85-18.938-19.355C457.532,313.2,455.671,318.879,449.728,321.971z
	 M450.376,291.905c-7.574-0.079-15.162-0.544-22.728-0.057c-2.203,4.884-4.94,9.787-6.015,15.053c-0.567,2.78-0.532,6.229,1.7,8.38
	c3.668,3.535,4.619-1.934,3.856-4.654c-0.352-1.254,2.544-2.037,2.897-0.777c0.913,3.256,0.432,6.441-2.719,8.097
	c7.332,4.593,21.419,8.524,25.547-1.276C456.204,308.869,453.713,299.371,450.376,291.905z M440.142,233.667
	c-4.131-0.446-8.511,0.458-12.575,2.313c-7.107,3.246-15.144,8.771-18.057,16.401c-2.983,7.813,2.193,12.364,8.889,14.658
	c-0.261-1.519-0.4-3.018-0.278-4.429c0.35-4.044,5.887-6.289,9.22-6.947c6.101-1.205,12.286-0.913,18.456-0.531
	c0.388,0.023,0.876,0.311,0.961,0.719c0.277,1.316,0.578,2.639,0.89,3.966c0.097-0.086,0.204-0.171,0.34-0.25
	c7.313-4.256,8.869-13.429,3.368-19.949c-3.039-3.603-6.9-5.442-11.021-5.929C440.267,233.683,440.204,233.676,440.142,233.667z
	 M407.397,227.011c-7.02,8.147-10.468,20.812-1.678,28.334c0.197-1.314,0.637-2.704,1.371-4.169
	c4.392-8.773,13.566-15.435,22.782-18.396c2.784-0.894,5.79-1.386,8.765-1.383c-2.911-5.807-7.472-11.676-14.326-12.396
	C417.782,218.314,411.528,222.217,407.397,227.011z M375.905,207.044c-12.324,15.058,0.227,47.111,22.017,40.557
	c-1.689-8.526,3.315-18.495,10.515-24.251c2.656-2.124,5.768-3.971,9.081-5.056c-0.191-0.061-0.317-0.166-0.326-0.329
	c-0.416-9.51-5.139-18.44-15.278-20.117C392.772,196.337,381.896,199.725,375.905,207.044z M381.106,283.221
	c0.07-0.052,0.144-0.105,0.229-0.155c10.704-6.188,5.177-20.271,0.33-28.557c-4.938-8.439-9.914-19.276-21.767-17.853
	c-4.288,0.515-8.51,1.854-12.596,3.601c2.49-0.399,5.006-0.451,7.474,0.025c8.072,1.557,12.316,7.168,16.847,13.541
	C377.513,262.109,384.891,273.791,381.106,283.221z M361.94,189.954c-5.227,1.73-10.255-3.342-12.935-7.45
	c-2.755-4.224-6.161-11.489-1.877-15.285c-6.55,5.125-4.97,14.409,0.095,20.678c2.187,2.705,5.083,5.503,8.568,6.362
	C359.132,195.081,360.926,192.716,361.94,189.954z M373.357,201.353c-3.826,0.863-7.354,2.381-10.902,4.709
	c-0.02,0.083-0.05,0.172-0.114,0.273c-5.293,8.451-3.567,18.808-3.418,28.285c2.735-0.321,5.456-0.229,8.081,0.508
	c1.779,0.499,3.409,1.259,4.929,2.193c-5.807-9.874-6.178-23.355,2.865-31.912c2.015-1.907,4.334-3.581,6.837-4.98
	c-0.101,0.021-0.196,0.036-0.275,0.037c-1.55,0.016-3.023,0.121-4.458,0.29C375.688,200.9,374.507,201.094,373.357,201.353z
	 M352.691,182.883c1.443,1.986,3.044,3.85,5.298,4.957c1.368,0.672,3.661,1.971,4.563-0.523c0.428-1.184,0.565-2.304,0.428-3.572
	c-0.385-3.555-1.437-7.054-2.771-10.365c-1.59-2.216-8.77-9.204-11.186-5.417C346.061,172.606,349.897,179.038,352.691,182.883z
	 M281.797,177.04c1.292-0.777,2.644-1.476,4.034-2.115c3.955-2.345,8.225-3.999,12.701-5.096c0.343-0.084,0.607-0.107,0.826-0.103
	c0.096-0.02,0.179-0.033,0.235-0.032c15.055,0.215,32.124,6.865,38.809,21.373c5.78,12.541,2.918,26.739-5.767,36.787
	c5.044-2.979,9.629-6.807,14.214-10.382c0.563-0.438,3.463-0.738,2.252,0.207c-6.075,4.737-12.125,9.676-19.133,12.956
	c-0.778,0.731-1.587,1.436-2.434,2.104c-0.109,0.086-0.316,0.167-0.565,0.239c-0.412,0.427-0.836,0.843-1.273,1.244
	c0.186,0.055,0.282,0.149,0.217,0.292c-2.238,4.873-2.435,10.442-0.624,15.446c4.169-2.671,8.466-5.132,12.77-7.377
	c5.251-2.74,11.57-6.078,17.955-7.477c-0.124-9.285-1.674-19.296,2.905-27.74c-0.009-0.001-0.021-0.001-0.031-0.003
	c-1.381,2.597-3.292,4.929-5.635,6.808c-1.058,0.848-3.424,0.042-1.887-1.189c5.096-4.087,7.788-10.836,6.878-17.297
	c-0.194,0.039-0.386,0.082-0.589,0.108c-4.418,0.569-8.506-1.796-11.472-4.925c-3.083-3.253-5.252-7.27-5.944-11.258
	c-0.027-0.161-0.058-0.322-0.08-0.483c-0.667-4.651,0.712-9.222,5.051-12.457c-10.119-9.476-23.992-14.076-37.622-9.991
	C296.821,159.905,287.205,167.146,281.797,177.04z M322.678,251.47c-1.878-4.628-2.015-9.851-0.408-14.564
	c-0.276,0.184-0.553,0.368-0.838,0.542c-0.016,0.173-0.085,0.366-0.237,0.583c-4.144,5.868-6.285,11.624-5.271,18.544
	c1.924-1.507,3.915-2.944,5.942-4.334c0.292-0.201,0.577-0.411,0.872-0.609C322.715,251.58,322.7,251.523,322.678,251.47z
	 M322.475,220.645c0.766,0,1.403-0.639,1.403-1.403v-2.5c0-0.765-0.639-1.403-1.403-1.403c-0.764,0-1.402,0.639-1.402,1.403v2.5
	C321.072,220.007,321.71,220.645,322.475,220.645z M299.681,232.222c-6.132-1.788-10.894-4.379-15.048-9.306
	c-1.168-1.385-3.143,0.61-1.984,1.984c4.461,5.29,9.711,8.109,16.286,10.027C300.676,235.436,301.414,232.728,299.681,232.222z
	 M330.979,188.752c5.245,8.323,7.653,17.614,5.119,27.27c-0.636,2.426-1.493,4.836-2.559,7.154
	c5.648-9.395,7.184-21.251,1.965-31.333c-7.158-13.826-22.245-20.681-37.333-21.035c-1.349,0.351-2.669,0.755-3.958,1.229
	c0.02-0.003,0.04-0.007,0.06-0.01c0.159-0.043,0.308-0.07,0.428-0.07C308.788,171.968,323.057,176.181,330.979,188.752z
	 M320.072,206.242c-0.056,1.811,2.752,1.806,2.807,0c0.243-8.052-6.101-13.334-12.695-16.712c-1.606-0.822-3.026,1.599-1.416,2.423
	C314.458,194.869,320.284,199.194,320.072,206.242z M245.304,268.185c-0.021,0.03-0.034,0.057-0.059,0.088
	c-3.898,4.832-7.519,12.938-1.969,17.811c9.367-0.404,18.731-0.304,28.084,0.261c-1.25-1.717-2.225-3.833-2.835-6.379
	c-1.258-5.251-1.449-11.303,3.033-15.155c0.438-0.376,0.894-0.725,1.354-1.061C263.582,263.472,254.336,266.071,245.304,268.185z
	 M240.331,287.001c-5.146-5.22-2.267-12.944,1.745-18.379c-0.332-0.031-0.599-0.15-0.695-0.395
	c-0.564-1.413-2.688-5.613-4.875-4.128c-1.853,1.257-3.091,4.02-3.542,6.152c-0.203,0.956-0.371,3.395,1.272,3.29
	c1.601-0.102,2.83-2.568,3.313-3.792c0.354-0.899,3.222-1.25,2.888-0.4c-1.163,2.958-3.495,5.191-6.703,5.674
	c-0.309,0.046-0.599,0.057-0.876,0.045c0.658,4.669,0.75,9.159-4.325,11.21c-1.505,0.607-3.135-0.998-1.293-1.742
	c3.965-1.603,3.173-5.658,2.651-9.182c-0.079-0.536,0.292-0.972,0.792-1.234c-0.739-0.812-0.996-2.062-0.605-3.468
	c0.435-1.567,1.063-3.148,1.955-4.509c-9.465-0.559-13.298,8.386-10.426,16.511c1.143,3.232,3.308,6.697,6.7,7.924
	C232.781,292.195,236.937,289.824,240.331,287.001z M292.484,288.792c-4.583-1.789-8.422-5.381-10.436-10.911
	c-2.805-7.702-0.769-13.896,3.616-18.549c-0.076,0.027-0.135,0.058-0.221,0.082c-8.563,2.457-16.534,6.874-14.598,17.089
	c0.771,4.067,2.449,7.627,4.792,10.206c0.247,0.103,0.379,0.261,0.418,0.45C280.083,291.253,285.92,292.542,292.484,288.792z
	 M309.898,286.768c-9.033-6.679-12.379-24.631-7.055-35.717c-11.452,2.75-22.6,11.636-18.36,24.709
	c1.806,5.568,5.776,9.972,10.633,12.055c0.643-0.04,1.151,0.04,0.857,0.34c4.199,1.532,8.979,1.351,13.565-1.26
	C309.613,286.853,309.742,286.81,309.898,286.768z M322.124,287.447c-5.768-7.453-10.523-15.892-13.599-24.817
	c-0.289-0.838,0.917-1.475,1.875-1.417c0.934-0.851,1.892-1.681,2.863-2.497c-1.167-5.737-0.331-10.751,1.928-15.567
	c-11.521,0.419-12.616,17.333-11.174,25.771C305.444,277.259,311.36,291.84,322.124,287.447z M376.834,286.094
	c5.875-8.361-0.071-19.72-5.557-27.783c-3.076-4.522-6.426-10.58-11.091-13.625c-6.534-4.265-13.768-3.475-20.534-0.682
	c-2.077,1.13-4.104,2.305-6.065,3.463c-6.01,3.547-11.998,7.382-17.458,11.796c-0.151,0.228-0.393,0.412-0.67,0.544
	c-1.085,0.895-2.156,1.804-3.192,2.75c-0.142,0.129-0.305,0.222-0.479,0.287c2.85,7.93,7.013,15.62,12.163,22.272
	c5.542,7.159,12.349,14.028,22.114,13.081C356.851,297.152,367.572,292.056,376.834,286.094z M360.67,308.4
	c0.096,0.076,0.073,0.184-0.026,0.297c1.419-0.004,2.847-0.055,4.229-0.352c-2.142-2.059-4.466-3.92-6.604-5.982
	c-0.112-0.049-0.218-0.111-0.301-0.205c-0.456-0.515,0.354-1.078,0.749-1.252c2.514-1.111,5.028-2.223,7.542-3.333
	c0.522-0.231,1.487-0.422,1.932,0.08c0.015,0.016,0.018,0.032,0.029,0.048c2.792,2.42,5.583,4.84,8.375,7.262
	c5.562-1.66,10.716-5.25,14.897-9.26c-2.357-2.421-4.585-4.979-6.845-7.489c-0.563-0.625,0.089-1.273,0.918-1.535
	c1.997-1.997,4.583-3.392,6.313-5.649c0.426-0.556,2.34-1.342,2.879-0.639c2.63,3.431,5.583,6.638,8.489,9.845
	c6.883-3.15,11.938-9.31,15.139-16.071c0.229-0.485,0.924-0.771,1.572-0.814c-0.338-1.182-0.687-2.401-0.994-3.635
	c-0.037-0.006-0.076-0.008-0.112-0.018c-6.415-1.701-12.304-5.601-13.146-11.352c-0.083-0.02-0.159-0.045-0.221-0.084
	c-3.933-2.502-6.225-5.771-7.25-9.357c-6.394,1.915-12.299,0.815-17.177-2.13c2.622,4.053,4.672,8.568,6.397,12.681
	c3.879,9.249,4.938,19.633-4.83,25.29c-1.4,0.978-2.858,1.96-4.364,2.935c-0.786,0.857-1.69,1.688-2.758,2.477
	c-0.332,0.245-1.184,0.383-1.829,0.354c-6.371,3.738-13.372,7.01-20.432,8.67C354.765,302.934,357.507,305.84,360.67,308.4z
	 M332.392,340.676c3.444,6.002,4.641,14.81,9.716,19.744c2.866-7.035,9.233-12.27,15.319-16.51
	c7.494-5.223,15.604-9.46,23.149-14.594c-3.615-3.174-6.664-6.865-8.718-10.691c-0.014-0.027-0.017-0.053-0.024-0.08
	c-3.38,0.35-7.322,0.688-10.332-0.873c-2.438-1.268-3.823-3.521-5.043-5.873c-5.19,3.715-10.466,7.412-15.05,11.854
	C338.046,326.916,329.353,335.383,332.392,340.676z M327.596,339.801c-9.001,7.021-8.532,24.012-1.087,31.959
	c1.375,1.469,3.889,3.557,6.443,4.5c0.456-0.084,0.871-0.064,1.046,0.131c0.066,0.074,0.135,0.154,0.202,0.229
	c1.232,0.252,2.436,0.174,3.478-0.459c2.454-1.49,4.307-3.836,6.72-5.429c4.061-2.679,12.573-1.946,15.678-5.653
	c-4.813,1.146-9.701,1.402-14.267-0.039c-4.719-1.488-8.042-4.203-9.901-8.748c-1.171-2.859-2.333-5.727-3.422-8.617
	c-0.875-2.324-2.649-4.555-3.294-6.881c-0.131-0.474-0.178-0.961-0.193-1.455c-0.006-0.168-0.021-0.334-0.018-0.504
	C328.494,339.129,328.038,339.457,327.596,339.801z M381.807,395.153c1.397-2.409,4.066-6.685,3.273-9.845
	c-0.182-0.086-0.334-0.217-0.43-0.416c-4.059-8.452-10.09-15.475-16-22.666c-0.01-0.012-0.014-0.023-0.022-0.036
	c-1.713,0.728-3.472,1.388-5.254,1.957c-1.301,2.647-3.303,3.956-6.322,4.644c-1.971,0.447-4.017,0.336-6.003,0.664
	c-3.568,0.59-5.833,2.398-8.354,4.728c-2.201,2.034-4.797,3.274-7.486,3.579c6.572,7.542,13.347,16.848,22.676,20.895
	c0.883-0.453,2.293-0.193,2.206,0.842c0.134,0.043,0.263,0.102,0.398,0.143c0.504,0.155,0.009,0.543-0.673,0.84
	c-1.021,3.264-4.42,14.523-0.33,15.149c3.852,0.591,8.506-4.163,10.995-6.528C374.788,405.008,378.817,400.309,381.807,395.153z
	 M114.738,442.664c-0.187,0.432-0.405,0.832-0.646,1.211c0.033,0.08-0.057,0.191-0.225,0.313c-3.408,4.873-11.21,5.026-15.925,1.892
	c-0.092-0.068-0.114-0.154-0.068-0.258c2.246-5.174,10.56-6.703,14.931-3.251C113.708,442.301,114.895,442.299,114.738,442.664z
	 M111.114,444.541c-2.353-3.008-8.37-3.832-10.138,0.238c-0.665,1.531,5.268,2.268,5.977,2.203
	C108.816,446.815,110.167,445.92,111.114,444.541z M234.098,428.096c-0.047,0.293-0.12,0.561-0.19,0.83
	c0.382,0.34,0.102,0.799-0.399,1.139c-2.045,4.494-8.087,4.706-12.003,1.611c-0.541-0.428-0.298-0.957,0.206-1.311
	c2.79-1.953,6.241-2.755,9.561-2.221C231.794,427.193,234.29,426.889,234.098,428.096z M230.698,430.131
	c-2.07-0.504-4.137-0.297-6.026,0.666c1.121,0.756,2.448,1.375,3.773,1.195C229.598,431.836,230.284,431.074,230.698,430.131z
	 M279.914,426.252c-1.567,0-17.236,0.391-17.06-1.363c0.123-1.219,0.249-3.065-1.344-3.213c-4.648-0.428-6.95,7.17-11.281,6.58
	c-0.707-0.096-3.368,1.098-1.847,1.305c2.212,0.302,4.162-0.551,6.02-1.674c1.278-0.772,2.399-1.832,3.52-2.813
	c2.39-2.094,2.303-2.111,1.949,1.4c-0.033,0.32,0.228,0.392,0.512,0.42c6.095,0.611,12.195,0.67,18.316,0.672
	C279.567,427.567,281.852,426.252,279.914,426.252z M287.232,431.53c-0.938-0.001-3.134,1.421-1.187,1.424
	c2.646,0.003,4.931,0.14,6.787,2.015c-2.578,0.955-5.083,0.838-7.563-0.31c1.036-0.224,2.352,0.251,3.443,0.294
	c0.949,0.037,3.133-1.348,1.187-1.424c-2.972-0.116-5.247-0.979-7.73,1.23c-0.315,0.279-0.456,0.551-0.033,0.785
	c4.331,2.393,9.049,1.7,13.373-0.318c0.296-0.137,0.772-0.502,0.485-0.853C293.746,431.633,290.538,431.534,287.232,431.53z
	 M372.835,420.764c-1.433,0.117-2.398,1.789-0.392,1.625c2.582-0.211,6.789-0.135,6.543,3.434c-0.264,3.835-5.523,5.031-8.409,5.49
	c-7.006,1.117-14.353-0.275-21.383-0.549c-6.409-0.248-12.864-0.321-19.261-0.844c-7.217-0.592-18.915-6.375-6.72-11.738
	c1.849-0.813,0.156-1.785-1.15-1.211c-3.032,1.332-7.082,3.131-7.409,6.899c-0.295,3.372,4.389,5.435,6.833,6.412
	c4.5,1.8,10.274,1.556,15.015,1.698c5.813,0.179,11.625,0.367,17.425,0.793c8.121,0.596,20.146,2.447,26.415-4.309
	C385.725,422.664,377.3,420.398,372.835,420.764z M361.098,422.344c1.257-0.83-1.669-0.588-2.251-0.205
	c-5.866,3.877-15.373,1.957-21.695,0.164c-0.727-0.205-3.317,0.938-2.357,1.209C342.905,425.813,353.641,427.271,361.098,422.344z
	 M274.245,356.508c-3.563-0.004-7.309-2.068-7.069-6.1c0.223-3.76,3.483-5.971,6.97-6.393c0.302-0.035,0.53-0.021,0.709,0.025
	c0.111-0.023,0.223-0.038,0.326-0.035c3.555,0.088,7.935,2.075,7.488,6.325C282.241,354.416,277.979,356.51,274.245,356.508z
	 M275.479,354.682c2.406-0.264,4.713-2.114,4.253-4.793c-0.487-2.84-2.959-4.01-5.635-4.075c-0.091-0.002-0.167-0.013-0.242-0.021
	c-0.02,0.002-0.038,0.008-0.057,0.01C267.938,346.512,269.662,355.322,275.479,354.682z M98.555,260.392
	c0.224-3.76,3.483-5.971,6.97-6.393c0.302-0.036,0.531-0.021,0.709,0.024c0.111-0.022,0.222-0.038,0.326-0.036
	c3.556,0.088,7.935,2.076,7.488,6.326c-0.428,4.083-4.691,6.179-8.424,6.176C102.062,266.488,98.315,264.423,98.555,260.392z
	 M106.858,264.667c2.406-0.265,4.714-2.116,4.253-4.795c-0.487-2.839-2.959-4.009-5.635-4.075c-0.091-0.002-0.167-0.012-0.242-0.021
	c-0.02,0.003-0.037,0.008-0.057,0.011C99.316,256.496,101.041,265.307,106.858,264.667z M231.9,208.342
	c0.177-2.958,2.852-4.659,5.565-4.987c0.137-0.017,0.324-0.014,0.512,0.013c0.118-0.011,0.237-0.026,0.348-0.023
	c2.733,0.068,6.101,1.594,5.758,4.859c-0.339,3.231-3.814,4.832-6.733,4.83C234.604,213.031,231.717,211.444,231.9,208.342z
	 M238.449,211.217c1.597-0.176,3.007-1.451,2.708-3.196c-0.344-1.993-2.025-2.821-3.914-2.868c-0.037-0.001-0.074-0.008-0.111-0.012
	c-0.004,0-0.008,0.001-0.012,0.002C233.303,205.603,234.653,211.634,238.449,211.217z M490.494,243.811
	c0.175-2.958,2.85-4.659,5.563-4.987c0.137-0.017,0.324-0.014,0.513,0.013c0.118-0.011,0.237-0.026,0.349-0.023
	c2.733,0.068,6.101,1.594,5.758,4.858c-0.339,3.231-3.815,4.832-6.733,4.83C493.198,248.5,490.31,246.913,490.494,243.811z
	 M497.042,246.684c1.596-0.176,3.007-1.451,2.708-3.196c-0.343-1.993-2.026-2.821-3.914-2.867c-0.037-0.001-0.075-0.008-0.112-0.012
	c-0.004,0-0.008,0.001-0.012,0.002C491.895,241.072,493.247,247.102,497.042,246.684z M157.817,196.751
	c12.186,1.617,10.81-13.934,13.442-21.94c0.377-1.146,3.209-1.271,2.766,0.24c0.049,0.112,0.082,0.235,0.083,0.381
	c0.045,9.712,1.216,22.513,13.986,21.246c1.973-0.196,1.39,2.004-0.245,2.166c-0.226,0.022-0.453,0.037-0.68,0.053
	c-0.571,0.311-1.458,0.634-1.779,0.631c-8.988-0.082-10.043,12.28-10.185,19.642c0.07,1.155,0.066,2.282-0.023,3.353
	c-0.07,0.832-2.926,1.118-2.896,0.775c0.028-0.349,0.046-0.708,0.058-1.073c-0.034-0.027-0.058-0.058-0.058-0.097
	c0.002-0.626,0.012-1.264,0.028-1.908c-0.49-8.994-5.855-20.785-15.407-21.308c-0.337-0.019-0.435-0.095-0.388-0.199
	C155.011,198.311,156.521,196.58,157.817,196.751z M162.589,198.559c5.091,1.857,8.762,6.735,10.801,12.189
	c1.313-5.645,4.097-10.469,9.821-11.946c-3.671-0.468-7.049-2.1-8.946-5.677c-1.367-2.578-2.125-5.35-2.551-8.191
	C170.355,191.209,168.503,197.04,162.589,198.559z M132.488,340.646c8.394,1.115,7.456-10.211,9.275-15.744
	c0.368-1.117,3.068-1.262,2.788,0.135c0.035,0.098,0.06,0.205,0.06,0.328c0.032,6.844,0.775,16.105,9.821,15.209
	c1.974-0.197,1.391,2.004-0.245,2.166c-0.313,0.03-0.627,0.051-0.942,0.063c-0.435,0.175-0.866,0.306-1.07,0.304
	c-5.967-0.056-6.673,8.958-6.769,14.019c0.052,0.846,0.049,1.672-0.018,2.461c-0.07,0.832-2.926,1.119-2.896,0.776
	c0.021-0.249,0.032-0.507,0.041-0.767c-0.025-0.025-0.041-0.053-0.041-0.086c0.002-0.447,0.009-0.898,0.021-1.353
	c-0.332-6.2-3.857-14.36-10.187-15.405c-0.286-0.021-0.574-0.049-0.866-0.088c-0.051-0.007-0.089-0.02-0.135-0.027
	c-0.08-0.01-0.144-0.022-0.189-0.039c-0.001,0-0.003-0.002-0.005-0.002c-0.021-0.008-0.044-0.014-0.058-0.023
	C129.765,342.112,131.227,340.479,132.488,340.646z M136.627,342.293c3.168,1.35,5.549,4.287,7.032,7.672
	c1.024-3.371,2.894-6.168,6.217-7.391c-2.438-0.48-4.633-1.713-5.909-4.119c-0.613-1.154-1.047-2.365-1.376-3.604
	c-0.343,1.336-0.807,2.621-1.516,3.795C139.937,340.532,138.406,341.693,136.627,342.293z M434.503,163.714
	c8.393,1.114,7.457-10.21,9.275-15.744c0.368-1.117,3.068-1.262,2.788,0.134c0.035,0.099,0.061,0.205,0.061,0.328
	c0.032,6.844,0.774,16.106,9.821,15.209c1.973-0.196,1.39,2.004-0.245,2.166c-0.313,0.031-0.626,0.051-0.942,0.064
	c-0.435,0.174-0.867,0.305-1.071,0.303c-5.966-0.055-6.673,8.957-6.769,14.017c0.052,0.846,0.049,1.673-0.018,2.462
	c-0.069,0.832-2.926,1.118-2.896,0.776c0.021-0.249,0.033-0.506,0.041-0.767c-0.025-0.025-0.041-0.053-0.041-0.086
	c0.002-0.446,0.009-0.898,0.021-1.352c-0.331-6.199-3.854-14.354-10.179-15.403c-0.289-0.021-0.58-0.05-0.874-0.089
	c-0.055-0.007-0.097-0.021-0.146-0.03c-0.071-0.009-0.127-0.021-0.17-0.035c-0.013-0.004-0.021-0.008-0.033-0.012
	c-0.011-0.005-0.028-0.009-0.037-0.015C431.778,165.181,433.241,163.546,434.503,163.714z M438.643,165.358
	c3.167,1.35,5.548,4.289,7.031,7.673c1.025-3.372,2.894-6.168,6.216-7.39c-2.437-0.481-4.632-1.713-5.908-4.119
	c-0.612-1.156-1.047-2.365-1.376-3.604c-0.343,1.336-0.807,2.62-1.516,3.795C441.952,163.599,440.422,164.759,438.643,165.358z" fill="#0a1230"></path>
</svg>