<?xml version="1.0" standalone="no"?>
<svg version="1.1" id="Layer_1" xmlns="http://www.w3.org/2000/svg" xmlns:xlink="http://www.w3.org/1999/xlink" x="0px" y="0px" width="595.28px" height="595.28px" viewBox="0 0 595.28 595.28" enable-background="new 0 0 595.28 595.28" xml:space="preserve">
<path id="color_x5F_2" fill="#6c63ff" d="M406.955,262.151c-2.839,2.568-5.999,4.795-9.302,5.692l0.066-0.306L406.955,262.151z
	 M398.368,268.968c-0.439,4.707-0.51,9.453-1.463,14.097c-0.022,0.107-0.109,0.208-0.232,0.301c1.325,1.042,2.466,2.224,3.799,3.27
	c1.521,1.191,4.106,1.349,6.298,1.437l0.274-2.56c0.237-5.012,0.535-10.027,1.116-15.006c0.259-2.224,0.38-5.204,1.041-7.85
	c-3.355,2.854-6.977,5.112-10.952,6.189C398.328,268.875,398.373,268.915,398.368,268.968z M405.722,289.679
	c-0.8-0.042-1.625-0.091-2.45-0.171C404.304,290.262,405.135,290.081,405.722,289.679z M416.952,209.767
	c-3.429,0.646-7.215,0.978-10.692,0.279c-0.096,0.781-0.249,1.56-0.453,2.34c0.049,0.159,0.046,0.35-0.043,0.581
	c-3.867,10.017-6.696,20.433-7.272,31.161c1.313-1.389,3.224-3.355,5.28-5.299c3.24-4.418,6.007-9.192,8.605-14.004
	c0.034-0.063,0.09-0.122,0.154-0.18c0.795-4.478,2.71-8.619,4.733-12.682c-0.01-0.726-0.051-1.481-0.093-2.251
	C417.099,209.734,417.025,209.753,416.952,209.767z M218.506,264.188c0.229-0.013,0.458-0.029,0.689-0.051l0.024-0.6
	C219.22,263.538,218.958,263.832,218.506,264.188z M218.516,265.939c-2.799,0.479-5.554,0.508-7.577-0.667
	c-3.995-2.319-6.54-6.646-8.792-10.684l-0.333,2.493c0.81-0.159,1.666,0.099,1.585,0.937c-0.547,5.688-1.381,11.357-2.432,17.002
	c5.901,0.32,11.787,0.689,17.674-0.03c-0.15-2.917-0.231-5.834-0.2-8.753C218.443,266.132,218.474,266.034,218.516,265.939z
	 M210.633,209.648c0.628-1.764,0.948-3.584,1.374-5.435c0.079-0.344,0.158-0.654,0.26-0.948c-0.013-0.004-0.029-0.006-0.042-0.011
	c-3.45-1.431-7.228-2.879-9.453-5.908c-0.103,0.102-0.198,0.209-0.305,0.307c-1.149,1.053-2.348,1.821-3.602,2.432
	c0.368,1.781,4.684,4.422,5.932,5.395C206.592,206.878,208.534,208.546,210.633,209.648z M214.338,206.882
	c-0.007,0.033-0.014,0.067-0.02,0.092c-0.386,1.563-0.845,3.047-1.554,4.496c-0.362,0.74-1.479,1.066-2.223,0.805
	c-0.108-0.038-0.213-0.09-0.32-0.131c-0.023,0.271-0.048,0.53-0.053,0.715c-0.037,1.494-0.096,2.986-0.174,4.479
	c-0.091,1.738,0.224,4.734-0.562,6.486c1.309,2.797,2.525,5.62,3.954,8.109c1.862,3.243,3.881,6.125,6.966,7.588
	c1.167-4.293,2.126-9.901,0.986-13.923C219.559,219.313,215.568,213.343,214.338,206.882z M482.22,411.538
	c0,0-0.433,0.396-1.148,1.074c0.788-0.593,1.584-1.173,2.388-1.742L482.22,411.538z M516.178,435.647
	c3.46-11.356-7.964-29.102-20.593-28.302c-1.112,0.07-1.422-0.601-1.184-1.22c-5.972,3.512-11.721,7.355-16.795,12.072
	c-4.666,4.336-9.875,9.981-10.303,16.704c-0.473,7.435,3.846,14.555,11.135,16.743c14.833,4.453,27.307-6.533,38.529-14.76
	C516.386,436.762,515.961,436.358,516.178,435.647z M496.371,404.985c-0.094,0.054-0.188,0.109-0.283,0.163
	c0.216-0.01,0.432-0.013,0.647-0.014C496.605,405.081,496.486,405.032,496.371,404.985z M349.067,357.412
	c-0.228,0.086-0.453,0.14-0.645,0.139c-9.054-0.038-18.084-0.581-27.121-1.05c2.864,5.858,2.925,13.345,2.681,19.605
	c-0.136,3.503-0.493,7.441-1.543,11.085c-0.505,2.307-1.349,4.018-2.236,5.269c-0.547,0.91-1.164,1.771-1.88,2.551
	c-0.133,0.145-0.406,0.271-0.73,0.367c0.557,0.011,1.113,0.025,1.669,0.033c2.1,0.031,4.254,0.084,6.438,0.127h10.816
	c5.76-0.181,11.482-0.759,16.777-2.27c6.988-1.994,13.234-7.951,14.666-15.223c-0.614-3.308-1.047-6.664-1.298-10.012
	C363.485,361.948,356.133,358.729,349.067,357.412z M72.595,391.462c-5.596-1.508-11.019-1.149-15.236,3.281
	c-2.131,2.24-3.997,4.817-5.028,7.763c-3.816,10.896-0.617,22.195,9.401,28.181c8.101,4.84,17.19,7.912,25.956,11.52
	c-2.224-7.536-2.459-16.671-0.707-24.019c0.984-4.125,2.766-7.534,5.235-10.128c0.957-1.578,1.841-2.689,2.504-3.021
	c0.464-0.232,1.36-0.437,2.459-0.614c1.889-0.925,3.995-1.546,6.306-1.833c-3.54-1.549-7.079-3.1-10.667-4.434
	C86.167,395.685,79.451,393.31,72.595,391.462z M71.22,389.538c0,0-0.359,0.016-0.959,0.061c0.542,0.041,1.086,0.102,1.633,0.174
	L71.22,389.538z"></path>
<path id="color_x5F_1" d="M224.883,174.923c0.374,0.8,0.266,1.658,0.005,2.475c-0.209,0.658-1.002,0.968-1.632,1.038
	c-0.372,0.041-1.488-0.052-1.276-0.716c0.228-0.715,0.331-1.324,0.005-2.02c-0.276-0.592,0.867-1.093,1.234-1.191
	C223.77,174.362,224.601,174.317,224.883,174.923z M226.933,170.196c-1.566,0-3.063,0.088-4.593,0.451
	c-0.271,0.064-1.443,0.411-1.317,0.881c0.128,0.479,1.308,0.168,1.581,0.104c0.807-0.192,1.642-0.191,2.467-0.191
	c0.704,0,1.454-0.151,2.049-0.549C227.56,170.598,227.517,170.196,226.933,170.196z M276.91,433.443
	c3.391,3.477-0.256,5.552-4.079,6.679c-0.191,0.432-0.722,0.828-1.435,0.832c-0.843,0.006-1.697,0.027-2.556,0.055
	c-0.496,0.079-0.93,0.139-1.265,0.177c-0.538,0.063-0.714,0.007-0.685-0.103c-8.9,0.396-18.431,1.437-26.857-0.988
	c-3.508-1.01-7.334-2.891-7.719-6.906c-0.394-4.109,1.735-8.489,1.856-12.659c0.008-0.288,0.189-0.534,0.456-0.724
	c-2.6-0.33-5.127-0.861-7.456-1.507c-0.554,0.267-1.216,0.373-1.708,0.097c-1.956-1.102-2.464-8.959-2.879-10.852
	c-1.943-8.875-3.812-17.765-5.695-26.652c-3.82-18.021-7.526-36.088-11.796-54.014c-0.571,2.097-1.159,4.188-1.8,6.263
	c-2.799,9.06-5.403,20.171-12.595,26.843c-8.601,7.98-17.374,15.784-26.223,23.486c-4.628,4.027-9.279,8.04-14.063,11.881
	c-2.315,1.859-4.74,4.091-7.427,5.526c-0.101,0.432-1.703,1.205-2.3,1.167c-2.583-0.168-4.467-2.904-5.836-5.466
	c-0.614,5.743-0.204,11.54-0.395,17.339c-0.002,0.082-0.04,0.158-0.093,0.23c5.988,3.857,11.75,8.82,13.933,15.395
	c3.073,9.257-2.272,18.718-11.233,22.037c-13.826,5.121-29.946,0.462-42.954-4.916c-0.468-0.193-0.643-0.469-0.633-0.755
	c-0.625,0.266-1.378,0.455-1.764,0.271c-0.639-0.304-1.282-0.595-1.925-0.888c-0.552,0.064-1.058-0.034-1.198-0.402
	c-0.021-0.057-0.04-0.115-0.061-0.172c-6.672-2.977-13.515-5.51-20.226-8.405c-4.899-2.112-10.166-4.381-14.034-8.17
	c-8.444-8.272-8.673-23.639-0.452-32.277c5.049-5.306,10.625-6.713,16.45-6.267c0.542,0.041,1.086,0.102,1.633,0.174
	c5.263,0.693,10.704,2.721,16.125,4.619c6.752,2.365,13.326,5.344,19.956,8.103c0.681-0.49,1.846-0.631,2.297,0.034
	c0.239,0.352,1.854,0.927,3.387,1.443c-1.166-2.656-2.086-5.418-2.563-8.285c-0.473-2.848-1.616-7.297-0.141-10.003
	c1.203-2.208,2.965-3.827,5.43-4.582c1.371-0.42,2.805-0.804,4.25-0.856c1.945-0.072,4.084-2.296,5.694-3.465
	c-0.923-2.617-2.601-7.299-0.009-9.036c1.178-0.79,2.347-1.595,3.511-2.403c6.729-4.68,13.384-9.504,19.711-14.717
	c3.27-2.693,6.568-5.443,9.442-8.566c1.416-1.538,3.635-3.661,4.045-5.916c-2.984-0.48-5.9-1.324-8.675-2.697
	c-2.548-1.262-4.919-2.985-7.134-4.756c-1.082-0.863-2.143-1.75-3.211-2.63c-0.68-0.561-1.336-0.585-0.248-0.654
	c-1.943,0.124-1.424-1.992,0.169-2.161c11.063-13.709,20.851-29.701,27.595-45.896c3.33-7.997,4.779-15.487,5.362-24.064
	c0.314-4.619,0.634-9.24,0.876-13.864c0.054-1.027,0.66-4.268,0.619-6.535c-0.18-0.024-0.375-0.054-0.584-0.087
	c-0.205,0.076-0.394,0.129-0.533,0.141c-5.554,0.481-10.297-3.177-13.644-7.255c-5.338-6.503-5.766-14.954-4.583-22.938
	c0.15-1.015,0.334-2.038,0.547-3.062c0.697-5.379,2.694-10.812,6.871-15.549c1.473-1.804,3.188-3.408,5.186-4.72
	c0.1-0.065,0.206-0.113,0.307-0.174c8.102-5.653,8.083,0.955,12.771-4.202c2.06-2.266,3.518-4.357,4.529-6.214
	c0.289-1.308,0.405-2.658,0.363-3.98c-0.033-0.077-0.053-0.162-0.044-0.265c0.684-7.807,6.761-14.114,13.699-17.256
	c0.151-0.094,0.302-0.199,0.453-0.285c3.779-2.16,7.297-2.631,10.255-2.354c4.008-0.149,8.01,0.63,12.311,2.182
	c0.14,0.051,0.224,0.113,0.269,0.183c6.566-2.303,16.535-3.953,19.151,3.021c1.733,4.618-0.659,8.971-4.404,11.633
	c-1.007,0.942-2.198,1.878-3.582,2.837c-0.876,0.606-2.101,0.794-3.378,0.766c-0.017,3.566-0.128,7.171-0.997,10.634
	c-0.036,0.144-0.112,0.273-0.214,0.392c0.522,1.026,1.275,1.886,2.087,2.709c0.56,0.567,1.529,1.313,1.724,2.135
	c0.339,1.428-1.741,2.184-3.658,2.594c-0.507,4.434-1.954,9.905-6.05,12.26c-1.4,0.805-3.298,0.962-4.879,0.952
	c-3.853-0.024-4.966,1.436-6.026,5.151c-0.013,0.045-0.037,0.088-0.061,0.131c0.188-0.025,0.361-0.025,0.5,0.014
	c13.816,3.912,16.7,17.515,22.046,29.047c3.723-0.715,6.115-4.014,8.805-6.441c1.875-1.693,3.834-3.044,6.145-4.032
	c0.075-0.782,0.146-1.565,0.223-2.349c0.384-3.896,0.785-7.791,1.184-11.686c0.127-1.243,0.256-2.486,0.376-3.73
	c0.148-1.539-0.229-1.293,1.005-1.347c-1.226,0.054-0.825-0.537-0.12-0.991c-0.135-0.002-0.27-0.008-0.405-0.009
	c-1.94-0.012,0.326-1.341,1.21-1.336c3.463,0.021,6.913,0.247,10.362,0.546c0.092-0.326,0.192-0.646,0.302-0.956
	c0.137-0.384,0.918-0.657,1.632-0.758c-0.112-0.018-0.219-0.047-0.335-0.053c-1.461-0.071,1.229-1.254,1.868-1.223
	c1.565,0.076,2.808,0.887,3.682,2.032c1.372-0.715,3.153-1.082,4.32-0.198c0.451,0.341,0.814,0.783,1.114,1.274
	c1.236-1.059,2.859-1.696,4.353-0.726c0.608,0.396,1.064,0.977,1.407,1.632c1.332-0.314,2.715-0.222,3.839,0.696
	c0.415,0.339,0.776,0.759,1.072,1.224c2.954,0.142,5.792,0.786,8.677,1.398c0.846-0.381,2.037-0.411,2.065,0.164
	c0.372,7.705-1.685,16.101-3.169,23.597c-1.71,8.636-3.255,19.501-8.741,26.752c0.355,0.297-1.271,1.114-1.92,1.136
	c-10.672,0.346-22.681-0.922-32.996-3.761c-0.138-0.038-0.187-0.097-0.181-0.167c-0.875,0.17-1.721,0.406-2.501,0.796
	c-0.005,0.017-0.008,0.034-0.013,0.052c-0.078,0.247-0.365,0.455-0.728,0.609c-0.124,0.15-0.326,0.307-0.637,0.461
	c-7.488,3.723-15.18,7.312-23.244,9.615c0.59,0.031,1.038,0.315,0.887,0.919c-0.909,3.618,0.17,8.041,0.732,11.636
	c0.914,5.844,2.052,11.652,3.317,17.429c1.318,6.018,2.719,12.024,4.355,17.965c0.863,3.132,1.527,6.851,3.202,9.683
	c0.251,0.424,0.137,0.825-0.153,1.138c0.281,0.206,0.335,0.533-0.087,0.979c-0.567,0.598-1.174,1.161-1.816,1.677
	c0.096,0.05,0.161,0.119,0.181,0.213c3.049,14.252,6.493,28.431,9.857,42.611c3.448,14.533,6.207,29.653,11.059,43.805
	c0.007,0.021,0.003,0.042,0.005,0.063c0.157,0.022,0.243,0.063,0.204,0.12c-1.941,2.876-4.532,4.875-7.486,6.201
	c4.029,4.234,8.118,8.649,13.666,10.744C268.702,429.978,274.355,430.825,276.91,433.443z M225.414,264.674
	c0.066-0.264,0.246-0.485,0.481-0.663c-1.418,0.43-3.059,0.943-4.772,1.373c0.153,0.141,0.247,0.334,0.244,0.592
	c-0.139,12.703,2.42,25.115,3.454,37.728c0.406,4.952,0.238,10.036,0.835,14.963c0.316,2.609,0.598,7.421,4.37,7.472
	c2.976,0.039,5.34-1.532,7.295-3.593c0.009-0.01,0.021-0.017,0.031-0.026c-0.014-0.02-0.032-0.035-0.045-0.057
	c-1.784-3.018-2.543-6.853-3.45-10.193c-1.613-5.947-3.053-11.942-4.355-17.965c-1.374-6.358-2.688-12.753-3.578-19.2
	C225.479,271.872,224.599,267.917,225.414,264.674z M246.338,254.27c0.99-0.476,1.98-0.95,2.966-1.438
	c1.214-4.752-1.352-11.177-4.59-14.768c-1.324,0.551-2.798,1.147-4.373,1.73c0.038,0.025,0.077,0.049,0.108,0.081
	c3.78,3.892,4.576,9.255,5.883,14.306C246.339,254.211,246.336,254.239,246.338,254.27z M259.315,248.802
	c2.387-1.31-0.798-7.699-1.13-9.727c-0.035-0.21,0.005-0.402,0.088-0.578c-0.98,0.238-2.55,0.32-1.607-0.328
	c1.717-1.182,3.66-1.487,5.666-1.882c0.645-0.127,3.429-2.354,1.328-2.683c-1.187-0.186-2.518,0.238-3.645,0.558
	c-3.949,1.12-7.789,2.868-11.805,3.759c2.622,3.332,4.566,8.232,4.294,12.484C254.77,249.836,257.267,249.926,259.315,248.802z
	 M286.554,202.639c0.096,0.41,0.161,0.82,0.197,1.212c0.115,1.261,0.024,2.664-0.583,3.785c0.116,0.002,0.227,0.014,0.326,0.046
	c0.536,0.175,1.133,0.384,1.705,0.289c-0.103,0.017,0.079-0.029,0.146-0.131c0.433-0.659,0.512-1.476,0.358-2.241
	C288.532,204.76,287.614,202.596,286.554,202.639z M282.464,200.798c0.004,0.007-0.042,0.031,0.053-0.034
	C282.489,200.783,282.482,200.786,282.464,200.798z M281.039,202.261c0.089,0.41,0.15,0.821,0.181,1.217
	c0.08,1.024,0.011,2.168-0.422,3.111c0.66,0.482,1.375,0.943,2.168,1.128c0.087,0.021,0.111,0.033,0.226,0.04
	c0.25-0.268,0.452-0.668,0.56-1.207c0.125-0.631,0.169-1.283,0.102-1.922c-0.132-1.241-0.445-2.611-1.302-3.496
	c-0.031-0.032-0.168-0.126-0.258-0.195c-0.253,0.248-0.477,0.511-0.676,0.804C281.467,201.96,281.262,202.124,281.039,202.261z
	 M283.263,207.755c-0.004,0.001-0.006,0.002-0.01,0.003c0.033,0.001,0.063,0.002,0.109,0.002
	C283.313,207.76,283.284,207.758,283.263,207.755z M275.772,199.468C275.553,199.412,275.549,199.49,275.772,199.468
	L275.772,199.468z M275.369,199.968c1.093,2.148,1.087,4.949-0.336,6.766c0.176,0.002,0.34,0.029,0.469,0.105
	c0.633,0.375,1.322,0.748,2.054,0.904c0.088-0.105,0.189-0.2,0.256-0.324c0.007-0.013,0.009-0.026,0.016-0.039
	c-0.028-0.21,0.067-0.419,0.249-0.604c0.294-0.864,0.335-1.812,0.225-2.715c-0.148-1.212-0.485-2.496-1.204-3.505
	c-0.271-0.38-0.609-0.75-1.035-0.966C275.874,199.753,275.629,199.872,275.369,199.968z M270.712,198.666
	c-0.552,1.615-0.848,3.415-0.76,5.113c0.043,0.845,0.115,1.79,0.528,2.55c0.199,0.367,1.18,1.657,1.749,1.059
	C274.231,205.278,273.31,200.241,270.712,198.666z M255.909,228.791c-0.096,1.3-0.837,4.207-0.129,5.394
	c-0.027-0.008-0.055-0.015-0.083-0.021c0.019,0.084,0.002,0.179-0.048,0.277c3.054-1.173,6.136-2.232,9.325-2.086
	c1.919,0.088,2.933,1.1,1.724,2.943c-1.252,1.908-4.078,1.764-6.247,2.324c0.324,0.097,0.57,0.313,0.63,0.678
	c0.514,3.126,3.795,8.587,0.905,11.337c-1.006,0.958-2.219,1.422-3.504,1.714c8.978,2.319,19.221,3.488,28.539,3.373
	c5.323-7.078,6.885-17.869,8.51-26.298c1.381-7.165,3.408-15.173,3.184-22.568c-0.044-0.001-0.088-0.003-0.125-0.011
	c-2.354-0.486-4.688-1.086-7.067-1.393c0.075,0.297,0.128,0.597,0.145,0.897c0.222,3.927-3.629,5.168-6.896,4.104
	c-0.159-0.052-0.272-0.115-0.365-0.183c-1.844,0.861-3.873,0.176-5.545-0.907c-1.845,0.825-3.787,0.614-5.573-0.291
	c-0.118,0.052-0.221,0.12-0.347,0.164c-2.228,0.784-5.047,0.766-5.668-1.993c-0.363-1.611-0.297-3.396,0.038-5.085
	c-0.333,0.114-0.643,0.185-0.826,0.169c-2.628-0.234-5.258-0.44-7.894-0.536c0.028,5.386-1.099,10.978-1.625,16.325
	C256.584,221.006,256.197,224.895,255.909,228.791z M217.009,204.548c0.938,7.65,6.616,14,7.539,21.641
	c0.536,4.431-0.362,9.852-1.628,14.15c0.524,0.096,1.067,0.166,1.646,0.189c0.505,0.021,1.009,0.023,1.512,0.018
	c-0.085-3.581,0.108-7.119,0.833-10.637c0.284-1.38,3.259-1.699,2.946-0.182c-0.724,3.518-0.917,7.057-0.833,10.637
	c5.161-0.558,10.172-2.318,14.942-4.32c0.583-0.245,1.18-0.148,1.591,0.104c0.488-0.098,0.954-0.084,1.179,0.132
	c0.265,0.253,0.524,0.527,0.781,0.813c0.086-0.025,0.171-0.048,0.256-0.063c1.892-0.348,3.771-1.011,5.653-1.73
	c-0.219-0.035-0.417-0.127-0.542-0.338c-0.642-1.075,0.004-3.899,0.088-5.035c0.19-2.58,0.422-5.155,0.665-7.73
	c-3.217,1.852-5.439,4.934-8.384,7.203c-2.006,1.545-4.138,2.532-6.516,3.016c-0.614,0.496-1.973,0.776-2.489,0.281
	c-0.216-0.038-0.249-0.137-0.173-0.261C231.207,222.069,228.525,209.079,217.009,204.548z M198.865,200.085
	c0.368,1.781,4.684,4.422,5.932,5.395c1.794,1.398,3.737,3.066,5.835,4.169c0.628-1.764,0.948-3.584,1.374-5.435
	c0.079-0.344,0.158-0.654,0.26-0.948c-0.013-0.004-0.029-0.006-0.042-0.011c-3.45-1.431-7.228-2.879-9.453-5.908
	c-0.103,0.102-0.198,0.209-0.305,0.307C201.318,198.706,200.12,199.475,198.865,200.085z M209.433,223.823
	c1.309,2.797,2.525,5.62,3.954,8.109c1.862,3.243,3.881,6.125,6.966,7.588c1.167-4.293,2.126-9.901,0.986-13.923
	c-1.781-6.285-5.771-12.255-7.001-18.716c-0.007,0.033-0.014,0.067-0.02,0.092c-0.386,1.563-0.845,3.047-1.554,4.496
	c-0.362,0.74-1.479,1.066-2.223,0.805c-0.108-0.038-0.213-0.09-0.32-0.131c-0.023,0.271-0.048,0.53-0.053,0.715
	c-0.037,1.494-0.096,2.986-0.174,4.479C209.903,219.075,210.218,222.071,209.433,223.823z M231.418,164.938
	c-0.636-0.133-1.219-0.282-1.711-0.423c-2.13-0.181-4.307-0.646-6.05-1.783l-0.473,0.21c-2.131,2.61-3.522,5.791-4.909,8.881
	c-1.506,4.107-3.53,8.455-5.556,9.215c-0.208,0.078-0.4,0.15-0.587,0.221c-0.782,0.622-1.657,1.151-2.646,1.568
	c-0.012,0.09-0.036,0.186-0.089,0.295c-1.743,3.601-2.567,8.184-4.719,11.76c1.668,3.642,5.522,5.223,9.055,6.669
	c1.18-3.521,3.16-6.121,7.283-6.186c3.476-0.055,5.94-0.316,7.455-3.95c0.965-2.314,1.594-4.705,1.897-7.188
	c-0.378,0.04-1.176,0.081-0.983-0.317c0.226-0.467,1.072-0.694,1.58-0.78c0.614-0.354,1.594-0.5,2.077-0.251
	c0.524-0.113,0.964-0.291,1.031-0.6c0.115-0.527-0.486-1.111-0.803-1.445c-1.222-1.289-2.568-2.494-3.261-4.17
	c-0.065-0.158,0.122-0.347,0.423-0.52C231.339,172.493,231.411,168.688,231.418,164.938z M222.262,147.699
	c0.296,0.208,0.458,0.339,0.458,0.339s0.121-0.033,0.324-0.086C222.783,147.864,222.523,147.78,222.262,147.699z M173.308,334.381
	c2.415-0.213,4.826-0.515,7.18-1.106c0.835-2.096,1.643-4.203,2.427-6.319c8.185-22.101,15.282-45.187,17.545-68.729
	c0.058-0.605,0.69-1.014,1.354-1.144c0.81-0.159,1.666,0.099,1.585,0.937c-0.547,5.688-1.381,11.357-2.432,17.002
	c5.901,0.32,11.787,0.689,17.674-0.03c-0.15-2.917-0.231-5.834-0.2-8.753c0.001-0.105,0.032-0.203,0.074-0.298
	c-2.799,0.479-5.554,0.508-7.577-0.667c-3.995-2.319-6.54-6.646-8.792-10.684c-0.355-0.635-0.703-1.264-1.047-1.875
	c-3.593-6.381-6.958-13.014-11.895-18.489c-0.766-0.85,2.001-1.905,2.688-1.143c7.572,8.399,10.646,20.064,18.322,28.246
	c2.228,2.374,5.166,3.042,8.292,2.86c0.229-0.013,0.458-0.029,0.689-0.051c4.103-0.395,8.46-2.132,11.927-3.385
	c4.371-1.578,8.63-3.401,12.833-5.357c-0.263-0.067-0.462-0.205-0.522-0.439c-1.27-4.902-2-10.155-5.674-13.938
	c-0.086-0.089-0.124-0.181-0.131-0.274c-7.829,2.576-17.191,4.107-22.673-1.621c-3.684-3.85-5.732-9.201-8.097-14.252
	c-0.405-0.122-0.618-0.398-0.396-0.84c-2.062-4.295-4.436-8.293-8.358-10.854c-1.406-0.918,1.106-2.443,2.223-1.715
	c2.913,1.901,5.001,4.66,6.742,7.718c-0.011-0.604-0.022-1.157-0.001-1.585c0.068-1.37,0.13-2.74,0.165-4.111
	c0.01-0.399,0.146-1.143,0.056-1.625c-0.147-0.169-0.175-0.408,0.005-0.729c0.005-0.01,0.01-0.019,0.015-0.027
	c0.058-0.104,0.137-0.199,0.226-0.289c-2.208-1.328-4.265-3.079-6.151-4.629c-1.176-0.966-4.636-3.15-5.325-4.982
	c-1.262,0.42-2.576,0.783-3.955,1.189c-11.198,3.292-11.644,16.683-11.428,26.453c0.006,0.271-0.157,0.506-0.404,0.691
	c0.149,0.035,0.281,0.094,0.368,0.2c0.977,1.21,0.218,4.83,0.155,6.225c-0.222,4.887-0.542,9.769-0.873,14.648
	c-0.602,8.896-1.574,16.856-5.042,25.185c-7.083,17.009-17.175,33.779-28.832,48.093c2.016,1.213,4.185,3.767,5.506,4.7
	C158.082,333.197,165.311,335.086,173.308,334.381z M57.359,394.743c-2.131,2.24-3.997,4.817-5.028,7.763
	c-3.816,10.896-0.617,22.195,9.401,28.181c8.101,4.84,17.19,7.912,25.956,11.52c-2.224-7.536-2.459-16.671-0.707-24.019
	c0.984-4.125,2.766-7.534,5.235-10.128c1.427-1.498,3.086-2.717,4.963-3.636c1.889-0.925,3.995-1.546,6.306-1.833
	c-3.54-1.549-7.079-3.1-10.667-4.434c-6.651-2.473-13.368-4.848-20.223-6.695C66.999,389.954,61.576,390.313,57.359,394.743z
	 M119.597,409.038c-0.137-0.063-0.277-0.119-0.415-0.182c-0.266,0.994-2.19,1.569-2.752,0.584c-0.379-0.666-0.746-1.342-1.105-2.022
	c-3.052-1.08-6.065-2.324-9.064-3.622c-0.245,0.096-0.488,0.156-0.691,0.155c-19.022-0.121-19.075,26.625-14.213,39.815
	c0.914,0.402,1.823,0.813,2.724,1.236c0.485-0.347,1.163-0.539,1.688-0.322c11.94,4.936,29.983,11.039,42.381,4.087
	c9.588-5.376,10.197-16.991,3.408-24.817C135.733,417.237,127.593,412.681,119.597,409.038z M131.6,412.45
	c0.077-6.73-0.351-13.447,1.16-20.07c-2.116-4.335-4.091-8.771-5.658-13.331c-1.496,1.099-2.949,2.239-4.561,3.187
	c-2.705,1.592-7.44-0.658-8.799,3.847c-1.789,5.933,0.967,13.618,3.896,19.381c3.537,1.509,7.032,3.125,10.406,4.97
	C129.199,411.063,130.394,411.738,131.6,412.45z M256.197,412.514c-0.043-0.039-0.078-0.085-0.097-0.14
	c-4.852-14.151-7.616-29.273-11.06-43.806c-3.306-13.95-6.69-27.897-9.703-41.915c-2.229,1.168-4.723,1.731-7.323,1.293
	c-4.741-0.801-5.202-6.524-5.396-10.354c-0.69-13.666-3.054-27.309-3.887-40.977c-6.025,0.797-12.049,0.48-18.09,0.154
	c-3.547,18.217-9.419,36.131-15.994,53.318c-0.471,1.229-0.911,3.794-2.049,4.664c-2.136,1.633-7.062,1.651-9.536,1.8
	c-2.462,0.148-4.927,0.146-7.36-0.07c-1.213,3.934-5.98,7.621-8.621,9.986c-6.144,5.5-12.736,10.496-19.431,15.303
	c-2.602,1.869-10.227,5.027-9.687,9.113c0.824,6.239,3.856,12.369,6.442,18.045c0.296,0.65,0.663,1.563,1.089,2.583
	c0.108,0.048,0.169,0.116,0.146,0.214c-0.007,0.03-0.012,0.061-0.019,0.09c1.208,2.87,2.897,6.495,5.012,8.035
	c3.111-1.352,5.922-4.085,8.516-6.196c4.919-4.004,9.734-8.137,14.509-12.311c8.305-7.26,16.562-14.589,24.638-22.104
	c7.38-6.867,10.013-18.854,12.767-28.154c3.291-11.114,5.474-22.611,9.021-33.636c0.374-1.162,3.328-1.515,2.925-0.262
	c-2.486,7.728-4.318,15.667-6.313,23.558c4.733,19.294,8.72,38.778,12.839,58.211c1.856,8.756,3.694,17.516,5.603,26.261
	c0.374,1.712,1.502,10.039,2.434,11.553c0.208-0.032,0.386-0.038,0.501-0.002C237.116,419.554,250.015,421.337,256.197,412.514z
	 M275.136,435.826c-0.294-0.646-0.674-1.3-1.29-1.696c-2.371-1.525-5.269-2.289-7.901-3.235c-2.549-0.915-5.895-1.689-7.986-3.514
	c-3.083-2.689-6.101-5.444-8.932-8.4c-3.745,1.126-7.887,1.374-11.958,1.071c0.013,0.064,0.023,0.131,0.021,0.206
	c-0.115,3.959-1.781,7.727-1.854,11.622c-0.098,5.199,6.17,6.636,10.322,7.063c8.704,0.896,17.422,0.129,26.142,0.074
	c0.47-0.003,0.784,0.106,0.976,0.271C274.439,438.662,275.945,437.603,275.136,435.826z M402.425,187.363
	c-0.605-0.21-1.509-0.001-2.038,0.325c-1.148,0.705-2.258,1.459-2.935,2.655c-0.58,1.024-0.094,2.122,0.518,2.987
	c0.465,0.658,3.267-0.271,2.712-1.055c-1.218-1.723-0.116-3.032,1.435-3.986C402.405,188.113,403.082,187.592,402.425,187.363z
	 M398.72,187.688c0.659-0.031,1.451-0.244,1.931-0.725c0.654-0.656,1.06-1.305,1.087-2.252c0.018-0.595-2.87-0.166-2.897,0.777
	c-0.021,0.689-0.373,1.134-0.838,1.6C397.517,187.575,398.42,187.702,398.72,187.688z M408.801,192.876
	c0.587-0.057,1.513-0.225,1.942-0.68c0.693-0.734,1.077-1.658,1.105-2.67c0.011-0.393-2.875-0.032-2.897,0.777
	c-0.022,0.75-0.297,1.588-0.822,2.145C407.695,192.908,408.515,192.903,408.801,192.876z M412.403,185.586
	c0.583,0.209,1.298,0.013,1.86-0.187c0.052-0.019,1.344-0.615,0.874-0.784c-1.47-0.526-2.661-1.466-4.274-1.528
	c-0.678-0.026-1.47,0.2-2.049,0.549c-0.478,0.287-0.381,0.569,0.158,0.59C410.201,184.273,411.273,185.181,412.403,185.586z
	 M405.525,199.007c1.463-0.001,2.978-0.055,4.129-1.081c0.482-0.43,0.277-1.011-0.312-1.164c-0.61-0.159-1.286,0.022-1.805,0.378
	c-0.064,0.014-0.128,0.027-0.143,0.029c-0.301,0.032-0.443,0.023-0.787,0.023c-0.674,0.001-1.528,0.198-1.903,0.827
	C404.355,198.603,404.998,199.007,405.525,199.007z M333.431,173.689c-5.211,1.586-5.992,8.752-5.328,13.396
	c0.102,0.711,3.02,0.078,2.897-0.777c-0.296-2.07-0.134-4.163,0.233-6.214c0.231-1.293,0.956-4.868,2.484-5.334
	C335.394,174.25,335.127,173.173,333.431,173.689z M328.103,198.349c0,2.949,0,5.9,0,8.85c0,0.415,2.897,0.016,2.897-0.775
	c0-2.951,0-5.9,0-8.852C331,197.157,328.103,197.557,328.103,198.349z M542.117,420.476c0.062,0.115,0.093,0.246,0.073,0.392
	c-0.002,0.017-0.004,0.032-0.007,0.049c-0.079,0.584-0.774,0.983-1.469,1.101c0.858,0.05-0.127,0.199-0.991,0.814
	c-0.929,0.66-1.852,1.328-2.771,2.003c-2.721,1.995-5.43,4.008-8.146,6.011c-6.844,5.047-13.699,10.095-20.748,14.854
	c-10.186,6.877-24.489,13.845-36.186,5.491c-12.69-9.063-7.012-24.161,2.473-32.978c0.046-0.043,0.095-0.084,0.141-0.127
	c-2.609,2.006-7.191,1.602-10.164,1.62c-4.437,0.028-8.86-0.346-13.294-0.399c-0.996-0.012-1.047-0.524-0.687-1.024
	c-0.242-3.324,1.965-5.233,4.912-6.272c-0.199-0.054-0.332-0.152-0.343-0.311c-0.119-1.739-1.535-3.204-2.002-4.87
	c-3.563,1.532-7.217,2.253-10.576,1.633c-0.624-0.115-0.666-0.396-0.425-0.692c-0.044-0.04-0.083-0.084-0.112-0.136
	c-12.723-22.351-22.13-45.71-23.013-71.609c-0.502-0.063-1.005-0.13-1.504-0.218c-1.452-0.254-7.273-1.965-7.513-4.098
	c-0.324-2.883-0.626-5.768-0.917-8.653c-0.181-1.799-0.371-3.606-0.561-5.416c-18.514,21.23-16.699,56.81-4.625,80.626
	c0.299,0.589-0.45,1.123-1.274,1.279c-0.072,0.054-0.156,0.109-0.257,0.168c-0.433,0.25-0.892,0.49-1.37,0.723
	c2.506,4.691,11.09,18.25,1.661,19.29c-0.426,0.047-0.726-0.022-0.927-0.154c-0.085,0.016-0.166,0.027-0.233,0.028
	c-6.873,0.066-13.735,0.701-20.611,0.783c-5.216,0.062-13.123,1.109-17.917-1.572c-4.928-2.757,3.661-8.033,5.666-9.208
	c4.472-2.62,9.54-4.943,14.609-6.445c-2.32-0.383-4.466-1.114-6.22-2.298c-0.08-0.055-0.112-0.118-0.113-0.188
	c-0.414,0.029-0.769-0.047-0.912-0.297c-2.967-5.202-5.187-11.142-6.729-17.375c-2.205,4.301-5.858,7.957-9.993,10.107
	c-10.111,5.26-23.785,4.442-34.816,4.404c-13.461-0.047-26.973-0.602-40.361-2.056c-0.11-0.012-0.206-0.031-0.294-0.054
	c-9.09-0.736-18.865-7.246-21.269-16.383c-2.226-8.464,1.634-16.822,9.485-20.648c9.649-4.703,21.585-4.303,32.041-4.147
	c4.74,0.071,9.475,0.264,14.209,0.492c0.757-0.363,1.914-0.568,2.245-0.05c0.034,0.053,0.062,0.109,0.095,0.162
	c9.151,0.462,18.298,1.01,27.462,1.108c0.36-0.438,1.025-0.782,1.655-0.674c6.125,1.054,12.645,3.34,16.929,7.606
	c-0.102-5.049,0.188-10.005,0.881-14.651c2.925-19.604,10.737-37.984,20.481-55.146c-0.172-0.075-0.303-0.191-0.356-0.363
	c-2.397-7.725,0.131-15.477,0-23.334c-0.005-0.316,0.224-0.586,0.551-0.793c-3.663-1.193-7.149-3.339-10.131-5.397
	c-5.021-3.468-10.315-7.557-13.492-12.89c-0.004,0-0.008-0.001-0.012-0.002c-0.363,0.46-1.017,0.869-1.636,0.857
	c-4.806-0.092-16.194-2.127-19.796-7.394c-6.296,1.361-13.617,1.334-19.667-1.005c-5.502-2.127-7.578-6.852-8.016-12.605
	c-0.463-6.1-0.055-12.233,0.27-18.361c-0.286,0.046-0.571,0.063-0.825,0.004c-1.421-0.335-3.953-0.908-4.139-2.744
	c-0.2-1.967,1.064-3.974,2.017-5.654c-1.694-0.753-3.12-2.057-3.553-3.927c-0.512-2.213,0.575-3.795,2.191-4.848
	c-1.752-2.53-1.263-6.365-0.229-9.295c0.764-2.165,1.475-2.731,3.858-2.722c0.654,0.002,1.107,0.229,1.463,0.563
	c0.23-2.919,0.559-5.831,1.071-8.73c0.063-0.355,0.337-0.639,0.691-0.837c0.006-0.096,0.023-0.198,0.065-0.312
	c1.537-4.197,5.691-6.317,9.636-7.82c3.788-1.443,11.276-2.818,10.544-8.188c-0.03-0.218,0.029-0.416,0.14-0.595
	c-1.425,0-2.851,0-4.276,0c-0.854,0.378-2.033,0.397-2.033-0.171c0-0.9,0-1.803,0-2.704c0-0.146,0-0.292,0-0.438
	c0-3.695,0-7.389,0-11.083c-0.974-0.296,0.706-1.566,1.655-1.566c9.382,0,18.764,0,28.146,0c0.369,0,0.738,0,1.107,0
	c2.249,0,4.499,0,6.748,0c1.207,0,0.903,0.618,0.242,1.093c0,3.594,0,7.188,0,10.781c0,0.146,0,0.291,0,0.438
	c0,0.901,0,1.803,0,2.705c0,1.036-2.483,1.579-2.849,0.946c-1.534,0-3.066,0-4.6,0c0.009,0.022,0.03,0.033,0.036,0.058
	c0.086,0.365-0.193,0.744-0.275,1.085c-0.55,2.293,0.856,3.194,2.812,4.107c2.786,1.302,5.425,2.887,7.941,4.655
	c2.987,2.099,7.297,4.461,9.037,7.872c4.618,9.055,3.09,20.479,3.25,30.308c0.042,2.58,0.316,8.109,0.067,14.075
	c4.572-4.55,11.246-7.072,17.668-6.911c0.393-1.85,0.473-3.688,0.073-5.566c-4.743,0.176-10.745-0.014-10.756-6.152
	c-0.009-5.007,1.625-9.911,3.014-14.674c1.382-4.74,2.883-9.441,5.07-13.875c-3.669-5.194-2.985-9.854,2.998-12.316
	c5.038-2.073,8.507,2.549,11.491,5.79c0.78,0.309,1.497,1.046,2.275,1.876c4.619,2.926,11.037,3.047,13.471,8.949
	c2.834,6.873-0.233,14.298-3.425,20.476c-0.103,0.198-0.344,0.364-0.645,0.493c-0.014,0.18-0.04,0.359-0.077,0.537
	c-0.668,3.179-3.251,4.607-6.09,4.883c-0.912,2.706-0.407,5.888-0.354,8.684c0.089-0.005,0.172-0.003,0.237,0.012
	c22.23,5.151,22.135,34.177,22.935,52.416c0.895,20.402,1.854,41.288,0.433,61.702c0.202,0.047,0.304,0.134,0.226,0.267
	c-0.016,0.026-0.034,0.049-0.05,0.075c0.045,0.101,0.075,0.212,0.072,0.345c-0.114,4.851,1.484,9.953,2.771,14.573
	c1.864,6.692,4.025,13.308,6.459,19.813c2.592,6.928,5.35,13.877,8.852,20.404c1.843,3.435,4.07,8.298,7.695,10.219
	c0.044,0.023,0.074,0.05,0.11,0.074c0.385,0.1,0.589,0.339,0.34,0.766c-0.491,0.844-1.072,1.711-1.722,2.584
	c0.979,4.604,4.021,8.799,5.798,13.088c1.112,2.684,3.239,7.469,0.828,10.128c-0.012,0.013-0.026,0.024-0.039,0.037
	c1.923-1.74,3.916-3.377,5.97-4.923c0.788-0.593,1.584-1.173,2.388-1.742c8.737-6.188,18.357-11.063,27.693-16.356
	c0.193-0.109,0.388-0.173,0.578-0.206c9.78-5.78,23.079-5.65,31.689,2.506C549.505,402.576,548.718,415.279,542.117,420.476z
	 M398.439,245.188c0.342-0.332,0.678-0.671,1-1.023c1.548-1.696,2.978-3.488,4.333-5.336c3.24-4.418,6.007-9.192,8.605-14.004
	c0.034-0.063,0.09-0.122,0.154-0.18c0.795-4.478,2.71-8.619,4.733-12.682c-0.01-0.726-0.051-1.481-0.093-2.251
	c-0.073,0.021-0.146,0.04-0.219,0.054c-3.429,0.646-7.215,0.978-10.692,0.279c-0.096,0.781-0.249,1.56-0.453,2.34
	c0.049,0.159,0.046,0.35-0.043,0.581c-3.867,10.017-6.696,20.433-7.272,31.161C398.473,244.481,398.453,244.835,398.439,245.188z
	 M428.003,187.626c-0.859,2.607-1.79,4.986-2.328,6.313c0.037,0.038,0.067,0.08,0.102,0.121
	C426.638,192.083,427.439,189.88,428.003,187.626z M401.795,161.553c0.356-0.459,0.754-0.894,1.182-1.269
	C402.529,160.521,402.128,160.933,401.795,161.553z M404.043,204.312c0.754-0.238,1.634-0.226,1.788,0.285
	c0.413,1.367,0.563,2.722,0.526,4.07c0.415-0.126,0.812-0.189,1.036-0.127c3.094,0.869,6.575,0.592,9.722,0.021
	c-0.099-2.159-0.059-4.354,0.75-6.268c-0.531-0.072-1.054-0.178-1.557-0.315c-0.673-0.184-0.795-0.941-0.383-1.432
	c0.498-0.592,1.333-0.744,2.049-0.549c2.279,0.622,5.313,0.392,5.714-2.468c0.109-0.779-0.027-1.787-0.528-2.176
	c-0.313-0.242-0.501-0.271-0.624-0.262c-0.438,0.032-0.853,0.22-1.378,0.51c-1.458,0.805-3.018-0.794-1.293-1.746
	c0.06-0.033,0.128-0.063,0.19-0.095c-2.639-2.36-2.425-7.288-0.877-10.286c0.002-0.091,0.004-0.176,0.006-0.26
	c-2.749-2.268-5.001-5.011-7.674-7.346c-2.452-2.145-5.178-3.289-8.218-3.969c-0.913,1.826-1.765,3.736-2.552,5.703
	c0.395-0.08,0.805-0.077,1.184,0.057c1.387,0.488,2.504,1.414,3.184,2.719c0.429,0.821-2.381,1.767-2.897,0.775
	c-0.459-0.88-1.239-1.489-2.123-1.891c-1.828,4.86-3.245,9.977-4.111,14.86c-0.416,2.345-1.635,6.751,0.28,8.772
	C398.107,204.852,401.598,204.429,404.043,204.312z M385.311,221.28c-0.542,8.081-2.208,16.331-6.809,18.74
	c1.768,1.88,3.709,3.66,5.792,5.156c1.11,0.797,2.526,1.842,4.045,2.619c-0.729-6.506,0.154-12.978,1.758-19.309
	c0.263-1.037,3.192-1.471,2.904-0.336c-1.642,6.481-2.576,13.107-1.67,19.779c0.042,0.313-0.146,0.588-0.441,0.805
	c1.203,0.249,2.4,0.18,3.502-0.455c0.374-0.216,0.734-0.453,1.092-0.693c-0.021-0.078-0.032-0.164-0.03-0.258
	c0.162-11.595,3.08-22.847,7.162-33.637c-5.96-0.303-12.295,2.332-16.042,7.021C386.353,220.989,385.841,221.187,385.311,221.28z
	 M361.049,155.051c0.342,0,0.685,0,1.026,0c1.684,0,3.367,0,5.05,0c0-0.415,0-0.831,0-1.246c0-0.146,0-0.292,0-0.438
	c0-3.674,0-7.348,0-11.021c-1.741,0-3.482,0-5.223,0c-0.369,0-0.738,0-1.107,0c-8.591,0-17.181,0-25.772,0c0,3.415,0,6.831,0,10.245
	c0,0.146,0,0.291,0,0.438c0,0.674,0,1.348,0,2.022C343.699,155.051,352.374,155.051,361.049,155.051z M313.875,193.424
	c0.04-0.012,0.08-0.024,0.119-0.036c1.489-0.416,1.955,0.544,0.959,1.127c0.263,0.189,0.549,0.363,0.875,0.51
	c0.021-2.514,0.078-5.025,0.19-7.533c-0.375-0.004-0.702-0.114-0.854-0.375c-0.429-0.732-0.635-1.768-1.215-2.285
	C312.98,187.563,312.297,191.134,313.875,193.424z M315.809,202.384c0.001-2.108-0.001-4.219,0.011-6.327
	c-0.597,0.431-1.655,0.754-2.199,0.517c-0.43-0.188-0.802-0.416-1.144-0.665c-0.751,0.872-0.961,2.087-0.367,3.38
	C312.822,200.837,314.199,201.955,315.809,202.384z M315.583,210.269c0.101-2.041,0.174-4.08,0.203-6.116
	c-0.347-0.017-0.699-0.054-1.053-0.113c-0.728,1.269-1.448,2.714-1.318,3.99C313.542,209.278,314.505,209.89,315.583,210.269z
	 M342.023,241.866c-0.274-0.98-0.301-2.048-0.013-3.213c0.187-0.756,1.305-1.183,2.112-1.115c-0.418-0.487-0.808-0.99-1.132-1.519
	c-1.391-2.263-0.351-3.677,1.599-4.479c-0.128-0.236-0.268-0.47-0.377-0.709c-1.371-2.979,1.479-3.872,3.992-3.907
	c-0.144-1.554,0.525-2.938,2.53-3.903c5.478-2.64,9.534,4.829,13.198,9.197c-0.272-1.61-0.315-3.263,0.355-4.587
	c0.793-1.567,3.128-2.193,4.706-1.566c1.882,0.749,3.21,2.608,4.123,4.338c1.396,2.646,2.081,5.563,2.194,8.537
	c8.538,1.318,7.176-34.289,7.197-40.178c0.027-7.621,1.092-20.69-5.517-26.102c-4.029-3.299-8.361-6.717-13.098-8.93
	c-1.353-0.631-4.259-1.303-4.542-3.186c-0.124-0.82,0.365-1.932,0.39-2.695c-0.294-0.105-0.369-0.32,0.05-0.688
	c0.077-0.067,0.154-0.135,0.23-0.202c0.088-0.078,0.276-0.181,0.508-0.28c-0.203,0-0.406,0-0.609,0c-6.236,0-12.473,0-18.709,0
	c1.227,10.539-17.248,8.442-20.336,16.878c-0.092,0.25-0.307,0.447-0.575,0.592c-0.002,0.02,0.001,0.036-0.002,0.057
	c-2.643,14.959-1.499,30.606-2.196,45.742c-0.246,5.347-1.364,16.488,4.392,19.739C328.094,242.853,335.764,243.128,342.023,241.866
	z M363.719,249.046c0.285,0.006,0.488,0.059,0.635,0.139c2.151-3.278,4.973-6.475,8.425-8.506c-0.207-0.052-0.344-0.148-0.345-0.305
	c-0.001-0.086-0.01-0.178-0.011-0.264c-0.063-0.023-0.125-0.041-0.188-0.065c-0.446-0.169-0.265-0.465,0.154-0.737
	c-0.213-3.978-1.431-8.602-4.536-11.199c-0.24-0.201-0.523-0.429-0.827-0.598c-0.046,0.112-0.086,0.229-0.116,0.347
	c-0.579,2.285,0.151,4.872,0.755,7.073c0.163,0.594-1.158,1.15-2.075,1.156c-0.538,0.197-1.145,0.246-1.507,0.01
	c-2.376-1.553-4.052-3.916-5.772-6.126c-1.154-1.482-3.906-5.88-6.211-5.486c-4.5,0.769,6.225,11.498,7.451,12.561
	c0.947,0.82-1.78,1.985-2.67,1.215c-2.061-1.786-7.1-6.2-8.391-10.036c-0.22,0.053-0.412,0.078-0.536,0.062
	c-0.387-0.054-0.801-0.128-1.204-0.138c-0.01,0.016-0.01,0.021-0.021,0.039c-0.115,0.428-0.03,0.879,0.131,1.288
	c0.502,1.268,1.323,2.387,2.201,3.419c1.738,2.042,3.679,3.996,5.849,5.583c0.507,0.371-2.036,1.521-2.723,1.018
	c-2.42-1.77-5.154-4.175-6.93-6.843c-0.739,1.18,1.492,3.76,2.139,4.398c1.631,1.61,3.476,3.039,5.514,4.096
	c0.43,0.223-1.949,1.414-2.724,1.014c-1.801-0.934-3.698-2.212-5.241-3.738c-0.001,0.004,0,0.006-0.001,0.01
	C343.012,246.244,358.467,248.946,363.719,249.046z M389.771,289.642c1.133-1.928,2.284-3.842,3.457-5.738
	c-0.453-0.442,0.205-0.973,0.981-1.238c0.77-4.266,0.857-8.611,1.26-12.922c0.013-0.143,0.104-0.268,0.239-0.38
	c-0.44,0.06-0.884,0.104-1.333,0.134c-1.353,0.087-2.707-0.035-4.047-0.302C390.331,276.044,388.471,282.896,389.771,289.642z
	 M409.201,262.656c-3.355,2.854-6.977,5.112-10.952,6.189c0.079,0.029,0.124,0.069,0.119,0.122
	c-0.439,4.707-0.51,9.453-1.463,14.097c-0.022,0.107-0.109,0.208-0.232,0.301c1.325,1.042,2.466,2.224,3.799,3.27
	c1.521,1.191,4.106,1.349,6.298,1.437c0.055,0.003,0.104,0.005,0.159,0.007c0.038-0.855,0.075-1.71,0.116-2.566
	c0.237-5.012,0.535-10.027,1.116-15.006C408.419,268.282,408.54,265.302,409.201,262.656z M315.542,395.338
	c-0.009-0.067,0.027-0.151,0.119-0.251c4.743-5.166,5.489-13.986,5.495-20.647c0.005-5.909-0.271-12.786-3.242-18.108
	c-1.255-0.062-2.51-0.121-3.765-0.175c-10.787-0.462-22.266-1.22-32.947,0.7c-9.15,1.646-18.431,8.166-16.573,18.762
	c1.615,9.208,9.867,16.857,19.109,18.102c0.343-0.215,0.754-0.351,1.149-0.308C295.059,394.516,305.311,395.101,315.542,395.338z
	 M336.516,395.538c5.76-0.181,11.482-0.759,16.777-2.27c6.988-1.994,13.234-7.951,14.666-15.223
	c-0.614-3.308-1.047-6.664-1.298-10.012c-3.175-6.086-10.527-9.305-17.594-10.622c-0.228,0.086-0.453,0.14-0.645,0.139
	c-9.054-0.038-18.084-0.581-27.121-1.05c2.864,5.858,2.925,13.345,2.681,19.605c-0.136,3.503-0.493,7.441-1.543,11.085
	c-0.539,1.868-1.267,3.654-2.236,5.269c-0.547,0.91-1.164,1.771-1.88,2.551c-0.133,0.145-0.406,0.271-0.73,0.367
	c0.557,0.011,1.113,0.025,1.669,0.033c2.1,0.031,4.254,0.084,6.438,0.127C329.257,395.608,332.894,395.651,336.516,395.538z
	 M398.034,401.57c-3.713,1.321-8.143,2.075-12.283,1.875c-0.027,0.007-0.044,0.017-0.072,0.023
	c-5.729,1.391-11.804,4.045-16.72,7.275c-1.424,0.937-5.447,3.302-4.705,5.603c0.632,1.957,3.277,2.161,5.029,2.361
	c10.678,1.219,21.392-0.126,32.082-0.316c0.24-0.397,0.704-0.744,1.31-0.812C406.569,417.151,399.427,404.206,398.034,401.57z
	 M407.98,314.668c-0.822-8.015-1.517-16.099-1.164-24.096c0.012-0.276,0.025-0.552,0.037-0.828
	c-0.368-0.022-0.745-0.045-1.132-0.065c-0.8-0.042-1.625-0.091-2.45-0.171c-1.779-0.171-3.541-0.504-4.94-1.347
	c-1.241-0.747-2.267-1.852-3.366-2.857c-11.335,18.576-21.286,39.02-24.519,60.689c-1.008,6.76-1.3,14.079-0.772,21.406
	c0.834,1.748,1.371,3.713,1.52,5.923c0.094,1.394-0.007,2.781-0.253,4.146c1.449,7.913,3.962,15.533,7.723,22.129
	c0.008,0.014,0.005,0.029,0.01,0.043c0.33-0.034,0.627-0.005,0.819,0.125c4.689,3.162,13.142,2.531,18.716,0.266
	c0.299-0.26,0.711-0.438,1.116-0.494c0.366-0.176,0.715-0.36,1.044-0.551c0.086-0.05,0.194-0.091,0.309-0.126
	C387.979,373.644,386.922,335.894,407.98,314.668z M419.973,334.565c0.682-0.215,1.433-0.193,1.635,0.172
	c1.823,0.112,3.674-0.017,5.419-0.282c6.39-0.971,10.46-2.729,13.812-8.142c1.406-19.813,0.514-40.084-0.314-59.891
	c-0.747-17.872-0.048-47.561-21.011-53.758c-1.948,3.975-3.739,8.061-4.294,12.49c-0.032,0.252-0.304,0.449-0.668,0.596
	c-4.346,8.122-9.903,19.164-18.395,23.262c-7.844,3.785-15.356-2.43-20.595-8.135c-3.599,1.715-6.398,5.029-8.535,8.297
	c0.015,0.018,0.035,0.032,0.046,0.053c2.654,4.611,7.127,8.385,11.397,11.458c4.4,3.167,10.215,7.423,15.871,7.59
	c1.116,0.033,2.221-0.135,3.313-0.432c3.303-0.897,6.463-3.124,9.302-5.692c2.689-2.435,5.093-5.16,7.046-7.327
	c3.836-4.255,7.439-8.731,11.45-12.826c0.508-0.519,3.294-0.845,2.636-0.172c-4.314,4.405-8.827,10.628-13.931,16.063
	c0,0.06-0.031,0.129-0.112,0.214c-2.571,2.677-2.644,8.522-3.009,11.956c-0.656,6.167-0.995,12.359-1.269,18.553
	c-0.372,8.409,0.4,16.813,1.166,25.183c0.389,4.25,0.805,8.497,1.255,12.741c0.1,0.942,0.017,3.874,0.533,4.438
	C414.661,333.095,417.238,334.153,419.973,334.565z M465.522,394.524c-0.028-0.162-0.065-0.321-0.088-0.484
	c-0.097-0.686,0.66-1.203,1.425-1.363c0.102-0.154,0.205-0.309,0.3-0.461c-3.598-2.133-5.893-6.836-7.734-10.352
	c-3.342-6.381-6.157-13.031-8.68-19.774c-2.681-7.165-5.15-14.435-7.118-21.831c-0.958-3.601-2.052-7.396-2.412-11.182
	c-4.906,5.182-12.183,7.439-19.481,7.184c1.085,25.332,10.268,48.285,22.747,70.21c0.086,0.151,0.104,0.298,0.078,0.438
	C451.643,407.844,460.7,400.695,465.522,394.524z M473.188,413.923c-0.953-6.07-5.167-11.084-7.02-16.806
	c-2.877,3.152-6.55,6.176-10.47,8.342c0.24,1.919,1.979,3.521,2.112,5.464c0.011,0.165-0.067,0.317-0.197,0.455
	c2.941-0.582,6.128-0.557,8.234-0.345c1.954,0.196,0.006,1.781-1.121,1.668c-3.635-0.365-11.646-0.546-11.475,4.662
	c3.121,0.078,6.239,0.294,9.362,0.343C465.72,417.755,473.99,419.029,473.188,413.923z M477.605,418.198
	c-4.666,4.336-9.875,9.981-10.303,16.704c-0.473,7.435,3.846,14.555,11.135,16.743c14.833,4.453,27.307-6.533,38.529-14.76
	c-0.581-0.124-1.005-0.527-0.789-1.238c3.46-11.356-7.964-29.102-20.593-28.302c-1.112,0.07-1.422-0.601-1.184-1.22
	C488.429,409.638,482.68,413.481,477.605,418.198z M541.882,399.075c-7.141-8.056-19.564-9.551-28.601-4.126
	c-0.04,0.024-0.088,0.046-0.138,0.067c0.072,0.344-0.116,0.752-0.734,1.103c-5.273,2.989-10.723,5.821-16.039,8.866
	c-0.094,0.054-0.188,0.109-0.283,0.163c0.216-0.01,0.432-0.013,0.647-0.014c13.715-0.086,25.683,17.337,22.414,30.156
	c5.096-3.707,10.152-7.466,15.233-11.193c1.433-1.051,3.492-3.15,5.502-3.866C545.251,415.746,546.554,404.345,541.882,399.075z
	 M221.833,186.768c-0.791-0.018-1.464-0.521-1.502-1.337c-0.019-0.419-2.932,0.037-2.897,0.775c0.058,1.275,1.442,1.639,2.498,1.663
	c0.679,0.016,1.464-0.21,2.049-0.549c0.096-0.056,0.396-0.221,0.35-0.39C222.286,186.759,221.945,186.771,221.833,186.768z" fill="#0a1230"></path>
</svg>