<?xml version="1.0" standalone="no"?>
<svg version="1.1" id="Layer_1" xmlns="http://www.w3.org/2000/svg" xmlns:xlink="http://www.w3.org/1999/xlink" x="0px" y="0px" width="595.28px" height="595.28px" viewBox="0 0 595.28 595.28" enable-background="new 0 0 595.28 595.28" xml:space="preserve">
<path id="color_x5F_2" fill="#6c63ff" d="M531.278,350.417c-0.753-0.009-1.518-0.089-2.27-0.212c0.643,0.003,1.31-0.018,1.986-0.071
	L531.278,350.417z M544.985,413.014c-1.355-11.739-1.111-23.604-2.86-35.308c-1.369-9.164-2.899-19.896-11.5-25.158
	c-0.465-0.284-0.455-0.636-0.209-0.95c-2.663,0.073-5.387-0.452-7.833-1.223c-2.844-0.896-5.599-2.04-8.288-3.33
	c-0.566,0.308-1.119,0.638-1.658,0.991c-0.296,0.266-0.615,0.561-0.955,0.885c-0.049,0.192-0.205,0.405-0.507,0.63
	c-0.232,0.173-0.456,0.357-0.677,0.544c-0.999,1.025-2.096,2.248-3.213,3.657c-2.027,3-3.41,6.572-4.539,9.812
	c-2.216,6.361-3.771,12.952-4.977,19.575c-1.775,9.744-3.33,19.817-3.395,29.749c0,0.044-0.012,0.084-0.02,0.126h19.5
	c0.19-12.068-4.811-23.509-5.075-35.569c-0.02-0.883,2.885-1.355,2.897-0.777c0.27,12.32,5.479,23.992,5.052,36.347H544.985z
	 M432.016,340.012c-0.027,0.043-0.053,0.086-0.087,0.126c0.125-0.019,0.25-0.036,0.376-0.054
	C432.204,340.059,432.108,340.035,432.016,340.012z M447.798,350.714c-3.983-5.429-8.991-9.89-16.166-8.223
	c-3.86,0.897-7.654,2.12-11.339,3.577c-1.536,0.607-3.158-1.106-1.317-1.834c3.279-1.296,6.973-2.801,10.708-3.663
	c-0.221-0.111-0.402-0.283-0.506-0.527c-1.098-2.58-2.123-5.188-3.884-7.402c-12.843,3.09-21.427,11.75-31.698,19.382
	c-0.013,0.071-0.031,0.146-0.063,0.226c-6.82,17.041-12.441,35.939-13.604,54.482c0.043,3.615,0.234,5.912,0.234,5.912h35.519
	c1.094-12.44,2.434-24.857,2.504-37.361c0.005-0.895,2.901-1.332,2.897-0.775c-0.071,12.729-1.46,25.371-2.564,38.039
	c-0.003,0.034-0.017,0.065-0.027,0.098h38.204c0.171-13.594,0.06-27.347-1.398-40.856
	C454.43,363.745,452.671,357.354,447.798,350.714z M234.067,412.466c0,0.061-0.012,0.12-0.033,0.178h13.651
	c0-21.283,0-42.565,0-63.849c-4.539,0-9.079,0-13.618,0C234.067,370.019,234.067,391.242,234.067,412.466z M280.797,412.255
	c0,0.143-0.08,0.271-0.204,0.389h13.822c0-18.427,0-36.854,0-55.281h-13.618C280.797,375.659,280.797,393.958,280.797,412.255z
	 M324.906,412.466c0,0.061-0.012,0.12-0.033,0.178h13.651c0-28.002,0-56.003,0-84.005c-4.539,0-9.078,0-13.618,0
	C324.906,356.581,324.906,384.522,324.906,412.466z M323.591,326.384c0.044-0.003,0.085-0.011,0.131-0.011
	c5.417,0,10.833,0,16.251,0v-0.454h-16.359L323.591,326.384z M169.733,313.643l-0.666,0.408c0.218,0.317,0.438,0.634,0.666,0.949
	V313.643z M197.344,329.612c-1.439,0.428-2.937,0.71-4.507,0.777c-0.862,0.037-1.709,0.021-2.547-0.026
	c-0.078,4.774-1.024,9.475-1.098,14.249c-0.002,0.162-0.061,0.309-0.155,0.442c4.539,0.201,9.127-0.619,13.337-2.479
	c-0.067-0.052-0.124-0.112-0.155-0.191C200.531,338.119,197.843,334.226,197.344,329.612z M216.76,330.385
	c-0.385,0.055-0.761,0.005-1.023-0.206c-2.862-2.299-6.278-3.742-8.975-6.21c-1.973,1.854-4.157,3.424-6.545,4.554
	c0.397,4.625,3.026,8.516,4.757,12.74c0.253-0.145,0.514-0.271,0.763-0.424C210.199,338.098,213.777,334.481,216.76,330.385z
	 M169.365,319.114c0.992,5.881,1.099,11.95,0.733,17.887c0.015,0.013,0.034,0.021,0.047,0.034c0.91,0.901,1.893,1.706,2.909,2.458
	c0.489-4.699,1.887-9.532,3.609-13.834C173.97,323.855,171.532,321.618,169.365,319.114z M183.528,346.241
	c1.726,0.749,4.025,0.813,6.639,0.426C187.936,346.739,185.71,346.604,183.528,346.241z M187.367,330.587
	c0.003-0.197,0.09-0.374,0.226-0.527c-3.089-0.505-5.988-1.557-8.671-3.037c-1.678,4.5-2.913,9.555-3.112,14.288
	c3.222,1.831,6.792,2.986,10.461,3.488C186.353,340.037,187.294,335.35,187.367,330.587z M190.599,328.377
	c-0.046-0.001-0.087-0.001-0.133-0.002c0.016,0.001,0.031,0.003,0.046,0.004C190.542,328.38,190.569,328.376,190.599,328.377z
	 M211.737,338.568c2.768-1.623,5.227-4.501,7.306-7.704C216.907,333.724,214.491,336.324,211.737,338.568z M208.702,321.977
	c2.652,2.755,6.312,4.174,9.275,6.556c0.018,0.014,0.027,0.029,0.043,0.043c2.646-3.979,4.797-8.334,6.671-12.758
	c-3.189-0.974-6.26-2.531-8.92-4.313C213.942,315.089,211.581,318.796,208.702,321.977z M83.924,325.658
	c3.418,1.848,7.008,4.295,8.469,7.915c1.772-1.692,3.656-3.289,5.68-4.754c0.209-0.151,0.464-0.243,0.729-0.283
	c0.937-4.798,0.229-10.387-2.94-14.183C91.462,317.68,87.498,321.493,83.924,325.658z M82.412,327.473
	c-3.045,3.745-5.796,7.739-8.293,11.882c3.46,0.347,6.545,3.122,8.918,5.804c2.028-3.251,4.339-6.313,6.953-9.133
	C89.2,332.051,85.836,329.426,82.412,327.473z M73.219,340.86c-0.875,1.502-1.719,3.021-2.531,4.554
	c-1.36,2.565-2.636,5.16-3.808,7.785c3.616,0.525,6.968,2.186,10.227,3.846c1.258-3.245,2.75-6.382,4.45-9.394
	C79.523,345.168,76.516,341.748,73.219,340.86z M58.49,387.507c0,0,0.029-0.604,0.658-1.343c-0.245,0.091-0.483,0.193-0.724,0.295
	C58.457,387.132,58.49,387.507,58.49,387.507z M61.443,369.269c0.029-0.005,0.058-0.013,0.088-0.017
	c2.331-0.276,4.674-0.283,6.988,0.152c1.544,0.291,3.113,0.839,4.687,1.038c0.773-3.74,1.783-7.433,3.045-11.028
	c-3.278-1.658-6.644-3.497-10.295-4.087C64.048,359.866,62.484,364.504,61.443,369.269z M61.14,370.796
	c-0.839,4.325-1.245,8.755-1.092,13.31c3.673-1.104,7.594-1.466,11.431-1.187c0.259-3.604,0.705-7.226,1.379-10.816
	c-0.004,0-0.008,0.001-0.012,0.001C68.812,371.933,65.301,370.31,61.14,370.796z"></path>
<path id="color_x5F_1" d="M75.565,277.628c4.397,1.715,9.68,0.578,13.507-2.227c15.823,14.775,42.223,13.524,61.679,7.648
	c9.52-2.875,18.067-7.982,22.808-16.943c1.735-3.28,2.863-6.93,3.473-10.708c0.142-0.491,0.283-0.981,0.397-1.493
	c0.047-0.213-0.008-0.372-0.126-0.489c0.674-6.007,0.083-12.233-1.495-17.754c-5.681-19.868-27.71-28.906-46.604-29.654
	c-12.347-0.489-25.011,2.432-34.671,9.491l-0.282-0.15l0.137,0.255c-0.58,0.429-1.152,0.868-1.709,1.326
	c-0.249,0.137-0.452,0.315-0.592,0.506c-3.971,3.393-7.313,7.585-9.757,12.637c-2.11-0.563-4.397-0.296-6.799,1.254
	c-6.708,4.326-9.468,12.198-9.889,20.232c-0.875,8.269,0.529,17.207,5.486,22.615C72.34,275.695,73.808,276.943,75.565,277.628z
	 M160.497,234.511c1.175,0,2.35,0,3.525,0c0,1.502,0,3.005,0,4.507c-1.175,0-2.35,0-3.525,0
	C160.497,237.516,160.497,236.013,160.497,234.511z M165.483,245.621c0-1.473,0-2.945,0-4.418c1.175,0,2.35,0,3.525,0
	c0,1.502,0,3.004,0,4.507c-1.143,0-2.286,0-3.428,0C165.544,245.683,165.518,245.65,165.483,245.621z M159.024,236.089
	c-0.013-0.127-0.03-0.253-0.03-0.379s0.012-0.252,0.03-0.378C159.024,235.584,159.024,235.837,159.024,236.089z M155.51,245.71
	c0-1.453,0-2.905,0-4.358c0.044-0.05,0.088-0.1,0.132-0.148c1.131,0,2.262,0,3.394,0c0,1.249,0,2.497,0,3.746
	c-0.027,0.053-0.056,0.109-0.082,0.16c-0.134,0.261-0.399,0.451-0.719,0.601C157.327,245.71,156.418,245.71,155.51,245.71z
	 M164.043,240.583c-0.011,0.041-0.033,0.078-0.033,0.123c0,0.095,0,0.189,0,0.284c-0.053-0.128-0.083-0.262-0.083-0.392
	C163.963,240.595,164.007,240.588,164.043,240.583z M123.268,245.16c0-1.502,0-3.005,0-4.507c1.175,0,2.351,0,3.526,0
	c0,1.404,0,2.809,0,4.212c-0.066,0.101-0.133,0.198-0.203,0.295C125.484,245.16,124.376,245.16,123.268,245.16z M133.25,245.16
	c-0.003-0.001-0.006-0.003-0.009-0.005c0-1.5,0-3.001,0-4.502c1.175,0,2.35,0,3.525,0c0,1.419,0,2.839,0,4.259
	c-0.12,0.101-0.256,0.175-0.392,0.248C135.333,245.16,134.292,245.16,133.25,245.16z M131.78,238.322
	c-0.036,0.049-0.071,0.097-0.108,0.145c-1.139,0-2.278,0-3.417,0c0-1.503,0-3.004,0-4.506c1.175,0,2.35,0,3.525,0
	C131.78,235.415,131.78,236.868,131.78,238.322z M128.954,232.875c0.19-0.054,0.376-0.093,0.544-0.092
	c0.519,0.003,0.917,0.012,1.274,0.092C130.166,232.875,129.56,232.875,128.954,232.875z M121.795,244.194
	c-0.096-0.305-0.114-0.641-0.007-1.016c0.001-0.006,0.005-0.01,0.007-0.015C121.795,243.507,121.795,243.851,121.795,244.194z
	 M94.362,218.378c7.479-0.329,12.819,4.55,15.119,11.61c2.202,6.757-1.151,13.823-1.712,20.618
	c-0.856,10.36,7.444,17.957,16.388,21.179c13.586,4.895,35.677,4.584,46.896-6.379c-4.054,8.189-11.937,12.954-20.777,15.87
	c-9.732,3.211-20.335,3.809-30.507,3.473c-10.722-0.354-20.841-3.56-28.591-11.105c7.708-7.045,6.255-19.744,3.259-28.747
	c-1.483-4.456-5.029-11.069-9.744-13.822C87.012,226.005,90.342,221.783,94.362,218.378z M81.348,232.294
	c6.723,1.813,9.963,11.775,11.421,17.608c1.847,7.392,2.253,17.989-4.379,23.222c-0.091,0.072-0.167,0.143-0.232,0.213
	c-0.006,0.006-0.015,0.01-0.021,0.016c-3.834,3.667-7.173,4.141-9.952,2.845c8.916-10.355,4.243-30.845-5.221-39.424
	C75.015,233.642,77.853,231.351,81.348,232.294z M253.768,297.879c-2.881-1.169-5.762-2.338-8.643-3.506
	c-0.373-0.151-1.127,0.021-1.729,0.294c-0.4,0.139-0.74,0.334-0.875,0.583c-3.572,6.581-10.233,10.585-17.455,6.953
	c-5.963-3-6.701-10.151-5.015-15.866c0.15-0.511-0.688-0.604-1.503-0.429c-0.055-0.25-0.305-0.461-0.859-0.55
	c-2.411-0.386-4.823-0.77-7.235-1.156c-0.5-0.08-1.059,0.142-1.448,0.459c-0.277,0.173-0.483,0.393-0.536,0.649
	c-1.622,8.016-2.354,16.635,3.472,23.157c0.154,0.173,0.399,0.259,0.679,0.285c-0.073,0.175-0.043,0.354,0.151,0.517
	c0.377,0.315,0.771,0.629,1.177,0.938c-0.321,0.138-0.589,0.338-0.719,0.598c-4.497,8.981-11.645,17.889-22.632,17.571
	c-0.029-0.001-0.057,0.003-0.087,0.002c-0.016-0.001-0.031-0.003-0.046-0.004c-3.948-0.142-7.604-1.552-10.886-3.686
	c-0.085-0.132-0.235-0.22-0.417-0.277c-3.677-2.483-6.865-5.867-9.428-9.412c-0.228-0.315-0.448-0.632-0.666-0.949
	c-0.519-0.755-1.016-1.512-1.477-2.267c-2.285-6.874-6.907-11.11-13.65-13.815c-0.958-0.385-1.937-0.728-2.924-1.052
	c-2.608-1.331-6.296-2.026-10.406-2.313c-9.394-1.225-19.279-0.459-28.152,1.354c-0.333,0.067-0.664,0.147-0.996,0.22
	c-0.513-0.231-1.667,0.091-2.223,0.531c-4.568,1.177-9.031,2.883-13.018,5.393c-0.098,0.062-0.188,0.131-0.284,0.193
	c-0.01,0.007-0.02,0.014-0.03,0.021c-6.398,4.196-9.468,11.354-10.991,18.61c-1.39,1.453-2.731,2.953-4.018,4.5
	c-0.43,0.23-0.724,0.52-0.631,0.772c-4.022,4.94-7.561,10.298-10.753,15.863c-2.174,3.791-4.175,7.69-5.918,11.685
	c-0.271,0.289-0.431,0.615-0.388,0.88c-4.054,9.544-6.551,19.641-6.099,30.188c0.005,0.123,0.032,0.23,0.069,0.331
	c-1.454,0.624-2.852,1.376-4.165,2.274c-7.4,5.063-8.744,16.278-8.841,24.419c-0.012,0.99,1.503,0.981,2.353,0.479
	c2.87-0.318,5.739-0.638,8.609-0.957c0.267-0.029,0.521-0.114,0.744-0.228c0.51-0.201,0.917-0.518,0.917-0.908
	c-0.005-6.912,3.549-14.716,11.341-15.275c6.775-0.486,10.879,5.608,12.109,11.465c0.122,0.58,1.392,0.476,2.212,0.072
	c0.309,0.039,0.635,0.004,0.854-0.072c2.305-0.809,4.609-1.618,6.914-2.427c0.204-0.071,0.479-0.186,0.72-0.341
	c0.025-0.017,0.049-0.033,0.074-0.051c0.042-0.029,0.081-0.061,0.117-0.092c0.025-0.021,0.048-0.044,0.071-0.067
	c0.033-0.032,0.062-0.065,0.089-0.099c0.022-0.028,0.042-0.059,0.06-0.088c0.019-0.03,0.036-0.061,0.05-0.092
	c0.02-0.047,0.034-0.097,0.043-0.147c0.003-0.018,0.009-0.034,0.011-0.052c0.006-0.074,0.002-0.152-0.02-0.234
	c-2.406-7.932-5.968-15.94-14.345-18.852c-0.16-0.056-0.354-0.062-0.56-0.038c-0.078-0.125-0.248-0.229-0.551-0.292
	c-0.538-0.111-1.081-0.207-1.626-0.293c0.825-12.469,4.021-25.28,10.361-36.114c1.356,10.725,3.751,21.322,7.012,31.624
	c2.265,7.154,7.348,12.495,13.983,15.844c14.001,7.064,33.161,3.942,45.28-5.502c6.489-5.057,10.151-12.996,12.898-20.53
	c2.847-7.807,4.568-16.05,5.54-24.315c0.014-0.029,0.029-0.057,0.042-0.086c0.047-0.104,0.043-0.188,0-0.257
	c0.14-1.22,0.264-2.438,0.373-3.657c0.98,0.775,1.993,1.493,3.048,2.125c0.108,0.37,0.512,0.531,0.984,0.542
	c3.015,1.648,6.274,2.756,9.647,3.317c2.182,0.362,4.408,0.498,6.639,0.426c3.938-0.129,7.89-0.915,11.644-2.336
	c3.749-1.419,7.021-3.396,9.926-5.763c2.753-2.244,5.17-4.845,7.306-7.704c3.263-4.365,5.888-9.309,8.117-14.425
	c2.892,0.582,5.811,0.63,8.537-0.144c8.682-2.462,14.471-9.905,18.694-17.478C254.712,298.242,254.338,297.948,253.768,297.879z
	 M176.663,325.659c-1.722,4.302-3.12,9.135-3.609,13.834c-1.016-0.752-1.999-1.557-2.909-2.458
	c-0.014-0.014-0.032-0.021-0.047-0.034c0.366-5.937,0.259-12.006-0.733-17.887C171.532,321.618,173.97,323.855,176.663,325.659z
	 M156.428,314.599c-0.054-2.414-1.024-4.509-2.686-6.242c-0.957-0.997,0.557-2.515,1.516-1.516c2.055,2.142,3.248,4.776,3.314,7.758
	C158.603,315.981,156.459,315.979,156.428,314.599z M159.572,324.099v3c0,1.383-2.144,1.383-2.144,0v-3
	C157.428,322.716,159.572,322.716,159.572,324.099z M95.453,304.514c0.405-0.417,0.842-0.8,1.288-1.173
	c9.784,2.008,12.577,15.047,12.254,23.525c-0.191,4.991-1.586,10.105-4.725,14.056c-4.31,5.425-11.157,4.39-16.834,2.019
	c3.424-4.891,7.562-9.276,12.538-12.877c0.05-0.036,0.084-0.07,0.126-0.106c0.628-0.139,1.225-0.413,1.313-0.754
	c1.482-5.769,0.664-12.843-3.92-17.027c-0.008-0.007-0.02-0.011-0.029-0.018c-0.439-0.512-1.571-0.735-2.311-0.202
	c-2.347,1.692-4.557,3.522-6.658,5.457C89.809,312.622,91.878,308.192,95.453,304.514z M71.479,382.919
	c-3.836-0.279-7.758,0.082-11.431,1.187c-0.152-4.555,0.253-8.984,1.092-13.31c4.161-0.486,7.671,1.137,11.706,1.308
	c0.004,0,0.008-0.001,0.012-0.001C72.184,375.693,71.738,379.314,71.479,382.919z M73.206,370.442
	c-1.574-0.199-3.143-0.747-4.687-1.038c-2.314-0.436-4.657-0.429-6.988-0.152c-0.03,0.004-0.059,0.012-0.088,0.017
	c1.041-4.765,2.604-9.402,4.513-13.941c3.651,0.59,7.017,2.429,10.295,4.087C74.988,363.01,73.979,366.702,73.206,370.442z
	 M66.88,353.199c1.172-2.625,2.448-5.22,3.808-7.785c0.813-1.532,1.656-3.052,2.531-4.554c3.296,0.888,6.304,4.308,8.337,6.791
	c-1.7,3.012-3.192,6.148-4.45,9.394C73.848,355.385,70.496,353.725,66.88,353.199z M74.119,339.354
	c2.497-4.143,5.249-8.137,8.293-11.882c3.424,1.953,6.788,4.578,7.578,8.553c-2.614,2.819-4.925,5.882-6.953,9.133
	C80.664,342.477,77.579,339.701,74.119,339.354z M95.861,314.354c3.169,3.796,3.877,9.385,2.94,14.183
	c-0.265,0.04-0.519,0.132-0.729,0.283c-2.024,1.465-3.907,3.062-5.68,4.754c-1.461-3.62-5.051-6.067-8.469-7.915
	C87.498,321.493,91.462,317.68,95.861,314.354z M74.879,385.274c0.087,0.114,0.235,0.219,0.478,0.303
	c7.506,2.608,10.751,10.109,12.953,17.172c-1.804,0.633-3.608,1.267-5.413,1.9c-2.02-7.64-8.248-12.491-16.403-10.836
	c-7.96,1.617-12.238,8.582-12.563,16.232c-2.275,0.253-4.55,0.506-6.826,0.76c0.144-6.64,1.181-13.271,4.747-19.002
	c1.551-2.493,3.886-4.213,6.572-5.345c0.24-0.102,0.479-0.204,0.724-0.295c4.792-1.789,10.563-1.799,15.114-0.858
	C74.439,385.343,74.654,385.325,74.879,385.274z M161.795,366.897c-2.682,8.336-6.573,16.749-13.415,22.458
	c-15.575,12.996-45.218,10.235-53.296-9.983c-4.245-10.627-6.342-22.82-7.632-34.215c11.266,3.533,21.26-1.6,23.882-14.097
	c2.102-10.017-0.77-26.672-12.576-29.203c3.181-2.036,6.949-3.293,10.515-4.253c19.924,12.066,6.119,39.563,21.442,54.432
	c10.506,10.194,26.565,8.043,35.182-2.215C164.958,355.612,163.584,361.337,161.795,366.897z M175.81,341.311
	c0.199-4.733,1.434-9.788,3.112-14.288c2.683,1.48,5.582,2.532,8.671,3.037c-0.135,0.153-0.223,0.33-0.226,0.527
	c-0.073,4.763-1.015,9.45-1.096,14.212C182.602,344.297,179.032,343.142,175.81,341.311z M189.037,345.055
	c0.094-0.134,0.153-0.28,0.155-0.442c0.073-4.774,1.02-9.475,1.098-14.249c0.838,0.047,1.685,0.063,2.547,0.026
	c1.57-0.067,3.068-0.35,4.507-0.777c0.499,4.613,3.187,8.507,4.875,12.771c0.031,0.079,0.088,0.14,0.155,0.191
	C198.164,344.436,193.575,345.256,189.037,345.055z M205.737,340.839c-0.249,0.152-0.51,0.279-0.763,0.424
	c-1.731-4.225-4.36-8.115-4.757-12.74c2.388-1.13,4.572-2.7,6.545-4.554c2.696,2.468,6.113,3.911,8.975,6.21
	c0.262,0.211,0.638,0.261,1.023,0.206C213.777,334.481,210.199,338.098,205.737,340.839z M218.021,328.575
	c-0.016-0.014-0.025-0.029-0.043-0.043c-2.964-2.382-6.624-3.801-9.275-6.556c2.879-3.181,5.24-6.888,7.069-10.473
	c2.66,1.782,5.731,3.34,8.92,4.313C222.818,320.241,220.667,324.597,218.021,328.575z M237.481,313.825
	c-2.922,1.429-6.307,1.436-9.652,0.643c-0.131-0.152-0.439-0.218-0.814-0.207c-4.372-1.207-8.606-3.717-11.569-6.196
	c-0.178-0.148-0.43-0.218-0.71-0.231c0.07-0.178,0.048-0.365-0.114-0.547c-5.288-5.921-4.874-13.602-3.509-20.907
	c1.84,0.294,3.68,0.587,5.52,0.882c0.132,0.021,0.268,0.017,0.404,0c-1.979,7.489,0.786,15.934,9.252,17.574
	c7.573,1.468,14.195-2.276,18.187-8.438c2.288,0.929,4.576,1.856,6.864,2.784C247.971,305.112,243.744,310.763,237.481,313.825z
	 M297.234,356.221c0.047,0.085,0.081,0.18,0.081,0.297c0,18.649,0,37.299,0,55.948c0,0.965-2.899,1.585-2.899,0.355
	c0-0.06,0-0.118,0-0.178c0-18.427,0-36.854,0-55.281c0-0.097,0-0.192,0-0.289c-4.54,0-9.079,0-13.618,0c0,0.097,0,0.192,0,0.289
	c0,18.297,0,36.596,0,54.893c0,0.143-0.08,0.271-0.204,0.389c-0.654,0.615-2.693,0.855-2.693,0.389c0-18.65,0-37.299,0-55.949
	c0-0.535,1.051-0.907,1.887-0.998c0.282-0.093,0.53-0.154,0.663-0.154c5.048,0,10.097,0,15.145,0c0.458-0.12,0.95-0.136,1.291,0
	c0.027,0,0.054,0,0.082,0C297.429,355.931,297.441,356.055,297.234,356.221z M273.948,370.665c0,13.863,0,27.727,0,41.59
	c0,1.076-2.897,1.604-2.897,0.777c0-0.13,0-0.259,0-0.389h-13.625c-0.201,1.11-2.906,1.523-2.906,0.129c0-13.992,0-27.984,0-41.978
	c0-0.38,0.29-0.689,0.687-0.891c0.264-0.222,0.633-0.378,1.08-0.378c5.506,0,11.011,0,16.517,0
	C273.886,369.526,274.172,370.125,273.948,370.665z M250.583,347.94c0,21.438,0,42.877,0,64.314c0,1.059-2.897,1.579-2.897,0.777
	c0-0.13,0-0.259,0-0.389c0-21.283,0-42.565,0-63.849c-4.539,0-9.079,0-13.618,0c0,21.224,0,42.447,0,63.671
	c0,0.061-0.012,0.12-0.033,0.178c-0.321,0.857-2.866,1.331-2.866,0.178c0-21.638,0-43.275,0-64.913c0-0.198,0.126-0.381,0.322-0.537
	c0.199-0.454,0.688-0.842,1.395-0.842c5.505,0,11.011,0,16.517,0C250.543,346.529,250.856,347.298,250.583,347.94z M228.409,384.948
	c0,9.103,0,18.205,0,27.307c0,1.059-2.897,1.579-2.897,0.777c0-0.13,0-0.259,0-0.389H211.86c-0.321,0.857-2.866,1.331-2.866,0.178
	c0-9.314,0-18.63,0-27.945c0-0.207,0.139-0.397,0.349-0.558c0.215-0.428,0.692-0.781,1.367-0.781c5.506,0,11.012,0,16.518,0
	C228.37,383.537,228.682,384.306,228.409,384.948z M341.421,327.785c0,28.157,0,56.313,0,84.47c0,1.059-2.897,1.579-2.897,0.777
	c0-0.13,0-0.259,0-0.389c0-28.002,0-56.003,0-84.005c-4.539,0-9.078,0-13.618,0c0,27.942,0,55.884,0,83.827
	c0,0.061-0.012,0.12-0.033,0.178c-0.321,0.857-2.866,1.331-2.866,0.178c0-28.35,0-56.699,0-85.05c0-0.193,0.12-0.372,0.306-0.525
	c0.178-0.438,0.628-0.815,1.278-0.862c0.044-0.003,0.085-0.011,0.131-0.011c5.417,0,10.833,0,16.251,0c0.089,0,0.178,0,0.267,0
	C341.383,326.373,341.695,327.144,341.421,327.785z M319.247,376.272c0,11.994,0,23.988,0,35.982c0,1.059-2.897,1.579-2.897,0.777
	c0-0.13,0-0.259,0-0.389h-13.651c-0.321,0.857-2.866,1.331-2.866,0.178c0-12.204,0-24.409,0-36.614c0-0.205,0.136-0.394,0.343-0.553
	c0.212-0.433,0.692-0.794,1.373-0.794c5.506,0,11.012,0,16.518,0C319.209,374.86,319.521,375.63,319.247,376.272z M310.562,179.164
	c-15.052-3.904-33.07-1.203-46.875,5.659c-5.833,2.898-10.911,6.876-15.019,11.68c-0.512,0.248-0.904,0.656-0.872,1.073
	c-3.681,4.57-6.521,9.828-8.324,15.591c-5.478,17.508-0.838,38.619,11.34,52.635c-0.022,0.02-0.046,0.038-0.068,0.058
	c-0.229,0.194-0.017,0.278,0.37,0.287c3.708,4.19,8.093,7.734,13.1,10.323c6.38,3.299,13.573,4.497,20.696,4.024
	c15.434,0.932,31.34-1.756,43.874-11.327c10.038-7.666,16.242-19.199,18.199-31.57C351.021,212.075,336.026,185.768,310.562,179.164
	z M240.193,227.109c0.088-10.173,3.257-20.005,9.224-28.007c13.508,10.151,27.016,20.302,40.524,30.453
	c-2.781,3.107-5.671,6.129-8.645,9.08l-15.125,14.027c-4.346,3.816-8.75,7.552-13.137,11.259
	C244.721,253.813,240.082,240.003,240.193,227.109z M344.51,234.119c-0.862,11.97-6.008,23.38-14.742,31.643
	c-10.685,10.109-25.515,13.345-39.841,13.101c1.296-16.533,2.551-33.104,3.081-49.682c0.129-0.303,0.071-0.631-0.317-0.922
	c-13.866-10.42-27.732-20.84-41.598-31.26c1.507-1.785,3.157-3.47,4.962-5.022c13.048-11.221,33.659-14.78,50.233-11.694
	C331.355,184.951,346.267,209.72,344.51,234.119z M381.18,287.072c0.45-1.274,1.187-2.398,1.93-3.517
	c0.382-0.575,1.259-0.819,1.911-0.799c0.469,0.015,1.179,0.304,0.793,0.883c-0.652,0.979-1.339,1.965-1.734,3.081
	c-0.225,0.638-1.03,0.925-1.643,0.999C382.111,287.76,380.953,287.714,381.18,287.072z M390.02,305.45
	c-2.697,2.551-6.721,3.713-10.009,1.563c-1.164-0.761,1.519-1.914,2.307-1.398c2.018,1.319,3.667,0.984,5.38-0.635
	C388.382,304.331,391.247,304.29,390.02,305.45z M392.351,276.442c-0.59,0.397-1.41,0.537-2.064,0.226
	c-1.597-0.759-3.179-1.173-4.854-0.415c-0.536,0.243-1.499,0.409-1.941-0.115c-0.452-0.536,0.303-1.122,0.732-1.316
	c2.818-1.276,5.59-0.986,8.335,0.319C393.212,275.45,392.754,276.171,392.351,276.442z M444.279,342.839
	c-3.572-2.835-7.745-3.336-11.975-2.755c-0.125,0.018-0.25,0.035-0.376,0.054c0.034-0.04,0.061-0.083,0.087-0.126
	c0.135-0.217,0.177-0.468,0.06-0.743c-1.174-2.761-2.267-5.594-4.156-7.959c-0.53-0.664-1.763-0.477-2.418,0.045
	c-0.056,0.01-0.101,0.009-0.16,0.022c-0.03,0.007-0.058,0.017-0.088,0.022c0.17-0.167,0.266-0.355,0.228-0.559
	c-0.331-1.765-1.09-3.339-2.069-4.809c0.166-0.17,0.262-0.358,0.254-0.549c5.087-4.621,9.427-10.23,13.975-15.363
	c6.553-7.396,11.912-14.823,14.18-24.664c1.996-8.662,0.321-17.402-6.993-22.845c-6.752-5.023-15.655-5.899-22.689-10.479
	c-11.978-7.798-22.001-23.441-38.133-16.886c-6.563,2.668-11.147,8.82-12.052,15.749c-0.592,4.531,1.939,6.788,5.757,8.67
	c1.093,0.539,2.483,0.888,3.706,0.936c0.636,0.025,1.195,0.023,1.827-0.005c0.18-0.008,0.317-0.022,0.423-0.041
	c-4.985,8.287-9.442,16.865-13.432,25.672c-2.392-0.885-5.354-0.559-6.396,2.139c-1.324,3.423,1.737,6.731,4.68,7.891
	c-0.291,0.144-0.499,0.327-0.526,0.553c-1.044,8.568-4.286,18.655,3.5,25c4.076,3.321,9.748,3.629,14.686,4.521
	c6.505,1.174,9.577,3.38,13.559,8.419c-0.841,0.575-1.64,1.188-2.368,1.855c-2.969,2.725-4.208,6.054-5.147,9.607
	c-1.094-0.393-2.057-0.479-3.588,0.372c-2.511,1.394-4.27,4.202-5.456,6.712c-1.052,2.227-2.219,6.524-0.745,8.534
	c-0.159,0.123-0.282,0.263-0.338,0.42c-6.052,16.885-13.03,33.358-17.22,50.854c-0.272,1.137,2.656,0.692,2.903-0.34
	c4.107-17.15,10.892-33.319,16.858-49.854c0.336,0.017,0.698,0.007,1.107-0.053c0.468-0.068,0.88-0.307,1.158-0.584
	c-5.759,16.303-9.998,33.777-10.131,50.787c-0.011,1.459,2.918,0.973,2.928-0.252c0.016-2.019,0.105-4.046,0.232-6.076
	c1.163-18.543,6.784-37.441,13.604-54.482c0.032-0.08,0.05-0.154,0.063-0.226c10.271-7.632,18.854-16.292,31.698-19.382
	c1.761,2.215,2.786,4.822,3.884,7.402c0.104,0.244,0.285,0.416,0.506,0.527c-3.735,0.862-7.428,2.367-10.708,3.663
	c-1.84,0.728-0.219,2.441,1.317,1.834c3.685-1.457,7.479-2.68,11.339-3.577c7.175-1.667,12.182,2.794,16.166,8.223
	c4.873,6.64,6.632,13.031,7.5,21.073c1.458,13.51,1.569,27.263,1.398,40.856c-0.008,0.616-0.013,1.233-0.021,1.849
	c-0.022,1.588,2.925,1.208,2.945-0.186c0.232-16.152,0.314-32.715-2.118-48.714C456.177,356.876,451.194,348.327,444.279,342.839z
	 M423.862,255.457c-0.513-0.141-1.207-0.506-2.054-1.06C422.484,254.765,423.169,255.119,423.862,255.457z M383.546,259.147
	c0.525,0.001,0.997-0.01,1.403-0.023c-0.043,0.063-0.072,0.125-0.082,0.189c-0.824,0.012-1.6-0.049-2.335-0.185
	C382.883,259.14,383.224,259.146,383.546,259.147z M394.264,326.565c-5.657-2.248-12.024-1.611-17.597-4.258
	c-10.594-5.031-6.889-17.164-5.779-26.275c0.01-0.08-0.126-0.128-0.339-0.147c0.567-0.286,0.91-0.631,0.433-0.81
	c-2.407-0.904-4.191-2.846-4.471-5.451c-0.089-0.831,0.077-1.775,0.588-2.453c0.004-0.005,0.031-0.027,0.064-0.057
	c0.054,0.005,0.112,0.014,0.175,0.03c0.685,0.178,1.28,0.594,1.842,1.006c0.278,0.204,0.838,0.153,1.385-0.008
	c0.733-0.079,1.591-0.346,1.773-0.755c4.034-9.069,8.589-17.884,13.667-26.41c2.168,2.883,4.409,5.945,7.701,7.523
	c1.121,0.537,2.275,0.929,3.45,1.216c3.229,2.346,7.83,1.34,10.482,0.436c0.178-0.016,0.355-0.032,0.533-0.049
	c-2.442,9.053-6.615,18.836,0.571,26.805c0.304,0.337,1.506,0.034,2.226-0.349c0.51,0.318,2.259,0.047,2.685-0.487
	c4.426-5.555,12.183-0.573,13.254,5.109c0.489,2.595-0.983,5.977-2.095,8.225c-1.668,3.376-4.589,3.135-7.614,2.857
	c-0.075-0.037-0.128-0.064-0.128-0.064s0.002,0.021,0.006,0.054c-0.667-0.062-1.338-0.122-2.002-0.144
	c-1.064-0.034-3.098,1.535-1.139,1.6c0.828,0.026,1.627,0.092,2.403,0.158c-0.195,2.78,0.238,5.938,1.502,8.593
	c0.149,1.032,0.453,1.754,0.828,2.272c-3.677,1.558-7.23,3.354-10.703,5.334c-1.865,1.063-3.914,2.083-5.875,3.216
	C399.885,330.481,397.724,327.94,394.264,326.565z M400.6,336.646c5.656-4.347,12.801-7.776,19.439-10.521
	c0.015,0.054,0.04,0.106,0.079,0.159c1.194,1.616,2.092,3.344,2.465,5.331c0.036,0.192,0.196,0.311,0.418,0.373
	c-11.361,3.273-19.586,10.479-28.76,17.547C395.411,344.668,396.263,339.979,400.6,336.646z M386.113,361.155
	c-3.115,0.454-0.711-6.612-0.223-7.748c0.672-1.563,1.618-3.034,2.741-4.31c0.289-0.313,0.595-0.61,0.917-0.89
	c0.451-0.217,0.733-0.381,0.865-0.498c0.425,0.208,0.836,0.445,1.271,0.648c-0.292,1.211-0.584,2.438-0.924,3.668
	c-1.229,3.071-2.414,6.205-3.549,9.381C387.099,361.188,386.764,361.06,386.113,361.155z M421.084,374.507
	c-0.071,12.729-1.46,25.371-2.564,38.039c-0.003,0.034-0.017,0.065-0.027,0.098c-0.267,0.847-2.911,1.146-2.87,0.678
	c0.02-0.226,0.041-0.452,0.061-0.678c1.094-12.44,2.434-24.857,2.504-37.361C418.191,374.388,421.087,373.95,421.084,374.507z
	 M473.797,294.049c0.427-1.208,1.124-2.274,1.83-3.335c0.383-0.575,1.259-0.819,1.911-0.799c0.469,0.015,1.179,0.304,0.793,0.883
	c-0.614,0.921-1.261,1.849-1.633,2.899c-0.226,0.638-1.03,0.925-1.643,0.999C474.728,294.736,473.569,294.69,473.797,294.049z
	 M482.295,311.425c-2.575,2.436-6.446,3.557-9.587,1.503c-1.164-0.761,1.519-1.913,2.307-1.398c1.874,1.226,3.367,0.93,4.958-0.575
	C480.658,310.306,483.523,310.265,482.295,311.425z M484.487,284.021c-0.59,0.397-1.41,0.537-2.064,0.226
	c-1.478-0.702-2.943-1.098-4.493-0.396c-0.535,0.243-1.499,0.409-1.941-0.115c-0.452-0.536,0.303-1.122,0.732-1.316
	c2.694-1.221,5.35-0.949,7.975,0.3C485.348,283.028,484.89,283.749,484.487,284.021z M544.617,374.266
	c-1.337-8.643-3.559-17.976-11.289-23.014c1.14-0.253,2.244-0.646,3.281-1.22c5.486-3.03,5.994-10.208,5.169-15.773
	c-0.722-4.874-2.565-9.623-4.097-14.284c-0.646-1.964-1.264-3.935-1.743-5.946c-0.597-2.505,0.417-3.499,1.863-5.46
	c6.214-8.431,6.235-25.462,0.288-33.901c-5.555-7.884-17.047-8.407-24.703-13.211c-8.142-5.108-14.525-13.99-23.671-17.208
	c-2.242-0.789-4.531-1.04-6.774-0.863c-0.474,0.012-0.938,0.068-1.396,0.157c-0.004,0-0.008,0.001-0.012,0.002
	c-0.14,0.022-0.277,0.06-0.417,0.086c-4.508,0.83-8.708,3.361-11.807,6.815c-0.463,0.412-0.875,0.905-1.265,1.53
	c-0.358,0.479-0.7,0.969-1.015,1.473c-2.07,3.309-3.143,9.007-0.422,12.174c1.686,1.962,4.698,3.06,7.188,3.397
	c0.448,0.061,0.901,0.074,1.352,0.055c0.319-0.015,0.532-0.053,0.701-0.099c0.085,0.011,0.184,0.016,0.296,0.015
	c-4.694,7.81-8.893,15.888-12.657,24.182c-2.291-0.804-5.097-0.45-6.084,2.103c-1.25,3.233,1.623,6.354,4.402,7.465
	c-0.264,0.139-0.45,0.314-0.476,0.525c-1.054,8.609-4.167,18.557,4.349,24.335c4.451,3.02,10.447,3.033,15.529,4.175
	c5.311,1.193,8.165,7.722,11.108,11.861c-0.555,0.443-1.093,0.895-1.588,1.36c-4.919,4.63-6.125,10.989-7.937,17.228
	c-0.012,0.04-0.011,0.073-0.016,0.109c-6.734,6.99-14.786,15.373-15.217,25.647c-0.169,4.026,1.189,8.101,2.512,11.841
	c0.776,2.194,2.056,4.168,2.816,6.357c0.821,2.364-1.111,5.798-1.924,7.916c-0.226,0.589,2.569,0.277,2.863-0.49
	c1.656-4.313,2.793-6.794,0.703-10.961c-1.922-3.833-3.266-8.112-3.895-12.36c-1.61-10.879,7.22-20.285,14.218-27.552
	c0.416-0.181,0.757-0.453,0.856-0.795c1.571-5.408,2.583-11.058,6.461-15.38c2.345-2.613,6.414-4.981,9.84-6.454
	c0.764,0.479,1.525,0.963,2.295,1.433c2.884,1.76,5.833,3.459,8.869,4.974c-0.918,0.454-1.807,0.956-2.668,1.506
	c-0.428-0.027-0.888,0.063-1.226,0.315c-8.778,6.54-11.385,20.474-13.532,30.474c-2.394,11.148-4.228,22.901-4.302,34.336
	c-0.009,1.407,2.706,1.003,2.907-0.126c0.007-0.042,0.019-0.082,0.02-0.126c0.065-9.932,1.62-20.005,3.395-29.749
	c1.207-6.623,2.761-13.214,4.977-19.575c1.129-3.239,2.512-6.812,4.539-9.812c0.924-1.367,1.982-2.616,3.213-3.657
	c0.221-0.187,0.445-0.371,0.677-0.544c0.302-0.225,0.458-0.438,0.507-0.63c0.021-0.082,0.018-0.158,0.003-0.231
	c0.313-0.225,0.63-0.443,0.952-0.653c0.539-0.354,1.092-0.684,1.658-0.991c2.689,1.29,5.444,2.435,8.288,3.33
	c2.446,0.771,5.17,1.296,7.833,1.223c-0.246,0.314-0.256,0.666,0.209,0.95c8.602,5.263,10.131,15.994,11.5,25.158
	c1.75,11.703,1.505,23.568,2.86,35.308c0.068,0.591,0.121,1.184,0.198,1.774c0.162,1.243,3.069,0.537,2.897-0.777
	C546.359,400.797,546.658,387.456,544.617,374.266z M536.433,306.556c-0.134,0.288-0.312,0.573-0.513,0.858l2.585-6.868
	C538.044,302.614,537.333,304.615,536.433,306.556z M494.578,341.981c-2.117-3.028-3.976-6.228-6.633-8.838
	c-3.896-3.827-10.461-3.418-15.409-4.674c-12.904-3.275-9.488-16.342-8.309-25.98c0.009-0.074-0.107-0.121-0.292-0.143
	c0.526-0.279,0.825-0.604,0.367-0.776c-2.27-0.853-3.947-2.685-4.212-5.14c-0.083-0.778,0.071-1.667,0.549-2.301
	c0.001-0.001,0.005-0.004,0.006-0.006c0.028,0.006,0.053,0.009,0.083,0.017c0.644,0.167,1.203,0.558,1.731,0.945
	c0.28,0.205,0.845,0.152,1.396-0.011c0.726-0.084,1.563-0.349,1.742-0.752c3.794-8.521,8.071-16.801,12.835-24.817
	c2.408,3.245,4.676,6.562,8.168,8.773c0.348,0.221,0.706,0.416,1.067,0.601c0.679,0.44,1.359,0.744,2.021,0.84
	c1.165,0.387,2.373,0.637,3.603,0.783c0.617,12.371-1.564,23.113-5.944,34.573c-3.022,7.904-0.042,13.431,5.41,19.458
	c0.224,0.248,0.932,0.148,1.577-0.072c0.101-0.023,0.199-0.049,0.292-0.082c-1.739,0.625-1.511,0.145-0.226,0.905
	c0.791,0.469,1.562,0.972,2.335,1.467c1.131,0.724,2.261,1.448,3.393,2.169C498.254,339.766,496.347,340.805,494.578,341.981z
	 M529.008,350.205c0.643,0.003,1.31-0.018,1.986-0.071c1.559-0.122,3.165-0.417,4.64-0.99c-1.239,0.976-2.77,1.293-4.357,1.273
	C530.524,350.408,529.76,350.328,529.008,350.205z M511.676,376.667c0.27,12.32,5.479,23.992,5.052,36.347
	c-0.012,0.333-0.01,0.663-0.03,0.997c-0.054,0.915-2.928,1.287-2.897,0.777c0.035-0.594,0.044-1.184,0.053-1.774
	c0.19-12.068-4.811-23.509-5.075-35.569C508.759,376.562,511.664,376.089,511.676,376.667z M397.628,192.505
	c20.701,0,41.402,0,62.103,0c1.96,0,0.215,1.924-1.052,1.924c-20.701,0-41.402,0-62.103,0
	C394.616,194.429,396.361,192.505,397.628,192.505z M471.357,192.824c6.046,0,12.091,0,18.137,0c1.935,0-0.373,1.285-1.223,1.285
	c-6.046,0-12.091,0-18.137,0C468.2,194.109,470.507,192.824,471.357,192.824z M501.659,191.886c5.313,0,10.625,0,15.938,0
	c1.969,0,1.362,2.064-0.272,2.064c-5.313,0-10.625,0-15.938,0C499.418,193.95,500.024,191.886,501.659,191.886z M423.88,207.194
	c1.393,0-1.326,1.123-1.896,1.123c-8.61,0-17.22,0-25.83,0c-1.393,0,1.326-1.123,1.896-1.123
	C406.66,207.194,415.271,207.194,423.88,207.194z M441.103,207.559c26.014,0,52.028,0,78.042,0c1.952,0-0.182,1.494-1.167,1.494
	c-26.014,0-52.028,0-78.042,0C437.983,209.053,440.118,207.559,441.103,207.559z M459.044,222.547c1.429,0-1.262,1.195-1.876,1.195
	c-7.511,0-15.022,0-22.533,0c-1.429,0,1.262-1.195,1.876-1.195C444.022,222.547,451.533,222.547,459.044,222.547z M518.604,221.886
	c1.947,0-0.252,1.418-1.188,1.418c-16.121,0-32.242,0-48.363,0c-1.947,0,0.252-1.418,1.188-1.418
	C486.362,221.886,502.483,221.886,518.604,221.886z" fill="#0a1230"></path>
</svg>