<?xml version="1.0" standalone="no"?>
<svg version="1.1" id="Layer_1" xmlns="http://www.w3.org/2000/svg" xmlns:xlink="http://www.w3.org/1999/xlink" x="0px" y="0px" width="595.275px" height="595.28px" viewBox="0 0 595.275 595.28" enable-background="new 0 0 595.275 595.28" xml:space="preserve">
<path id="color_x5F_2" fill="#6c63ff" d="M361.948,293.139c-0.025,0.059-0.049,0.118-0.074,0.177l-0.805,0.329
	C361.363,293.477,361.663,293.317,361.948,293.139z M158.781,371.084l1.023-1.696c-0.747,0.902-1.519,1.784-2.315,2.64
	L158.781,371.084z M351.015,297.367h0.932l1.552-0.633C352.682,296.966,351.853,297.175,351.015,297.367z M343.651,368.447
	c-0.153,0.783-0.33,1.585-0.51,2.396c9.304-11.237,18.728-22.374,28.342-33.342c1.265-1.443,2.532-2.885,3.803-4.326
	c1.111-7.165,2.364-14.331,3.713-21.524c1.508-8.044,2.659-16.387,4.869-24.281c0.916-3.27,2.017-6.489,3.224-9.679
	c-5.439-0.021-10.877-0.042-16.316-0.061c-0.551,1.493-1.098,2.989-1.685,4.467c-2.618,6.592-5.6,13.024-8.112,19.665
	c-5.439,14.382-11.151,28.973-13.744,44.182C345.96,353.427,345.109,360.996,343.651,368.447z M401.236,243.658
	c-3.517,0.081-6.897,0.555-10.178,1.32c2.272,2.411,4.574,4.794,6.905,7.146C399.127,249.321,400.233,246.503,401.236,243.658z
	 M450.253,275.511l-0.255,0.765c0.25-0.02,0.5-0.039,0.75-0.058C450.467,276.087,450.275,275.856,450.253,275.511z M397.482,381.823
	l-9.751-2.439C390.92,380.402,394.18,381.202,397.482,381.823z M321.362,265.809h-16.748l-1.023,0.066
	C309.512,266.005,315.46,266.07,321.362,265.809z M375.266,263.957c0.515-0.594,3.364-0.914,2.656-0.097
	c-3.218,3.716-5.046,8.138-6.729,12.646c5.441,0.018,10.883,0.04,16.324,0.06c2.825-7.303,6.188-14.458,9.281-21.681
	c-2.993-2.986-5.944-6.017-8.86-9.084c-13.434,3.917-25.375,12.244-38.659,17.138c-19.633,7.233-41.615,4.733-62.101,4.641
	c-0.509,0.721-0.977,1.491-1.395,2.312c0.19,0.273-0.015,0.579-0.396,0.826c-0.79,1.726-1.399,3.615-1.843,5.592
	c28.304,0.035,56.606,0.094,84.909,0.186C370.154,272.01,372.084,267.631,375.266,263.957z M437.238,382.567l-7.928,1.282
	c0.959-0.057,1.916-0.128,2.867-0.225C433.919,383.448,435.596,383.064,437.238,382.567z M111.068,167.378
	c2.367-0.128,5.024-0.248,7.58-0.311C116.219,166.994,113.694,167.094,111.068,167.378z M493.268,426.569
	c-3.313-5.048-6.976-11.569-12.098-15.204c-13.694-1.294-26.399-9.276-30.482-23.596c-0.703-2.463-1.318-4.934-1.889-7.408
	c-6.212,2.22-11.781,5.211-18.547,5.51c-6.467,0.286-12.943,0.248-19.402-0.206c-12.96-0.911-25.713-3.275-37.126-9.653
	c-0.077,1.921-0.139,3.845-0.178,5.774c0.153,0.046,0.27,0.124,0.318,0.247c1.871,4.775,1.225,9.245,1.865,14.162
	c0.659,5.054,1.457,10.089,2.469,15.085c2.067,10.202,4.024,21.097,7.531,30.915c6.497,18.187,14.879,35.656,23.326,53
	c0.058,0.118-0.02,0.254-0.176,0.388h35.75c-4.464-12.599-9.17-25.113-13.732-37.677l-2.116-5.205l-0.794-2.895
	c-2.865-8.058-5.633-16.149-8.196-24.312c-0.432-0.516-0.872-1.03-1.284-1.547c-2.464-3.083-4.039-5.686-7.331-8.05
	c-1.314-0.944,1.261-2.328,2.248-1.619c5.932,4.26,9.343,10.919,14.551,16.046l8.503,7.172c4.736,3.75,9.472,7.463,13.417,12.161
	c11.53,13.732,20.314,29.425,30.966,43.8c0.742,1.001-1.235,1.956-2.263,1.542l0.353,0.582h52.103
	c-6.792-14.089-14.082-27.975-21.638-41.667C504.304,444.654,499.077,435.418,493.268,426.569z M336.281,299.685l1.933-0.475
	c-2.056,0.179-4.04,0.324-5.908,0.475H336.281z M487.256,312.246c-9.458,0.251-18.94,0.398-28.397,0.029
	c-3.489-0.137-7.163-0.21-10.763-0.616c-0.902,13.158-1.675,26.444-0.686,39.618c0.768,10.228,2.586,20.291,4.839,30.287
	c0.54,2.397,1.233,4.735,2.085,6.981c1.733,4.571,4.168,8.73,7.521,12.104c2.512,2.527,5.527,4.62,9.164,6.098
	c5.013,2.037,10.323,2.982,15.62,2.839l6.151-0.669c1.51-0.285,3.01-0.658,4.491-1.125c-3.802-18.105-7.037-36.363-8.614-54.811
	c-1.146-13.405-1.205-26.827-1.453-40.269c-0.003-0.173,0.045-0.33,0.129-0.47C487.315,312.244,487.286,312.245,487.256,312.246z
	 M544.367,286.634c-3.438-10.473-14.259-15.572-22.956-21.086c-9.469-6.004-19.873-11.77-30.747-16.214l-2.739-0.868l-2.044-0.979
	c-6.471-2.374-13.078-4.24-19.732-5.37c-5.695,10.2-11.836,21.26-12.956,33.03c-0.039,0.41-0.331,0.729-0.714,0.936
	c18.428-1.446,37.047-3.033,54.814,3.139c1.066,0.371-1.565,1.55-2.339,1.281c-20.847-7.241-42.964-3.493-64.449-2.211
	c-0.765,10.202-1.596,20.249,1.976,30.038c5.05,1.626,10.752,1.773,16.062,1.938c0.454,0.014,0.911,0.028,1.359,0.043
	c8.804,0.307,17.619,0.24,26.425,0.006c0.778-0.021,1.562-0.039,2.342-0.059c14.246-0.357,28.83-0.585,42.917-2.678
	c1.993-0.296,4.189-0.697,6.209-1.437l5.072-3.412c0.484-0.614,0.899-1.298,1.209-2.085
	C545.715,296.479,545.753,290.856,544.367,286.634z M342.224,375.234c-0.45,2.511-0.695,5.041-0.286,7.455
	c1.024,6.054,5.684,7.873,11.239,8.715c3.863,0.585,9.459,1.455,13.511-0.154l0.886-0.405c1.228-0.646,2.275-1.562,3.016-2.866
	c0.01-17.417,1.664-34.469,4.195-51.507C363.626,349.14,352.886,362.207,342.224,375.234z M129.284,250.913
	c-5.929,7.781-7.357,19.779-6.144,29.174c0.546,4.228,1.505,9.355,4.652,12.508c2.986,2.993,6.843,3.464,8.928-0.519
	c3.826-7.311,4.338-17.106,3.41-25.14C139.461,261.163,137.186,249.696,129.284,250.913z M161.654,237.532
	c6.134,27.521,4.649,58.465-3.856,85.337c-2.963,9.362-7.364,20.534-15.807,26.329c-9.88,6.782-25.049,1.068-32.932-6.198
	c-10.659-9.826-15.315-25.031-17.767-38.87c-3.061-17.269-2.499-35.195,0.3-52.455c3.233-19.938,9.923-41.394,23.833-56.587
	c0.358-0.081,0.712-0.153,1.065-0.223C143.069,189.623,156.624,214.966,161.654,237.532z M154.304,247.078
	c-3.196-16.396-12.525-35.26-32.008-30.632c-0.238,0.057-0.471,0.1-0.712,0.164c-0.46,0.122-0.763,0.313-0.939,0.521
	c-0.085,0.055-0.162,0.113-0.215,0.177c-10.081,12.083-14.189,28.67-16.173,43.938c-2.099,16.154-1.719,33.676,3.945,49.106
	c4.006,10.915,12.45,20.87,25.082,19.836c9.486-0.776,13.913-9.03,16.939-17.166C157.776,292.724,158.416,268.173,154.304,247.078z
	 M362.913,290.319c0.066-0.061,0.161-0.116,0.27-0.167c1.039-2.525,2.062-5.057,3.033-7.609c0.62-1.629,1.209-3.28,1.818-4.923
	c-28.241-0.093-56.482-0.153-84.725-0.188c-1.136,5.96-0.843,12.478,0.438,17.247c6.152-0.138,12.197,0.671,18.227,1.61l1.641,0.051
	l2.711,0.633c7.23,1.138,14.474,2.159,21.896,1.618c6.138-0.448,12.312-0.949,18.374-2.055
	C352.201,295.512,358.587,294.309,362.913,290.319z M185.109,258.195c1.278,27.633-2.318,56.257-12.03,82.237
	c-6.626,17.725-18.688,40.68-39.751,43.109c-15.065,1.737-30.35-0.912-43.325-8.927c-11.997-7.411-20.774-19.101-26.839-31.645
	c-14.034-29.029-15.083-63.851-10.228-95.185c5.04-32.525,17.846-66.908,42.603-89.625c0.07-0.064,0.14-0.127,0.209-0.191
	c0.257-0.234,0.511-0.471,0.771-0.703c0.598-0.117,1.197-0.232,1.797-0.337l6.006-0.837c10.753-1.122,21.621-0.139,31.76,4.013
	c10.899,4.464,19.847,12.468,26.737,21.897C178.601,203.598,183.898,232.025,185.109,258.195z M176.198,235.368
	c-3.604-23.103-12.079-49.447-32.733-62.833c-10.728-6.954-23.556-8.215-35.888-6.215c-1.435,0.233-2.865,0.5-4.282,0.817
	c-0.124,0.028-0.212,0.071-0.315,0.108c-0.276,0.1-0.496,0.22-0.627,0.361c-0.007,0.007-0.018,0.013-0.025,0.02
	c-22.604,22.244-32.724,55.501-36.616,86.182c-3.883,30.612-2.091,65.35,13.78,92.599c6.477,11.12,16.059,20.353,28.241,24.856
	c10.059,3.719,23.475,4.839,33.518,0.452c18.713-8.175,26.694-33.52,31.203-51.504C179.332,292.775,180.556,263.3,176.198,235.368z"></path>
<path id="color_x5F_1" d="M420.608,189.358c-0.473,2.319-7.027,14.126-3.257,14.589c1.954,0.24,0.479,2.35-0.986,2.17
	c-6.245-0.767-2.053-8.676,0.193-13.639c-0.439,0.246-0.992,0.376-1.429,0.366c-2.048-0.048-4.027-0.833-5.322-2.467
	c-0.616-0.777,2.167-1.757,2.707-1.075c0.908,1.146,2.291,2.055,3.794,2.09c0.182,0.004,0.469,0.044,0.664,0.146
	c0.334-0.784,0.59-1.464,0.695-1.979C417.939,188.224,420.909,187.88,420.608,189.358z M435.758,211.985
	c0.185-0.342-2.468-0.185-2.854,0.528c-1.216,2.25-3.102,3.042-5.535,3.361c-0.646,0.084-1.433,0.237-1.942,0.68
	c-0.494,0.429,0.437,0.458,0.672,0.427C429.798,216.496,433.847,215.52,435.758,211.985z M430.983,194.405
	c-0.023,1.385-0.408,2.691-0.747,4.023c-0.194,0.766,2.668,0.327,2.87-0.468c0.365-1.438,0.75-2.838,0.774-4.332
	C433.891,193.041,430.999,193.479,430.983,194.405z M427.731,187.91c3.319,0.816,6.728-0.073,9.811-1.352
	c1.88-0.78,0.14-1.551-1.104-1.036c-2.246,0.931-4.486,1.522-6.903,0.928C428.708,186.246,426.136,187.518,427.731,187.91z
	 M415.513,181.096c-0.44,0.098-1.407,0.544-1.244,1.154c0.17,0.635,1.213,0.476,1.654,0.377c0.986-0.219,1.935,0.293,2.631,0.952
	c0.773,0.731,3.508-0.377,2.686-1.156C419.644,180.914,417.603,180.632,415.513,181.096z M548.133,292.71
	c0.059,7.539-3.013,13.3-10.534,15.505c-6.926,2.031-14.5,2.215-21.665,2.69c-8.609,0.57-17.229,0.986-25.853,1.251
	c0.041,0.104,0.071,0.217,0.073,0.349c0.264,14.301,0.273,28.591,1.703,42.839c1.773,17.676,4.831,35.146,8.497,52.52
	c0.186,0.883-0.903,1.508-1.804,1.502c-4.247,1.438-8.725,2.16-13.184,2.183c4.2,3.618,7.435,9.117,10.288,13.464
	c5.979,9.11,11.409,18.582,16.659,28.127c7.606,13.83,14.982,27.83,21.828,42.055c0.217,0.45-2.566,1.466-2.897,0.776
	c-0.063-0.13-0.128-0.258-0.191-0.388c-6.792-14.089-14.082-27.975-21.638-41.667c-5.112-9.263-10.339-18.499-16.148-27.348
	c-3.313-5.048-6.976-11.569-12.098-15.204c-13.694-1.294-26.399-9.276-30.482-23.596c-0.703-2.463-1.318-4.934-1.889-7.408
	c-6.212,2.22-11.781,5.211-18.547,5.51c-6.467,0.286-12.943,0.248-19.402-0.206c-12.96-0.911-25.713-3.275-37.126-9.653
	c-0.077,1.921-0.139,3.845-0.178,5.774c0.153,0.046,0.27,0.124,0.318,0.247c1.871,4.775,1.225,9.245,1.865,14.162
	c0.659,5.054,1.457,10.089,2.469,15.085c2.067,10.202,4.024,21.097,7.531,30.915c6.497,18.187,14.879,35.656,23.326,53
	c0.058,0.118-0.02,0.254-0.176,0.388c-0.599,0.518-2.417,1.014-2.722,0.388c-4.195-8.614-8.353-17.25-12.273-25.992
	c-3.895-8.688-8.593-17.78-11.053-27.008c-2.731-10.244-5.501-20.502-7.531-30.915c-1.066-5.468-2.411-11.168-2.472-16.751
	c-0.023-2.153-0.092-4.262-0.353-6.338c-5.275,6.417-17.327,4.743-24.31,3.186c-7.815-1.742-9.376-7.086-9.012-13.173
	c-0.515,0.629-1.03,1.259-1.545,1.888c-12.299,15.021-24.484,30.144-36.444,45.438c0.133,0.638,0.256,1.28,0.348,1.936
	c0.455,3.256,0.774,6.961,0.156,10.218c-0.946,4.987-3.111,10.052,1.505,14.041c3.895,3.366,13.226,11.496,6.464,16.774
	c-0.742,0.579-3.643,0.527-2.33-0.498c4.006-3.126-0.109-9.206-2.71-11.619c-3.664-3.399-6.853-5.434-7.519-10.775
	c-0.316-2.535,1.45-5.077,1.69-7.568c0.223-2.316,0.357-4.649,0.161-6.974c-0.119-1.405-0.345-2.775-0.623-4.128
	c-0.474-0.045-0.75-0.232-0.449-0.617c0.084-0.108,0.17-0.215,0.254-0.323c-1.317-5.624-3.981-10.767-7.807-15.271
	c-9.556-11.252-23.224-18.616-31.563-30.966c-4.354-6.448-7.04-13.832-7.226-21.664c-0.085-3.599-0.713-9.879,1.561-12.905
	c2.734-3.639,7.177-4.602,10.452-7.532c1.098-0.982,2.182-1.987,3.241-3.013c0.05-0.048,0.095-0.077,0.141-0.111
	c-0.588-0.121-1.207-0.339-1.613-0.771c-2.158-2.292-1.63-6.001-1.598-8.914c0.102-9.18,0.345-18.36,0.372-27.541
	c-2.42,0.5-4.766-0.097-5.922-2.645c-0.051-0.112-0.04-0.225,0.012-0.335c-0.783-0.125-1.549-0.357-2.271-0.734
	c-3.399-1.771-2.758-5.451-0.938-8.158c0.096-0.143,0.22-0.258,0.36-0.35c-0.69-0.408-1.308-0.934-1.784-1.624
	c-1.803-2.615-0.428-5.075,1.922-6.703c0.069-0.048,0.184-0.096,0.324-0.142c-12.748-0.009-25.497-0.016-38.245-0.016
	c2.7,3.383,5.399,6.765,8.099,10.148c0.672,0.842-2.114,1.837-2.698,1.105c-0.024-0.03-0.047-0.06-0.071-0.089
	c-7.485-3.411-14.976-6.81-22.446-10.251c-0.117-0.054,0.2-0.29,0.664-0.523c-0.729-0.125-1.071-0.651,0.15-1.213
	c7.174-3.306,14.367-6.571,21.555-9.846c0.094-0.117,0.187-0.234,0.281-0.352c0.843-1.057,3.59-0.558,2.435,0.89
	c-2.398,3.004-4.795,6.008-7.193,9.012c12.132,0,24.264,0.007,36.396,0.015c-1.5-1.054-2.439-2.576-1.823-4.621
	c0.7-2.322,2.996-3.739,5.346-3.917c-0.443-2.89,2.573-4.363,5.771-4.694c-0.012-0.831-0.023-1.662-0.036-2.493
	c-0.086-5.518-0.196-11.036-0.253-16.555c-0.029-2.787-0.694-6.878,1.384-9.086c0.499-0.53,1.048-0.896,1.672-1.164
	c-0.058-0.039-0.115-0.079-0.17-0.131c-3.489-3.283-7.652-5.085-11.288-8.063c-5.962-4.883-4.333-17.542-2.464-24.225
	c1.944-6.953,5.659-13.083,10.52-18.392c9.868-10.777,24.074-18.387,31.317-31.413c2.28-4.102,3.566-8.319,3.996-12.636
	c-0.266-0.339-0.534-0.676-0.8-1.016c-0.503-0.645,0.145-1.281,0.951-1.538c0.075-3.368-0.342-6.793-1.208-10.27
	c-1.077-4.327,0.262-8.451,3.754-11.277c3.468-2.807,11.437-10.095,5.76-14.525c-0.814-0.635,1.866-1.784,2.688-1.143
	c6.836,5.334-3.352,13.349-6.823,16.774c-4.979,4.914-1.416,10.158-1.146,15.94c0.098,2.098,0.092,4.213-0.112,6.307
	c2.79,3.56,5.592,7.109,8.405,10.65c18.967,23.875,38.201,47.563,58.127,70.646c6.961,8.064,13.984,16.106,21.26,23.901
	c3.939-1.011,8.009-1.645,12.276-1.716c0.62-0.01,0.981,0.182,1.136,0.452c0.017-0.002,0.032-0.007,0.049-0.009
	c2.985-0.348,5.955-0.868,8.91-1.42c1.276-5.286,3.472-10.1,6.883-7.132c0.137-0.148,0.271-0.298,0.394-0.458
	c0.366-0.498,0.698-1.021,0.952-1.585c0.479-1.062,0.799-2.141,0.967-3.29c-8.121-1.754-16.768-4.636-18.595-13.113
	c-1.76-8.163,0.953-17.015,3.591-24.702c2.999-8.738,6.667-17.243,9.227-26.128c0.044-0.152,0.14-0.29,0.267-0.413
	c-3.219-3.586-6.471-7.886-7.286-12.56c-0.813-4.662,2.146-7.89,4.995-11.267c0.098-0.116,0.22-0.208,0.354-0.286
	c4.385-7.015,15.844-2.066,21.368,2.386c6.386,5.147,8.862,13.499,17.421,15.958c6.675,1.918,14.548,1.445,20.74,4.917
	c9.851,5.523,8.308,17.745,6.527,27.251c-0.791,4.221-2.68,15.33-8.362,16.067c0.208,1.066,0.284,2.168,0.232,3.232
	c-0.381,7.82-6.04,13.888-13.639,12.294c-1.292,2.806-2.865,5.433-4.477,8.055c4.154,2.102,3.405,5.208,5.594,9.272
	c2.047,0.148,4.09,0.354,6.115,0.696c0.183,0.031,0.361,0.072,0.544,0.104c0.247,0.006,0.478,0.046,0.667,0.127
	c23.707,4.279,45.25,16.1,65.327,28.929C540.628,274.708,548.045,281.389,548.133,292.71z M215.317,276.069
	c1.84-2.306,3.681-4.611,5.521-6.917c-5.938,2.704-11.876,5.407-17.803,8.135c0.039,0.01,0.079,0.019,0.113,0.034
	c5.635,2.597,11.281,5.168,16.928,7.738c-1.59-1.992-3.18-3.984-4.77-5.976c-1.001,0.089-2.031-0.456-1.242-1.444
	c0.015-0.019,0.03-0.038,0.045-0.056c-0.059-0.074-0.118-0.147-0.177-0.221C213.515,276.841,214.425,276.261,215.317,276.069z
	 M452.139,232.03c-0.3,0.492-0.6,0.984-0.896,1.479c-0.167,0.279-0.688,0.505-1.233,0.62c-3.664,1.598-7.254,3.37-10.841,5.131
	c-0.956,0.469-2.477,1.018-4.069,1.653c0.928,0.395,1.742,1.148,2.327,2.406c1.348,2.898,1.596,6.341,1.511,9.61
	c4.286-2.694,8.978-4.984,12.766-8.17c0.814-0.685,5.049-3.687,4.102-5.355c-0.417-0.734-0.796-1.617-1.004-2.44
	C454.169,234.449,454.143,233.173,452.139,232.03z M419.465,234.799c0.155,7.082,1.306,14.092,1.729,21.155
	c1.984-4.531,2.506-10.335,6.501-13.134c0.412-0.289,0.844-0.561,1.287-0.824c0.232-0.142,0.469-0.275,0.709-0.4
	c2.634-1.456,5.639-2.58,8.245-3.855c3.746-1.834,7.488-3.694,11.32-5.345c0.363-0.596,0.728-1.191,1.094-1.784
	c0.041-0.207,0.175-0.414,0.367-0.598c1.828-2.972,3.615-5.95,4.962-9.203c0.34-0.821,1.848-1.146,2.607-0.863
	c6.851,2.553,10.607-4.432,10.401-10.471c-0.041-1.194-0.174-2.552-0.562-3.792c-0.17-0.128-0.206-0.28-0.145-0.438
	c-0.287-0.764-0.683-1.468-1.244-2.036c-2.601-2.632-5.643-0.644-8.089,1.242c-0.601,0.463-3.089,0.598-2.517-0.139
	c-10.664-3.158-6.718-18.838-5.543-27.468c-12.132-0.498-24.082-1.641-32.977-10.847c-2.349,7.588-5.452,14.899-8.03,22.411
	c-2.457,7.158-5.724,15.885-4.595,23.592c1.874,12.791,15.74,13.783,26.029,16.081c1.711,0.382-0.646,2.002-1.725,1.762
	c-1.681-0.375-3.556-0.723-5.511-1.107C423.19,231.276,421.771,233.734,419.465,234.799z M418.234,268.419
	c-0.013,0.067-0.037,0.132-0.071,0.195c1.916,0.101,3.833,0.289,5.663,0.318c0.086,0.001,0.162,0.012,0.239,0.021
	c1.857-3.132,5.502-3.091,8.338-0.436c2.364,2.213,4.788,5.358,6.253,8.599c0.57-0.192,1.247-0.256,1.624-0.1
	c0.169-0.058,0.329-0.097,0.461-0.104c3.076-0.173,6.164-0.397,9.257-0.636c0.25-0.02,0.5-0.039,0.75-0.058
	c-0.281-0.13-0.474-0.362-0.495-0.707c-0.004-0.056-0.011-0.109-0.005-0.171c1.142-12.003,7.329-23.239,13.128-33.631
	c-1.616-0.224-3.234-0.405-4.853-0.536c-5.537,6.327-12.994,9.663-19.778,14.481c-0.163,0.32-0.569,0.57-1.029,0.707
	c-1.186,0.569-3.093-0.351-1.76-1.417c0.153-2.854,0.089-5.831-0.635-8.591c-0.318-1.214-0.768-2.975-1.916-3.7
	c-0.694-0.439-1.379-0.344-2.026-0.033c-0.244,0.137-0.475,0.278-0.696,0.421c-0.394,0.274-0.771,0.586-1.119,0.863
	c-0.249,0.237-0.467,0.48-0.624,0.732c-2.84,4.566-3.706,11.32-7.375,15.331c0.203,0.136,0.267,0.355,0.073,0.679
	C420.16,263.112,418.774,265.561,418.234,268.419z M437.51,300.735c-0.911-6.307-0.569-12.712-0.095-19.161
	c-0.287-0.089-0.506-0.268-0.574-0.563c-0.683-2.962-2.632-5.892-4.45-8.273c-1.066-1.396-2.254-2.945-3.793-3.851
	c-1.569-0.923-1.857,0.088-2.389,1.603c-0.297,0.845-2.056,1.138-2.629,0.551c-0.005,0-0.01,0.001-0.015,0.001
	c-3.869-0.062-8.438-1.255-12.145,0.173c-2.063,0.795-5.85,4.655-1.269,4.555c1.618-0.035,1.512,1.381,0.513,1.911
	c-0.249,3.314-1.343,9.291,2.386,10.259c0.014,0.003,0.023,0.01,0.037,0.014c0.07,0.018,0.117,0.043,0.16,0.069
	c0.041,0.025,0.067,0.054,0.087,0.085c0.007,0.009,0.015,0.018,0.02,0.027c0.007,0.017,0.014,0.034,0.017,0.052
	c0.021,0.063,0.025,0.134-0.006,0.22c-0.007,0.021-0.014,0.042-0.021,0.062C418.711,296.411,428.527,298.892,437.51,300.735z
	 M412.221,291.746c-0.615,1.902-1.157,3.819-1.657,5.744c1.722-1.119,3.506-1.965,5.313-2.316
	C414.551,294.173,413.327,293.035,412.221,291.746z M360.979,301.762c-5.439,14.382-11.151,28.973-13.744,44.182
	c-1.275,7.484-2.126,15.053-3.584,22.504c-0.153,0.783-0.33,1.585-0.51,2.396c9.304-11.237,18.728-22.374,28.342-33.342
	c1.265-1.443,2.532-2.885,3.803-4.326c1.111-7.165,2.364-14.331,3.713-21.524c1.508-8.044,2.659-16.387,4.869-24.281
	c0.916-3.27,2.017-6.489,3.224-9.679c-5.439-0.021-10.877-0.042-16.316-0.061c-0.551,1.493-1.098,2.989-1.685,4.467
	C366.473,288.688,363.491,295.121,360.979,301.762z M363.183,290.152c1.039-2.525,2.062-5.057,3.033-7.609
	c0.62-1.629,1.209-3.28,1.818-4.923c-28.241-0.093-56.482-0.153-84.725-0.188c-1.136,5.96-0.843,12.478,0.438,17.247
	c6.152-0.138,12.197,0.671,18.227,1.61c1.451,0.226,2.901,0.456,4.352,0.684c7.23,1.138,14.474,2.159,21.896,1.618
	c6.138-0.448,12.312-0.949,18.374-2.055c5.605-1.022,11.992-2.226,16.317-6.215C362.979,290.258,363.074,290.203,363.183,290.152z
	 M378.723,329.296c6.889-7.731,13.931-15.345,21.403-22.498c1.947-1.864,4.339-4.425,6.98-6.688c0.884-3.707,1.945-7.376,3.258-11
	c-4.132-1.439-2.658-7.927-2.56-11.335c-0.176-0.027-0.346-0.066-0.516-0.107c-0.206,0.059-0.379,0.096-0.482,0.096
	c-5.634-0.025-11.268-0.041-16.902-0.063c-1.29,3.1-2.444,6.235-3.19,9.385c-1.891,7.978-3.333,16.086-4.834,24.143
	C380.756,317.268,379.693,323.284,378.723,329.296z M407.191,271.254c1.781-1.521,3.812-2.23,5.952-2.524
	c-1.625-0.803-3.145-2.007-4.42-3.001c-3.483-2.713-6.729-5.735-9.885-8.827c-1.329,3.222-2.683,6.434-4.041,9.645
	c-1.384,3.272-2.973,6.627-4.427,10.03c5.04,0.02,10.08,0.034,15.12,0.056c-0.225-0.275-0.415-0.59-0.518-0.997
	C404.567,274.03,406.085,272.199,407.191,271.254z M413.457,248.553c0.994-0.546,1.95-1.157,2.869-1.835
	c0.267-0.197,0.651-0.297,1.031-0.318c-0.389-3.747-0.746-7.496-0.805-11.267c-0.043-0.056-0.086-0.111-0.113-0.157
	c-0.022,0.089-0.059,0.192-0.127,0.32c-0.277,0.518-0.526,1.047-0.72,1.603c-0.583,1.668-0.968,3.413-1.274,5.151
	C413.942,244.187,413.599,246.372,413.457,248.553z M399.97,254.139c3.275,3.265,6.622,6.488,10.246,9.358
	c1.489,1.179,3.467,2.973,5.496,3.711c0.682-2.287,1.832-4.372,3.062-6.435c-0.114-0.048-0.208-0.106-0.277-0.177
	c-0.009-0.009-0.016-0.018-0.022-0.028c-0.102-0.122-0.125-0.275-0.041-0.458c-0.081-4.019-0.484-8.014-0.902-12.008
	c-1.363,0.953-2.808,1.782-4.325,2.464c-0.066,0.088-0.15,0.169-0.247,0.243c-0.037,0.028-0.083,0.049-0.123,0.074
	c-0.065,0.041-0.127,0.084-0.199,0.119c-0.08,0.038-0.168,0.066-0.254,0.095c-0.039,0.014-0.075,0.032-0.115,0.043
	c-0.125,0.035-0.252,0.061-0.38,0.076c-0.004,0-0.008,0.002-0.012,0.002c-0.529,0.063-1.05-0.049-1.285-0.393l0,0
	c-0.004-0.003-0.009-0.006-0.012-0.01c-0.001-0.002-0.001-0.004-0.003-0.006c-0.119-0.134-0.143-0.273-0.113-0.408
	c0-0.013-0.004-0.023-0.004-0.036c0.015-1.063,0.33-4.345,1.021-7.801c-2.514,0.466-5.037,0.902-7.571,1.236
	C402.675,247.279,401.352,250.721,399.97,254.139z M391.058,244.979c2.272,2.411,4.574,4.794,6.905,7.146
	c1.165-2.804,2.271-5.622,3.273-8.467C397.719,243.739,394.338,244.213,391.058,244.979z M387.938,245.802
	c-13.434,3.917-25.375,12.244-38.659,17.138c-19.633,7.233-41.615,4.733-62.101,4.641c-0.509,0.721-0.977,1.491-1.395,2.312
	c0.19,0.273-0.015,0.579-0.396,0.826c-0.79,1.726-1.399,3.615-1.843,5.592c28.304,0.035,56.606,0.094,84.909,0.186
	c1.699-4.486,3.629-8.865,6.812-12.539c0.515-0.594,3.364-0.914,2.656-0.097c-3.218,3.716-5.046,8.138-6.729,12.646
	c5.441,0.018,10.883,0.04,16.324,0.06c2.825-7.303,6.188-14.458,9.281-21.681C393.805,251.9,390.854,248.869,387.938,245.802z
	 M266.58,239.921c0.008,3.497,0.069,6.995,0.125,10.491c0.067,4.192,0.138,8.385,0.192,12.578c5.985,0.205,12.146,2.093,17.065,5.5
	c0.611-0.961,1.284-1.851,2.04-2.63c0.489-0.504,2.83-0.784,2.761-0.291c4.893,0.042,9.851,0.196,14.828,0.306
	c5.921,0.13,11.869,0.195,17.771-0.066c11.087-0.492,22.006-2.141,32.255-6.709c11.055-4.928,21.447-11.354,32.823-14.88
	c-18.091-19.184-34.833-39.757-51.499-60.111c-11.412-13.938-22.718-27.968-33.845-42.136
	c-2.656,11.368-10.878,19.602-19.534,26.992c-9.692,8.275-20.779,16.709-24.986,29.286c-1.159,3.466-1.933,7.069-2.107,10.729
	c-0.165,3.453-0.68,9.254,0.959,12.465c2.144,4.199,7.306,5.063,10.612,8.021c0.919,0.823,4.218,2.92,4.167,4.399
	c-0.013,0.374-0.601,0.667-0.873,0.789C266.98,235.704,266.574,237.13,266.58,239.921z M267.761,273.623
	c-0.22,1.105-0.789,1.984-1.555,2.665c4.862,0.004,9.725,0.014,14.587,0.02c0.475-1.964,1.113-3.838,1.925-5.55
	c-4.082-3.235-9.777-5.404-14.969-5.837c-0.252-0.021-0.537-0.043-0.833-0.063c0.017,1.597,0.044,3.194,0.047,4.792
	c0,0.229-0.165,0.438-0.414,0.608C267.491,271.084,268.047,272.184,267.761,273.623z M264.41,277.405
	c-0.091,0.039-0.186,0.071-0.278,0.107c1.683,1.018,2.906,2.674,2.409,4.825c-0.114,0.493-0.312,0.934-0.548,1.346
	c2.009,0.188,4.126,1.034,3.744,3.431c-0.062,0.388-0.173,0.769-0.305,1.145c0.412-0.055,0.793-0.021,1.013,0.163
	c2.666,2.224,0.775,5.68-2.304,7.848c4.092,1.049,8.609-0.729,12.282-2.657c-0.955-4.774-1.007-10.729,0.126-16.186
	C275.168,277.42,269.789,277.41,264.41,277.405z M261.496,268.24c0.791,0.114,1.688,0.32,2.559,0.632
	c-0.007-1.346-0.017-2.692-0.034-4.038C261.914,265.011,260.237,265.79,261.496,268.24z M261.874,275.945
	c1.349-0.131,3.3-1.024,2.974-2.73c-0.409-2.137-2.882-2.703-4.757-2.897c-0.076-0.008-0.156-0.019-0.229-0.026
	c-0.077-0.007-0.153-0.021-0.227-0.042c-0.002-0.001-0.005-0.002-0.008-0.002c-0.034-0.012-0.069-0.019-0.101-0.034
	c-1.673-0.771-3.885,0.096-3.895,2.185C255.617,275.135,259.734,276.153,261.874,275.945z M256.209,283.151
	c0.933,1.353,3.74,3.422,5.504,2.509c0.435-0.225,0.812-0.564,1.127-0.96c0.074-0.217,0.211-0.429,0.403-0.604
	c0.4-0.736,0.592-1.591,0.471-2.386c-0.267-1.763-1.44-2.931-3.016-3.601c-0.121-0.001-0.242,0-0.36-0.006
	c-0.809-0.04-1.749-0.193-2.687-0.462C255.828,278.915,254.825,281.144,256.209,283.151z M263.988,291.413
	c1.11-0.939,2.522-2.367,2.763-3.88c0.278-1.743-1.35-1.698-2.702-1.596c-0.169,0.013-0.313,0.002-0.446-0.018
	c-0.735,0.389-1.541,0.669-2.362,0.822c-1.157,0.216-2.422,0.219-3.626-0.019c-0.033,0.143-0.094,0.296-0.206,0.461
	c-1.338,1.989-1.672,4.812,1.17,5.577C260.483,293.272,262.514,292.661,263.988,291.413z M268.39,290.281
	c-0.807,1.181-1.864,2.218-2.955,2.983c-1.229,0.862-2.688,1.48-4.196,1.769C263.607,299.121,270.403,293.61,268.39,290.281z
	 M341.274,366.065c1.564-9.488,2.572-19.13,4.866-28.482c2.357-9.61,5.939-18.982,9.327-28.271
	c1.971-5.404,4.202-10.696,6.408-15.997c0.024-0.059,0.049-0.118,0.074-0.177c-0.285,0.178-0.585,0.338-0.879,0.505
	c-2.312,1.317-4.872,2.323-7.569,3.089c-0.817,0.232-1.647,0.441-2.484,0.633c-4.222,0.972-8.644,1.481-12.802,1.843
	c-2.056,0.179-4.04,0.324-5.908,0.475c-0.113,0.009-0.232,0.018-0.345,0.027c-6.638,0.542-13.195,1.028-19.835,0.137
	c-10.104-1.356-20.054-4.027-30.317-3.662c-0.505,0.018-0.731-0.073-0.778-0.217c-0.04-0.042-0.072-0.089-0.088-0.146
	c-0.016-0.057-0.028-0.12-0.044-0.178c-4.239,2.104-9.302,3.733-13.929,2.656c-0.029,7.19-0.194,14.381-0.298,21.57
	c-0.049,3.408-0.716,7.693,0.123,11.015c0.607,2.406,1.335,2.29,3.114,3.084c0.147,0.064,0.246,0.171,0.298,0.321
	c0.053,1.525-3.373,3.917-4.346,4.643c-3.123,2.33-10.034,4.464-10.698,8.741c-1.195,7.708-1.142,15.749,1.731,23.109
	c4.788,12.267,15.166,20.337,24.849,28.65c7.792,6.689,15.737,14.316,18.771,24.29c3.534-4.496,7.085-8.977,10.65-13.446
	c9.393-11.775,18.849-23.508,28.426-35.141C340.073,372.038,340.807,368.897,341.274,366.065z M374.784,336.471
	c-11.157,12.668-21.897,25.736-32.56,38.763c-0.45,2.511-0.695,5.041-0.286,7.455c1.024,6.054,5.684,7.873,11.239,8.715
	c3.863,0.585,9.459,1.455,13.511-0.154l0.886-0.405c1.228-0.646,2.275-1.562,3.016-2.866
	C370.599,370.562,372.252,353.51,374.784,336.471z M405.375,382.981c-3.759-13.338-4.162-28.095-3.985-41.813
	c0.098-7.606,1.385-15.003,2.42-22.525c0.698-5.074,1.475-10.103,2.518-15.071c-2.008,1.795-3.962,3.653-5.877,5.544
	c-7.667,7.573-15.05,15.451-22.252,23.508c-2.107,13.555-3.699,27.101-4.366,40.826c0.308-0.026,0.604,0.012,0.837,0.15
	c4.154,2.455,8.537,4.339,13.062,5.783c3.189,1.018,6.449,1.818,9.751,2.439C400.092,382.314,402.728,382.69,405.375,382.981z
	 M448.324,378.322c-4.781-22.056-4.659-44.503-3.107-67.07c-1.674-0.293-3.319-0.68-4.9-1.222c-0.412-0.141-0.588-0.344-0.609-0.564
	c-0.782-2.08-1.355-4.174-1.777-6.28c-7.001-1.414-14.632-3.076-20.646-7.026c-0.365,0.208-0.774,0.363-1.081,0.374
	c-1.985,0.068-4.526,2.539-5.957,3.69c-0.152,0.122-0.297,0.251-0.448,0.374c-1.343,5.808-2.284,11.703-3.097,17.66
	c-1.067,7.817-2.387,15.475-2.43,23.381c-0.074,13.706,0.375,28.408,4.313,41.653c1.087,0.091,2.174,0.174,3.261,0.239
	c5.753,0.347,11.666,0.665,17.464,0.318c0.959-0.057,1.916-0.128,2.867-0.225c1.743-0.177,3.419-0.561,5.061-1.058
	C441.01,381.426,444.591,379.67,448.324,378.322z M488.668,352.981c-1.146-13.405-1.205-26.827-1.453-40.269
	c-0.003-0.173,0.045-0.33,0.129-0.47c-0.029,0.001-0.059,0.002-0.088,0.003c-9.458,0.251-18.94,0.398-28.397,0.029
	c-3.489-0.137-7.163-0.21-10.763-0.616c-0.902,13.158-1.675,26.444-0.686,39.618c0.768,10.228,2.586,20.291,4.839,30.287
	c0.54,2.397,1.233,4.735,2.085,6.981c1.733,4.571,4.168,8.73,7.521,12.104c2.512,2.527,5.527,4.62,9.164,6.098
	c5.013,2.037,10.323,2.982,15.62,2.839c2.059-0.056,4.114-0.284,6.151-0.669c1.51-0.285,3.01-0.658,4.491-1.125
	C493.479,389.688,490.245,371.43,488.668,352.981z M544.367,286.634c-3.438-10.473-14.259-15.572-22.956-21.086
	c-9.469-6.004-19.873-11.77-30.747-16.214c-1.584-0.647-3.181-1.258-4.783-1.846c-6.471-2.374-13.078-4.24-19.732-5.37
	c-5.695,10.2-11.836,21.26-12.956,33.03c-0.039,0.41-0.331,0.729-0.714,0.936c18.428-1.446,37.047-3.033,54.814,3.139
	c1.066,0.371-1.565,1.55-2.339,1.281c-20.847-7.241-42.964-3.493-64.449-2.211c-0.765,10.202-1.596,20.249,1.976,30.038
	c5.05,1.626,10.752,1.773,16.062,1.938c0.454,0.014,0.911,0.028,1.359,0.043c8.804,0.307,17.619,0.24,26.425,0.006
	c0.778-0.021,1.562-0.039,2.342-0.059c14.246-0.357,28.83-0.585,42.917-2.678c1.993-0.296,4.189-0.697,6.209-1.437
	c1.987-0.728,3.795-1.793,5.072-3.412c0.484-0.614,0.899-1.298,1.209-2.085C545.715,296.479,545.753,290.856,544.367,286.634z
	 M449.895,449.66c-3.945-4.698-8.681-8.412-13.417-12.161c-2.564-2.029-5.128-4.068-7.567-6.282c-0.32-0.29-0.629-0.588-0.936-0.89
	c-5.208-5.127-8.619-11.787-14.551-16.046c-0.987-0.709-3.563,0.675-2.248,1.619c3.292,2.364,4.867,4.966,7.331,8.05
	c0.412,0.517,0.853,1.031,1.284,1.547c2.563,8.163,5.332,16.254,8.196,24.312c0.961,2.703,1.931,5.402,2.91,8.099
	c4.562,12.564,9.268,25.078,13.732,37.677c0.046,0.129,0.093,0.259,0.139,0.388c0.371,1.049,3.247,0.212,2.897-0.776
	c-7.596-21.47-15.918-42.687-22.999-64.335c0.959,0.97,1.93,1.917,2.911,2.808c6.96,6.318,14.618,11.237,20.727,18.513
	c11.158,13.288,19.586,28.611,29.896,42.526c0.1,0.135,0.238,0.229,0.397,0.293c1.027,0.414,3.005-0.541,2.263-1.542
	C470.209,479.084,461.425,463.392,449.895,449.66z M178.318,205.485c9.504,26.049,11.48,54.842,9.01,82.303
	c-2.252,25.043-7.887,51.679-21.495,73.213c-1.817,2.875-3.818,5.716-6.03,8.386c-0.747,0.902-1.519,1.784-2.315,2.64
	c-3.271,3.519-6.968,6.615-11.173,8.905c-9.83,5.353-21.949,5.605-32.817,4.158c-28.355-3.777-47.931-25.062-57.305-51.065
	c-10.93-30.32-10.919-64.621-4.327-95.897c6.347-30.117,19.234-60.951,42.734-81.72c0.171-0.21,0.48-0.401,0.983-0.503
	c17.864-3.61,36.97-2.444,52.479,7.957C162.711,173.686,172.357,189.147,178.318,205.485z M185.109,258.195
	c-1.21-26.17-6.508-54.597-22.29-76.193c-6.89-9.429-15.838-17.433-26.737-21.897c-10.139-4.152-21.006-5.135-31.76-4.013
	c-2.008,0.209-4.012,0.487-6.006,0.837c-0.6,0.105-1.199,0.22-1.797,0.337c-0.26,0.232-0.514,0.469-0.771,0.703
	c-0.07,0.064-0.14,0.127-0.209,0.191c-24.757,22.716-37.563,57.1-42.603,89.625c-4.855,31.333-3.806,66.156,10.228,95.185
	c6.064,12.543,14.842,24.234,26.839,31.645c12.975,8.015,28.26,10.665,43.325,8.927c21.063-2.429,33.125-25.384,39.751-43.109
	C182.791,314.452,186.387,285.828,185.109,258.195z M176.198,235.368c4.358,27.932,3.134,57.407-3.744,84.843
	c-4.508,17.984-12.49,43.329-31.203,51.504c-10.042,4.387-23.458,3.267-33.518-0.452c-12.183-4.504-21.764-13.737-28.241-24.856
	c-15.871-27.249-17.663-61.987-13.78-92.599c3.892-30.681,14.012-63.938,36.616-86.182c0.007-0.007,0.018-0.013,0.025-0.02
	c0.131-0.141,0.351-0.262,0.627-0.361c0.103-0.037,0.191-0.08,0.315-0.108c1.417-0.317,2.847-0.584,4.282-0.817
	c12.332-2,25.16-0.739,35.888,6.215C164.119,185.921,172.593,212.265,176.198,235.368z M118.648,167.067
	c-2.429-0.073-4.955,0.026-7.58,0.311c-2.187,0.237-4.439,0.598-6.766,1.098c-3.908,3.892-7.441,8.147-10.554,12.702
	c-18.859,27.596-26.571,63.103-26.709,96.147c-0.12,28.685,5.074,64.9,28.746,84.331c10.968,9.002,25.395,12.697,39.41,10.352
	c8.822-1.476,15.489-8.874,20.107-16.034c13.945-21.624,18.663-49.549,20.048-74.801
	C177.539,241.299,168.027,168.556,118.648,167.067z M163.4,231.979c7.037,27.079,6.28,57.667-0.98,84.631
	c-2.733,10.149-6.472,21.063-13.621,29.026c-6.559,7.306-15.772,9.087-25.287,7.27c-29.352-5.604-36.445-43.274-37.066-68.081
	c-0.767-30.623,5.342-67.292,26.961-90.573c0.081-0.087,0.195-0.165,0.331-0.231c0.17-0.102,0.37-0.193,0.636-0.258
	c10.96-2.656,22.461-1.422,31.28,6.094C155.135,207.941,160.332,220.172,163.4,231.979z M161.654,237.532
	c-5.03-22.566-18.585-47.909-45.164-42.666c-0.354,0.07-0.708,0.142-1.065,0.223c-13.911,15.193-20.6,36.649-23.833,56.587
	c-2.799,17.259-3.36,35.186-0.3,52.455c2.452,13.839,7.108,29.044,17.767,38.87c7.882,7.266,23.051,12.98,32.932,6.198
	c8.443-5.795,12.844-16.967,15.807-26.329C166.303,295.998,167.788,265.053,161.654,237.532z M154.304,247.078
	c4.112,21.095,3.472,45.646-4.081,65.944c-3.027,8.136-7.454,16.39-16.939,17.166c-12.632,1.034-21.075-8.922-25.082-19.836
	c-5.664-15.43-6.044-32.952-3.945-49.106c1.984-15.268,6.092-31.854,16.173-43.938c0.053-0.064,0.129-0.122,0.215-0.177
	c0.177-0.207,0.479-0.399,0.939-0.521c0.242-0.064,0.474-0.107,0.712-0.164C141.779,211.818,151.108,230.682,154.304,247.078z
	 M122.727,217.895c-12.213,15.026-16.082,37.019-16.571,55.833c-0.418,16.086,0.823,40.088,14.986,50.888
	c4.15,3.165,11.782,5.951,16.752,2.982c3.959-2.365,6.433-6.953,8.181-11.068c5.271-12.409,7.113-26.436,7.485-39.821
	C154.053,258.963,151.273,211.202,122.727,217.895z M137.888,294.328c-2.236,2.544-5.886,2.862-8.978,1.902
	c-4.463-1.386-6.812-6.45-7.812-10.638c-2.657-11.124-1.551-26.107,5.896-35.297c0.048-0.059,0.115-0.113,0.19-0.165
	c0.172-0.215,0.478-0.414,0.964-0.533C147.878,244.781,146.024,285.069,137.888,294.328z M140.129,266.937
	c-0.667-5.773-2.943-17.241-10.845-16.023c-5.929,7.781-7.357,19.779-6.144,29.174c0.546,4.228,1.505,9.355,4.652,12.508
	c2.986,2.993,6.843,3.464,8.928-0.519C140.545,284.765,141.057,274.97,140.129,266.937z M456.504,211.657
	c0.568-0.427,1.351-0.598,2.049-0.549c0.137,0.01,0.283,0.025,0.431,0.038c-0.018-0.263-0.05-0.523-0.064-0.786
	c-0.053-1.027,0.166-1.881,0.828-2.688c1.587-1.932,4.96-1.868,6.626-0.186c0.619,0.625-2.094,1.682-2.711,1.06
	c-0.295-0.298-0.616-0.634-1.026-0.777c-0.154-0.018-0.248-0.039-0.314-0.061c-0.329,0.388-0.521,0.939-0.519,1.437
	c0.004,0.562,0.224,1.278,0.05,1.826c-0.582,1.824-3.695,1.615-5.129,1.513C456.131,212.442,456.061,211.99,456.504,211.657z
	 M458.982,211.395C458.716,211.561,458.932,211.645,458.982,211.395L458.982,211.395z" fill="#0a1230"></path>
</svg>