<?xml version="1.0" standalone="no"?>
<svg version="1.1" id="Layer_1" xmlns="http://www.w3.org/2000/svg" xmlns:xlink="http://www.w3.org/1999/xlink" x="0px" y="0px" width="595.279px" height="595.281px" viewBox="0 0 595.279 595.281" enable-background="new 0 0 595.279 595.281" xml:space="preserve">
<path id="color_x5F_2" fill="#6c63ff" d="M497.553,376.003c-4.538,17.375-25.135,24.155-41.145,24.314
	c-8.817,0.088-17.658-1.139-26.34-2.569c-7.436-1.226-15.481-2.912-21.479-7.735c-0.104-0.083-0.263-0.118-0.449-0.125
	c0.572-0.132,1.092-0.355,1.179-0.643c2.724-8.962,0.556-18.117,0.689-27.272c6.209-7.47,11.093-16.429,15.904-24.683
	c1.493,0.009,3.003-0.061,4.522-0.174c-0.149,0.566,2.463,0.312,2.896-0.483c0.014-0.024,0.027-0.051,0.042-0.076
	c0.376-0.274,0.586-0.627,0.483-0.875c6.597-11.962,13.938-23.63,18.142-36.715c0.27-0.838-2.604-0.441-2.881,0.426
	c-4.136,12.87-11.306,24.369-17.816,36.125c-2.27,0.184-4.501,0.196-6.694,0.075l0.284-0.435c0,0-1.651,0.166-4.165,0.061
	c-11.084-1.563-20.866-7.178-28.016-16.758c0.084-0.067,0.157-0.139,0.206-0.217c3.581-5.748,5.426-12.629,7.846-18.905
	c2.406-6.241,6.144-17.691,13.675-19.367c1.782-0.396,1.332-1.975-0.424-1.584c-7.287,1.621-11.016,9.366-13.799,15.554
	c-2.644,5.877-4.368,12.351-6.979,18.315c-4.433-7.589-9.26-16.515-9.563-25.133c-0.026-0.77-2.934-0.23-2.897,0.775
	c0.208,5.901,2.54,11.949,5.411,17.612c-0.037,0.063-0.065,0.129-0.073,0.198c-0.313,2.688-2.476,5.519-3.815,7.77
	c-0.522,0.879-1.063,1.762-1.625,2.637l-0.037,0.058c-1.688,2.627-3.563,5.184-5.764,7.364c-11.645-0.49-21.154-8.185-28.221-17.021
	c-0.609-0.939-1.037-1.656-1.254-2.032c0.492-0.093,0.956-0.235,1.143-0.403c5.521-4.982,9.992-10.769,13.781-17.151
	c3.096-5.216,3.818-11.85,8.6-15.871c8.313-1.478,16.624-5.752,24.284-0.341c0.484,0.343,1.688,0.017,2.354-0.392
	c0.046-0.021,0.088-0.041,0.119-0.063c6.3-4.145,12.651-9.341,11.35-17.631c0.039-0.126,0.011-0.249-0.124-0.356
	c-0.113-0.092-0.22-0.192-0.333-0.285c0.096-0.448,0.183-0.859,0.26-1.231c6.253,1.12,12.454,2.176,18.604,4.068
	c14.234,4.383,27.461,11.811,38.217,22.153c6.371,6.126,11.602,13.211,15.807,20.879c3.51,7.732,6.5,15.096,8.98,22.092
	c0.781,2.736,1.477,5.495,2.063,8.272c1.992,9.421,3.315,18.997,4.588,28.537c0.536,4.021,1.031,8.047,1.485,12.077
	c0.14,1.244,0.891,4.774,0.601,5.515c-0.2,0.514-0.001,0.839,0.358,1.016C497.541,375.594,497.547,375.804,497.553,376.003z
	 M407.277,390.022c0.011-0.003,0.021-0.008,0.031-0.011c-0.012,0-0.021,0-0.03,0C407.277,390.017,407.277,390.02,407.277,390.022z
	 M407.226,362.181c0,0,0.002,0.007,0.004,0.009c0.188-0.25,0.383-0.5,0.566-0.753c5.126-7.018,9.755-14.357,14.187-21.826
	L407.226,362.181z M171.062,278.412c-1.937-0.015-3.991-0.163-6.006-0.42C167.003,278.399,168.999,278.568,171.062,278.412z
	 M139.594,288.647c-0.024,0.188-0.045,0.377-0.073,0.564c-0.047,0.309-0.277,0.564-0.591,0.754
	c-3.716,6.719-4.762,14.519-8.498,21.229c7.582-0.544,15.314,0.313,22.964,0.157l0.334-0.007c2.534-0.061,5.061-0.236,7.567-0.616
	c0.486-0.289,1.188-0.466,1.719-0.386c1.39-3.113,4.05-5.384,7.269-6.528c0.406-0.146,1.012-0.099,1.395,0.184
	c0.213,0.006,0.4,0.047,0.532,0.14c0.104,0.074,0.191,0.155,0.288,0.233c2.389-6.595,5.247-12.99,8.201-19.354
	c1.068-2.304,1.998-5.608,3.233-8.573l-0.174-1.585c-0.482,0.493-1.043,0.967-1.721,1.41c-4.441,2.904-11.828,4.464-17.056,3.553
	c-9.913-1.727-19.938-9.114-30.143-12.719c4.48,6.161,5.787,13.863,4.765,21.455C139.606,288.587,139.598,288.618,139.594,288.647z
	 M185.591,350.375l-0.027-0.448c-9.148,0-18.298,0-27.446,0c-0.622,0-0.446-0.225-0.004-0.478c-0.387-0.033-0.624-0.16-0.497-0.402
	c2.762-5.235,4.628-10.829,6.479-16.43c-13.705,3.848-27.541,7.69-41.604,9.854c-1.917,0.295-4.062,0.646-6.292,0.924
	c-3.249,9.443-7.244,18.684-9.847,28.335c-1.648,6.122-1.892,12.434-2.106,18.746c-0.438,12.829-0.299,25.662-0.288,38.495
	c0,0.129-0.084,0.246-0.216,0.353l85.021-2.422c-3.435-24.907-4.605-50.543-4.653-75.67
	C184.11,350.827,184.856,350.521,185.591,350.375z"></path>
<path id="color_x5F_1" d="M153.098,205.072c-0.534,0.338-1.438,0.549-2.046,0.297c-0.646-0.269-0.056-0.82,0.28-1.033
	c2.004-1.267,4.483-1.792,6.812-1.281c0.566,0.124,0.729,0.529,0.248,0.924c-0.511,0.418-1.392,0.693-2.049,0.549
	C155.121,204.258,154.153,204.405,153.098,205.072z M365.391,233.932c0.671-1.759,0.997-3.66,0.354-5.474
	c-0.255-0.714-3.116,0.163-2.898,0.776c0.619,1.741,0.329,3.504-0.314,5.195C362.315,234.992,365.103,234.688,365.391,233.932z
	 M185.591,350.375c-0.734,0.146-1.48,0.451-1.48,0.859c0.048,25.127,1.22,50.763,4.653,75.67c0.017,0.115,0.028,0.23,0.044,0.346
	c0.075,0.542,2.998-0.058,2.898-0.776c-3.473-25.015-4.651-50.772-4.698-76.016C187.008,350.244,186.305,350.234,185.591,350.375z
	 M499.029,381.744c0.048,13.006,0.901,26.005,0,39c-0.095,1.354-3.048,1.745-2.939,0.204c0.846-12.192,0.153-24.388,0.024-36.59
	c-7.233,9.778-20.813,15.437-32.256,16.666c-10.695,1.147-21.433,0.106-32.027-1.479c-7.288-1.091-15.321-2.262-21.943-5.874
	c-1.4,9.678-5.785,18.53-7.862,28.056c-0.271,1.247-3.232,1.626-2.931,0.239c2.145-9.831,6.762-18.962,8-29
	c0.035-0.285,0.216-0.524,0.467-0.711c-0.578-0.394-1.148-0.802-1.697-1.242c-0.286-0.23,0.564-0.743,1.414-0.99
	c0.011-0.003,0.021-0.007,0.031-0.01c-0.012,0-0.021,0-0.03,0c-0.494,0.025-0.87-0.04-0.813-0.232
	c2.454-8.08,0.871-16.317,0.662-24.563c-0.334,0.351-0.665,0.704-1.007,1.045c-4.473,4.468-10.013,7.39-16.47,7.319
	c-10.706-0.117-19.251-5.176-28.433-10.063c-11.063-5.89-22.736-10.527-33.766-16.528c-0.094-0.022-0.182-0.055-0.249-0.104
	c-0.071-0.051-0.146-0.095-0.218-0.146c-0.042-0.022-0.086-0.044-0.129-0.067c-0.016-0.01-0.021-0.022-0.025-0.034
	c-0.095-0.065-0.192-0.128-0.288-0.191c-11.372,18.095-32.583,32.28-31.558,55.682c0.139,0,0.273,0.011,0.4,0.051
	c4.237,1.327,3.008,7.725,0.473,10.025c-0.268,0.241-0.603,0.36-0.938,0.389c0.004,0.033,0.006,0.066,0.004,0.1
	c0.193-0.023,0.373-0.021,0.517,0.023c3.937,1.232,3.1,7.123,0.612,9.38c-0.249,0.226-0.762,0.37-1.271,0.416
	c-0.229,0.396-0.706,0.724-1.356,0.724c-1.479,0-2.957,0-4.436,0c-5.955,12.367-30.684,10.789-37.455,0.153
	c-0.032-0.051-0.051-0.103-0.063-0.153c-1.623,0-3.246,0-4.87,0c-0.444,0.593-1.786,1.113-2.503,0.767
	c-3.961-1.919-3.903-8.418-0.633-10.893c-2.259-1.373-2.875-4.236-2.095-6.717c0.42-1.335,1.147-2.391,2.136-3.115
	c1.735-14.212-6.501-26.842-16.346-36.561c-3.794-3.746-8.093-6.917-11.775-10.802c-1.826-1.928-3.521-3.937-5.084-6.014
	c-0.074,0.015-0.143,0.025-0.19,0.025c-8.186,0-16.368,0-24.553,0c-9.149,0-18.298,0-27.447,0c-0.622,0-0.446-0.226-0.004-0.479
	c-0.386-0.033-0.624-0.16-0.497-0.402c2.762-5.234,4.628-10.829,6.479-16.43c-13.704,3.848-27.541,7.691-41.604,9.855
	c-1.917,0.295-4.062,0.646-6.292,0.923c-3.249,9.444-7.244,18.684-9.846,28.335c-1.649,6.122-1.893,12.434-2.107,18.746
	c-0.438,12.829-0.299,25.662-0.288,38.495c0,0.129-0.084,0.247-0.216,0.353c-0.666,0.539-2.682,0.763-2.683,0.423
	c-0.011-13.231-0.218-26.477,0.334-39.701c0.249-5.978,0.443-12.002,2.106-17.782c2.793-9.703,6.67-19.033,9.935-28.579
	c-5.107,0.426-10.397,0.186-14.389-2.259c-6.089-3.73-4.553-10.777-3.177-16.65c4.521-19.282,9.355-38.475,16.319-57.043
	c0.053-0.141,0.15-0.266,0.277-0.375c0.897-9.538,7.44-16.354,10.316-25.225c-6.938-14.906-9.862-34.146-5.202-50.044
	c3.574-12.196,12.036-20.27,23.762-24.938c9.95-3.961,22.286-5.75,32.257-0.839c13.44,6.62,16.537,21.792,16.037,35.565
	c0.483,1.269,0.365,2.356,0.327,3.921c-0.123,5.023-0.332,10.086-1.129,15.056c-1.217,7.582-3.46,16.638-10.028,21.462
	c-1.341,0.983-2.823,1.836-4.395,2.56c0.085,0.104,0.117,0.237,0.057,0.412c-0.992,2.887,0.849,6.127,3.123,9.085
	c0.657-0.256,1.457-0.367,1.817-0.077c6.315,5.081,14.601,6.638,19.5,13.5c0.153,0.216,0.099,0.436-0.076,0.633
	c4.063,0.272,8.25,1.095,11.561,1.323c5.598-7.535,12.995-13.691,22.381-17.763c15.163-6.576,32.914-8.419,49.216-5.954
	c15.724,2.377,31.688,8.985,41.537,22.013c11.861,15.691,12.602,35.673,8.9,54.306c4.603-2.903,9.541-6.521,11.683-11.331
	c0.225-0.508,1.149-0.833,1.902-0.89c-1.336-1.521-2.605-3.089-3.791-4.689c-0.633-0.854,1.038-1.692,2.071-1.521
	c5.978-5.462,11.635-12.218,14.719-19.76c1.877-4.591,3.436-9.393,7.093-12.729c-0.707,0.059-1.414,0.09-2.12,0.079
	c-7.805-0.117-16.297-2.118-21.777-8.128c-5.527-6.063-6.071-14.613-5.851-22.452c0.231-8.253,0.726-16.496,0.959-24.747
	c-0.122-0.066-0.201-0.158-0.205-0.287c-0.015-0.543-0.031-1.085-0.015-1.628c0.033-1.133,0.156-2.214,0.322-3.27
	c0.01-0.7,0.021-1.4,0.024-2.103c0.001-0.294,0.245-0.543,0.586-0.734c5.597-19.717,35.047-24.166,52.244-18.644
	c9.139,2.934,17.222,8.952,21.151,17.523c6.543,10.473,3.979,20.979,0.469,29.633c-2.207,5.438-5.59,8.938-7.839,10.813
	c-0.089,0.15-0.177,0.299-0.264,0.449c8.373,1.508,16.654,2.743,24.787,5.43c14.332,4.736,27.822,12.319,38.492,23.1
	c14.309,14.456,22.915,33.232,26.751,53.072c1.911,9.884,3.345,19.863,4.609,29.85c0.483,3.83,0.963,7.663,1.345,11.505
	c0.093,0.93,0.464,2.328,0.278,3.361c0.386,0.013,0.651,0.115,0.603,0.339c-0.495,2.212-1.291,4.287-2.318,6.231
	C498.737,380.962,499.028,381.255,499.029,381.744z M361.802,209.895c2.938-0.901,5.788-1.793,8.305-2.204
	C368.004,207.655,365.147,208.654,361.802,209.895z M345.042,199.894c2.034-1.762,4.744-4.019,7.305-5.882
	C349.529,195.576,347.034,197.522,345.042,199.894z M379.031,267.33c5.535-1.497,11.036-1.356,15.968,1.707
	c5.442-3.777,10.302-8.45,9.123-15.701c-2.5-2.021-4.798-4.314-7.004-6.653c-2.412,0.76-5.048-0.042-7.235-1.927
	c-0.821-0.708,1.89-1.837,2.688-1.148c0.474,0.409,1.113,0.937,1.802,1.307c0.631-0.444,3.272-2.36,5.281-4.624
	c0.636-2.366,0.856-5.002,0.051-7.318c-0.07-0.202-0.149-0.389-0.229-0.574c-1.07-1.385-2.656-2.63-4.752-3.479
	c-3.933,0.074-8.332,4.567-7.715,9.207c0.131,0.988-2.11,1.625-2.739,1.068c-0.305,0.02-0.57-0.02-0.731-0.15
	c-5.34-4.348-3.72-10.524-5.427-16.475c-1.06-3.694-2.11-11.579-6.373-12.972c-9.258,0.449-23.599,9.479-31.44,1.971
	c-0.182,9.538-0.886,19.053-1.043,28.592c-0.144,8.709,0.396,18.659,8.075,24.286C357.223,271.696,367.918,270.336,379.031,267.33z
	 M346.653,306.52c7.065,8.837,16.576,16.529,28.221,17.021c2.199-2.182,4.076-4.738,5.764-7.365c0.014-0.02,0.025-0.038,0.037-0.057
	c0.563-0.875,1.103-1.758,1.625-2.637c1.34-2.251,3.502-5.082,3.815-7.771c0.008-0.067,0.036-0.134,0.072-0.197
	c-2.87-5.664-5.202-11.711-5.411-17.612c-0.034-1.007,2.871-1.545,2.898-0.776c0.303,8.618,5.13,17.544,9.563,25.134
	c2.609-5.966,4.334-12.438,6.979-18.315c2.783-6.188,6.511-13.933,13.799-15.554c1.755-0.392,2.206,1.188,0.424,1.584
	c-7.531,1.676-11.269,13.126-13.675,19.367c-2.42,6.275-4.265,13.156-7.846,18.904c-0.049,0.078-0.122,0.149-0.206,0.218
	c7.147,9.58,16.932,15.192,28.016,16.758c1.277,0.18,2.572,0.302,3.881,0.374c2.193,0.121,4.426,0.107,6.694-0.075
	c6.512-11.757,13.682-23.255,17.815-36.125c0.278-0.868,3.15-1.264,2.882-0.426c-4.204,13.085-11.546,24.752-18.143,36.715
	c0.104,0.248-0.106,0.602-0.482,0.875c-0.015,0.025-0.028,0.05-0.042,0.076c-0.436,0.795-3.047,1.05-2.896,0.482
	c-1.521,0.115-3.03,0.184-4.522,0.175c-4.813,8.254-9.695,17.212-15.904,24.683c-0.135,9.155,2.033,18.311-0.69,27.272
	c-0.087,0.285-0.604,0.51-1.178,0.643c0.188,0.006,0.345,0.042,0.449,0.125c5.998,4.824,14.045,6.51,21.479,7.735
	c8.683,1.431,17.522,2.657,26.34,2.569c16.011-0.159,36.606-6.939,41.146-24.314c0.049-0.185,0.104-0.363,0.15-0.55
	c-0.063-0.021-0.113-0.053-0.169-0.081c-0.359-0.177-0.561-0.502-0.358-1.017c0.29-0.739-0.461-4.27-0.601-5.514
	c-0.454-4.031-0.949-8.058-1.485-12.078c-1.272-9.54-2.596-19.115-4.588-28.537c-0.588-2.776-1.283-5.537-2.064-8.271
	c-2.191-7.667-5.157-15.122-8.979-22.092c-4.205-7.668-9.437-14.752-15.807-20.879c-10.757-10.345-23.981-17.771-38.218-22.153
	c-6.147-1.894-12.35-2.948-18.603-4.068c-0.716-0.128-1.433-0.256-2.148-0.388c0.617,0.557,1.249,1.093,1.89,1.619
	c0.112,0.093,0.22,0.193,0.333,0.284c0.135,0.108,0.162,0.231,0.124,0.357c1.303,8.29-5.051,13.486-11.35,17.631
	c-0.032,0.021-0.073,0.042-0.12,0.063c-0.665,0.406-1.869,0.732-2.354,0.392c-7.66-5.412-15.973-1.137-24.284,0.34
	c-4.781,4.021-5.504,10.656-8.6,15.871c-3.789,6.384-8.263,12.168-13.781,17.152c-0.188,0.167-0.65,0.311-1.144,0.403
	c-0.094,0.018-0.188,0.037-0.28,0.051C345.615,305.203,346.128,305.864,346.653,306.52z M331.904,324.675
	c0.339,1.433,0.604,2.915,0.937,4.49c0.161,0.021,0.302,0.063,0.404,0.144c6.85,5.281,14.771,7.79,23.021,9.416
	c4.31-4.441,8.332-9.177,13.134-13.107c0.71-0.581,3.604-0.592,2.319,0.461c-4.793,3.924-8.811,8.65-13.11,13.085
	c8.771,1.56,17.832,2.329,26.307,4.528c3.92-5.383,6.113-11.747,9.965-17.193c0.154-0.218,0.516-0.395,0.929-0.512
	c-2.126-1.939-4.113-4.123-5.929-6.578c-0.214-0.289-0.079-0.584,0.223-0.828c-0.038-0.123-0.02-0.272,0.1-0.463
	c0.548-0.88,1.056-1.782,1.534-2.704c-1.248-2.118-2.572-4.367-3.855-6.702c-0.993,2.018-2.412,4.014-3.398,5.589
	c-2.333,3.726-4.847,7.423-8.104,10.409c-0.086,0.077-0.212,0.146-0.361,0.208c-0.388,0.297-0.893,0.526-1.324,0.521
	c-11.154-0.114-20.566-6.382-27.869-14.388C343.956,317.054,337.448,321.298,331.904,324.675z M180.643,258.06
	c0.75,0.885,1.431,1.705,1.939,2.433c0.041,0.06,0.065,0.116,0.087,0.174c0.007,0.011,0.017,0.017,0.021,0.025
	c2.884,4.766,4.962,10.202,1.068,14.17c-0.482,0.493-1.043,0.966-1.721,1.41c-4.441,2.903-11.828,4.464-17.057,3.553
	c-9.912-1.728-19.938-9.115-30.142-12.719c4.48,6.16,5.787,13.862,4.765,21.455c0,0.026-0.009,0.058-0.013,0.087
	c-0.024,0.188-0.045,0.377-0.073,0.564c-0.047,0.309-0.277,0.564-0.591,0.754c-3.716,6.719-4.762,14.519-8.498,21.229
	c7.582-0.544,15.314,0.313,22.964,0.157c0.11-0.002,0.223-0.004,0.334-0.007c2.534-0.061,5.061-0.236,7.567-0.616
	c0.486-0.289,1.188-0.466,1.719-0.386c1.39-3.113,4.05-5.384,7.269-6.528c0.406-0.146,1.012-0.099,1.395,0.184
	c0.213,0.006,0.4,0.047,0.532,0.14c0.104,0.074,0.191,0.155,0.288,0.233c2.389-6.595,5.247-12.99,8.201-19.354
	c1.068-2.304,1.998-5.608,3.233-8.573c0.916-2.191,1.999-4.197,3.438-5.471c2.15-1.903,5.146-2.559,8.409-2.629
	C191.866,263.291,185.971,261.183,180.643,258.06z M186.409,202.022c-1.63-2.623-3.935-4.863-6.575-6.461
	c-13.354-8.08-29.293-0.36-40.865,7.467c-0.021,0.174-0.032,0.344-0.052,0.517c0.419,5.988-1.531,12.083-0.646,18.195
	c1.271,8.78,5.815,17.908,14.435,21.566c8.08,3.43,20.352,2.866,26.345-4.429c5-6.086,6.632-14.233,7.358-21.896
	c0.378-3.985,0.575-7.981,0.636-11.983c-0.23-0.077-0.386-0.222-0.393-0.452c-0.021-0.748-0.084-1.566-0.186-2.427
	C186.446,202.085,186.431,202.057,186.409,202.022z M115.461,265.817c5.187-2.011,10.367-2.132,15.478-1.188
	c0.674-0.281,1.547-0.335,1.953,0.103c0.12,0.128,0.229,0.264,0.345,0.394c6.299,1.546,12.47,4.542,18.379,7.447
	c4.417,2.172,8.798,4.447,13.44,5.419c1.947,0.408,3.943,0.577,6.006,0.42c0.793-0.06,1.592-0.156,2.404-0.32
	c3.637-0.733,9.295-2.124,9.676-6.718c0.291-3.533-1.448-6.749-3.216-9.683c-0.007-0.01-0.017-0.016-0.022-0.024
	c-2.744-3.919-9.846-10.165-8.445-15.621c-5.434,1.813-11.55,2.125-16.775,0.557c-8.542-2.561-15.538-9.378-18.021-18.042
	c-1.391-4.856-1.864-9.879-1.577-14.923c0.152-2.675,0.846-5.647,0.905-8.438c-0.073-0.124-0.109-0.275-0.095-0.459
	c0.02-0.24,0.051-0.485,0.074-0.728c-0.016-0.281-0.025-0.563-0.061-0.84c-0.002-0.018,0.001-0.032,0-0.049
	c-0.126-0.248-0.069-0.544,0.278-0.855c1.229-8.216,5.411-17.176,13.345-20.394c1.45-0.588,3.103,0.839,1.252,1.59
	c-6.441,2.613-9.938,9.8-11.333,16.616c12.185-7.781,28.576-14.706,42.018-6.574c1.291,0.781,2.586,1.703,3.786,2.743
	c-1.814-6.146-5.47-12.288-11.416-12.694c-1.964-0.134-0.096-1.853,1.094-1.771c5.143,0.353,8.835,4.09,11.226,8.751
	c-1.309-8.753-4.852-17.069-12.711-21.825c-9.941-6.016-22.706-4.934-32.913-0.105c-12.948,6.123-20.053,16.47-21.653,30.832
	c-1.559,13.977,0.853,29.165,6.823,41.969c0.021,0.044,0.01,0.095-0.016,0.146c0,0.001,0,0.003,0,0.004
	C122.947,250.112,116.626,256.774,115.461,265.817z M125.073,340.191c14.103-2.505,27.96-6.373,41.742-10.233
	c0.391-6.78-1.043-12.915-5.773-18.021c-10.211,1.58-21.004-0.531-31.29,0.348c-0.633,0.604-1.97,0.699-2.507,0.279
	c-2.426,0.337-4.819,0.864-7.162,1.695c-1.167,0.415-2.985-0.143-1.047-0.829c2.703-0.96,5.443-1.557,8.208-1.92
	c4.255-7.17,5.124-15.709,9.422-22.861c0.014-0.022,0.033-0.041,0.048-0.063c1.051-8.213-0.706-16.432-6.487-22.625
	c-0.067-0.072-0.109-0.146-0.141-0.221c-5-1.073-10.046-0.899-15.144,1.617c0.069,0.157,0.078,0.352-0.014,0.597
	c-6.447,17.193-11.061,34.954-15.263,52.81c-1.29,5.481-5.113,15.426,1.644,19.104C108.101,343.565,117.915,341.462,125.073,340.191
	z M209.497,348.766c-10.113-14.039-14.248-31.141-11.374-48.739c1.694-10.372,5.247-20.036,10.797-28.227
	c-3.031-0.168-6.051-0.568-9.08-0.763c-5.495-0.35-10.151-0.98-12.44,5.055c-3.968,10.458-9.326,20.296-12.957,30.908
	c-0.057,0.161-0.159,0.3-0.291,0.419c0.039,0.551-0.002,1.131-0.144,1.748c-0.229,0.999-3.149,1.458-2.897,0.357
	c0.293-1.28,0.188-2.546-0.66-3.484c-2.393,0.996-4.142,3.071-5,5.49c-0.094,0.264-0.298,0.468-0.553,0.616
	c3.74,4.732,5.043,10.294,4.875,16.308c0.394-0.13,0.765-0.212,0.974-0.183c5.661,0.793,13.8,0.791,17.245-4.294
	c-1.108,0.253-2.79-0.221-1.337-1.085c2.704-1.613,4.982-4.05,4.753-7.149c-2.032,2.293-4.357,4.364-6.531,6.512
	c-0.51,0.503-3.282,0.826-2.633,0.185c2.212-2.186,4.595-4.228,6.63-6.583c1.162-1.345,2.313-2.758,3.105-4.36
	c0.844-1.704-0.133-1.606-1.463-1.54c-2.092,2.011-5.086,3.436-7.337,4.973c-0.554,0.378-3.472,0.68-2.24-0.162
	c3.354-2.291,8.718-4.292,9.136-8.832c-3.14,1.255-6.005,3.107-9.216,4.187c-3.053,1.025-6.01,1.452-9.229,1.356
	c-1.472-0.043,1.197-1.279,1.859-1.261c6.68,0.198,11.8-3.962,17.936-5.873c0.185-0.058,1.574-0.353,1.584,0.115
	c0.035,1.701-0.518,3.093-1.407,4.286c0.025-0.003,0.056-0.01,0.078-0.011c1.439-0.068,2.564-0.362,3.743,0.61
	c0.092,0.067,0.114,0.152,0.068,0.256c-0.531,1.23-1.195,2.366-1.939,3.442c0.223,0.075,0.391,0.208,0.457,0.416
	c0.953,2.94-0.139,5.505-2.017,7.539c0.009,0.03,0.01,0.063-0.002,0.101c-2.633,8.54-14.527,9.324-22.266,8.489
	c-0.016,0.253-0.025,0.505-0.046,0.759c-0.02,0.265-0.22,0.495-0.506,0.675c-0.178,0.148-0.396,0.284-0.711,0.373
	c-0.442,0.124-0.888,0.249-1.332,0.374c-1.901,5.75-3.793,11.502-6.628,16.877c-0.021,0.042-0.055,0.082-0.088,0.121
	C176.776,348.766,193.137,348.766,209.497,348.766z M286.307,423.236c-10.464,0-20.928,0-31.392,0
	C261.496,431.545,281.57,434.016,286.307,423.236z M293.674,414.313c-0.351-0.11-0.504-0.261-0.533-0.424
	c-15.493,0-30.985,0-46.479,0c-0.244,0.173-0.549,0.298-0.905,0.322c-1.189,0.084-1.711,2.813-1.754,3.684
	c-0.062,1.239,0.187,2.364,0.842,3.244c0.061-0.006,0.117-0.015,0.181-0.015c16.223,0,32.443,0,48.667,0
	c0.151,0,0.284,0.018,0.407,0.04C295.374,419.4,296.121,415.078,293.674,414.313z M293.729,404.182
	c-0.154-0.049-0.271-0.11-0.367-0.177c-0.64,0.101-1.227-0.016-1.252-0.438c-0.01-0.162-0.008-0.318-0.017-0.479
	c-15.22,0-30.44,0-45.663,0c-0.025,0.211-0.045,0.42-0.074,0.632c-0.094,0.646-0.944,1.066-1.707,1.123
	c-0.058,0.118-0.115,0.235-0.161,0.357c-0.341,0.915-0.581,1.891-0.521,2.875c0.075,1.237,0.435,2.316,1.158,3.154
	c0.137-0.034,0.265-0.056,0.371-0.056c16.043,0,32.085,0,48.129,0c0.073-0.114,0.166-0.23,0.298-0.352
	C295.352,409.525,296.117,404.93,293.729,404.182z M324.537,345.24c-6.341-3.382-13.792-4.175-19.611-8.858
	c-3.143-2.527-9.935-7.989-5.937-12.388c0.129-0.142,0.383-0.264,0.685-0.358c-1.001-2.124-1.253-4.285,0.118-5.973
	c-0.663-1.571-0.546-3.091,1.084-4.373c0.196-0.153,0.443-0.252,0.704-0.303c-0.401-1.268-0.285-2.435,0.626-3.377
	c2.809-2.906,6.633-0.118,8.946,1.815c2.166,1.81,4.085,3.908,6.05,5.95c-0.751-2.112-0.814-4.344,0.447-6.836
	c1.347-2.656,4.148-4.052,6.447-2.284c0.615-0.09,1.158-0.038,1.16,0.202c0.033,4.113,1.858,6.69,4.063,9.978
	c0.271,0.406,0.507,0.809,0.729,1.211c2.913-16.93,2.115-35.399-8.584-49.554c-9.68-12.807-24.843-19.875-40.508-22.05
	c-17.666-2.451-38-0.626-53.479,8.926c-20.837,12.855-30.242,39.101-26.768,62.9c2.373,16.252,11.06,29.758,23.256,40.444
	c12.214,10.701,24.144,24.563,22.595,41.624c15.164,0,30.33,0,45.494,0C291.594,378.166,313.301,364,324.537,345.24z
	 M407.229,362.189c0.188-0.25,0.383-0.5,0.566-0.753c5.126-7.018,9.755-14.357,14.187-21.826c0.474-0.798,0.945-1.597,1.416-2.397
	c-9.783-0.528-18.813-3.833-26.237-10.06c-3.847,5.683-6.055,12.266-10.359,17.667c-0.289,0.363-1.188,0.603-1.896,0.621
	c-0.246,0.045-0.464,0.055-0.616,0.012c-8.846-2.533-18.354-3.339-27.572-4.958c-0.697,0.127-1.474,0.059-1.585-0.289
	c-8.483-1.59-16.669-4.008-23.806-9.241c-0.604,0.104-1.151,0.063-1.217-0.229c-0.949-4.225-1.106-7.872-3.688-11.523
	c-2.053-2.905-3.681-5.422-3.995-8.883c-0.082-0.042-0.156-0.091-0.213-0.157c-0.298-0.354-0.821-1.215-1.085-0.842
	c-0.348,0.494-0.673,0.996-0.89,1.567c-0.327,0.859-0.71,1.841-0.73,2.775c-0.074,3.321,1.766,5.563,3.644,8.101
	c0.466,0.629-0.544,1.266-1.479,1.416c-0.608,0.386-1.53,0.558-1.996,0.19c-2.823-2.226-5.169-5.064-7.741-7.563
	c-1.596-1.549-3.211-3.165-5.067-4.403c-0.513-0.342-2.913-1.99-2.549-0.207c0.572,2.81,3.321,5.26,5.31,7.146
	c1.843,1.749,3.756,3.462,5.812,4.959c1.271,0.927-1.336,2.24-2.262,1.565c-1.996-1.454-8.239-6.002-10.752-10.111
	c-1.494,2.501,6.846,9.164,7.968,10.723c0.796,1.106-1.99,2.157-2.67,1.212c-1.051-1.458-3.921-3.724-5.995-6.13
	c0.51,3.366,4.833,7.745,6.72,9.024c1.244,0.843-1.398,2.097-2.279,1.5c-1.547-1.048-3.799-3.167-5.396-5.549
	c-1.172,4.461,7.007,10.099,9.956,11.986c4.974,3.185,10.991,3.932,16.228,6.525c0.323,0.031,0.569,0.134,0.646,0.324
	c0.792,0.422,1.563,0.891,2.311,1.424c0.043,0.031,0.071,0.064,0.088,0.101c9.212,5.039,18.729,9.387,28.258,13.779
	c8.146,3.755,15.828,9.71,24.699,11.667c5.33,1.175,11.499,2.045,16.289-1.259C402.317,367.978,404.968,365.167,407.229,362.189z
	 M391.344,238.341c0.052-1.794,1.08-2.378,2.695-2.655c0.559-0.097,1.49-0.346,1.639-1.012c0.146-0.645-0.858-0.736-1.264-0.668
	c-2.623,0.451-5.883,1.511-5.974,4.678C388.406,239.938,391.315,239.35,391.344,238.341z M369.341,248.792
	c0.635,4.362,1.539,9.725-3.693,11.301c-4.252,1.281-4.83-3.996-5.777-6.905c-0.188-0.009-0.377-0.003-0.566-0.019
	c-0.574-0.044-0.662-0.437-0.204-0.762c0.565-0.402,1.362-0.604,2.051-0.549c0.083,0.006,0.156,0.002,0.237,0.007
	c0.357-0.067,0.699-0.079,0.945-0.007c1.804-0.125,3.107-0.936,4.235-2.614C366.837,248.842,369.225,247.998,369.341,248.792z
	 M366.76,251.51c-1.147,0.751-2.449,1.231-3.823,1.479c0.592,1.988,1.959,6.474,2.828,5.751
	C367.504,257.292,367.165,254.039,366.76,251.51z M346.229,223.14c0.801,0.975,3.564-0.148,2.659-1.252
	c-1.484-1.809-4.015-2.048-6.188-1.723c-0.62,0.094-1.504,0.4-1.605,1.139c-0.095,0.691,0.784,0.973,1.324,0.892
	C343.777,221.992,345.284,221.988,346.229,223.14z M179.793,210.945c0,0.914,0,1.829,0,2.743c0,0.699,2.897,0.211,2.897-0.776
	c0-0.915,0-1.829,0-2.743C182.692,209.469,179.793,209.956,179.793,210.945z M230.135,265.824
	c-8.578,4.919-15.52,14.501-17.532,24.176c-0.259,1.243,2.684,0.801,2.912-0.307c1.896-9.114,8.385-18.188,16.469-22.824
	C233.684,265.894,231.179,265.226,230.135,265.824z M211.096,305.976c-0.532,2.66-1.049,5.323-1.5,8
	c-0.232,1.382,2.722,0.963,2.927-0.258c0.45-2.676,0.968-5.339,1.5-8C214.294,304.356,211.338,304.761,211.096,305.976z
	 M347.324,233.937c0.671-1.76,0.996-3.664,0.352-5.479c-0.263-0.738-3.126,0.137-2.897,0.776c0.619,1.739,0.327,3.5-0.316,5.189
	C344.233,235.02,347.031,234.706,347.324,233.937z M349.511,241.566c-2.442,0.066-5.067,1.259-6.304,3.443
	c-0.39,0.688-0.549,1.598-0.146,2.309c0.553,0.969,1.903,1.123,2.896,1.146c0.695,0.016,1.463-0.161,2.049-0.55
	c0.451-0.299,0.391-0.673-0.184-0.686c-1.371-0.031-2.441-0.729-1.976-2.212c0.313-0.994,1.319-2.192,2.423-2.223
	c0.625-0.018,1.479-0.252,1.937-0.705C350.69,241.612,349.785,241.559,349.511,241.566z M174.464,215.654
	c-0.001-0.512-2.897-0.082-2.897,0.775c0.003,2.91,0.049,5.801,1.12,8.52c-0.409,0.04-0.817,0.079-1.228,0.119
	c-0.692-0.158-3.232,0.95-2.375,1.146c2.024,0.462,3.877-0.047,5.809-0.679c0.166-0.054,1.094-0.411,0.942-0.74
	C174.503,221.9,174.466,218.787,174.464,215.654z M360.477,223.783c1.93-0.595,3.938-0.596,5.938-0.597
	c1.615,0,2.258-2.014,0.287-2.013c-2.271,0.001-4.54,0.063-6.729,0.735c-0.529,0.163-1.385,0.626-1.197,1.325
	C358.957,223.906,359.948,223.946,360.477,223.783z M177.849,204.893c-0.328,0.208-0.933,0.754-0.283,1.018
	c0.604,0.246,1.512,0.036,2.043-0.301c1.059-0.668,2.021-0.813,3.245-0.544c0.655,0.144,1.539-0.137,2.051-0.549
	c0.483-0.392,0.316-0.785-0.243-0.908C182.336,203.099,179.849,203.626,177.849,204.893z M155.999,210.648c0,0.914,0,1.827,0,2.742
	c0,1.597,2.945,1.219,2.945-0.183c0-0.915,0-1.829,0-2.743C158.945,208.87,155.999,209.247,155.999,210.648z M164.615,229.672
	c0.099,0.093,0.128,0.202,0.089,0.331c-1.565,2.952-4.167,4.404-7.369,5.1c-0.4,0.087-1.408,0.322-1.616-0.235
	c-1.2-3.216-1.073-6.306,0.617-9.322c0.463-0.826,3.25-1.072,2.883-0.418c-0.045,0.08-0.076,0.159-0.118,0.239
	C161.26,226.261,162.989,228.048,164.615,229.672z M161.361,230.207c-0.968-0.946-1.982-1.958-3.128-2.735
	c-0.556,1.925-0.48,3.874,0.149,5.898C160.095,232.658,162.492,231.314,161.361,230.207z" fill="#0a1230"></path>
</svg>