<?xml version="1.0" standalone="no"?>
<svg version="1.1" id="Layer_1" xmlns="http://www.w3.org/2000/svg" xmlns:xlink="http://www.w3.org/1999/xlink" x="0px" y="0px" width="595.279px" height="595.281px" viewBox="0 0 595.279 595.281" enable-background="new 0 0 595.279 595.281" xml:space="preserve">
<path id="color_x5F_2" fill="#6c63ff" d="M245.199,366.469c0,0-0.228,0.488-0.588,1.271c-0.447,0.79-0.863,1.597-1.26,2.415
	c0.688-1.846,1.491-3.66,2.276-5.479C245.35,365.756,245.199,366.469,245.199,366.469z M421.362,297.042
	c-0.09,0.163-0.218,0.309-0.375,0.432c-9.826,11.274-19.775,22.465-30.279,33.036c-0.179,0.18-0.425,0.306-0.695,0.382
	c-0.306,0.181-0.655,0.293-1.011,0.271c-6.858-0.397-13.938-0.875-20.51-3.051c-4.588-1.519-8.845-3.82-13.349-5.552
	c-7.16-2.752-13.213-6.082-19.493-10.521c-6.792-4.801-13.688-9.754-22.199-10.621c-0.527-0.054-0.803-0.253-0.901-0.51
	c-6.858,0.863-12.958,2.941-16.285,10.238c-0.341,0.746-1.525,1.01-2.271,0.77c-0.103,0.021-0.204,0.035-0.304,0.035
	c-9.42-0.041-24.521-1.202-27.923-11.498c-0.241-0.222-0.445-0.411-0.593-0.549c-0.849,0.185-1.832,0.17-1.729-0.019
	c0.55-1.001,1.103-2,1.65-2.999c0.021-0.292,0.177-0.55,0.416-0.757c0.387-0.706,0.768-1.413,1.146-2.121
	c-0.235,0.028-0.492,0.06-0.782,0.097c-0.096,0.504-0.682,1.073-1.493,1.143c-8.536,0.719-16.993,2.374-25.079,5.242
	c-44.572,15.816-74.267,59.789-86.063,104.025c-2.104,7.893-4.333,17.34-1.662,25.369c3.232,9.713,13.137,12.404,22.527,11.158
	c0.263-0.034,0.523-0.08,0.786-0.117l2.452-0.976l-0.688,0.699c10.851-1.865,21.32-6.319,31.053-11.3
	c10.01-5.125,19.882-10.985,28.476-18.295c-0.08-0.264-0.025-0.551,0.179-0.79c1.58-8.841-2.79-14.979-8.315-21.472
	c-8.772,3.668-18.011,5.621-27.296,7.436c-0.542,0.381-1.805,0.525-2.368,0.462c-7.62,1.479-15.248,2.969-22.644,5.353
	c-1.733,0.56-2.11-0.973-0.408-1.521c7.7-2.481,15.663-3.97,23.607-5.502c6.285-11.627,12.397-23.479,21.171-33.468
	c0.561-0.637,2.958-0.66,2.852-0.538c-8.769,9.982-14.88,21.827-21.159,33.448c9.272-1.82,18.476-3.871,27.151-7.811
	c0.989-0.449,2.176,0.014,1.942,0.624c3.892-1.75,6.277-4.61,8.122-7.917c-0.264-0.018-0.438-0.077-0.433-0.188
	c0.213-5.037,2.271-9.469,4.226-14.035c1.396-3.264,2.523-6.885,4.944-9.585c1.044-1.164,2.399-2.063,4.035-1.992
	c1.659,0.071,1.298,2.585,0.942,4.257l0.612-0.386c3.295-2.958,6.877-5.588,10.509-8.204l3.564-3.316
	c0.091,0.246,0.179,0.477,0.265,0.707c0.924-0.238,2.19,0.041,1.612,0.758c0.244,0.043,0.451,0.143,0.576,0.315
	c0.429,0.589,0.915,1.304,1.013,2.062c0.34-0.36,0.839-0.639,1.729-0.499c0.617-0.309,1.252-0.587,1.912-0.832
	c0.314-0.117,1.775-0.584,1.959-0.025c0.515,1.575,0.566,3.007,0.217,4.396c0.057,0.044,0.105,0.096,0.168,0.133
	c0.029,0.018,0.063,0.025,0.092,0.041c1.305-0.676,2.685-1.084,4.047-0.844c2.724,0.48,2.266,2.415,1.063,4.271
	c0.061-0.006,0.117-0.021,0.177-0.024c2.063-0.175,3.009,1.165,2.92,2.923c0.021,0.007,0.035,0.012,0.035,0.012l-0.045,0.079
	c-0.012,0.181-0.022,0.361-0.058,0.55c-0.23,1.27-1.194,2.489-2.27,3.571l-0.149,0.269l-0.315,0.193
	c-0.683,0.648-1.375,1.238-1.929,1.739c-1.548,1.4-3.185,2.699-4.842,3.966c-4.382,9.521-3.96,21.22-11.718,29.01
	c-6.529,6.558-16.024,11.008-25.073,12.888c-0.026,0.024-0.044,0.049-0.074,0.075c-15.435,13.186-35.316,24.047-54.948,29.3
	c-0.804,0.215-1.628,0.415-2.463,0.603c25.29-0.438,122.714,0.778,122.714,0.778l1.724-11.993c-0.734,0.603-2.882,0.789-2.654,0.187
	c1.718-4.581,3.219-9.235,4.629-13.92l0.141-0.978l0.772-2.093c2.364-8.085,4.515-16.241,7.008-24.274
	c3.725-12.004,7.666-24.891,15.562-34.904c0.473-0.6,3.313-0.964,2.648-0.124c-1.563,1.981-2.974,4.084-4.26,6.274
	c13.568,0.418,26.412,5,39.475,8.312c5.664,1.137,11.516,2.286,15.732,3.108c5.34,0.636,10.745,0.664,15.913-0.645
	c7.393-1.873,14.198-5.898,19.759-11.1c20.375-19.059,28.55-47.736,38.704-72.866c-7.146-3.001-13.311-8.537-21.162-9.409
	C432.455,284.24,426.928,290.652,421.362,297.042z M344.469,314.509c2.229,1.34,4.519,2.579,6.904,3.708
	C349.193,317.045,346.856,315.789,344.469,314.509z M436.259,276.283h-0.388c0,0-0.989,1.281-2.672,3.437
	c0.938-1.074,1.873-2.153,2.813-3.225C436.084,276.416,436.166,276.346,436.259,276.283z M418.709,364.066
	c-1.007,0.745-2.026,1.438-3.057,2.093C416.788,365.516,417.82,364.818,418.709,364.066z M462.158,286.762
	c-0.1,0.245-0.194,0.49-0.293,0.735l0.34-0.713L462.158,286.762z"></path>
<path id="color_x5F_1" d="M306.541,278.907c-0.965-0.98,1.784-2.138,2.66-1.247c1.734,1.764,3.609,4.584,6.419,3.688
	c1.767-0.564,2.241,1.318,0.502,1.874C311.81,284.599,309.305,281.717,306.541,278.907z M330.982,267.827
	c-1.678,0.118-2.193,2.385-0.224,2.246c6.785-0.478,1.736-10.384,0.896-13.844c-0.347-1.423-3.246-0.654-2.897,0.776
	C329.028,258.124,332.41,267.728,330.982,267.827z M302.599,233.437c0.256-2.165,2.518-3.061,4.458-3.22
	c0.495-0.423,1.558-0.803,2.049-0.675c1.937,0.505,3.869,2.079,2.923,4.307c-0.938,2.206-3.379,3.267-5.68,3.193
	C304.387,236.979,302.339,235.618,302.599,233.437z M305.584,233.796c0.304,0.949,1.255,1.894,2.346,1.713
	c0.823-0.136,1.353-1.312,1.398-2.048c0.066-1.042-0.567-1.81-1.438-2.218c-0.451,0.324-1.082,0.458-1.596,0.474
	c-0.265,0.009-0.472,0.131-0.637,0.59C305.482,232.793,305.423,233.293,305.584,233.796z M325.387,230.834
	c0.257-2.165,2.394-3.084,4.34-3.269c0.032-0.04,0.063-0.08,0.105-0.119c0.499-0.458,1.384-0.723,2.049-0.549
	c1.953,0.51,3.895,2.173,2.948,4.4c-0.911,2.146-3.338,3.479-5.665,3.25C327.196,234.355,325.116,233.105,325.387,230.834z
	 M328.38,231.221c0.31,0.968,1.236,1.8,2.319,1.621c0.83-0.137,1.369-1.228,1.417-1.981c0.066-1.033-0.556-1.74-1.404-2.127
	c-0.439,0.35-1.072,0.475-1.603,0.491c-0.283,0.009-0.469,0.132-0.67,0.58C328.246,230.232,328.236,230.776,328.38,231.221z
	 M345.731,230.45c0.249-2.098,2.448-2.992,4.345-3.178c0.127-0.14,0.285-0.262,0.386-0.317c0.609-0.335,1.362-0.49,2.041-0.313
	c1.945,0.507,3.615,2.296,2.569,4.382c-1.028,2.053-3.386,3.042-5.608,2.972C347.517,233.934,345.472,232.638,345.731,230.45z
	 M348.714,230.796c0.3,0.937,1.266,1.945,2.358,1.765c0.861-0.143,1.458-1.534,1.392-2.306c-0.088-1.021-0.662-1.651-1.477-2.036
	c-0.456,0.302-1.076,0.436-1.576,0.452c-0.212,0.007-0.473,0.192-0.627,0.621C348.607,229.783,348.553,230.291,348.714,230.796z
	 M480.742,240.523c3.093,0.735,4.801,2.398,5.486,4.453c0.088-0.021,0.171-0.039,0.243-0.043c6.826-0.464,4.744,6.592,2.398,10.355
	c-1.244,1.995-4.358,5.32-7.31,5.995c-4.472,10.943-19.042,12.259-22.487,23.507c0.934,0.458,1.879,0.892,2.848,1.282
	c0.158,0.063,0.249,0.142,0.291,0.226c0.049,0.081,0.06,0.181,0.009,0.305c-0.021,0.052-0.041,0.105-0.063,0.157
	c-0.1,0.245-0.195,0.49-0.293,0.735c-5.553,13.78-10.471,27.842-17,41.208c-6.326,12.949-14.139,26.377-25.888,35.172
	c-0.089,0.065-0.179,0.125-0.27,0.19c-1.007,0.745-2.026,1.438-3.057,2.093c-10.455,6.67-22.017,8.83-34.489,7.071
	c11.977,16.375-10.81,40.185-28.111,39.168c-0.728-0.043-0.983-0.374-0.943-0.769c-13.389,0-26.778,0-40.167,0
	c-1.797,6.208-3.7,12.379-5.968,18.423c-0.037,0.099-0.113,0.19-0.217,0.274c-0.734,0.603-2.882,0.789-2.654,0.187
	c1.718-4.581,3.219-9.235,4.629-13.92c0.309-1.022,0.613-2.045,0.913-3.069c2.364-8.085,4.515-16.24,7.008-24.274
	c3.725-12.004,7.666-24.89,15.562-34.904c0.473-0.599,3.313-0.964,2.648-0.124c-1.563,1.982-2.974,4.084-4.26,6.275
	c13.568,0.416,26.412,5,39.475,8.311c1.604,0.406,3.209,0.797,4.821,1.155c3.538,0.786,7.209,1.514,10.911,1.954
	c5.34,0.635,10.745,0.664,15.913-0.646c7.393-1.873,14.198-5.897,19.759-11.099c20.375-19.06,28.55-47.737,38.704-72.867
	c-7.146-3.001-13.311-8.537-21.162-9.409c-5.567,6.343-11.096,12.755-16.66,19.145c-0.09,0.163-0.218,0.309-0.375,0.432
	c-9.826,11.274-19.775,22.465-30.279,33.036c-0.179,0.18-0.425,0.306-0.696,0.382c-0.305,0.181-0.654,0.293-1.01,0.272
	c-6.858-0.398-13.938-0.875-20.51-3.052c-4.588-1.519-8.845-3.819-13.349-5.552c-7.16-2.752-13.212-6.082-19.493-10.521
	c-6.792-4.801-13.688-9.754-22.199-10.621c-0.527-0.054-0.803-0.252-0.901-0.51c-6.858,0.863-12.958,2.942-16.284,10.238
	c-0.342,0.746-1.526,1.01-2.271,0.77c-0.104,0.021-0.204,0.035-0.304,0.035c-9.42-0.041-24.521-1.201-27.923-11.498
	c-0.071-0.215-0.146-0.428-0.206-0.649c-0.122,0.039-0.252,0.071-0.387,0.101c-0.849,0.186-1.832,0.17-1.729-0.018
	c0.55-1.001,1.103-2,1.651-2.999c0.02-0.292,0.176-0.55,0.416-0.757c0.386-0.706,0.767-1.413,1.145-2.121
	c1.392-2.612,2.711-5.25,3.82-7.973c-0.295,0.046-0.565,0.045-0.756-0.036c-3.824-1.611-6.946-4.145-9.425-7.232
	c-0.601-0.591-1.126-1.199-1.512-1.819c-0.354-0.569-0.689-1.21-1.008-1.891c-1.442-2.501-2.553-5.219-3.351-8.024
	c-0.714,0.425-1.904,0.609-2.237,0.138c-2.407-3.4-5.248-6.795-6.278-10.912c-0.239-0.089-0.327-0.255-0.137-0.515
	c-0.006-0.025-0.016-0.05-0.021-0.076c-0.086-0.426,0.386-0.798,0.972-1.017c0.14-0.155,0.271-0.32,0.415-0.472
	c-0.28-1.962-1.418-10.362-1.854-20.476c-0.186-4.3-0.094-8.981,0.465-13.637c-29.185,0-58.369,0-87.553,0
	c-0.193,0-0.336-0.019-0.456-0.046c-14.329,4.113-11.959,31.461,1.594,35.51c0.071-0.008,0.144-0.018,0.219-0.018
	c15.762,0,31.522,0,47.283,0c0.964,0,1.327,0.531,1.252,1.071c8.578,2.022,13.262,10.419,10.881,19.068
	c-1.625,5.904-5.632,9.878-10.917,11.588c0.11,0.275-1.801,1.045-2.278,1.045c-26.892,0-53.781,0-80.672,0
	c-0.033,0.408-0.365,0.815-1.106,0.965c-21.765,4.388-19.392,43.073,1.43,46.428c0.225-0.087,0.447-0.142,0.646-0.142
	c10.097,0.021,20.16,0.771,30.258,0.791c0.018,0,0.026,0.002,0.042,0.002c0.494-0.21,1.045-0.351,1.329-0.299
	c8.854,1.639,14.135,9.668,12.142,18.57c-1.534,6.857-6.329,11.597-12.788,13.023c-0.198,0.444-0.7,0.831-1.406,0.831
	c-14.723,0-29.443,0-44.164,0c-0.854,0-1.231-0.404-1.251-0.863c-21.085,5.073-17.413,43.678,2.971,47.201
	c11.651,0,23.304,0,34.955,0c0.687-4.8,1.932-9.541,3.36-14.146c2.799-9.013,6.062-17.97,10.069-26.515
	c19.431-41.418,55.713-76.826,103.104-80.819c0.948-0.08,1.271,0.327,1.185,0.788c-0.096,0.504-0.682,1.073-1.493,1.142
	c-8.537,0.719-16.994,2.374-25.08,5.243c-44.571,15.816-74.266,59.788-86.062,104.025c-2.104,7.893-4.333,17.34-1.662,25.368
	c3.232,9.713,13.137,12.404,22.527,11.159c0.263-0.035,0.523-0.08,0.786-0.118c0.59-0.085,1.179-0.175,1.766-0.275
	c10.851-1.865,21.32-6.319,31.053-11.3c10.01-5.125,19.882-10.985,28.475-18.295c-0.079-0.265-0.024-0.551,0.18-0.791
	c1.58-8.84-2.79-14.978-8.315-21.471c-8.772,3.667-18.011,5.621-27.296,7.436c-0.542,0.381-1.805,0.524-2.368,0.462
	c-7.621,1.479-15.248,2.969-22.644,5.353c-1.733,0.56-2.11-0.973-0.408-1.521c7.7-2.481,15.663-3.97,23.607-5.502
	c6.285-11.627,12.397-23.48,21.171-33.468c0.561-0.638,2.958-0.66,2.852-0.539c-8.769,9.983-14.88,21.828-21.16,33.449
	c9.273-1.82,18.477-3.871,27.152-7.811c0.989-0.449,2.176,0.014,1.942,0.624c3.892-1.75,6.277-4.61,8.121-7.917
	c-0.263-0.018-0.437-0.077-0.432-0.188c0.213-5.037,2.271-9.468,4.225-14.034c1.396-3.264,2.524-6.886,4.945-9.586
	c1.044-1.164,2.399-2.062,4.035-1.991c1.659,0.071,1.298,2.585,0.942,4.257c-0.016,0.066-0.028,0.136-0.043,0.2
	c0.216-0.199,0.438-0.39,0.655-0.585c3.294-2.958,6.876-5.588,10.509-8.204c1.093-0.787,2.188-1.573,3.282-2.368
	c0.147-0.107,0.34-0.188,0.547-0.241c0.924-0.239,2.19,0.04,1.612,0.757c0.244,0.043,0.451,0.144,0.576,0.316
	c0.428,0.589,0.915,1.303,1.012,2.061c0.021,0.153,0.029,0.308,0.014,0.463c0.554-0.347,1.126-0.666,1.716-0.961
	c0.617-0.308,1.252-0.586,1.912-0.832c0.314-0.116,1.775-0.584,1.959-0.024c0.515,1.575,0.565,3.006,0.217,4.396
	c-0.029,0.116-0.042,0.234-0.077,0.351c0.111-0.062,0.224-0.119,0.337-0.177c1.304-0.676,2.684-1.084,4.046-0.844
	c2.725,0.48,2.267,2.414,1.063,4.271c0.06-0.006,0.117-0.021,0.177-0.025c2.063-0.174,3.009,1.166,2.92,2.924
	c-0.001,0.029-0.007,0.061-0.01,0.091c-0.012,0.181-0.023,0.361-0.058,0.549c-0.23,1.271-1.194,2.49-2.27,3.572
	c-0.154,0.157-0.308,0.312-0.466,0.462c-0.683,0.648-1.375,1.238-1.929,1.739c-1.549,1.399-3.185,2.698-4.843,3.965
	c-4.381,9.521-3.96,21.22-11.717,29.01c-6.53,6.559-16.024,11.009-25.074,12.888c-0.025,0.025-0.044,0.05-0.073,0.075
	c-15.435,13.187-35.316,24.048-54.948,29.3c-0.804,0.216-1.628,0.416-2.463,0.604c-14.171,3.177-32.36,2.008-33.623-16.168
	c-0.208-2.988-0.093-5.975,0.25-8.939c-12.821,0-25.644,0-38.464,0c-1.113,0-0.943-0.527-0.395-0.983
	c-9.966-2.848-15.547-13.594-15.734-23.988c-0.215-11.814,5.58-22.069,17.369-24.819c0.254-0.197,0.598-0.33,1.01-0.33
	c14.722,0,29.442,0,44.164,0c0.332,0,0.586,0.065,0.78,0.168c14.064-2.438,13.934-25.651-0.19-28.934
	c-0.394,0.268-0.884,0.477-1.272,0.475c-8.946-0.019-17.865-0.605-26.806-0.754c-0.379,0.399-0.971,0.731-1.526,0.718
	c-26.104-0.644-28.561-45.604-3.406-50.674c0.662-0.133,1.152,0.049,1.419,0.348c0.564-0.265,1.294-0.512,1.564-0.512
	c25.829,0,51.66,0,77.49,0c0.189-0.058,0.352-0.096,0.448-0.099c8.276-0.268,13.075-9.349,12.164-16.866
	c-0.766-6.315-4.541-10.947-10.629-12.464c-15.538,0-31.076,0-46.614,0c-0.806,0-1.188-0.372-1.25-0.81
	c-8.39-1.744-12.742-10.865-12.716-19.167c0.028-8.808,4.034-16.276,12.572-18.685c0.422-0.304,1.001-0.559,1.418-0.559
	c28.875,0,57.75,0,86.624,0c1.053-7.331,3.317-14.476,7.571-19.815c7.25-9.103,18.748-1.897,18.748-1.897s-2.25-4.75,24-14.25
	s45,9,50.875,9.5c0.308,0.026,0.599,0.037,0.886,0.044c0.08-0.036,0.158-0.063,0.238-0.102c2.27-1.081,4.464-2.819,6.908-3.526
	c3.647-1.056,7.425-0.498,9.215,3.302c3.203,6.799,3.751,18.186-3.142,22.972c0.999,0.948,1.902,1.971,2.7,3.071
	c0.135-0.036,0.27-0.061,0.398-0.061c15.563,0,31.127,0,46.689,0c0.53-0.208,1.101-0.361,1.379-0.313
	c11.63,1.988,18.728,12.501,16.189,24.14c-2.245,10.295-10.44,16.981-20.771,17.576c-0.295,0.132-0.598,0.22-0.838,0.22
	c-10.491-0.015-20.972-0.476-31.462-0.525c-0.132,0.062-0.267,0.123-0.44,0.16c-11.189,2.407-9.068,21.958,2.116,22.532
	c0.254-0.328,0.679-0.576,1.238-0.582c13.766-0.132,37.646-4.466,42.455,12.886c4.096-4.711,8.18-9.421,12.274-14.108
	c0.938-1.074,1.873-2.153,2.813-3.225c0.071-0.081,0.153-0.149,0.245-0.212c0.281-0.188,0.645-0.289,1.008-0.31
	c0.078-0.109,0.176-0.221,0.314-0.336c9.082-7.523,11.98-19.159,19.048-28.193c3.029-3.874,6.639-7.234,11.055-9.483
	c3.092-1.575,6.779-2.571,9.673-4.463c1.846-1.207,3.654-2.543,5.617-3.558c2.167-1.121,5.573-2.691,7.948-1.048
	c1.45,1.003,1.128,2.523,0.096,3.771C488.453,235.76,484.627,238.463,480.742,240.523z M244.819,373.274
	c-3.001,6.708-6.259,12.585-13.299,15.427c5.244,6.258,9.157,12.229,7.765,20.671c8.485-1.933,19.129-6.448,24.04-13.513
	c5.292-7.611,5.518-17.188,9.059-25.551c-0.26-0.285-0.234-0.691,0.366-1.144c0.077-0.058,0.155-0.116,0.233-0.175
	c0.058-0.123,0.108-0.248,0.169-0.37c0.219-0.444,0.794-0.714,1.374-0.795c2.249-1.715,4.476-3.531,6.288-5.673
	c0.266-0.313,2.632-3.727,1.067-3.758c-1.221-0.023-2.551,1.2-3.276,2.052c-0.135,0.157-0.326,0.275-0.542,0.362
	c-3.041,2.854-5.911,5.888-8.858,8.84c-0.702,0.703-3.55,0.691-2.336-0.523c1.819-1.822,3.637-3.647,5.431-5.497
	c0.34-0.351,1.957-1.802,3.631-3.489c0.033-0.142,0.119-0.301,0.27-0.478c0.458-0.537,0.989-1.027,1.564-1.465
	c1.78-2.007,3.037-3.897,1.903-4.354c-1.982-0.797-6.55,4.323-7.753,5.526c-2.34,2.34-4.554,4.8-6.523,7.461
	c-0.581,0.785-3.514,0.992-2.707-0.096c2.86-3.863,6.189-7.596,9.91-10.654c-0.002-0.017-0.002-0.033,0.012-0.053
	c1.306-1.959,1.71-3.903,1.191-6.089c-5.058,2.663-8.667,8.087-11.828,12.597c-0.5,0.713-3.105,0.838-2.863,0.492
	c2.3-3.279,4.719-6.697,7.631-9.514c-0.182-0.169-0.258-0.398-0.052-0.674c0.421-0.563,1.123-1.272,1.257-1.989
	c0.137-0.742-0.29-1.349-0.708-1.926c-4.556,3.229-9.277,6.362-13.214,10.327C249.847,363.457,247.218,367.916,244.819,373.274z
	 M243.352,370.154c0.396-0.818,0.813-1.625,1.26-2.415c0.483-0.853,1.002-1.686,1.577-2.483c1.413-1.962,2.967-3.755,4.622-5.43
	c-0.666,0.096-1.266,0.032-1.203-0.289c0.214-1.121,0.696-2.609,0.489-3.827c-0.01,0.009-0.016,0.015-0.024,0.022
	c-0.146,0.205-0.291,0.41-0.438,0.614c-0.961,1.474-1.87,3.033-2.5,4.682c-0.467,1.227-0.983,2.438-1.506,3.646
	C244.844,366.495,244.041,368.31,243.352,370.154z M290.884,255.42c12.396,7.269,23.426-2.379,34.741-6.762
	c10.204-3.952,28.382,5.797,35.526-4.305c5-7.069,4.984-18.028-0.077-25.152c-8.384-11.8-25.379-13.504-38.703-13.162
	c-5.183,0.132-10.501,0.479-15.582,1.583c-4.201,0.913-8.999,1.84-13.448,3.421c-3.585,1.62-6.683,3.471-9.535,5.411
	c-0.491,0.459-0.948,0.953-1.387,1.467c0.178,0.034,0.235,0.107,0.092,0.233c-0.244,0.213-0.457,0.443-0.688,0.664
	C276.091,230.741,278.636,248.238,290.884,255.42z M305.316,262.125c10.277-2.242,19.22-9.059,29.85-10.037
	c7.854-0.723,22.287,3.279,26.259-5.442c-2.832,2.378-6.531,3.742-11.002,3.755c-7.994,0.024-17.465-3.181-25.105,0.077
	c-5.242,2.235-10.06,5.331-15.376,7.397c-21.192,8.239-36.429-11.76-33.416-30.807C270.903,243.641,286.439,266.243,305.316,262.125
	z M274.964,249.154c0.301-0.172,0.75-0.241,1.18-0.228c-1.28-2.532-2.252-5.213-2.85-7.932c-8.668,3.938-18.194,6.939-24.507,14.399
	c0.757,3.111,2.558,5.779,4.432,8.361C258.891,256.794,267.246,253.552,274.964,249.154z M279.199,275.569
	c-0.913,1.011-1.873,1.703-2.842,2.138l-0.89,1.229c-1.532,6.18-4.425,11.76-7.477,17.328c0.85,12.312,16.051,13.577,25.886,13.679
	c7.29-14.567,22.671-8.908,35.719-12.855c17.974-5.438,19.433-26.615,19.471-42.376c0.001-0.459,0.327-0.806,0.76-1.011
	c-1.682,0.194-3.328,0.245-4.839,0.172c-2.945-0.142-5.841-0.98-8.797-0.853c-5.107,0.22-9.833,1.934-14.479,3.942
	c-5.475,2.366-11.033,5.105-16.957,6.153c-7.721,1.365-15.015-0.259-20.736-4.574c0,1.971-0.108,3.898-0.71,5.854
	c-0.216,0.703-2.266,1.3-2.794,0.749c-1.647-1.717-3.558-3.738-5.805-4.694c-0.272,0.029-0.55,0.065-0.84,0.127
	c-4.64,1.003-4.994,7.946-3.854,11.995c0.476,1.112,1.06,2.162,1.728,2.958c1.278,0.908,3.044,0.826,4.354,0.579
	c0.146-0.131,0.296-0.275,0.444-0.441C277.07,275.083,279.916,274.776,279.199,275.569z M351.373,318.218
	c1.433,0.678,2.89,1.327,4.412,1.912c4.564,1.754,8.908,4.136,13.553,5.673c6.328,2.095,13.007,2.681,19.628,3.081
	c10.224-10.339,19.934-21.248,29.52-32.247c-3.27-18.383-26.86-13.598-40.246-13.47c-0.271,0.002-0.49-0.041-0.67-0.111
	c-0.372,0.292-0.855,0.505-1.308,0.485c-14.309-0.646-15.343-23.477-1.648-26.421c0.539-0.116,0.945-0.014,1.226,0.178
	c10.783,0.027,21.555,0.52,32.338,0.535c0.351,0,0.565,0.052,0.686,0.132c10.634-0.629,17.812-10.594,17.331-20.968
	c-0.415-8.947-5.687-15.732-14.096-17.981c-0.39,0.377-0.967,0.692-1.484,0.692c-15.138,0-30.272,0-45.41,0
	c2.323,4.091,3.287,9.129,2.321,15.282c-0.4,2.559-1.171,4.869-2.26,6.889c0.023,0.017,0.04,0.036,0.038,0.059
	c-0.616,7.113-7.478,10.527-14.198,11.589c0.508,0.096,0.911,0.411,0.909,0.998c-0.036,14.613-1.168,32.228-14.395,41.298
	c-5.048,3.462-11.435,4.023-17.768,4.462c5.188,1.538,9.897,4.353,14.401,7.48c3.438,2.389,6.77,4.672,10.216,6.743
	C346.697,315.849,348.986,317.088,351.373,318.218z M377.216,372.94c-0.123-0.137-0.19-0.274-0.216-0.41
	c-16.168-3.107-31.77-9.813-48.333-10.368c-5.021,9.148-8.069,19.653-10.989,29.409c-1.823,6.091-3.494,12.241-5.248,18.366
	c14.42,0,28.839,0,43.259,0c0.396,0,0.625,0.071,0.741,0.181C372.177,408.797,389.455,386.479,377.216,372.94z M479.392,258.559
	c0.377-0.032,0.699,0.019,0.838,0.201c2.425,3.178,5.887-2.916,6.834-4.919c1.045-2.212,2.39-6.698-0.528-7.437
	C487.086,251.12,483.412,257.009,479.392,258.559z M478.393,241.689c-0.588,0.272-1.172,0.53-1.748,0.77
	c0.037,0.005,0.075,0.008,0.107,0.017c6.046,1.691,3.646,10.84-1.002,14.836c0.657-0.274,1.466-0.446,1.815-0.202
	c2.65,1.852,5.691-5.521,6.025-7.409C484.333,245.519,482.314,242.658,478.393,241.689z M485.395,231.021
	c-1.819,0.941-3.508,2.058-5.218,3.176c-3.504,2.292-7.585,3.382-11.222,5.439c-14.471,8.186-16.779,26.183-28.802,36.72
	c6.134,0.928,11.22,4.332,16.614,7.243c4.339-10.125,17.853-11.566,21.993-22.114c0.056-0.141,0.178-0.267,0.335-0.378
	c-0.567-0.252-1.104-0.668-1.583-1.298c-0.243-0.318,0.143-0.678,0.697-0.932c-1.156,0.186-2.31-0.013-3.367-0.752
	c-0.032-0.023-0.051-0.049-0.058-0.079c-1.809,1.193-3.861,1.564-5.857,0.507c-2.059,2.708-4.11,5.002-4.858,5.772
	c-0.836,0.862-3.648,0.54-2.397-0.751c2.028-2.091,3.824-4.502,5.475-6.896c1.415-2.056,4.071-5.226,4.021-7.883
	c-0.025-1.343-2.385,0.573-2.912,0.949c-1.667,1.188-3.258,2.479-4.758,3.872c-2.05,1.902-4.541,3.982-5.916,6.462
	c-0.572,1.033-3.515,1.118-2.75-0.258c1.976-3.562,5.668-6.599,8.769-9.143c2.033-1.669,6.382-5.689,9.399-4.194
	c2.626,1.301,0.318,5.883-2.644,10.115c0.071,0.029,0.138,0.064,0.193,0.11c4.08,3.311,10.526-10.916,4.439-12.619
	c-0.899-0.252-0.577-0.786,0.058-1.178c-1.165-0.069-1.997-1.2-0.479-1.798c4.525-1.782,9.788-4.748,13.154-8.295
	C489.334,231.12,489.356,228.972,485.395,231.021z M423.721,398.531c-2.955,4.424-9.021,6.948-14.288,5.805
	c-5.079-1.104-8.924-6.004-7.053-11.301c2.043-5.788,8.481-7.799,14.072-8.12c0.111-0.006,0.205-0.007,0.288-0.006
	c0.106-0.007,0.201-0.006,0.271,0.012C423.182,386.53,427.83,392.377,423.721,398.531z M414.768,386.045
	c-4.934,0.424-10.161,3.426-9.921,9.056c0.144,3.343,2.037,6.516,5.299,7.684c5.414,1.94,11.77-1.788,12.146-7.737
	C422.601,390.182,419.183,387.241,414.768,386.045z M482.226,217.774c-2.566-0.558-4.707-3.006-3.933-5.752
	c0.926-3.278,4.292-4.649,7.438-4.83c0.177-0.01,0.323,0,0.458,0.019c0.085,0.002,0.166,0.011,0.24,0.031
	c3.106,0.812,5.533,3.553,3.896,6.816C488.88,216.942,485.35,218.453,482.226,217.774z M483.345,215.857
	c1.945,0.557,4.027-0.543,4.455-2.605c0.446-2.16-0.875-3.552-2.812-4.151c-1.85,0.199-3.695,1.039-3.873,3.151
	C480.989,213.751,481.807,215.418,483.345,215.857z M114.114,238.078c1.739-6.158,7.873-8.616,13.775-8.956
	c0.254-0.015,0.463,0.006,0.633,0.051c0.021,0.004,0.048,0.004,0.069,0.01c5.987,1.563,10.788,6.902,7.61,13.237
	c-2.62,5.226-8.754,8.174-14.506,6.924C116.662,248.251,112.604,243.425,114.114,238.078z M122.142,247.201
	c4.896,1.4,10.759-1.261,11.853-6.552c1.04-5.032-2.229-8.251-6.793-9.547c-4.625,0.36-9.915,2.483-10.36,7.796
	C116.539,242.479,118.524,246.167,122.142,247.201z M473.08,208.437c-0.332,1.191,2.607,0.791,2.914-0.305
	c1.945-6.968,16.12-7.405,17.428,0.208c0.196,1.139,3.104,0.424,2.898-0.776C494.571,197.385,475.507,199.75,473.08,208.437z
	 M467.498,204.251c-0.167,0.684,2.681,0.251,2.863-0.495c3.087-12.624,26.643-13.722,28.668,0.074
	c0.093,0.628,3.013,0.004,2.897-0.775C499.607,187.251,470.835,190.608,467.498,204.251z M145.403,152.419
	c3.556,1.242,6.993,2.743,10.354,4.407c0.856-0.463,2.229-0.533,2.229,0.069c0,0.358,0,0.717,0,1.075
	c5.021,2.619,9.883,5.563,14.688,8.557c0.577,0.36,0.26,0.992-0.215,1.281c-3.436,2.097-6.991,3.976-10.547,5.855
	c3.898,2.163,7.715,4.484,11.495,6.839c0.578,0.36,0.261,0.995-0.213,1.284c-4.967,3.031-10.187,5.613-15.286,8.398
	c-0.225,0.46-0.943,0.783-1.604,0.885c-3.127,1.749-6.195,3.6-9.108,5.717c-1.01,0.734-3.443,0.105-1.85-1.053
	c3.11-2.262,6.396-4.222,9.74-6.074c0-4.098,0-8.196,0-12.294c-2.959,1.67-5.862,3.435-8.627,5.441
	c-1.008,0.731-3.44,0.108-1.848-1.049c3.338-2.426,6.876-4.501,10.475-6.473c0-0.851,0-1.701,0-2.552
	c-3.463-1.75-7.01-3.324-10.683-4.607c-1.674-0.585,0.687-2.098,1.732-1.732c3.063,1.07,6.034,2.346,8.949,3.738
	c0-3.665,0-7.329,0-10.994c-3.695-1.901-7.481-3.617-11.417-4.991C141.998,153.563,144.361,152.056,145.403,152.419z
	 M157.986,171.566c0.687,0.352,1.373,0.699,2.053,1.063c3.162-1.673,6.32-3.357,9.402-5.183c-3.762-2.337-7.563-4.646-11.455-6.774
	C157.986,164.304,157.986,167.936,157.986,171.566z M157.986,188.085c4.08-2.183,8.2-4.301,12.187-6.662
	c-3.551-2.206-7.138-4.382-10.802-6.411c-0.463,0.248-0.923,0.502-1.385,0.752C157.986,179.872,157.986,183.979,157.986,188.085z
	 M279.486,269.896c-0.629-2.318-2.482-3.732-4.774-4.231c-0.683-0.149-1.422,0.004-2.035,0.329c-0.246,0.13-1.005,0.759-0.313,0.909
	c2.08,0.454,3.657,1.67,4.226,3.77C276.808,271.479,279.704,270.699,279.486,269.896z" fill="#0a1230"></path>
</svg>