<?xml version="1.0" standalone="no"?>
<svg version="1.1" id="Layer_1" xmlns="http://www.w3.org/2000/svg" xmlns:xlink="http://www.w3.org/1999/xlink" x="0px" y="0px" width="595.28px" height="595.28px" viewBox="0 0 595.28 595.28" enable-background="new 0 0 595.28 595.28" xml:space="preserve">
<path id="color_x5F_2" fill="#6c63ff" d="M434.04,263.636c-0.786-0.16-1.634-0.496-2.448-0.965c3.073-1.576,6.218-3.215,9.271-5.009
	c0.258,0.453,0.427,0.928,0.475,1.418c0.064,0.644-0.212,0.85-0.592,0.802C439.984,262.627,436.95,264.228,434.04,263.636z
	 M427.806,256.482c-0.332,1.892,0.667,3.659,2.12,4.978c3.215-1.716,6.352-3.563,9.454-5.474
	C435.81,253.095,428.571,252.113,427.806,256.482z M452.247,241.067c-3.756-1.111-9.959,6.64-6.044,9.071
	c0.513,0.319,1.076,0.474,1.655,0.513c0.523-0.41,1.035-0.84,1.519-1.317c1.407-1.39,3.232-3.218,4.735-5.205
	c-0.193-0.932-0.667-1.789-1.453-2.391C452.811,241.476,452.741,241.214,452.247,241.067z M474.156,262.266
	c-0.326,1.37,0.214,2.806,1.288,3.545c1.892-1.419,3.455-3.163,4.466-5.342c-0.182-0.827-0.653-1.464-1.53-1.647
	C476.392,258.405,474.557,260.574,474.156,262.266z M474.753,237.077c1.909-0.245,3.235-1.719,3.986-3.51
	c-0.378-1.706-0.758-3.374-1.109-4.979c-0.289-1.32-0.616-2.751-0.984-4.258c-0.975-0.694-2.122-1.099-3.319-1.064
	c-0.092-0.389-0.391-0.598-0.989-0.34C467.802,224.888,468.886,237.833,474.753,237.077z M470.999,248.837
	c-4.678-1.592-12.565,8.73-7.709,12.109c2.961,2.062,7.308-0.431,9.027-3.068c1.689-2.592,1.411-6.225-0.813-8.125
	C471.697,249.402,471.615,249.047,470.999,248.837z M436.749,283.837c-3.338-1.136-8.307,3.794-9.117,7.939
	c2.889,1.039,6.536,1.409,10.21,1.416c0.077-0.104,0.156-0.209,0.225-0.314c1.689-2.592,1.411-6.225-0.813-8.125
	C437.447,284.402,437.365,284.047,436.749,283.837z M445.289,279.696c2.961,2.062,7.308-0.431,9.027-3.068
	c0.359-0.551,0.609-1.153,0.791-1.771c-3.738,0.934-7.5,1.757-11.29,2.447C443.959,278.253,444.415,279.088,445.289,279.696z
	 M453.503,268.503c0.193-0.351,0.112-0.706-0.505-0.916c-3.451-1.174-8.643,4.134-9.182,8.356c3.884-0.693,7.741-1.522,11.566-2.489
	C455.528,271.578,454.902,269.698,453.503,268.503z M467.289,281.946c1.792,1.248,4.088,0.822,6.006-0.288
	c1.629-1.888,2.639-4.044,2.672-6.481c-0.959-1.387-2.006-2.713-3.16-3.957c-0.61-0.658,0.691-1.412,1.733-1.459
	c-0.007-0.014-0.017-0.028-0.024-0.042C469.805,268.932,462.596,278.681,467.289,281.946z M405.425,390.289
	c2.305-13.211,3.496-26.748,4.394-40.169L405.425,390.289z M493.483,329.426c-2.642-11.618-5.141-23.341-8.805-34.691
	c-1.762-5.458-3.735-11.081-6.588-16.146c-3.32,8.126-16.309,13.059-24.459,14.778c-3.487,0.735-10.757,1.907-17.753,1.753
	c-2.863-0.064-5.679-0.348-8.173-0.978c-3.865-0.977-6.951-2.779-8.226-5.858c-5.96,15.699-4.938,33.285-5.993,49.785
	c-1.261,19.732-2.474,40.014-6.562,59.416c4.419-1.823,8.671-1.734,13,0.853c6.09,3.638,13.353,8.218,20.107,3.08
	c3.205-2.438,5.808-5.2,9.868-6.125c4.092-0.933,7.878,0.7,10.865,3.438c3.181,2.916,6.143,6.129,9.836,7.131
	c1.07,0.209,2.134,0.295,3.174,0.271c1.061-0.098,2.18-0.368,3.386-0.887c4.479-1.926,8.367-4.889,12.609-7.25
	c8.414-4.684,16.621-5.427,24.995-2.272C503.384,375.466,498.581,351.847,493.483,329.426z M171.95,339.243
	c-1.044,9.392,5.704,17.696,11.959,23.938c4.693,4.684,9.807,8.853,14.925,13.037c0.642-0.246,1.452-0.259,1.821,0.104
	c0.307-12.307,1-24.594,2.291-36.834l-19.196-0.295C179.816,339.207,175.883,339.225,171.95,339.243z M200.937,324.15
	c-7.009-0.296-14.158-4.396-19.891-8.085c-0.295-0.189-0.602-0.384-0.913-0.58c-2.037,3.838-4.33,7.532-6.184,11.467
	c10.177,0,20.354,0,30.532,0c0.032-0.226,0.057-0.452,0.089-0.678c0.014-0.094,0.066-0.183,0.142-0.267
	c-1.243-0.569-2.438-1.2-3.554-1.882C201.07,324.143,200.992,324.152,200.937,324.15z M258.186,240.623
	c-0.216-0.003-0.411-0.002-0.58,0.003c0.302,5.313-0.456,12.495-4.347,16.47c-1.32,1.349-3.145,2.269-5.075,2.003
	c-1.922-0.266-3.301-1.605-4.393-3.142c-2.658,2.833-6.19,5.323-10.006,4.81c-4.327-0.583-5.869-4.086-6.297-7.9
	c-7.616,2.258-15.982,1.92-21.418-4.874c-0.369,0.106-0.684,0.222-0.931,0.345c-0.142,0.07-0.299,0.15-0.46,0.231
	c-6.039,3.7-11.104,8.881-14.97,14.811c-0.03,0.694,0.004,1.371,0.071,2.038c0.229,0.014,0.363,0.052,0.32,0.11
	c-0.084,0.114-0.172,0.229-0.258,0.345c1.038,7.763,8.368,13.547,15.46,16.244c4.446-4.637,8.303-9.807,13.002-14.208
	c0.562-0.526,3.38-0.789,2.652-0.107c-4.918,4.605-8.905,10.062-13.622,14.859c-0.173,0.177-0.581,0.325-1.031,0.423
	c-0.564,0.411-1.816,0.829-2.295,0.667c-0.294-0.1-0.59-0.206-0.886-0.316c-3.43,4.718-7.198,9.171-10.72,13.82
	c-0.013,0.018-0.033,0.033-0.049,0.05c4.865,0.688,8.584,3.921,12.489,7.777c5.596,5.525,12.047,9.236,19.129,11.938
	c0.167-0.007,0.33,0.009,0.48,0.059c4.893,1.618,10.39,2.087,15.042,4.347c2.72,1.321,2.798,3.441,1.45,5.527
	c2.761,0,5.522,0,8.283,0c-3.971-11.901-1.223-24.287,5.283-34.808c2.443-3.95,6.942-8.105,7.887-12.71
	c1.243-6.055-1.057-12.094-0.461-18.209c0.082-0.84,2.93-1.11,2.897-0.777c-0.512,5.254,1.502,10.708,0.884,15.903
	c0.354-0.009,0.631,0.063,0.703,0.263c0.521,1.447,1.495,2.645,2.645,3.645c6.926-3.248,12.598-8.081,17.842-13.566
	c-0.024-0.023-0.048-0.049-0.073-0.072c-0.151-0.148,0.241-0.435,0.776-0.674c0.252-0.269,0.507-0.533,0.758-0.805
	C277.536,257.241,272.405,243.79,258.186,240.623z M196.139,253.004l-0.419,0.537c0.307-0.273,0.619-0.541,0.933-0.808
	C196.334,252.901,196.139,253.004,196.139,253.004z M398.838,197.386c-4.632-1.622-12.808,7.875-8.051,11.184
	c2.901,2.019,7.318-0.209,9.112-2.646c1.761-2.392,1.586-5.816-0.583-7.663C399.519,197.937,399.448,197.6,398.838,197.386z
	 M450.305,197.679c2.619-1.4,3.935-4.567,2.771-7.168c0.323-0.205,0.404-0.54-0.055-0.995c-3.483-3.458-14.95,1.597-12.08,6.63
	C442.691,199.217,447.637,199.106,450.305,197.679z M410.279,234.432c3.518-0.346,5.434-4.906,5.219-7.924
	c-0.211-2.963-2.566-5.456-5.415-5.454c-0.056-0.379-0.329-0.589-0.932-0.355C404.574,222.468,404.512,235,410.279,234.432z
	 M443.325,230.946c3.225-1.619,3.107-6.629,1.608-9.398c-1.472-2.721-4.798-4.209-7.529-3.16c-0.216-0.337-0.567-0.435-1.045,0.007
	C432.729,221.748,438.039,233.603,443.325,230.946z M461.075,222.196c3.225-1.619,3.107-6.629,1.608-9.398
	c-1.472-2.721-4.798-4.209-7.529-3.16c-0.216-0.337-0.567-0.435-1.045,0.007C450.479,212.998,455.789,224.853,461.075,222.196z
	 M420.487,215.666c3.058,1.773,7.276-0.81,8.864-3.385c1.559-2.528,1.103-5.928-1.21-7.59c0.176-0.34,0.077-0.67-0.549-0.832
	C422.842,202.622,415.474,212.76,420.487,215.666z M423.29,251.636c2.911,0.592,5.944-1.009,6.707-3.754
	c0.38,0.048,0.656-0.158,0.592-0.802c-0.476-4.885-12.533-8.306-13.532-2.598C416.445,247.964,420.325,251.033,423.29,251.636z
	 M394.549,214.98c-2.661-0.932-7.357,4.522-4.625,6.423c1.667,1.16,4.203-0.119,5.234-1.52c1.011-1.373,0.911-3.34-0.334-4.401
	C394.94,215.297,394.899,215.103,394.549,214.98z M408.174,212.403c1.667,1.16,4.203-0.119,5.234-1.52
	c1.011-1.373,0.911-3.34-0.334-4.401c0.116-0.186,0.076-0.38-0.275-0.502C410.138,205.049,405.442,210.503,408.174,212.403z
	 M425.799,226.98c-2.661-0.932-7.357,4.522-4.625,6.423c1.667,1.16,4.203-0.119,5.234-1.52c1.011-1.373,0.911-3.34-0.334-4.401
	C426.19,227.297,426.149,227.103,425.799,226.98z M439.799,239.48c-2.661-0.932-7.357,4.522-4.625,6.423
	c1.667,1.16,4.203-0.119,5.234-1.52c1.011-1.373,0.911-3.34-0.334-4.401C440.19,239.797,440.149,239.603,439.799,239.48z
	 M454.299,253.48c-2.661-0.932-7.357,4.522-4.625,6.423c1.667,1.16,4.203-0.119,5.234-1.52c1.011-1.373,0.911-3.34-0.334-4.401
	C454.69,253.797,454.649,253.603,454.299,253.48z M453.424,288.153c1.667,1.16,4.203-0.119,5.234-1.52
	c1.011-1.373,0.911-3.34-0.334-4.401c0.116-0.186,0.076-0.38-0.275-0.502C455.388,280.799,450.692,286.253,453.424,288.153z
	 M439.718,205.392c1.013-1.76-0.48-4.178-1.963-5.084c-1.455-0.89-3.406-0.621-4.356,0.711c-0.195-0.1-0.385-0.043-0.477,0.317
	C432.222,204.066,438.059,208.277,439.718,205.392z M465.218,204.392c1.013-1.76-0.48-4.178-1.963-5.084
	c-1.455-0.89-3.406-0.621-4.356,0.711c-0.195-0.1-0.385-0.043-0.477,0.317C457.722,203.066,463.559,207.277,465.218,204.392z
	 M464.129,235.821c-1.987-0.416-3.822,1.753-4.224,3.444c-0.395,1.659,0.466,3.431,2.027,3.921c-0.034,0.216,0.079,0.379,0.45,0.354
	C465.196,243.358,467.388,236.503,464.129,235.821z"></path>
<path id="color_x5F_1" d="M268.095,220.679c3.2-2.548-2.803-6.762-4.179-8.965c-0.819-1.312,1.936-2.433,2.649-1.291
	c2.255,3.61,8.588,7.546,3.464,11.625C268.877,222.966,266.554,221.905,268.095,220.679z M257.016,206.702
	c-3.179,0.185-6.749,0.94-8.749,3.642c-0.427,0.577,0.36,0.929,0.812,0.952c0.704,0.035,1.479-0.241,1.906-0.817
	c1.265-1.709,3.716-1.919,5.673-2.032C258.148,208.359,259.014,206.587,257.016,206.702z M265.433,225.782
	c-0.222,0.424-0.646,0.646-1.098,0.76c-2.042,1.226-4.762,1.977-7.037,1.472c-2.938-0.652-2.528-3.307-1.275-5.414
	c0.133-0.225,0.378-0.38,0.647-0.501c0.669-0.539,1.957-0.74,2.39-0.093c1.294,1.931,3.264,2.618,5.516,2.655
	C265.16,224.671,265.75,225.178,265.433,225.782z M261.91,226.494c-1.474-0.229-2.874-0.75-4.025-1.654
	c-0.03,0.719,0.216,1.373,0.998,1.767C259.899,227.117,260.958,226.951,261.91,226.494z M389.906,327.319c0,3.486,0,6.972,0,10.457
	c0,0.661-1.324,1.094-2.182,1.096c-0.528,0.254-1.152,0.471-1.424,0.469c-3.458-0.025-6.915-0.108-10.372-0.202
	c0.005,49.692,0.218,99.385,0.223,149.077c0.836,0.107,0.442,0.657-0.207,1.066c-0.485,0.54-1.715,0.801-2.335,0.456
	c-3.132,0-6.265,0-9.397,0c-0.003,0-0.004,0-0.007,0c-0.851,0.304-1.971,0.212-1.971-0.614
	c-0.003-49.988-0.214-99.977-0.217-149.965c0-0.141,0.053-0.272,0.141-0.394c-1.482-0.032-2.965-0.048-4.448-0.067
	c0,20.676,0,41.352,0,62.027c0.531,0.436,0.362,1.426-0.778,1.83c-14.019,4.967-24.78-10.634-38.737-6.178
	c-6.213,1.984-11.685,5.72-18.156,6.945c-4.31,0.815-8.398-0.141-12.378-1.565c-4.614,9.741-15.702,14.444-22.476,22.481
	c0.818,1.99,1.637,3.981,2.462,5.969c4.206,10.13,8.446,20.248,12.809,30.312c0.036,0.037,0.073,0.072,0.102,0.117
	c0.021,0.033,0.043,0.07,0.065,0.104c0.082,0.038,0.155,0.082,0.211,0.144c7.005,7.707,16.928,20.268,14.961,31.749
	c-0.139,0.81-1.708,1.111-2.338,0.962c-12.245-2.896-34.615-11.424-30.329-27.613c-4.745-8.661-11.406-16.522-17.75-24.493
	c-6.327,4.744-12.625,9.512-18.614,14.68c0.1,0.045,0.162,0.108,0.161,0.195c-0.083,6.27-1.065,12.592-2.489,18.688
	c-0.899,3.852-2.031,12.526-5.583,15.06c-2.421,1.727-7.224-0.073-9.109-1.899c-3.202-3.102-4.326-7.614-4.492-11.961
	c-0.206-5.354,0.445-10.793,1.896-15.952c0.786-2.795,1.95-4.059-1.411-2.88c-0.995,0.349-2.146,0.738-3.219,0.667
	c-4.036-0.269,2.56-6.992,3.415-7.81c2.927-2.799,6.179-5.241,10.308-5.191c6.368-5.856,12.027-12.893,16.298-20.362
	c0.122-0.212,0.407-0.383,0.753-0.51c-4.551-8.187-7.359-17.063-6.472-27.424c-0.853-0.422-1.723-0.813-2.617-1.159
	c-7.172-2.784-14.212-2.341-21.646-0.918c-0.575,0.11-1.005-0.025-1.287-0.256c-0.149,0.007-0.289,0.002-0.408-0.017
	c0,19.257,0,38.514,0,57.771c0,0.834-1.761,1.361-2.542,0.927c-1.3,0-2.599,0-3.899,0c-0.705,0.252-1.589,0.228-1.873-0.258
	c-0.076-0.077-0.112-0.173-0.088-0.29c-0.001-0.023-0.009-0.042-0.009-0.066c0-25.133,0-50.266,0-75.398
	c0-0.273,0.191-0.514,0.474-0.699c-8.793,0.219-21.784,1.295-26.162-7.665c-3.584-7.336,1.227-11.57,7.738-11.527
	c-3.862-5.38-6.215-11.303-5.435-17.792c0.008-0.064,0.027-0.126,0.056-0.186c-1.985,0.01-3.971,0.017-5.956,0.025
	c0,49.855,0,99.711,0,149.566c0,0.856-1.858,1.391-2.604,0.892c-3.115,0-6.23,0-9.344,0c-0.637,0.228-1.418,0.229-1.774-0.13
	c-0.044-0.045-0.081-0.096-0.111-0.151c-0.05-0.096-0.085-0.202-0.085-0.333c0-3.521,0-7.042,0-10.563
	c-0.139-0.046-0.262-0.113-0.356-0.21c-8.172-8.371-10.849-20.819-19.373-28.804c-0.114,10.521,0.143,21.045,0.159,31.567
	c0,0.375-0.628,0.661-1.299,0.818c-0.408,0.241-0.905,0.43-1.25,0.43c-3.123,0-6.246,0-9.368,0c-0.585,0-0.795-0.133-0.784-0.317
	c-0.523,0.055-0.947,0.013-0.947-0.153c-0.013-10.93-0.211-21.861-0.026-32.789c-10.831,10.662-12.731,35.113-31.96,32.959
	c-0.285,0.029-0.559-0.017-0.811-0.105c-0.097-0.025-0.184-0.057-0.258-0.092c-0.179-0.085-0.294-0.195-0.35-0.321
	c-0.034-0.049-0.069-0.096-0.095-0.151c-1.162-2.475-1.667-5.631-0.197-8.092c0.392-0.656,1.104-1.027,1.88-0.914
	c0.182,0.026,0.378,0.109,0.552,0.226c17.333-7.388,15.202-36.866,34.212-40.738c0-38.301,0-76.601,0-114.902
	c-3.715-0.239-7.435-0.694-11.002-1.416c-5.805-1.174-17.209-2.411-20.355-8.523c-2.793-5.426-1.874-14.078,0.974-19.347
	c3.216-5.95,9.539-12.072,9.23-19.312c-0.241-5.646-3.284-10.537-4.354-16.001c-0.149-0.763-0.254-1.513-0.329-2.254
	c-4.566,1.529-10.559,0.172-14.462-1.895c-2.318-1.228-4.56-2.775-4.298-5.724c0.413-4.646,2.745-9.13,4.159-13.53
	c0.015-0.046,0.041-0.09,0.069-0.133c1.648-5.667,5.652-8.743,11.418-10.401c10.727-3.084,14.209-13.155,17.567-22.53
	c-0.076-0.793,0.146-1.705,0.777-2.756c0.122-0.202,0.329-0.365,0.578-0.488c1.296-2.707,9.405-2.24,11.225-2.157
	c2.479,0.112,9.797,0.44,11.345,3.581c0.156,0.14,0.256,0.331,0.261,0.588c0.223,12.523,7.845,18.525,18.429,23.464
	c0.049,0.016,0.1,0.029,0.144,0.052c8.543,4.252,4.774,17.349,3.962,25.391c0.132,0.965,0.17,1.977,0.05,3.07
	c-0.889,8.085-7.878,14.108-8.155,22.252c-0.456,13.421,13.783,22.471,7.633,36.435c-0.004,0.011-0.013,0.02-0.018,0.029
	c-0.002,0.016,0.002,0.029-0.005,0.046c-4.05,9.959-16.9,11.566-26.43,11.747c0,38.22,0,76.439,0,114.659
	c11.704,1.611,16.972,13.857,21.859,23.986c0-38.824,0-77.648,0-116.474c-3.884,0.011-7.769,0.023-11.653,0.024
	c-0.816,0-0.872-0.229-0.605-0.492c-0.521,0.041-0.943-0.049-0.943-0.309c0-3.486,0-6.972,0-10.457c0-0.71,1.523-1.155,2.36-1.087
	c0.137-0.036,0.267-0.058,0.382-0.058c10.826,0,21.651,0,32.477,0c2.014-4.188,4.503-8.11,6.614-12.248
	c0.075-0.147,0.224-0.275,0.412-0.387c-5.166-3.281-11.224-7.541-11.275-13.885c-0.108-13.275,12.479-24.02,19.895-33.924
	c-0.069-0.57-0.104-1.15-0.104-1.74c-0.302-0.016-0.489-0.075-0.425-0.178c2.59-4.115,5.741-7.838,9.343-11.05
	c0.307-0.273,0.619-0.541,0.933-0.808c2.644-2.242,5.522-4.204,8.613-5.834c-5.07-7.254-3.884-15.508,2.71-21.625
	c0.229-0.213,0.507-0.33,0.792-0.378c0.456-1.986,0.764-5.009,0.817-5.621c0.329-3.749,0.395-7.508,0.438-11.269
	c0.079-6.839,0.88-12.707,4.41-18.802c5.038-8.699,14.627-14.825,24.663-16.137c0.452-0.059,0.904-0.106,1.356-0.146
	c2.665-0.23,5.346-0.116,7.971,0.384c31.196-11.081,30.832,38.873,46.976,52.845c0.105,0.091,0.157,0.187,0.173,0.283
	c0.259,0.068,0.364,0.214,0.157,0.463c-2.251,2.706-5.212,4.661-8.276,6.349c-0.842,0.463-1.709,0.974-2.594,1.492
	c-0.129,0.088-0.253,0.178-0.385,0.266c-0.928,0.619-1.854,1.105-2.759,1.508c-1.572,0.833-3.173,1.567-4.771,1.995
	c-1.546,0.414-3.202-0.026-4.738-0.245c-3.108-0.443-6.083-0.439-9.048,0.014c-0.807,0.292-1.608,0.588-2.393,0.897
	c6.384,1.612,11.763,5.331,16.333,10.087c4.634,4.821,8.508,10.889,14.022,14.771c0.319,0.225,0.355,0.474,0.229,0.708
	c0.182,0.244,0.169,0.576-0.201,0.979c-0.246,0.268-0.493,0.531-0.74,0.796c4.21,4.264,8.184,9.076,13.227,12.349
	c5.809,3.77,12.496,5.529,18.509,8.869c11.278,6.264,21.106,15.078,33.649,18.683c0.288-0.073,0.57-0.096,0.793-0.032
	c5.988,1.701,13.145,7.199,11.999,14.318c-0.564,3.503-2.788,5.4-5.575,6.254c8.267,0,16.534,0,24.801,0
	c0.347,0,0.56,0.049,0.679,0.127C389.204,326.931,389.906,326.983,389.906,327.319z M232.189,321.604
	c2.231,1.164,4.094,2.981,5.703,4.956c0.048,0.06,0.082,0.119,0.106,0.179c2.31-2.989-1.196-3.934-3.888-4.647
	C233.472,321.922,232.831,321.765,232.189,321.604z M252.27,326.952c28.894,0,57.788,0,86.682,0
	c-1.993-1.378-3.204-3.694-2.809-6.624c0.228-1.687,0.942-2.976,1.927-3.831c-1.812-2.744-3.142-6.858-6.567-7.602
	c-3.139-0.681-6.309-1.104-9.429-1.93c-7.127-1.886-14.083-4.318-21.161-6.37c-11.695-3.391-19.646-12.084-29.148-19.179
	c-0.866,0.439-1.745,0.861-2.649,1.25c-1.109,0.478-2.259-0.287-2.098-1.04c-0.169-0.01-0.314-0.046-0.41-0.125
	c-0.628-0.517-1.215-1.103-1.727-1.745c-1.524,4.041-4.609,7.158-6.906,10.871c-6.809,11.012-10.096,23.582-5.663,36.141
	C252.333,326.826,252.313,326.889,252.27,326.952z M345.431,318.211c-0.373,0.624-0.511,1.415-0.444,2.122
	c0.169,1.777,1.034,3.452,2.506,4.257c-0.342-0.756-0.511-1.582-0.438-2.388c0.126-1.379,0.675-2.656,1.229-3.911
	c-0.782-0.438-2.031-1.045-2.536-0.522c-0.056,0.058-0.091,0.133-0.141,0.196C345.562,318.051,345.5,318.132,345.431,318.211z
	 M342.102,319.73c0.088-0.591,0.248-1.104,0.465-1.548c-0.733-0.559-1.728-1.146-2.408-0.544c-0.857,0.76-1.12,2.144-1.119,3.233
	c0.004,3.57,2.578,5.612,6.033,5.168C343.012,324.743,341.716,322.327,342.102,319.73z M346.332,326.952c0.397,0,0.795,0,1.192,0
	c-0.413-0.063-0.813-0.162-1.198-0.301C346.343,326.747,346.347,326.848,346.332,326.952z M348.992,326.952c0.192,0,0.385,0,0.578,0
	c-0.059-0.035-0.115-0.074-0.172-0.111C349.267,326.893,349.13,326.923,348.992,326.952z M353.914,326.952c0.069,0,0.138,0,0.207,0
	c-0.033-0.008-0.067-0.014-0.1-0.021c-0.017-0.004-0.028-0.01-0.044-0.015C353.954,326.927,353.935,326.941,353.914,326.952z
	 M288.613,268.402c-4.444,4.574-9.208,8.717-14.714,11.87c0.225-0.01,0.416,0.021,0.538,0.113
	c5.421,4.041,10.28,8.821,15.815,12.706c6.254,4.391,12.941,6.295,20.152,8.573c7.065,2.232,14.638,5.252,22.078,5.832
	c4.718,0.367,5.999,4.445,8.224,7.846c1.218-0.137,2.541,0.162,3.8,0.953c1.343-0.615,3.045-0.579,4.633-0.104
	c0.497-1.463,0.685-2.957-0.106-4.607c-0.324-0.677,2.484-1.64,2.897-0.777c0.983,2.052,0.221,4.249-0.626,6.407
	c0.287,0.333,0.045,0.724-0.403,1.026c-0.995,2.559-1.737,5.021,0.608,7.071c2.063,1.804,3.414-2.309,3.997-3.967
	c0.599-1.702,1.181-3.536,1.232-5.356c0.028-0.992,2.917-1.447,2.897-0.777c-0.05,1.742-0.427,3.891-1.17,5.905
	c0.65,0.284,1.238,0.398,1.972,0.398c0.34,0,1.182,0.122,0.729,0.642c-0.428,0.49-1.299,0.735-1.927,0.735
	c-0.521-0.001-1.015-0.026-1.5-0.09c-0.458,0.903-1.003,1.741-1.641,2.454c5.015,1.086,10.89-0.361,9.473-6.789
	c-1.182-5.358-5.604-8.891-10.712-10.342c-0.359-0.102-0.529-0.254-0.576-0.424c-12.618-3.342-22.143-11.948-33.371-18.185
	c-6.448-3.582-14-5.375-20.017-9.707C296.32,276.518,292.542,272.396,288.613,268.402z M213.022,202.546
	c7.581-4.434,14.914-9.382,23.174-12.484c0.181,0.434,0.396,0.854,0.661,1.25c2.542,3.795,8.125,5.285,11.087,1.334
	c1.732-2.312,1.887-5.451,1.031-8.251c2.091-0.453,4.147-1.041,6.19-1.684c0.867,2.287,2.581,4.286,4.808,5.146
	c3.663,1.412,7.128-0.887,7.081-4.739c-0.048-3.898-3.086-7.656-6.797-8.647c-0.354-0.095-0.652-0.017-0.877,0.152
	c-2.739-0.383-4.711,1.345-4.834,4.481c-0.02,0.512,0.014,1.03,0.087,1.548c-2.132,0.681-4.282,1.295-6.47,1.746
	c-0.521-1.004-1.173-1.914-1.933-2.652c-0.135-0.131-0.28-0.213-0.427-0.26c-1.87-1.99-4.494-2.391-7.11,0.033
	c-2.224,2.061-3.434,5.412-3.043,8.466c-7.957,2.984-15.07,7.598-22.348,11.907C213.167,200.769,213.073,201.654,213.022,202.546z
	 M236.936,245.065c-2.534,2.068-4.809,3.607-6.761,4.754C232.764,248.642,235.106,247.024,236.936,245.065z M230.338,251.886
	c0.258,2.926,1.248,6.985,4.54,7.111c3.162,0.12,5.806-2.49,7.717-4.931c-0.016-0.027-0.033-0.056-0.049-0.083
	c-0.208-0.365-0.028-0.709,0.317-0.977c-0.29-0.223-0.567-0.491-0.824-0.812c-1.258-1.565-2.508-3.726-3.103-5.896
	c-2.227,2.258-4.908,4.103-8.015,5.364C230.73,251.741,230.532,251.811,230.338,251.886z M245.772,253.774
	c0.889,1.522,2.164,3.424,3.803,3.649c1.404,0.193,2.786-2.969,3.179-3.954c1.393-3.492,2.058-7.285,1.989-11.048
	c-2.332,1.86-4.026,4.421-4.526,8.349c-0.087,0.685-0.973,1.116-1.75,1.15C247.784,252.95,246.813,253.596,245.772,253.774z
	 M258.111,238.247c3.368-1.492,7.074-2.689,10.457-4.401c12.026-6.086,6.859-18.761,2.889-29.284
	c-0.211-0.051-0.389-0.148-0.496-0.307c-0.72-1.068-3.086,0.629-3.501,1.447c-0.479,0.943-3.398,1.177-2.724-0.154
	c0.747-1.474,2.633-2.432,4.115-2.956c0.486-0.172,1.091-0.341,1.713-0.435c-0.469-1.293-0.897-2.543-1.243-3.727
	c-0.003-0.013-0.002-0.023-0.005-0.036l-2.98,0.542c-1.203,0.33-2.406,0.66-3.608,0.99c0.067,0.092,0.136,0.184,0.204,0.275
	c0.192,0.264-2.397,1.462-2.897,0.777c-1.354-1.854-2.764-3.678-4.118-5.538c0.569,2.072,1.139,4.146,1.708,6.218
	c0.145,0.528-2.024,1.189-2.704,0.949c-1.095,0.303-2.183,0.626-3.274,0.939l-8.326,2.974c1.148,2.553,1.305,6.087,1.762,8.718
	c0.689,3.972,1.654,8.174,1.548,12.231c-0.15,5.728-1.932,11.285-5.149,15.791c-0.062,1.915,1.014,4.143,1.9,5.76
	c0.541,0.987,1.177,2.038,2.046,2.776c0.105,0.09,0.212,0.176,0.325,0.254c0.107-0.194,0.193-0.404,0.261-0.56
	c0.164-0.375,0.728-0.649,1.317-0.789c0.861-5.988,4.241-9.12,8.521-11.372c-0.057-0.184,0.155-0.412,0.841-0.642
	C257.165,238.532,257.638,238.391,258.111,238.247z M278.734,199.789c0.607,1.742,1.259,3.419,1.941,5.022
	C280.034,203.144,279.39,201.462,278.734,199.789z M189.709,263.379c-0.03,0.694,0.004,1.371,0.071,2.038
	c0.229,0.014,0.363,0.052,0.32,0.11c-0.084,0.114-0.172,0.229-0.258,0.345c1.038,7.763,8.368,13.547,15.46,16.244
	c4.446-4.637,8.303-9.807,13.002-14.208c0.562-0.526,3.38-0.789,2.652-0.107c-4.918,4.605-8.905,10.062-13.622,14.859
	c-0.173,0.177-0.581,0.325-1.031,0.423c-0.564,0.411-1.816,0.829-2.295,0.667c-0.294-0.1-0.59-0.206-0.886-0.316
	c-3.43,4.718-7.198,9.171-10.72,13.82c-0.013,0.018-0.033,0.033-0.049,0.05c4.865,0.688,8.584,3.921,12.489,7.777
	c5.596,5.525,12.047,9.236,19.129,11.938c0.167-0.007,0.33,0.009,0.48,0.059c4.893,1.618,10.39,2.087,15.042,4.347
	c2.72,1.321,2.798,3.441,1.45,5.527c2.761,0,5.522,0,8.283,0c-3.971-11.901-1.223-24.287,5.283-34.808
	c2.443-3.95,6.942-8.105,7.887-12.71c1.243-6.055-1.057-12.094-0.461-18.209c0.082-0.84,2.93-1.11,2.897-0.777
	c-0.512,5.254,1.502,10.708,0.884,15.903c0.354-0.009,0.631,0.063,0.703,0.263c0.521,1.447,1.495,2.645,2.645,3.645
	c6.926-3.248,12.598-8.081,17.842-13.566c-0.024-0.023-0.048-0.049-0.073-0.072c-0.151-0.148,0.241-0.435,0.776-0.674
	c0.252-0.269,0.507-0.533,0.758-0.805c-10.833-7.9-15.963-21.352-30.183-24.519c-0.151-0.033-0.299-0.071-0.452-0.103
	c-0.044,0.023-0.086,0.047-0.13,0.07c0,0.012,0.001,0.023,0.001,0.035c0.302,5.313-0.456,12.495-4.347,16.47
	c-1.32,1.349-3.145,2.269-5.075,2.003c-1.922-0.266-3.301-1.605-4.393-3.142c-2.658,2.833-6.19,5.323-10.006,4.81
	c-4.327-0.583-5.869-4.086-6.297-7.9c-7.616,2.258-15.982,1.92-21.418-4.874c-0.014-0.017-0.029-0.03-0.042-0.048
	c-0.028-0.035-0.05-0.07-0.077-0.105c-0.425,0.24-0.854,0.475-1.271,0.729C198.64,252.269,193.575,257.449,189.709,263.379z
	 M182.41,314.212c5.276,3.395,11.67,7.504,18.136,8.551c0.485-0.611,1.73-1.049,2.444-0.598c2.988,1.889,6.766,3.338,10.174,4.251
	c0.423,0.113,0.621,0.31,0.665,0.536c1.842,0,3.683,0,5.525,0c-2.317-1.854-5.008-3.037-8.062-3.122
	c-0.638-0.018-1.18-0.635-0.893-1.254c0.332-0.718,1.172-0.916,1.884-0.896c4.304,0.119,7.972,2.169,11.011,5.108
	c0.056,0.055,0.096,0.109,0.131,0.164c1.477,0,2.953,0,4.429,0c-2.678-2.078-5.518-4.065-8.707-5.21
	c-1.061-0.381,1.575-1.55,2.34-1.275c3.834,1.376,7.207,3.922,10.367,6.433c0.021,0.017,0.029,0.035,0.043,0.053
	c0.881,0,1.761,0,2.642,0c-1.913-2.205-4.157-4.127-7.107-4.709c-0.641-0.126-0.744-0.755-0.316-1.182
	c0.247-0.247,0.563-0.408,0.899-0.501c-1.754-0.444-3.501-0.914-5.225-1.484c-0.461-0.152-0.648-0.393-0.657-0.655
	c-5.971-2.089-11.752-4.865-16.471-9.024c-5.432-4.788-10.623-12.554-18.919-10.905c-2.034,0.405-0.562-0.786,0.556-1.008
	c0.938-0.187,1.834-0.287,2.694-0.313c3.716-4.859,7.688-9.519,11.212-14.523c-6.015-2.684-11.913-7.461-13.79-13.706
	c-7.01,8.469-16.785,17.884-17.456,28.767C169.458,305.843,176.218,310.229,182.41,314.212z M183.909,363.181
	c4.693,4.684,9.807,8.853,14.925,13.037c0.642-0.246,1.452-0.259,1.821,0.104c0.307-12.307,1-24.594,2.291-36.834
	c0.012-0.114,0.024-0.229,0.037-0.343c-6.411,0.002-12.822,0.022-19.233,0.048c-3.933,0.015-7.867,0.032-11.8,0.051
	C170.905,348.635,177.653,356.939,183.909,363.181z M180.133,315.485c-2.037,3.838-4.33,7.532-6.184,11.467
	c10.177,0,20.354,0,30.532,0c0.032-0.226,0.057-0.452,0.089-0.678c0.014-0.094,0.066-0.183,0.142-0.267
	c-1.243-0.569-2.438-1.2-3.554-1.882c-0.088,0.017-0.167,0.026-0.222,0.024c-7.009-0.296-14.158-4.396-19.891-8.085
	C180.751,315.876,180.444,315.682,180.133,315.485z M140.378,215.573c0.678,2.169,1.119,4.408,1.501,6.341
	c1.694,8.562,2.383,17.321,2.723,26.031c0.198,5.063,0.299,10.149,0.305,15.241c2.297-5.407,6.132-10.248,6.538-16.229
	c0.023-0.341,0.021-0.668,0.019-0.994c-0.136-0.145-0.218-0.336-0.206-0.589c0.017-0.352,0.046-0.726,0.082-1.109
	c-0.784-5.462-4.902-9.138-5.816-14.874c-0.191-1.198,2.718-1.904,2.897-0.777c0.559,3.506,2.337,6.256,3.817,9.102
	c0.999-6.977,1.659-15.013-4.138-17.898c-0.045-0.022-0.075-0.048-0.112-0.071C145.214,218.453,142.657,217.091,140.378,215.573z
	 M111.117,193.878c-0.151,0.417-0.301,0.834-0.45,1.249c0.418,4.951,17.917,5.635,18.192,0.878c0.17-2.949-6.541-3.262-8.409-3.377
	c-1.945-0.119-3.906-0.147-5.848,0.049c-0.906,0.092-2.882,0.732-2.932,0.188C111.708,193.275,111.469,193.624,111.117,193.878z
	 M119.042,315.493c1.922,0.172,4.074,0.351,6.333,0.452c0.609-0.229,1.368-0.25,1.755,0.06c9.455,0.231,20.194-1.197,23.817-10.109
	c0.025-0.062,0.071-0.119,0.125-0.175c-0.062-0.144-0.063-0.323,0.037-0.551c4.606-10.459-3.173-18.35-6.509-27.327
	c-0.342,7.843-0.974,15.667-2.018,23.415c-0.127,0.946-3.042,1.485-2.893,0.381c2.405-17.864,2.823-36.199,1.959-54.188
	c-0.396-8.268-0.963-16.644-2.668-24.761c-0.783-3.729-1.659-8.596-4.179-11.82c-0.246-0.314-0.505-0.615-0.783-0.896
	c-0.25-0.252-0.51-0.493-0.789-0.714c-0.147-0.117-0.162-0.254-0.089-0.395c-1.939-2.672-3.277-5.797-3.899-9.549
	c-3.309,1.963-8.947,1.782-11.812,1.542c-2.177-0.183-5.805-0.778-8-2.258c-2.225,6.188-4.646,12.03-9.674,16.397
	c9.501,7.672,10.96,22.896,11.752,34.154c0.938,13.328,0.206,26.618,0.167,39.955c-0.003,1.054-2.913,1.633-2.909,0.32
	c0.037-12.764,0.828-25.51-0.069-38.268c-0.775-11.012-1.797-26.822-11.059-34.531c-0.379,0.262-0.757,0.523-1.163,0.771
	c-6.383,3.884-13.421,3.608-15.298,12.446c-0.054,0.252-0.254,0.468-0.524,0.639c-1.794,4.264-5.278,11.622-2.466,14.45
	c2.75,2.766,10.987,6.114,14.85,3.841c-0.219-5.337,1.479-10.18,4.495-14.938c0.466-0.735,3.125-0.895,2.865-0.484
	c-2.944,4.645-4.868,9.697-4.505,15.083c0.032,0.045,0.041,0.099,0.012,0.162c0.075,0.987,0.218,1.985,0.456,2.995
	c1.057,4.487,3.346,8.71,4.075,13.264c1.914,11.957-10.67,19.711-11.31,31.379c-0.342,6.238,0.496,12.13,7.259,14.348
	C103.815,313.022,111.239,314.795,119.042,315.493z M121.881,317.12c0,38.128,0,76.256,0,114.385c0.257-0.016,0.5-0.049,0.765-0.057
	c0.256-0.007,0.442,0.018,0.574,0.063c0.417,0,0.833,0,1.25,0c0-38.112,0-76.225,0-114.338
	C123.611,317.166,122.748,317.15,121.881,317.12z M149.241,474.485c0-4.272,0-8.546,0-12.819c-0.215-0.036-0.384-0.121-0.468-0.274
	c-5.417-9.97-10.155-26.036-22.863-28.207c-0.401,0.059-0.795,0.021-1.071-0.132c-0.956,0-1.912,0-2.868,0
	c-0.154,0.049-0.304,0.079-0.441,0.083c-11.112,0.306-15.238,13.019-19.173,21.44c-3.787,8.106-8.284,16.17-17.058,19.546
	c-0.143,0.055-0.29,0.089-0.436,0.11c-0.835,1.858-0.457,3.976,0.319,5.831c16.894,1.598,19.668-25.148,30.591-33.671
	c0.086-0.067,0.182-0.12,0.282-0.166c0.052-2.226,0.117-4.451,0.21-6.677c0.035-0.826,2.915-1.174,2.897-0.777
	c-0.592,14.036-0.264,28.084-0.245,42.126c0.003,0,0.006-0.001,0.009-0.001c2.614,0,5.227,0,7.84,0
	c-0.041-13.784-0.46-27.57,0.116-41.348c0.034-0.826,2.914-1.174,2.897-0.777c-0.105,2.524-0.168,5.049-0.215,7.573
	c0.183,0.023,0.348,0.077,0.472,0.175C139.226,453.769,142.181,465.583,149.241,474.485z M160.249,339.293
	c-2.699,0.012-5.397,0.022-8.096,0.031c0,49.624,0,99.248,0,148.873c2.699,0,5.397,0,8.096,0
	C160.249,438.563,160.249,388.929,160.249,339.293z M203.12,337.865c0.345-3.139,0.73-6.273,1.163-9.405
	c-21.782,0-43.563,0-65.345,0c0,3.105,0,6.211,0,9.316c0,0.105-0.039,0.204-0.099,0.297c3.727-0.001,7.454-0.014,11.181-0.023
	c0.622-0.272,1.453-0.326,1.87-0.004c3.074-0.01,6.148-0.02,9.222-0.032c0.58-0.229,1.307-0.269,1.721-0.008
	C176.261,337.947,189.69,337.874,203.12,337.865z M192.846,374.825c-5.823-4.592-12.273-9.854-17.011-15.814
	c-0.165,0.029-0.315,0.038-0.436,0.017c-10.664-1.882-7.493,10.925-1.011,13.664C180.164,375.132,186.62,374.948,192.846,374.825z
	 M195.356,376.812c0,24.928,0,49.856,0,74.784c0.863,0,1.726,0,2.589,0c0-24.247,0-48.493,0-72.74
	c-0.833-0.669-1.699-1.354-2.591-2.056C195.354,376.804,195.356,376.808,195.356,376.812z M223.651,463.155
	c-0.546,0.537-1.19,1.004-1.973,1.365c-2.1,0.971-4.503,0.341-5.835-1.479c-2.628-3.591-3.542-12.148-1.267-16.176
	c-0.05-0.105,0.004-0.251,0.208-0.446c-3.465-0.065-6.921,4.214-8.812,6.649c-1.405,1.811-3.257,4.23,0.116,3.008
	c1.598-0.58,3.341-1.32,5.061-0.933c0.176,0.039,0.329,0.188,0.258,0.378c-3.229,8.699-7.775,31.347,5.531,33.635
	c2.647-4.457,3.884-10.005,4.916-14.979C222.61,470.538,223.262,466.858,223.651,463.155z M244.425,440.295
	c-3.657-4.631-7.162-9.318-10.082-14.235c-4.558,7.529-10.38,14.499-16.95,20.317c0.027,0.1,0.008,0.222-0.081,0.373
	c-1.72,2.915-0.968,8.093-0.24,11.194c0.388,1.654,0.913,4.105,2.469,5.097c2.729,1.737,3.798-4.802,4.011-6.349
	c0.022-0.158,0.131-0.304,0.291-0.434c0.051-0.073,0.117-0.15,0.218-0.238c6.29-5.456,12.93-10.455,19.588-15.445
	C243.818,440.449,244.104,440.355,244.425,440.295z M283.963,468.934c0.418,2.923-0.401,5.53-4.134,6.245
	c-5.501,1.053-10.702-2.299-14.296-6.392c-0.543,12.573,16.434,19.736,27.542,22.71C293.69,483.734,289.04,475.563,283.963,468.934z
	 M264.317,429.948c-2.357-5.692-4.715-11.388-6.962-17.125c-0.533-1.36-2.013-3.88-2.454-5.869c-3.551,0.979-7.345,0.87-10.94-0.479
	c-5.2-1.952-9.592-5.386-14.345-8.163c-1.178,27.189,23.914,44.456,36.191,66.493c0.206,0.061,0.383,0.165,0.498,0.332
	c2.526,3.667,7.323,8.609,12.285,8.293c4.228-0.27,2.643-5.146,0.945-8.603c-0.304-0.077-0.554-0.238-0.675-0.514
	C273.882,452.915,269.075,441.439,264.317,429.948z M285.332,400.876c-1.005-0.397-2.005-0.808-3-1.211
	c-4.555-1.845-9.71-3.681-14.38-0.978c-3.071,1.776-5.42,4.504-8.45,6.303c-0.573,0.341-1.161,0.647-1.759,0.923
	c0.287,2.103,2.45,5.992,3.088,7.597c1.161,2.92,2.341,5.832,3.532,8.74C271.378,415.194,281.565,410.366,285.332,400.876z
	 M354.812,401.099c0-20.816,0-41.634,0-62.45c-0.478-0.031-0.361-0.237,0-0.476c0-3.221,0-6.442,0-9.664
	c0-0.017,0.007-0.032,0.009-0.049c-47.554,0-95.108,0-142.662,0c-0.199,0.035-0.395,0.038-0.578,0c-1.493,0-2.985,0-4.478,0
	c-2.905,21.246-3.726,42.664-3.767,64.095c5.828-1.054,11.63-1.644,17.501-0.42c6.243,1.301,11.67,4.896,16.943,8.29
	c4.35,2.801,9.48,5.816,14.901,5.022c0.945-0.139,1.794-0.385,2.595-0.694c0.23-0.175,0.511-0.297,0.768-0.363
	c0.039-0.01,0.082-0.016,0.122-0.023c2.348-1.119,4.244-2.85,6.443-4.566c4.354-3.398,9.389-5.484,14.972-4.179
	c7.626,1.783,15.053,7.585,23.218,5.538c6.329-1.587,11.765-5.709,18.159-7.044c5.925-1.238,11.33-0.394,16.807,2.134
	C341.931,399.095,347.983,402.712,354.812,401.099z M373.017,339.058c-2.697-0.079-5.394-0.152-8.091-0.223
	c0,0.004,0.002,0.008,0.002,0.012c0.003,49.791,0.212,99.582,0.217,149.373c0.078-0.014,0.153-0.022,0.222-0.022
	c2.625,0,5.25,0,7.874,0C373.235,438.483,373.021,388.771,373.017,339.058z M387.009,338.067c0-3.221,0-6.44,0-9.66
	c-0.128,0.032-0.251,0.053-0.36,0.053c-9.646,0-19.293,0-28.94,0c0,2.985,0,5.971,0,8.956c5.383,0.044,10.763,0.201,16.143,0.359
	c0.632-0.259,1.451-0.291,1.844,0.052C379.466,337.936,383.237,338.027,387.009,338.067z M394.609,165.141
	c-3.004-0.074-3.425-2.649-2.444-5.056c0.586-1.439-2.316-1.221-2.734-0.195c-0.625,1.535-1.068,3.29-0.321,4.867
	c0.797,1.683,2.711,2.215,4.435,2.257c0.676,0.017,1.537-0.202,1.9-0.839C395.785,165.577,395.154,165.154,394.609,165.141z
	 M405.418,167.146c0.508-0.955,3.436-1.153,2.729,0.176c-0.018,0.033-0.042,0.061-0.06,0.093c0.078,0.087,0.114,0.196,0.081,0.339
	c-0.435,1.897-1.062,4.342-3.126,5.084c-2.259,0.812-4.019-0.045-5.757-1.524c-0.279-0.238-0.052-0.549,0.374-0.807
	c0.009-0.018,0.01-0.034,0.021-0.052c0.364-0.621,1.232-0.855,1.902-0.831C403.321,169.685,404.629,168.631,405.418,167.146z
	 M404.266,171.626C404.426,171.649,404.416,171.604,404.266,171.626L404.266,171.626z M404.528,170.66
	c-0.43,0.196-0.875,0.356-1.335,0.48c0.263,0.169,0.534,0.321,0.827,0.423c0.002,0.001,0.002,0.001,0.004,0.001
	c0.007-0.011,0.018-0.021,0.024-0.031C404.238,171.259,404.392,170.964,404.528,170.66z M401.146,154.446
	c-0.372-1.167-0.465-2.311-0.466-3.529c0-1.26-2.903-0.652-2.902,0.344c0,1.363,0.054,2.653,0.471,3.963
	C398.587,156.287,401.474,155.475,401.146,154.446z M385.017,153.095c-0.436,0.205-1.204,0.898-0.702,1.43
	c0.646,0.683,0.801,1.394,0.802,2.31c0.001,0.712,0.706,0.939,1.322,0.887c0.539-0.046,1.607-0.436,1.606-1.135
	c-0.001-1.261-0.169-2.358-1.071-3.312C386.477,152.747,385.629,152.809,385.017,153.095z M392.933,147.606
	c0.844,0.313,3.043-0.745,2.547-1.303c0.239-0.11,0.462-0.241,0.626-0.422c0.742-0.815,1.199-1.446,2.296-1.172
	c0.75,0.188,1.47,0.456,2.251,0.488c0.211,0.009,0.427-0.006,0.643-0.032c0.332,0.201,0.667,0.396,1.008,0.577
	c0.922,0.493,3.562-0.806,2.282-1.488c-5.436-2.903-9.714-8.455-8.352-14.871c0.257-1.214-2.68-0.766-2.91,0.316
	c-1.138,5.361,1.39,10.186,5.316,13.539c-1.864,0.067-3.479,1.042-4.767,2.318c-6.664-3.262-7.513-10.343-7.95-17.342
	c-0.064-1.034-2.972-0.408-2.897,0.777C383.515,136.821,384.724,144.559,392.933,147.606z M517.551,399.688c0,0-0.001,0-0.001-0.001
	c-0.292-0.032-0.539-0.138-0.667-0.345c-0.004-0.007-0.007-0.014-0.012-0.02c-6.11-3.27-12.865-5.014-19.642-2.605
	c-1.953,0.694-3.788,1.598-5.572,2.593c10.701,19.556,1.059,40.354,0.397,61.046c0.099,0.029,0.185,0.07,0.256,0.123
	c0.204-0.044,0.394-0.061,0.544-0.033c9.733,1.798,4.834,13.413,3.127,19.473c-1.329,4.717-3.632,10.855-8.492,7.132
	c-5.164,6.31-12.984,9.749-22.242,8.927c-5.117-0.454-9.02-2.877-6.195-8.254c3.671-6.985,12.586-10.753,17.651-16.69
	c0.082-0.096,0.184-0.174,0.293-0.243c0.618-3.67-0.135-7.9-0.569-11.369c-0.747-5.966-1.74-11.897-2.718-17.829
	c-1.796-10.881-4.19-22.146-3.707-33.232c0.005-0.127,0.044-0.242,0.097-0.352c-2.519-0.331-4.993-1.422-7.365-3.601
	c-4.187-3.845-9.362-10.266-15.594-5.919c-0.614,0.429-1.202,0.894-1.784,1.367c4.3,9.862,4.48,21.067,4.175,31.654
	c-0.333,11.55-1.514,23.115-1.204,34.676c0.242-0.041,0.451-0.048,0.583-0.002c2.765,0.955,5.379,3.544,5.652,6.617
	c0.287,3.232-1.142,6.937-2.082,10.007c-1.137,3.715-3.758,5.354-6.531,3.576c-1.241,1.673-2.749,3.126-4.648,4.188
	c-4.469,2.501-9.573,3.166-14.583,3.772c-1.459,0.177-11.531,1.688-10.306-2.404c2.1-7.014,12.617-11.888,17.565-16.634
	c0.092-0.088,0.254-0.169,0.453-0.241c0.269-3.83-0.482-7.871-1.1-11.512c-1.226-7.229-2.866-14.378-4.481-21.526
	c-2.863-12.669-6.683-25.999-6.261-39.105c-5.118-2.911-9.3-6.39-15.704-3.237c-0.568,0.279-1.158,0.221-1.559-0.004
	c-0.847,0.193-1.74-0.018-1.569-0.807c0.617-2.843,1.166-5.707,1.668-8.585c2.305-13.211,3.496-26.748,4.394-40.169
	c0.292-4.369,0.555-8.727,0.814-13.056c1.059-17.687,0.008-36.499,7.709-52.956c0.001-0.002,0.002-0.003,0.003-0.005
	c-13.447-0.368-26.884-1.186-40.339-1.223c-1.025-0.003-0.853-0.361-0.341-0.698c-0.025-0.074-0.024-0.147-0.004-0.222
	c0.021-1.839-3.6-6.941-4.586-8.862c-3.277-6.385-6.574-12.758-9.889-19.123c-3.319-6.371-6.643-12.74-10.029-19.076
	c-1.138-2.13-2.274-4.262-3.453-6.369c-0.357-0.638-1.63-2.25-1.056-2.224c-1.018-0.101-0.478-0.817,0.297-1.265
	c-0.238-0.164-0.389-0.419-0.369-0.785c0.145-2.673,1.766-4.391,3.851-4.94c-0.585-1.148-0.48-2.46,0.849-3.756
	c2.146-2.092,5.624-2.788,8.504-2.331c0.417,0.066,0.671,0.219,0.809,0.41c0.533,0.048,1.065,0.2,1.58,0.422
	c0.491-3.492,3.062-7.232,6.844-6.287c2.631,0.657,3.536,3.617,3.626,6.022c0.131,3.485-0.361,7.209,1.214,10.442
	c0.035,0.072,0.012,0.154-0.05,0.238c1.572-0.019,3.144-0.033,4.716-0.051c0.645-8.214,1.764-17.717,6.518-24.611
	c2.101-3.046,4.831-5.589,8.56-6.41c-18.417-5.947-28.269-27.681-28.588-46.929c-1.455,6.98-0.838,14.146,3.411,19.423
	c0.948,1.178-1.803,2.341-2.649,1.289c-8.989-11.168-2.802-30.128,5.729-39.812c0.194-0.22,0.479-0.363,0.792-0.444
	c-2.379-1.823-4.125-4.675-5.082-7.309c-0.035-0.097,0.005-0.198,0.09-0.299c0.033-0.175,0.114-0.35,0.231-0.513l-0.557-0.81
	l6.839-0.33c0.008,0.014,0.015,0.027,0.023,0.041c3.156-0.292,6.308-0.627,9.459-0.962c0.039-0.036,0.072-0.07,0.124-0.108
	c10.813-8.111,25.725-7.161,37.127-0.368c12.021,7.162,19.413,19.972,29.223,29.599c9.549,9.371,22.238,15.042,29.063,27.132
	c7.274,12.886,4.37,26.365-2.961,38.546c-0.208,0.346-0.836,0.593-1.447,0.681c1.707,5.143,3.001,10.428,4.105,15.579
	c2.093,9.764,6.329,23.545,1.974,32.953c-1.271,2.744-3.485,4.838-6.062,6.487c0.042,0.041,0.083,0.083,0.114,0.134
	c1.554,2.485,2.254,4.793,2.314,6.932c3.821,5.602,6.305,12.2,8.358,18.558c3.644,11.285,6.223,22.882,8.85,34.436
	c5.434,23.897,10.371,49.335,23.298,70.531c0.141,0.076,0.282,0.143,0.423,0.222C521.179,398.834,518.606,400.277,517.551,399.688z
	 M473.926,268.683c-2.199,1.107-4.518,1.967-6.664,2.676c-4.019,1.327-8.073,2.479-12.155,3.498c-3.738,0.934-7.5,1.757-11.29,2.447
	c-4.605,0.84-9.25,1.5-13.929,2.006c0.097,0.156,0.198,0.313,0.285,0.472c0.367,0.668,0.694,1.356,1.008,2.051
	c0.113,0.25,0.223,0.502,0.338,0.752c0.049,0.107,0.208,0.292,0.069,0.198c-0.031,0.008-0.062,0.017-0.092,0.024
	c0.113,0.038,0.176,0.095,0.151,0.177c-0.001,0.004-0.001,0.006-0.002,0.009c-0.068,0.228-0.414,0.437-0.842,0.591
	c-0.417,0.339-1.287,0.704-1.74,0.702c-2.444-0.007-4.887-0.045-7.33-0.096c0.024,0.079,0.038,0.166,0.037,0.264
	c-0.063,3.796,2.334,6.056,5.861,7.323c2.889,1.039,6.536,1.409,10.21,1.416c6.186,0.012,12.448-1.014,15.3-1.651
	c6.104-1.366,15.563-4.561,20.154-9.883c1.629-1.888,2.639-4.044,2.672-6.481c-0.959-1.387-2.006-2.713-3.16-3.957
	c-0.61-0.658,0.691-1.412,1.733-1.459c-0.007-0.014-0.017-0.028-0.024-0.042C474.336,269.377,474.143,269.032,473.926,268.683z
	 M416.907,276.753c3.559,0.748,9.96,2.281,13.325,0.063c0.31-4.261-1.618-8.686-3.738-12.358c-0.334,0.087-0.675,0.092-0.948-0.03
	c-2.209-0.985-3.997-2.416-6.077-3.599c-4.688-2.665-10.353-2.223-14.558,1.035c2.349,1.465,4.939,1.383,7.658,0.73
	c1.778-0.427,2.283,1.396,0.489,1.826c-2.986,0.716-6.058,0.975-8.801-0.121c-0.08,0.026-0.144,0.056-0.235,0.08
	c-0.234,0.063-0.47,0.13-0.708,0.185c-0.117,0.425,0.125,0.74,0.877,1.107c0.995,0.486,2.014,0.895,3.111,1.096
	c1.988,0.363,3.977,0.394,5.992,0.396c1.392,0.001-1.328,1.12-1.896,1.119c-1.908-0.001-3.792-0.046-5.614-0.34
	c-0.16,1.987,2.314,2.149,3.851,2.229c1.767,0.093,3.583,0.054,5.309,0.494c0.819,0.209-1.718,1.281-2.384,1.111
	c-0.931-0.237-2.725-0.187-4.516-0.29c-0.035,0.055-0.067,0.107-0.115,0.165C405.924,274.042,415.605,276.479,416.907,276.753z
	 M426.374,279.321c0.151,0.035,0.426,0.036,0.835-0.059c-0.015,0.001-0.029,0.002-0.044,0.002
	C426.897,279.322,426.63,279.339,426.374,279.321z M395.314,117.913c1.049,2.902,2.479,5.65,3.996,8.366
	c0.653-0.185,1.311-0.474,1.969-0.858c-1.401-2.501-2.714-5.037-3.725-7.694C396.807,117.789,396.06,117.845,395.314,117.913z
	 M377.009,119.772c1.401,2.493,2.73,5.023,4.02,7.574c0.753-0.022,1.44-0.243,2.068-0.639c-1.213-2.412-2.471-4.8-3.777-7.163
	C378.55,119.623,377.779,119.698,377.009,119.772z M403.462,192.602c0.196,0.019,0.349,0.062,0.48,0.116
	c3.503-0.091,6.977-0.268,10.179-1.757c0.125-0.059,0.254-0.099,0.384-0.13c-0.423-3.84-1.428-9.059-4.43-11.191
	c-3.42-2.43-8.498,0.867-12.395,0.636c-2.201-0.13-4.138-0.662-5.987-1.943c-10.328-7.158-11.016-22.298-13.82-33.413
	c-0.036-0.143,0.007-0.281,0.097-0.41c-3.061-3.508-1.813-9.454-1.751-13.905c0.017-1.227,2.948-1.71,2.928-0.252
	c-0.066,4.736-1.901,11.76,3.408,14.31c1.053,0.506-0.168,1.462-1.285,1.676c0.061,0.287,0.122,0.58,0.184,0.885
	c0.713-0.403,1.551-0.637,2.261-0.695c1.602-0.134,3.218,0.27,4.205,1.621c0.779,1.068-2.012,2.104-2.675,1.195
	c-0.463-0.635-1.979-1.662-2.45-0.509c-0.124,0.302-0.474,0.533-0.886,0.673c2.328,11.838,6.106,31.477,19.15,29.02
	c5.053-0.951,10.066-3.007,13.42,2.094c2.012,3.06,2.748,7.231,3.063,10.83c0.086,0.982-2.56,1.573-2.864,0.881
	c-3.125,1.334-6.28,1.734-9.609,1.831c5.675,5.09,11.918,9.54,18.881,2.746c3.372-3.29,6.317-6.755,10.235-9.187
	c-9.38-2.499-18.11-15.192-12.736-24.363c0.132-0.226,0.424-0.408,0.771-0.535c-0.303-0.43,1.873-1.338,2.542-1.115
	c2.88,0.954,5.796,1.083,6.066-2.546c0.158-2.106-0.332-4.302-1.2-6.22c-0.835-1.846-1.942-3.836-3.661-5.009
	c-2.546-1.736-3.697,0.714-4.689,2.932c-0.355,0.794-1.873,1.046-2.612,0.845c-7.452-2.019-16.261-6.821-13.847-15.856
	c0.222-0.831,3.094-1.267,2.875-0.447c-2.112,7.905,4.843,12.331,11.446,14.499c3.705-6.126,10.558-4.668,13.386,2.261
	c1.23,3.013,2.162,7.089-0.245,9.78c-1.977,2.213-5.317,2.14-8.102,1.5c-0.007,0.013-0.009,0.023-0.017,0.037
	c-5.065,8.646,3.939,21.099,12.73,22.795c0.03-0.014,0.057-0.03,0.087-0.043c0.708-0.303,1.427-0.096,1.821,0.287
	c10.08-4.508,20.433-3.16,27.634,6.069c4.127,5.289,7.089,11.414,9.358,17.815c6.326-10.987,9.332-23.884,2.742-35.557
	c-5.89-10.435-15.427-15.809-24.342-23.195c-9.598-7.952-16.446-18.481-25.345-27.115c-10.171-9.869-27.141-16.748-40.015-8.16
	c7.387-0.773,14.778-1.465,22.225-1.521c1.689-0.013,1.539,1.608,0.395,2.072c0.049,0.138,0.035,0.309-0.085,0.522
	c-0.444,0.797-0.93,1.562-1.445,2.296c0,0.001,0.001,0.001,0.002,0.001c3.218,1.348,6.515,2.288,9.976,2.754
	c1.953,0.263,0.226,2.067-1.06,1.895c-3.589-0.482-7.023-1.393-10.37-2.767c-5.557,6.52-13.882,9.331-20.833,2.967
	c-1.993,2.842-4.95,4.532-8.752,4.21c-0.991-0.084-1.919-0.36-2.789-0.77c-0.044,0.072-0.097,0.147-0.166,0.226
	c-2.014,2.286-3.897,5.132-5.454,8.276c0.084,0.148,0.124,0.33,0.088,0.557C367.124,158.874,378.389,190.204,403.462,192.602z
	 M383.389,224.396c5.351-0.056,10.702-0.1,16.053-0.11c0.374-0.216,0.834-0.347,1.249-0.325c0.131-2.926,0.347-5.849,0.369-8.779
	c0.007-0.904,2.902-1.343,2.897-0.777c-0.031,4.065-0.438,8.113-0.469,12.178c-0.001,0.156-0.092,0.297-0.235,0.422
	c0.105,0.206,0.209,0.405,0.312,0.584c1.709,2.995,3.367,6.02,4.99,9.063c3.737,7.004,7.412,14.062,10.641,21.316
	c0.066,0.149,0.081,0.292,0.055,0.427c2.658,1.15,4.954,2.836,7.998,4.194c0.015,0.007,0.024,0.015,0.039,0.021
	c0.282-0.086,0.566-0.147,0.813-0.164c0.061-0.038,0.12-0.076,0.192-0.113c0.549-0.282,1.088-0.58,1.633-0.871
	c3.215-1.716,6.352-3.563,9.454-5.474c0.638-0.394,1.277-0.784,1.914-1.182c2.219-1.386,4.52-2.556,6.565-4.153
	c0.523-0.41,1.035-0.84,1.519-1.317c1.407-1.39,3.232-3.218,4.735-5.205c1.254-1.66,2.283-3.43,2.649-5.151
	c0.525-2.476-2.829-7.806-3.787-9.956c-2.346-5.266-4.862-10.46-7.929-15.349c-0.715-1.14,2.085-2.135,2.675-1.195
	c3.584,5.713,6.541,11.848,9.144,18.063c0.967,2.308,3.672,6.417,2.472,9.002c-3.774,8.129-10.827,13.626-18.474,18.12
	c-3.053,1.794-6.198,3.433-9.271,5.009c-0.703,0.361-1.402,0.719-2.095,1.074c-0.018,0.01-0.037,0.015-0.055,0.023
	c2.289,3.983,4.34,8.837,3.556,13.402c-0.019,0.108-0.082,0.205-0.175,0.292c-0.024,0.038-0.058,0.076-0.089,0.114
	c3.711-0.442,7.408-0.979,11.083-1.634c3.884-0.693,7.741-1.522,11.566-2.489c3.424-0.865,6.824-1.832,10.188-2.943
	c3.441-1.136,7.017-2.559,9.874-4.7c1.892-1.419,3.455-3.163,4.466-5.342c0.489-1.054,0.86-2.2,1.056-3.477
	c1.125-7.319-0.532-15.774-2.227-23.425c-0.378-1.706-0.758-3.374-1.109-4.979c-0.289-1.32-0.616-2.751-0.984-4.258
	c-4.446-18.223-14.908-47.929-37.657-36.346c-0.223,0.113-0.561,0.179-0.912,0.198c-7.116,3.194-10.911,12.224-18.491,14.238
	c-7.586,2.018-12.814-2.903-18.062-7.724c-0.642-0.08-1.278-0.171-1.902-0.287c-5.193,0.659-9.109,2.943-11.483,8.313
	C385.121,209.549,383.974,217.003,383.389,224.396z M357.246,220.022c0.354,0.192,0.459,0.447,0.409,0.71
	c1.478,0.873,3.157,1.769,4.846,1.949c1.488,0.159,2.948-1.243,2.76-2.835c-0.172-1.461-1.707-3.889-3.428-4.622
	c-0.31,0.165-0.671,0.25-1.035,0.192c-1.621-0.258-3.65-0.05-4.982,1.025C353.977,217.927,355.751,219.208,357.246,220.022z
	 M351.247,224.678c7.165-0.013,14.328-0.086,21.492-0.168c-1.657-4.044,0.057-8.518-1.382-12.545
	c-0.764-2.138-2.295-4.008-3.578-1.151c-0.77,1.713-1.098,3.459-0.608,5.301c0.029,0.107-0.02,0.217-0.112,0.322
	c1.108,1.581,1.47,3.553,0.249,5.171c-3.191,4.226-8.79,2.23-12.585,0.039c-1.885-0.703-3.082,0.146-3.205,2.415
	C351.505,224.299,351.401,224.505,351.247,224.678z M428.453,282.989c-0.208-0.464-0.415-0.928-0.638-1.385
	c-0.263-0.538-0.53-1.081-0.857-1.583c-0.116-0.178-0.23-0.374-0.381-0.525c-0.082-0.082-0.149-0.136-0.206-0.175c0,0,0,0,0,0l0,0
	l0,0c-0.003-0.002-0.007-0.007-0.01-0.009c-0.014,0-0.028,0-0.041,0.001c0.012,0.004,0.037,0.004,0.051,0.008
	c-0.042-0.003-0.087,0-0.128-0.006c-9.337,0.339-24.28-3.393-20.905-8.196c-1.585-0.403-2.695-1.212-2.383-2.921
	c0.048-0.266,0.496-0.498,1.022-0.649c-1.304-0.359-2.568-0.888-3.772-1.688c-0.027-0.031-0.054-0.063-0.081-0.093
	c0.116-0.93,0.858-1.675,1.712-1.975c0.3-0.105,0.621-0.185,0.943-0.246c-0.315-0.197-0.626-0.408-0.929-0.651
	c-0.381-0.306-0.474-0.807-0.07-1.167c3.27-2.92,7.499-4.875,11.985-4.645c0.657,0.034,1.274,0.108,1.866,0.211
	c-2.99-6.577-6.313-13.008-9.729-19.371c-1.503-2.802-3.015-5.602-4.592-8.363c-0.529-0.928-1.355-2.981-2.123-3.645
	c-15.684,0.02-31.366,0.333-47.049,0.387c1.392,2.031,2.698,5.543,3.236,6.547c3.465,6.471,6.869,12.974,10.259,19.483
	c3.578,6.868,7.141,13.745,10.673,20.637c1.042,2.034,4.336,6.244,4.245,8.627c0,0.008-0.008,0.015-0.009,0.022
	C396.521,281.724,412.476,282.862,428.453,282.989z M406.924,397.485c4.419-1.823,8.671-1.734,13,0.853
	c6.09,3.638,13.353,8.218,20.107,3.08c3.205-2.438,5.808-5.2,9.868-6.125c4.092-0.933,7.878,0.7,10.865,3.438
	c3.181,2.916,6.143,6.129,9.836,7.131c0.998,0.271,2.05,0.376,3.174,0.271c1.061-0.098,2.18-0.368,3.386-0.887
	c4.479-1.926,8.367-4.889,12.609-7.25c8.414-4.684,16.621-5.427,24.995-2.272c-11.382-20.259-16.185-43.878-21.283-66.299
	c-2.642-11.618-5.141-23.341-8.805-34.691c-1.762-5.458-3.735-11.081-6.588-16.146c-3.32,8.126-16.309,13.059-24.459,14.778
	c-3.487,0.735-10.757,1.907-17.753,1.753c-2.863-0.064-5.679-0.348-8.173-0.978c-3.865-0.977-6.951-2.779-8.226-5.858
	c-5.96,15.699-4.938,33.285-5.993,49.785C412.225,357.802,411.012,378.083,406.924,397.485z M448.43,468.26
	c-0.002,0.028,0.002,0.053-0.003,0.083c-0.007,0.037-0.019,0.072-0.027,0.11c0.01,0.22,0.01,0.44,0.021,0.661
	c0.012,0.233-0.129,0.44-0.348,0.616c-1.645,5.371-6.396,8.982-11.958,9.382c-0.811,0.469-2.079,0.509-2.284-0.089
	c-0.437-0.208-0.271-0.638,0.138-1.009c0.052-0.217,0.102-0.435,0.145-0.654c-3.625,3.018-7.583,5.625-10.988,8.891
	c-0.905,0.868-5.765,5.237-3.272,6.583c2.478,1.337,6.083,0.506,8.698,0.169c4.309-0.554,9.45-1.018,12.746-4.193
	c1.215-1.171,2.194-2.479,3.027-3.875c-0.052-0.129,0.049-0.279,0.245-0.427c1.115-1.963,1.961-4.086,2.719-6.266
	c0.272-0.782,3.093-1.131,2.866-0.479c-0.767,2.205-1.655,4.448-2.823,6.497c0.677,0.669,1.505,1.229,1.229,1.732
	c0.331-0.605,0.609-1.215,0.812-1.877c0.587-1.919,1.017-3.876,1.534-5.813C451.922,474.505,451.694,470.447,448.43,468.26z
	 M442.958,401.829c-1.478,1.188-3.019,2.272-4.849,2.918c-4.066,1.434-8.639,1.327-12.616-0.365
	c-0.068,13.631,4.166,27.53,7.113,40.683c1.542,6.885,3.161,13.801,4.093,20.801c0.49,3.682,1.068,7.723,0.308,11.436
	c4.43-0.499,7.576-4.126,8.479-8.511c-0.461-11.261,0.667-22.508,1.057-33.754C446.928,423.997,447.117,412.252,442.958,401.829z
	 M492.137,462.34c-1.906,6.182-8.244,16.353-15.356,12.698c-0.163-0.084-0.263-0.178-0.312-0.278
	c-2.709,2.633-5.686,4.919-8.663,7.322c-4.405,3.559-11.78,11.907-0.599,11.76c11.756-0.155,19.827-6.122,22.828-17.573
	c0.341-1.3,3.313-1.63,2.939-0.207c-0.864,3.296-2.191,6.273-3.91,8.869c0.012,0.01,0.026,0.017,0.037,0.027
	c2.932,2.905,3.342-2.49,3.978-4.69c0.726-2.511,1.808-4.989,2.342-7.546C496.25,468.766,496.393,463.812,492.137,462.34z
	 M489.131,400.789c-1.818,1.104-3.613,2.256-5.455,3.338c-3.521,2.069-7.154,3.664-10.741,3.951c0,0.024,0.006,0.044,0.005,0.068
	c-0.548,12.559,2.495,25.365,4.493,37.696c0.956,5.898,1.909,11.808,2.396,17.767c0.254,3.104,0.506,6.453-0.521,9.449
	c-0.061,0.179-0.178,0.329-0.325,0.455c0.025,0.01,0.055,0.017,0.078,0.028c4.332,2.226,8.754-6.627,10.161-10.943
	c-0.063-0.023-0.104-0.056-0.103-0.098C489.374,441.604,499.452,420.571,489.131,400.789z M154.284,137.524
	c-7.493-20.411,11.513-38.623,31.261-37.994c0.008,0,0.014,0.002,0.021,0.002c0.187-0.076,0.395-0.127,0.625-0.135
	c10.177-0.324,20.439,3.578,26.51,12.087c5.45,7.638,7.775,18.037,3.548,26.818c-2.491,5.174-6.323,8.781-10.893,12.135
	c-5.403,3.966-8.859,8.012-9.246,14.917c-0.182,3.249-0.03,6.747-2.367,9.291c-2.29,2.492-6.371,2.445-9.627,2.159
	c-2.817,0.095-5.919-0.264-7.42-2.463c-2.072-3.034-1.448-6.823-1.904-10.29C173.151,151.572,158.456,148.888,154.284,137.524z
	 M194.164,159.788c-0.259,0.081-0.482,0.134-0.603,0.134c-5.515,0-11.03,0-16.544,0c0.057,0.201,0.132,0.391,0.18,0.598
	c0.718,3.11,0.43,6.294,0.996,9.403c3.143,0,6.286,0,9.428,0c1.951,0-0.202,1.473-1.173,1.473c-2.62,0-5.239,0-7.859,0
	c0.806,2.156,2.399,3.111,4.387,3.447c0.278-0.124,0.58-0.193,0.869-0.163c0.806,0.083,1.807,0.21,2.841,0.252
	c0.4-0.029,0.804-0.063,1.211-0.105c0.332-0.034,0.577-0.011,0.759,0.047c1.62-0.192,3.062-0.815,3.657-2.409
	c0.508-1.36,0.653-2.791,0.73-4.231c0.053-0.988,0.096-2.001,0.166-3.015c-0.438,0.249-1,0.456-1.344,0.456
	c-3.625,0-7.251,0-10.877,0c-1.938,0,0.344-1.318,1.215-1.318c3.625,0,7.251,0,10.877,0c0.075,0,0.133,0.005,0.195,0.009
	C193.414,162.804,193.655,161.252,194.164,159.788z M159.146,140.594c4.633,6.925,14.6,10.308,17.561,18.296
	c0.169-0.046,0.313-0.075,0.4-0.075c5.817,0,11.634,0,17.451,0c0.032-0.071,0.055-0.145,0.088-0.215
	c4.012-8.454,14.261-11.034,18.359-19.548c8.968-18.627-7.89-38.266-27.104-37.654c-0.433,0.014-0.732-0.075-0.93-0.217
	c-0.183,0.056-0.363,0.09-0.529,0.084c-10.666-0.34-20.923,4.965-25.807,14.694C154.788,123.626,154.21,133.217,159.146,140.594z
	 M128.436,126.521c4.079,0,8.158,0,12.236,0c1.633,0,2.243-2.059,0.274-2.059c-4.079,0-8.158,0-12.236,0
	C127.078,124.462,126.467,126.521,128.436,126.521z M142.865,141.17c-3.35,2.147-6.7,4.294-10.051,6.441
	c-1.657,1.062,0.803,1.774,1.861,1.096c3.351-2.146,6.701-4.294,10.051-6.441C146.383,141.204,143.924,140.491,142.865,141.17z
	 M144.253,109.416c1.038,0.858,3.538-0.628,2.222-1.717c-3.037-2.513-6.072-5.026-9.108-7.539c-1.038-0.858-3.538,0.628-2.222,1.717
	C138.181,104.39,141.217,106.903,144.253,109.416z M229.98,126.331c4.079,0,8.157,0,12.236,0c1.106,0,3.077-1.68,1.117-1.68
	c-4.079,0-8.157,0-12.236,0C229.991,124.651,228.021,126.331,229.98,126.331z M226.196,142.245c3.35,2.147,6.7,4.294,10.051,6.441
	c0.767,0.492,3.301-0.678,2.712-1.055c-3.35-2.146-6.701-4.293-10.051-6.441C228.141,140.698,225.606,141.867,226.196,142.245z
	 M225.355,109.139c0.664-0.056,1.417-0.259,1.939-0.691c3.037-2.513,6.072-5.026,9.109-7.539c0.523-0.433-0.461-0.489-0.684-0.471
	c-0.664,0.056-1.417,0.259-1.939,0.691c-3.037,2.513-6.072,5.026-9.109,7.539C224.149,109.101,225.132,109.157,225.355,109.139z
	 M256.838,210.972c-0.532,0.143-1.447,0.761-1.164,1.451c0.315,0.771,0.631,1.542,0.946,2.313c0.283,0.693,1.057,0.856,1.733,0.675
	c0.532-0.143,1.447-0.761,1.164-1.45c-0.315-0.771-0.63-1.543-0.946-2.314C258.288,210.953,257.515,210.79,256.838,210.972z
	 M270.047,210.181c0.283,0.692,1.056,0.855,1.733,0.674c0.532-0.143,1.447-0.761,1.164-1.451c-0.315-0.771-0.63-1.543-0.946-2.314
	c-0.283-0.692-1.057-0.855-1.733-0.674c-0.532,0.143-1.446,0.761-1.164,1.451C269.417,208.638,269.731,209.409,270.047,210.181z" fill="#0a1230"></path>
</svg>