<?xml version="1.0" standalone="no"?>
<svg version="1.1" id="Layer_1" xmlns="http://www.w3.org/2000/svg" xmlns:xlink="http://www.w3.org/1999/xlink" x="0px" y="0px" width="595.275px" height="595.28px" viewBox="0 0 595.275 595.28" enable-background="new 0 0 595.275 595.28" xml:space="preserve">
<path id="color_x5F_2" fill="#6c63ff" d="M526.487,456.716c-3.449,1.656-6.57,3.152-9.199,4.41
	c-0.365,0.141-0.731,0.279-1.097,0.415c-13.774,5.085-29.845,6.695-44.43,7.261c-10.27,0.399-20.558-0.377-30.723-1.818
	l-2.876-0.575c0-8.695,0-17.39,0-26.084c24.569-6.047,48.91-13.629,74.388-14.457c1.549-0.05,2.313-1.929,0.326-1.864
	c-4.721,0.153-9.403,0.541-14.057,1.102c-1.442-18.21-4.771-36.229-9.687-53.81l-0.415-2.075l-0.588-1.422
	c-2.164-7.392-4.597-14.706-7.3-21.917c-0.476-1.269-3.356-0.448-2.897,0.776c1.02,2.721,1.995,5.458,2.939,8.206
	c-6.621,0.945-13.166,2.249-19.681,3.702c-1.556-15.789,2.804-30.587,10.29-44.538c0.161-0.3-0.782-0.338-1.638-0.151l0.5-0.375
	c0.805,0.114,1.598,0.188,2.375,0.219c0.267,0.011,0.524,0.017,0.789,0.026c5.172,0.944,10.343,1.241,16.002,0.651
	c1.883-0.196,3.884-0.525,5.923-0.981c0.242,0.046,0.557,0.04,0.955-0.066c0.802-0.213,1.586-0.208,2.35-0.056
	c0.35,0.096,0.726,0.208,1.12,0.332c3.179,1.279,5.875,5.034,7.524,7.421c4.257,6.159,7.135,13.331,9.792,20.286
	c6.149,16.096,10.507,32.895,14.51,49.632c1.429,5.973,2.769,11.967,4.089,17.964c1.829,8.312,4.326,16.596,4.683,25.141
	C540.896,444.673,534.658,451.819,526.487,456.716z M508.717,465.22c0,0,0.023-0.011,0.056-0.027
	c-0.05,0.014-0.101,0.025-0.151,0.039L508.717,465.22z M305.924,331.644c0-2.064,0-4.129,0-6.194
	c-2.44-4.049-4.848-8.118-7.211-12.215v0.579h-18.808c-1.848,0.385-3.712,0.679-5.565,0.912c0.215,0.102,0.39,0.26,0.488,0.488
	c0.718,1.668,1.372,3.36,1.997,5.063h21.888v2h-21.165c1.059,3.062,1.993,6.17,2.849,9.308c8.347,0,16.694,0,25.042,0
	C305.625,331.584,305.782,331.609,305.924,331.644z M274.231,322.276c0.58,1.577,1.217,3.328,1.891,5.205
	c-0.543-1.749-1.125-3.482-1.741-5.205H274.231z M294.767,306.323c-0.013,0.007-0.025,0.014-0.038,0.021
	c0.017,0,0.035,0,0.051,0.001C294.776,306.338,294.771,306.331,294.767,306.323z M391.217,318.72
	c-1.09,0.327-2.799,1.368-4.804,2.795c1.889-1.157,3.831-2.203,5.838-3.079C391.894,318.527,391.547,318.621,391.217,318.72z
	 M272.362,314.953c-0.176,0.019-0.353,0.039-0.528,0.057c-0.113,0.011-0.214,0.016-0.309,0.016c0.374,0.982,1.068,2.82,1.969,5.25
	h0.157c-0.544-1.439-1.109-2.871-1.719-4.287C271.754,315.577,271.976,315.21,272.362,314.953z M295.217,307.11
	c-0.008,0.007-0.011,0.012-0.02,0.019c-2.499,2.035-5.321,3.545-8.31,4.685h11.015C297.003,310.248,296.105,308.682,295.217,307.11z
	 M341.517,358.076l-6.874,5.855c0.245,0.342,0.483,0.688,0.729,1.029c0.889,1.231-1.869,2.368-2.65,1.284
	c-8.441-11.7-16.364-23.735-23.9-36.015c0,0.651,0,1.302,0,1.953c0,0.838-1.712,1.345-2.503,1.149
	c-0.26,0.255-0.642,0.436-1.121,0.436c-8.073,0-16.147,0-24.22,0c3.205,12.277,5.393,24.926,9.335,36.91
	c0.437,1.328,0.9,2.671,1.388,4.021c12.841,0,25.682,0,38.522,0c1.951,0-0.196,1.479-1.171,1.479c-12.27,0-24.539,0-36.808,0
	c1.881,5.018,4.143,10.067,6.943,14.639h16.526v2h-15.238c1.565,2.333,3.281,4.515,5.181,6.463h10.057v2h-7.936
	c5.345,4.666,11.981,7.556,20.332,7.285c0.939-0.083,1.865-0.208,2.78-0.373c0-10.812,0-21.624,0-32.436
	c0-1.089,2.897-1.624,2.897-0.776c0,10.852,0,21.703,0,32.555c2.808-0.766,5.511-1.876,8.133-3.231l10.87-7.005
	c6.092-4.554,11.927-9.652,17.908-13.663l0.958-0.857c-0.447-11.741,0.155-23.574,4.34-34.671c0.453-1.201,3.36-1.236,2.77,0.329
	c-5.25,13.922-4.75,29.26-3.606,43.86c0.57,7.274,1.759,14.954,1.849,22.484c1.546-6.201,3.084-12.381,4.411-18.544
	c1.571-7.298,3.009-14.622,4.502-21.923c0.009-0.162,0.01-0.323,0.021-0.486c0.007-0.095,0.056-0.187,0.134-0.275
	c3.828-18.668,8.066-37.183,15.925-54.753c0.293-0.656,1.429-0.951,2.176-0.782c0.185-0.447,0.326-0.784,0.417-1.003
	c-14.633-0.095-25.263,11.99-35.732,20.602C360.062,344.854,350.512,351.103,341.517,358.076z M395.865,419.699
	c-0.303-7.501-1.446-14.162-4.205-21.215c-1.864-4.765-3.732-9.438-4.826-14.283c-0.993,4.862-2.007,9.724-3.104,14.573
	c-4.998,22.093-12.295,44.617-12.545,67.446h23.532c0,0,0.049-0.334,0.135-0.931c-0.369-0.038-0.62-0.182-0.577-0.466
	C396.498,450.058,396.466,434.591,395.865,419.699z M373.541,429.04c0.186-0.805,0.369-1.61,0.56-2.414
	c-0.095-0.009-0.186-0.024-0.271-0.048C373.747,427.367,373.651,428.185,373.541,429.04z"></path>
<path id="color_x5F_1" d="M392.147,255.696c-1.86,3.588-7.712,10.831-1.251,12.979c0.943,0.313-1.664,1.418-2.364,1.186
	c-7.094-2.358-1.384-9.574,0.749-13.687C389.679,255.404,392.416,255.176,392.147,255.696z M409.162,272.546
	c0.2,3.172-0.595,7.068-4.473,7.26c-3.339,0.166-5.163-3.09-5.95-5.933c-0.189-0.035-0.377-0.063-0.567-0.103
	c-0.623-0.129-0.742-0.703-0.301-1.125c0.51-0.489,1.327-0.682,2.013-0.552c0.607-0.152,1.247-0.108,1.506,0.238
	c2.038,0.272,4.053,0.233,6.109-0.193C407.853,272.066,409.121,271.884,409.162,272.546z M406.287,274.011
	c-1.442,0.207-2.871,0.289-4.304,0.231c0.564,1.63,1.511,3.403,3.066,3.762c0.305,0.07,0.056,0.193,0.288-0.063
	c0.259-0.287,0.472-0.663,0.585-1.032C406.216,275.954,406.304,274.993,406.287,274.011z M406.514,256.155
	c0.338-1.586,0.924-3.1,1.333-4.667c0.188-0.719-0.85-0.98-1.337-0.942c-0.713,0.055-1.41,0.449-1.598,1.167
	c-0.41,1.567-0.996,3.079-1.333,4.667C403.276,257.804,406.241,257.438,406.514,256.155z M385.844,252.719
	c0.598-0.077,1.415-0.35,1.65-0.971c0.603-1.592,0.667-3.186,0.668-4.869c0-0.874-2.897-0.332-2.897,0.776
	c-0.001,1.549-0.112,3.005-0.665,4.465C384.363,252.745,385.549,252.757,385.844,252.719z M410.228,240.339
	c-1.906-0.751-3.859-1.33-5.921-1.377c-0.701-0.016-1.463,0.145-2.049,0.549c-0.443,0.306-0.39,0.716,0.195,0.729
	c1.896,0.044,3.661,0.601,5.412,1.291c0.59,0.232,1.506-0.081,2.032-0.346C410.22,241.021,410.831,240.577,410.228,240.339z
	 M390.81,237.717c-1.266,0.423-2.511,0.877-3.71,1.469c-0.443,0.218-1.176,0.801-0.721,1.358c0.434,0.53,1.412,0.403,1.947,0.139
	c0.975-0.48,1.944-0.861,2.957-1.199c0.496-0.166,1.396-0.583,1.212-1.271C392.323,237.566,391.306,237.551,390.81,237.717z
	 M542.057,442.778c-3.725,9.796-13.865,15.746-23.278,19.222c-3.269,1.207-6.612,2.264-10.006,3.193
	c-0.05,0.014-0.101,0.025-0.151,0.039c-22.547,6.147-47.479,6.379-70.147,3.09c-1.588-0.23,1.001-1.558,1.811-1.44
	c0.25,0.037,0.502,0.067,0.753,0.103c10.165,1.441,20.453,2.217,30.723,1.818c14.585-0.566,30.656-2.176,44.43-7.261
	c0.366-0.135,0.731-0.273,1.097-0.415c3.168-1.224,6.304-2.676,9.199-4.41c8.171-4.897,14.41-12.043,13.967-22.646
	c-0.357-8.545-2.854-16.83-4.683-25.141c-1.32-5.998-2.66-11.991-4.089-17.964c-4.003-16.737-8.36-33.536-14.51-49.632
	c-2.657-6.955-5.535-14.127-9.792-20.286c-1.649-2.387-4.345-6.142-7.524-7.421c-0.367-0.148-0.741-0.256-1.12-0.332
	c-0.764-0.152-1.548-0.157-2.35,0.056c-0.398,0.106-0.713,0.112-0.955,0.066c-2.039,0.456-4.04,0.785-5.923,0.981
	c-5.66,0.59-10.83,0.292-16.002-0.651c-0.264-0.009-0.522-0.015-0.789-0.026c-0.777-0.031-1.569-0.105-2.375-0.219
	c-3.553-0.503-7.36-1.801-11.215-3.718c-0.989-0.341-1.97-0.692-2.939-1.061c-4.492,6.085-6.639,13.498-11.12,19.601
	c-0.531,0.723-1.956,1.156-2.698,0.525c-4.035-3.432-9.042-8.334-11.257-13.602c-0.41,1.315-0.77,2.615-1.097,3.853
	c-1.56,5.893-2.57,11.926-4.187,17.802c0.062,0.216-0.012,0.424-0.168,0.609c-0.056,0.196-0.105,0.394-0.163,0.59
	c-0.006,0.022-0.021,0.042-0.029,0.063c0.011,0.208,0.028,0.414,0.034,0.623c0.034,1.098-2.873,1.667-2.915,0.298
	c-0.026-0.835-0.095-1.662-0.188-2.483c-0.606-1.644-0.8-3.831-1.159-5.245c-0.48-1.894-0.961-3.787-1.445-5.68
	c-0.242-0.773-0.485-1.546-0.728-2.32c-0.639,0.24-1.382,0.356-1.713,0.104c-1.629-1.24-4.652-5.326-6.543-2.381
	c-1.218,1.897-2.106,3.985-3.439,5.807c-0.27,0.369-2.741,1.265-2.776,0.439c-0.136-3.206,0.029-6.952,0.826-10.44
	c-0.227,0.08-0.448,0.128-0.629,0.126c-0.067-0.001-0.133,0.003-0.2,0.002c-14.633-0.095-25.263,11.99-35.732,20.602
	c-8.801,7.241-18.352,13.49-27.346,20.463c-2.374,1.84-4.718,3.719-6.988,5.694c0.039,0.053,0.076,0.108,0.114,0.161
	c0.245,0.342,0.483,0.688,0.729,1.029c0.889,1.231-1.869,2.368-2.65,1.284c-8.441-11.7-16.364-23.735-23.9-36.015
	c0,0.651,0,1.302,0,1.953c0,0.838-1.712,1.345-2.503,1.149c-0.26,0.255-0.642,0.436-1.121,0.436c-8.073,0-16.147,0-24.22,0
	c3.205,12.277,5.393,24.926,9.335,36.91c0.437,1.328,0.9,2.671,1.388,4.021c12.841,0,25.682,0,38.522,0
	c1.951,0-0.196,1.479-1.171,1.479c-12.27,0-24.539,0-36.808,0c1.881,5.018,4.143,10.067,6.943,14.639h16.526v2h-15.238
	c1.565,2.333,3.281,4.515,5.181,6.463h10.057v2h-7.936c5.345,4.666,11.981,7.556,20.332,7.285c0.939-0.083,1.865-0.208,2.78-0.373
	c0-10.812,0-21.624,0-32.436c0-1.089,2.897-1.624,2.897-0.776c0,10.852,0,21.703,0,32.555c2.808-0.766,5.511-1.876,8.133-3.231
	c3.761-1.944,7.359-4.381,10.87-7.005c6.092-4.554,11.927-9.652,17.908-13.663c0.074-0.049,0.147-0.102,0.221-0.15
	c0.146-0.097,0.43-0.182,0.756-0.244c-0.006-0.154-0.013-0.309-0.019-0.463c-0.447-11.741,0.155-23.574,4.34-34.671
	c0.453-1.201,3.36-1.236,2.77,0.329c-5.25,13.922-4.75,29.26-3.606,43.86c0.57,7.274,1.759,14.954,1.849,22.484
	c1.546-6.201,3.084-12.381,4.411-18.544c1.571-7.298,3.009-14.622,4.502-21.923c0.009-0.162,0.01-0.323,0.021-0.486
	c0.007-0.095,0.056-0.187,0.134-0.275c3.828-18.668,8.066-37.183,15.925-54.753c0.293-0.656,1.429-0.951,2.176-0.782
	c0.518,0.117,0.852,0.456,0.581,1.062c-7.989,17.862-12.125,36.668-15.989,55.609c-0.252,9.871,4.442,18.285,7.425,27.498
	c2.177,6.723,2.529,13.396,2.679,20.41c0.294,13.844,0.344,28.06-1.722,41.787c-0.084,0.563-1.482,0.995-2.299,0.911
	c-0.369-0.038-0.62-0.182-0.577-0.466c2.223-14.765,2.19-30.231,1.589-45.124c-0.303-7.501-1.446-14.162-4.205-21.215
	c-1.864-4.765-3.732-9.438-4.826-14.283c-0.993,4.862-2.007,9.724-3.104,14.573c-4.998,22.093-12.295,44.617-12.545,67.446
	c-0.001,0.086-0.007,0.171-0.007,0.257c-0.011,1.234-2.941,1.714-2.929,0.248c0.11-12.688,2.414-25.236,5.292-37.685
	c0.186-0.805,0.369-1.61,0.56-2.414c-0.095-0.009-0.186-0.024-0.271-0.048c-0.405-0.111-0.675-0.387-0.584-0.866
	c2.204-11.653-0.451-24.197-1.22-35.891c-0.112-1.702-0.211-3.41-0.292-5.121c-12.239,8.461-23.792,20.194-37.948,24.076
	c0,2.197,0,4.394,0,6.591c0,1.066-2.766,1.597-2.886,0.826c-0.21,0.431-0.698,0.796-1.384,0.796c-25.553,0-51.107,0-76.661,0
	c-0.821,0-1.202-0.382-1.25-0.826c-0.855,0.446-2.238,0.524-2.238-0.019c0-13.463,0-26.926,0-40.39c0-1.048,2.897-1.563,2.897-0.776
	c0,0.059,0,0.119,0,0.178c0.415-0.255,0.936-0.458,1.297-0.458c11.658,0,23.316,0,34.974,0
	c-4.563-13.283-6.929-27.345-10.598-40.931c-10.355,0-20.71,0-31.064,0c-0.677,0-1.052-0.261-1.191-0.601
	c-0.816,0.265-1.78,0.247-1.78-0.208c0-9.976,0-19.951,0-29.927c0-1.001,2.64-1.513,2.875-0.87c0.287-0.123,0.577-0.205,0.803-0.205
	c4.811,0,9.622,0,14.433,0c-0.542-0.954-1.064-1.917-1.57-2.889c-4.063-2.348-7.664-6.361-8.724-10.415l-74.083,1.925l-0.925,11.106
	l-1.993-0.166l1.075-12.894l48.422-1.257v-10.583c-11.15,0.357-22.324-2.409-32.672-8.962c-10.963-6.944-20.457-17.225-25.85-29.22
	h-48.86c0,7.168,0,14.337,0,21.505c0,0.815-1.622,1.319-2.438,1.167c-0.259,0.288-0.667,0.497-1.186,0.497
	c-19.441,0-38.883,0-58.324,0c-0.723,0-1.106-0.296-1.22-0.67c-0.81,0.255-1.751,0.231-1.751-0.217c0-17.449,0-34.898,0-52.347
	c0-1.019,2.732-1.531,2.883-0.835c0.284-0.12,0.57-0.201,0.794-0.201c19.441,0,38.883,0,58.324,0c0.424,0,0.646,0.072,0.737,0.182
	c0.858-0.435,2.181-0.495,2.181,0.078c0,9.614,0,19.228,0,28.841h48.007c-2.219-5.479-3.584-11.283-3.842-17.273
	c-0.268-6.215,0.62-12.057,2.431-17.498l-32.839-28.556c-9.236,0-18.472,0-27.708,0c-0.71,0-1.091-0.287-1.213-0.651
	c-0.812,0.258-1.759,0.236-1.759-0.214c0-15.456,0-30.912,0-46.368c0-1.014,2.706-1.525,2.881-0.845
	c0.285-0.121,0.572-0.202,0.797-0.202c19.441,0,38.883,0,58.324,0c0.434,0,0.657,0.076,0.743,0.189
	c0.858-0.432,2.175-0.491,2.175,0.081c0,15.456,0,30.912,0,46.368c0,0.821-1.646,1.326-2.457,1.162
	c-0.26,0.279-0.66,0.48-1.167,0.48c-9.189,0-18.379,0-27.568,0l30.516,26.536c4.837-12.666,14.73-23.041,26.709-30.684
	c0.328-0.209,1.501-0.398,2.13-0.349c22.314-9.167,48.936-11.834,69.97,2.06c7.649,5.053,13.978,11.902,18.408,19.765h27.029
	c0-9.521,0-19.042,0-28.563c0-1.014,2.706-1.525,2.881-0.845c0.285-0.121,0.572-0.202,0.797-0.202c19.441,0,38.883,0,58.324,0
	c0.434,0,0.657,0.076,0.743,0.189c0.858-0.432,2.175-0.491,2.175,0.081c0,15.456,0,30.912,0,46.368c0,0.821-1.646,1.326-2.457,1.162
	c-0.26,0.279-0.66,0.48-1.167,0.48c-19.441,0-38.883,0-58.324,0c-0.71,0-1.091-0.287-1.213-0.651
	c-0.812,0.258-1.759,0.236-1.759-0.214c0-5.269,0-10.537,0-15.805h-25.95c5.053,9.877,7.153,21.193,5.21,32.5
	c-1.801,10.483-6.706,19.868-13.553,27.677c1.39,1.602,2.565,3.127,3.388,4.121c3.108,3.754,6.038,7.646,8.99,11.522
	c1.572,2.063,3.197,4.908,5.366,6.417c0.058,0.04,0.099,0.082,0.14,0.123c2.734-0.241,5.378,0.25,7.597,1.811
	c7.166,5.038,3.205,17.9-0.797,25.186c2.371,0,4.742,0,7.113,0c0.46,0,0.687,0.084,0.76,0.21c0.858-0.425,2.158-0.479,2.158,0.088
	c0,7.44,0,14.881,0,22.321c1.191,1.973,2.391,3.94,3.601,5.9c1.107,1.792,2.213,3.585,3.337,5.367
	c5.675,8.994,11.588,17.836,17.764,26.509c12.638-10.767,26.753-19.614,39.34-30.499c4.258-3.682,8.727-7.386,13.549-10.338
	c1.889-1.157,3.831-2.203,5.838-3.079c4.199-1.832,8.68-2.941,13.519-2.904c1.315-4.627,3.883-8.58,8.543-9.858
	c-0.221-0.701-0.436-1.404-0.668-2.101c-0.54-1.621-1.06-3.291-1.82-4.826c-1.64-3.31-6.415-2.057-9.391-2.163
	c-11.771-0.419-20.628-11.721-22.528-22.641c-0.513,0.073-1.001-0.03-1.193-0.397c-8.046-15.393-7.215-38.798,3.506-52.833
	c5.705-7.467,13.562-13.346,22.979-14.938c2.785-0.471,5.766-0.815,8.775-0.896c0.419-0.054,0.836-0.107,1.244-0.158
	c0.787-0.099,1.712,0.001,2.687,0.218c3.837,0.224,7.601,0.971,10.941,2.547c0.27,0.127,0.378,0.286,0.377,0.453
	c11.41-3.664,22.54-1.396,30.036,9.518c8.446,12.296,11.621,27.56,14.548,41.999c2.386,2.098,4.412,1.766,4.412,1.766
	s1.619,0,3.776,0.083c1.465-0.233,2.93-0.471,4.443-0.478c5.219-0.021,10.584,2.004,14.953,4.81
	c7.316,4.699,14.422,11.979,17.365,20.325c4.799,13.61-6.242,22.071-18.133,26.018c6.409,1.449,10.777,9.514,13.5,14.899
	c13.341,26.379,18.732,56.439,25.374,85.003C541.712,421.412,545.738,433.096,542.057,442.778z M311.296,190.601h0.417v2h-0.417
	c0,4.839,0,9.678,0,14.518c0.1-0.018,0.205-0.028,0.315-0.028c19.441,0,38.883,0,58.324,0c0.186,0,0.343,0.025,0.485,0.06
	c0-15.026,0-30.052,0-45.078c-0.396,0.225-0.86,0.397-1.191,0.397c-19.311,0-38.623,0-57.934,0
	C311.296,171.847,311.296,181.224,311.296,190.601z M103.123,171.092c8.97,0,17.94,0,26.91,0l0.472-0.542l0.624,0.542
	c10.106,0,20.212,0,30.318,0c0.186,0,0.343,0.025,0.485,0.06c0-15.026,0-30.052,0-45.078c-0.396,0.225-0.86,0.397-1.191,0.397
	c-19.311,0-38.623,0-57.934,0c0,14.883,0,29.766,0,44.648C102.907,171.103,103.012,171.092,103.123,171.092z M113.449,259.588
	c0.186,0,0.343,0.025,0.485,0.06c0-17.022,0-34.045,0-51.067c-0.395,0.225-0.86,0.397-1.191,0.397c-19.311,0-38.623,0-57.934,0
	c0,16.879,0,33.759,0,50.638c0.1-0.018,0.205-0.028,0.315-0.028C74.566,259.588,94.008,259.588,113.449,259.588z M297.932,303.435
	c-0.182,0.295-0.362,0.582-0.54,0.848c-0.081,0.121-0.228,0.229-0.407,0.323c0.16,0.079,0.296,0.192,0.387,0.354
	c2.798,4.963,5.649,9.894,8.552,14.792c0-5.571,0-11.143,0-16.714c-0.396,0.225-0.86,0.397-1.191,0.397
	C302.466,303.435,300.199,303.435,297.932,303.435z M294.703,304.253c0.172-0.257,0.345-0.538,0.518-0.818
	c-9.662,0-19.324,0-28.986,0c1.738,2.874,3.618,5.663,5.589,8.379h10.578c3.804-1.021,7.427-2.574,10.496-5.073
	c0.326-0.265,1.186-0.423,1.832-0.396c0.017,0,0.035,0,0.051,0.001c-0.004-0.008-0.009-0.016-0.013-0.023
	c-0.015-0.027-0.03-0.053-0.045-0.08c-0.287-0.509-0.066-0.982,0.352-1.311C294.661,304.861,294.438,304.651,294.703,304.253z
	 M286.887,311.813h11.015c-0.899-1.565-1.797-3.131-2.685-4.703c-0.008,0.007-0.011,0.012-0.02,0.019
	C292.699,309.164,289.876,310.674,286.887,311.813z M272.287,254.775c-1.899,1.993-3.928,3.872-6.067,5.627
	c0.5,0.734,1.016,1.458,1.538,2.173c3.27,4.479,7.13,8.547,10.294,13.092c0.766,1.101-2.026,2.129-2.674,1.2
	c-0.859-1.234-2.901-3.546-5.272-6.375c-1.129,0.172-2.021,0.551-2.69,1.103c-0.056,0.137-0.201,0.281-0.453,0.425
	c-3.703,4.104,1.405,14.713,6.619,17.927c0.525-4.461-0.825-8.617-2.982-12.624c-0.454-0.843,2.354-1.788,2.897-0.776
	c1.257,2.336,2.228,4.731,2.733,7.199c2.735-3.414,7.48-6.729,12.37-8.138c-3.599-3.007-6.292-8.02-9.053-11.586
	C277.32,261.144,274.951,257.772,272.287,254.775z M268.599,290.452c0.042-0.203,0.204-0.382,0.426-0.532
	c-4.574-3.901-7.228-11.239-5.343-16.181c-4.15,2.761-6.317,7.182-3.022,12.166C261.568,287.277,267.835,294.167,268.599,290.452z
	 M271.101,253.491c-1.819-1.896-3.777-3.575-5.921-4.78c-3.84-2.158-4.041,1.779-2.934,4.52c0.834,2.066,1.921,4.02,3.129,5.896
	C267.405,257.362,269.322,255.482,271.101,253.491z M224.213,275.848v-0.747h2v0.742c5.329-0.097,10.646-1.01,15.769-2.934
	c7.412-2.784,14.644-6.747,20.971-11.761c-4.34-6.555-6.69-13.006-0.466-15.063c3.417-1.129,7.285,1.99,10.394,5.325
	c0.084-0.104,0.173-0.203,0.257-0.307c10.395-12.956,14.936-30.001,10.773-46.278c-1.091-4.267-2.703-8.365-4.742-12.225h-1.456v-2
	h0.354c-5.347-9.2-13.262-16.85-22.897-21.686c-20.043-10.06-42.884-7.428-62.896,1.331c-0.203,0.089-0.565,0.151-0.941,0.18
	c-17.198,11.605-30.005,29.821-27.145,51.474c2.575,19.484,15.49,37.177,32.726,46.463
	C205.296,272.878,214.737,275.651,224.213,275.848z M256.459,278.865c1.409-4.051,5.219-6.292,9.019-7.851
	c0.005-0.002,0.011-0.003,0.017-0.005c0.887-0.836,2.039-1.482,3.484-1.874c-1.744-2.117-3.585-4.45-5.223-6.806
	c-2.048,1.533-4.172,2.97-6.376,4.279c-9.815,5.827-20.456,9.375-31.166,10.076v10.63l25.193-0.654
	C251.285,283.73,252.706,280.925,256.459,278.865z M259.072,294.636c0.761-0.442,2.151-0.687,2.424-0.089
	c0.44,0.963,0.906,1.915,1.385,2.86c0.366,0.208,0.729,0.393,1.086,0.562c0.338-1.335-0.123-2.468-0.702-3.979
	c-0.288-0.75,0.529-1.335,1.378-1.45c-2.365-1.014-4.659-2.808-5.669-4.105c-1.437-1.845-2.709-4.194-2.899-6.6
	C252.034,285.476,254.909,290.879,259.072,294.636z M265.352,301.956c10.243,0,20.485,0,30.729,0
	c3.159-5.801,5.954-14.77,3.857-20.451c-2.279-6.172-10.298-5.344-14.963-2.685c-2.088,1.19-4.273,2.604-5.772,4.536
	c-2.84,3.659,8.717-0.208,8.621-0.158c0.913-0.479,3.511-0.102,1.783,0.805c-4.169,2.186-8.511,2.888-13.067,1.852
	c0.166,1.815,0.066,3.67-0.374,5.57c-0.197,0.849-1.632,1.125-2.333,0.979c-0.956-0.199-1.879-0.556-2.756-1.042
	c-0.95,2.002-2.904,2.263-5,1.685c0.032,0.052,0.065,0.104,0.088,0.164c0.999,2.607,1.499,4.074-0.058,6.573
	c-0.334,0.536-0.881,0.845-1.476,0.891C264.869,301.104,265.106,301.532,265.352,301.956z M277.335,331.584
	c-0.388-1.374-0.791-2.742-1.213-4.103c-0.543-1.749-1.125-3.482-1.741-5.205h-0.15h-20.846v-2h20.108h0.157
	c-0.544-1.439-1.109-2.871-1.719-4.287c-0.178-0.413,0.044-0.78,0.43-1.037c-0.176,0.019-0.353,0.039-0.528,0.057
	c-0.113,0.011-0.214,0.016-0.309,0.016c-0.768,0.007-0.92-0.315-0.726-0.664c-0.347,0.015-0.64-0.049-0.772-0.228
	c-0.079-0.106-0.155-0.215-0.234-0.321h-16.407v-2h14.954c-1.935-2.715-3.772-5.507-5.471-8.379c-5.356,0-10.713,0-16.07,0
	c0,9.393,0,18.785,0,28.178c0.1-0.018,0.205-0.028,0.315-0.028C257.188,331.584,267.262,331.584,277.335,331.584z M330.889,409.447
	c-0.508,0.097-1.021,0.18-1.536,0.256c-0.176,0.471-0.702,0.914-1.44,0.939c-10.028,0.347-17.87-3.409-24.028-9.366h-41.499v-2
	h39.555c-1.792-1.98-3.424-4.156-4.918-6.463h-34.637v-2h33.392c-2.661-4.476-4.838-9.373-6.626-14.323
	c-0.038-0.105-0.071-0.211-0.108-0.316c-12.217,0-24.435,0-36.652,0c-0.048,0-0.083-0.005-0.126-0.006c0,12.951,0,25.901,0,38.852
	c0.229-0.131,0.508-0.214,0.832-0.214c25.554,0,51.107,0,76.661,0c0.593,0,0.956,0.201,1.131,0.479
	C330.889,413.339,330.889,411.393,330.889,409.447z M305.924,325.45c-2.44-4.049-4.848-8.118-7.211-12.215v0.579h-18.808
	c-1.848,0.385-3.712,0.679-5.565,0.912c0.215,0.102,0.39,0.26,0.488,0.488c0.718,1.668,1.372,3.36,1.997,5.063h21.888v2h-21.165
	c1.059,3.062,1.993,6.17,2.849,9.308c8.347,0,16.694,0,25.042,0c0.186,0,0.343,0.025,0.485,0.06
	C305.924,329.58,305.924,327.515,305.924,325.45z M384.427,235.607c-0.834-0.147-1.209-0.388-1.209-0.388l-0.095,1.159
	c0.005-0.006,0.01-0.013,0.016-0.02c0.046-0.051,0.098-0.099,0.154-0.145C383.574,235.967,384.012,235.729,384.427,235.607z
	 M390.514,234.885c2.435-0.65,4.745-1.722,7.016-2.95c-0.955,0.425-1.898,0.854-2.812,1.285
	C393.129,233.967,391.734,234.504,390.514,234.885z M418.324,320.92c-0.386-1.303-0.75-2.611-1.06-3.932
	c-0.048-0.205,0.003-0.395,0.114-0.566c-0.864-3.223-1.739-6.449-2.714-9.643c-5.38,1.253-6.869,9.444-7.151,15.475
	c0.969-1.582,2.123-2.981,4.003-3.761C414.225,317.373,416.364,319.175,418.324,320.92z M440.128,299.29
	c0.048-0.023,0.097-0.039,0.145-0.057c-1.303-1.269-2.533-2.657-3.663-4.21c-7.044-9.679-12.026-21.481-15.995-32.705
	c-4.188-11.839-6.838-23.959-7.014-36.542c-0.565,0.073-1.124,0.167-1.67,0.295c-1.341,0.506-3.184,1.213-5.28,2.046
	c-3.486,1.803-6.751,4.21-10.24,5.89c-3.468,1.67-6.925,2.823-10.696,2.995c-2.729,12.114-5.582,25.722-2.535,37.995
	c1.698,6.84,5.488,12.792,11.489,16.698c3.997,2.602,7.323,2.898,12.066,2.91c2.105,0.005,5.362,0.023,6.982,1.73
	c1.694,1.786,2.362,4.98,3.078,7.237c0.177,0.559,0.345,1.121,0.518,1.681c0.573,0.039,0.504,0.297,0.179,0.58
	c1.096,3.602,2.102,7.231,3.069,10.87c0.781,2.94,1.541,5.886,2.294,8.833c0.546,1.79,1.067,3.584,1.503,5.397
	C426.786,318.98,428.943,304.633,440.128,299.29z M454.034,307.871c-4.537-1.88-8.775-4.21-12.462-7.44
	c-0.082,0.05-0.17,0.1-0.273,0.149c-4.326,2.067-6.99,6.278-8.817,10.804c0.346,0.05,0.615,0.203,0.681,0.496
	c1.216,5.399,6.132,10.69,10.427,14.528c3.843-5.975,6.011-12.89,10.436-18.527C454.027,307.877,454.032,307.874,454.034,307.871z
	 M435.265,467.99c0-0.128,0-0.256,0-0.384c-6.699-1.765-12.875-6.747-17.308-11.885c-3.926-4.55-8.359-10.77-6.731-17.116
	c0.027-3.697,0.413-7.295,2.792-10.42c0.377-0.496,1.559-0.738,2.287-0.623c0.71-2.22,2.058-4.132,4.475-5.33
	c0.688-0.34,1.441-0.205,1.792,0.126c0.458-2.243,1.819-3.857,4.855-3.719c-0.503-1.979-0.539-4.418-0.831-6.157
	c-0.949-5.655-1.885-11.313-2.828-16.968c-0.957-5.743-1.911-11.485-2.903-17.222c-0.308-1.781-0.538-6.402-1.313-7.917
	c-0.193-0.138-0.313-0.343-0.298-0.636c0.006-0.123,0.05-0.232,0.104-0.345c0.12-0.253,0.385-0.467,0.701-0.625
	c-0.053-0.514,0.596-1.281,1.485-1.434c12.369-2.123,24.513-5.313,36.735-8.113c-1.538-15.836,2.813-30.696,10.335-44.713
	c0.16-0.299,0.676-0.512,1.229-0.632c0.856-0.187,1.799-0.149,1.638,0.151c-7.486,13.951-11.846,28.749-10.29,44.538
	c6.515-1.453,13.061-2.757,19.681-3.702c-0.945-2.748-1.92-5.485-2.939-8.206c-0.459-1.224,2.422-2.045,2.897-0.776
	c2.703,7.211,5.136,14.525,7.3,21.917c0.34,1.164,0.677,2.329,1.003,3.498c4.917,17.581,8.245,35.6,9.687,53.81
	c4.654-0.561,9.336-0.948,14.057-1.102c1.987-0.065,1.223,1.814-0.326,1.864c-25.479,0.827-49.819,8.409-74.388,14.457
	c0,8.695,0,17.39,0,26.084c0,0.268,0,0.537,0,0.805C438.162,468.051,435.265,468.471,435.265,467.99z M429.375,411.004
	c0.33,1.962,0.543,6.087,1.195,7.766c0.147,0.1,0.246,0.243,0.259,0.443c0.008,0.118,0.025,0.237,0.014,0.355
	c-0.003,0.031-0.026,0.06-0.033,0.09c5.262,3.221,6.032,13.274,7.079,18.899c19.25-4.744,38.375-10.389,57.999-13.066
	c-1.893-23.46-6.902-46.605-14.42-68.895c-6.755,0.928-13.431,2.246-20.075,3.719c0.038,0.299,0.062,0.596,0.104,0.896
	c0.115,0.817-2.805,1.438-2.897,0.776c-0.048-0.341-0.076-0.68-0.118-1.02c-12.092,2.759-24.105,5.914-36.328,8.065
	c1.212,1.762,1.15,5.83,1.487,7.777c0.979,5.661,1.926,11.328,2.87,16.996C427.465,399.539,428.414,405.273,429.375,411.004z
	 M435.265,465.395c0-8.246,0-16.492,0-24.738c-1.3-5.528-1.184-14.848-5.996-18.749c-0.813-0.658-3.051-2.77-3.508-1.459
	c-0.417,1.197-0.522,2.458-0.439,3.721c0.173,2.635,0.707,5.196,1.507,7.71c0.202,0.633-2.677,1.47-2.897,0.776
	c-0.712-2.237-1.785-6.17-1.504-9.304c-0.117,0.097-0.259,0.193-0.446,0.286c-4.341,2.15-3.614,8.981-3.152,12.909
	c0.144,1.221-2.766,1.9-2.897,0.776c-0.282-2.399-0.48-5.042-0.139-7.493c-1.325,2.449-1.624,5.147-1.663,7.909
	c0.058,0.096,0.076,0.214,0.036,0.361c-0.017,0.06-0.024,0.122-0.04,0.182c-0.004,1.273,0.035,2.557,0.044,3.833
	c0.001,0.214-0.113,0.406-0.294,0.569C415.069,452.25,426.666,462.207,435.265,465.395z M489.572,212.518
	c-0.138-0.8,1.048-1.176,1.628-1.258c2.387-0.339,4.633,0.494,5.761-2.089c1.09-2.497-0.714-2.71-2.351-4.366
	c-1.54-1.558-0.854-2.274,0.547-3.947c1.275-1.522,3.09-4.304,5.3-4.553c1.246-0.14,2.56,1.064,3.367,1.88
	c0.572,0.578,1.123,1.167,1.635,1.795c0.355-0.133,0.942-0.291,1.748-0.472c-0.766-5.335,3.754-7.904,9.017-6.765
	c3.074,0.666,4.596,3.18,4.397,6.359c-0.068,1.088,1.989,1.676,3.29,1.909c0.53,0.095,1.825-2.745,2.283-3.112
	c3.967-3.184,9.579,0.655,11.34,4.797c0.595,1.4,0.48,2.089-0.189,3.405c-0.267,0.524-0.883,0.792-1.265,1.198
	c-0.554,1.06-0.804,2.174-0.75,3.342c-0.581,2.436,3.374,1.316,4.881,2.123c3.828,2.046,0.66,9.363-3.334,9.332
	c-2.322-0.019-5.555,1.473-2.84,2.979c0.955,0.53,1.846,1.026,2.506,1.91c1.058,1.416-2.467,3.862-3.158,4.565
	c-1.003,1.021-2.833,3.47-4.657,2.501c-1.021-0.542-1.764-1.386-2.583-2.187c-1.474-1.438-3.923,0.227-2.63,2.215
	c2.586,3.978-10.489,4.058-11.629,4.303c-0.551,0.119-1.703,0.22-1.667-0.632c0.315-1.605-0.241-2.984-1.669-4.137
	c-1.06-0.102-2.104-0.287-3.131-0.555c-0.24,0.417-0.558,0.999-1.007,1.238c-1.388,0.739-2.529,0.836-4.105,0.645
	c-1.635-0.199-6.753-3.226-6.628-5.188c0.101-1.591,1.488-3.131,2.811-3.927c0.798-0.48,0.614-1.636,0.44-2.748
	c-0.381-2.434-3.001-2.92-5.226-2.817C487.771,220.443,490.029,215.18,489.572,212.518z M492.604,212.9
	c0.132,1.787-0.068,3.606-0.11,5.387c-0.721,0.326-0.559,0.363,0.487,0.112c0.367-0.037,0.734-0.073,1.102-0.11
	c0.615-0.062,1.267-0.081,1.874,0.042c4.327,0.873,3.159,3.577,3.99,6.94c0.091,0.368-0.251,0.708-0.534,0.879
	c-3.413,2.052-2.831,4.352,0.464,6.211c3.663,2.067,2.122-0.104,4.78-0.816c2.075-0.556,4.827,0.122,6.802,0.784
	c2.006,0.672,1.87,2.472,1.731,4.181c1.668-0.204,3.361-0.246,5.028-0.438c3.148-0.364,1.256-2.124,1.971-4.017
	c0.789-2.093,5.273-3.747,7.222-2.631c0.795,0.455,1.429,1.313,2.079,1.938c0.391,0.184,0.598,0.361,0.636,0.533
	c0.304-0.306,0.608-0.612,0.91-0.92c2.281-2.326,3.241-3.043,0.027-4.788c-2.673-1.451-0.082-4.065,1.801-5.29
	c1.842-1.197,5.168,0.467,5.537-2.603c0.396-3.287-0.737-3.705-3.755-4.038c-3.181-0.351-2.414-4.896-1.589-6.788
	c0.491-1.127,2.707-1.349,1.909-3.227c-0.627-1.473-1.68-2.741-2.902-3.766c-1.414-1.186-3.104-2.798-4.446-0.624
	c-0.367,0.595-0.733,1.271-1.245,1.762c-2.525,2.417-5.378,0.509-8.097-0.396c-0.2-0.067-0.547-0.183-0.575-0.449
	c-0.436-4.106-0.573-7.082-6.401-6.009c-1.535,0.283-1.263,3.905-1.028,4.876c0.167,0.689-0.872,1.24-1.756,1.305
	c-1.285,0.602-2.562,1.055-4.006,1.211c-0.34,0.037-0.927,0.037-1.161-0.284c-0.643-0.884-1.365-1.809-2.206-2.511
	c-0.233-1.312-0.629-1.524-1.188-0.636c-0.421,0.425-0.833,0.86-1.235,1.305c-2.615,2.958-1.989,4.354,1.989,6.027
	c0.338,0.142,0.383,0.518,0.215,0.802c-1.182,2.01-1.615,4.467-3.856,5.501C495.792,212.945,494.136,212.887,492.604,212.9z
	 M507.475,223.06c-4.183-4.859-2.796-10.405,2.297-13.852c0.137-0.092,0.452-0.188,0.813-0.265
	c4.447-1.708,10.357-2.536,13.91,1.385c3.126,3.451,3.34,8.681-0.143,12.03C519.904,226.636,511.972,228.284,507.475,223.06z
	 M509.03,220.497c1.274,1.976,3.276,3.88,5.656,4.407c3.332,0.738,6.974-1.183,8.456-4.256c3.599-7.465-4.325-14.08-11.515-11.1
	c-0.007,0.003-0.017,0.005-0.024,0.008C508.097,212.154,506.479,216.541,509.03,220.497z M100.373,346.438
	c-2.322-0.019-5.555,1.473-2.84,2.979c0.955,0.53,1.846,1.026,2.506,1.91c1.058,1.416-2.467,3.862-3.158,4.565
	c-1.003,1.021-2.833,3.47-4.657,2.501c-1.021-0.542-1.764-1.386-2.583-2.187c-1.474-1.438-3.923,0.227-2.63,2.215
	c2.586,3.978-10.489,4.058-11.629,4.303c-0.551,0.119-1.703,0.22-1.667-0.632c0.315-1.605-0.241-2.984-1.669-4.137
	c-1.06-0.102-2.104-0.287-3.131-0.555c-0.24,0.417-0.558,0.999-1.007,1.238c-1.388,0.739-2.529,0.836-4.105,0.645
	c-1.635-0.199-6.753-3.226-6.628-5.188c0.101-1.591,1.488-3.131,2.811-3.927c0.798-0.48,0.614-1.636,0.44-2.748
	c-0.381-2.434-3.001-2.92-5.226-2.817c-3.932,0.181-1.674-5.083-2.131-7.744c-0.138-0.8,1.048-1.176,1.628-1.258
	c2.387-0.339,4.633,0.494,5.761-2.089c1.09-2.497-0.714-2.71-2.351-4.366c-1.54-1.558-0.854-2.274,0.547-3.947
	c1.275-1.522,3.09-4.304,5.3-4.553c1.246-0.14,2.56,1.064,3.367,1.88c0.572,0.578,1.123,1.167,1.635,1.795
	c0.355-0.133,0.942-0.291,1.748-0.472c-0.766-5.335,3.754-7.904,9.017-6.765c3.074,0.666,4.596,3.18,4.397,6.359
	c-0.068,1.088,1.989,1.676,3.29,1.909c0.53,0.095,1.825-2.745,2.283-3.112c3.967-3.184,9.579,0.655,11.34,4.797
	c0.596,1.4,0.48,2.089-0.189,3.405c-0.267,0.524-0.883,0.792-1.265,1.198c-0.554,1.06-0.804,2.174-0.75,3.342
	c-0.581,2.436,3.374,1.316,4.88,2.123C107.534,339.153,104.367,346.47,100.373,346.438z M98.141,338.6
	c-3.181-0.351-2.414-4.896-1.589-6.788c0.491-1.127,2.707-1.349,1.909-3.227c-0.627-1.473-1.68-2.741-2.902-3.766
	c-1.414-1.186-3.104-2.798-4.446-0.624c-0.367,0.595-0.733,1.271-1.245,1.762c-2.525,2.417-5.378,0.509-8.097-0.396
	c-0.2-0.067-0.547-0.183-0.575-0.449c-0.436-4.106-0.573-7.082-6.401-6.009c-1.535,0.283-1.263,3.905-1.028,4.876
	c0.167,0.689-0.872,1.24-1.756,1.305c-1.285,0.602-2.562,1.055-4.006,1.211c-0.34,0.037-0.927,0.037-1.161-0.284
	c-0.643-0.884-1.365-1.809-2.206-2.511c-0.233-1.312-0.629-1.524-1.188-0.636c-0.421,0.425-0.833,0.86-1.235,1.305
	c-2.615,2.958-1.989,4.354,1.989,6.027c0.338,0.142,0.383,0.518,0.215,0.802c-1.182,2.01-1.615,4.467-3.856,5.501
	c-1.276,0.589-2.933,0.53-4.465,0.544c0.132,1.787-0.068,3.606-0.11,5.387c-0.721,0.326-0.559,0.363,0.487,0.112
	c0.367-0.037,0.734-0.073,1.102-0.11c0.615-0.062,1.267-0.081,1.874,0.042c4.327,0.873,3.159,3.577,3.99,6.94
	c0.091,0.368-0.251,0.708-0.534,0.879c-3.413,2.052-2.831,4.352,0.464,6.211c3.663,2.067,2.122-0.104,4.78-0.816
	c2.075-0.556,4.827,0.122,6.802,0.784c2.006,0.672,1.87,2.472,1.731,4.181c1.668-0.204,3.361-0.246,5.028-0.438
	c3.148-0.364,1.256-2.124,1.971-4.017c0.789-2.093,5.273-3.747,7.222-2.631c0.795,0.455,1.429,1.313,2.079,1.938
	c0.391,0.184,0.598,0.361,0.636,0.533c0.304-0.306,0.608-0.612,0.91-0.92c2.281-2.326,3.241-3.043,0.027-4.788
	c-2.673-1.451-0.082-4.065,1.801-5.29c1.842-1.197,5.168,0.467,5.537-2.603C102.291,339.352,101.158,338.933,98.141,338.6z
	 M87.991,334.672c3.126,3.451,3.34,8.681-0.143,12.03c-4.448,4.277-12.381,5.925-16.877,0.701
	c-4.183-4.859-2.796-10.405,2.297-13.852c0.137-0.092,0.452-0.188,0.813-0.265C78.527,331.58,84.438,330.751,87.991,334.672z
	 M75.122,333.892c-0.007,0.003-0.017,0.005-0.024,0.008c-3.505,2.598-5.124,6.985-2.572,10.94c1.274,1.976,3.276,3.88,5.656,4.407
	c3.332,0.738,6.974-1.183,8.456-4.256C90.236,337.526,82.312,330.912,75.122,333.892z M209.827,302.254c0,9.976,0,19.951,0,29.927
	c0,0.838-1.712,1.345-2.503,1.149c-0.26,0.255-0.642,0.436-1.121,0.436c-19.441,0-38.883,0-58.324,0
	c-0.677,0-1.052-0.261-1.192-0.601c-0.816,0.265-1.78,0.247-1.78-0.208c0-9.976,0-19.951,0-29.927c0-1.001,2.64-1.513,2.875-0.87
	c0.287-0.123,0.577-0.205,0.803-0.205c19.441,0,38.883,0,58.324,0c0.46,0,0.687,0.084,0.76,0.21
	C208.528,301.741,209.827,301.687,209.827,302.254z M206.444,331.584c0.186,0,0.343,0.025,0.485,0.06c0-9.536,0-19.071,0-28.607
	c-0.395,0.225-0.86,0.397-1.191,0.397c-19.311,0-38.623,0-57.934,0c0,9.393,0,18.785,0,28.178c0.1-0.018,0.205-0.028,0.315-0.028
	C167.562,331.584,187.003,331.584,206.444,331.584z M194.396,375.753c0,13.177,0,26.354,0,39.532
	c-0.176-0.278-0.538-0.479-1.131-0.479c-25.554,0-51.107,0-76.661,0c-0.324,0-0.604,0.083-0.832,0.214c0-12.951,0-25.901,0-38.852
	c0.043,0.001,0.078,0.006,0.126,0.006c25.553,0,51.107,0,76.661,0c0.975,0,3.122-1.479,1.171-1.479c-25.553,0-51.107,0-76.661,0
	c-0.361,0-0.882,0.203-1.297,0.458c0-0.059,0-0.119,0-0.178c0-0.787-2.897-0.271-2.897,0.776c0,13.463,0,26.926,0,40.39
	c0,0.543,1.383,0.465,2.238,0.019c0.048,0.444,0.429,0.826,1.25,0.826c25.554,0,51.107,0,76.661,0c0.686,0,1.174-0.365,1.384-0.796
	c0.12,0.771,2.886,0.24,2.886-0.826c0-13.463,0-26.926,0-40.39C197.293,374.13,194.396,374.664,194.396,375.753z M194.396,431.25
	c0,6.178,0,12.356,0,18.534c-0.176-0.278-0.538-0.479-1.131-0.479c-25.554,0-51.107,0-76.661,0c-0.324,0-0.604,0.083-0.832,0.214
	c0-5.964,0-11.927,0-17.89c0.043,0.001,0.078,0.006,0.126,0.006c25.553,0,51.107,0,76.661,0c0.975,0,3.122-1.479,1.171-1.479
	c-15.172,0-30.344,0-45.516,0v-12.635h-2v12.635c-9.715,0-19.43,0-29.145,0c-0.361,0-0.882,0.203-1.297,0.458
	c0-0.047,0-0.094,0-0.142c0-0.787-2.897-0.271-2.897,0.776c0,6.488,0,12.977,0,19.465c0,0.546,1.395,0.464,2.249,0.013
	c0.079,0.415,0.46,0.759,1.24,0.759c25.554,0,51.107,0,76.661,0c0.673,0,1.157-0.353,1.373-0.773c0,0,0,0,0,0.001
	c0,0.847,2.897,0.313,2.897-0.776c0-6.488,0-12.977,0-19.465C197.293,429.627,194.396,430.161,194.396,431.25z M329.389,431.25
	c0,6.178,0,12.356,0,18.534c-0.176-0.278-0.538-0.479-1.131-0.479c-25.554,0-51.107,0-76.661,0c-0.324,0-0.604,0.083-0.832,0.214
	c0-5.964,0-11.927,0-17.89c0.043,0.001,0.078,0.006,0.126,0.006c25.553,0,51.107,0,76.661,0c0.975,0,3.122-1.479,1.171-1.479
	c-7.336,0-14.673,0-22.009,0v-12.635h-2v12.635c-17.55,0-35.101,0-52.651,0c-0.361,0-0.882,0.203-1.297,0.458
	c0-0.047,0-0.094,0-0.142c0-0.787-2.897-0.271-2.897,0.776c0,6.488,0,12.977,0,19.465c0,0.546,1.395,0.464,2.249,0.013
	c0.079,0.415,0.46,0.759,1.24,0.759c25.554,0,51.107,0,76.661,0c0.673,0,1.157-0.353,1.373-0.773c0,0,0,0,0,0.001
	c0,0.847,2.897,0.313,2.897-0.776c0-6.488,0-12.977,0-19.465C332.287,429.627,329.389,430.161,329.389,431.25z M167.214,334.521
	v39.656h2v-39.656H167.214z M251.713,206.351h-54.328v2h54.328V206.351z M251.713,219.351h-54.328v2h54.328V219.351z
	 M251.713,232.351h-54.328v2h54.328V232.351z M154.386,313.813h45.328v-2h-45.328V313.813z M154.386,322.276h45.328v-2h-45.328
	V322.276z M182.713,390.813h-53.328v2h53.328V390.813z M129.386,401.276h53.328v-2h-53.328V401.276z M70.386,222.351h30.328v-2
	H70.386V222.351z M70.386,235.351h30.328v-2H70.386V235.351z M70.386,248.351h30.328v-2H70.386V248.351z M148.713,135.351h-33v2h33
	V135.351z M148.713,148.351h-33v2h33V148.351z M148.713,161.351h-33v2h33V161.351z M358.713,170.351h-33v2h33V170.351z
	 M358.713,183.351h-33v2h33V183.351z M358.713,196.351h-33v2h33V196.351z M268.214,334.521v39.656h2v-39.656H268.214z" fill="#0a1230"></path>
</svg>