<svg height="512pt" viewBox="0 0 512 512" width="512pt" xmlns="http://www.w3.org/2000/svg"><path d="m176 80v32h160v144h-256v80h32v-48h256v-208zm0 0" fill="#b0bec5"/><path d="m176 400h128v32h-128zm0 0" fill="#b0bec5"/><path d="m0 0h192v192h-192zm0 0" fill="#fdd835"/><path d="m480 512h-160c-17.679688 0-32-14.320312-32-32v-128c0-17.679688 14.320312-32 32-32h160c17.679688 0 32 14.320312 32 32v128c0 17.679688-14.320312 32-32 32zm0 0" fill="#64b5f6"/><path d="m443.902344 192h-193.40625l57.601562-192h193.40625zm0 0" fill="#8bc34a"/><path d="m192 416c0 53.019531-42.980469 96-96 96s-96-42.980469-96-96 42.980469-96 96-96 96 42.980469 96 96zm0 0" fill="#ef5350"/><g fill="#fff"><path d="m48 80h32v32h-32zm0 0"/><path d="m112 80h32v32h-32zm0 0"/></g></svg>