<svg id="Capa_1" enable-background="new 0 0 511.99 511.99" height="512" viewBox="0 0 511.99 511.99" width="512" xmlns="http://www.w3.org/2000/svg"><g><g><path d="m377.985 50.959c-31.878-32.27-74.396-50.366-119.722-50.955-.757-.01-1.512-.002-2.267-.002l-10.667 190.915 10.667 182.405 113.499-14.764c0-32.663 9.481-63.575 27.417-89.394 19.988-28.771 30.553-62.558 30.553-97.706-.001-45.405-17.573-88.199-49.48-120.499z" fill="#efe2dd"/><path d="m135.889 49.356c-32.95 32.404-51.19 75.537-51.361 121.452-.129 34.783 10.105 68.314 29.596 96.967 18.562 27.287 28.374 58.679 28.374 90.781l113.499 14.767v-373.32c-45.127-.003-87.684 17.466-120.108 49.353z" fill="#f7f0eb"/></g><g><path d="m342.417 201.465c0-26.043-10.142-50.527-28.557-68.943l-57.865-57.865-10.667 138.547 10.667 115.069 57.865-57.866c18.416-18.415 28.557-42.899 28.557-68.942z" fill="#21e672"/><path d="m198.13 132.522c-18.416 18.416-28.557 42.9-28.557 68.943s10.142 50.527 28.557 68.943l57.865 57.865v-253.616z" fill="#93e861"/></g><g><path d="m270.996 173.319h-15.001l-10.666 104.005 10.666 96h15.001z" fill="#0bab60"/><path d="m240.996 173.319h15v200.004h-15z" fill="#27c47a"/></g><g><path d="m255.995 410.92-10.666 47.737 10.666 53.333c40.62 0 73.667-33.047 73.667-73.667v-27.403z" fill="#fd8c02"/><path d="m182.329 410.92v27.404c0 40.62 33.047 73.666 73.667 73.667v-101.071z" fill="#fdae02"/></g><g><path d="m255.995 358.559-10.667 25.431 10.667 57.667h56.598c31.375 0 56.9-25.525 56.9-56.9v-26.198z" fill="#fdae02"/><path d="m142.497 358.559v26.198c0 31.375 25.525 56.9 56.9 56.9h56.598v-83.098z" fill="#fdcb02"/></g></g></svg>