<svg id="Capa_1" enable-background="new 0 0 511.156 511.156" height="512" viewBox="0 0 511.156 511.156" width="512" xmlns="http://www.w3.org/2000/svg"><g><path d="m421.734 0-35.861 16.043c-86.511 38.703-146.955 4.139-216.613 73.796-41.238 41.238-44.545 106.259-9.929 151.317l138.388-117.141 50.859-40.859z" fill="#97de3d"/><path d="m201.791 241.156 53.787 7.667 86.789-7.667c55.687-65.256 26.729-123.495 63.325-205.296l16.042-35.86c-5.686 5.685-119.55 119.55-124.016 124.016z" fill="#59c36a"/><path d="m287.112 113.409c-5.458 5.458-39.519 39.519-45 45-1.787-8.935-3.323-16.615-5.11-25.55-10.288 2.058-19.128 3.826-29.417 5.884 7.103 35.517 1.931 9.653 9.032 45.161-6.928 6.928-50.278 50.278-57.252 57.252l10.879 5.167 10.334-5.167 63.873-48 53.267-69.141z" fill="#59c36a"/><path d="m308.325 134.622c-6.566-6.566-4.041-4.041-10.606-10.606l-117.141 117.14 9.833 5.167 11.38-5.167 36.039-36.039c34.546 6.909 10.685 2.137 45.162 9.032 2.058-10.289 3.825-19.129 5.883-29.417-8.936-1.787-16.614-3.323-25.55-5.11 2.501-2.5 42.5-42.499 45-45z" fill="#00a66c"/><path d="m255.578 241.156c-10.128 0-139.871 0-150 0v60l75 15 75-15 15-30z" fill="#ded8e8"/><path d="m405.578 301.156c0-7.259 0-52.692 0-60-10.128 0-139.871 0-150 0v60l75 15z" fill="#cdcde3"/><path d="m255.578 331.156-97.5-15-97.5 15v105l97.5 15 97.5-15 15-60z" fill="#af5d4f"/><path d="m255.578 436.156 97.5 15 97.5-15c0-10.889 0-94.039 0-105l-97.5-15-97.5 15z" fill="#994439"/><path d="m60.578 436.156v15c0 33.083 26.915 60 60 60h135l15-37.5-15-37.5c-10.822 0-184.178 0-195 0z" fill="#ca7b69"/><path d="m255.578 511.156h135c33.083 0 60-26.915 60-60 0-5.246 0-9.754 0-15-10.822 0-184.178 0-195 0z" fill="#af5d4f"/><path d="m255.578 301.156c-27.954 0-170.501 0-195 0v30h195l15-15z" fill="#ca7b69"/><path d="m255.578 301.156v30h195c0-10.492 0-19.508 0-30-43.807 0-154.75 0-195 0z" fill="#af5d4f"/></g></svg>