<?xml version="1.0"?>
<svg xmlns="http://www.w3.org/2000/svg" xmlns:xlink="http://www.w3.org/1999/xlink" xmlns:svgjs="http://svgjs.com/svgjs" version="1.1" width="512" height="512" x="0" y="0" viewBox="0 0 512 512" style="enable-background:new 0 0 512 512" xml:space="preserve" class=""><rect width="512" height="512" rx="20" ry="20" fill="#fcfefe" shape="rounded"/><g transform="matrix(0.5,0,0,0.5,128.0002636909485,127.99999606609357)"><g xmlns="http://www.w3.org/2000/svg"><path d="m502.571 414.527-241 96.4c-3.576 1.431-7.566 1.431-11.143 0l-241-96.4c-5.694-2.278-9.428-7.793-9.428-13.927s3.734-11.649 9.429-13.927l241-96.4c3.576-1.431 7.566-1.431 11.143 0l241 96.4c5.694 2.278 9.429 7.793 9.429 13.927s-3.735 11.649-9.43 13.927z" fill="#6c63ff" data-original="#00b400" style="" class=""/><path d="m261.571 290.273 241 96.4c5.694 2.278 9.429 7.793 9.429 13.927s-3.734 11.649-9.429 13.927l-241 96.4c-1.788.715-3.68 1.073-5.571 1.073v-222.8c1.892 0 3.783.357 5.571 1.073z" fill="#6c63ff" data-original="#007800" style="" class=""/><path d="m502.571 318.127-241 96.4c-3.576 1.431-7.566 1.431-11.143 0l-241-96.4c-5.694-2.278-9.428-7.793-9.428-13.927s3.734-11.649 9.429-13.927l241-96.4c3.576-1.431 7.566-1.431 11.143 0l241 96.4c5.694 2.278 9.429 7.793 9.429 13.927s-3.735 11.649-9.43 13.927z" fill="#0a1230" data-original="#ffe100" style="" class=""/><path d="m261.571 193.873 241 96.4c5.694 2.278 9.429 7.793 9.429 13.927s-3.734 11.649-9.429 13.927l-241 96.4c-1.788.715-3.68 1.073-5.571 1.073v-222.8c1.892 0 3.783.357 5.571 1.073z" fill="#0a1230" data-original="#ffaf00" style="" class=""/><path d="m502.571 221.727-241 96.4c-3.576 1.431-7.566 1.431-11.143 0l-241-96.4c-5.694-2.278-9.428-7.793-9.428-13.927s3.734-11.649 9.429-13.927l241-96.4c3.576-1.431 7.566-1.431 11.143 0l241 96.4c5.694 2.278 9.429 7.793 9.429 13.927s-3.735 11.649-9.43 13.927z" fill="#f8f9fb" data-original="#ff004b" style="" class=""/><path d="m261.571 97.473 241 96.4c5.694 2.278 9.429 7.793 9.429 13.927s-3.734 11.649-9.429 13.927l-241 96.4c-1.788.715-3.68 1.073-5.571 1.073v-222.8c1.892 0 3.783.358 5.571 1.073z" fill="#f8f9fb" data-original="#b90041" style="" class=""/><path d="m502.571 125.327-241 96.4c-3.576 1.431-7.566 1.431-11.143 0l-241-96.4c-5.694-2.277-9.428-7.793-9.428-13.927s3.734-11.649 9.429-13.927l241-96.4c3.576-1.431 7.566-1.431 11.143 0l241 96.4c5.694 2.278 9.429 7.793 9.429 13.927s-3.735 11.65-9.43 13.927z" fill="#6c63ff" data-original="#00b4ff" style="" class=""/><path d="m261.571 1.073 241 96.4c5.694 2.278 9.429 7.793 9.429 13.927s-3.734 11.649-9.429 13.927l-241 96.4c-1.788.715-3.68 1.073-5.571 1.073v-222.8c1.892 0 3.783.358 5.571 1.073z" fill="#6c63ff" data-original="#0078ff" style="" class=""/></g></g></svg>
