<svg id="Flat" height="512" viewBox="0 0 512 512" width="512" xmlns="http://www.w3.org/2000/svg"><path d="m368 144.256v-32.256l32-88h-208l32 88v32.256a128 128 0 0 0 -120 127.744v152a64 64 0 0 0 64 64h256a64 64 0 0 0 64-64v-152a128 128 0 0 0 -120-127.744z" fill="#ad6643"/><path d="m328 328h96v32h-96z" fill="#ffb632"/><path d="m360 296h96v32h-96z" fill="#ffd33a"/><path d="m24 456h304v32h-304z" fill="#3dc285"/><path d="m24 424h304v32h-304z" fill="#35a872"/><path d="m24 392h304v32h-304z" fill="#3dc285"/><path d="m152 392h48v96h-48z" fill="#e1e3e6"/><circle cx="368" cy="232" fill="#ffd33a" r="56"/><path d="m368 296a64 64 0 1 1 64-64 64.072 64.072 0 0 1 -64 64zm0-112a48 48 0 1 0 48 48 48.055 48.055 0 0 0 -48-48z" fill="#ffb632"/><path d="m24 248h304v144h-304z" fill="#35a872"/><g fill="#3dc285"><path d="m24 288a40 40 0 0 0 40-40h-40z"/><path d="m328 288a40 40 0 0 1 -40-40h40z"/><path d="m24 352a40 40 0 0 1 40 40h-40z"/><path d="m328 352a40 40 0 0 0 -40 40h40z"/><circle cx="176" cy="320" r="72"/></g><path d="m328 456h96v32h-96z" fill="#ffb632"/><path d="m328 424h96v32h-96z" fill="#ffd33a"/><path d="m328 392h96v32h-96z" fill="#ffb632"/><path d="m328 360h96v32h-96z" fill="#ffd33a"/><path d="m176 312a8 8 0 0 1 0-16h16a8 8 0 0 0 0-16h-8a8 8 0 0 0 -16 0v1.376a24 24 0 0 0 8 46.624 8 8 0 0 1 0 16h-16a8 8 0 0 0 0 16h8a8 8 0 0 0 16 0v-1.376a24 24 0 0 0 -8-46.624z" fill="#35a872"/><circle cx="424" cy="424" fill="#ffd33a" r="56"/><path d="m424 488a64 64 0 1 1 64-64 64.072 64.072 0 0 1 -64 64zm0-112a48 48 0 1 0 48 48 48.055 48.055 0 0 0 -48-48z" fill="#ffb632"/><path d="m424 416h8a8 8 0 0 0 0-16 8 8 0 0 0 -16 0v2.165a15.986 15.986 0 0 0 8 29.835h-8a8 8 0 0 0 0 16 8 8 0 0 0 16 0v-2.165a15.986 15.986 0 0 0 -8-29.835z" fill="#ffb632"/><path d="m216 112h160v32h-160z" fill="#ffd33a"/><path d="m368 224h8a8 8 0 0 0 0-16 8 8 0 0 0 -16 0v2.165a15.986 15.986 0 0 0 8 29.835h-8a8 8 0 0 0 0 16 8 8 0 0 0 16 0v-2.165a15.986 15.986 0 0 0 -8-29.835z" fill="#ffb632"/></svg>